<?xml version="1.0" encoding="UTF-8" standalone="no"?>
<!DOCTYPE svg PUBLIC "-//W3C//DTD SVG 1.1//EN" "http://www.w3.org/Graphics/SVG/1.1/DTD/svg11.dtd">
<svg width="100%" height="100%" viewBox="0 0 2388 1668" version="1.1" xmlns="http://www.w3.org/2000/svg" xmlns:xlink="http://www.w3.org/1999/xlink" xml:space="preserve" xmlns:serif="http://www.serif.com/" style="fill-rule:evenodd;clip-rule:evenodd;stroke-linecap:round;stroke-linejoin:round;stroke-miterlimit:0;">
    <g transform="matrix(1,0,0,1,101.901,-2.12784)">
        <g>
            <g transform="matrix(1,0,0,1,-97.0267,-142.611)">
                <rect x="697.314" y="341.234" width="115.338" height="115.338" style="fill:rgb(255,79,79);"/>
                <g transform="matrix(1,0,0,1,-7.22778,132.974)">
                    <text x="729.937px" y="296.967px" style="font-family:'ArialMT', 'Arial', sans-serif;font-size:94.011px;fill:white;">R</text>
                </g>
            </g>
            <g transform="matrix(1,0,0,1,-97.0267,134.127)">
                <rect x="697.314" y="341.234" width="115.338" height="115.338" style="fill:rgb(92,92,246);"/>
                <g transform="matrix(1,0,0,1,-7.22778,136.837)">
                    <text x="729.937px" y="296.967px" style="font-family:'ArialMT', 'Arial', sans-serif;font-size:94.011px;fill:white;">B</text>
                </g>
            </g>
            <g transform="matrix(1,0,0,1,-97.0267,-4.24165)">
                <rect x="697.314" y="341.234" width="115.338" height="115.338" style="fill:rgb(88,208,56);"/>
                <g transform="matrix(1,0,0,1,-13.5059,134.825)">
                    <text x="729.937px" y="296.967px" style="font-family:'ArialMT', 'Arial', sans-serif;font-size:94.011px;fill:white;">G</text>
                </g>
            </g>
        </g>
        <g transform="matrix(1,0,0,1,-95.8051,964.342)">
            <rect x="697.314" y="341.234" width="115.338" height="115.338" style="fill:rgb(235,235,235);"/>
        </g>
        <g transform="matrix(1,0,0,1,-97.0267,272.496)">
            <rect x="697.314" y="341.234" width="115.338" height="115.338" style="fill:rgb(100,100,100);"/>
        </g>
        <g transform="matrix(3.16781,0,0,3.16781,-1697.96,-1562.97)">
            <text x="732.885px" y="716.55px" style="font-family:'ArialMT', 'Arial', sans-serif;font-size:38px;fill:white;">α</text>
        </g>
        <g transform="matrix(1,0,0,1,-97.0267,410.865)">
            <rect x="697.314" y="341.234" width="115.338" height="115.338" style="fill:rgb(235,235,235);"/>
        </g>
        <g transform="matrix(1,0,0,1,-97.0267,549.235)">
            <rect x="697.314" y="341.234" width="115.338" height="115.338" style="fill:rgb(235,235,235);"/>
        </g>
        <g transform="matrix(1,0,0,1,-110.14,11.7025)">
            <circle cx="770.071" cy="1063.98" r="26.116" style="fill:rgb(235,235,235);"/>
            <g transform="matrix(1,0,0,1,0,78.8069)">
                <circle cx="770.071" cy="1063.98" r="26.116" style="fill:rgb(235,235,235);"/>
            </g>
            <g transform="matrix(1,0,0,1,0,157.614)">
                <circle cx="770.071" cy="1063.98" r="26.116" style="fill:rgb(235,235,235);"/>
            </g>
        </g>
    </g>
    <g transform="matrix(1,0,0,1,940.153,-2.12784)">
        <g>
            <g transform="matrix(1,0,0,1,-97.0267,-142.611)">
                <rect x="697.314" y="341.234" width="115.338" height="115.338" style="fill:rgb(255,79,79);"/>
                <g transform="matrix(1,0,0,1,-7.22778,132.974)">
                    <text x="729.937px" y="296.967px" style="font-family:'ArialMT', 'Arial', sans-serif;font-size:94.011px;fill:white;">R</text>
                </g>
            </g>
            <g transform="matrix(1,0,0,1,-97.0267,134.127)">
                <rect x="697.314" y="341.234" width="115.338" height="115.338" style="fill:rgb(92,92,246);"/>
                <g transform="matrix(1,0,0,1,-7.22778,136.837)">
                    <text x="729.937px" y="296.967px" style="font-family:'ArialMT', 'Arial', sans-serif;font-size:94.011px;fill:white;">B</text>
                </g>
            </g>
            <g transform="matrix(1,0,0,1,-97.0267,-4.24165)">
                <rect x="697.314" y="341.234" width="115.338" height="115.338" style="fill:rgb(88,208,56);"/>
                <g transform="matrix(1,0,0,1,-13.5059,134.825)">
                    <text x="729.937px" y="296.967px" style="font-family:'ArialMT', 'Arial', sans-serif;font-size:94.011px;fill:white;">G</text>
                </g>
            </g>
        </g>
        <g transform="matrix(1,0,0,1,-95.8051,964.342)">
            <rect x="697.314" y="341.234" width="115.338" height="115.338" style="fill:rgb(100,100,100);"/>
        </g>
        <g transform="matrix(1,0,0,1,-97.0267,272.496)">
            <rect x="697.314" y="341.234" width="115.338" height="115.338" style="fill:rgb(235,235,235);"/>
        </g>
        <g transform="matrix(1,0,0,1,-97.0267,687.604)">
            <rect x="697.314" y="341.234" width="115.338" height="115.338" style="fill:rgb(235,235,235);"/>
        </g>
        <g transform="matrix(1,0,0,1,-97.0267,825.973)">
            <rect x="697.314" y="341.234" width="115.338" height="115.338" style="fill:rgb(100,100,100);"/>
        </g>
        <g>
            <g transform="matrix(3.16781,0,0,3.16781,-1705.88,-1017.39)">
                <text x="732.885px" y="716.55px" style="font-family:'ArialMT', 'Arial', sans-serif;font-size:38px;fill:white;">α</text>
            </g>
            <g transform="matrix(1.67737,0,0,1.67737,-2062.98,63.9826)">
                <text x="1637.49px" y="714.131px" style="font-family:'ArialMT', 'Arial', sans-serif;font-size:22.644px;fill:white;">1</text>
            </g>
        </g>
        <g transform="matrix(1,0,0,1,0,143.285)">
            <g transform="matrix(3.16781,0,0,3.16781,-1705.88,-1017.39)">
                <text x="732.885px" y="716.55px" style="font-family:'ArialMT', 'Arial', sans-serif;font-size:38px;fill:white;">α</text>
            </g>
            <g transform="matrix(1.67737,0,0,1.67737,-2062.98,63.9826)">
                <text x="1637.49px" y="714.131px" style="font-family:'ArialMT', 'Arial', sans-serif;font-size:22.644px;fill:white;">2</text>
            </g>
        </g>
    </g>
    <g transform="matrix(1,0,0,1,830.386,-271.93)">
        <circle cx="770.071" cy="1063.98" r="26.116" style="fill:rgb(235,235,235);"/>
        <g transform="matrix(1,0,0,1,0,78.8069)">
            <circle cx="770.071" cy="1063.98" r="26.116" style="fill:rgb(235,235,235);"/>
        </g>
        <g transform="matrix(1,0,0,1,0,157.614)">
            <circle cx="770.071" cy="1063.98" r="26.116" style="fill:rgb(235,235,235);"/>
        </g>
    </g>
    <g transform="matrix(0.743896,0,0,1.11786,1379.54,172.888)">
        <path d="M166.087,395.633C138.936,395.794 118.106,426.264 120.677,513.866C121.359,537.103 121.908,557.002 121.351,573.678C119.809,619.872 109.783,641.341 70.601,640.547C70.601,640.547 122.752,631.472 123.469,700.539C124.186,769.606 99.165,883.419 167.451,880.202" style="fill:none;stroke:rgb(93,93,93);stroke-width:22.69px;"/>
    </g>
    <g transform="matrix(-0.743896,9.1101e-17,-1.67344e-16,-1.36646,1008.29,1963.87)">
        <path d="M166.087,395.633C138.936,395.794 118.106,426.264 120.677,513.866C121.359,537.103 121.908,557.002 121.351,573.678C119.809,619.872 109.783,641.341 70.601,640.547C70.601,640.547 122.752,631.472 123.469,700.539C124.186,769.606 99.165,883.419 167.451,880.202" style="fill:none;stroke:rgb(93,93,93);stroke-width:19.59px;"/>
    </g>
    <g transform="matrix(0.330458,0,0,0.330458,923.998,370.091)">
        <text x="297.639px" y="1144.18px" style="font-family:'ArialMT', 'Arial', sans-serif;font-size:254.964px;fill:rgb(93,93,93);">15 hidden</text>
        <text x="297.639px" y="1407.48px" style="font-family:'ArialMT', 'Arial', sans-serif;font-size:254.964px;fill:rgb(93,93,93);">channels</text>
    </g>
    <g transform="matrix(1.04141,-0.199917,0.464225,2.41825,-512.001,-1225.87)">
        <path d="M1008.68,1003.67L1008.68,1012.87L975.813,998.717L1008.68,984.561L1008.68,993.762L1138.33,993.762L1138.33,1003.67L1008.68,1003.67Z" style="fill:rgb(93,93,93);"/>
    </g>
    <g transform="matrix(-1.04046,-0.204795,0.475552,-2.41605,1960.43,3608.17)">
        <path d="M1008.68,1003.67L1008.68,1012.87L975.813,998.717L1008.68,984.561L1008.68,993.762L1138.33,993.762L1138.33,1003.67L1008.68,1003.67Z" style="fill:rgb(93,93,93);"/>
    </g>
</svg>
