<svg id="Layer_1" data-name="Layer 1" xmlns="http://www.w3.org/2000/svg" xmlns:xlink="http://www.w3.org/1999/xlink" viewBox="0 0 119.75341 121.12768"><defs><style>.cls-1{fill:none;stroke:#2e7d32;stroke-linecap:round;stroke-linejoin:round;stroke-width:4px;}.cls-2{fill:url(#linear-gradient);}.cls-3{fill:url(#linear-gradient-2);}.cls-4{fill:url(#linear-gradient-3);}.cls-5{fill:url(#linear-gradient-4);}.cls-6{fill:#6bb828;}.cls-7{fill:url(#linear-gradient-5);}.cls-8{fill:#aed581;}.cls-9{fill:#fff;}.cls-10{fill:#b3b3b3;}.cls-11{fill:url(#linear-gradient-6);}</style><linearGradient id="linear-gradient" x1="122.4818" y1="152.94154" x2="135.8218" y2="170.90754" gradientTransform="matrix(0.9678, 0.2516, 0.2516, -0.9678, -119.93898, 161.37339)" gradientUnits="userSpaceOnUse"><stop offset="0" stop-color="#13630f"/><stop offset="0.1391" stop-color="#2a7915"/><stop offset="0.457" stop-color="#59a623"/><stop offset="0.6158" stop-color="#6bb828"/></linearGradient><linearGradient id="linear-gradient-2" x1="32.08392" y1="69.37472" x2="16.13192" y2="48.50972" gradientTransform="matrix(1, 0, 0, -1, 0, 127.88983)" xlink:href="#linear-gradient"/><linearGradient id="linear-gradient-3" x1="73.64" y1="71.24247" x2="102.73054" y2="71.24247" gradientTransform="matrix(1, 0, 0, -1, 0, 127.88983)" xlink:href="#linear-gradient"/><linearGradient id="linear-gradient-4" x1="66.25539" y1="46.70162" x2="53.11939" y2="20.16162" gradientTransform="matrix(1, 0, 0, -1, 0, 127.88983)" gradientUnits="userSpaceOnUse"><stop offset="0" stop-color="#134e0f"/><stop offset="0.2097" stop-color="#357719"/><stop offset="0.4804" stop-color="#5ca624"/><stop offset="0.6158" stop-color="#6bb828"/></linearGradient><linearGradient id="linear-gradient-5" x1="9.79855" y1="126.46215" x2="109.65365" y2="-3.46506" gradientTransform="matrix(1, 0, 0, -1, 0, 127.88983)" gradientUnits="userSpaceOnUse"><stop offset="0.2397" stop-color="#4aba00"/><stop offset="0.2683" stop-color="#49b802"/><stop offset="1" stop-color="#2e7d32"/></linearGradient><linearGradient id="linear-gradient-6" x1="25.1594" y1="94.61976" x2="94.4324" y2="21.14475" gradientTransform="matrix(1, 0, 0, -1, 0, 127.88983)" gradientUnits="userSpaceOnUse"><stop offset="0.0169" stop-color="#c5e1a5"/><stop offset="0.1983" stop-color="#c1dea1"/><stop offset="0.3788" stop-color="#b6d595"/><stop offset="0.5591" stop-color="#a3c781"/><stop offset="0.7392" stop-color="#88b265"/><stop offset="0.9176" stop-color="#669841"/><stop offset="0.9969" stop-color="#558b2f"/></linearGradient></defs><path class="cls-1" d="M121.44,108.67a7.34068,7.34068,0,0,0-2.24-2.97,7.0763,7.0763,0,0,0-2.97-1.4,7.36221,7.36221,0,0,0-2.76-.04,7.73454,7.73454,0,0,0-2,.63,7.64067,7.64067,0,0,0-1.16.69c-.25.19-.38.29-.38.29a.39161.39161,0,0,0-.08.53.3991.3991,0,0,0,.57.09s.12-.08.35-.24a7.17564,7.17564,0,0,1,1.06-.54,6.8797,6.8797,0,0,1,1.78-.45,6.22521,6.22521,0,0,1,2.32.17,5.74836,5.74836,0,0,1,2.39,1.3,5.85957,5.85957,0,0,1,1.65,2.48,5.67844,5.67844,0,0,1,.11,3.12,8.76974,8.76974,0,0,1-1.38,3.06,10.53955,10.53955,0,0,1-10.76,4.34c-.19-.04-.38-.1-.57-.15a20.97368,20.97368,0,0,1-3.32-2.07c-3.44-2.68-5.07-7.05-6.01-11.3-1.05-4.76-2.01-9.35-3.47-14.01-.85-2.71-1.79-5.4-2.86-8.04-.87-2.15-1.85-4.32-2.91-6.47a76.26977,76.26977,0,0,0-4.49-7.97c-.35-.54-.73-1.07-1.1-1.6a33.3193,33.3193,0,0,0-.48-5.63c-.81-4.68.1-5.41,2.56-5.71,2.18-.26,8.91,2.02,10.97.2,1.57-1.38,1.53-2.42,1.62-4.38.13-2.69,2.72-3.41,4.07-3.7a1.29138,1.29138,0,0,0,.8.49,1.256,1.256,0,1,0-1.04-1.44,1.3402,1.3402,0,0,0,.01.2,3.32294,3.32294,0,0,1-2.61-.98c-.44-.68,1.85-3.5,3.08-4.98a1.46257,1.46257,0,0,0,.51.22,1.256,1.256,0,1,0-1.04-1.44,1.24149,1.24149,0,0,0,.07.61c-1.14,1.13-3.37,3.31-3.98,3.18-.73-.16-.22-4.84.05-7.04a1.239,1.239,0,0,0,.95-1.02,1.256,1.256,0,1,0-2.48-.4A1.24158,1.24158,0,0,0,97,37.62c-.49,2.21-1.44,6.9-1.99,7.03-.59.15-1.42-3.36-1.93-5.59a1.23022,1.23022,0,0,0,.55-.84,1.256,1.256,0,1,0-1.44,1.04h.05c.3,2.11.63,5.44.32,6-.37.66-2.04.55-3.19.37a1.25384,1.25384,0,1,0-1.44,1.07,1.22253,1.22253,0,0,0,1.04-.34c1.69.74,3.55,1.61,3.99,3.07a2.18314,2.18314,0,0,1-1.32,2.74s-9.33-.36-12.43.53c-2.11.6-2.12,4.87-1.96,8.21-.5-.5-.99-1.02-1.51-1.49a43.43672,43.43672,0,0,0-4.06-3.25,41.03606,41.03606,0,0,0-9.93-5.24,31.9767,31.9767,0,0,0-6.39-1.6c-.89-.13-1.8-.27-2.72-.43a10.83836,10.83836,0,0,0,1.08-5.35c-.09-3.7-1.46-9.8.06-12.69a14.8518,14.8518,0,0,1,3.68-4.23,1.18855,1.18855,0,0,0,.63.32,1.256,1.256,0,1,0-1.04-1.44,1.182,1.182,0,0,0,.13.72c-1.12.91-2.61,1.68-3.32,1.12-.8-.62.64-3.47,1.42-4.99a1.06575,1.06575,0,0,0,.19.07,1.256,1.256,0,1,0-1.04-1.44,1.22933,1.22933,0,0,0,.39,1.09c-.71,1.61-2.11,4.59-2.97,4.04-.54-.35-.13-4.05-.29-6.33a1.23347,1.23347,0,0,0,.73-.92,1.256,1.256,0,1,0-1.44,1.04c.06,1.89.05,5.99-.92,6.35-.91.34-2.37-1.9-3.76-4.41a1.19549,1.19549,0,0,0,.32-.62,1.256,1.256,0,1,0-1.44,1.04,1.19928,1.19928,0,0,0,.5-.02c.85,1.4,2.89,4.88,2.13,5.87-.35.46-2.24.39-3.79.37a1.23349,1.23349,0,0,0-1.02-.99,1.25608,1.25608,0,1,0,.88,1.86c1.64.62,3.78,1.71,4.41,2.86,1.36,2.45,3.57,10.91-.64,13.38a20.24027,20.24027,0,0,1-2.74,1.33,14.84059,14.84059,0,0,1-6.21-3.65,7.45313,7.45313,0,0,1-2.18-6c.26-2.81.72-5.37.22-8.48a19.357,19.357,0,0,0-1.29-4.46c-.09-.22-.23-.46-.35-.7-1.42-2.74-4.79-6.62-8.2-10.07-3.85-3.89-7.75-7.23-8.97-7.72a3.13327,3.13327,0,0,0-4.2,1.56c-.87,1.04-1.98,4.14-2.84,8.04C9.58,20.8,8.87,27.67,9.9,32.91c1.62,8.21,6.4,11.68,9.02,13.66,1.94,1.47,2.29,2.29,5.45,5.25,1.81,1.69,3.21,8.21,4.37,10.46.59,1.15,1.23,2.31,1.93,3.46l-.17,2.65s-.2,5.34-1.27,7.47a8.28355,8.28355,0,0,1-2.14,2.9s-3.66-5.41-3.05-9.52a36.15825,36.15825,0,0,1,.72-3.74,1.24069,1.24069,0,0,0,1.06-1.03,1.256,1.256,0,0,0-2.48-.4,1.22735,1.22735,0,0,0,.69,1.3c-.23,1.18-.63,2.81-1.61,2.78-1.24-.04-2.98-4.9-3.73-7.1a1.22436,1.22436,0,1,0-.77.15c.04.01.07-.01.1,0,.8,2,2.62,6.42,1.73,6.89-.83.44-4.02-3.34-5.81-5.4a1.33645,1.33645,0,1,0-.67.5c1.44,1.48,5.46,5.77,4.83,6.69-.55.81-3.68-.11-5.59-.85a1.24116,1.24116,0,0,0-1.03-1.26,1.25612,1.25612,0,1,0,.82,1.95c1.84.63,5.29,1.65,5.14,2.64-.13.89-1.24.96-2.64,1.4a1.245,1.245,0,1,0,.21.9V74.6c1.56-.38,4.34-.82,5.9.9,1.96,2.15,5.83,10.96,7.89,9.96,1.8-.87,6.14-10.1,8.14-12.44a30.932,30.932,0,0,0,6.98,3.99,46.68229,46.68229,0,0,0,5.33,1.85c2.18.63,4.4,1.14,6.62,1.62,1.62.36,3.36.7,5.13,1.1-2.26,1.27-7.62,4.36-8.89,5.79-1.63,1.83-.61,3.05.71,4.07.83.64.37.7,9.25,3.66a8.30513,8.30513,0,0,1-3.66.71c-1.51,0-3.45-1-4.72-1.68,0-.02.01-.03.02-.05a1.256,1.256,0,1,0-1.44,1.04,1.2368,1.2368,0,0,0,1-.29c1.28.66,3.83,1.79,2.7,2.4-1.07.57-5.65.71-8.09,1.24a1.23384,1.23384,0,0,0-.85-.58,1.256,1.256,0,0,0-.4,2.48A1.23584,1.23584,0,0,0,48,99.5c1.59-.15,7.39-.57,7.76.17.34.67-4.9,3.63-7.32,5.65a1.70417,1.70417,0,0,0-.24-.09,1.256,1.256,0,1,0,1.04,1.44,1.14549,1.14549,0,0,0-.02-.49c1.65-1.18,7.87-5.3,8.79-4.56.82.65-1.35,5.78-2.41,8.49a1.24795,1.24795,0,1,0,1.38,1.43,1.22932,1.22932,0,0,0-.39-1.09c.94-1.89,4.07-7.99,4.71-7.89.59.09.45,4.46.45,6.03a1.24274,1.24274,0,0,0-.56.84,1.256,1.256,0,1,0,1.44-1.04h-.06c.42-2.85.96-7.39,1.42-7.7.61-.41,6.51-3.35,6.2-5.39-.31-2.03-4.78-4.27-7.93-5.18s8.54,2.54,11.39-1.73c.39-.58.72-1.08,1.03-1.53a15.042,15.042,0,0,1,2.38,2.13,36.3596,36.3596,0,0,1,5.71,8.44,71.90843,71.90843,0,0,0,4.64,9.19,47.62748,47.62748,0,0,0,8.42,9.72,37.264,37.264,0,0,0,5.12,3.91,16.32873,16.32873,0,0,0,9.82,2.36c.3-.03.6-.07.9-.13l.23-.04.24-.05.41-.1a13.73784,13.73784,0,0,0,1.84-.63,13.04663,13.04663,0,0,0,5.98-5.19,10.60311,10.60311,0,0,0,1.43-3.81,7.12017,7.12017,0,0,0-.36-3.99Z" transform="translate(-4.18 -3.5477)"/><path class="cls-2" d="M44.91,21.7c.3.52,3.37,5.25,2.46,6.43-.47.61-3.62.28-5.12.39a.22377.22377,0,0,0-.04.44c1.53.4,4.83,1.79,5.64,3.26,1.36,2.45,3.57,10.91-.64,13.38a25.59975,25.59975,0,0,1-9.08,3l-.87,3.76,7.16,1.13,7.73-4.29a10.11162,10.11162,0,0,0,1.26-5.66c-.09-3.7-1.46-9.8.06-12.69,1.46-2.79,4.33-4.63,4.55-5.01.22-.37-.2-.51-.41-.28-1.08,1.12-3.18,2.49-4.07,1.8-1.01-.78,1.59-5.18,1.85-5.87s-.19-.96-.49-.32-2.28,5.66-3.37,4.95c-.65-.42.07-5.64-.46-7.48-.29-1.02-.61-.18-.58.36s.33,6.82-.88,7.26c-.96.36-2.52-2.15-3.98-4.81C45.01,20.31,44.36,20.72,44.91,21.7Z" transform="translate(-4.18 -3.5477)"/><path class="cls-3" d="M30.19,68.41s-.2,5.34-1.27,7.47a8.28367,8.28367,0,0,1-2.14,2.9s-3.66-5.41-3.05-9.52a23.56993,23.56993,0,0,1,1.03-4.74c.19-.58-.57-.8-.8-.19-.24.61-.47,3.9-1.84,3.85-1.5-.05-3.76-7.24-4.06-8.08s-.92-.57-.68.23,3.15,7.2,2.07,7.78c-.94.5-4.91-4.43-6.45-6.11-.47-.52-1.3-.18-.54.71,0,0,6.1,6.09,5.34,7.2-.66.96-5-.53-6.56-1.25-.51-.24-.95.15-.32.64.63.5,6.4,1.81,6.21,3.09-.15.99-1.52.96-3.17,1.58-1.07.4-1.18,1.15-.2.9s4.87-1.5,6.83.66,5.83,10.96,7.89,9.96,7.46-12.96,8.84-12.98c.94-.01-6.73-10.5-6.73-10.5Z" transform="translate(-4.18 -3.5477)"/><path class="cls-4" d="M73.64,64.99s3.35,1.73,3.46-.51c.1-2.24-1.26-10.9,1.8-11.77,3.1-.89,12.43-.53,12.43-.53a2.18315,2.18315,0,0,0,1.32-2.74c-.5-1.67-2.84-2.56-4.67-3.37-.4-.18-.55-.82.08-.63s3.67.75,4.18-.16c.42-.76-.33-6.61-.6-7.62s.47-1.11.71-.3c.25.81,1.51,7.51,2.32,7.3.68-.17,2.01-7.43,2.25-8.12.25-.69.71-.54.66.1s-1.09,7.92-.17,8.12c.72.16,3.76-2.98,4.5-3.69s1.03-.25.66.25c-.37.49-4.38,4.98-3.81,5.86.54.84,2.39,1.18,3.32.89.93-.3.64.45.3.66-.34.22-4.67.39-4.85,3.89-.1,1.96-.05,3-1.62,4.38-2.07,1.82-8.79-.46-10.97-.2-2.46.3-3.37,1.03-2.56,5.71s.7,10.86-1.23,12.89-2.54,1.8-2.54,1.8L73.64,64.99Z" transform="translate(-4.18 -3.5477)"/><path class="cls-5" d="M61.69,81.03s-8.29,4.53-9.91,6.36-.61,3.05.71,4.07c.83.64.37.7,9.25,3.66a8.30513,8.30513,0,0,1-3.66.71c-1.75,0-4.09-1.35-5.27-1.98s-1.22.15-.41.7,4.55,1.99,3.23,2.7c-1.11.6-6.02.72-8.37,1.3-1.48.37-.73,1.09.07,1,.81-.1,7.69-.67,8.09.14.35.7-5.35,3.88-7.61,5.9-1.37,1.22.07,1.4.7.89.63-.52,8.15-5.66,9.17-4.84.85.68-1.56,6.29-2.55,8.86-.55,1.44.59,1.11.89.48s4.24-8.52,4.97-8.41c.64.1.42,5.24.45,6.37s.63.71.73.06c.42-2.76,1.01-7.97,1.5-8.3.61-.41,6.51-3.35,6.2-5.39-.3-2.03-4.78-4.27-7.93-5.18s8.54,2.54,11.39-1.73,3.35-4.88,3.35-4.88Z" transform="translate(-4.18 -3.5477)"/><circle class="cls-6" cx="87.89" cy="34.48229" r="1.25"/><circle class="cls-6" cx="40.76" cy="17.4923" r="1.25"/><circle class="cls-6" cx="8.39" cy="58.48229" r="1.25"/><circle class="cls-6" cx="6.77" cy="65.48229" r="1.25"/><circle class="cls-6" cx="9.26" cy="70.9323" r="1.25"/><circle class="cls-6" cx="47.97" cy="90.3523" r="1.25"/><circle class="cls-6" cx="42.32" cy="95.6023" r="1.25"/><circle class="cls-6" cx="43.5" cy="102.9523" r="1.25"/><circle class="cls-6" cx="51.25" cy="107.80229" r="1.25"/><circle class="cls-6" cx="57.94" cy="106.0923" r="1.25"/><circle class="cls-6" cx="20.08" cy="60.7423" r="1.25"/><circle class="cls-6" cx="46.55" cy="15.1323" r="1.25"/><circle class="cls-6" cx="51.18" cy="17.6623" r="1.25"/><circle class="cls-6" cx="53.8" cy="22.1723" r="1.25"/><circle class="cls-6" cx="38.19" cy="25.2023" r="1.25"/><circle class="cls-6" cx="13.62" cy="56.4323" r="1.25"/><circle class="cls-6" cx="93.01" cy="32.9523" r="1.25"/><circle class="cls-6" cx="98.39" cy="37.62229" r="1.25"/><circle class="cls-6" cx="98.44" cy="44.6123" r="1.25"/><circle class="cls-6" cx="83.63" cy="41.9123" r="1.25"/><path class="cls-7" d="M121.09,108.67a7.34068,7.34068,0,0,0-2.24-2.97,7.07641,7.07641,0,0,0-2.97-1.4,7.36221,7.36221,0,0,0-2.76-.04,7.73429,7.73429,0,0,0-2,.63,7.64087,7.64087,0,0,0-1.16.69c-.25.19-.38.29-.38.29a.39162.39162,0,0,0-.08.53.3991.3991,0,0,0,.57.09s.12-.08.35-.24a7.17585,7.17585,0,0,1,1.06-.54,6.87949,6.87949,0,0,1,1.78-.45,6.22524,6.22524,0,0,1,2.32.17,5.74842,5.74842,0,0,1,2.39,1.3,5.85957,5.85957,0,0,1,1.65,2.48,5.67854,5.67854,0,0,1,.11,3.12,8.76977,8.76977,0,0,1-1.38,3.06,10.53954,10.53954,0,0,1-10.76,4.34c-.19-.04-.38-.1-.57-.15a20.97413,20.97413,0,0,1-3.32-2.07c-3.44-2.68-5.07-7.05-6.01-11.3-1.05-4.76-2.01-9.35-3.47-14.01-.85-2.71-1.79-5.4-2.86-8.04-.87-2.15-1.85-4.32-2.91-6.47a76.268,76.268,0,0,0-4.49-7.97,52.01275,52.01275,0,0,0-8.54-10.3,43.43658,43.43658,0,0,0-4.06-3.25,41.03643,41.03643,0,0,0-9.93-5.24,31.97687,31.97687,0,0,0-6.39-1.6,59.65537,59.65537,0,0,1-10.05-2.21,15.45609,15.45609,0,0,1-6.75-3.84,7.45313,7.45313,0,0,1-2.18-6c.26-2.81.72-5.37.22-8.48a19.357,19.357,0,0,0-1.29-4.46c-.09-.22-.23-.46-.35-.7-1.42-2.74-4.79-6.62-8.2-10.07,1.81,4.83,2.21,9.9-.32,14.98,0,1.05-3.15,3.15-6.3,2.1-6.42-2.57-8.91-8.68-9.4-15.19-1.18,5.35-1.89,12.22-.86,17.46,1.62,8.21,6.4,11.68,9.02,13.66,1.94,1.47,2.29,2.29,5.45,5.25,1.81,1.69,3.21,8.21,4.37,10.46a36.06764,36.06764,0,0,0,6.16,9.02c.38.38.77.74,1.18,1.08a30.15942,30.15942,0,0,0,7.83,4.64,46.67775,46.67775,0,0,0,5.33,1.85c2.18.63,4.4,1.14,6.62,1.62,2.1.46,4.39.91,6.71,1.45a39.16327,39.16327,0,0,1,9.99,3.55,17.13272,17.13272,0,0,1,4.5,3.5,36.35966,36.35966,0,0,1,5.71,8.44,71.90961,71.90961,0,0,0,4.64,9.19,47.627,47.627,0,0,0,8.42,9.72,37.26322,37.26322,0,0,0,5.12,3.91,16.32874,16.32874,0,0,0,9.82,2.36c.3-.03.6-.07.9-.13l.23-.04.24-.05.41-.1a13.73987,13.73987,0,0,0,1.84-.63,13.04672,13.04672,0,0,0,5.98-5.19,10.60325,10.60325,0,0,0,1.43-3.81A7.239,7.239,0,0,0,121.09,108.67Z" transform="translate(-4.18 -3.5477)"/><path class="cls-8" d="M19.84,30.65c3.15,1.05,6.3-1.05,6.3-2.1,2.54-5.07,2.13-10.14.32-14.98-3.85-3.89-7.75-7.23-8.97-7.72a3.13327,3.13327,0,0,0-4.2,1.56c-.87,1.04-1.98,4.14-2.84,8.04C10.93,21.98,13.42,28.08,19.84,30.65Z" transform="translate(-4.18 -3.5477)"/><path class="cls-9" d="M10.44,31.3a5.58,5.58,0,1,1,5.58-5.58A5.58224,5.58224,0,0,1,10.44,31.3Z" transform="translate(-4.18 -3.5477)"/><path class="cls-10" d="M10.44,20.82a4.9,4.9,0,1,1-4.9,4.9,4.89514,4.89514,0,0,1,4.9-4.9m0-1.37a6.26,6.26,0,1,0,6.26,6.26A6.26937,6.26937,0,0,0,10.44,19.45Z" transform="translate(-4.18 -3.5477)"/><circle cx="4.91" cy="19.8723" r="2.39"/><path class="cls-9" d="M29.52,23.75a5.58,5.58,0,1,1,5.58-5.58A5.58224,5.58224,0,0,1,29.52,23.75Z" transform="translate(-4.18 -3.5477)"/><path class="cls-10" d="M29.51,13.27a4.9,4.9,0,1,1-4.9,4.9,4.89514,4.89514,0,0,1,4.9-4.9m0-1.36a6.26,6.26,0,1,0,6.26,6.26A6.26937,6.26937,0,0,0,29.51,11.91Z" transform="translate(-4.18 -3.5477)"/><circle cx="25.64" cy="12.2223" r="2.39"/><path class="cls-11" d="M26.77,35.73s.11.4.33,1.14c.21.78.54,1.74.99,3.02a27.18713,27.18713,0,0,0,1.99,4.36,24.11224,24.11224,0,0,0,3.72,4.83A53.85676,53.85676,0,0,0,39.59,54c1.09.82,2.29,1.74,3.43,2.51l.92.64.89.56c.58.38,1.2.75,1.86,1.12a92.49337,92.49337,0,0,0,8.27,4.19c2.92,1.32,5.95,2.62,8.97,4.05a86.32316,86.32316,0,0,1,8.9,4.74l.54.33.3.19.25.17c.34.24.65.43,1.01.71.72.53,1.38,1.06,2.03,1.6a36.32942,36.32942,0,0,1,3.54,3.47,51.25659,51.25659,0,0,1,8.92,14.87,75.523,75.523,0,0,1,3.54,11.55c.32,1.42.52,2.54.65,3.3.13.77.2,1.17.2,1.17a.17691.17691,0,0,1-.14.2.18807.18807,0,0,1-.19-.11s-.54-1.56-1.56-4.25a98.81374,98.81374,0,0,0-4.81-10.8,61.36139,61.36139,0,0,0-3.99-6.7,45.38375,45.38375,0,0,0-5.4-6.62,32.20158,32.20158,0,0,0-3.31-2.96c-.59-.46-1.2-.9-1.8-1.29-.28-.2-.66-.42-.99-.63l-.26-.16-.22-.13-.51-.29a78.54772,78.54772,0,0,0-8.57-4.25c-5.96-2.57-12.2-4.96-17.81-8.12-.7-.38-1.39-.8-2.08-1.24l-1.02-.65-.92-.64c-1.32-.9-2.43-1.75-3.61-2.62a51.38579,51.38579,0,0,1-6.3-5.46,26.557,26.557,0,0,1-4.31-5.94,31.308,31.308,0,0,1-2.16-5.16c-.47-1.45-.76-2.67-.92-3.39-.17-.75-.26-1.16-.26-1.16a2.12059,2.12059,0,0,1,4.1-1.07Z" transform="translate(-4.18 -3.5477)"/></svg>