<?xml version="1.0" encoding="UTF-8"?>
<!-- Created with Inkscape (http://www.inkscape.org/) -->
<svg width="415.64mm" height="493.79mm" version="1.1" viewBox="0 0 415.64 493.79" xmlns="http://www.w3.org/2000/svg" xmlns:xlink="http://www.w3.org/1999/xlink">
 <defs>
  <linearGradient id="linear-gradient-1" x1="205.45" x2="218.79" y1="617.74" y2="599.78" gradientTransform="rotate(14.573 2375.9 -345.55)" gradientUnits="userSpaceOnUse">
   <stop stop-color="#13630f" offset="0"/>
   <stop stop-color="#2a7915" offset=".1391"/>
   <stop stop-color="#59a623" offset=".457"/>
   <stop stop-color="#6bb828" offset=".6158"/>
  </linearGradient>
  <linearGradient id="linear-gradient-6" x1="25.16" x2="94.433" y1="747.27" y2="820.74" gradientTransform="translate(-4.18 -717.55)" gradientUnits="userSpaceOnUse">
   <stop stop-color="#c5e1a5" offset=".0169"/>
   <stop stop-color="#c1dea1" offset=".1983"/>
   <stop stop-color="#b6d595" offset=".3788"/>
   <stop stop-color="#a3c781" offset=".5591"/>
   <stop stop-color="#88b265" offset=".7392"/>
   <stop stop-color="#669841" offset=".9176"/>
   <stop stop-color="#558b2f" offset=".9969"/>
  </linearGradient>
  <linearGradient id="linearGradient26389" x1="205.45" x2="218.79" y1="617.74" y2="599.78" gradientTransform="rotate(14.573 2375.9 -345.55)" gradientUnits="userSpaceOnUse" xlink:href="#linear-gradient-1"/>
  <linearGradient id="linearGradient26391" x1="32.084" x2="16.132" y1="772.52" y2="793.38" gradientTransform="translate(-4.18 -717.55)" xlink:href="#linear-gradient-1"/>
  <linearGradient id="linearGradient26393" x1="73.64" x2="102.73" y1="770.65" y2="770.65" gradientTransform="translate(-4.18 -717.55)" xlink:href="#linear-gradient-1"/>
  <linearGradient id="linearGradient26395" x1="66.255" x2="53.119" y1="795.19" y2="821.73" gradientTransform="translate(-4.18 -717.55)" gradientUnits="userSpaceOnUse">
   <stop stop-color="#134e0f" offset="0"/>
   <stop stop-color="#357719" offset=".2097"/>
   <stop stop-color="#5ca624" offset=".4804"/>
   <stop stop-color="#6bb828" offset=".6158"/>
  </linearGradient>
  <linearGradient id="linearGradient26397" x1="9.8108" x2="94.08" y1="715.42" y2="856.33" gradientTransform="translate(-4.18 -717.55)" gradientUnits="userSpaceOnUse">
   <stop stop-color="#4aba00" offset=".2397"/>
   <stop stop-color="#49b802" offset=".2683"/>
   <stop stop-color="#173" offset="1"/>
  </linearGradient>
  <linearGradient id="linearGradient26399" x1="25.16" x2="83.213" y1="747.27" y2="828.16" gradientTransform="translate(-4.18 -717.55)" gradientUnits="userSpaceOnUse">
   <stop stop-color="#c5e1a5" offset=".0169"/>
   <stop stop-color="#c1dea1" offset=".1983"/>
   <stop stop-color="#b6d595" offset=".3788"/>
   <stop stop-color="#a3c781" offset=".5591"/>
   <stop stop-color="#88b265" offset=".7392"/>
   <stop stop-color="#173" offset=".9969"/>
  </linearGradient>
  <linearGradient id="linear-gradient-08" x1="25.16" x2="94.433" y1="745.16" y2="818.63" gradientTransform="matrix(.82538 0 0 .82538 211.97 -580.82)" gradientUnits="userSpaceOnUse">
   <stop stop-color="#c5e1a5" offset=".0169"/>
   <stop stop-color="#c1dea1" offset=".1983"/>
   <stop stop-color="#b6d595" offset=".3788"/>
   <stop stop-color="#a3c781" offset=".5591"/>
   <stop stop-color="#88b265" offset=".7392"/>
   <stop stop-color="#669841" offset=".9176"/>
   <stop stop-color="#558b2f" offset=".9969"/>
  </linearGradient>
  <linearGradient id="linearGradient3088" x1="205.45" x2="218.79" y1="617.74" y2="599.78" gradientTransform="matrix(.79882 .20767 -.20767 .79882 15.595 -492.9)" gradientUnits="userSpaceOnUse" xlink:href="#linear-gradient-1"/>
  <linearGradient id="linear-gradient-2-81" x1="32.084" x2="16.132" y1="772.52" y2="793.38" gradientTransform="matrix(.82538 0 0 .82538 20.818 -582.56)" xlink:href="#linear-gradient-1"/>
  <linearGradient id="linear-gradient-3-0" x1="73.64" x2="102.73" y1="770.65" y2="770.65" gradientTransform="matrix(.82538 0 0 .82538 20.818 -582.56)" xlink:href="#linear-gradient-1"/>
  <linearGradient id="linear-gradient-4-2" x1="66.255" x2="53.119" y1="795.19" y2="821.73" gradientTransform="matrix(.82538 0 0 .82538 20.818 -582.56)" gradientUnits="userSpaceOnUse">
   <stop stop-color="#134e0f" offset="0"/>
   <stop stop-color="#357719" offset=".2097"/>
   <stop stop-color="#5ca624" offset=".4804"/>
   <stop stop-color="#6bb828" offset=".6158"/>
  </linearGradient>
  <linearGradient id="linear-gradient-5-6" x1="9.8108" x2="109.41" y1="715.42" y2="846.86" gradientTransform="matrix(.82538 0 0 .82538 20.818 -582.56)" gradientUnits="userSpaceOnUse" xlink:href="#linear-gradient-6">
   <stop stop-color="#4cc41c" offset=".16281"/>
   <stop stop-color="#173" offset="1"/>
  </linearGradient>
  <linearGradient id="linearGradient8879" x1="25.16" x2="94.433" y1="747.27" y2="820.74" gradientTransform="matrix(.82538 0 0 .82538 20.818 -582.56)" gradientUnits="userSpaceOnUse" xlink:href="#linear-gradient-6"/>
 </defs>
 <g transform="translate(-63.491 -56.333)">
  <rect x="63.491" y="56.333" width="160" height="160" fill-opacity="0" stroke-opacity="0"/>
  <path d="m239.88 136.33h48.657" color="#000000" fill="#808080" stroke-width="10" style="-inkscape-stroke:none"/>
  <path d="m239.88 131.33v10h48.656v-10z" color="#000000" fill="#999" style="-inkscape-stroke:none"/>
  <g fill="#999" fill-rule="evenodd">
   <path d="m300.08 136.33-17.3 10v-20z" color="#000000" stroke-width="2pt" style="-inkscape-stroke:none"/>
   <path d="m281.44 124.02v24.621l21.297-12.311-1.9961-1.1543zm2.666 4.6211 13.305 7.6894-13.305 7.6894z" color="#000000" style="-inkscape-stroke:none"/>
  </g>
  <rect x="319.13" y="56.333" width="160" height="160" fill-opacity="0" stroke-opacity="0"/>
  <rect x="63.491" y="390.13" width="160" height="160" fill-opacity="0" stroke-opacity="0"/>
  <g transform="matrix(1.1778 0 0 1.1778 67.825 395.59)">
   <g fill="#70853c">
    <path d="m32.6 5.38c-0.47 0.86 0.09 1.97 2.16 2.82 2.06 0.84 6.48 2.72 7.79 4.79s1.97 3.75 0.56 7.23 1.97 4.04 1.97 4.04 3.47-4.13 1.41-10.04-9.2-8.35-10.23-8.73c-1.03-0.39-3.1-1.14-3.66-0.11z"/>
    <ellipse transform="matrix(.7621 -.6475 .6475 .7621 -55.788 47.342)" cx="36.52" cy="99.58" rx="5.24" ry="5.43"/>
    <ellipse transform="matrix(.4345 -.9007 .9007 .4345 -69.027 108.65)" cx="52.01" cy="109.29" rx="5.24" ry="5.43"/>
    <ellipse transform="matrix(.1597 -.9872 .9872 .1597 -50.77 166.26)" cx="72.28" cy="112.95" rx="5.24" ry="5.43"/>
    <ellipse transform="matrix(.1597 -.9872 .9872 .1597 -38.552 188.21)" cx="91.28" cy="116.75" rx="5.24" ry="5.43"/>
    <ellipse cx="23.8" cy="53.01" rx="5.14" ry="4.93"/>
    <ellipse transform="matrix(.9964 -.085 .085 .9964 -5.7186 2.3289)" cx="24.5" cy="68.36" rx="5.14" ry="4.93"/>
    <ellipse transform="matrix(.9453 -.3262 .3262 .9453 -26.084 13.816)" cx="28.16" cy="84.7" rx="5.4" ry="5.52"/>
   </g>
   <path d="m55.41 73.57c6.19 10.42 25.34 10.28 43.5 16.19 11.92 3.88 19.29 13.09 17.88 21.68s-7.47 10.8-12.67 10.56c-6.19-0.28-13.66-5.49-19.29-6.76s-27.92-3.47-33.79-5.91c-6.76-2.82-15.49-8.87-20.69-17.88-4.92-8.52-5.91-23.93-6.05-30.97s0.14-13.8-0.42-15.49-10.03-1.77-11.97-10.28c-2.11-9.29 4.65-19.15 14.64-20.98s22.52 2.96 25.9 14.5c3.38 11.55-1.75 37.42 2.96 45.34z" fill="#b7d019"/>
   <g fill="#70853c">
    <path d="m30.72 62.26c-0.64 1.52 1.18 2.65 3.75 2.86 3.38 0.28 8.47-1.06 12.34-2.53 4.04-1.54 6.55-3.45 6.55-3.45l-0.07-4.29s-2.75 2.67-9.06 4.6c-3.02 0.92-7.32 1.88-8.78 1.92-1.44 0.04-4.21-0.33-4.73 0.89z"/>
    <path d="m45.13 4.77c-0.93 0.72-0.35 1.94 0.42 3 0.89 1.22 2.96 3.94 3.05 6.52 0.06 1.55-0.47 5.71-1.17 6.85-1.17 1.92 1.36 3.33 2.63 2.53 1.55-0.97 2.2-7.33 1.92-10.04-0.47-4.69-3.14-6.9-4.08-7.84-0.76-0.74-1.93-1.67-2.77-1.02z"/>
    <path d="m98.06 89.47s0.19 6.79-0.84 10.37c-1.17 4.08-2.63 7.27-3.38 8.78-0.32 0.64-0.56 1.55 0.23 2.16s2.16 0.14 2.72-0.7c0.67-1.01 2.96-4.79 3.99-9.48 1.39-6.33 0.94-9.9 0.94-9.9s-1.36-0.56-1.88-0.7c-0.51-0.15-1.78-0.53-1.78-0.53z"/>
    <path d="m81.07 85.25s0.19 5.21-0.99 9.62c-0.8 3-2.86 7.13-3.28 7.98-0.42 0.84-1.34 2.25-0.47 3.33 1.25 1.56 3.26-0.33 3.92-1.78 0.43-0.96 2.4-4.19 3.59-8.78 1.36-5.26 0.99-9.53 0.99-9.53z"/>
    <path d="m64.32 80.7s-0.49 6.73-2.11 9.76c-2.53 4.74-5.77 7.32-6.19 7.74s-2.02 1.82-0.47 2.91c1.27 0.89 2.82 0 3.24-0.38s5.02-3.41 7.23-9.34c1.78-4.79 1.88-9.39 1.88-9.39s-1.45-0.56-1.83-0.7c-0.39-0.13-1.75-0.6-1.75-0.6z"/>
    <path d="m54.49 71.45s-3.87 4.6-6.55 6.48c-3.31 2.33-7.41 3.61-8.78 3.75-1.36 0.14-3.24 0.28-3 2.06 0.23 1.78 2.81 1.69 4.18 1.69 2.11 0 7.13-1.99 10.35-4.34 3.07-2.24 5.91-5.77 5.91-5.77s-1.2-1.5-1.34-1.97c-0.14-0.46-0.77-1.9-0.77-1.9z"/>
   </g>
   <g fill="#fe6014">
    <circle cx="32.17" cy="55.01" r="3.1"/>
    <circle cx="32.87" cy="74.93" r="3.1"/>
    <circle cx="46.39" cy="94.74" r="3.1"/>
    <ellipse cx="68.48" cy="103.34" rx="2.88" ry="2.83"/>
    <ellipse cx="87.01" cy="107.78" rx="2.85" ry="2.72"/>
    <ellipse cx="103.69" cy="112.98" rx="2.85" ry="2.72"/>
   </g>
   <g fill="#2e2e27">
    <path d="m109.1 96.05c-2.22-1.09-3.84 2.56-4.81 6.49s-1.87 6.58 0.57 7.37c2.98 0.96 5.12-3.45 5.86-6.85s0.41-6.02-1.62-7.01z"/>
    <path d="m92.99 88.84c-3.52-0.99-4.02 3.79-4.86 7.53-0.88 3.94-3.1 7.42 0.07 8.38 3.94 1.2 5.98-3.85 6.69-7.04 0.74-3.31 1.46-7.93-1.9-8.87z"/>
    <path d="m74.83 84.34c-3.68-0.99-4.18 3.71-5.35 7.72-1.17 4.04-1.65 7.47 0.56 8.26 2.63 0.94 4.83-2.06 6.05-6.15 1.23-4.09 2.55-8.82-1.26-9.83z"/>
    <path d="m49.87 92.69c2.5 2.7 6.44-0.68 8.49-3.57 1.97-2.77 5.53-7.39 2.39-9.76-2.67-2.02-6.02 2.2-8.02 4.83-1.78 2.35-5.25 5.92-2.86 8.5z"/>
    <path d="m36.26 73.66c0.6 2.41 6.29 3.1 10.75 0.52 3.15-1.82 6.8-4.65 5.96-7.93-0.88-3.44-6.29-0.33-9.43 0.94-3.15 1.26-8.31 2.34-7.28 6.47z"/>
    <path d="m52.8 48.16c-0.7-2.39-4.48 0.12-8.66 1.48-3.73 1.22-8.87 0.99-8.59 4.88 0.25 3.42 8.01 2 10.98 0.89 3.53-1.32 7.27-3.87 6.27-7.25z"/>
    <ellipse transform="matrix(.5 -.866 .866 .5 -7.8044 40.39)" cx="31.08" cy="26.95" rx="3.43" ry="3.19"/>
   </g>
  </g>
  <path d="m239.88 470.13h48.657" color="#000000" fill="#808080" stroke-width="10" style="-inkscape-stroke:none"/>
  <path d="m239.88 465.13v10h48.656v-10z" color="#000000" fill="#999" style="-inkscape-stroke:none"/>
  <g fill="#999" fill-rule="evenodd">
   <path d="m300.08 470.13-17.3 10v-20z" color="#000000" stroke-width="2pt" style="-inkscape-stroke:none"/>
   <path d="m281.44 457.82v24.621l21.297-12.311-1.9961-1.1543zm2.666 4.6211 13.305 7.6894-13.305 7.6895z" color="#000000" style="-inkscape-stroke:none"/>
  </g>
  <g transform="matrix(1.2055 0 0 1.2055 322.32 389.4)">
   <polygon points="79.9 88.49 74.41 85.67 69.11 88.58 71.03 101.02 70.61 104.96 69.91 107.78 67.94 111.72 62.87 114.67 55.69 114.82 46.4 112.28 40.91 108.06 37.53 102.43 38.37 94.97 47.94 82.72 39.92 85.67 29.64 85.96 21.2 76.8 8.24 55.83 5.01 46.54 7.68 43.72 15.42 43.72 32.04 46.4 50.2 53.58 63.29 61.04 71.08 63.95 75.77 54.56 86.28 41.05 99.8 31.1 113.31 24.9 120.59 24.72 122.42 27.53 119.32 41.75 114.39 62.73 111.3 67.79 103.98 71.88 96.51 73 104.12 76.52 109.75 80.89 112.98 85.39 112.98 91.45 110.17 99.33 101.72 106.09 96.51 108.06 88.35 106.09 86.52 103.98 82.62 97.78" fill="#41484a"/>
   <path d="m67.02 46.26s1.23-11.63 2.53-16.19c1.83-6.41 7.04-11.47 11.4-11.97 4.36-0.49 3.8 2.89 1.13 4.29-2.57 1.35-5.35 0.56-5.35 0.56s-3.59 2.62-4.79 8.02c-1.41 6.34-2.53 16.19-2.53 16.19z" fill="#676f72"/>
   <path d="m63.15 47.03s-4.77-9.69-9.92-15.84c-5.14-6.12-11.68-6.34-12.6-6.41s-4.79 0.56-4.79 2.39c0 2.46 3.4 2.9 5.35 2.53 2.25-0.42 3.31-1.76 3.31-1.76s4.18 1.66 6.97 5c3.24 3.87 9.22 15.56 9.22 15.56l0.42 1.55z" fill="#676f72"/>
   <g fill="#ff8b03">
    <path d="m54.84 93.7c-1.75-0.87-7.04 4.08-7.04 6.48 0 1.57 1.13 4.22 3.52 3.52 2.4-0.71 5.78-8.88 3.52-10z"/>
    <path d="m45.41 93.7c2.25 1.97 5.97-1.95 7.6-4.5 1.97-3.1 2.96-10.84 2.39-10.56-0.56 0.28-7.6 5.35-7.6 5.35s-5.34 7.13-2.39 9.71z"/>
    <path d="m56.11 103.27c0 2.46 2.67 4.22 5.35 3.8 1.4-0.22 3.91-1.52 3.66-3.8-0.28-2.53-1.41-6.34-4.08-6.76-2.68-0.42-4.93 2.68-4.93 6.76z"/>
    <path d="m71.01 83.91s-3.69 7.75-4.49 9.64c-1.13 2.67-1.17 9.34 1.83 10.42 2.14 0.77 2.67-2.96 2.67-2.96s0.37-7.64 0.37-10.17c0.01-2.53-0.38-6.93-0.38-6.93z"/>
    <path d="m73.85 75.12s7.04 8.17 9.15 9.71c2.11 1.55 5.77 5.91 10.56 2.67s-8.17-14.08-9.29-14.92c-1.13-0.84-11.27-0.98-11.27-0.98z"/>
    <path d="m76.38 83s4.92 4.49 5.91 5.49c2.11 2.11 4.5 4.07 5.49 7.04 0.56 1.69 1.41 4.22-0.42 5.21-1.51 0.81-3.4-1.39-4.08-2.11-0.69-0.72-3.33-6.53-4.87-9.84-0.64-1.36-2.03-5.79-2.03-5.79z"/>
    <path d="m90.74 91.45c-1.13 1.52 0.32 6.76 1.83 7.74 2.82 1.83 6.19-1.41 6.19-2.96 0.01-1.55-5.63-8.02-8.02-4.78z"/>
    <path d="m88.91 72.02s6.19 9.71 9.57 11.68 6.04 1.75 7.04 0c2.25-3.94-7.46-9.29-7.46-9.29z"/>
    <path d="m96.65 87.22c-0.84 1.83 2.67 7.18 5.07 7.18s3.26-3.39 3.1-4.5c-0.28-1.97-6.73-5.8-8.17-2.68z"/>
    <path d="m61.6 75.4s-6.49 10.66-4.5 15.91c1.55 4.08 5.77 3.38 9.43-3.52s4.36-11.26 4.36-11.26l-1.13-3.94z"/>
   </g>
   <path d="m63.99 60.33s-5.77-5.21-17.46-10.14-22.1-8.02-31.39-7.88-10.7 2.25-11.12 3.94 1.24 7.02 3.1 10.28c2.25 3.94 10.7 17.6 13.66 21.82 2.55 3.65 4.31 7.7 9.85 9.01 6.15 1.45 13.66-1.69 13.66-1.69s-7.18 6.48-7.6 13.37c-0.42 6.9 3.24 11.83 10.84 14.5s18.7 4.72 22.24-3.66c1.03-2.44 0.84-4.93 0.84-4.93s-2.56 7.31-6.48 8.02c-3.1 0.56-2.67-1.27-5.49-1.55s-2.39 1.83-5.35 1.83c-2.27 0-1.55-1.83-3.94-3.1s-3.75 0.78-5.21-0.42c-2.39-1.97-0.14-2.96-1.13-4.5-0.99-1.55-3.26-2.02-3.8-3.94-0.99-3.52 0.99-6.19 3.1-9.29s5.91-7.6 8.87-9.71 17.53-9.06 17.53-9.06 0.77-2.62-0.35-2.48c-1.13 0.14-14.36 7.18-16.76 8.73-2.39 1.55-12.74 6.91-20.27 5.21-4.36-0.99-12.23-14.87-15.41-19.19s-8.68-14.92-8.24-17.98c0.41-2.82 5.21-3.38 12.53-2.53 7.32 0.84 13.8 3.1 22.95 6.9s19.57 10.84 20.84 10.84c1.26 0-0.01-2.4-0.01-2.4z" fill="#676f72"/>
   <path d="m72.58 62.02s-1.13-2.72 0.84-6.1 8.31-12.9 14.78-18.68c6.48-5.77 28.3-17.74 33.22-14.22 4.93 3.52-0.42 17.36-1.55 22.1-0.98 4.13-2.25 17.41-7.04 22.95-3.72 4.31-11.68 5.77-11.68 5.77s12.94 6.21 13.51 14.36c0.7 10-10.98 21.42-19.71 21.12-6.71-0.23-8.45-5.35-8.45-5.35s6.19 3.52 8.73 2.82c2.53-0.7 0.7-3.1 3.1-4.5s4.36 2.25 6.19 0.56 0.42-3.24 1.69-4.93 3.1 0 4.22-1.55c1.13-1.55 0-3.66 0.56-5.07s1.69-1.69 1.55-3.8-4.08-7.04-9.01-9.43-10.28-3.52-14.64-4.36-15.63-1.6-15.63-1.6-0.99-2.3-0.42-2.21c1.13 0.19 3.94 0.42 8.17 0.56 8.54 0.28 22.24 2.25 28.3-2.53s7.04-18.3 7.6-21.82 5.91-19.01 2.82-20.55c-3.1-1.55-18.34 4.61-26.7 11.07s-14.4 15.4-16.23 19.06-4.22 6.33-4.22 6.33z" fill="#676f72"/>
   <path d="m72.41 58.68c0.77-1.06 1.95-1.89 1.44-7.07-0.56-5.7-5.46-7.14-9.33-6.3-3.14 0.68-7.57 3.63-5.17 10.73 2.12 6.31 9.29 4.36 9.29 4.36s2.99-0.67 3.77-1.72z" fill="#41484a"/>
   <g fill="#fcfdfa">
    <ellipse transform="matrix(.8317 -.5552 .5552 .8317 -5.2206 59.239)" cx="95.11" cy="38.23" rx="2.75" ry="2.18"/>
    <path d="m117.21 41.47c-0.63-1.03-2.01-1.26-3.17-0.28-0.79 0.66-1.44 2.24-0.77 3.24s2.14 1.12 3.1 0.35c1.18-0.95 1.41-2.37 0.84-3.31z"/>
    <path d="m104.33 35.13c-0.67-1-2.47-1.12-3.73-0.28s-2.21 2.41-1.2 3.94c0.7 1.06 2.31 1.04 3.87 0.14 1.48-0.84 1.73-2.79 1.06-3.8z"/>
    <path d="m121.22 26.05c0 1.09-0.7 2.18-2.18 1.97-1.35-0.19-1.97-0.7-1.97-2.18 0-1.09 1.04-1.76 2.15-1.76s2 0.88 2 1.97z"/>
    <path d="m119.53 34.64c0 1.09-1.08 2.04-2.18 1.97-1.06-0.07-1.97-0.7-1.97-2.18 0-1.09 1.07-1.9 2.18-1.9s1.97 1.02 1.97 2.11z"/>
    <circle cx="113.79" cy="53.68" r="2.15"/>
    <ellipse cx="20.74" cy="72.3" rx="1.87" ry="1.9"/>
    <path d="m10 45.97c0.83 1.11 0.18 2.35-0.86 3.2-1.03 0.85-2.45 0.83-3.16-0.04s-0.45-2.27 0.59-3.12 2.62-1.14 3.43-0.04z"/>
    <path d="m16.74 60.88c1.42 0.28 1.81 1.53 1.62 2.74-0.19 1.22-1.28 2.06-2.44 1.88s-1.95-1.31-1.77-2.53 1.19-2.36 2.59-2.09z"/>
    <path d="m12.46 53.78c1.03 1.02 0.66 2.27-0.17 3.18s-2.2 1.01-3.07 0.21c-0.87-0.79-0.9-2.17-0.07-3.08s2.3-1.32 3.31-0.31z"/>
    <path d="m29.77 49.61c1.04 0.82 0.74 2.14-0.02 3.2s-2.08 1.42-2.96 0.8-0.97-1.99-0.21-3.06c0.76-1.06 2.16-1.75 3.19-0.94z"/>
    <path d="m26.55 48.97c-0.04 1.36-1.31 1.92-2.64 1.93-1.33 0.02-2.42-0.87-2.43-1.97-0.01-1.11 1.05-2.02 2.38-2.03 1.33-0.02 2.73 0.72 2.69 2.07z"/>
    <path d="m43.86 99.19c0 1.23-0.78 2.22-2.01 2.22s-2.22-1-2.22-2.24c0-1.23 0.99-2.24 2.22-2.24s2.01 1.02 2.01 2.26z"/>
    <path d="m47.59 107.07c-0.8 0.95-2.44 0.81-3.28 0.11-0.83-0.7-0.86-2.04-0.06-2.99s2.12-1.16 2.96-0.46c0.83 0.7 1.18 2.39 0.38 3.34z"/>
    <ellipse transform="matrix(.8293 -.5588 .5588 .8293 -34.056 76.062)" cx="107.46" cy="93.77" rx="2.08" ry="1.76"/>
    <ellipse transform="matrix(.8293 -.5588 .5588 .8293 -29.957 76.227)" cx="109.78" cy="87.14" rx="2.08" ry="2"/>
   </g>
   <g fill="#ff8b03">
    <path d="m95.2 43.49c-3.49-1.45-7.13 0.47-11.26 6.38s-6.38 10.04-4.6 11.54 10-6.16 11.73-7.51c2.53-1.97 7.98-8.82 4.13-10.41z"/>
    <path d="m88.16 60c2.32-1.32 9.1-0.75 12.76-0.94 2.44-0.13 6.01 0.25 6.1 1.5 0.19 2.53-0.75 4.13-3.94 5.26s-10.7 1.31-15.49 1.41c-2.82 0.06-5.41 0.34-5.73-0.94-0.18-0.75 2.17-3.94 6.3-6.29z"/>
    <path d="m99.24 48.93c2.16 0.38 9.1 0.19 11.07-1.31 1.2-0.92 1.88-4.79 0-5.63s-7.23-0.66-9.29 0.94c-1.27 0.97-3.62 5.68-1.78 6z"/>
    <path d="m109.47 31.29c-0.36 2.21 3.19 2.16 4.79 1.69s3.75-3 2.72-4.32c-1.04-1.32-7.05-0.28-7.51 2.63z"/>
    <path d="m106.93 36.73c0 1.6 1.31 2.16 3.19 2.16s3.1-1.19 3.1-2.44c0-1.69-1.6-2.35-3.66-1.97-1.57 0.28-2.63 0.94-2.63 2.25z"/>
    <path d="m94.36 56.16c0 1.2 3.38 0.84 8.26 0.84s6.01-0.75 6.57-2.63 0.38-3.1-2.53-3.19-8.63 0.19-10.32 1.41c-0.77 0.55-1.98 2.63-1.98 3.57z"/>
    <path d="m29.13 75.58c-0.2 2.15 1.69 4.88 7.32 4.41s12.3-3.79 14.08-4.6c3.28-1.5 6.29-2.72 6.29-4.22 0-1.69-3.75-2.25-8.82-2.72s-8.82 0.47-13.05 2.82c-3.53 1.96-5.73 3.28-5.82 4.31z"/>
    <path d="m23.59 68.17c-0.17 1.3 1.97 4.41 3.38 4.5s8.82-3.85 9.01-5.16-1.69-3.38-3.19-3.75c-1.5-0.38-9.01 3-9.2 4.41z"/>
    <path d="m32.79 53.81c-2.26 2.26 0.38 6.48 5.26 8.92s12.67 3.1 15.77 3.57 5.35 0.56 5.82-0.38c1.01-2.01-6.48-5.73-13.42-9.01-4.33-2.05-11.65-4.88-13.43-3.1z"/>
    <path d="m10.73 49.21c0.28 2.82 7.79 2.1 7.88-0.66 0.1-2.72-8.16-2.15-7.88 0.66z"/>
    <path d="m15.61 55.78c1.17 1.95 6.01 0.19 4.41-2.35-1.52-2.41-6.1-0.46-4.41 2.35z"/>
    <path d="m20.87 63.57c0.77 1.31 3.33 1.22 5.73 0.09 1.6-0.75 3.7-2.29 3.28-4.13-0.47-2.06-4.32-2.35-6.85-1.13-1.79 0.87-3.76 2.45-2.16 5.17z"/>
   </g>
   <path d="m74.06 71.24-6.27 1.76s1.94 8.4 2.67 11.54c0.77 3.31 5.7 27.17 9.57 26.54 3.99-0.65-2.67-25.34-3.31-28.02-0.6-2.57-2.66-11.82-2.66-11.82z" fill="#676f72"/>
   <g fill="#41484a">
    <path d="m73.43 82.51c1.85-0.4 2.87-1.51 2.87-1.51l1.23 5.3s-0.93 0.86-2.76 1.28c-2.02 0.47-3.59 0.11-3.59 0.11l-1.21-5.26c-0.01-0.01 1.48 0.5 3.46 0.08z"/>
    <path d="m67.79 73 6.26-1.76 0.93 4.22s-1.65 0.83-2.99 1.11-3.31 0.3-3.31 0.3z"/>
    <path d="m72.3 92.5s1.78 0.21 3.4-0.14 2.97-1.39 2.97-1.39l1.04 4.66s-1.54 1.09-2.95 1.35c-1.45 0.27-3.28 0.11-3.26 0.11z"/>
   </g>
   <g fill="#303031">
    <path d="m67.23 56.67c-2.19 0.61-3.83 1.97-3.94 4.36-0.14 3.1 0.56 4.93 1.41 7.88 0.54 1.89 1.17 6.22 6.9 4.79 3.94-0.99 3.52-4.65 3.38-7.32-0.14-2.69-0.7-6.19-1.69-7.74-0.92-1.44-3.52-2.67-6.06-1.97z"/>
    <path d="m72.54 47.42c0.87 1.29 0.9 3.07-0.24 3.83-1.13 0.76-3 0.22-3.87-1.07s-0.65-2.95 0.48-3.72c1.14-0.76 2.76-0.33 3.63 0.96z"/>
    <path d="m63.3 51.58c-0.42 1.5-1.86 2.58-3.17 2.21-1.32-0.37-2.01-2.03-1.6-3.53 0.42-1.5 1.82-2.42 3.14-2.05s2.04 1.87 1.63 3.37z"/>
   </g>
  </g>
  <rect x="319.13" y="390.13" width="160" height="160" fill-opacity="0" stroke-opacity="0"/>
  <path d="m239.88 303.23h48.657" color="#000000" fill="#808080" stroke-width="10" style="-inkscape-stroke:none"/>
  <path d="m239.88 298.23v10h48.656v-10z" color="#000000" fill="#999" style="-inkscape-stroke:none"/>
  <g fill="#999" fill-rule="evenodd">
   <path d="m300.08 303.23-17.3 10v-20z" color="#000000" stroke-width="2pt" style="-inkscape-stroke:none"/>
   <path d="m281.44 290.92v24.621l21.297-12.311-1.9961-1.1543zm2.666 4.6211 13.305 7.6894-13.305 7.6894z" color="#000000" style="-inkscape-stroke:none"/>
  </g>
  <rect x="319.13" y="223.23" width="160" height="160" fill-opacity="0" stroke-opacity="0"/>
  <g transform="matrix(1.1312 0 0 1.1312 331.4 234.73)">
   <path transform="translate(0 -.00187)" d="m79.03 64.572c-3.01e-4 -1.8869-0.16088-3.7703-0.48-5.63-0.81-4.68 0.1-5.41 2.56-5.71 2.18-0.26 8.91 2.02 10.97 0.2 1.57-1.38 1.53-2.42 1.62-4.38 0.13-2.69 2.72-3.41 4.07-3.7 0.19582 0.25784 0.48134 0.43272 0.8 0.49 1.1048 0.17816 1.8732-1.0682 1.2181-1.9753-0.65511-0.90707-2.0799-0.56944-2.2581 0.53532-0.0017 0.06682 0.0017 0.13368 0.01 0.2-0.9716 0.07174-1.9257-0.28652-2.61-0.98-0.44-0.68 1.85-3.5 3.08-4.98 0.15438 0.10524 0.32751 0.17992 0.51 0.22 1.1048 0.17816 1.8732-1.0682 1.2181-1.9753-0.65511-0.90707-2.0799-0.56944-2.2581 0.53532-0.02811 0.20599-4e-3 0.41574 0.07 0.61-1.14 1.13-3.37 3.31-3.98 3.18-0.73-0.16-0.22-4.84 0.05-7.04 0.49603-0.11275 0.87274-0.51722 0.95-1.02 0.26703-1.6536-2.213-2.0536-2.48-0.4-0.08247 0.55433 0.21664 1.0952 0.73 1.32-0.49 2.21-1.44 6.9-1.99 7.03-0.59 0.15-1.42-3.36-1.93-5.59 0.29445-0.18904 0.49446-0.49453 0.55-0.84 0.17816-1.1048-1.0682-1.8732-1.9753-1.2181s-0.56944 2.0799 0.53532 2.2581h0.05c0.3 2.11 0.63 5.44 0.32 6-0.37 0.66-2.04 0.55-3.19 0.37 0.14889-1.1-1.0994-1.8365-1.9903-1.1746-0.89086 0.66196-0.54585 2.0697 0.5503 2.2446 0.38087 0.05678 0.76623-0.0692 1.04-0.34 1.69 0.74 3.55 1.61 3.99 3.07 0.37321 1.12-0.21154 2.3338-1.32 2.74 0 0-9.33-0.36-12.43 0.53-2.11 0.6-2.12 4.87-1.96 8.21-0.5-0.5-0.99-1.02-1.51-1.49-1.2872-1.1634-2.643-2.2487-4.06-3.25-3.0543-2.1934-6.3956-3.9565-9.93-5.24-2.0692-0.75189-4.2106-1.2881-6.39-1.6-0.89-0.13-1.8-0.27-2.72-0.43 0.81048-1.662 1.1823-3.5037 1.08-5.35-0.09-3.7-1.46-9.8 0.06-12.69 0.94698-1.6308 2.1959-3.0664 3.68-4.23 0.17271 0.16806 0.39242 0.27966 0.63 0.32 1.1048 0.17816 1.8732-1.0682 1.2181-1.9753s-2.0799-0.56944-2.2581 0.53532c-0.0339 0.24771 0.01162 0.49979 0.13 0.72-1.12 0.91-2.61 1.68-3.32 1.12-0.8-0.62 0.64-3.47 1.42-4.99 0.06097 0.02931 0.12459 0.05275 0.19 0.07 1.1048 0.17816 1.8732-1.0682 1.2181-1.9753s-2.0799-0.56944-2.2581 0.53532c-0.05992 0.40564 0.08635 0.81445 0.39 1.09-0.71 1.61-2.11 4.59-2.97 4.04-0.54-0.35-0.13-4.05-0.29-6.33 0.38308-0.16372 0.65764-0.50974 0.73-0.92 0.17816-1.1048-1.0682-1.8732-1.9753-1.2181s-0.56944 2.0799 0.53532 2.2581c0.06 1.89 0.05 5.99-0.92 6.35-0.91 0.34-2.37-1.9-3.76-4.41 0.16595-0.17025 0.27736-0.38611 0.32-0.62 0.17816-1.1048-1.0682-1.8732-1.9753-1.2181s-0.56944 2.0799 0.53532 2.2581c0.16622 0.02856 0.33659 0.02175 0.5-0.02 0.85 1.4 2.89 4.88 2.13 5.87-0.35 0.46-2.24 0.39-3.79 0.37-0.09656-0.51243-0.50492-0.90878-1.02-0.99-1.0019-0.17102-1.7814 0.85665-1.3468 1.7753 0.43465 0.9187 1.7236 0.96774 2.2268 0.08466 1.64 0.62 3.78 1.71 4.41 2.86 1.36 2.45 3.57 10.91-0.64 13.38-0.87863 0.51152-1.7946 0.95611-2.74 1.33-2.3383-0.68822-4.4712-1.9418-6.21-3.65-1.5898-1.5718-2.39-3.7743-2.18-6 0.26-2.81 0.72-5.37 0.22-8.48-0.2495-1.533-0.68262-3.0305-1.29-4.46-0.09-0.22-0.23-0.46-0.35-0.7-1.42-2.74-4.79-6.62-8.2-10.07-3.85-3.89-7.75-7.23-8.97-7.72-1.5649-0.73853-3.4322-0.068615-4.1708 1.4963l-0.02918 0.063656c-0.87 1.04-1.98 4.14-2.84 8.04-1.18 5.35-1.89 12.22-0.86 17.46 1.62 8.21 6.4 11.68 9.02 13.66 1.94 1.47 2.29 2.29 5.45 5.25 1.81 1.69 3.21 8.21 4.37 10.46 0.59 1.15 1.23 2.31 1.93 3.46l-0.17 2.65s-0.2 5.34-1.27 7.47c-0.49185 1.112-1.2225 2.1021-2.14 2.9 0 0-3.66-5.41-3.05-9.52 0.17413-1.2584 0.41446-2.5068 0.72-3.74 0.5416-0.07245 0.97203-0.4907 1.06-1.03 0.2663-1.6531-2.2137-2.0531-2.48-0.4-0.08414 0.53847 0.19688 1.0679 0.69 1.3-0.23 1.18-0.63 2.81-1.61 2.78-1.24-0.04-2.98-4.9-3.73-7.1 1.2049-0.68746 0.51827-2.5295-0.8408-2.2648s-1.304 2.2298 0.0708 2.4148c0.04 0.01 0.07-0.01 0.1 0 0.8 2 2.62 6.42 1.73 6.89-0.83 0.44-4.02-3.34-5.81-5.4 0.87295-1.2448-0.67709-2.7455-1.8932-1.838-1.2161 0.90754-0.21858 2.8206 1.2232 2.338 1.44 1.48 5.46 5.77 4.83 6.69-0.55 0.81-3.68-0.11-5.59-0.85 0.018344-0.61789-0.4208-1.1551-1.03-1.26-0.97832-0.16964-1.7574 0.8093-1.3725 1.7246 0.38488 0.91526 1.6294 1.0433 2.1925 0.22544 1.84 0.63 5.29 1.65 5.14 2.64-0.13 0.89-1.24 0.96-2.64 1.4-0.78535-1.1249-2.5442-0.33877-2.2329 0.9955 0.31133 1.3343 2.2365 1.2608 2.4429-0.095504v-0.06c1.56-0.38 4.34-0.82 5.9 0.9 1.96 2.15 5.83 10.96 7.89 9.96 1.8-0.87 6.14-10.1 8.14-12.44 2.1432 1.628 4.4897 2.9693 6.98 3.99 1.7377 0.72357 3.5177 1.3414 5.33 1.85 2.18 0.63 4.4 1.14 6.62 1.62 1.62 0.36 3.36 0.7 5.13 1.1-2.26 1.27-7.62 4.36-8.89 5.79-1.63 1.83-0.61 3.05 0.71 4.07 0.83 0.64 0.37 0.7 9.25 3.66-1.1504 0.51098-2.402 0.75376-3.66 0.71-1.51 0-3.45-1-4.72-1.68 0-0.02 0.01-0.03 0.02-0.05 0.17816-1.1048-1.0682-1.8732-1.9753-1.2181s-0.56944 2.0799 0.53532 2.2581c0.35977 0.05519 0.72558-0.0509 1-0.29 1.28 0.66 3.83 1.79 2.7 2.4-1.07 0.57-5.65 0.71-8.09 1.24-0.18534-0.3079-0.49572-0.51968-0.85-0.58-1.6531-0.2663-2.0531 2.2137-0.4 2.48 0.60978 0.09248 1.1944-0.27877 1.37-0.87 1.59-0.15 7.39-0.57 7.76 0.17 0.34 0.67-4.9 3.63-7.32 5.65-0.07763-0.036-0.15786-0.0661-0.24-0.09-1.1048-0.17817-1.8732 1.0682-1.2181 1.9753 0.65511 0.90707 2.0799 0.56944 2.2581-0.53532 0.02879-0.16286 0.02196-0.33003-0.02-0.49 1.65-1.18 7.87-5.3 8.79-4.56 0.82 0.65-1.35 5.78-2.41 8.49-1.0249 0.12132-1.4679 1.3633-0.75126 2.1059 0.7166 0.74257 1.9736 0.34402 2.1313-0.67587 0.05992-0.40564-0.08635-0.81445-0.39-1.09 0.94-1.89 4.07-7.99 4.71-7.89 0.59 0.09 0.45 4.46 0.45 6.03-0.29711 0.18815-0.50059 0.49338-0.56 0.84-0.17816 1.1048 1.0682 1.8732 1.9753 1.2181s0.56944-2.0799-0.53532-2.2581h-0.06c0.42-2.85 0.96-7.39 1.42-7.7 0.61-0.41 6.51-3.35 6.2-5.39-0.31-2.03-4.78-4.27-7.93-5.18s8.54 2.54 11.39-1.73c0.39-0.58 0.45043-0.74304 1.03-1.53 2.2905-2.5541 9.9602-9.9306 8.53-18.74z" fill="none" stroke="#2e7d32" stroke-linecap="round" stroke-linejoin="round" stroke-width="4px"/>
   <path transform="translate(0 -.00187)" d="m40.73 18.152c0.3 0.52 3.37 5.25 2.46 6.43-0.47 0.61-3.62 0.28-5.12 0.39a0.22377 0.22377 0 0 0-0.04 0.44c1.53 0.4 4.83 1.79 5.64 3.26 1.36 2.45 3.57 10.91-0.64 13.38a25.6 25.6 0 0 1-9.08 3l-0.87 3.76 7.16 1.13 7.73-4.29a10.112 10.112 0 0 0 1.26-5.66c-0.09-3.7-1.46-9.8 0.06-12.69 1.46-2.79 4.33-4.63 4.55-5.01 0.22-0.37-0.2-0.51-0.41-0.28-1.08 1.12-3.18 2.49-4.07 1.8-1.01-0.78 1.59-5.18 1.85-5.87s-0.19-0.96-0.49-0.32-2.28 5.66-3.37 4.95c-0.65-0.42 0.07-5.64-0.46-7.48-0.29-1.02-0.61-0.18-0.58 0.36s0.33 6.82-0.88 7.26c-0.96 0.36-2.52-2.15-3.98-4.81-0.62-1.14-1.27-0.73-0.72 0.25z" fill="url(#linearGradient26389)"/>
   <path transform="translate(0 -.00187)" d="m26.01 64.862s-0.2 5.34-1.27 7.47a8.2836 8.2836 0 0 1-2.14 2.9s-3.66-5.41-3.05-9.52a23.57 23.57 0 0 1 1.03-4.74c0.19-0.58-0.57-0.8-0.8-0.19-0.24 0.61-0.47 3.9-1.84 3.85-1.5-0.05-3.76-7.24-4.06-8.08s-0.92-0.57-0.68 0.23 3.15 7.2 2.07 7.78c-0.94 0.5-4.91-4.43-6.45-6.11-0.47-0.52-1.3-0.18-0.54 0.71 0 0 6.1 6.09 5.34 7.2-0.66 0.96-5-0.53-6.56-1.25-0.51-0.24-0.95 0.15-0.32 0.64 0.63 0.5 6.4 1.81 6.21 3.09-0.15 0.99-1.52 0.96-3.17 1.58-1.07 0.4-1.18 1.15-0.2 0.9s4.87-1.5 6.83 0.66 5.83 10.96 7.89 9.96 7.46-12.96 8.84-12.98c0.94-0.01-6.73-10.5-6.73-10.5z" fill="url(#linearGradient26391)"/>
   <path transform="translate(0 -.00187)" d="m69.46 61.442s3.35 1.73 3.46-0.51c0.1-2.24-1.26-10.9 1.8-11.77 3.1-0.89 12.43-0.53 12.43-0.53a2.1832 2.1832 0 0 0 1.32-2.74c-0.5-1.67-2.84-2.56-4.67-3.37-0.4-0.18-0.55-0.82 0.08-0.63s3.67 0.75 4.18-0.16c0.42-0.76-0.33-6.61-0.6-7.62s0.47-1.11 0.71-0.3c0.25 0.81 1.51 7.51 2.32 7.3 0.68-0.17 2.01-7.43 2.25-8.12 0.25-0.69 0.71-0.54 0.66 0.1s-1.09 7.92-0.17 8.12c0.72 0.16 3.76-2.98 4.5-3.69s1.03-0.25 0.66 0.25c-0.37 0.49-4.38 4.98-3.81 5.86 0.54 0.84 2.39 1.18 3.32 0.89 0.93-0.3 0.64 0.45 0.3 0.66-0.34 0.22-4.67 0.39-4.85 3.89-0.1 1.96-0.05 3-1.62 4.38-2.07 1.82-8.79-0.46-10.97-0.2-2.46 0.3-3.37 1.03-2.56 5.71s0.7 10.86-1.23 12.89-2.54 1.8-2.54 1.8z" fill="url(#linearGradient26393)"/>
   <path transform="translate(0 -.00187)" d="m57.51 77.482s-8.29 4.53-9.91 6.36-0.61 3.05 0.71 4.07c0.83 0.64 0.37 0.7 9.25 3.66a8.3052 8.3052 0 0 1-3.66 0.71c-1.75 0-4.09-1.35-5.27-1.98s-1.22 0.15-0.41 0.7 4.55 1.99 3.23 2.7c-1.11 0.6-6.02 0.72-8.37 1.3-1.48 0.37-0.73 1.09 0.07 1 0.81-0.1 7.69-0.67 8.09 0.14 0.35 0.7-5.35 3.88-7.61 5.9-1.37 1.22 0.07 1.4 0.7 0.89 0.63-0.52 8.15-5.66 9.17-4.84 0.85 0.68-1.56 6.29-2.55 8.86-0.55 1.44 0.59 1.11 0.89 0.48s4.24-8.52 4.97-8.41c0.64 0.1 0.42 5.24 0.45 6.37s0.63 0.71 0.73 0.06c0.42-2.76 1.01-7.97 1.5-8.3 0.61-0.41 6.51-3.35 6.2-5.39-0.3-2.03-4.78-4.27-7.93-5.18s8.54 2.54 11.39-1.73 3.35-4.88 3.35-4.88z" fill="url(#linearGradient26395)"/>
   <g fill="#6bb828">
    <circle cx="87.89" cy="34.48" r="1.25"/>
    <circle cx="40.76" cy="17.49" r="1.25"/>
    <circle cx="8.39" cy="58.48" r="1.25"/>
    <circle cx="6.77" cy="65.48" r="1.25"/>
    <circle cx="9.26" cy="70.93" r="1.25"/>
    <circle cx="47.97" cy="90.35" r="1.25"/>
    <circle cx="42.32" cy="95.6" r="1.25"/>
    <circle cx="43.5" cy="102.95" r="1.25"/>
    <circle cx="51.25" cy="107.8" r="1.25"/>
    <circle cx="57.94" cy="106.09" r="1.25"/>
    <circle cx="20.08" cy="60.74" r="1.25"/>
    <circle cx="46.55" cy="15.13" r="1.25"/>
    <circle cx="51.18" cy="17.66" r="1.25"/>
    <circle cx="53.8" cy="22.17" r="1.25"/>
    <circle cx="38.19" cy="25.2" r="1.25"/>
    <circle cx="13.62" cy="56.43" r="1.25"/>
    <circle cx="93.01" cy="32.95" r="1.25"/>
    <circle cx="98.39" cy="37.62" r="1.25"/>
    <circle cx="98.44" cy="44.61" r="1.25"/>
    <circle cx="83.63" cy="41.91" r="1.25"/>
   </g>
   <path transform="translate(0 -.00187)" d="m79.78 66.172c-2.3913-3.7867-5.2618-7.2487-8.54-10.3-1.2872-1.1634-2.643-2.2487-4.06-3.25-3.0543-2.1934-6.3956-3.9565-9.93-5.24-2.0692-0.75189-4.2106-1.2881-6.39-1.6-3.4074-0.44583-6.7699-1.1852-10.05-2.21-2.5401-0.68468-4.8635-2.0064-6.75-3.84-1.5898-1.5718-2.39-3.7743-2.18-6 0.26-2.81 0.72-5.37 0.22-8.48-0.24951-1.533-0.68262-3.0305-1.29-4.46-0.09-0.22-0.23-0.46-0.35-0.7-1.42-2.74-4.79-6.62-8.2-10.07 1.81 4.83 2.21 9.9-0.32 14.98 0 1.05-3.15 3.15-6.3 2.1-6.42-2.57-8.91-8.68-9.4-15.19-1.18 5.35-1.89 12.22-0.86 17.46 1.62 8.21 6.4 11.68 9.02 13.66 1.94 1.47 2.29 2.29 5.45 5.25 1.81 1.69 3.21 8.21 4.37 10.46 1.5835 3.302 3.6607 6.3435 6.16 9.02 0.38 0.38 0.77 0.74 1.18 1.08 2.3602 1.9339 5.0003 3.4983 7.83 4.64 1.7377 0.72358 3.5177 1.3414 5.33 1.85 2.18 0.63 4.4 1.14 6.62 1.62 2.1 0.46 4.39 0.91 6.71 1.45 3.4755 0.72505 6.8363 1.9193 9.99 3.55 1.5812 1.1509 2.8562 2.0218 3.8638 2.8301 2.0234-2.042 4.1878-4.7221 5.7133-7.0387 1.2799-1.9452 2.9473-5.5225 3.3832-7.6087 0.43588-2.0861-0.35973-2.681-1.2202-3.9628z" fill="url(#linearGradient26397)"/>
   <path transform="translate(0 -.00187)" d="m15.66 27.102c3.15 1.05 6.3-1.05 6.3-2.1 2.54-5.07 2.13-10.14 0.32-14.98-3.85-3.89-7.75-7.23-8.97-7.72a3.1333 3.1333 0 0 0-4.1708 1.4963l-0.02918 0.06366c-0.87 1.04-1.98 4.14-2.84 8.04 0.48 6.53 2.97 12.63 9.39 15.2z" fill="#aed581"/>
   <path transform="translate(0 -.00187)" d="m6.26 27.752a5.58 5.58 0 1 1 5.58-5.58 5.58 5.58 0 0 1-5.58 5.58z" fill="#fff"/>
   <path transform="translate(0 -.00187)" d="m6.26 17.272a4.9 4.9 0 1 1-4.9 4.9 4.8951 4.8951 0 0 1 4.8903-4.9h0.00972m0-1.37a6.26 6.26 0 1 0 6.26 6.26 6.26 6.26 0 0 0-6.26-6.26z" fill="#b3b3b3"/>
   <circle cx="4.91" cy="19.87" r="2.39"/>
   <path transform="translate(0 -.00187)" d="m25.34 20.202a5.58 5.58 0 1 1 5.58-5.58 5.5822 5.5822 0 0 1-5.58 5.58z" fill="#fff"/>
   <path transform="translate(0 -.00187)" d="m25.33 9.7223a4.9 4.9 0 1 1-4.9 4.9 4.8952 4.8952 0 0 1 4.8903-4.9h0.00972m0-1.36a6.26 6.26 0 1 0 6.26 6.26 6.26 6.26 0 0 0-6.26-6.26z" fill="#b3b3b3"/>
   <circle cx="25.64" cy="12.22" r="2.39"/>
   <path transform="translate(0 -.00187)" d="m22.59 32.182s0.11 0.4 0.33 1.14c0.21 0.78 0.54 1.74 0.99 3.02 0.53369 1.5091 1.1996 2.9681 1.99 4.36 1.0306 1.7609 2.2806 3.3839 3.72 4.83 1.8118 1.7743 3.7466 3.4184 5.79 4.92 1.09 0.82 2.29 1.74 3.43 2.51l0.92 0.64 0.89 0.56c0.58 0.38 1.2 0.75 1.86 1.12 2.6849 1.534 5.445 2.9325 8.27 4.19 2.92 1.32 5.95 2.62 8.97 4.05 3.0565 1.4052 6.0282 2.9879 8.9 4.74l0.54 0.33 0.3 0.19 0.25 0.17c0.34 0.24 0.65 0.43 1.01 0.71 0.72 0.53 0 0 2.03 1.6 3.5844 2.8647 3.7011 3.6885 5.3334 5.6784-0.83656 1.4738-1.7633 2.6541-2.1246 3.0936-0.16218-0.21039-0.02838-0.047-0.59377-0.78304-0.9404-1.0267-0.74811-0.82711-1.855-1.909-1.0339-1.0617-2.1399-2.0507-3.31-2.96-0.59-0.46-1.2-0.9-1.8-1.29-0.28-0.2-0.66-0.42-0.99-0.63l-0.26-0.16-0.22-0.13-0.51-0.29c-2.7677-1.5895-5.6296-3.0088-8.57-4.25-5.96-2.57-12.2-4.96-17.81-8.12-0.7-0.38-1.39-0.8-2.08-1.24l-1.02-0.65-0.92-0.64c-1.32-0.9-2.43-1.75-3.61-2.62-2.2444-1.6464-4.3514-3.4724-6.3-5.46-1.7046-1.771-3.1552-3.7701-4.31-5.94-0.87252-1.6521-1.5954-3.379-2.16-5.16-0.47-1.45-0.76-2.67-0.92-3.39-0.17-0.75-0.26-1.16-0.26-1.16-0.5721-2.6486 3.3049-3.6603 4.1-1.07z" fill="url(#linearGradient26399)"/>
  </g>
  <rect x="63.491" y="223.23" width="160" height="160" fill-opacity="0" stroke-opacity="0"/>
  <g transform="matrix(1.3705 0 0 1.3705 36.152 54.557)">
   <path d="m312.21 96.447a6.0588 6.0588 0 0 0-1.8488-2.4514 5.8405 5.8405 0 0 0-2.4514-1.1555 6.0766 6.0766 0 0 0-2.278-0.03301 6.384 6.384 0 0 0-1.6508 0.51999 6.3069 6.3069 0 0 0-0.95744 0.56951c-0.20634 0.15682-0.31364 0.23936-0.31364 0.23936a0.3232 0.3232 0 0 0-0.066 0.43745 0.32939 0.32939 0 0 0 0.45839 0.08307l0.012-0.0087s0.099-0.06603 0.28888-0.19809a5.9225 5.9225 0 0 1 0.8749-0.4457 5.6789 5.6789 0 0 1 1.4692-0.37142 5.138 5.138 0 0 1 1.9149 0.14031 4.7446 4.7446 0 0 1 1.9726 1.073 4.8367 4.8367 0 0 1 1.3619 2.0469 4.6867 4.6867 0 0 1 0.0908 2.5752 7.2386 7.2386 0 0 1-1.139 2.5256 8.6995 8.6995 0 0 1-8.881 3.5821c-0.15682-0.033-0.31365-0.0825-0.47047-0.12381a17.312 17.312 0 0 1-2.7402-1.7085c-2.8393-2.212-4.1846-5.8189-4.9605-9.3268-0.86664-3.9288-1.659-7.7173-2.864-11.564-0.70157-2.2368-1.4774-4.457-2.3606-6.636-0.71808-1.7746-1.5269-3.5656-2.4018-5.3402a62.951 62.951 0 0 0-3.7059-6.5782c-0.28888-0.4457-0.60253-0.88315-0.90792-1.3206a27.502 27.502 0 0 0-0.39618-4.6469c-0.66855-3.8628 0.0825-4.4653 2.113-4.7129 1.7993-0.2146 7.3541 1.6673 9.0544 0.16508 1.2958-1.139 1.2628-1.9974 1.3371-3.6151 0.1073-2.2203 2.245-2.8145 3.3593-3.0539a1.0659 1.0659 0 0 0 0.6603 0.40443 1.0367 1.0367 0 1 0-0.85839-1.1885 1.1078 1.1078 0 0 0 8e-3 0.16508 2.7427 2.7427 0 0 1-2.1542-0.80887c-0.36317-0.56126 1.5269-2.8888 2.5422-4.1104a1.2071 1.2071 0 0 0 0.42095 0.18158 1.0367 1.0367 0 1 0-0.8584-1.1885 1.0247 1.0247 0 0 0 0.0578 0.50348c-0.94093 0.93268-2.7815 2.732-3.285 2.6247-0.60252-0.13206-0.18158-3.9948 0.0413-5.8106a1.0226 1.0226 0 0 0 0.78411-0.84188 1.0367 1.0367 0 1 0-2.0469-0.33015 1.0248 1.0248 0 0 0 0.60252 1.0895c-0.40443 1.8241-1.1885 5.6951-1.6425 5.8024-0.48697 0.12381-1.172-2.7733-1.593-4.6139a1.0153 1.0153 0 0 0 0.45395-0.69332 1.0367 1.0367 0 1 0-1.1885 0.85839h0.0413c0.24761 1.7415 0.51999 4.49 0.26412 4.9523-0.30539 0.54475-1.6838 0.45396-2.633 0.30539a1.0349 1.0349 0 1 0-1.1885 0.88315 1.009 1.009 0 0 0 0.85839-0.28063c1.3949 0.61078 2.9301 1.3289 3.2932 2.5339a1.8019 1.8019 0 0 1-1.0895 2.2615s-7.7008-0.29714-10.259 0.43745c-1.7415 0.49523-1.7498 4.0196-1.6177 6.7763-0.41269-0.41269-0.81712-0.84188-1.2463-1.2298a35.854 35.854 0 0 0-3.351-2.6825 33.87 33.87 0 0 0-8.196-4.325 26.393 26.393 0 0 0-5.2742-1.3206c-0.73459-0.1073-1.4857-0.22285-2.245-0.35491a8.9456 8.9456 0 0 0 0.89141-4.4158c-0.0743-3.0539-1.205-8.0887 0.0495-10.474a12.258 12.258 0 0 1 3.0374-3.4913 0.98112 0.98112 0 0 0 0.51998 0.26412 1.0367 1.0367 0 1 0-0.85839-1.1885 0.97575 0.97575 0 0 0 0.1073 0.59427c-0.92442 0.75109-2.1542 1.3866-2.7402 0.92442-0.6603-0.51173 0.52824-2.8641 1.172-4.1186a0.88037 0.88037 0 0 0 0.15682 0.05778 1.0367 1.0367 0 1 0-0.85839-1.1885 1.0147 1.0147 0 0 0 0.32189 0.89966c-0.58601 1.3289-1.7415 3.7885-2.4514 3.3345-0.44571-0.28888-0.1073-3.3428-0.23936-5.2246a1.0181 1.0181 0 0 0 0.60252-0.75935 1.0367 1.0367 0 1 0-1.1885 0.85839c0.0495 1.56 0.0413 4.944-0.75934 5.2411-0.7511 0.28063-1.9562-1.5682-3.1034-3.6399a0.98671 0.98671 0 0 0 0.26412-0.51173 1.0367 1.0367 0 1 0-1.1885 0.85839 0.99045 0.99045 0 0 0 0.41269-0.01651c0.70157 1.1555 2.3853 4.0278 1.758 4.845-0.28888 0.37967-1.8488 0.3219-3.1282 0.30539a1.0181 1.0181 0 0 0-0.84188-0.81712 1.0368 1.0368 0 1 0 0.72633 1.5352c1.3536 0.51173 3.1199 1.4114 3.6399 2.3606 1.1225 2.0222 2.9466 9.0049-0.52824 11.044a16.706 16.706 0 0 1-2.2615 1.0978 12.249 12.249 0 0 1-5.1256-3.0126 6.1516 6.1516 0 0 1-1.7993-4.9523c0.2146-2.3193 0.59427-4.4323 0.18158-6.9992a15.976 15.976 0 0 0-1.0647-3.6812c-0.0743-0.18158-0.18984-0.37967-0.28888-0.57776-1.172-2.2615-3.9536-5.464-6.7681-8.3115-3.1777-3.2107-6.3967-5.9675-7.4036-6.3719a2.5862 2.5862 0 0 0-3.4425 1.2351l-0.0241 0.0525c-0.71807 0.85839-1.6342 3.4171-2.3441 6.636-0.97395 4.4158-1.56 10.086-0.70983 14.411 1.3371 6.7763 5.2824 9.6404 7.4449 11.275 1.6012 1.2133 1.8901 1.8901 4.4983 4.3332 1.4939 1.3949 2.6495 6.7763 3.6069 8.6334 0.48697 0.94918 1.0152 1.9066 1.593 2.8558l-0.14031 2.1872s-0.16507 4.4075-1.0482 6.1656a6.8371 6.8371 0 0 1-1.7663 2.3936s-3.0209-4.4653-2.5174-7.8576a29.84 29.84 0 0 1 0.59427-3.0869 1.0241 1.0241 0 0 0 0.8749-0.85014 1.0367 1.0367 0 0 0-2.0469-0.33015 1.013 1.013 0 0 0 0.56951 1.073c-0.18984 0.97394-0.51999 2.3193-1.3289 2.2945-1.0235-0.03302-2.4596-4.0443-3.0786-5.8602a1.0106 1.0106 0 1 0-0.63554 0.12381c0.033 0.0083 0.0578-0.0083 0.0825 0 0.6603 1.6508 2.1625 5.2989 1.4279 5.6868-0.68507 0.36316-3.318-2.7568-4.7954-4.457a1.103 1.103 0 1 0-0.553 0.41269c1.1885 1.2216 4.5066 4.7624 3.9866 5.5218-0.45396 0.66856-3.0374-0.09079-4.6139-0.70157a1.0245 1.0245 0 0 0-0.85013-1.04 1.0368 1.0368 0 1 0 0.6768 1.6095c1.5187 0.51999 4.3662 1.3619 4.2424 2.179-0.1073 0.73458-1.0235 0.79236-2.179 1.1555a1.0276 1.0276 0 1 0 0.17333 0.74284v-0.04952c1.2876-0.31364 3.5821-0.67681 4.8697 0.74284 1.6177 1.7746 4.812 9.0461 6.5122 8.2207 1.4857-0.71808 5.0678-8.3363 6.7186-10.268a25.53 25.53 0 0 0 5.7611 3.2933 38.527 38.527 0 0 0 4.3992 1.5269c1.7993 0.51999 3.6317 0.94093 5.464 1.3371 1.3371 0.29714 2.7733 0.57776 4.2342 0.90791-1.8654 1.0482-6.2894 3.5986-7.3376 4.7789-1.3454 1.5104-0.50348 2.5174 0.58602 3.3593 0.68506 0.52824 0.30539 0.57776 7.6347 3.0209a6.8549 6.8549 0 0 1-3.0209 0.58602c-1.2463 0-2.8476-0.82538-3.8958-1.3866 0-0.01651 8e-3 -0.02476 0.0165-0.04127a1.0367 1.0367 0 1 0-1.1885 0.85839 1.0208 1.0208 0 0 0 0.82538-0.23936c1.0565 0.54475 3.1612 1.4774 2.2285 1.9809-0.88315 0.47046-4.6634 0.58602-6.6773 1.0235a1.0183 1.0183 0 0 0-0.70157-0.47872 1.0367 1.0367 0 0 0-0.33015 2.0469 1.02 1.02 0 0 0 1.1308-0.71808c1.3124-0.12381 6.0995-0.47046 6.4049 0.14031 0.28063 0.553-4.0443 2.9961-6.0418 4.6634a1.4051 1.4051 0 0 0-0.19809-0.07428 1.0367 1.0367 0 1 0 0.85839 1.1885 0.9454 0.9454 0 0 0-0.0165-0.40443c1.3619-0.97394 6.4957-4.3745 7.2551-3.7637 0.67681 0.53649-1.1143 4.7707-1.9892 7.0074a1.03 1.03 0 1 0 1.139 1.1803 1.0146 1.0146 0 0 0-0.32189-0.89966c0.77585-1.56 3.3593-6.5948 3.8875-6.5122 0.48697 0.07428 0.37142 3.6812 0.37142 4.977a1.0257 1.0257 0 0 0-0.46221 0.69332 1.0367 1.0367 0 1 0 1.1885-0.85839h-0.0495c0.34666-2.3523 0.79237-6.0995 1.172-6.3554 0.50348-0.3384 5.3732-2.765 5.1173-4.4488-0.25587-1.6755-3.9453-3.5244-6.5452-4.2754-2.5999-0.75109 7.0487 2.0965 9.401-1.4279 0.3219-0.47872 0.59427-0.89141 0.85014-1.2628a12.415 12.415 0 0 1 1.9644 1.7581 30.011 30.011 0 0 1 4.7129 6.9662 59.35 59.35 0 0 0 3.8298 7.5852 39.31 39.31 0 0 0 6.9497 8.0227 30.756 30.756 0 0 0 4.2259 3.2272 13.477 13.477 0 0 0 8.1052 1.9479c0.24761-0.0248 0.49522-0.0578 0.74283-0.1073l0.18984-0.033 0.19809-0.0413 0.33841-0.0825a11.34 11.34 0 0 0 1.5187-0.51999 10.768 10.768 0 0 0 4.9358-4.2837 8.7516 8.7516 0 0 0 1.1803-3.1447 5.8767 5.8767 0 0 0-0.29714-3.2932z" fill="#eb3a00" stroke="#2e7d32" stroke-linecap="round" stroke-linejoin="round" stroke-width="3.3015px"/>
   <g fill="#f53c00" stroke-width=".82538">
    <path d="m249.04 24.664c0.24761 0.4292 2.7815 4.3332 2.0304 5.3072-0.38793 0.50348-2.9879 0.2311-4.2259 0.3219a0.18472 0.18472 0 0 0-0.033 0.36316c1.2628 0.33015 3.9866 1.4774 4.6551 2.6907 1.1225 2.0222 2.9466 9.0049-0.52824 11.044a21.13 21.13 0 0 1-7.4944 2.4761l-0.71808 3.1034 5.9097 0.93268 6.3802-3.5409a8.3459 8.3459 0 0 0 1.04-4.6716c-0.0743-3.0539-1.205-8.0887 0.0495-10.474 1.205-2.3028 3.5739-3.8215 3.7555-4.1351 0.18159-0.30539-0.16507-0.42094-0.3384-0.2311-0.89141 0.92442-2.6247 2.0552-3.3593 1.4857-0.83363-0.64379 1.3124-4.2754 1.5269-4.845 0.2146-0.56951-0.15682-0.79236-0.40443-0.26412-0.24761 0.52824-1.8819 4.6716-2.7815 4.0856-0.53649-0.34666 0.0578-4.6551-0.37967-6.1738-0.23936-0.84188-0.50348-0.14857-0.47872 0.29714 0.0248 0.4457 0.27237 5.6291-0.72633 5.9922-0.79236 0.29714-2.08-1.7746-3.285-3.9701-0.51173-0.94093-1.0482-0.60252-0.59427 0.20634z"/>
    <path d="m236.89 63.218s-0.16507 4.4075-1.0482 6.1656a6.8371 6.8371 0 0 1-1.7663 2.3936s-3.0209-4.4653-2.5174-7.8576a19.454 19.454 0 0 1 0.85014-3.9123c0.15682-0.47872-0.47046-0.6603-0.6603-0.15682-0.19809 0.50348-0.38793 3.219-1.5187 3.1777-1.2381-0.04127-3.1034-5.9757-3.351-6.669s-0.75934-0.47046-0.56125 0.18984c0.19809 0.6603 2.5999 5.9427 1.7085 6.4214-0.77585 0.41269-4.0526-3.6564-5.3237-5.043-0.38793-0.4292-1.073-0.14857-0.44571 0.58602 0 0 5.0348 5.0265 4.4075 5.9427-0.54474 0.79236-4.1269-0.43745-5.4145-1.0317-0.42095-0.19809-0.78411 0.12381-0.26412 0.52824 0.51998 0.41269 5.2824 1.4939 5.1256 2.5504-0.12381 0.81712-1.2546 0.79236-2.6164 1.3041-0.88315 0.33015-0.97394 0.94918-0.16508 0.74284 0.80887-0.20634 4.0196-1.2381 5.6373 0.54475 1.6177 1.7828 4.812 9.0461 6.5122 8.2207 1.7003-0.82538 6.1573-10.697 7.2963-10.713 0.77585-0.0083-5.5548-8.6664-5.5548-8.6664z"/>
    <path d="m272.76 60.395s2.765 1.4279 2.8558-0.42094c0.0825-1.8488-1.04-8.9966 1.4857-9.7147 2.5587-0.73458 10.259-0.43745 10.259-0.43745a1.8019 1.8019 0 0 0 1.0895-2.2615c-0.41269-1.3784-2.3441-2.113-3.8545-2.7815-0.33015-0.14857-0.45395-0.67681 0.066-0.51999 0.51999 0.15682 3.0291 0.61903 3.4501-0.13206 0.34665-0.62729-0.27238-5.4557-0.49523-6.2894s0.38793-0.91617 0.58602-0.24761c0.20634 0.66856 1.2463 6.1986 1.9149 6.0252 0.56126-0.14031 1.659-6.1325 1.8571-6.7021 0.20634-0.56951 0.58601-0.4457 0.54474 0.08254-0.0413 0.52824-0.89966 6.537-0.14031 6.7021 0.59427 0.13206 3.1034-2.4596 3.7142-3.0456 0.61078-0.58602 0.85014-0.20634 0.54475 0.20634-0.30539 0.40443-3.6152 4.1104-3.1447 4.8367 0.4457 0.69332 1.9726 0.97394 2.7402 0.73458 0.7676-0.24761 0.52824 0.37142 0.24761 0.54475-0.28063 0.18158-3.8545 0.3219-4.0031 3.2107-0.0825 1.6177-0.0413 2.4761-1.3371 3.6151-1.7085 1.5022-7.2551-0.37967-9.0544-0.16508-2.0304 0.24761-2.7815 0.85014-2.113 4.7129 0.66855 3.8628 0.57776 8.9636-1.0152 10.639-1.593 1.6755-2.0964 1.4857-2.0964 1.4857z"/>
    <path d="m262.89 73.634s-6.8424 3.739-8.1795 5.2494c-1.3371 1.5104-0.50348 2.5174 0.58601 3.3593 0.68506 0.52824 0.30539 0.57776 7.6347 3.0209a6.8549 6.8549 0 0 1-3.0209 0.58602c-1.4444 0-3.3758-1.1143-4.3497-1.6342-0.97394-0.51999-1.007 0.12381-0.3384 0.57776 0.66855 0.45396 3.7555 1.6425 2.666 2.2285-0.91616 0.49522-4.9688 0.59427-6.9084 1.073-1.2216 0.30539-0.60253 0.89966 0.0578 0.82538 0.66856-0.08254 6.3471-0.553 6.6773 0.11555 0.28889 0.57776-4.4158 3.2025-6.2811 4.8697-1.1308 1.007 0.0578 1.1555 0.57777 0.73458 0.51998-0.4292 6.7268-4.6716 7.5687-3.9948 0.70156 0.56126-1.2876 5.1916-2.1047 7.3128-0.45396 1.1885 0.48697 0.91617 0.73458 0.39618 0.24761-0.51999 3.4996-7.0322 4.1021-6.9414 0.52824 0.08254 0.34666 4.325 0.37142 5.2576 0.0248 0.93268 0.51999 0.58602 0.60252 0.04952 0.34666-2.278 0.83363-6.5782 1.2381-6.8506 0.50348-0.3384 5.3732-2.765 5.1173-4.4488-0.24761-1.6755-3.9453-3.5244-6.5452-4.2754-2.5999-0.75109 7.0487 2.0965 9.401-1.4279 2.3523-3.5244 2.765-4.0278 2.765-4.0278z"/>
   </g>
   <g fill="#eb3a00" stroke-width=".82538">
    <circle cx="287.97" cy="38.143" r="1.0317"/>
    <circle cx="249.07" cy="24.12" r="1.0317"/>
    <circle cx="222.35" cy="57.952" r="1.0317"/>
    <circle cx="221.01" cy="63.729" r="1.0317"/>
    <circle cx="223.07" cy="68.228" r="1.0317"/>
    <circle cx="255.02" cy="84.257" r="1.0317"/>
    <circle cx="250.35" cy="88.59" r="1.0317"/>
    <circle cx="251.33" cy="94.656" r="1.0317"/>
    <circle cx="257.73" cy="98.659" r="1.0317"/>
    <circle cx="263.25" cy="97.248" r="1.0317"/>
    <circle cx="232" cy="59.817" r="1.0317"/>
    <circle cx="253.85" cy="22.172" r="1.0317"/>
    <circle cx="257.67" cy="24.26" r="1.0317"/>
    <circle cx="259.83" cy="27.982" r="1.0317"/>
    <circle cx="246.95" cy="30.483" r="1.0317"/>
    <circle cx="226.67" cy="56.26" r="1.0317"/>
    <circle cx="292.19" cy="36.88" r="1.0317"/>
    <circle cx="296.63" cy="40.734" r="1.0317"/>
    <circle cx="296.67" cy="46.504" r="1.0317"/>
    <circle cx="284.45" cy="44.275" r="1.0317"/>
   </g>
   <g stroke-width=".82538">
    <path d="m311.92 96.447a6.0588 6.0588 0 0 0-1.8488-2.4514 5.8406 5.8406 0 0 0-2.4514-1.1555 6.0766 6.0766 0 0 0-2.278-0.03301 6.3839 6.3839 0 0 0-1.6508 0.51999 6.3069 6.3069 0 0 0-0.95744 0.56951c-0.20634 0.15682-0.31364 0.23936-0.31364 0.23936a0.32322 0.32322 0 0 0-0.066 0.43745 0.3294 0.3294 0 0 0 0.45839 0.08307l0.012-0.0087s0.099-0.06603 0.28888-0.19809a5.9226 5.9226 0 0 1 0.8749-0.4457 5.6789 5.6789 0 0 1 1.4692-0.37142 5.1381 5.1381 0 0 1 1.9149 0.14031 4.7446 4.7446 0 0 1 1.9726 1.073 4.8367 4.8367 0 0 1 1.3619 2.0469 4.6868 4.6868 0 0 1 0.0908 2.5752 7.2386 7.2386 0 0 1-1.139 2.5256 8.6995 8.6995 0 0 1-8.881 3.5821c-0.15682-0.033-0.31364-0.0825-0.47046-0.12381a17.312 17.312 0 0 1-2.7402-1.7085c-2.8393-2.212-4.1847-5.8189-4.9605-9.3268-0.86664-3.9288-1.659-7.7173-2.864-11.564-0.70157-2.2368-1.4774-4.457-2.3606-6.636-0.71808-1.7746-1.527-3.5656-2.4018-5.3402a62.951 62.951 0 0 0-3.7059-6.5782 42.93 42.93 0 0 0-7.0487-8.5014 35.851 35.851 0 0 0-3.351-2.6825 33.87 33.87 0 0 0-8.196-4.325 26.393 26.393 0 0 0-5.2742-1.3206 49.239 49.239 0 0 1-8.295-1.8241 12.757 12.757 0 0 1-5.5713-3.1694 6.1516 6.1516 0 0 1-1.7993-4.9523c0.2146-2.3193 0.59427-4.4323 0.18158-6.9992a15.977 15.977 0 0 0-1.0647-3.6812c-0.0743-0.18158-0.18984-0.37967-0.28889-0.57776-1.172-2.2615-3.9536-5.464-6.7681-8.3115 1.4939 3.9866 1.8241 8.1712-0.26412 12.364 0 0.86664-2.5999 2.5999-5.1999 1.7333-5.2989-2.1212-7.3541-7.1643-7.7585-12.537-0.97394 4.4158-1.56 10.086-0.70982 14.411 1.3371 6.7763 5.2824 9.6404 7.4449 11.275 1.6012 1.2133 1.8901 1.8901 4.4983 4.3332 1.4939 1.3949 2.6495 6.7763 3.6069 8.6334a29.77 29.77 0 0 0 5.0843 7.4449c0.31365 0.31364 0.63554 0.61078 0.97395 0.89141a24.893 24.893 0 0 0 6.4627 3.8297 38.528 38.528 0 0 0 4.3993 1.5269c1.7993 0.51999 3.6316 0.94093 5.464 1.3371 1.7333 0.37967 3.6234 0.75109 5.5383 1.1968a32.325 32.325 0 0 1 8.2455 2.9301 14.141 14.141 0 0 1 3.7142 2.8888 30.011 30.011 0 0 1 4.7129 6.9662 59.351 59.351 0 0 0 3.8298 7.5852 39.31 39.31 0 0 0 6.9497 8.0227 30.756 30.756 0 0 0 4.2259 3.2272 13.477 13.477 0 0 0 8.1052 1.9479c0.24762-0.0248 0.49523-0.0578 0.74284-0.1073l0.18984-0.033 0.19809-0.0413 0.3384-0.0825a11.34 11.34 0 0 0 1.5187-0.51998 10.768 10.768 0 0 0 4.9357-4.2837 8.7516 8.7516 0 0 0 1.1803-3.1447 5.9749 5.9749 0 0 0-0.30539-3.3015z" fill="#f53c00"/>
    <path d="m228.35 32.052c2.5999 0.86664 5.1999-0.86664 5.1999-1.7333 2.0965-4.1847 1.758-8.3693 0.26412-12.364-3.1777-3.2107-6.3967-5.9675-7.4036-6.3719a2.5862 2.5862 0 0 0-3.4425 1.2351l-0.0241 0.0525c-0.71808 0.85839-1.6342 3.4171-2.3441 6.636 0.39618 5.3897 2.4514 10.425 7.7503 12.546z" fill="#ea7a8f"/>
    <path d="m220.59 32.588a4.6056 4.6056 0 1 1 4.6056-4.6056 4.6056 4.6056 0 0 1-4.6056 4.6056z" fill="#fff"/>
    <path d="m220.59 23.938a4.0443 4.0443 0 1 1-4.0443 4.0443 4.0403 4.0403 0 0 1 4.0363-4.0443h8e-3m0-1.1308a5.1669 5.1669 0 1 0 5.1669 5.1669 5.1669 5.1669 0 0 0-5.1669-5.1669z" fill="#b3b3b3"/>
    <circle cx="219.48" cy="26.084" r="1.9726"/>
    <path d="m236.34 26.356a4.6056 4.6056 0 1 1 4.6056-4.6056 4.6074 4.6074 0 0 1-4.6056 4.6056z" fill="#fff"/>
    <path d="m236.33 17.706a4.0443 4.0443 0 1 1-4.0443 4.0443 4.0403 4.0403 0 0 1 4.0362-4.0443h8e-3m0-1.1225a5.1669 5.1669 0 1 0 5.1668 5.1669 5.1669 5.1669 0 0 0-5.1668-5.1669z" fill="#b3b3b3"/>
    <circle cx="236.59" cy="19.77" r="1.9726"/>
    <path d="m234.07 36.244s0.0908 0.33015 0.27237 0.94093c0.17333 0.64379 0.4457 1.4362 0.81712 2.4926a22.44 22.44 0 0 0 1.6425 3.5986 19.901 19.901 0 0 0 3.0704 3.9866 44.451 44.451 0 0 0 4.7789 4.0608c0.89966 0.67681 1.8901 1.4362 2.831 2.0717l0.75935 0.52824 0.73458 0.46221c0.47872 0.31364 0.99045 0.61903 1.5352 0.92442a76.342 76.342 0 0 0 6.8259 3.4583c2.4101 1.0895 4.911 2.1625 7.4036 3.3428a71.248 71.248 0 0 1 7.3458 3.9123l0.44571 0.27237 0.24761 0.15682 0.20634 0.14031c0.28063 0.19809 0.5365 0.35491 0.83363 0.58602 0.59427 0.43745 1.139 0.8749 1.6755 1.3206a29.986 29.986 0 0 1 2.9218 2.8641 42.306 42.306 0 0 1 7.3624 12.273 62.336 62.336 0 0 1 2.9218 9.5331c0.26412 1.172 0.42919 2.0965 0.53649 2.7237 0.1073 0.63554 0.16508 0.96569 0.16508 0.96569a0.14601 0.14601 0 0 1-0.11556 0.16508 0.15524 0.15524 0 0 1-0.15682-0.09079s-0.4457-1.2876-1.2876-3.5078a81.555 81.555 0 0 0-3.9701-8.9141 50.646 50.646 0 0 0-3.2933-5.53 37.459 37.459 0 0 0-4.457-5.464 26.579 26.579 0 0 0-2.732-2.4431c-0.48697-0.37967-0.99045-0.74284-1.4857-1.0647-0.2311-0.16508-0.54475-0.34666-0.81712-0.51999l-0.2146-0.13206-0.18158-0.1073-0.42094-0.23936a64.832 64.832 0 0 0-7.0735-3.5078c-4.9192-2.1212-10.07-4.0939-14.7-6.7021-0.57776-0.31364-1.1473-0.6603-1.7168-1.0235l-0.84188-0.5365-0.75935-0.52824c-1.0895-0.74284-2.0057-1.4444-2.9796-2.1625a42.412 42.412 0 0 1-5.1999-4.5066 21.919 21.919 0 0 1-3.5574-4.9027 25.841 25.841 0 0 1-1.7828-4.2589c-0.38793-1.1968-0.62729-2.2038-0.75935-2.798-0.14031-0.61903-0.21459-0.95744-0.21459-0.95744a1.7503 1.7503 0 0 1 3.384-0.88315z" fill="url(#linear-gradient-08)"/>
   </g>
  </g>
  <g transform="matrix(1.3705 0 0 1.3705 42.498 54.557)">
   <path d="m121.05 96.447a6.0588 6.0588 0 0 0-1.8488-2.4514 5.8405 5.8405 0 0 0-2.4514-1.1555 6.0766 6.0766 0 0 0-2.278-0.03302 6.384 6.384 0 0 0-1.6508 0.51999 6.3069 6.3069 0 0 0-0.95743 0.56951c-0.20635 0.15682-0.31365 0.23936-0.31365 0.23936a0.32322 0.32322 0 0 0-0.066 0.43745 0.32939 0.32939 0 0 0 0.45839 0.08307l0.0121-0.0087s0.099-0.06603 0.28889-0.19809a5.9225 5.9225 0 0 1 0.87489-0.4457 5.6789 5.6789 0 0 1 1.4692-0.37142 5.1384 5.1384 0 0 1 1.9149 0.14031 4.7445 4.7445 0 0 1 1.9726 1.073 4.8362 4.8362 0 0 1 1.3619 2.0469 4.6867 4.6867 0 0 1 0.0908 2.5752 7.2382 7.2382 0 0 1-1.139 2.5257 8.6991 8.6991 0 0 1-8.881 3.5821c-0.15682-0.033-0.31364-0.0825-0.47046-0.1238a17.31 17.31 0 0 1-2.7402-1.7085c-2.8393-2.212-4.1847-5.8189-4.9605-9.3268-0.86665-3.9288-1.659-7.7173-2.8641-11.564-0.70157-2.2368-1.4774-4.457-2.3606-6.636-0.71808-1.7746-1.5269-3.5656-2.4018-5.3402a62.951 62.951 0 0 0-3.706-6.5783c-0.28888-0.4457-0.60252-0.88315-0.90791-1.3206a27.502 27.502 0 0 0-0.39618-4.6469c-0.66855-3.8628 0.08254-4.4653 2.113-4.7129 1.7993-0.2146 7.3541 1.6673 9.0544 0.16508 1.2958-1.139 1.2628-1.9974 1.3371-3.6151 0.1073-2.2203 2.245-2.8145 3.3593-3.0539a1.0659 1.0659 0 0 0 0.6603 0.40443 1.0367 1.0367 0 1 0-0.85839-1.1885 1.1078 1.1078 0 0 0 8e-3 0.16508 2.7427 2.7427 0 0 1-2.1542-0.80887c-0.36317-0.56126 1.5269-2.8888 2.5422-4.1104a1.2071 1.2071 0 0 0 0.42094 0.18158 1.0367 1.0367 0 1 0-0.85839-1.1885 1.0246 1.0246 0 0 0 0.0578 0.50348c-0.94092 0.93268-2.7815 2.732-3.285 2.6247-0.60253-0.13206-0.18159-3.9948 0.0413-5.8106a1.0226 1.0226 0 0 0 0.7841-0.84188 1.0367 1.0367 0 1 0-2.0469-0.33015 1.0248 1.0248 0 0 0 0.60253 1.0895c-0.40444 1.8241-1.1885 5.6951-1.6425 5.8024-0.48697 0.12381-1.172-2.7733-1.593-4.6139a1.0154 1.0154 0 0 0 0.45396-0.69332 1.0367 1.0367 0 1 0-1.1885 0.85839h0.04127c0.24761 1.7415 0.51999 4.49 0.26412 4.9523-0.30539 0.54475-1.6838 0.45396-2.633 0.30539a1.0349 1.0349 0 1 0-1.1885 0.88315 1.009 1.009 0 0 0 0.85839-0.28063c1.3949 0.61078 2.9301 1.3289 3.2933 2.5339a1.8019 1.8019 0 0 1-1.0895 2.2615s-7.7008-0.29714-10.259 0.43745c-1.7415 0.49523-1.7498 4.0196-1.6177 6.7763-0.41269-0.41269-0.81712-0.84188-1.2463-1.2298a35.854 35.854 0 0 0-3.351-2.6825 33.87 33.87 0 0 0-8.196-4.325 26.393 26.393 0 0 0-5.2742-1.3206c-0.73458-0.1073-1.4857-0.22285-2.245-0.35491a8.9456 8.9456 0 0 0 0.89141-4.4158c-0.07428-3.0539-1.205-8.0887 0.04952-10.474a12.258 12.258 0 0 1 3.0374-3.4913 0.98107 0.98107 0 0 0 0.51999 0.26412 1.0367 1.0367 0 1 0-0.85839-1.1885 0.97569 0.97569 0 0 0 0.1073 0.59427c-0.92442 0.75109-2.1542 1.3866-2.7402 0.92442-0.6603-0.51173 0.52824-2.8641 1.172-4.1186a0.87973 0.87973 0 0 0 0.15682 0.05778 1.0367 1.0367 0 1 0-0.85839-1.1885 1.0147 1.0147 0 0 0 0.3219 0.89966c-0.58602 1.3289-1.7415 3.7885-2.4514 3.3345-0.4457-0.28888-0.1073-3.3428-0.23936-5.2246a1.0181 1.0181 0 0 0 0.60252-0.75935 1.0367 1.0367 0 1 0-1.1885 0.85839c0.04952 1.56 0.04127 4.944-0.75935 5.2411-0.75109 0.28063-1.9561-1.5682-3.1034-3.6399a0.98668 0.98668 0 0 0 0.26412-0.51173 1.0367 1.0367 0 1 0-1.1885 0.85839 0.98992 0.98992 0 0 0 0.41269-0.01651c0.70157 1.1555 2.3853 4.0278 1.7581 4.845-0.28888 0.37967-1.8488 0.3219-3.1282 0.30539a1.0181 1.0181 0 0 0-0.84188-0.81712 1.0367 1.0367 0 1 0 0.72633 1.5352c1.3536 0.51173 3.1199 1.4114 3.6399 2.3606 1.1225 2.0222 2.9466 9.0049-0.52824 11.044a16.706 16.706 0 0 1-2.2615 1.0978 12.249 12.249 0 0 1-5.1256-3.0126 6.1516 6.1516 0 0 1-1.7993-4.9523c0.2146-2.3193 0.59427-4.4323 0.18158-6.9992a15.976 15.976 0 0 0-1.0647-3.6812c-0.07428-0.18158-0.18984-0.37967-0.28888-0.57776-1.172-2.2615-3.9536-5.464-6.7681-8.3115-3.1777-3.2107-6.3967-5.9675-7.4036-6.3719a2.5861 2.5861 0 0 0-3.4425 1.235l-0.02408 0.05254c-0.71808 0.85839-1.6342 3.4171-2.3441 6.636-0.97394 4.4158-1.56 10.086-0.70982 14.411 1.3371 6.7763 5.2824 9.6404 7.4449 11.275 1.6012 1.2133 1.8901 1.8901 4.4983 4.3332 1.4939 1.3949 2.6495 6.7763 3.6069 8.6334 0.48697 0.94918 1.0152 1.9066 1.593 2.8558l-0.14031 2.1872s-0.16508 4.4075-1.0482 6.1656a6.8371 6.8371 0 0 1-1.7663 2.3936s-3.0209-4.4653-2.5174-7.8576a29.843 29.843 0 0 1 0.59427-3.0869 1.024 1.024 0 0 0 0.8749-0.85014 1.0367 1.0367 0 0 0-2.0469-0.33015 1.013 1.013 0 0 0 0.56951 1.073c-0.18984 0.97394-0.51999 2.3193-1.3289 2.2945-1.0235-0.03301-2.4596-4.0443-3.0787-5.8602a1.0106 1.0106 0 1 0-0.63554 0.12381c0.03301 0.0083 0.05778-0.0083 0.08254 0 0.6603 1.6508 2.1625 5.2989 1.4279 5.6868-0.68506 0.36317-3.318-2.7568-4.7954-4.457a1.1031 1.1031 0 1 0-0.553 0.41269c1.1885 1.2216 4.5066 4.7624 3.9866 5.5218-0.45396 0.66855-3.0374-0.09079-4.6139-0.70157a1.0244 1.0244 0 0 0-0.85014-1.04 1.0368 1.0368 0 1 0 0.67681 1.6095c1.5187 0.51999 4.3662 1.3619 4.2424 2.179-0.1073 0.73458-1.0235 0.79236-2.179 1.1555a1.0276 1.0276 0 1 0 0.17333 0.74284v-0.04952c1.2876-0.31364 3.5821-0.67681 4.8697 0.74284 1.6177 1.7746 4.8119 9.0461 6.5122 8.2207 1.4857-0.71808 5.0678-8.3363 6.7186-10.268a25.53 25.53 0 0 0 5.7611 3.2933 38.529 38.529 0 0 0 4.3993 1.5269c1.7993 0.51999 3.6317 0.94093 5.464 1.3371 1.3371 0.29714 2.7733 0.57776 4.2342 0.90791-1.8654 1.0482-6.2894 3.5986-7.3376 4.7789-1.3454 1.5104-0.50348 2.5174 0.58602 3.3593 0.68506 0.52824 0.30539 0.57776 7.6347 3.0209a6.8549 6.8549 0 0 1-3.0209 0.58602c-1.2463 0-2.8475-0.82538-3.8958-1.3866 0-0.01651 0.0083-0.02476 0.01651-0.04127a1.0367 1.0367 0 1 0-1.1885 0.85839 1.0208 1.0208 0 0 0 0.82538-0.23936c1.0565 0.54475 3.1612 1.4774 2.2285 1.9809-0.88315 0.47046-4.6634 0.58602-6.6773 1.0235a1.0184 1.0184 0 0 0-0.70157-0.47872 1.0367 1.0367 0 0 0-0.33015 2.0469 1.02 1.02 0 0 0 1.1308-0.71808c1.3123-0.12381 6.0995-0.47046 6.4049 0.14031 0.28063 0.553-4.0443 2.9961-6.0418 4.6634a1.4075 1.4075 0 0 0-0.19809-0.07428 1.0367 1.0367 0 1 0 0.85839 1.1885 0.9454 0.9454 0 0 0-0.01651-0.40443c1.3619-0.97394 6.4957-4.3745 7.2551-3.7637 0.67681 0.5365-1.1143 4.7707-1.9892 7.0074a1.03 1.03 0 1 0 1.139 1.1803 1.0146 1.0146 0 0 0-0.3219-0.89966c0.77585-1.56 3.3593-6.5948 3.8875-6.5122 0.48697 0.07428 0.37142 3.6812 0.37142 4.977a1.0258 1.0258 0 0 0-0.46221 0.69332 1.0367 1.0367 0 1 0 1.1885-0.85839h-0.04952c0.34666-2.3523 0.79236-6.0995 1.172-6.3554 0.50348-0.3384 5.3732-2.765 5.1173-4.4488-0.25587-1.6755-3.9453-3.5244-6.5452-4.2754-2.5999-0.75109 7.0487 2.0965 9.401-1.4279 0.3219-0.47872 0.59427-0.89141 0.85014-1.2628a12.415 12.415 0 0 1 1.9644 1.7581 30.01 30.01 0 0 1 4.7129 6.9662 59.35 59.35 0 0 0 3.8297 7.5852 39.31 39.31 0 0 0 6.9497 8.0226 30.757 30.757 0 0 0 4.2259 3.2272 13.477 13.477 0 0 0 8.1052 1.9479c0.24761-0.0248 0.49523-0.0578 0.74284-0.1073l0.18984-0.033 0.19809-0.0413 0.3384-0.0825a11.34 11.34 0 0 0 1.5187-0.51999 10.768 10.768 0 0 0 4.9358-4.2837 8.7516 8.7516 0 0 0 1.1803-3.1447 5.8768 5.8768 0 0 0-0.29714-3.2933z" fill="none" stroke="#2e7d32" stroke-linecap="round" stroke-linejoin="round" stroke-width="3.3015px"/>
   <g stroke-width=".82538">
    <path d="m57.885 24.664c0.24761 0.4292 2.7815 4.3332 2.0304 5.3072-0.38793 0.50348-2.9879 0.2311-4.2259 0.3219a0.18469 0.18469 0 0 0-0.03301 0.36317c1.2628 0.33015 3.9866 1.4774 4.6551 2.6907 1.1225 2.0222 2.9466 9.0049-0.52824 11.044a21.129 21.129 0 0 1-7.4944 2.4761l-0.71808 3.1034 5.9097 0.93268 6.3802-3.5409a8.3459 8.3459 0 0 0 1.04-4.6716c-0.07428-3.0539-1.205-8.0887 0.04952-10.474 1.205-2.3028 3.5739-3.8215 3.7555-4.1351 0.18158-0.30539-0.16508-0.42094-0.3384-0.2311-0.89141 0.92442-2.6247 2.0552-3.3593 1.4857-0.83363-0.64379 1.3123-4.2754 1.5269-4.845 0.2146-0.56951-0.15682-0.79236-0.40444-0.26412-0.24761 0.52824-1.8819 4.6716-2.7815 4.0856-0.5365-0.34666 0.05778-4.6551-0.37967-6.1738-0.23936-0.84188-0.50348-0.14857-0.47872 0.29714 0.02476 0.4457 0.27238 5.6291-0.72633 5.9922-0.79236 0.29714-2.0799-1.7746-3.285-3.9701-0.51173-0.94093-1.0482-0.60252-0.59427 0.20634z" fill="url(#linearGradient3088)"/>
    <path d="m45.736 63.218s-0.16508 4.4075-1.0482 6.1656a6.8371 6.8371 0 0 1-1.7663 2.3936s-3.0209-4.4653-2.5174-7.8576a19.454 19.454 0 0 1 0.85014-3.9123c0.15682-0.47872-0.47046-0.6603-0.6603-0.15682-0.19809 0.50348-0.38793 3.219-1.5187 3.1777-1.2381-0.04127-3.1034-5.9757-3.351-6.669s-0.75935-0.47046-0.56126 0.18984c0.19809 0.6603 2.5999 5.9427 1.7085 6.4214-0.77585 0.41269-4.0526-3.6564-5.3237-5.043-0.38793-0.4292-1.073-0.14857-0.4457 0.58602 0 0 5.0348 5.0265 4.4075 5.9427-0.54475 0.79236-4.1269-0.43745-5.4145-1.0317-0.42094-0.19809-0.78411 0.12381-0.26412 0.52824 0.51999 0.41269 5.2824 1.4939 5.1256 2.5504-0.12381 0.81712-1.2546 0.79236-2.6164 1.3041-0.88315 0.33015-0.97394 0.94918-0.16508 0.74284 0.80887-0.20634 4.0196-1.2381 5.6373 0.54475 1.6177 1.7828 4.8119 9.0461 6.5122 8.2207s6.1573-10.697 7.2963-10.713c0.77585-0.0083-5.5548-8.6664-5.5548-8.6664z" fill="url(#linear-gradient-2-81)"/>
    <path d="m81.598 60.395s2.765 1.4279 2.8558-0.42094c0.08254-1.8488-1.04-8.9966 1.4857-9.7147 2.5587-0.73458 10.259-0.43745 10.259-0.43745a1.8019 1.8019 0 0 0 1.0895-2.2615c-0.41269-1.3784-2.3441-2.113-3.8545-2.7815-0.33015-0.14857-0.45396-0.67681 0.06603-0.51999 0.51999 0.15682 3.0291 0.61903 3.4501-0.13206 0.34666-0.62729-0.27238-5.4557-0.49523-6.2894-0.22285-0.83363 0.38793-0.91617 0.58602-0.24761 0.20634 0.66855 1.2463 6.1986 1.9149 6.0252 0.56126-0.14031 1.659-6.1325 1.8571-6.7021 0.20634-0.56951 0.58602-0.4457 0.54475 0.08254-0.0413 0.52824-0.89966 6.537-0.14032 6.7021 0.59428 0.13206 3.1034-2.4596 3.7142-3.0456s0.85013-0.20634 0.54475 0.20634c-0.30539 0.40444-3.6152 4.1104-3.1447 4.8367 0.44571 0.69332 1.9726 0.97394 2.7402 0.73458 0.7676-0.24761 0.52824 0.37142 0.24761 0.54475-0.28062 0.18158-3.8545 0.3219-4.0031 3.2107-0.0825 1.6177-0.0413 2.4761-1.3371 3.6151-1.7085 1.5022-7.2551-0.37967-9.0544-0.16508-2.0304 0.24761-2.7815 0.85014-2.113 4.7129 0.66856 3.8628 0.57776 8.9636-1.0152 10.639-1.593 1.6755-2.0965 1.4857-2.0965 1.4857z" fill="url(#linear-gradient-3-0)"/>
    <path d="m71.735 73.634s-6.8424 3.739-8.1795 5.2494c-1.3371 1.5104-0.50348 2.5174 0.58602 3.3593 0.68506 0.52824 0.30539 0.57776 7.6347 3.0209a6.8549 6.8549 0 0 1-3.0209 0.58602c-1.4444 0-3.3758-1.1143-4.3497-1.6342s-1.007 0.12381-0.3384 0.57776 3.7555 1.6425 2.666 2.2285c-0.91617 0.49523-4.9688 0.59427-6.9084 1.073-1.2216 0.30539-0.60252 0.89966 0.05778 0.82538 0.66855-0.08254 6.3471-0.553 6.6773 0.11555 0.28888 0.57776-4.4158 3.2025-6.2811 4.8697-1.1308 1.007 0.05778 1.1555 0.57776 0.73458 0.51999-0.4292 6.7268-4.6716 7.5687-3.9948 0.70157 0.56126-1.2876 5.1916-2.1047 7.3128-0.45396 1.1885 0.48697 0.91617 0.73458 0.39618s3.4996-7.0322 4.1021-6.9414c0.52824 0.08254 0.34666 4.325 0.37142 5.2576 0.02476 0.93268 0.51999 0.58602 0.60252 0.04952 0.34666-2.278 0.83363-6.5782 1.2381-6.8506 0.50348-0.3384 5.3732-2.765 5.1173-4.4488-0.24761-1.6755-3.9453-3.5244-6.5452-4.2754s7.0487 2.0965 9.401-1.4279c2.3523-3.5244 2.765-4.0278 2.765-4.0278z" fill="url(#linear-gradient-4-2)"/>
   </g>
   <g fill="#6bb828" stroke-width=".82538">
    <circle cx="96.81" cy="38.143" r="1.0317"/>
    <circle cx="57.91" cy="24.12" r="1.0317"/>
    <circle cx="31.192" cy="57.952" r="1.0317"/>
    <circle cx="29.855" cy="63.729" r="1.0317"/>
    <circle cx="31.911" cy="68.228" r="1.0317"/>
    <circle cx="63.861" cy="84.257" r="1.0317"/>
    <circle cx="59.198" cy="88.59" r="1.0317"/>
    <circle cx="60.171" cy="94.656" r="1.0317"/>
    <circle cx="66.568" cy="98.659" r="1.0317"/>
    <circle cx="72.09" cy="97.248" r="1.0317"/>
    <circle cx="40.841" cy="59.817" r="1.0317"/>
    <circle cx="62.689" cy="22.172" r="1.0317"/>
    <circle cx="66.51" cy="24.26" r="1.0317"/>
    <circle cx="68.673" cy="27.982" r="1.0317"/>
    <circle cx="55.789" cy="30.483" r="1.0317"/>
    <circle cx="35.509" cy="56.26" r="1.0317"/>
    <circle cx="101.04" cy="36.88" r="1.0317"/>
    <circle cx="105.48" cy="40.734" r="1.0317"/>
    <circle cx="105.52" cy="46.504" r="1.0317"/>
    <circle cx="93.294" cy="44.275" r="1.0317"/>
   </g>
   <g stroke-width=".82538">
    <path d="m120.76 96.447a6.0588 6.0588 0 0 0-1.8488-2.4514 5.8406 5.8406 0 0 0-2.4514-1.1555 6.0766 6.0766 0 0 0-2.278-0.03302 6.3839 6.3839 0 0 0-1.6508 0.51999 6.3069 6.3069 0 0 0-0.95743 0.56951c-0.20635 0.15682-0.31365 0.23936-0.31365 0.23936a0.32323 0.32323 0 0 0-0.066 0.43745 0.3294 0.3294 0 0 0 0.45839 0.08307l0.0121-0.0087s0.0991-0.06603 0.28888-0.19809a5.9226 5.9226 0 0 1 0.8749-0.4457 5.6782 5.6782 0 0 1 1.4692-0.37142 5.1384 5.1384 0 0 1 1.9149 0.14031 4.7446 4.7446 0 0 1 1.9726 1.073 4.8364 4.8364 0 0 1 1.3619 2.0469 4.687 4.687 0 0 1 0.0908 2.5752 7.2384 7.2384 0 0 1-1.139 2.5257 8.6991 8.6991 0 0 1-8.881 3.5821c-0.15682-0.033-0.31364-0.0825-0.47047-0.1238a17.311 17.311 0 0 1-2.7402-1.7085c-2.8393-2.212-4.1847-5.8189-4.9605-9.3268-0.86664-3.9288-1.659-7.7173-2.864-11.564-0.70157-2.2368-1.4774-4.457-2.3606-6.636-0.71808-1.7746-1.5269-3.5656-2.4018-5.3402a62.948 62.948 0 0 0-3.706-6.5783 42.93 42.93 0 0 0-7.0487-8.5014 35.851 35.851 0 0 0-3.351-2.6825 33.871 33.871 0 0 0-8.196-4.325 26.393 26.393 0 0 0-5.2742-1.3206 49.239 49.239 0 0 1-8.295-1.8241 12.757 12.757 0 0 1-5.5713-3.1694 6.1516 6.1516 0 0 1-1.7993-4.9523c0.2146-2.3193 0.59427-4.4323 0.18158-6.9992a15.977 15.977 0 0 0-1.0647-3.6812c-0.07428-0.18158-0.18984-0.37967-0.28888-0.57776-1.172-2.2615-3.9536-5.464-6.7681-8.3115 1.4939 3.9866 1.8241 8.1712-0.26412 12.364 0 0.86664-2.5999 2.5999-5.1999 1.7333-5.2989-2.1212-7.3541-7.1643-7.7585-12.537-0.97394 4.4158-1.56 10.086-0.70982 14.411 1.3371 6.7763 5.2824 9.6404 7.4449 11.275 1.6012 1.2133 1.8901 1.8901 4.4983 4.3332 1.4939 1.3949 2.6495 6.7763 3.6069 8.6334a29.769 29.769 0 0 0 5.0843 7.4449c0.31364 0.31364 0.63554 0.61078 0.97394 0.89141a24.893 24.893 0 0 0 6.4627 3.8297 38.526 38.526 0 0 0 4.3993 1.5269c1.7993 0.51999 3.6317 0.94093 5.464 1.3371 1.7333 0.37967 3.6234 0.75109 5.5383 1.1968a32.325 32.325 0 0 1 8.2455 2.9301 14.141 14.141 0 0 1 3.7142 2.8888 30.01 30.01 0 0 1 4.7129 6.9662 59.354 59.354 0 0 0 3.8297 7.5852 39.31 39.31 0 0 0 6.9497 8.0227 30.756 30.756 0 0 0 4.2259 3.2272 13.477 13.477 0 0 0 8.1052 1.9479c0.24761-0.0248 0.49522-0.0578 0.74284-0.1073l0.18983-0.033 0.19809-0.0413 0.33841-0.0825a11.342 11.342 0 0 0 1.5187-0.51999 10.769 10.769 0 0 0 4.9358-4.2837 8.7518 8.7518 0 0 0 1.1803-3.1447 5.9749 5.9749 0 0 0-0.30539-3.3015z" fill="url(#linear-gradient-5-6)"/>
    <path d="m37.193 32.052c2.5999 0.86664 5.1999-0.86664 5.1999-1.7333 2.0965-4.1847 1.7581-8.3693 0.26412-12.364-3.1777-3.2107-6.3967-5.9675-7.4036-6.3719a2.5861 2.5861 0 0 0-3.4425 1.235l-0.02408 0.05254c-0.71808 0.85839-1.6342 3.4171-2.3441 6.636 0.39618 5.3897 2.4514 10.425 7.7503 12.546z" fill="#aed581"/>
    <path d="m29.434 32.588a4.6056 4.6056 0 1 1 4.6056-4.6056 4.6056 4.6056 0 0 1-4.6056 4.6056z" fill="#fff"/>
    <path d="m29.434 23.938a4.0443 4.0443 0 1 1-4.0443 4.0443 4.0403 4.0403 0 0 1 4.0363-4.0443h8e-3m0-1.1308a5.1669 5.1669 0 1 0 5.1669 5.1669 5.1669 5.1669 0 0 0-5.1669-5.1669z" fill="#b3b3b3"/>
    <circle cx="28.32" cy="26.084" r="1.9726"/>
    <path d="m45.183 26.356a4.6056 4.6056 0 1 1 4.6056-4.6056 4.6075 4.6075 0 0 1-4.6056 4.6056z" fill="#fff"/>
    <path d="m45.174 17.706a4.0443 4.0443 0 1 1-4.0443 4.0443 4.0403 4.0403 0 0 1 4.0363-4.0443h8e-3m0-1.1225a5.1669 5.1669 0 1 0 5.1669 5.1669 5.1669 5.1669 0 0 0-5.1669-5.1669z" fill="#b3b3b3"/>
    <circle cx="45.43" cy="19.77" r="1.9726"/>
    <path d="m42.913 36.244s0.09079 0.33015 0.27237 0.94093c0.17333 0.64379 0.4457 1.4362 0.81712 2.4926a22.44 22.44 0 0 0 1.6425 3.5986 19.901 19.901 0 0 0 3.0704 3.9866 44.451 44.451 0 0 0 4.7789 4.0609c0.89966 0.67681 1.8901 1.4362 2.831 2.0717l0.75935 0.52824 0.73458 0.46221c0.47872 0.31364 0.99045 0.61903 1.5352 0.92442a76.342 76.342 0 0 0 6.8259 3.4583c2.4101 1.0895 4.911 2.1625 7.4036 3.3428a71.248 71.248 0 0 1 7.3458 3.9123l0.4457 0.27237 0.24761 0.15682 0.20634 0.14031c0.28063 0.19809 0.5365 0.35491 0.83363 0.58602 0.59427 0.43745 1.139 0.8749 1.6755 1.3206a29.985 29.985 0 0 1 2.9218 2.8641 42.306 42.306 0 0 1 7.3624 12.273 62.336 62.336 0 0 1 2.9218 9.5331c0.26412 1.172 0.4292 2.0965 0.5365 2.7237 0.1073 0.63554 0.16508 0.96569 0.16508 0.96569a0.14602 0.14602 0 0 1-0.11555 0.16508 0.15524 0.15524 0 0 1-0.15682-0.09079s-0.4457-1.2876-1.2876-3.5078a81.559 81.559 0 0 0-3.9701-8.9141 50.646 50.646 0 0 0-3.2933-5.53 37.459 37.459 0 0 0-4.457-5.464 26.579 26.579 0 0 0-2.732-2.4431c-0.48697-0.37967-0.99045-0.74284-1.4857-1.0647-0.2311-0.16508-0.54475-0.34666-0.81712-0.51999l-0.2146-0.13206-0.18158-0.1073-0.42094-0.23936a64.832 64.832 0 0 0-7.0735-3.5078c-4.9192-2.1212-10.07-4.0939-14.7-6.7021-0.57776-0.31364-1.1473-0.6603-1.7168-1.0235l-0.84188-0.5365-0.75935-0.52824c-1.0895-0.74284-2.0057-1.4444-2.9796-2.1625a42.412 42.412 0 0 1-5.1999-4.5066 21.919 21.919 0 0 1-3.5574-4.9027 25.841 25.841 0 0 1-1.7828-4.2589c-0.38793-1.1968-0.62729-2.2038-0.75935-2.798-0.14031-0.61903-0.2146-0.95744-0.2146-0.95744a1.7503 1.7503 0 0 1 3.384-0.88315z" fill="url(#linearGradient8879)"/>
   </g>
  </g>
  <g transform="matrix(1.3705 0 0 1.3705 42.498 221.45)">
   <path d="m121.05 96.447a6.0588 6.0588 0 0 0-1.8488-2.4514 5.8405 5.8405 0 0 0-2.4514-1.1555 6.0766 6.0766 0 0 0-2.278-0.03302 6.384 6.384 0 0 0-1.6508 0.51999 6.3069 6.3069 0 0 0-0.95743 0.56951c-0.20635 0.15682-0.31365 0.23936-0.31365 0.23936a0.32322 0.32322 0 0 0-0.066 0.43745 0.32939 0.32939 0 0 0 0.45839 0.08307l0.0121-0.0087s0.099-0.06603 0.28889-0.19809a5.9225 5.9225 0 0 1 0.87489-0.4457 5.6789 5.6789 0 0 1 1.4692-0.37142 5.1384 5.1384 0 0 1 1.9149 0.14031 4.7445 4.7445 0 0 1 1.9726 1.073 4.8362 4.8362 0 0 1 1.3619 2.0469 4.6867 4.6867 0 0 1 0.0908 2.5752 7.2382 7.2382 0 0 1-1.139 2.5257 8.6991 8.6991 0 0 1-8.881 3.5821c-0.15682-0.033-0.31364-0.0825-0.47046-0.1238a17.31 17.31 0 0 1-2.7402-1.7085c-2.8393-2.212-4.1847-5.8189-4.9605-9.3268-0.86665-3.9288-1.659-7.7173-2.8641-11.564-0.70157-2.2368-1.4774-4.457-2.3606-6.636-0.71808-1.7746-1.5269-3.5656-2.4018-5.3402a62.951 62.951 0 0 0-3.706-6.5783c-0.28888-0.4457-0.60252-0.88315-0.90791-1.3206a27.502 27.502 0 0 0-0.39618-4.6469c-0.66855-3.8628 0.08254-4.4653 2.113-4.7129 1.7993-0.2146 7.3541 1.6673 9.0544 0.16508 1.2958-1.139 1.2628-1.9974 1.3371-3.6151 0.1073-2.2203 2.245-2.8145 3.3593-3.0539a1.0659 1.0659 0 0 0 0.6603 0.40443 1.0367 1.0367 0 1 0-0.85839-1.1885 1.1078 1.1078 0 0 0 8e-3 0.16508 2.7427 2.7427 0 0 1-2.1542-0.80887c-0.36317-0.56126 1.5269-2.8888 2.5422-4.1104a1.2071 1.2071 0 0 0 0.42094 0.18158 1.0367 1.0367 0 1 0-0.85839-1.1885 1.0246 1.0246 0 0 0 0.0578 0.50348c-0.94092 0.93268-2.7815 2.732-3.285 2.6247-0.60253-0.13206-0.18159-3.9948 0.0413-5.8106a1.0226 1.0226 0 0 0 0.7841-0.84188 1.0367 1.0367 0 1 0-2.0469-0.33015 1.0248 1.0248 0 0 0 0.60253 1.0895c-0.40444 1.8241-1.1885 5.6951-1.6425 5.8024-0.48697 0.12381-1.172-2.7733-1.593-4.6139a1.0154 1.0154 0 0 0 0.45396-0.69332 1.0367 1.0367 0 1 0-1.1885 0.85839h0.04127c0.24761 1.7415 0.51999 4.49 0.26412 4.9523-0.30539 0.54475-1.6838 0.45396-2.633 0.30539a1.0349 1.0349 0 1 0-1.1885 0.88315 1.009 1.009 0 0 0 0.85839-0.28063c1.3949 0.61078 2.9301 1.3289 3.2933 2.5339a1.8019 1.8019 0 0 1-1.0895 2.2615s-7.7008-0.29714-10.259 0.43745c-1.7415 0.49523-1.7498 4.0196-1.6177 6.7763-0.41269-0.41269-0.81712-0.84188-1.2463-1.2298a35.854 35.854 0 0 0-3.351-2.6825 33.87 33.87 0 0 0-8.196-4.325 26.393 26.393 0 0 0-5.2742-1.3206c-0.73458-0.1073-1.4857-0.22285-2.245-0.35491a8.9456 8.9456 0 0 0 0.89141-4.4158c-0.07428-3.0539-1.205-8.0887 0.04952-10.474a12.258 12.258 0 0 1 3.0374-3.4913 0.98107 0.98107 0 0 0 0.51999 0.26412 1.0367 1.0367 0 1 0-0.85839-1.1885 0.97569 0.97569 0 0 0 0.1073 0.59427c-0.92442 0.75109-2.1542 1.3866-2.7402 0.92442-0.6603-0.51173 0.52824-2.8641 1.172-4.1186a0.87973 0.87973 0 0 0 0.15682 0.05778 1.0367 1.0367 0 1 0-0.85839-1.1885 1.0147 1.0147 0 0 0 0.3219 0.89966c-0.58602 1.3289-1.7415 3.7885-2.4514 3.3345-0.4457-0.28888-0.1073-3.3428-0.23936-5.2246a1.0181 1.0181 0 0 0 0.60252-0.75935 1.0367 1.0367 0 1 0-1.1885 0.85839c0.04952 1.56 0.04127 4.944-0.75935 5.2411-0.75109 0.28063-1.9561-1.5682-3.1034-3.6399a0.98668 0.98668 0 0 0 0.26412-0.51173 1.0367 1.0367 0 1 0-1.1885 0.85839 0.98992 0.98992 0 0 0 0.41269-0.01651c0.70157 1.1555 2.3853 4.0278 1.7581 4.845-0.28888 0.37967-1.8488 0.3219-3.1282 0.30539a1.0181 1.0181 0 0 0-0.84188-0.81712 1.0367 1.0367 0 1 0 0.72633 1.5352c1.3536 0.51173 3.1199 1.4114 3.6399 2.3606 1.1225 2.0222 2.9466 9.0049-0.52824 11.044a16.706 16.706 0 0 1-2.2615 1.0978 12.249 12.249 0 0 1-5.1256-3.0126 6.1516 6.1516 0 0 1-1.7993-4.9523c0.2146-2.3193 0.59427-4.4323 0.18158-6.9992a15.976 15.976 0 0 0-1.0647-3.6812c-0.07428-0.18158-0.18984-0.37967-0.28888-0.57776-1.172-2.2615-3.9536-5.464-6.7681-8.3115-3.1777-3.2107-6.3967-5.9675-7.4036-6.3719a2.5861 2.5861 0 0 0-3.4425 1.235l-0.02408 0.05254c-0.71808 0.85839-1.6342 3.4171-2.3441 6.636-0.97394 4.4158-1.56 10.086-0.70982 14.411 1.3371 6.7763 5.2824 9.6404 7.4449 11.275 1.6012 1.2133 1.8901 1.8901 4.4983 4.3332 1.4939 1.3949 2.6495 6.7763 3.6069 8.6334 0.48697 0.94918 1.0152 1.9066 1.593 2.8558l-0.14031 2.1872s-0.16508 4.4075-1.0482 6.1656a6.8371 6.8371 0 0 1-1.7663 2.3936s-3.0209-4.4653-2.5174-7.8576a29.843 29.843 0 0 1 0.59427-3.0869 1.024 1.024 0 0 0 0.8749-0.85014 1.0367 1.0367 0 0 0-2.0469-0.33015 1.013 1.013 0 0 0 0.56951 1.073c-0.18984 0.97394-0.51999 2.3193-1.3289 2.2945-1.0235-0.03301-2.4596-4.0443-3.0787-5.8602a1.0106 1.0106 0 1 0-0.63554 0.12381c0.03301 0.0083 0.05778-0.0083 0.08254 0 0.6603 1.6508 2.1625 5.2989 1.4279 5.6868-0.68506 0.36317-3.318-2.7568-4.7954-4.457a1.1031 1.1031 0 1 0-0.553 0.41269c1.1885 1.2216 4.5066 4.7624 3.9866 5.5218-0.45396 0.66855-3.0374-0.09079-4.6139-0.70157a1.0244 1.0244 0 0 0-0.85014-1.04 1.0368 1.0368 0 1 0 0.67681 1.6095c1.5187 0.51999 4.3662 1.3619 4.2424 2.179-0.1073 0.73458-1.0235 0.79236-2.179 1.1555a1.0276 1.0276 0 1 0 0.17333 0.74284v-0.04952c1.2876-0.31364 3.5821-0.67681 4.8697 0.74284 1.6177 1.7746 4.8119 9.0461 6.5122 8.2207 1.4857-0.71808 5.0678-8.3363 6.7186-10.268a25.53 25.53 0 0 0 5.7611 3.2933 38.529 38.529 0 0 0 4.3993 1.5269c1.7993 0.51999 3.6317 0.94093 5.464 1.3371 1.3371 0.29714 2.7733 0.57776 4.2342 0.90791-1.8654 1.0482-6.2894 3.5986-7.3376 4.7789-1.3454 1.5104-0.50348 2.5174 0.58602 3.3593 0.68506 0.52824 0.30539 0.57776 7.6347 3.0209a6.8549 6.8549 0 0 1-3.0209 0.58602c-1.2463 0-2.8475-0.82538-3.8958-1.3866 0-0.01651 0.0083-0.02476 0.01651-0.04127a1.0367 1.0367 0 1 0-1.1885 0.85839 1.0208 1.0208 0 0 0 0.82538-0.23936c1.0565 0.54475 3.1612 1.4774 2.2285 1.9809-0.88315 0.47046-4.6634 0.58602-6.6773 1.0235a1.0184 1.0184 0 0 0-0.70157-0.47872 1.0367 1.0367 0 0 0-0.33015 2.0469 1.02 1.02 0 0 0 1.1308-0.71808c1.3123-0.12381 6.0995-0.47046 6.4049 0.14031 0.28063 0.553-4.0443 2.9961-6.0418 4.6634a1.4075 1.4075 0 0 0-0.19809-0.07428 1.0367 1.0367 0 1 0 0.85839 1.1885 0.9454 0.9454 0 0 0-0.01651-0.40443c1.3619-0.97394 6.4957-4.3745 7.2551-3.7637 0.67681 0.5365-1.1143 4.7707-1.9892 7.0074a1.03 1.03 0 1 0 1.139 1.1803 1.0146 1.0146 0 0 0-0.3219-0.89966c0.77585-1.56 3.3593-6.5948 3.8875-6.5122 0.48697 0.07428 0.37142 3.6812 0.37142 4.977a1.0258 1.0258 0 0 0-0.46221 0.69332 1.0367 1.0367 0 1 0 1.1885-0.85839h-0.04952c0.34666-2.3523 0.79236-6.0995 1.172-6.3554 0.50348-0.3384 5.3732-2.765 5.1173-4.4488-0.25587-1.6755-3.9453-3.5244-6.5452-4.2754-2.5999-0.75109 7.0487 2.0965 9.401-1.4279 0.3219-0.47872 0.59427-0.89141 0.85014-1.2628a12.415 12.415 0 0 1 1.9644 1.7581 30.01 30.01 0 0 1 4.7129 6.9662 59.35 59.35 0 0 0 3.8297 7.5852 39.31 39.31 0 0 0 6.9497 8.0226 30.757 30.757 0 0 0 4.2259 3.2272 13.477 13.477 0 0 0 8.1052 1.9479c0.24761-0.0248 0.49523-0.0578 0.74284-0.1073l0.18984-0.033 0.19809-0.0413 0.3384-0.0825a11.34 11.34 0 0 0 1.5187-0.51999 10.768 10.768 0 0 0 4.9358-4.2837 8.7516 8.7516 0 0 0 1.1803-3.1447 5.8768 5.8768 0 0 0-0.29714-3.2933z" fill="none" stroke="#2e7d32" stroke-linecap="round" stroke-linejoin="round" stroke-width="3.3015px"/>
   <g stroke-width=".82538">
    <path d="m57.885 24.664c0.24761 0.4292 2.7815 4.3332 2.0304 5.3072-0.38793 0.50348-2.9879 0.2311-4.2259 0.3219a0.18469 0.18469 0 0 0-0.03301 0.36317c1.2628 0.33015 3.9866 1.4774 4.6551 2.6907 1.1225 2.0222 2.9466 9.0049-0.52824 11.044a21.129 21.129 0 0 1-7.4944 2.4761l-0.71808 3.1034 5.9097 0.93268 6.3802-3.5409a8.3459 8.3459 0 0 0 1.04-4.6716c-0.07428-3.0539-1.205-8.0887 0.04952-10.474 1.205-2.3028 3.5739-3.8215 3.7555-4.1351 0.18158-0.30539-0.16508-0.42094-0.3384-0.2311-0.89141 0.92442-2.6247 2.0552-3.3593 1.4857-0.83363-0.64379 1.3123-4.2754 1.5269-4.845 0.2146-0.56951-0.15682-0.79236-0.40444-0.26412-0.24761 0.52824-1.8819 4.6716-2.7815 4.0856-0.5365-0.34666 0.05778-4.6551-0.37967-6.1738-0.23936-0.84188-0.50348-0.14857-0.47872 0.29714 0.02476 0.4457 0.27238 5.6291-0.72633 5.9922-0.79236 0.29714-2.0799-1.7746-3.285-3.9701-0.51173-0.94093-1.0482-0.60252-0.59427 0.20634z" fill="url(#linearGradient3088)"/>
    <path d="m45.736 63.218s-0.16508 4.4075-1.0482 6.1656a6.8371 6.8371 0 0 1-1.7663 2.3936s-3.0209-4.4653-2.5174-7.8576a19.454 19.454 0 0 1 0.85014-3.9123c0.15682-0.47872-0.47046-0.6603-0.6603-0.15682-0.19809 0.50348-0.38793 3.219-1.5187 3.1777-1.2381-0.04127-3.1034-5.9757-3.351-6.669s-0.75935-0.47046-0.56126 0.18984c0.19809 0.6603 2.5999 5.9427 1.7085 6.4214-0.77585 0.41269-4.0526-3.6564-5.3237-5.043-0.38793-0.4292-1.073-0.14857-0.4457 0.58602 0 0 5.0348 5.0265 4.4075 5.9427-0.54475 0.79236-4.1269-0.43745-5.4145-1.0317-0.42094-0.19809-0.78411 0.12381-0.26412 0.52824 0.51999 0.41269 5.2824 1.4939 5.1256 2.5504-0.12381 0.81712-1.2546 0.79236-2.6164 1.3041-0.88315 0.33015-0.97394 0.94918-0.16508 0.74284 0.80887-0.20634 4.0196-1.2381 5.6373 0.54475 1.6177 1.7828 4.8119 9.0461 6.5122 8.2207s6.1573-10.697 7.2963-10.713c0.77585-0.0083-5.5548-8.6664-5.5548-8.6664z" fill="url(#linear-gradient-2-81)"/>
    <path d="m81.598 60.395s2.765 1.4279 2.8558-0.42094c0.08254-1.8488-1.04-8.9966 1.4857-9.7147 2.5587-0.73458 10.259-0.43745 10.259-0.43745a1.8019 1.8019 0 0 0 1.0895-2.2615c-0.41269-1.3784-2.3441-2.113-3.8545-2.7815-0.33015-0.14857-0.45396-0.67681 0.06603-0.51999 0.51999 0.15682 3.0291 0.61903 3.4501-0.13206 0.34666-0.62729-0.27238-5.4557-0.49523-6.2894-0.22285-0.83363 0.38793-0.91617 0.58602-0.24761 0.20634 0.66855 1.2463 6.1986 1.9149 6.0252 0.56126-0.14031 1.659-6.1325 1.8571-6.7021 0.20634-0.56951 0.58602-0.4457 0.54475 0.08254-0.0413 0.52824-0.89966 6.537-0.14032 6.7021 0.59428 0.13206 3.1034-2.4596 3.7142-3.0456s0.85013-0.20634 0.54475 0.20634c-0.30539 0.40444-3.6152 4.1104-3.1447 4.8367 0.44571 0.69332 1.9726 0.97394 2.7402 0.73458 0.7676-0.24761 0.52824 0.37142 0.24761 0.54475-0.28062 0.18158-3.8545 0.3219-4.0031 3.2107-0.0825 1.6177-0.0413 2.4761-1.3371 3.6151-1.7085 1.5022-7.2551-0.37967-9.0544-0.16508-2.0304 0.24761-2.7815 0.85014-2.113 4.7129 0.66856 3.8628 0.57776 8.9636-1.0152 10.639-1.593 1.6755-2.0965 1.4857-2.0965 1.4857z" fill="url(#linear-gradient-3-0)"/>
    <path d="m71.735 73.634s-6.8424 3.739-8.1795 5.2494c-1.3371 1.5104-0.50348 2.5174 0.58602 3.3593 0.68506 0.52824 0.30539 0.57776 7.6347 3.0209a6.8549 6.8549 0 0 1-3.0209 0.58602c-1.4444 0-3.3758-1.1143-4.3497-1.6342s-1.007 0.12381-0.3384 0.57776 3.7555 1.6425 2.666 2.2285c-0.91617 0.49523-4.9688 0.59427-6.9084 1.073-1.2216 0.30539-0.60252 0.89966 0.05778 0.82538 0.66855-0.08254 6.3471-0.553 6.6773 0.11555 0.28888 0.57776-4.4158 3.2025-6.2811 4.8697-1.1308 1.007 0.05778 1.1555 0.57776 0.73458 0.51999-0.4292 6.7268-4.6716 7.5687-3.9948 0.70157 0.56126-1.2876 5.1916-2.1047 7.3128-0.45396 1.1885 0.48697 0.91617 0.73458 0.39618s3.4996-7.0322 4.1021-6.9414c0.52824 0.08254 0.34666 4.325 0.37142 5.2576 0.02476 0.93268 0.51999 0.58602 0.60252 0.04952 0.34666-2.278 0.83363-6.5782 1.2381-6.8506 0.50348-0.3384 5.3732-2.765 5.1173-4.4488-0.24761-1.6755-3.9453-3.5244-6.5452-4.2754s7.0487 2.0965 9.401-1.4279c2.3523-3.5244 2.765-4.0278 2.765-4.0278z" fill="url(#linear-gradient-4-2)"/>
   </g>
   <g fill="#6bb828" stroke-width=".82538">
    <circle cx="96.81" cy="38.143" r="1.0317"/>
    <circle cx="57.91" cy="24.12" r="1.0317"/>
    <circle cx="31.192" cy="57.952" r="1.0317"/>
    <circle cx="29.855" cy="63.729" r="1.0317"/>
    <circle cx="31.911" cy="68.228" r="1.0317"/>
    <circle cx="63.861" cy="84.257" r="1.0317"/>
    <circle cx="59.198" cy="88.59" r="1.0317"/>
    <circle cx="60.171" cy="94.656" r="1.0317"/>
    <circle cx="66.568" cy="98.659" r="1.0317"/>
    <circle cx="72.09" cy="97.248" r="1.0317"/>
    <circle cx="40.841" cy="59.817" r="1.0317"/>
    <circle cx="62.689" cy="22.172" r="1.0317"/>
    <circle cx="66.51" cy="24.26" r="1.0317"/>
    <circle cx="68.673" cy="27.982" r="1.0317"/>
    <circle cx="55.789" cy="30.483" r="1.0317"/>
    <circle cx="35.509" cy="56.26" r="1.0317"/>
    <circle cx="101.04" cy="36.88" r="1.0317"/>
    <circle cx="105.48" cy="40.734" r="1.0317"/>
    <circle cx="105.52" cy="46.504" r="1.0317"/>
    <circle cx="93.294" cy="44.275" r="1.0317"/>
   </g>
   <g stroke-width=".82538">
    <path d="m120.76 96.447a6.0588 6.0588 0 0 0-1.8488-2.4514 5.8406 5.8406 0 0 0-2.4514-1.1555 6.0766 6.0766 0 0 0-2.278-0.03302 6.3839 6.3839 0 0 0-1.6508 0.51999 6.3069 6.3069 0 0 0-0.95743 0.56951c-0.20635 0.15682-0.31365 0.23936-0.31365 0.23936a0.32323 0.32323 0 0 0-0.066 0.43745 0.3294 0.3294 0 0 0 0.45839 0.08307l0.0121-0.0087s0.0991-0.06603 0.28888-0.19809a5.9226 5.9226 0 0 1 0.8749-0.4457 5.6782 5.6782 0 0 1 1.4692-0.37142 5.1384 5.1384 0 0 1 1.9149 0.14031 4.7446 4.7446 0 0 1 1.9726 1.073 4.8364 4.8364 0 0 1 1.3619 2.0469 4.687 4.687 0 0 1 0.0908 2.5752 7.2384 7.2384 0 0 1-1.139 2.5257 8.6991 8.6991 0 0 1-8.881 3.5821c-0.15682-0.033-0.31364-0.0825-0.47047-0.1238a17.311 17.311 0 0 1-2.7402-1.7085c-2.8393-2.212-4.1847-5.8189-4.9605-9.3268-0.86664-3.9288-1.659-7.7173-2.864-11.564-0.70157-2.2368-1.4774-4.457-2.3606-6.636-0.71808-1.7746-1.5269-3.5656-2.4018-5.3402a62.948 62.948 0 0 0-3.706-6.5783 42.93 42.93 0 0 0-7.0487-8.5014 35.851 35.851 0 0 0-3.351-2.6825 33.871 33.871 0 0 0-8.196-4.325 26.393 26.393 0 0 0-5.2742-1.3206 49.239 49.239 0 0 1-8.295-1.8241 12.757 12.757 0 0 1-5.5713-3.1694 6.1516 6.1516 0 0 1-1.7993-4.9523c0.2146-2.3193 0.59427-4.4323 0.18158-6.9992a15.977 15.977 0 0 0-1.0647-3.6812c-0.07428-0.18158-0.18984-0.37967-0.28888-0.57776-1.172-2.2615-3.9536-5.464-6.7681-8.3115 1.4939 3.9866 1.8241 8.1712-0.26412 12.364 0 0.86664-2.5999 2.5999-5.1999 1.7333-5.2989-2.1212-7.3541-7.1643-7.7585-12.537-0.97394 4.4158-1.56 10.086-0.70982 14.411 1.3371 6.7763 5.2824 9.6404 7.4449 11.275 1.6012 1.2133 1.8901 1.8901 4.4983 4.3332 1.4939 1.3949 2.6495 6.7763 3.6069 8.6334a29.769 29.769 0 0 0 5.0843 7.4449c0.31364 0.31364 0.63554 0.61078 0.97394 0.89141a24.893 24.893 0 0 0 6.4627 3.8297 38.526 38.526 0 0 0 4.3993 1.5269c1.7993 0.51999 3.6317 0.94093 5.464 1.3371 1.7333 0.37967 3.6234 0.75109 5.5383 1.1968a32.325 32.325 0 0 1 8.2455 2.9301 14.141 14.141 0 0 1 3.7142 2.8888 30.01 30.01 0 0 1 4.7129 6.9662 59.354 59.354 0 0 0 3.8297 7.5852 39.31 39.31 0 0 0 6.9497 8.0227 30.756 30.756 0 0 0 4.2259 3.2272 13.477 13.477 0 0 0 8.1052 1.9479c0.24761-0.0248 0.49522-0.0578 0.74284-0.1073l0.18983-0.033 0.19809-0.0413 0.33841-0.0825a11.342 11.342 0 0 0 1.5187-0.51999 10.769 10.769 0 0 0 4.9358-4.2837 8.7518 8.7518 0 0 0 1.1803-3.1447 5.9749 5.9749 0 0 0-0.30539-3.3015z" fill="url(#linear-gradient-5-6)"/>
    <path d="m37.193 32.052c2.5999 0.86664 5.1999-0.86664 5.1999-1.7333 2.0965-4.1847 1.7581-8.3693 0.26412-12.364-3.1777-3.2107-6.3967-5.9675-7.4036-6.3719a2.5861 2.5861 0 0 0-3.4425 1.235l-0.02408 0.05254c-0.71808 0.85839-1.6342 3.4171-2.3441 6.636 0.39618 5.3897 2.4514 10.425 7.7503 12.546z" fill="#aed581"/>
    <path d="m29.434 32.588a4.6056 4.6056 0 1 1 4.6056-4.6056 4.6056 4.6056 0 0 1-4.6056 4.6056z" fill="#fff"/>
    <path d="m29.434 23.938a4.0443 4.0443 0 1 1-4.0443 4.0443 4.0403 4.0403 0 0 1 4.0363-4.0443h8e-3m0-1.1308a5.1669 5.1669 0 1 0 5.1669 5.1669 5.1669 5.1669 0 0 0-5.1669-5.1669z" fill="#b3b3b3"/>
    <circle cx="28.32" cy="26.084" r="1.9726"/>
    <path d="m45.183 26.356a4.6056 4.6056 0 1 1 4.6056-4.6056 4.6075 4.6075 0 0 1-4.6056 4.6056z" fill="#fff"/>
    <path d="m45.174 17.706a4.0443 4.0443 0 1 1-4.0443 4.0443 4.0403 4.0403 0 0 1 4.0363-4.0443h8e-3m0-1.1225a5.1669 5.1669 0 1 0 5.1669 5.1669 5.1669 5.1669 0 0 0-5.1669-5.1669z" fill="#b3b3b3"/>
    <circle cx="45.43" cy="19.77" r="1.9726"/>
    <path d="m42.913 36.244s0.09079 0.33015 0.27237 0.94093c0.17333 0.64379 0.4457 1.4362 0.81712 2.4926a22.44 22.44 0 0 0 1.6425 3.5986 19.901 19.901 0 0 0 3.0704 3.9866 44.451 44.451 0 0 0 4.7789 4.0609c0.89966 0.67681 1.8901 1.4362 2.831 2.0717l0.75935 0.52824 0.73458 0.46221c0.47872 0.31364 0.99045 0.61903 1.5352 0.92442a76.342 76.342 0 0 0 6.8259 3.4583c2.4101 1.0895 4.911 2.1625 7.4036 3.3428a71.248 71.248 0 0 1 7.3458 3.9123l0.4457 0.27237 0.24761 0.15682 0.20634 0.14031c0.28063 0.19809 0.5365 0.35491 0.83363 0.58602 0.59427 0.43745 1.139 0.8749 1.6755 1.3206a29.985 29.985 0 0 1 2.9218 2.8641 42.306 42.306 0 0 1 7.3624 12.273 62.336 62.336 0 0 1 2.9218 9.5331c0.26412 1.172 0.4292 2.0965 0.5365 2.7237 0.1073 0.63554 0.16508 0.96569 0.16508 0.96569a0.14602 0.14602 0 0 1-0.11555 0.16508 0.15524 0.15524 0 0 1-0.15682-0.09079s-0.4457-1.2876-1.2876-3.5078a81.559 81.559 0 0 0-3.9701-8.9141 50.646 50.646 0 0 0-3.2933-5.53 37.459 37.459 0 0 0-4.457-5.464 26.579 26.579 0 0 0-2.732-2.4431c-0.48697-0.37967-0.99045-0.74284-1.4857-1.0647-0.2311-0.16508-0.54475-0.34666-0.81712-0.51999l-0.2146-0.13206-0.18158-0.1073-0.42094-0.23936a64.832 64.832 0 0 0-7.0735-3.5078c-4.9192-2.1212-10.07-4.0939-14.7-6.7021-0.57776-0.31364-1.1473-0.6603-1.7168-1.0235l-0.84188-0.5365-0.75935-0.52824c-1.0895-0.74284-2.0057-1.4444-2.9796-2.1625a42.412 42.412 0 0 1-5.1999-4.5066 21.919 21.919 0 0 1-3.5574-4.9027 25.841 25.841 0 0 1-1.7828-4.2589c-0.38793-1.1968-0.62729-2.2038-0.75935-2.798-0.14031-0.61903-0.2146-0.95744-0.2146-0.95744a1.7503 1.7503 0 0 1 3.384-0.88315z" fill="url(#linearGradient8879)"/>
   </g>
  </g>
 </g>
</svg>
