<?xml version="1.0" encoding="UTF-8"?>
<!-- Created with Inkscape (http://www.inkscape.org/) -->
<svg width="275mm" height="50mm" version="1.1" viewBox="0 0 275 50" xmlns="http://www.w3.org/2000/svg">
 <rect y="7.5199e-14" width="50" height="50" fill="#ffb000" stroke-opacity="0"/>
 <g fill="#648fff" stroke-opacity="0">
  <rect y="7.5199e-14" width="5" height="5"/>
  <rect x="10" y="30" width="5" height="5"/>
  <rect x="40" y="35" width="5" height="5"/>
  <rect x="35" y="15" width="5" height="5"/>
 </g>
 <rect x="75" y="7.5199e-14" width="50" height="50" fill="#ffb000" stroke-opacity="0"/>
 <g fill="#648fff" stroke-opacity="0">
  <rect x="75" y="7.5199e-14" width="10" height="10"/>
  <rect x="85" y="30" width="10" height="10"/>
  <rect x="115" y="30" width="5" height="10"/>
  <rect x="110" y="10" width="5" height="10"/>
  <rect x="75" y="5" width="5" height="10"/>
  <rect x="80" y="5" width="10" height="5"/>
  <rect x="105" y="15" width="10" height="5"/>
  <rect x="115" y="35" width="5" height="10"/>
  <rect x="105" y="15" width="10" height="10"/>
  <rect x="110" y="15" width="10" height="5"/>
  <rect x="110" y="35" width="10" height="5"/>
  <rect x="90" y="35" width="5" height="10"/>
 </g>
 <g stroke-opacity="0">
  <rect x="150" y="7.5199e-14" width="50" height="50" fill="#ffb000"/>
  <g transform="translate(-200,-125)" fill="#648fff">
   <rect x="350" y="125" width="20" height="10"/>
   <rect x="360" y="150" width="15" height="15"/>
   <rect x="390" y="155" width="5" height="10"/>
   <rect x="385" y="135" width="5" height="10"/>
   <rect x="350" y="130" width="10" height="15"/>
   <rect x="355" y="130" width="15" height="10"/>
   <rect x="380" y="140" width="10" height="5"/>
   <rect x="390" y="160" width="10" height="15"/>
   <rect x="375" y="140" width="15" height="15"/>
   <rect x="385" y="130" width="15" height="20"/>
   <rect x="385" y="150" width="10" height="15"/>
   <rect x="360" y="160" width="15" height="15"/>
   <rect x="355" y="150" width="10" height="20"/>
   <rect x="390" y="155" width="10" height="10"/>
   <rect x="385" y="160" width="10" height="10"/>
   <rect x="380" y="145" width="15" height="10"/>
  </g>
  <rect x="195" y="7.5199e-14" width="5" height="10" fill="#ffb000"/>
 </g>
 <g fill="#648fff" stroke-opacity="0">
  <rect x="180" y="25" width="10" height="20"/>
  <rect x="185" y="40" width="10" height="10"/>
  <rect x="180" y="10" width="10" height="10"/>
  <rect x="170" y="25" width="15" height="5"/>
  <rect x="225" y="7.5199e-14" width="50" height="50"/>
 </g>
 <g fill="#666">
  <path d="m66.569 24.047-11.569 0.26268 0.01849 1.826 11.568-0.26013z" color="#000000" stroke-width="1.0601" style="-inkscape-stroke:none"/>
  <path d="m69.358 24.898-4.1323 3.7501-0.07193-7.3114z" color="#000000" fill-rule="evenodd" stroke-width=".59364pt" style="-inkscape-stroke:none"/>
  <path d="m64.825 20.5 0.08909 9 5.0863-4.616-0.48577-0.4106zm0.6589 1.673 3.234 2.739-3.1785 2.8844z" color="#000000" fill-rule="evenodd" stroke-width="1.0601" style="-inkscape-stroke:none"/>
  <path d="m141.57 24.047-11.569 0.26268 0.0185 1.826 11.568-0.26013z" color="#000000" stroke-width="1.0601" style="-inkscape-stroke:none"/>
  <path d="m144.36 24.898-4.1323 3.7501-0.0719-7.3114z" color="#000000" fill-rule="evenodd" stroke-width=".59364pt" style="-inkscape-stroke:none"/>
  <path d="m139.82 20.5 0.0891 9 5.0863-4.616-0.48577-0.4106zm0.6589 1.673 3.234 2.739-3.1785 2.8844z" color="#000000" fill-rule="evenodd" stroke-width="1.0601" style="-inkscape-stroke:none"/>
  <path d="m216.57 24.047-11.569 0.26268 0.0185 1.826 11.568-0.26013z" color="#000000" stroke-width="1.0601" style="-inkscape-stroke:none"/>
  <path d="m219.36 24.898-4.1323 3.7501-0.0719-7.3114z" color="#000000" fill-rule="evenodd" stroke-width=".59364pt" style="-inkscape-stroke:none"/>
  <path d="m214.82 20.5 0.0891 9 5.0863-4.616-0.48577-0.4106zm0.6589 1.673 3.234 2.739-3.1785 2.8844z" color="#000000" fill-rule="evenodd" stroke-width="1.0601" style="-inkscape-stroke:none"/>
 </g>
</svg>
