<?xml version="1.0" encoding="UTF-8"?>
<!-- Created with Inkscape (http://www.inkscape.org/) -->
<svg width="415.64mm" height="493.79mm" version="1.1" viewBox="0 0 415.64 493.79" xmlns="http://www.w3.org/2000/svg" xmlns:xlink="http://www.w3.org/1999/xlink">
 <defs>
  <linearGradient id="linear-gradient-1" x1="205.45" x2="218.79" y1="617.74" y2="599.78" gradientTransform="rotate(14.573 2375.9 -345.55)" gradientUnits="userSpaceOnUse">
   <stop stop-color="#13630f" offset="0"/>
   <stop stop-color="#2a7915" offset=".1391"/>
   <stop stop-color="#59a623" offset=".457"/>
   <stop stop-color="#6bb828" offset=".6158"/>
  </linearGradient>
  <linearGradient id="linear-gradient-4-7" x1="66.255" x2="53.119" y1="795.19" y2="821.73" gradientTransform="translate(-4.18 -717.55)" gradientUnits="userSpaceOnUse">
   <stop stop-color="#134e0f" offset="0"/>
   <stop stop-color="#357719" offset=".2097"/>
   <stop stop-color="#5ca624" offset=".4804"/>
   <stop stop-color="#6bb828" offset=".6158"/>
  </linearGradient>
  <linearGradient id="linear-gradient-5-4" x1="9.8108" x2="109.67" y1="715.42" y2="845.35" gradientTransform="translate(-4.18 -717.55)" gradientUnits="userSpaceOnUse">
   <stop stop-color="#4aba00" offset=".2397"/>
   <stop stop-color="#49b802" offset=".2683"/>
   <stop stop-color="#2e7d32" offset="1"/>
  </linearGradient>
  <linearGradient id="linear-gradient-6-5" x1="25.16" x2="94.433" y1="747.27" y2="820.74" gradientTransform="translate(-4.18 -717.55)" gradientUnits="userSpaceOnUse">
   <stop stop-color="#c5e1a5" offset=".0169"/>
   <stop stop-color="#c1dea1" offset=".1983"/>
   <stop stop-color="#b6d595" offset=".3788"/>
   <stop stop-color="#a3c781" offset=".5591"/>
   <stop stop-color="#88b265" offset=".7392"/>
   <stop stop-color="#669841" offset=".9176"/>
   <stop stop-color="#558b2f" offset=".9969"/>
  </linearGradient>
  <linearGradient id="linearGradient20794" x1="205.45" x2="218.79" y1="617.74" y2="599.78" gradientTransform="rotate(14.573 2375.9 -345.55)" gradientUnits="userSpaceOnUse" xlink:href="#linear-gradient-1"/>
  <linearGradient id="linearGradient20796" x1="32.084" x2="16.132" y1="772.52" y2="793.38" gradientTransform="translate(-4.18 -717.55)" xlink:href="#linear-gradient-1"/>
  <linearGradient id="linearGradient20798" x1="73.64" x2="102.73" y1="770.65" y2="770.65" gradientTransform="translate(-4.18 -717.55)" xlink:href="#linear-gradient-1"/>
  <linearGradient id="linearGradient20800" x1="66.255" x2="53.119" y1="795.19" y2="821.73" gradientTransform="translate(-4.18 -717.55)" gradientUnits="userSpaceOnUse" xlink:href="#linear-gradient-4-7"/>
  <linearGradient id="linearGradient20802" x1="9.8108" x2="109.67" y1="715.42" y2="845.35" gradientTransform="translate(-4.18 -717.55)" gradientUnits="userSpaceOnUse" xlink:href="#linear-gradient-5-4"/>
  <linearGradient id="linearGradient20804" x1="25.16" x2="94.433" y1="747.27" y2="820.74" gradientTransform="translate(-4.18 -717.55)" gradientUnits="userSpaceOnUse" xlink:href="#linear-gradient-6-5"/>
  <linearGradient id="linearGradient22710" x1="25.16" x2="94.433" y1="745.16" y2="818.63" gradientTransform="matrix(1.1312 0 0 1.1312 933.89 -748.74)" gradientUnits="userSpaceOnUse">
   <stop stop-color="#c5e1a5" offset=".0169"/>
   <stop stop-color="#c1dea1" offset=".1983"/>
   <stop stop-color="#b6d595" offset=".3788"/>
   <stop stop-color="#a3c781" offset=".5591"/>
   <stop stop-color="#88b265" offset=".7392"/>
   <stop stop-color="#669841" offset=".9176"/>
   <stop stop-color="#558b2f" offset=".9969"/>
  </linearGradient>
  <linearGradient id="linearGradient26397" x1="9.8108" x2="94.08" y1="715.42" y2="856.33" gradientTransform="translate(-4.18 -717.55)" gradientUnits="userSpaceOnUse" xlink:href="#linear-gradient-5-4"/>
  <linearGradient id="linearGradient26399" x1="25.16" x2="83.213" y1="747.27" y2="828.16" gradientTransform="translate(-4.18 -717.55)" gradientUnits="userSpaceOnUse">
   <stop stop-color="#c5e1a5" offset=".0169"/>
   <stop stop-color="#c1dea1" offset=".1983"/>
   <stop stop-color="#b6d595" offset=".3788"/>
   <stop stop-color="#a3c781" offset=".5591"/>
   <stop stop-color="#88b265" offset=".7392"/>
   <stop stop-color="#558b2f" offset=".9969"/>
  </linearGradient>
 </defs>
 <g transform="translate(-63.491 -56.333)">
  <rect x="63.491" y="56.333" width="160" height="160" fill-opacity="0" stroke-opacity="0"/>
  <g transform="matrix(1.1312 0 0 1.1312 75.757 67.828)">
   <path transform="translate(0 -.00187)" d="m117.26 105.12a7.3407 7.3407 0 0 0-2.24-2.97 7.0762 7.0762 0 0 0-2.97-1.4 7.3622 7.3622 0 0 0-2.76-0.04 7.7347 7.7347 0 0 0-2 0.63 7.6412 7.6412 0 0 0-1.16 0.69c-0.25 0.19-0.38 0.29-0.38 0.29a0.3916 0.3916 0 0 0-0.08 0.53 0.39908 0.39908 0 0 0 0.55537 0.10064l0.0146-0.0106s0.12-0.08 0.35-0.24a7.1756 7.1756 0 0 1 1.06-0.54 6.8804 6.8804 0 0 1 1.78-0.45 6.2255 6.2255 0 0 1 2.32 0.17 5.7483 5.7483 0 0 1 2.39 1.3 5.8594 5.8594 0 0 1 1.65 2.48 5.6782 5.6782 0 0 1 0.11 3.12 8.7696 8.7696 0 0 1-1.38 3.06 10.54 10.54 0 0 1-10.76 4.34c-0.19-0.04-0.38-0.1-0.57-0.15a20.972 20.972 0 0 1-3.32-2.07c-3.44-2.68-5.07-7.05-6.01-11.3-1.05-4.76-2.01-9.35-3.47-14.01-0.85-2.71-1.79-5.4-2.86-8.04-0.87-2.15-1.85-4.32-2.91-6.47a76.27 76.27 0 0 0-4.49-7.97c-0.35-0.54-0.73-1.07-1.1-1.6a33.32 33.32 0 0 0-0.48-5.63c-0.81-4.68 0.1-5.41 2.56-5.71 2.18-0.26 8.91 2.02 10.97 0.2 1.57-1.38 1.53-2.42 1.62-4.38 0.13-2.69 2.72-3.41 4.07-3.7a1.2914 1.2914 0 0 0 0.8 0.49 1.256 1.256 0 1 0-1.04-1.44 1.3422 1.3422 0 0 0 0.01 0.2 3.3229 3.3229 0 0 1-2.61-0.98c-0.44-0.68 1.85-3.5 3.08-4.98a1.4624 1.4624 0 0 0 0.51 0.22 1.256 1.256 0 1 0-1.04-1.44 1.2414 1.2414 0 0 0 0.07 0.61c-1.14 1.13-3.37 3.31-3.98 3.18-0.73-0.16-0.22-4.84 0.05-7.04a1.239 1.239 0 0 0 0.95-1.02 1.256 1.256 0 1 0-2.48-0.4 1.2416 1.2416 0 0 0 0.73 1.32c-0.49 2.21-1.44 6.9-1.99 7.03-0.59 0.15-1.42-3.36-1.93-5.59a1.2303 1.2303 0 0 0 0.55-0.84 1.256 1.256 0 1 0-1.44 1.04h0.05c0.3 2.11 0.63 5.44 0.32 6-0.37 0.66-2.04 0.55-3.19 0.37a1.2538 1.2538 0 1 0-1.44 1.07 1.2225 1.2225 0 0 0 1.04-0.34c1.69 0.74 3.55 1.61 3.99 3.07a2.1831 2.1831 0 0 1-1.32 2.74s-9.33-0.36-12.43 0.53c-2.11 0.6-2.12 4.87-1.96 8.21-0.5-0.5-0.99-1.02-1.51-1.49a43.44 43.44 0 0 0-4.06-3.25 41.036 41.036 0 0 0-9.93-5.24 31.977 31.977 0 0 0-6.39-1.6c-0.89-0.13-1.8-0.27-2.72-0.43a10.838 10.838 0 0 0 1.08-5.35c-0.09-3.7-1.46-9.8 0.06-12.69a14.852 14.852 0 0 1 3.68-4.23 1.1886 1.1886 0 0 0 0.63 0.32 1.256 1.256 0 1 0-1.04-1.44 1.1821 1.1821 0 0 0 0.13 0.72c-1.12 0.91-2.61 1.68-3.32 1.12-0.8-0.62 0.64-3.47 1.42-4.99a1.0658 1.0658 0 0 0 0.19 0.07 1.256 1.256 0 1 0-1.04-1.44 1.2293 1.2293 0 0 0 0.39 1.09c-0.71 1.61-2.11 4.59-2.97 4.04-0.54-0.35-0.13-4.05-0.29-6.33a1.2335 1.2335 0 0 0 0.73-0.92 1.256 1.256 0 1 0-1.44 1.04c0.06 1.89 0.05 5.99-0.92 6.35-0.91 0.34-2.37-1.9-3.76-4.41a1.1954 1.1954 0 0 0 0.32-0.62 1.256 1.256 0 1 0-1.44 1.04 1.1994 1.1994 0 0 0 0.5-0.02c0.85 1.4 2.89 4.88 2.13 5.87-0.35 0.46-2.24 0.39-3.79 0.37a1.2335 1.2335 0 0 0-1.02-0.99 1.2561 1.2561 0 1 0 0.88 1.86c1.64 0.62 3.78 1.71 4.41 2.86 1.36 2.45 3.57 10.91-0.64 13.38a20.24 20.24 0 0 1-2.74 1.33 14.841 14.841 0 0 1-6.21-3.65 7.4531 7.4531 0 0 1-2.18-6c0.26-2.81 0.72-5.37 0.22-8.48a19.357 19.357 0 0 0-1.29-4.46c-0.09-0.22-0.23-0.46-0.35-0.7-1.42-2.74-4.79-6.62-8.2-10.07-3.85-3.89-7.75-7.23-8.97-7.72a3.1333 3.1333 0 0 0-4.1708 1.4963l-0.02918 0.06366c-0.87 1.04-1.98 4.14-2.84 8.04-1.18 5.35-1.89 12.22-0.86 17.46 1.62 8.21 6.4 11.68 9.02 13.66 1.94 1.47 2.29 2.29 5.45 5.25 1.81 1.69 3.21 8.21 4.37 10.46 0.59 1.15 1.23 2.31 1.93 3.46l-0.17 2.65s-0.2 5.34-1.27 7.47a8.2836 8.2836 0 0 1-2.14 2.9s-3.66-5.41-3.05-9.52a36.157 36.157 0 0 1 0.72-3.74 1.2407 1.2407 0 0 0 1.06-1.03 1.256 1.256 0 0 0-2.48-0.4 1.2274 1.2274 0 0 0 0.69 1.3c-0.23 1.18-0.63 2.81-1.61 2.78-1.24-0.04-2.98-4.9-3.73-7.1a1.2244 1.2244 0 1 0-0.77 0.15c0.04 0.01 0.07-0.01 0.1 0 0.8 2 2.62 6.42 1.73 6.89-0.83 0.44-4.02-3.34-5.81-5.4a1.3364 1.3364 0 1 0-0.67 0.5c1.44 1.48 5.46 5.77 4.83 6.69-0.55 0.81-3.68-0.11-5.59-0.85a1.2412 1.2412 0 0 0-1.03-1.26 1.2561 1.2561 0 1 0 0.82 1.95c1.84 0.63 5.29 1.65 5.14 2.64-0.13 0.89-1.24 0.96-2.64 1.4a1.245 1.245 0 1 0 0.21 0.9v-0.06c1.56-0.38 4.34-0.82 5.9 0.9 1.96 2.15 5.83 10.96 7.89 9.96 1.8-0.87 6.14-10.1 8.14-12.44a30.932 30.932 0 0 0 6.98 3.99 46.68 46.68 0 0 0 5.33 1.85c2.18 0.63 4.4 1.14 6.62 1.62 1.62 0.36 3.36 0.7 5.13 1.1-2.26 1.27-7.62 4.36-8.89 5.79-1.63 1.83-0.61 3.05 0.71 4.07 0.83 0.64 0.37 0.7 9.25 3.66a8.3052 8.3052 0 0 1-3.66 0.71c-1.51 0-3.45-1-4.72-1.68 0-0.02 0.01-0.03 0.02-0.05a1.256 1.256 0 1 0-1.44 1.04 1.2368 1.2368 0 0 0 1-0.29c1.28 0.66 3.83 1.79 2.7 2.4-1.07 0.57-5.65 0.71-8.09 1.24a1.2338 1.2338 0 0 0-0.85-0.58 1.256 1.256 0 0 0-0.4 2.48 1.2358 1.2358 0 0 0 1.37-0.87c1.59-0.15 7.39-0.57 7.76 0.17 0.34 0.67-4.9 3.63-7.32 5.65a1.7053 1.7053 0 0 0-0.24-0.09 1.256 1.256 0 1 0 1.04 1.44 1.1454 1.1454 0 0 0-0.02-0.49c1.65-1.18 7.87-5.3 8.79-4.56 0.82 0.65-1.35 5.78-2.41 8.49a1.248 1.248 0 1 0 1.38 1.43 1.2293 1.2293 0 0 0-0.39-1.09c0.94-1.89 4.07-7.99 4.71-7.89 0.59 0.09 0.45 4.46 0.45 6.03a1.2428 1.2428 0 0 0-0.56 0.84 1.256 1.256 0 1 0 1.44-1.04h-0.06c0.42-2.85 0.96-7.39 1.42-7.7 0.61-0.41 6.51-3.35 6.2-5.39-0.31-2.03-4.78-4.27-7.93-5.18s8.54 2.54 11.39-1.73c0.39-0.58 0.72-1.08 1.03-1.53a15.042 15.042 0 0 1 2.38 2.13 36.359 36.359 0 0 1 5.71 8.44 71.907 71.907 0 0 0 4.64 9.19 47.627 47.627 0 0 0 8.42 9.72 37.265 37.265 0 0 0 5.12 3.91 16.329 16.329 0 0 0 9.82 2.36c0.3-0.03 0.6-0.07 0.9-0.13l0.23-0.04 0.24-0.05 0.41-0.1a13.739 13.739 0 0 0 1.84-0.63 13.047 13.047 0 0 0 5.98-5.19 10.603 10.603 0 0 0 1.43-3.81 7.1202 7.1202 0 0 0-0.36-3.99z" fill="none" stroke="#2e7d32" stroke-linecap="round" stroke-linejoin="round" stroke-width="4px"/>
   <path transform="translate(0 -.00187)" d="m40.73 18.152c0.3 0.52 3.37 5.25 2.46 6.43-0.47 0.61-3.62 0.28-5.12 0.39a0.22377 0.22377 0 0 0-0.04 0.44c1.53 0.4 4.83 1.79 5.64 3.26 1.36 2.45 3.57 10.91-0.64 13.38a25.6 25.6 0 0 1-9.08 3l-0.87 3.76 7.16 1.13 7.73-4.29a10.112 10.112 0 0 0 1.26-5.66c-0.09-3.7-1.46-9.8 0.06-12.69 1.46-2.79 4.33-4.63 4.55-5.01 0.22-0.37-0.2-0.51-0.41-0.28-1.08 1.12-3.18 2.49-4.07 1.8-1.01-0.78 1.59-5.18 1.85-5.87s-0.19-0.96-0.49-0.32-2.28 5.66-3.37 4.95c-0.65-0.42 0.07-5.64-0.46-7.48-0.29-1.02-0.61-0.18-0.58 0.36s0.33 6.82-0.88 7.26c-0.96 0.36-2.52-2.15-3.98-4.81-0.62-1.14-1.27-0.73-0.72 0.25z" fill="url(#linearGradient20794)"/>
   <path transform="translate(0 -.00187)" d="m26.01 64.862s-0.2 5.34-1.27 7.47a8.2836 8.2836 0 0 1-2.14 2.9s-3.66-5.41-3.05-9.52a23.57 23.57 0 0 1 1.03-4.74c0.19-0.58-0.57-0.8-0.8-0.19-0.24 0.61-0.47 3.9-1.84 3.85-1.5-0.05-3.76-7.24-4.06-8.08s-0.92-0.57-0.68 0.23 3.15 7.2 2.07 7.78c-0.94 0.5-4.91-4.43-6.45-6.11-0.47-0.52-1.3-0.18-0.54 0.71 0 0 6.1 6.09 5.34 7.2-0.66 0.96-5-0.53-6.56-1.25-0.51-0.24-0.95 0.15-0.32 0.64 0.63 0.5 6.4 1.81 6.21 3.09-0.15 0.99-1.52 0.96-3.17 1.58-1.07 0.4-1.18 1.15-0.2 0.9s4.87-1.5 6.83 0.66 5.83 10.96 7.89 9.96 7.46-12.96 8.84-12.98c0.94-0.01-6.73-10.5-6.73-10.5z" fill="url(#linearGradient20796)"/>
   <path transform="translate(0 -.00187)" d="m69.46 61.442s3.35 1.73 3.46-0.51c0.1-2.24-1.26-10.9 1.8-11.77 3.1-0.89 12.43-0.53 12.43-0.53a2.1832 2.1832 0 0 0 1.32-2.74c-0.5-1.67-2.84-2.56-4.67-3.37-0.4-0.18-0.55-0.82 0.08-0.63s3.67 0.75 4.18-0.16c0.42-0.76-0.33-6.61-0.6-7.62s0.47-1.11 0.71-0.3c0.25 0.81 1.51 7.51 2.32 7.3 0.68-0.17 2.01-7.43 2.25-8.12 0.25-0.69 0.71-0.54 0.66 0.1s-1.09 7.92-0.17 8.12c0.72 0.16 3.76-2.98 4.5-3.69s1.03-0.25 0.66 0.25c-0.37 0.49-4.38 4.98-3.81 5.86 0.54 0.84 2.39 1.18 3.32 0.89 0.93-0.3 0.64 0.45 0.3 0.66-0.34 0.22-4.67 0.39-4.85 3.89-0.1 1.96-0.05 3-1.62 4.38-2.07 1.82-8.79-0.46-10.97-0.2-2.46 0.3-3.37 1.03-2.56 5.71s0.7 10.86-1.23 12.89-2.54 1.8-2.54 1.8z" fill="url(#linearGradient20798)"/>
   <path transform="translate(0 -.00187)" d="m57.51 77.482s-8.29 4.53-9.91 6.36-0.61 3.05 0.71 4.07c0.83 0.64 0.37 0.7 9.25 3.66a8.3052 8.3052 0 0 1-3.66 0.71c-1.75 0-4.09-1.35-5.27-1.98s-1.22 0.15-0.41 0.7 4.55 1.99 3.23 2.7c-1.11 0.6-6.02 0.72-8.37 1.3-1.48 0.37-0.73 1.09 0.07 1 0.81-0.1 7.69-0.67 8.09 0.14 0.35 0.7-5.35 3.88-7.61 5.9-1.37 1.22 0.07 1.4 0.7 0.89 0.63-0.52 8.15-5.66 9.17-4.84 0.85 0.68-1.56 6.29-2.55 8.86-0.55 1.44 0.59 1.11 0.89 0.48s4.24-8.52 4.97-8.41c0.64 0.1 0.42 5.24 0.45 6.37s0.63 0.71 0.73 0.06c0.42-2.76 1.01-7.97 1.5-8.3 0.61-0.41 6.51-3.35 6.2-5.39-0.3-2.03-4.78-4.27-7.93-5.18s8.54 2.54 11.39-1.73 3.35-4.88 3.35-4.88z" fill="url(#linearGradient20800)"/>
   <g fill="#6bb828">
    <circle cx="87.89" cy="34.48" r="1.25"/>
    <circle cx="40.76" cy="17.49" r="1.25"/>
    <circle cx="8.39" cy="58.48" r="1.25"/>
    <circle cx="6.77" cy="65.48" r="1.25"/>
    <circle cx="9.26" cy="70.93" r="1.25"/>
    <circle cx="47.97" cy="90.35" r="1.25"/>
    <circle cx="42.32" cy="95.6" r="1.25"/>
    <circle cx="43.5" cy="102.95" r="1.25"/>
    <circle cx="51.25" cy="107.8" r="1.25"/>
    <circle cx="57.94" cy="106.09" r="1.25"/>
    <circle cx="20.08" cy="60.74" r="1.25"/>
    <circle cx="46.55" cy="15.13" r="1.25"/>
    <circle cx="51.18" cy="17.66" r="1.25"/>
    <circle cx="53.8" cy="22.17" r="1.25"/>
    <circle cx="38.19" cy="25.2" r="1.25"/>
    <circle cx="13.62" cy="56.43" r="1.25"/>
    <circle cx="93.01" cy="32.95" r="1.25"/>
    <circle cx="98.39" cy="37.62" r="1.25"/>
    <circle cx="98.44" cy="44.61" r="1.25"/>
    <circle cx="83.63" cy="41.91" r="1.25"/>
   </g>
   <path transform="translate(0 -.00187)" d="m116.91 105.12a7.3407 7.3407 0 0 0-2.24-2.97 7.0763 7.0763 0 0 0-2.97-1.4 7.3622 7.3622 0 0 0-2.76-0.04 7.7346 7.7346 0 0 0-2 0.63 7.6413 7.6413 0 0 0-1.16 0.69c-0.25 0.19-0.38 0.29-0.38 0.29a0.39161 0.39161 0 0 0-0.08 0.53 0.39909 0.39909 0 0 0 0.55537 0.10064l0.0146-0.0106s0.12-0.08 0.35-0.24a7.1757 7.1757 0 0 1 1.06-0.54 6.8795 6.8795 0 0 1 1.78-0.45 6.2255 6.2255 0 0 1 2.32 0.17 5.7485 5.7485 0 0 1 2.39 1.3 5.8596 5.8596 0 0 1 1.65 2.48 5.6786 5.6786 0 0 1 0.11 3.12 8.7698 8.7698 0 0 1-1.38 3.06 10.54 10.54 0 0 1-10.76 4.34c-0.19-0.04-0.38-0.1-0.57-0.15a20.974 20.974 0 0 1-3.32-2.07c-3.44-2.68-5.07-7.05-6.01-11.3-1.05-4.76-2.01-9.35-3.47-14.01-0.85-2.71-1.79-5.4-2.86-8.04-0.87-2.15-1.85-4.32-2.91-6.47a76.266 76.266 0 0 0-4.49-7.97 52.012 52.012 0 0 0-8.54-10.3 43.436 43.436 0 0 0-4.06-3.25 41.037 41.037 0 0 0-9.93-5.24 31.977 31.977 0 0 0-6.39-1.6 59.656 59.656 0 0 1-10.05-2.21 15.456 15.456 0 0 1-6.75-3.84 7.4531 7.4531 0 0 1-2.18-6c0.26-2.81 0.72-5.37 0.22-8.48a19.357 19.357 0 0 0-1.29-4.46c-0.09-0.22-0.23-0.46-0.35-0.7-1.42-2.74-4.79-6.62-8.2-10.07 1.81 4.83 2.21 9.9-0.32 14.98 0 1.05-3.15 3.15-6.3 2.1-6.42-2.57-8.91-8.68-9.4-15.19-1.18 5.35-1.89 12.22-0.86 17.46 1.62 8.21 6.4 11.68 9.02 13.66 1.94 1.47 2.29 2.29 5.45 5.25 1.81 1.69 3.21 8.21 4.37 10.46a36.068 36.068 0 0 0 6.16 9.02c0.38 0.38 0.77 0.74 1.18 1.08a30.159 30.159 0 0 0 7.83 4.64 46.676 46.676 0 0 0 5.33 1.85c2.18 0.63 4.4 1.14 6.62 1.62 2.1 0.46 4.39 0.91 6.71 1.45a39.164 39.164 0 0 1 9.99 3.55 17.133 17.133 0 0 1 4.5 3.5 36.36 36.36 0 0 1 5.71 8.44 71.911 71.911 0 0 0 4.64 9.19 47.627 47.627 0 0 0 8.42 9.72 37.263 37.263 0 0 0 5.12 3.91 16.329 16.329 0 0 0 9.82 2.36c0.3-0.03 0.6-0.07 0.9-0.13l0.23-0.04 0.24-0.05 0.41-0.1a13.742 13.742 0 0 0 1.84-0.63 13.047 13.047 0 0 0 5.98-5.19 10.603 10.603 0 0 0 1.43-3.81 7.239 7.239 0 0 0-0.37-4z" fill="url(#linearGradient20802)"/>
   <path transform="translate(0 -.00187)" d="m15.66 27.102c3.15 1.05 6.3-1.05 6.3-2.1 2.54-5.07 2.13-10.14 0.32-14.98-3.85-3.89-7.75-7.23-8.97-7.72a3.1333 3.1333 0 0 0-4.1708 1.4963l-0.02918 0.06366c-0.87 1.04-1.98 4.14-2.84 8.04 0.48 6.53 2.97 12.63 9.39 15.2z" fill="#aed581"/>
   <path transform="translate(0 -.00187)" d="m6.26 27.752a5.58 5.58 0 1 1 5.58-5.58 5.58 5.58 0 0 1-5.58 5.58z" fill="#fff"/>
   <path transform="translate(0 -.00187)" d="m6.26 17.272a4.9 4.9 0 1 1-4.9 4.9 4.8951 4.8951 0 0 1 4.8903-4.9h0.00972m0-1.37a6.26 6.26 0 1 0 6.26 6.26 6.26 6.26 0 0 0-6.26-6.26z" fill="#b3b3b3"/>
   <circle cx="4.91" cy="19.87" r="2.39"/>
   <path transform="translate(0 -.00187)" d="m25.34 20.202a5.58 5.58 0 1 1 5.58-5.58 5.5822 5.5822 0 0 1-5.58 5.58z" fill="#fff"/>
   <path transform="translate(0 -.00187)" d="m25.33 9.7223a4.9 4.9 0 1 1-4.9 4.9 4.8952 4.8952 0 0 1 4.8903-4.9h0.00972m0-1.36a6.26 6.26 0 1 0 6.26 6.26 6.26 6.26 0 0 0-6.26-6.26z" fill="#b3b3b3"/>
   <circle cx="25.64" cy="12.22" r="2.39"/>
   <path transform="translate(0 -.00187)" d="m22.59 32.182s0.11 0.4 0.33 1.14c0.21 0.78 0.54 1.74 0.99 3.02a27.187 27.187 0 0 0 1.99 4.36 24.112 24.112 0 0 0 3.72 4.83 53.856 53.856 0 0 0 5.79 4.92c1.09 0.82 2.29 1.74 3.43 2.51l0.92 0.64 0.89 0.56c0.58 0.38 1.2 0.75 1.86 1.12a92.494 92.494 0 0 0 8.27 4.19c2.92 1.32 5.95 2.62 8.97 4.05a86.321 86.321 0 0 1 8.9 4.74l0.54 0.33 0.3 0.19 0.25 0.17c0.34 0.24 0.65 0.43 1.01 0.71 0.72 0.53 1.38 1.06 2.03 1.6a36.329 36.329 0 0 1 3.54 3.47 51.257 51.257 0 0 1 8.92 14.87 75.524 75.524 0 0 1 3.54 11.55c0.32 1.42 0.52 2.54 0.65 3.3 0.13 0.77 0.2 1.17 0.2 1.17a0.17691 0.17691 0 0 1-0.14 0.2 0.18808 0.18808 0 0 1-0.19-0.11s-0.54-1.56-1.56-4.25a98.814 98.814 0 0 0-4.81-10.8 61.362 61.362 0 0 0-3.99-6.7 45.384 45.384 0 0 0-5.4-6.62 32.202 32.202 0 0 0-3.31-2.96c-0.59-0.46-1.2-0.9-1.8-1.29-0.28-0.2-0.66-0.42-0.99-0.63l-0.26-0.16-0.22-0.13-0.51-0.29a78.548 78.548 0 0 0-8.57-4.25c-5.96-2.57-12.2-4.96-17.81-8.12-0.7-0.38-1.39-0.8-2.08-1.24l-1.02-0.65-0.92-0.64c-1.32-0.9-2.43-1.75-3.61-2.62a51.385 51.385 0 0 1-6.3-5.46 26.557 26.557 0 0 1-4.31-5.94 31.308 31.308 0 0 1-2.16-5.16c-0.47-1.45-0.76-2.67-0.92-3.39-0.17-0.75-0.26-1.16-0.26-1.16a2.1206 2.1206 0 0 1 4.1-1.07z" fill="url(#linearGradient20804)"/>
  </g>
  <path d="m239.88 136.33h48.657" color="#000000" fill="#808080" stroke-width="10" style="-inkscape-stroke:none"/>
  <path d="m239.88 131.33v10h48.656v-10z" color="#000000" fill="#999" style="-inkscape-stroke:none"/>
  <g fill="#999" fill-rule="evenodd">
   <path d="m300.08 136.33-17.3 10v-20z" color="#000000" stroke-width="2pt" style="-inkscape-stroke:none"/>
   <path d="m281.44 124.02v24.621l21.297-12.311-1.9961-1.1543zm2.666 4.6211 13.305 7.6894-13.305 7.6894z" color="#000000" style="-inkscape-stroke:none"/>
  </g>
  <rect x="319.13" y="56.333" width="160" height="160" fill-opacity="0" stroke-opacity="0"/>
  <g transform="translate(-607.22 7.2635)">
   <path d="m1071.3 179.48a8.3038 8.3038 0 0 0-2.5339-3.3597 8.0046 8.0046 0 0 0-3.3597-1.5837 8.3281 8.3281 0 0 0-3.1221-0.0452 8.7495 8.7495 0 0 0-2.2624 0.71266 8.6437 8.6437 0 0 0-1.3122 0.78053c-0.2828 0.21492-0.4299 0.32804-0.4299 0.32804a0.44296 0.44296 0 0 0-0.09 0.59954 0.45144 0.45144 0 0 0 0.6282 0.11384l0.016-0.012s0.1357-0.0905 0.3959-0.27149a8.117 8.117 0 0 1 1.1991-0.61084 7.7831 7.7831 0 0 1 2.0135-0.50904 7.0418 7.0418 0 0 1 2.6244 0.1923 6.5026 6.5026 0 0 1 2.7036 1.4706 6.6288 6.6288 0 0 1 1.8665 2.8054 6.4232 6.4232 0 0 1 0.1244 3.5294 9.9207 9.9207 0 0 1-1.5611 3.4615 11.923 11.923 0 0 1-12.172 4.9094c-0.2149-0.0453-0.4298-0.11312-0.6448-0.16968a23.726 23.726 0 0 1-3.7555-2.3416c-3.8914-3.0316-5.7352-7.975-6.7985-12.783-1.1878-5.3845-2.2738-10.577-3.9253-15.848-0.9615-3.0656-2.0249-6.1085-3.2352-9.0948-0.9842-2.4321-2.0928-4.8868-3.2918-7.3189a86.276 86.276 0 0 0-5.0791-9.0157c-0.3959-0.61085-0.8258-1.2104-1.2443-1.8099a37.692 37.692 0 0 0-0.543-6.3686c-0.9163-5.294 0.1131-6.1198 2.8959-6.4592 2.466-0.29411 10.079 2.285 12.409 0.22624 1.776-1.5611 1.7308-2.7375 1.8326-4.9546 0.147-3.0429 3.0768-3.8574 4.6039-4.1854a1.4609 1.4609 0 0 0 0.905 0.55429 1.4208 1.4208 0 1 0-1.1764-1.6289 1.5183 1.5183 0 0 0 0.011 0.22624 3.7589 3.7589 0 0 1-2.9525-1.1086c-0.4977-0.76921 2.0928-3.9592 3.4841-5.6334a1.6543 1.6543 0 0 0 0.5769 0.24886 1.4208 1.4208 0 1 0-1.1764-1.6289 1.4043 1.4043 0 0 0 0.079 0.69003c-1.2896 1.2782-3.8122 3.7443-4.5022 3.5972-0.8258-0.18099-0.2489-5.475 0.057-7.9636a1.4016 1.4016 0 0 0 1.0746-1.1538 1.4208 1.4208 0 1 0-2.8054-0.45248 1.4045 1.4045 0 0 0 0.8258 1.4932c-0.5543 2.5-1.6289 7.8053-2.2511 7.9523-0.6674 0.16968-1.6063-3.8008-2.1832-6.3234a1.3914 1.3914 0 0 0 0.6222-0.95021 1.4208 1.4208 0 1 0-1.629 1.1765h0.057c0.3394 2.3868 0.7127 6.1537 0.362 6.7872-0.4186 0.74659-2.3077 0.62216-3.6085 0.41855a1.4183 1.4183 0 1 0-1.629 1.2104 1.3829 1.3829 0 0 0 1.1765-0.38461c1.9117 0.83709 4.0157 1.8212 4.5135 3.4728a2.4695 2.4695 0 0 1-1.4932 3.0995s-10.554-0.40723-14.061 0.59954c-2.3869 0.67872-2.3982 5.5089-2.2172 9.2871-0.5656-0.5656-1.1199-1.1538-1.7081-1.6855a49.139 49.139 0 0 0-4.5927-3.6764 46.42 46.42 0 0 0-11.233-5.9275 36.172 36.172 0 0 0-7.2283-1.8099c-1.0068-0.14705-2.0362-0.30542-3.0769-0.48641a12.26 12.26 0 0 0 1.2217-6.0519c-0.1018-4.1854-1.6516-11.086 0.0679-14.355a16.8 16.8 0 0 1 4.1628-4.785 1.3447 1.3447 0 0 0 0.71266 0.36198 1.4208 1.4208 0 1 0-1.1764-1.6289 1.3373 1.3373 0 0 0 0.14705 0.81446c-1.2669 1.0294-2.9524 1.9004-3.7556 1.2669-0.90496-0.70134 0.72397-3.9253 1.6063-5.6447a1.2066 1.2066 0 0 0 0.21492 0.07918 1.4208 1.4208 0 1 0-1.1764-1.6289 1.3906 1.3906 0 0 0 0.44116 1.233c-0.80315 1.8212-2.3868 5.1922-3.3597 4.57-0.61085-0.39592-0.14705-4.5814-0.32805-7.1605a1.3953 1.3953 0 0 0 0.82578-1.0407 1.4208 1.4208 0 1 0-1.6289 1.1764c0.0679 2.138 0.0566 6.7759-1.0407 7.1831-1.0294 0.38461-2.6809-2.1493-4.2533-4.9886a1.3523 1.3523 0 0 0 0.36198-0.70134 1.4208 1.4208 0 1 0-1.6289 1.1764 1.3574 1.3574 0 0 0 0.5656-0.02262c0.96151 1.5837 3.2692 5.5203 2.4094 6.6401-0.39592 0.52035-2.5339 0.44117-4.2872 0.41854a1.3953 1.3953 0 0 0-1.1538-1.1199 1.4209 1.4209 0 1 0 0.99546 2.104c1.8552 0.70134 4.2759 1.9344 4.9886 3.2352 1.5384 2.7714 4.0384 12.341-0.72397 15.135a22.896 22.896 0 0 1-3.0995 1.5045 16.788 16.788 0 0 1-7.0248-4.1289 8.431 8.431 0 0 1-2.466-6.7872c0.29411-3.1787 0.81446-6.0745 0.24886-9.5926a21.896 21.896 0 0 0-1.4592-5.0451c-0.10181-0.24886-0.26018-0.52035-0.39592-0.79184-1.6063-3.0995-5.4184-7.4885-9.2758-11.391-4.3551-4.4004-8.7668-8.1786-10.147-8.7329a3.5444 3.5444 0 0 0-4.718 1.6927l-0.033 0.07196c-0.98415 1.1764-2.2398 4.6832-3.2126 9.0948-1.3348 6.0519-2.138 13.823-0.97283 19.751 1.8325 9.2871 7.2397 13.212 10.203 15.452 2.1945 1.6628 2.5904 2.5904 6.165 5.9388 2.0475 1.9117 3.6312 9.2871 4.9433 11.832 0.6674 1.3009 1.3914 2.6131 2.1832 3.9139l-0.1923 2.9977s-0.22624 6.0406-1.4366 8.4501a9.3704 9.3704 0 0 1-2.4208 3.2805s-4.1402-6.1198-3.4502-10.769a40.897 40.897 0 0 1 0.81446-4.2307 1.4035 1.4035 0 0 0 1.1991-1.1651 1.4208 1.4208 0 0 0-2.8054-0.45248 1.3883 1.3883 0 0 0 0.78053 1.4706c-0.26018 1.3348-0.71266 3.1787-1.8212 3.1447-1.4027-0.0453-3.371-5.5429-4.2194-8.0315a1.385 1.385 0 1 0-0.87102 0.16968c0.0453 0.0113 0.0792-0.0113 0.11312 0 0.90496 2.2624 2.9637 7.2623 1.957 7.794-0.93889 0.49773-4.5474-3.7782-6.5723-6.1085a1.5117 1.5117 0 1 0-0.75791 0.56559c1.6289 1.6742 6.1764 6.527 5.4637 7.5677-0.62216 0.91627-4.1628-0.12443-6.3234-0.96152a1.404 1.404 0 0 0-1.1651-1.4253 1.4209 1.4209 0 1 0 0.92758 2.2058c2.0814 0.71264 5.984 1.8665 5.8144 2.9864-0.14705 1.0068-1.4027 1.086-2.9864 1.5837a1.4083 1.4083 0 1 0 0.23755 1.0181v-0.0679c1.7647-0.42986 4.9094-0.92759 6.6741 1.0181 2.2172 2.4321 6.5949 12.398 8.9252 11.267 2.0362-0.98414 6.9456-11.425 9.208-14.072a34.989 34.989 0 0 0 7.8958 4.5135 52.803 52.803 0 0 0 6.0293 2.0927c2.466 0.71265 4.9773 1.2896 7.4885 1.8325 1.8325 0.40723 3.8008 0.79184 5.8031 1.2443-2.5566 1.4366-8.6198 4.932-10.056 6.5496-1.8439 2.0701-0.69003 3.4502 0.80315 4.604 0.93889 0.72396 0.41854 0.79184 10.464 4.1402a9.3948 9.3948 0 0 1-4.1402 0.80315c-1.7081 0-3.9026-1.1312-5.3393-1.9004 0-0.0226 0.0113-0.0339 0.0226-0.0566a1.4208 1.4208 0 1 0-1.6289 1.1764 1.3991 1.3991 0 0 0 1.1312-0.32805c1.4479 0.74659 4.3325 2.0248 3.0542 2.7149-1.2104 0.64478-6.3913 0.80315-9.1514 1.4027a1.3956 1.3956 0 0 0-0.96152-0.6561 1.4208 1.4208 0 0 0-0.45248 2.8054 1.398 1.398 0 0 0 1.5498-0.98415c1.7986-0.16968 8.3596-0.64478 8.7781 0.19231 0.3846 0.7579-5.5429 4.1062-8.2804 6.3913a1.9257 1.9257 0 0 0-0.27149-0.1018 1.4208 1.4208 0 1 0 1.1764 1.6289 1.2957 1.2957 0 0 0-0.0226-0.55428c1.8665-1.3348 8.9025-5.9954 9.9432-5.1583 0.92764 0.73528-1.5271 6.5383-2.7262 9.6039a1.4116 1.4116 0 1 0 1.5611 1.6176 1.3906 1.3906 0 0 0-0.44117-1.233c1.0633-2.138 4.604-9.0383 5.3279-8.9252 0.6674 0.10181 0.5091 5.0452 0.5091 6.8211a1.4058 1.4058 0 0 0-0.6335 0.9502 1.4208 1.4208 0 1 0 1.6289-1.1764h-0.068c0.4751-3.2239 1.086-8.3596 1.6063-8.7102 0.6901-0.46379 7.3642-3.7895 7.0135-6.0972-0.3507-2.2963-5.4072-4.8302-8.9704-5.8596-3.5633-1.0294 9.6604 2.8732 12.884-1.957 0.4412-0.6561 0.8145-1.2217 1.1652-1.7307a17.015 17.015 0 0 1 2.6922 2.4095 41.13 41.13 0 0 1 6.4592 9.5473 81.341 81.341 0 0 0 5.2487 10.396 53.875 53.875 0 0 0 9.5247 10.995 42.152 42.152 0 0 0 5.7918 4.423 18.471 18.471 0 0 0 11.108 2.6696c0.3393-0.0339 0.6787-0.0792 1.018-0.14705l0.2602-0.0453 0.2715-0.0566 0.4638-0.11312a15.542 15.542 0 0 0 2.0814-0.71266 14.758 14.758 0 0 0 6.7646-5.8709 11.994 11.994 0 0 0 1.6176-4.3099 8.0542 8.0542 0 0 0-0.4072-4.5135z" fill="#f00" stroke="#2e7d32" stroke-linecap="round" stroke-linejoin="round" stroke-width="4.5248px"/>
   <path d="m984.69 81.096c0.33936 0.58822 3.8121 5.9388 2.7828 7.2736-0.53166 0.69003-4.0949 0.31674-5.7917 0.44117a0.25316 0.25316 0 0 0-0.0453 0.49773c1.7307 0.45248 5.4637 2.0248 6.38 3.6877 1.5384 2.7714 4.0384 12.341-0.72397 15.135a28.959 28.959 0 0 1-10.271 3.3936l-0.98414 4.2533 8.0994 1.2783 8.7442-4.8528a11.438 11.438 0 0 0 1.4253-6.4026c-0.10181-4.1854-1.6516-11.086 0.0679-14.355 1.6516-3.156 4.8981-5.2375 5.147-5.6673 0.24886-0.41854-0.22624-0.57691-0.4638-0.31674-1.2217 1.2669-3.5972 2.8167-4.604 2.0362-1.1425-0.88234 1.7986-5.8596 2.0927-6.6401s-0.21493-1.086-0.55429-0.36198c-0.33936 0.72397-2.5791 6.4026-3.8121 5.5994-0.73528-0.4751 0.0792-6.38-0.52035-8.4614-0.32805-1.1538-0.69003-0.20362-0.6561 0.40723 0.0339 0.61085 0.3733 7.7148-0.99545 8.2125-1.086 0.40723-2.8506-2.4321-4.5022-5.4411-0.70135-1.2896-1.4366-0.82578-0.81447 0.2828z" fill="#ff0007" stroke-width="1.1312"/>
   <g fill="#f00" stroke-width="1.1312">
    <path d="m968.04 133.93s-0.22624 6.0406-1.4366 8.4501a9.3705 9.3705 0 0 1-2.4208 3.2805s-4.1402-6.1198-3.4502-10.769a26.663 26.663 0 0 1 1.1651-5.3619c0.21493-0.6561-0.64478-0.90496-0.90496-0.21493-0.27148 0.69003-0.53166 4.4117-2.0814 4.3551-1.6968-0.0566-4.2533-8.1899-4.5927-9.1401-0.33936-0.95021-1.0407-0.64479-0.76922 0.26017s3.5633 8.1446 2.3416 8.8007c-1.0633 0.5656-5.5542-5.0112-7.2962-6.9116-0.53167-0.58823-1.4706-0.20362-0.61085 0.80315 0 0 6.9003 6.889 6.0406 8.1446-0.7466 1.086-5.656-0.59953-7.4207-1.414-0.57691-0.27148-1.0746 0.16968-0.36199 0.72397 0.71266 0.5656 7.2397 2.0475 7.0248 3.4954-0.16968 1.1199-1.7194 1.086-3.5859 1.7873-1.2104 0.45248-1.3348 1.3009-0.22624 1.0181s5.5089-1.6968 7.7261 0.74659 6.5949 12.398 8.9252 11.267c2.3303-1.1312 8.4387-14.66 9.9998-14.683 1.0633-0.0113-7.613-11.878-7.613-11.878z"/>
    <path d="m1017.2 130.07s3.7895 1.957 3.914-0.57691c0.1131-2.5339-1.4253-12.33 2.0361-13.314 3.5067-1.0068 14.061-0.59953 14.061-0.59953a2.4695 2.4695 0 0 0 1.4932-3.0995c-0.5656-1.8891-3.2126-2.8959-5.2827-3.8121-0.4525-0.20362-0.6221-0.92758 0.091-0.71266 0.7127 0.21493 4.1515 0.8484 4.7284-0.18099 0.4751-0.85971-0.3733-7.4772-0.6787-8.6197-0.3054-1.1425 0.5317-1.2556 0.8032-0.33936 0.2828 0.91627 1.7081 8.4953 2.6243 8.2578 0.7693-0.19231 2.2738-8.4048 2.5452-9.1853 0.2828-0.78053 0.8032-0.61085 0.7466 0.11312-0.057 0.72397-1.233 8.9591-0.1923 9.1853 0.8145 0.18099 4.2533-3.371 5.0904-4.1741s1.1652-0.2828 0.7466 0.2828c-0.4185 0.55429-4.9546 5.6334-4.3099 6.6288 0.6109 0.95021 2.7036 1.3348 3.7556 1.0068 1.052-0.33936 0.724 0.50904 0.3394 0.74659-0.3846 0.24886-5.2827 0.44117-5.4863 4.4004-0.1131 2.2172-0.057 3.3936-1.8326 4.9546-2.3416 2.0588-9.9432-0.52035-12.409-0.22624-2.7828 0.33936-3.8122 1.1651-2.8959 6.4592 0.9163 5.294 0.7918 12.285-1.3914 14.581-2.1832 2.2963-2.8732 2.0362-2.8732 2.0362z"/>
    <path d="m1003.7 148.21s-9.3777 5.1243-11.21 7.1944c-1.8325 2.0701-0.69003 3.4502 0.80315 4.604 0.9389 0.72397 0.41855 0.79184 10.464 4.1402a9.3948 9.3948 0 0 1-4.1401 0.80315c-1.9796 0-4.6266-1.5271-5.9614-2.2398-1.3348-0.71266-1.3801 0.16968-0.46379 0.79184 0.91627 0.62216 5.147 2.2511 3.6538 3.0542-1.2556 0.67872-6.8098 0.81447-9.4681 1.4706-1.6742 0.41855-0.82578 1.233 0.0792 1.1312 0.91628-0.11312 8.6989-0.7579 9.1514 0.15837 0.39592 0.79184-6.0519 4.389-8.6084 6.6741-1.5497 1.3801 0.0792 1.5837 0.79184 1.0068 0.71266-0.58823 9.2193-6.4026 10.373-5.475 0.9615 0.76922-1.7647 7.1152-2.8846 10.022-0.62216 1.6289 0.66741 1.2556 1.0068 0.54297 0.33936-0.71265 4.7963-9.6378 5.622-9.5134 0.724 0.11312 0.4752 5.9275 0.5091 7.2057 0.034 1.2782 0.7126 0.80315 0.8258 0.0679 0.4751-3.1221 1.1425-9.0157 1.6968-9.389 0.69-0.46379 7.3641-3.7895 7.0134-6.0972-0.3394-2.2963-5.4071-4.8302-8.9704-5.8596-3.5633-1.0294 9.6604 2.8732 12.884-1.957 3.224-4.8302 3.7896-5.5202 3.7896-5.5202z"/>
    <circle cx="1038" cy="99.569" r="1.414"/>
   </g>
   <circle cx="984.73" cy="80.35" r="1.414" fill="#ff0007" stroke-width="1.1312"/>
   <g fill="#f00" stroke-width="1.1312">
    <circle cx="948.11" cy="126.72" r="1.414"/>
    <circle cx="946.28" cy="134.64" r="1.414"/>
    <circle cx="949.1" cy="140.8" r="1.414"/>
    <circle cx="992.88" cy="162.77" r="1.414"/>
    <circle cx="986.49" cy="168.71" r="1.414"/>
    <circle cx="987.83" cy="177.02" r="1.414"/>
    <circle cx="996.59" cy="182.51" r="1.414"/>
    <circle cx="1004.2" cy="180.57" r="1.414"/>
    <circle cx="961.34" cy="129.27" r="1.414"/>
   </g>
   <g fill="#ff0007" stroke-width="1.1312">
    <circle cx="991.28" cy="77.68" r="1.414"/>
    <circle cx="996.52" cy="80.542" r="1.414"/>
    <circle cx="999.48" cy="85.644" r="1.414"/>
    <circle cx="981.82" cy="89.071" r="1.414"/>
   </g>
   <g fill="#f00" stroke-width="1.1312">
    <circle cx="954.03" cy="124.4" r="1.414"/>
    <circle cx="1043.8" cy="97.838" r="1.414"/>
    <circle cx="1049.9" cy="103.12" r="1.414"/>
    <circle cx="1050" cy="111.03" r="1.414"/>
    <circle cx="1033.2" cy="107.97" r="1.414"/>
    <path d="m1070.9 179.48c-0.5421-1.3189-1.4148-2.4759-2.5339-3.3597-0.9802-0.784-2.1311-1.3265-3.3596-1.5837-1.0286-0.21178-2.0879-0.22714-3.1221-0.0452-0.783 0.13376-1.5441 0.37351-2.2624 0.71266-0.4596 0.22096-0.8987 0.48215-1.3122 0.78053-0.2828 0.21492-0.4299 0.32804-0.4299 0.32804-0.1836 0.14466-0.2232 0.40712-0.091 0.59954 0.1421 0.20493 0.4233 0.2559 0.6283 0.11384l0.017-0.012s0.1357-0.0905 0.3959-0.27149c0.3821-0.23645 0.7832-0.44077 1.1991-0.61084 0.6454-0.25888 1.3226-0.43007 2.0135-0.50904 0.8791-0.10136 1.7695-0.0361 2.6244 0.1923 1.0059 0.26679 1.933 0.77111 2.7036 1.4706 0.8534 0.75875 1.4963 1.7251 1.8664 2.8054 0.3704 1.1417 0.4136 2.3644 0.1245 3.5294-0.2927 1.2436-0.8227 2.4189-1.5611 3.4615-2.7104 3.9232-7.4978 5.8542-12.172 4.9094-0.2149-0.0453-0.4298-0.11312-0.6448-0.16968-1.3221-0.66181-2.5794-1.4458-3.7556-2.3416-3.8913-3.0316-5.7351-7.975-6.7985-12.783-1.1877-5.3845-2.2737-10.577-3.9252-15.848-0.9615-3.0656-2.0249-6.1085-3.2353-9.0948-0.9841-2.4321-2.0927-4.8868-3.2918-7.3189-1.5111-3.1041-3.2071-6.1148-5.079-9.0157-2.7051-4.2835-5.9521-8.1997-9.6605-11.651-1.4561-1.3161-2.9897-2.5438-4.5926-3.6764-3.4551-2.4812-7.2347-4.4756-11.233-5.9275-2.3407-0.85053-4.763-1.4571-7.2283-1.8099-3.8544-0.50432-7.6581-1.3408-11.369-2.5-2.8734-0.7745-5.5016-2.2696-7.6356-4.3438-1.7984-1.778-2.7036-4.2694-2.466-6.7872 0.29411-3.1787 0.81447-6.0745 0.24887-9.5926-0.28225-1.7342-0.77218-3.4281-1.4592-5.0451-0.10181-0.24886-0.26018-0.52035-0.39592-0.79184-1.6063-3.0995-5.4184-7.4885-9.2758-11.391 2.0475 5.4637 2.5 11.199-0.36198 16.945 0 1.1878-3.4384 2.9845-7.0017 1.7967-7.2623-2.9072-10.211-9.8649-10.765-17.229-1.3348 6.0519-2.131 14.448-0.96582 20.376 1.8325 9.2871 7.2397 13.212 10.203 15.452 2.1945 1.6629 2.5904 2.5904 6.165 5.9388 2.0475 1.9117 3.6312 9.2872 4.9434 11.832 1.7913 3.7352 4.1409 7.1757 6.9682 10.203 0.42986 0.42985 0.87103 0.83708 1.3348 1.2217 2.6699 2.1876 5.6563 3.9573 8.8573 5.2488 1.9657 0.8185 3.9792 1.5174 6.0293 2.0927 2.466 0.71265 4.9773 1.2896 7.4885 1.8325 2.3755 0.52035 4.966 1.0294 7.5904 1.6402 3.9315 0.82017 7.7332 2.1711 11.301 4.0158 1.906 1.0262 3.6266 2.3644 5.0904 3.9592 2.5905 2.8635 4.7649 6.0775 6.4591 9.5473 1.499 3.5862 3.2531 7.0603 5.2488 10.396 2.6632 4.0788 5.8673 7.7776 9.5247 10.995 1.7993 1.6388 3.7371 3.1186 5.7917 4.423 3.3277 2.0414 7.2165 2.976 11.108 2.6696 0.3394-0.0339 0.6787-0.0792 1.0181-0.14706l0.2602-0.0452 0.2715-0.0566 0.4637-0.11312c0.7098-0.18808 1.4054-0.42623 2.0815-0.71265 2.8086-1.209 5.1723-3.2604 6.7645-5.8709 0.8125-1.3187 1.3618-2.7823 1.6176-4.3099 0.2902-1.5175 0.1451-3.0862-0.4185-4.5248z"/>
   </g>
   <path d="m956.26 91.335c3.5941 1.198 7.1882-1.198 7.1882-2.3961 2.8981-5.7848 2.4303-11.57 0.36511-17.092-4.3928-4.4384-8.8426-8.2493-10.235-8.8083a3.575 3.575 0 0 0-4.7588 1.7073l-0.0333 0.07258c-0.99265 1.1866-2.2591 4.7236-3.2404 9.1735 0.54767 7.4506 3.3887 14.411 10.714 17.343z" fill="#f55" stroke-width="1.141"/>
   <g stroke-width="1.1312">
    <path d="m945.7 91.956a6.3121 6.3121 0 1 1 6.3121-6.3121 6.3121 6.3121 0 0 1-6.3121 6.3121z" fill="#fff"/>
    <path d="m945.7 80.101a5.5429 5.5429 0 1 1-5.5429 5.5429 5.5373 5.5373 0 0 1 5.5318-5.5429h0.0111m0-1.5497a7.0813 7.0813 0 1 0 7.0813 7.0813 7.0813 7.0813 0 0 0-7.0813-7.0813z" fill="#b3b3b3"/>
    <circle cx="944.18" cy="83.042" r="2.7036"/>
    <path d="m967.29 83.415a6.3121 6.3121 0 1 1 6.3121-6.3121 6.3146 6.3146 0 0 1-6.3121 6.3121z" fill="#fff"/>
    <path d="m967.27 71.56a5.5429 5.5429 0 1 1-5.5429 5.5429 5.5373 5.5373 0 0 1 5.5318-5.5429h0.0111m0-1.5384a7.0813 7.0813 0 1 0 7.0813 7.0813 7.0813 7.0813 0 0 0-7.0813-7.0813z" fill="#b3b3b3"/>
    <circle cx="967.62" cy="74.388" r="2.7036"/>
    <path d="m964.17 96.967s0.12444 0.45248 0.3733 1.2896c0.23755 0.88234 0.61085 1.9683 1.1199 3.4162a30.754 30.754 0 0 0 2.2511 4.932 27.275 27.275 0 0 0 4.2081 5.4637 60.922 60.922 0 0 0 6.5496 5.5655c1.233 0.92758 2.5904 1.9683 3.88 2.8393l1.0407 0.72397 1.0068 0.63347c0.65609 0.42986 1.3574 0.8484 2.104 1.2669a104.63 104.63 0 0 0 9.355 4.7397c3.3031 1.4932 6.7307 2.9637 10.147 4.5814a97.647 97.647 0 0 1 10.068 5.3619l0.6109 0.3733 0.3394 0.21493 0.2828 0.1923c0.3846 0.27149 0.7352 0.48642 1.1425 0.80315 0.8144 0.59954 1.561 1.1991 2.2963 1.8099a41.096 41.096 0 0 1 4.0044 3.9253 57.982 57.982 0 0 1 10.09 16.821 85.433 85.433 0 0 1 4.0045 13.065c0.362 1.6063 0.5882 2.8732 0.7353 3.733 0.147 0.87102 0.2262 1.3235 0.2262 1.3235a0.20011 0.20011 0 0 1-0.1584 0.22624 0.21277 0.21277 0 0 1-0.2149-0.12443s-0.6108-1.7647-1.7647-4.8076a111.77 111.77 0 0 0-5.441-12.217 69.412 69.412 0 0 0-4.5135-7.579 51.339 51.339 0 0 0-6.1085-7.4885 36.427 36.427 0 0 0-3.7443-3.3484c-0.6674-0.52035-1.3574-1.0181-2.0361-1.4592-0.3168-0.22623-0.7466-0.4751-1.1199-0.71265l-0.2941-0.18099-0.2489-0.14706-0.5769-0.32805a88.854 88.854 0 0 0-9.6944-4.8076c-6.7419-2.9072-13.801-5.6108-20.147-9.1853-0.79184-0.42986-1.5724-0.90496-2.3529-1.4027l-1.1538-0.73528-1.0407-0.72397c-1.4932-1.0181-2.7488-1.9796-4.0836-2.9637a58.126 58.126 0 0 1-7.1266-6.1764 30.041 30.041 0 0 1-4.8755-6.7193 35.415 35.415 0 0 1-2.4434-5.837c-0.53166-1.6402-0.85971-3.0203-1.0407-3.8348-0.19231-0.8484-0.29411-1.3122-0.29411-1.3122a2.3988 2.3988 0 0 1 4.6379-1.2104z" fill="url(#linearGradient22710)"/>
   </g>
  </g>
  <rect x="63.491" y="390.13" width="160" height="160" fill-opacity="0" stroke-opacity="0"/>
  <g transform="matrix(1.1778 0 0 1.1778 67.825 395.59)">
   <g fill="#70853c">
    <path d="m32.6 5.38c-0.47 0.86 0.09 1.97 2.16 2.82 2.06 0.84 6.48 2.72 7.79 4.79s1.97 3.75 0.56 7.23 1.97 4.04 1.97 4.04 3.47-4.13 1.41-10.04-9.2-8.35-10.23-8.73c-1.03-0.39-3.1-1.14-3.66-0.11z"/>
    <ellipse transform="matrix(.7621 -.6475 .6475 .7621 -55.788 47.342)" cx="36.52" cy="99.58" rx="5.24" ry="5.43"/>
    <ellipse transform="matrix(.4345 -.9007 .9007 .4345 -69.027 108.65)" cx="52.01" cy="109.29" rx="5.24" ry="5.43"/>
    <ellipse transform="matrix(.1597 -.9872 .9872 .1597 -50.77 166.26)" cx="72.28" cy="112.95" rx="5.24" ry="5.43"/>
    <ellipse transform="matrix(.1597 -.9872 .9872 .1597 -38.552 188.21)" cx="91.28" cy="116.75" rx="5.24" ry="5.43"/>
    <ellipse cx="23.8" cy="53.01" rx="5.14" ry="4.93"/>
    <ellipse transform="matrix(.9964 -.085 .085 .9964 -5.7186 2.3289)" cx="24.5" cy="68.36" rx="5.14" ry="4.93"/>
    <ellipse transform="matrix(.9453 -.3262 .3262 .9453 -26.084 13.816)" cx="28.16" cy="84.7" rx="5.4" ry="5.52"/>
   </g>
   <path d="m55.41 73.57c6.19 10.42 25.34 10.28 43.5 16.19 11.92 3.88 19.29 13.09 17.88 21.68s-7.47 10.8-12.67 10.56c-6.19-0.28-13.66-5.49-19.29-6.76s-27.92-3.47-33.79-5.91c-6.76-2.82-15.49-8.87-20.69-17.88-4.92-8.52-5.91-23.93-6.05-30.97s0.14-13.8-0.42-15.49-10.03-1.77-11.97-10.28c-2.11-9.29 4.65-19.15 14.64-20.98s22.52 2.96 25.9 14.5c3.38 11.55-1.75 37.42 2.96 45.34z" fill="#b7d019"/>
   <g fill="#70853c">
    <path d="m30.72 62.26c-0.64 1.52 1.18 2.65 3.75 2.86 3.38 0.28 8.47-1.06 12.34-2.53 4.04-1.54 6.55-3.45 6.55-3.45l-0.07-4.29s-2.75 2.67-9.06 4.6c-3.02 0.92-7.32 1.88-8.78 1.92-1.44 0.04-4.21-0.33-4.73 0.89z"/>
    <path d="m45.13 4.77c-0.93 0.72-0.35 1.94 0.42 3 0.89 1.22 2.96 3.94 3.05 6.52 0.06 1.55-0.47 5.71-1.17 6.85-1.17 1.92 1.36 3.33 2.63 2.53 1.55-0.97 2.2-7.33 1.92-10.04-0.47-4.69-3.14-6.9-4.08-7.84-0.76-0.74-1.93-1.67-2.77-1.02z"/>
    <path d="m98.06 89.47s0.19 6.79-0.84 10.37c-1.17 4.08-2.63 7.27-3.38 8.78-0.32 0.64-0.56 1.55 0.23 2.16s2.16 0.14 2.72-0.7c0.67-1.01 2.96-4.79 3.99-9.48 1.39-6.33 0.94-9.9 0.94-9.9s-1.36-0.56-1.88-0.7c-0.51-0.15-1.78-0.53-1.78-0.53z"/>
    <path d="m81.07 85.25s0.19 5.21-0.99 9.62c-0.8 3-2.86 7.13-3.28 7.98-0.42 0.84-1.34 2.25-0.47 3.33 1.25 1.56 3.26-0.33 3.92-1.78 0.43-0.96 2.4-4.19 3.59-8.78 1.36-5.26 0.99-9.53 0.99-9.53z"/>
    <path d="m64.32 80.7s-0.49 6.73-2.11 9.76c-2.53 4.74-5.77 7.32-6.19 7.74s-2.02 1.82-0.47 2.91c1.27 0.89 2.82 0 3.24-0.38s5.02-3.41 7.23-9.34c1.78-4.79 1.88-9.39 1.88-9.39s-1.45-0.56-1.83-0.7c-0.39-0.13-1.75-0.6-1.75-0.6z"/>
    <path d="m54.49 71.45s-3.87 4.6-6.55 6.48c-3.31 2.33-7.41 3.61-8.78 3.75-1.36 0.14-3.24 0.28-3 2.06 0.23 1.78 2.81 1.69 4.18 1.69 2.11 0 7.13-1.99 10.35-4.34 3.07-2.24 5.91-5.77 5.91-5.77s-1.2-1.5-1.34-1.97c-0.14-0.46-0.77-1.9-0.77-1.9z"/>
   </g>
   <g fill="#fe6014">
    <circle cx="32.17" cy="55.01" r="3.1"/>
    <circle cx="32.87" cy="74.93" r="3.1"/>
    <circle cx="46.39" cy="94.74" r="3.1"/>
    <ellipse cx="68.48" cy="103.34" rx="2.88" ry="2.83"/>
    <ellipse cx="87.01" cy="107.78" rx="2.85" ry="2.72"/>
    <ellipse cx="103.69" cy="112.98" rx="2.85" ry="2.72"/>
   </g>
   <g fill="#2e2e27">
    <path d="m109.1 96.05c-2.22-1.09-3.84 2.56-4.81 6.49s-1.87 6.58 0.57 7.37c2.98 0.96 5.12-3.45 5.86-6.85s0.41-6.02-1.62-7.01z"/>
    <path d="m92.99 88.84c-3.52-0.99-4.02 3.79-4.86 7.53-0.88 3.94-3.1 7.42 0.07 8.38 3.94 1.2 5.98-3.85 6.69-7.04 0.74-3.31 1.46-7.93-1.9-8.87z"/>
    <path d="m74.83 84.34c-3.68-0.99-4.18 3.71-5.35 7.72-1.17 4.04-1.65 7.47 0.56 8.26 2.63 0.94 4.83-2.06 6.05-6.15 1.23-4.09 2.55-8.82-1.26-9.83z"/>
    <path d="m49.87 92.69c2.5 2.7 6.44-0.68 8.49-3.57 1.97-2.77 5.53-7.39 2.39-9.76-2.67-2.02-6.02 2.2-8.02 4.83-1.78 2.35-5.25 5.92-2.86 8.5z"/>
    <path d="m36.26 73.66c0.6 2.41 6.29 3.1 10.75 0.52 3.15-1.82 6.8-4.65 5.96-7.93-0.88-3.44-6.29-0.33-9.43 0.94-3.15 1.26-8.31 2.34-7.28 6.47z"/>
    <path d="m52.8 48.16c-0.7-2.39-4.48 0.12-8.66 1.48-3.73 1.22-8.87 0.99-8.59 4.88 0.25 3.42 8.01 2 10.98 0.89 3.53-1.32 7.27-3.87 6.27-7.25z"/>
    <ellipse transform="matrix(.5 -.866 .866 .5 -7.8044 40.39)" cx="31.08" cy="26.95" rx="3.43" ry="3.19"/>
   </g>
  </g>
  <path d="m239.88 470.13h48.657" color="#000000" fill="#808080" stroke-width="10" style="-inkscape-stroke:none"/>
  <path d="m239.88 465.13v10h48.656v-10z" color="#000000" fill="#999" style="-inkscape-stroke:none"/>
  <g fill="#999" fill-rule="evenodd">
   <path d="m300.08 470.13-17.3 10v-20z" color="#000000" stroke-width="2pt" style="-inkscape-stroke:none"/>
   <path d="m281.44 457.82v24.621l21.297-12.311-1.9961-1.1543zm2.666 4.6211 13.305 7.6894-13.305 7.6895z" color="#000000" style="-inkscape-stroke:none"/>
  </g>
  <g transform="matrix(1.2055 0 0 1.2055 322.32 389.4)">
   <polygon points="67.94 111.72 62.87 114.67 55.69 114.82 46.4 112.28 40.91 108.06 37.53 102.43 38.37 94.97 47.94 82.72 39.92 85.67 29.64 85.96 21.2 76.8 8.24 55.83 5.01 46.54 7.68 43.72 15.42 43.72 32.04 46.4 50.2 53.58 63.29 61.04 71.08 63.95 75.77 54.56 86.28 41.05 99.8 31.1 113.31 24.9 120.59 24.72 122.42 27.53 119.32 41.75 114.39 62.73 111.3 67.79 103.98 71.88 96.51 73 104.12 76.52 109.75 80.89 112.98 85.39 112.98 91.45 110.17 99.33 101.72 106.09 96.51 108.06 88.35 106.09 86.52 103.98 82.62 97.78 79.9 88.49 74.41 85.67 69.11 88.58 71.03 101.02 70.61 104.96 69.91 107.78" fill="#41484a"/>
   <path d="m67.02 46.26s1.23-11.63 2.53-16.19c1.83-6.41 7.04-11.47 11.4-11.97 4.36-0.49 3.8 2.89 1.13 4.29-2.57 1.35-5.35 0.56-5.35 0.56s-3.59 2.62-4.79 8.02c-1.41 6.34-2.53 16.19-2.53 16.19z" fill="#676f72"/>
   <path d="m63.15 47.03s-4.77-9.69-9.92-15.84c-5.14-6.12-11.68-6.34-12.6-6.41s-4.79 0.56-4.79 2.39c0 2.46 3.4 2.9 5.35 2.53 2.25-0.42 3.31-1.76 3.31-1.76s4.18 1.66 6.97 5c3.24 3.87 9.22 15.56 9.22 15.56l0.42 1.55z" fill="#676f72"/>
   <g fill="#ff8b03">
    <path d="m54.84 93.7c-1.75-0.87-7.04 4.08-7.04 6.48 0 1.57 1.13 4.22 3.52 3.52 2.4-0.71 5.78-8.88 3.52-10z"/>
    <path d="m45.41 93.7c2.25 1.97 5.97-1.95 7.6-4.5 1.97-3.1 2.96-10.84 2.39-10.56-0.56 0.28-7.6 5.35-7.6 5.35s-5.34 7.13-2.39 9.71z"/>
    <path d="m56.11 103.27c0 2.46 2.67 4.22 5.35 3.8 1.4-0.22 3.91-1.52 3.66-3.8-0.28-2.53-1.41-6.34-4.08-6.76-2.68-0.42-4.93 2.68-4.93 6.76z"/>
    <path d="m71.01 83.91s-3.69 7.75-4.49 9.64c-1.13 2.67-1.17 9.34 1.83 10.42 2.14 0.77 2.67-2.96 2.67-2.96s0.37-7.64 0.37-10.17c0.01-2.53-0.38-6.93-0.38-6.93z"/>
    <path d="m73.85 75.12s7.04 8.17 9.15 9.71c2.11 1.55 5.77 5.91 10.56 2.67s-8.17-14.08-9.29-14.92c-1.13-0.84-11.27-0.98-11.27-0.98z"/>
    <path d="m76.38 83s4.92 4.49 5.91 5.49c2.11 2.11 4.5 4.07 5.49 7.04 0.56 1.69 1.41 4.22-0.42 5.21-1.51 0.81-3.4-1.39-4.08-2.11-0.69-0.72-3.33-6.53-4.87-9.84-0.64-1.36-2.03-5.79-2.03-5.79z"/>
    <path d="m90.74 91.45c-1.13 1.52 0.32 6.76 1.83 7.74 2.82 1.83 6.19-1.41 6.19-2.96 0.01-1.55-5.63-8.02-8.02-4.78z"/>
    <path d="m88.91 72.02s6.19 9.71 9.57 11.68 6.04 1.75 7.04 0c2.25-3.94-7.46-9.29-7.46-9.29z"/>
    <path d="m96.65 87.22c-0.84 1.83 2.67 7.18 5.07 7.18s3.26-3.39 3.1-4.5c-0.28-1.97-6.73-5.8-8.17-2.68z"/>
    <path d="m61.6 75.4s-6.49 10.66-4.5 15.91c1.55 4.08 5.77 3.38 9.43-3.52s4.36-11.26 4.36-11.26l-1.13-3.94z"/>
   </g>
   <path d="m63.99 60.33s-5.77-5.21-17.46-10.14-22.1-8.02-31.39-7.88-10.7 2.25-11.12 3.94 1.24 7.02 3.1 10.28c2.25 3.94 10.7 17.6 13.66 21.82 2.55 3.65 4.31 7.7 9.85 9.01 6.15 1.45 13.66-1.69 13.66-1.69s-7.18 6.48-7.6 13.37c-0.42 6.9 3.24 11.83 10.84 14.5s18.7 4.72 22.24-3.66c1.03-2.44 0.84-4.93 0.84-4.93s-2.56 7.31-6.48 8.02c-3.1 0.56-2.67-1.27-5.49-1.55s-2.39 1.83-5.35 1.83c-2.27 0-1.55-1.83-3.94-3.1s-3.75 0.78-5.21-0.42c-2.39-1.97-0.14-2.96-1.13-4.5-0.99-1.55-3.26-2.02-3.8-3.94-0.99-3.52 0.99-6.19 3.1-9.29s5.91-7.6 8.87-9.71 17.53-9.06 17.53-9.06 0.77-2.62-0.35-2.48c-1.13 0.14-14.36 7.18-16.76 8.73-2.39 1.55-12.74 6.91-20.27 5.21-4.36-0.99-12.23-14.87-15.41-19.19s-8.68-14.92-8.24-17.98c0.41-2.82 5.21-3.38 12.53-2.53 7.32 0.84 13.8 3.1 22.95 6.9s19.57 10.84 20.84 10.84c1.26 0-0.01-2.4-0.01-2.4z" fill="#676f72"/>
   <path d="m72.58 62.02s-1.13-2.72 0.84-6.1 8.31-12.9 14.78-18.68c6.48-5.77 28.3-17.74 33.22-14.22 4.93 3.52-0.42 17.36-1.55 22.1-0.98 4.13-2.25 17.41-7.04 22.95-3.72 4.31-11.68 5.77-11.68 5.77s12.94 6.21 13.51 14.36c0.7 10-10.98 21.42-19.71 21.12-6.71-0.23-8.45-5.35-8.45-5.35s6.19 3.52 8.73 2.82c2.53-0.7 0.7-3.1 3.1-4.5s4.36 2.25 6.19 0.56 0.42-3.24 1.69-4.93 3.1 0 4.22-1.55c1.13-1.55 0-3.66 0.56-5.07s1.69-1.69 1.55-3.8-4.08-7.04-9.01-9.43-10.28-3.52-14.64-4.36-15.63-1.6-15.63-1.6-0.99-2.3-0.42-2.21c1.13 0.19 3.94 0.42 8.17 0.56 8.54 0.28 22.24 2.25 28.3-2.53s7.04-18.3 7.6-21.82 5.91-19.01 2.82-20.55c-3.1-1.55-18.34 4.61-26.7 11.07s-14.4 15.4-16.23 19.06-4.22 6.33-4.22 6.33z" fill="#676f72"/>
   <path d="m72.41 58.68c0.77-1.06 1.95-1.89 1.44-7.07-0.56-5.7-5.46-7.14-9.33-6.3-3.14 0.68-7.57 3.63-5.17 10.73 2.12 6.31 9.29 4.36 9.29 4.36s2.99-0.67 3.77-1.72z" fill="#41484a"/>
   <g fill="#fcfdfa">
    <ellipse transform="matrix(.8317 -.5552 .5552 .8317 -5.2206 59.239)" cx="95.11" cy="38.23" rx="2.75" ry="2.18"/>
    <path d="m117.21 41.47c-0.63-1.03-2.01-1.26-3.17-0.28-0.79 0.66-1.44 2.24-0.77 3.24s2.14 1.12 3.1 0.35c1.18-0.95 1.41-2.37 0.84-3.31z"/>
    <path d="m104.33 35.13c-0.67-1-2.47-1.12-3.73-0.28s-2.21 2.41-1.2 3.94c0.7 1.06 2.31 1.04 3.87 0.14 1.48-0.84 1.73-2.79 1.06-3.8z"/>
    <path d="m121.22 26.05c0 1.09-0.7 2.18-2.18 1.97-1.35-0.19-1.97-0.7-1.97-2.18 0-1.09 1.04-1.76 2.15-1.76s2 0.88 2 1.97z"/>
    <path d="m119.53 34.64c0 1.09-1.08 2.04-2.18 1.97-1.06-0.07-1.97-0.7-1.97-2.18 0-1.09 1.07-1.9 2.18-1.9s1.97 1.02 1.97 2.11z"/>
    <circle cx="113.79" cy="53.68" r="2.15"/>
    <ellipse cx="20.74" cy="72.3" rx="1.87" ry="1.9"/>
    <path d="m10 45.97c0.83 1.11 0.18 2.35-0.86 3.2-1.03 0.85-2.45 0.83-3.16-0.04s-0.45-2.27 0.59-3.12 2.62-1.14 3.43-0.04z"/>
    <path d="m16.74 60.88c1.42 0.28 1.81 1.53 1.62 2.74-0.19 1.22-1.28 2.06-2.44 1.88s-1.95-1.31-1.77-2.53 1.19-2.36 2.59-2.09z"/>
    <path d="m12.46 53.78c1.03 1.02 0.66 2.27-0.17 3.18s-2.2 1.01-3.07 0.21c-0.87-0.79-0.9-2.17-0.07-3.08s2.3-1.32 3.31-0.31z"/>
    <path d="m29.77 49.61c1.04 0.82 0.74 2.14-0.02 3.2s-2.08 1.42-2.96 0.8-0.97-1.99-0.21-3.06c0.76-1.06 2.16-1.75 3.19-0.94z"/>
    <path d="m26.55 48.97c-0.04 1.36-1.31 1.92-2.64 1.93-1.33 0.02-2.42-0.87-2.43-1.97-0.01-1.11 1.05-2.02 2.38-2.03 1.33-0.02 2.73 0.72 2.69 2.07z"/>
    <path d="m43.86 99.19c0 1.23-0.78 2.22-2.01 2.22s-2.22-1-2.22-2.24c0-1.23 0.99-2.24 2.22-2.24s2.01 1.02 2.01 2.26z"/>
    <path d="m47.59 107.07c-0.8 0.95-2.44 0.81-3.28 0.11-0.83-0.7-0.86-2.04-0.06-2.99s2.12-1.16 2.96-0.46c0.83 0.7 1.18 2.39 0.38 3.34z"/>
    <ellipse transform="matrix(.8293 -.5588 .5588 .8293 -34.056 76.062)" cx="107.46" cy="93.77" rx="2.08" ry="1.76"/>
    <ellipse transform="matrix(.8293 -.5588 .5588 .8293 -29.957 76.227)" cx="109.78" cy="87.14" rx="2.08" ry="2"/>
   </g>
   <g fill="#ff8b03">
    <path d="m95.2 43.49c-3.49-1.45-7.13 0.47-11.26 6.38s-6.38 10.04-4.6 11.54 10-6.16 11.73-7.51c2.53-1.97 7.98-8.82 4.13-10.41z"/>
    <path d="m88.16 60c2.32-1.32 9.1-0.75 12.76-0.94 2.44-0.13 6.01 0.25 6.1 1.5 0.19 2.53-0.75 4.13-3.94 5.26s-10.7 1.31-15.49 1.41c-2.82 0.06-5.41 0.34-5.73-0.94-0.18-0.75 2.17-3.94 6.3-6.29z"/>
    <path d="m99.24 48.93c2.16 0.38 9.1 0.19 11.07-1.31 1.2-0.92 1.88-4.79 0-5.63s-7.23-0.66-9.29 0.94c-1.27 0.97-3.62 5.68-1.78 6z"/>
    <path d="m109.47 31.29c-0.36 2.21 3.19 2.16 4.79 1.69s3.75-3 2.72-4.32c-1.04-1.32-7.05-0.28-7.51 2.63z"/>
    <path d="m106.93 36.73c0 1.6 1.31 2.16 3.19 2.16s3.1-1.19 3.1-2.44c0-1.69-1.6-2.35-3.66-1.97-1.57 0.28-2.63 0.94-2.63 2.25z"/>
    <path d="m94.36 56.16c0 1.2 3.38 0.84 8.26 0.84s6.01-0.75 6.57-2.63 0.38-3.1-2.53-3.19-8.63 0.19-10.32 1.41c-0.77 0.55-1.98 2.63-1.98 3.57z"/>
    <path d="m29.13 75.58c-0.2 2.15 1.69 4.88 7.32 4.41s12.3-3.79 14.08-4.6c3.28-1.5 6.29-2.72 6.29-4.22 0-1.69-3.75-2.25-8.82-2.72s-8.82 0.47-13.05 2.82c-3.53 1.96-5.73 3.28-5.82 4.31z"/>
    <path d="m23.59 68.17c-0.17 1.3 1.97 4.41 3.38 4.5s8.82-3.85 9.01-5.16-1.69-3.38-3.19-3.75c-1.5-0.38-9.01 3-9.2 4.41z"/>
    <path d="m32.79 53.81c-2.26 2.26 0.38 6.48 5.26 8.92s12.67 3.1 15.77 3.57 5.35 0.56 5.82-0.38c1.01-2.01-6.48-5.73-13.42-9.01-4.33-2.05-11.65-4.88-13.43-3.1z"/>
    <path d="m10.73 49.21c0.28 2.82 7.79 2.1 7.88-0.66 0.1-2.72-8.16-2.15-7.88 0.66z"/>
    <path d="m15.61 55.78c1.17 1.95 6.01 0.19 4.41-2.35-1.52-2.41-6.1-0.46-4.41 2.35z"/>
    <path d="m20.87 63.57c0.77 1.31 3.33 1.22 5.73 0.09 1.6-0.75 3.7-2.29 3.28-4.13-0.47-2.06-4.32-2.35-6.85-1.13-1.79 0.87-3.76 2.45-2.16 5.17z"/>
   </g>
   <path d="m74.06 71.24-6.27 1.76s1.94 8.4 2.67 11.54c0.77 3.31 5.7 27.17 9.57 26.54 3.99-0.65-2.67-25.34-3.31-28.02-0.6-2.57-2.66-11.82-2.66-11.82z" fill="#676f72"/>
   <g fill="#41484a">
    <path d="m73.43 82.51c1.85-0.4 2.87-1.51 2.87-1.51l1.23 5.3s-0.93 0.86-2.76 1.28c-2.02 0.47-3.59 0.11-3.59 0.11l-1.21-5.26c-0.01-0.01 1.48 0.5 3.46 0.08z"/>
    <path d="m67.79 73 6.26-1.76 0.93 4.22s-1.65 0.83-2.99 1.11-3.31 0.3-3.31 0.3z"/>
    <path d="m72.3 92.5s1.78 0.21 3.4-0.14 2.97-1.39 2.97-1.39l1.04 4.66s-1.54 1.09-2.95 1.35c-1.45 0.27-3.28 0.11-3.26 0.11z"/>
   </g>
   <g fill="#303031">
    <path d="m67.23 56.67c-2.19 0.61-3.83 1.97-3.94 4.36-0.14 3.1 0.56 4.93 1.41 7.88 0.54 1.89 1.17 6.22 6.9 4.79 3.94-0.99 3.52-4.65 3.38-7.32-0.14-2.69-0.7-6.19-1.69-7.74-0.92-1.44-3.52-2.67-6.06-1.97z"/>
    <path d="m72.54 47.42c0.87 1.29 0.9 3.07-0.24 3.83-1.13 0.76-3 0.22-3.87-1.07s-0.65-2.95 0.48-3.72c1.14-0.76 2.76-0.33 3.63 0.96z"/>
    <path d="m63.3 51.58c-0.42 1.5-1.86 2.58-3.17 2.21-1.32-0.37-2.01-2.03-1.6-3.53 0.42-1.5 1.82-2.42 3.14-2.05s2.04 1.87 1.63 3.37z"/>
   </g>
  </g>
  <rect x="319.13" y="390.13" width="160" height="160" fill-opacity="0" stroke-opacity="0"/>
  <path d="m239.88 303.23h48.657" color="#000000" fill="#808080" stroke-width="10" style="-inkscape-stroke:none"/>
  <path d="m239.88 298.23v10h48.656v-10z" color="#000000" fill="#999" style="-inkscape-stroke:none"/>
  <g fill="#999" fill-rule="evenodd">
   <path d="m300.08 303.23-17.3 10v-20z" color="#000000" stroke-width="2pt" style="-inkscape-stroke:none"/>
   <path d="m281.44 290.92v24.621l21.297-12.311-1.9961-1.1543zm2.666 4.6211 13.305 7.6894-13.305 7.6894z" color="#000000" style="-inkscape-stroke:none"/>
  </g>
  <rect x="319.13" y="223.23" width="160" height="160" fill-opacity="0" stroke-opacity="0"/>
  <g transform="matrix(1.1312 0 0 1.1312 331.4 234.73)">
   <path transform="translate(0 -.00187)" d="m79.03 64.572c-3.01e-4 -1.8869-0.16088-3.7703-0.48-5.63-0.81-4.68 0.1-5.41 2.56-5.71 2.18-0.26 8.91 2.02 10.97 0.2 1.57-1.38 1.53-2.42 1.62-4.38 0.13-2.69 2.72-3.41 4.07-3.7 0.19582 0.25784 0.48134 0.43272 0.8 0.49 1.1048 0.17816 1.8732-1.0682 1.2181-1.9753-0.65511-0.90707-2.0799-0.56944-2.2581 0.53532-0.0017 0.06682 0.0017 0.13368 0.01 0.2-0.9716 0.07174-1.9257-0.28652-2.61-0.98-0.44-0.68 1.85-3.5 3.08-4.98 0.15438 0.10524 0.32751 0.17992 0.51 0.22 1.1048 0.17816 1.8732-1.0682 1.2181-1.9753-0.65511-0.90707-2.0799-0.56944-2.2581 0.53532-0.02811 0.20599-4e-3 0.41574 0.07 0.61-1.14 1.13-3.37 3.31-3.98 3.18-0.73-0.16-0.22-4.84 0.05-7.04 0.49603-0.11275 0.87274-0.51722 0.95-1.02 0.26703-1.6536-2.213-2.0536-2.48-0.4-0.08247 0.55433 0.21664 1.0952 0.73 1.32-0.49 2.21-1.44 6.9-1.99 7.03-0.59 0.15-1.42-3.36-1.93-5.59 0.29445-0.18904 0.49446-0.49453 0.55-0.84 0.17816-1.1048-1.0682-1.8732-1.9753-1.2181s-0.56944 2.0799 0.53532 2.2581h0.05c0.3 2.11 0.63 5.44 0.32 6-0.37 0.66-2.04 0.55-3.19 0.37 0.14889-1.1-1.0994-1.8365-1.9903-1.1746-0.89086 0.66196-0.54585 2.0697 0.5503 2.2446 0.38087 0.05678 0.76623-0.0692 1.04-0.34 1.69 0.74 3.55 1.61 3.99 3.07 0.37321 1.12-0.21154 2.3338-1.32 2.74 0 0-9.33-0.36-12.43 0.53-2.11 0.6-2.12 4.87-1.96 8.21-0.5-0.5-0.99-1.02-1.51-1.49-1.2872-1.1634-2.643-2.2487-4.06-3.25-3.0543-2.1934-6.3956-3.9565-9.93-5.24-2.0692-0.75189-4.2106-1.2881-6.39-1.6-0.89-0.13-1.8-0.27-2.72-0.43 0.81048-1.662 1.1823-3.5037 1.08-5.35-0.09-3.7-1.46-9.8 0.06-12.69 0.94698-1.6308 2.1959-3.0664 3.68-4.23 0.17271 0.16806 0.39242 0.27966 0.63 0.32 1.1048 0.17816 1.8732-1.0682 1.2181-1.9753s-2.0799-0.56944-2.2581 0.53532c-0.0339 0.24771 0.01162 0.49979 0.13 0.72-1.12 0.91-2.61 1.68-3.32 1.12-0.8-0.62 0.64-3.47 1.42-4.99 0.06097 0.02931 0.12459 0.05275 0.19 0.07 1.1048 0.17816 1.8732-1.0682 1.2181-1.9753s-2.0799-0.56944-2.2581 0.53532c-0.05992 0.40564 0.08635 0.81445 0.39 1.09-0.71 1.61-2.11 4.59-2.97 4.04-0.54-0.35-0.13-4.05-0.29-6.33 0.38308-0.16372 0.65764-0.50974 0.73-0.92 0.17816-1.1048-1.0682-1.8732-1.9753-1.2181s-0.56944 2.0799 0.53532 2.2581c0.06 1.89 0.05 5.99-0.92 6.35-0.91 0.34-2.37-1.9-3.76-4.41 0.16595-0.17025 0.27736-0.38611 0.32-0.62 0.17816-1.1048-1.0682-1.8732-1.9753-1.2181s-0.56944 2.0799 0.53532 2.2581c0.16622 0.02856 0.33659 0.02175 0.5-0.02 0.85 1.4 2.89 4.88 2.13 5.87-0.35 0.46-2.24 0.39-3.79 0.37-0.09656-0.51243-0.50492-0.90878-1.02-0.99-1.0019-0.17102-1.7814 0.85665-1.3468 1.7753 0.43465 0.9187 1.7236 0.96774 2.2268 0.08466 1.64 0.62 3.78 1.71 4.41 2.86 1.36 2.45 3.57 10.91-0.64 13.38-0.87863 0.51152-1.7946 0.95611-2.74 1.33-2.3383-0.68822-4.4712-1.9418-6.21-3.65-1.5898-1.5718-2.39-3.7743-2.18-6 0.26-2.81 0.72-5.37 0.22-8.48-0.2495-1.533-0.68262-3.0305-1.29-4.46-0.09-0.22-0.23-0.46-0.35-0.7-1.42-2.74-4.79-6.62-8.2-10.07-3.85-3.89-7.75-7.23-8.97-7.72-1.5649-0.73853-3.4322-0.068615-4.1708 1.4963l-0.02918 0.063656c-0.87 1.04-1.98 4.14-2.84 8.04-1.18 5.35-1.89 12.22-0.86 17.46 1.62 8.21 6.4 11.68 9.02 13.66 1.94 1.47 2.29 2.29 5.45 5.25 1.81 1.69 3.21 8.21 4.37 10.46 0.59 1.15 1.23 2.31 1.93 3.46l-0.17 2.65s-0.2 5.34-1.27 7.47c-0.49185 1.112-1.2225 2.1021-2.14 2.9 0 0-3.66-5.41-3.05-9.52 0.17413-1.2584 0.41446-2.5068 0.72-3.74 0.5416-0.07245 0.97203-0.4907 1.06-1.03 0.2663-1.6531-2.2137-2.0531-2.48-0.4-0.08414 0.53847 0.19688 1.0679 0.69 1.3-0.23 1.18-0.63 2.81-1.61 2.78-1.24-0.04-2.98-4.9-3.73-7.1 1.2049-0.68746 0.51827-2.5295-0.8408-2.2648s-1.304 2.2298 0.0708 2.4148c0.04 0.01 0.07-0.01 0.1 0 0.8 2 2.62 6.42 1.73 6.89-0.83 0.44-4.02-3.34-5.81-5.4 0.87295-1.2448-0.67709-2.7455-1.8932-1.838-1.2161 0.90754-0.21858 2.8206 1.2232 2.338 1.44 1.48 5.46 5.77 4.83 6.69-0.55 0.81-3.68-0.11-5.59-0.85 0.018344-0.61789-0.4208-1.1551-1.03-1.26-0.97832-0.16964-1.7574 0.8093-1.3725 1.7246 0.38488 0.91526 1.6294 1.0433 2.1925 0.22544 1.84 0.63 5.29 1.65 5.14 2.64-0.13 0.89-1.24 0.96-2.64 1.4-0.78535-1.1249-2.5442-0.33877-2.2329 0.9955 0.31133 1.3343 2.2365 1.2608 2.4429-0.095504v-0.06c1.56-0.38 4.34-0.82 5.9 0.9 1.96 2.15 5.83 10.96 7.89 9.96 1.8-0.87 6.14-10.1 8.14-12.44 2.1432 1.628 4.4897 2.9693 6.98 3.99 1.7377 0.72357 3.5177 1.3414 5.33 1.85 2.18 0.63 4.4 1.14 6.62 1.62 1.62 0.36 3.36 0.7 5.13 1.1-2.26 1.27-7.62 4.36-8.89 5.79-1.63 1.83-0.61 3.05 0.71 4.07 0.83 0.64 0.37 0.7 9.25 3.66-1.1504 0.51098-2.402 0.75376-3.66 0.71-1.51 0-3.45-1-4.72-1.68 0-0.02 0.01-0.03 0.02-0.05 0.17816-1.1048-1.0682-1.8732-1.9753-1.2181s-0.56944 2.0799 0.53532 2.2581c0.35977 0.05519 0.72558-0.0509 1-0.29 1.28 0.66 3.83 1.79 2.7 2.4-1.07 0.57-5.65 0.71-8.09 1.24-0.18534-0.3079-0.49572-0.51968-0.85-0.58-1.6531-0.2663-2.0531 2.2137-0.4 2.48 0.60978 0.09248 1.1944-0.27877 1.37-0.87 1.59-0.15 7.39-0.57 7.76 0.17 0.34 0.67-4.9 3.63-7.32 5.65-0.07763-0.036-0.15786-0.0661-0.24-0.09-1.1048-0.17817-1.8732 1.0682-1.2181 1.9753 0.65511 0.90707 2.0799 0.56944 2.2581-0.53532 0.02879-0.16286 0.02196-0.33003-0.02-0.49 1.65-1.18 7.87-5.3 8.79-4.56 0.82 0.65-1.35 5.78-2.41 8.49-1.0249 0.12132-1.4679 1.3633-0.75126 2.1059 0.7166 0.74257 1.9736 0.34402 2.1313-0.67587 0.05992-0.40564-0.08635-0.81445-0.39-1.09 0.94-1.89 4.07-7.99 4.71-7.89 0.59 0.09 0.45 4.46 0.45 6.03-0.29711 0.18815-0.50059 0.49338-0.56 0.84-0.17816 1.1048 1.0682 1.8732 1.9753 1.2181s0.56944-2.0799-0.53532-2.2581h-0.06c0.42-2.85 0.96-7.39 1.42-7.7 0.61-0.41 6.51-3.35 6.2-5.39-0.31-2.03-4.78-4.27-7.93-5.18s8.54 2.54 11.39-1.73c0.39-0.58 0.45043-0.74304 1.03-1.53 2.2905-2.5541 9.9602-9.9306 8.53-18.74z" fill="none" stroke="#2e7d32" stroke-linecap="round" stroke-linejoin="round" stroke-width="4px"/>
   <path transform="translate(0 -.00187)" d="m40.73 18.152c0.3 0.52 3.37 5.25 2.46 6.43-0.47 0.61-3.62 0.28-5.12 0.39a0.22377 0.22377 0 0 0-0.04 0.44c1.53 0.4 4.83 1.79 5.64 3.26 1.36 2.45 3.57 10.91-0.64 13.38a25.6 25.6 0 0 1-9.08 3l-0.87 3.76 7.16 1.13 7.73-4.29a10.112 10.112 0 0 0 1.26-5.66c-0.09-3.7-1.46-9.8 0.06-12.69 1.46-2.79 4.33-4.63 4.55-5.01 0.22-0.37-0.2-0.51-0.41-0.28-1.08 1.12-3.18 2.49-4.07 1.8-1.01-0.78 1.59-5.18 1.85-5.87s-0.19-0.96-0.49-0.32-2.28 5.66-3.37 4.95c-0.65-0.42 0.07-5.64-0.46-7.48-0.29-1.02-0.61-0.18-0.58 0.36s0.33 6.82-0.88 7.26c-0.96 0.36-2.52-2.15-3.98-4.81-0.62-1.14-1.27-0.73-0.72 0.25z" fill="url(#linearGradient20794)"/>
   <path transform="translate(0 -.00187)" d="m26.01 64.862s-0.2 5.34-1.27 7.47a8.2836 8.2836 0 0 1-2.14 2.9s-3.66-5.41-3.05-9.52a23.57 23.57 0 0 1 1.03-4.74c0.19-0.58-0.57-0.8-0.8-0.19-0.24 0.61-0.47 3.9-1.84 3.85-1.5-0.05-3.76-7.24-4.06-8.08s-0.92-0.57-0.68 0.23 3.15 7.2 2.07 7.78c-0.94 0.5-4.91-4.43-6.45-6.11-0.47-0.52-1.3-0.18-0.54 0.71 0 0 6.1 6.09 5.34 7.2-0.66 0.96-5-0.53-6.56-1.25-0.51-0.24-0.95 0.15-0.32 0.64 0.63 0.5 6.4 1.81 6.21 3.09-0.15 0.99-1.52 0.96-3.17 1.58-1.07 0.4-1.18 1.15-0.2 0.9s4.87-1.5 6.83 0.66 5.83 10.96 7.89 9.96 7.46-12.96 8.84-12.98c0.94-0.01-6.73-10.5-6.73-10.5z" fill="url(#linearGradient20796)"/>
   <path transform="translate(0 -.00187)" d="m69.46 61.442s3.35 1.73 3.46-0.51c0.1-2.24-1.26-10.9 1.8-11.77 3.1-0.89 12.43-0.53 12.43-0.53a2.1832 2.1832 0 0 0 1.32-2.74c-0.5-1.67-2.84-2.56-4.67-3.37-0.4-0.18-0.55-0.82 0.08-0.63s3.67 0.75 4.18-0.16c0.42-0.76-0.33-6.61-0.6-7.62s0.47-1.11 0.71-0.3c0.25 0.81 1.51 7.51 2.32 7.3 0.68-0.17 2.01-7.43 2.25-8.12 0.25-0.69 0.71-0.54 0.66 0.1s-1.09 7.92-0.17 8.12c0.72 0.16 3.76-2.98 4.5-3.69s1.03-0.25 0.66 0.25c-0.37 0.49-4.38 4.98-3.81 5.86 0.54 0.84 2.39 1.18 3.32 0.89 0.93-0.3 0.64 0.45 0.3 0.66-0.34 0.22-4.67 0.39-4.85 3.89-0.1 1.96-0.05 3-1.62 4.38-2.07 1.82-8.79-0.46-10.97-0.2-2.46 0.3-3.37 1.03-2.56 5.71s0.7 10.86-1.23 12.89-2.54 1.8-2.54 1.8z" fill="url(#linearGradient20798)"/>
   <path transform="translate(0 -.00187)" d="m57.51 77.482s-8.29 4.53-9.91 6.36-0.61 3.05 0.71 4.07c0.83 0.64 0.37 0.7 9.25 3.66a8.3052 8.3052 0 0 1-3.66 0.71c-1.75 0-4.09-1.35-5.27-1.98s-1.22 0.15-0.41 0.7 4.55 1.99 3.23 2.7c-1.11 0.6-6.02 0.72-8.37 1.3-1.48 0.37-0.73 1.09 0.07 1 0.81-0.1 7.69-0.67 8.09 0.14 0.35 0.7-5.35 3.88-7.61 5.9-1.37 1.22 0.07 1.4 0.7 0.89 0.63-0.52 8.15-5.66 9.17-4.84 0.85 0.68-1.56 6.29-2.55 8.86-0.55 1.44 0.59 1.11 0.89 0.48s4.24-8.52 4.97-8.41c0.64 0.1 0.42 5.24 0.45 6.37s0.63 0.71 0.73 0.06c0.42-2.76 1.01-7.97 1.5-8.3 0.61-0.41 6.51-3.35 6.2-5.39-0.3-2.03-4.78-4.27-7.93-5.18s8.54 2.54 11.39-1.73 3.35-4.88 3.35-4.88z" fill="url(#linearGradient20800)"/>
   <g fill="#6bb828">
    <circle cx="87.89" cy="34.48" r="1.25"/>
    <circle cx="40.76" cy="17.49" r="1.25"/>
    <circle cx="8.39" cy="58.48" r="1.25"/>
    <circle cx="6.77" cy="65.48" r="1.25"/>
    <circle cx="9.26" cy="70.93" r="1.25"/>
    <circle cx="47.97" cy="90.35" r="1.25"/>
    <circle cx="42.32" cy="95.6" r="1.25"/>
    <circle cx="43.5" cy="102.95" r="1.25"/>
    <circle cx="51.25" cy="107.8" r="1.25"/>
    <circle cx="57.94" cy="106.09" r="1.25"/>
    <circle cx="20.08" cy="60.74" r="1.25"/>
    <circle cx="46.55" cy="15.13" r="1.25"/>
    <circle cx="51.18" cy="17.66" r="1.25"/>
    <circle cx="53.8" cy="22.17" r="1.25"/>
    <circle cx="38.19" cy="25.2" r="1.25"/>
    <circle cx="13.62" cy="56.43" r="1.25"/>
    <circle cx="93.01" cy="32.95" r="1.25"/>
    <circle cx="98.39" cy="37.62" r="1.25"/>
    <circle cx="98.44" cy="44.61" r="1.25"/>
    <circle cx="83.63" cy="41.91" r="1.25"/>
   </g>
   <path transform="translate(0 -.00187)" d="m79.78 66.172c-2.3913-3.7867-5.2618-7.2487-8.54-10.3-1.2872-1.1634-2.643-2.2487-4.06-3.25-3.0543-2.1934-6.3956-3.9565-9.93-5.24-2.0692-0.75189-4.2106-1.2881-6.39-1.6-3.4074-0.44583-6.7699-1.1852-10.05-2.21-2.5401-0.68468-4.8635-2.0064-6.75-3.84-1.5898-1.5718-2.39-3.7743-2.18-6 0.26-2.81 0.72-5.37 0.22-8.48-0.24951-1.533-0.68262-3.0305-1.29-4.46-0.09-0.22-0.23-0.46-0.35-0.7-1.42-2.74-4.79-6.62-8.2-10.07 1.81 4.83 2.21 9.9-0.32 14.98 0 1.05-3.15 3.15-6.3 2.1-6.42-2.57-8.91-8.68-9.4-15.19-1.18 5.35-1.89 12.22-0.86 17.46 1.62 8.21 6.4 11.68 9.02 13.66 1.94 1.47 2.29 2.29 5.45 5.25 1.81 1.69 3.21 8.21 4.37 10.46 1.5835 3.302 3.6607 6.3435 6.16 9.02 0.38 0.38 0.77 0.74 1.18 1.08 2.3602 1.9339 5.0003 3.4983 7.83 4.64 1.7377 0.72358 3.5177 1.3414 5.33 1.85 2.18 0.63 4.4 1.14 6.62 1.62 2.1 0.46 4.39 0.91 6.71 1.45 3.4755 0.72505 6.8363 1.9193 9.99 3.55 1.5812 1.1509 2.8562 2.0218 3.8638 2.8301 2.0234-2.042 4.1878-4.7221 5.7133-7.0387 1.2799-1.9452 2.9473-5.5225 3.3832-7.6087 0.43588-2.0861-0.35973-2.681-1.2202-3.9628z" fill="url(#linearGradient26397)"/>
   <path transform="translate(0 -.00187)" d="m15.66 27.102c3.15 1.05 6.3-1.05 6.3-2.1 2.54-5.07 2.13-10.14 0.32-14.98-3.85-3.89-7.75-7.23-8.97-7.72a3.1333 3.1333 0 0 0-4.1708 1.4963l-0.02918 0.06366c-0.87 1.04-1.98 4.14-2.84 8.04 0.48 6.53 2.97 12.63 9.39 15.2z" fill="#aed581"/>
   <path transform="translate(0 -.00187)" d="m6.26 27.752a5.58 5.58 0 1 1 5.58-5.58 5.58 5.58 0 0 1-5.58 5.58z" fill="#fff"/>
   <path transform="translate(0 -.00187)" d="m6.26 17.272a4.9 4.9 0 1 1-4.9 4.9 4.8951 4.8951 0 0 1 4.8903-4.9h0.00972m0-1.37a6.26 6.26 0 1 0 6.26 6.26 6.26 6.26 0 0 0-6.26-6.26z" fill="#b3b3b3"/>
   <circle cx="4.91" cy="19.87" r="2.39"/>
   <path transform="translate(0 -.00187)" d="m25.34 20.202a5.58 5.58 0 1 1 5.58-5.58 5.5822 5.5822 0 0 1-5.58 5.58z" fill="#fff"/>
   <path transform="translate(0 -.00187)" d="m25.33 9.7223a4.9 4.9 0 1 1-4.9 4.9 4.8952 4.8952 0 0 1 4.8903-4.9h0.00972m0-1.36a6.26 6.26 0 1 0 6.26 6.26 6.26 6.26 0 0 0-6.26-6.26z" fill="#b3b3b3"/>
   <circle cx="25.64" cy="12.22" r="2.39"/>
   <path transform="translate(0 -.00187)" d="m22.59 32.182s0.11 0.4 0.33 1.14c0.21 0.78 0.54 1.74 0.99 3.02 0.53369 1.5091 1.1996 2.9681 1.99 4.36 1.0306 1.7609 2.2806 3.3839 3.72 4.83 1.8118 1.7743 3.7466 3.4184 5.79 4.92 1.09 0.82 2.29 1.74 3.43 2.51l0.92 0.64 0.89 0.56c0.58 0.38 1.2 0.75 1.86 1.12 2.6849 1.534 5.445 2.9325 8.27 4.19 2.92 1.32 5.95 2.62 8.97 4.05 3.0565 1.4052 6.0282 2.9879 8.9 4.74l0.54 0.33 0.3 0.19 0.25 0.17c0.34 0.24 0.65 0.43 1.01 0.71 0.72 0.53 0 0 2.03 1.6 3.5844 2.8647 3.7011 3.6885 5.3334 5.6784-0.83656 1.4738-1.7633 2.6541-2.1246 3.0936-0.16218-0.21039-0.02838-0.047-0.59377-0.78304-0.9404-1.0267-0.74811-0.82711-1.855-1.909-1.0339-1.0617-2.1399-2.0507-3.31-2.96-0.59-0.46-1.2-0.9-1.8-1.29-0.28-0.2-0.66-0.42-0.99-0.63l-0.26-0.16-0.22-0.13-0.51-0.29c-2.7677-1.5895-5.6296-3.0088-8.57-4.25-5.96-2.57-12.2-4.96-17.81-8.12-0.7-0.38-1.39-0.8-2.08-1.24l-1.02-0.65-0.92-0.64c-1.32-0.9-2.43-1.75-3.61-2.62-2.2444-1.6464-4.3514-3.4724-6.3-5.46-1.7046-1.771-3.1552-3.7701-4.31-5.94-0.87252-1.6521-1.5954-3.379-2.16-5.16-0.47-1.45-0.76-2.67-0.92-3.39-0.17-0.75-0.26-1.16-0.26-1.16-0.5721-2.6486 3.3049-3.6603 4.1-1.07z" fill="url(#linearGradient26399)"/>
  </g>
  <g transform="matrix(1.1312 0 0 1.1312 75.757 234.73)">
   <path transform="translate(0 -.00187)" d="m117.26 105.12a7.3407 7.3407 0 0 0-2.24-2.97 7.0762 7.0762 0 0 0-2.97-1.4 7.3622 7.3622 0 0 0-2.76-0.04 7.7347 7.7347 0 0 0-2 0.63 7.6412 7.6412 0 0 0-1.16 0.69c-0.25 0.19-0.38 0.29-0.38 0.29a0.3916 0.3916 0 0 0-0.08 0.53 0.39908 0.39908 0 0 0 0.55537 0.10064l0.0146-0.0106s0.12-0.08 0.35-0.24a7.1756 7.1756 0 0 1 1.06-0.54 6.8804 6.8804 0 0 1 1.78-0.45 6.2255 6.2255 0 0 1 2.32 0.17 5.7483 5.7483 0 0 1 2.39 1.3 5.8594 5.8594 0 0 1 1.65 2.48 5.6782 5.6782 0 0 1 0.11 3.12 8.7696 8.7696 0 0 1-1.38 3.06 10.54 10.54 0 0 1-10.76 4.34c-0.19-0.04-0.38-0.1-0.57-0.15a20.972 20.972 0 0 1-3.32-2.07c-3.44-2.68-5.07-7.05-6.01-11.3-1.05-4.76-2.01-9.35-3.47-14.01-0.85-2.71-1.79-5.4-2.86-8.04-0.87-2.15-1.85-4.32-2.91-6.47a76.27 76.27 0 0 0-4.49-7.97c-0.35-0.54-0.73-1.07-1.1-1.6a33.32 33.32 0 0 0-0.48-5.63c-0.81-4.68 0.1-5.41 2.56-5.71 2.18-0.26 8.91 2.02 10.97 0.2 1.57-1.38 1.53-2.42 1.62-4.38 0.13-2.69 2.72-3.41 4.07-3.7a1.2914 1.2914 0 0 0 0.8 0.49 1.256 1.256 0 1 0-1.04-1.44 1.3422 1.3422 0 0 0 0.01 0.2 3.3229 3.3229 0 0 1-2.61-0.98c-0.44-0.68 1.85-3.5 3.08-4.98a1.4624 1.4624 0 0 0 0.51 0.22 1.256 1.256 0 1 0-1.04-1.44 1.2414 1.2414 0 0 0 0.07 0.61c-1.14 1.13-3.37 3.31-3.98 3.18-0.73-0.16-0.22-4.84 0.05-7.04a1.239 1.239 0 0 0 0.95-1.02 1.256 1.256 0 1 0-2.48-0.4 1.2416 1.2416 0 0 0 0.73 1.32c-0.49 2.21-1.44 6.9-1.99 7.03-0.59 0.15-1.42-3.36-1.93-5.59a1.2303 1.2303 0 0 0 0.55-0.84 1.256 1.256 0 1 0-1.44 1.04h0.05c0.3 2.11 0.63 5.44 0.32 6-0.37 0.66-2.04 0.55-3.19 0.37a1.2538 1.2538 0 1 0-1.44 1.07 1.2225 1.2225 0 0 0 1.04-0.34c1.69 0.74 3.55 1.61 3.99 3.07a2.1831 2.1831 0 0 1-1.32 2.74s-9.33-0.36-12.43 0.53c-2.11 0.6-2.12 4.87-1.96 8.21-0.5-0.5-0.99-1.02-1.51-1.49a43.44 43.44 0 0 0-4.06-3.25 41.036 41.036 0 0 0-9.93-5.24 31.977 31.977 0 0 0-6.39-1.6c-0.89-0.13-1.8-0.27-2.72-0.43a10.838 10.838 0 0 0 1.08-5.35c-0.09-3.7-1.46-9.8 0.06-12.69a14.852 14.852 0 0 1 3.68-4.23 1.1886 1.1886 0 0 0 0.63 0.32 1.256 1.256 0 1 0-1.04-1.44 1.1821 1.1821 0 0 0 0.13 0.72c-1.12 0.91-2.61 1.68-3.32 1.12-0.8-0.62 0.64-3.47 1.42-4.99a1.0658 1.0658 0 0 0 0.19 0.07 1.256 1.256 0 1 0-1.04-1.44 1.2293 1.2293 0 0 0 0.39 1.09c-0.71 1.61-2.11 4.59-2.97 4.04-0.54-0.35-0.13-4.05-0.29-6.33a1.2335 1.2335 0 0 0 0.73-0.92 1.256 1.256 0 1 0-1.44 1.04c0.06 1.89 0.05 5.99-0.92 6.35-0.91 0.34-2.37-1.9-3.76-4.41a1.1954 1.1954 0 0 0 0.32-0.62 1.256 1.256 0 1 0-1.44 1.04 1.1994 1.1994 0 0 0 0.5-0.02c0.85 1.4 2.89 4.88 2.13 5.87-0.35 0.46-2.24 0.39-3.79 0.37a1.2335 1.2335 0 0 0-1.02-0.99 1.2561 1.2561 0 1 0 0.88 1.86c1.64 0.62 3.78 1.71 4.41 2.86 1.36 2.45 3.57 10.91-0.64 13.38a20.24 20.24 0 0 1-2.74 1.33 14.841 14.841 0 0 1-6.21-3.65 7.4531 7.4531 0 0 1-2.18-6c0.26-2.81 0.72-5.37 0.22-8.48a19.357 19.357 0 0 0-1.29-4.46c-0.09-0.22-0.23-0.46-0.35-0.7-1.42-2.74-4.79-6.62-8.2-10.07-3.85-3.89-7.75-7.23-8.97-7.72a3.1333 3.1333 0 0 0-4.1708 1.4963l-0.02918 0.06366c-0.87 1.04-1.98 4.14-2.84 8.04-1.18 5.35-1.89 12.22-0.86 17.46 1.62 8.21 6.4 11.68 9.02 13.66 1.94 1.47 2.29 2.29 5.45 5.25 1.81 1.69 3.21 8.21 4.37 10.46 0.59 1.15 1.23 2.31 1.93 3.46l-0.17 2.65s-0.2 5.34-1.27 7.47a8.2836 8.2836 0 0 1-2.14 2.9s-3.66-5.41-3.05-9.52a36.157 36.157 0 0 1 0.72-3.74 1.2407 1.2407 0 0 0 1.06-1.03 1.256 1.256 0 0 0-2.48-0.4 1.2274 1.2274 0 0 0 0.69 1.3c-0.23 1.18-0.63 2.81-1.61 2.78-1.24-0.04-2.98-4.9-3.73-7.1a1.2244 1.2244 0 1 0-0.77 0.15c0.04 0.01 0.07-0.01 0.1 0 0.8 2 2.62 6.42 1.73 6.89-0.83 0.44-4.02-3.34-5.81-5.4a1.3364 1.3364 0 1 0-0.67 0.5c1.44 1.48 5.46 5.77 4.83 6.69-0.55 0.81-3.68-0.11-5.59-0.85a1.2412 1.2412 0 0 0-1.03-1.26 1.2561 1.2561 0 1 0 0.82 1.95c1.84 0.63 5.29 1.65 5.14 2.64-0.13 0.89-1.24 0.96-2.64 1.4a1.245 1.245 0 1 0 0.21 0.9v-0.06c1.56-0.38 4.34-0.82 5.9 0.9 1.96 2.15 5.83 10.96 7.89 9.96 1.8-0.87 6.14-10.1 8.14-12.44a30.932 30.932 0 0 0 6.98 3.99 46.68 46.68 0 0 0 5.33 1.85c2.18 0.63 4.4 1.14 6.62 1.62 1.62 0.36 3.36 0.7 5.13 1.1-2.26 1.27-7.62 4.36-8.89 5.79-1.63 1.83-0.61 3.05 0.71 4.07 0.83 0.64 0.37 0.7 9.25 3.66a8.3052 8.3052 0 0 1-3.66 0.71c-1.51 0-3.45-1-4.72-1.68 0-0.02 0.01-0.03 0.02-0.05a1.256 1.256 0 1 0-1.44 1.04 1.2368 1.2368 0 0 0 1-0.29c1.28 0.66 3.83 1.79 2.7 2.4-1.07 0.57-5.65 0.71-8.09 1.24a1.2338 1.2338 0 0 0-0.85-0.58 1.256 1.256 0 0 0-0.4 2.48 1.2358 1.2358 0 0 0 1.37-0.87c1.59-0.15 7.39-0.57 7.76 0.17 0.34 0.67-4.9 3.63-7.32 5.65a1.7053 1.7053 0 0 0-0.24-0.09 1.256 1.256 0 1 0 1.04 1.44 1.1454 1.1454 0 0 0-0.02-0.49c1.65-1.18 7.87-5.3 8.79-4.56 0.82 0.65-1.35 5.78-2.41 8.49a1.248 1.248 0 1 0 1.38 1.43 1.2293 1.2293 0 0 0-0.39-1.09c0.94-1.89 4.07-7.99 4.71-7.89 0.59 0.09 0.45 4.46 0.45 6.03a1.2428 1.2428 0 0 0-0.56 0.84 1.256 1.256 0 1 0 1.44-1.04h-0.06c0.42-2.85 0.96-7.39 1.42-7.7 0.61-0.41 6.51-3.35 6.2-5.39-0.31-2.03-4.78-4.27-7.93-5.18s8.54 2.54 11.39-1.73c0.39-0.58 0.72-1.08 1.03-1.53a15.042 15.042 0 0 1 2.38 2.13 36.359 36.359 0 0 1 5.71 8.44 71.907 71.907 0 0 0 4.64 9.19 47.627 47.627 0 0 0 8.42 9.72 37.265 37.265 0 0 0 5.12 3.91 16.329 16.329 0 0 0 9.82 2.36c0.3-0.03 0.6-0.07 0.9-0.13l0.23-0.04 0.24-0.05 0.41-0.1a13.739 13.739 0 0 0 1.84-0.63 13.047 13.047 0 0 0 5.98-5.19 10.603 10.603 0 0 0 1.43-3.81 7.1202 7.1202 0 0 0-0.36-3.99z" fill="none" stroke="#2e7d32" stroke-linecap="round" stroke-linejoin="round" stroke-width="4px"/>
   <path transform="translate(0 -.00187)" d="m40.73 18.152c0.3 0.52 3.37 5.25 2.46 6.43-0.47 0.61-3.62 0.28-5.12 0.39a0.22377 0.22377 0 0 0-0.04 0.44c1.53 0.4 4.83 1.79 5.64 3.26 1.36 2.45 3.57 10.91-0.64 13.38a25.6 25.6 0 0 1-9.08 3l-0.87 3.76 7.16 1.13 7.73-4.29a10.112 10.112 0 0 0 1.26-5.66c-0.09-3.7-1.46-9.8 0.06-12.69 1.46-2.79 4.33-4.63 4.55-5.01 0.22-0.37-0.2-0.51-0.41-0.28-1.08 1.12-3.18 2.49-4.07 1.8-1.01-0.78 1.59-5.18 1.85-5.87s-0.19-0.96-0.49-0.32-2.28 5.66-3.37 4.95c-0.65-0.42 0.07-5.64-0.46-7.48-0.29-1.02-0.61-0.18-0.58 0.36s0.33 6.82-0.88 7.26c-0.96 0.36-2.52-2.15-3.98-4.81-0.62-1.14-1.27-0.73-0.72 0.25z" fill="url(#linearGradient20794)"/>
   <path transform="translate(0 -.00187)" d="m26.01 64.862s-0.2 5.34-1.27 7.47a8.2836 8.2836 0 0 1-2.14 2.9s-3.66-5.41-3.05-9.52a23.57 23.57 0 0 1 1.03-4.74c0.19-0.58-0.57-0.8-0.8-0.19-0.24 0.61-0.47 3.9-1.84 3.85-1.5-0.05-3.76-7.24-4.06-8.08s-0.92-0.57-0.68 0.23 3.15 7.2 2.07 7.78c-0.94 0.5-4.91-4.43-6.45-6.11-0.47-0.52-1.3-0.18-0.54 0.71 0 0 6.1 6.09 5.34 7.2-0.66 0.96-5-0.53-6.56-1.25-0.51-0.24-0.95 0.15-0.32 0.64 0.63 0.5 6.4 1.81 6.21 3.09-0.15 0.99-1.52 0.96-3.17 1.58-1.07 0.4-1.18 1.15-0.2 0.9s4.87-1.5 6.83 0.66 5.83 10.96 7.89 9.96 7.46-12.96 8.84-12.98c0.94-0.01-6.73-10.5-6.73-10.5z" fill="url(#linearGradient20796)"/>
   <path transform="translate(0 -.00187)" d="m69.46 61.442s3.35 1.73 3.46-0.51c0.1-2.24-1.26-10.9 1.8-11.77 3.1-0.89 12.43-0.53 12.43-0.53a2.1832 2.1832 0 0 0 1.32-2.74c-0.5-1.67-2.84-2.56-4.67-3.37-0.4-0.18-0.55-0.82 0.08-0.63s3.67 0.75 4.18-0.16c0.42-0.76-0.33-6.61-0.6-7.62s0.47-1.11 0.71-0.3c0.25 0.81 1.51 7.51 2.32 7.3 0.68-0.17 2.01-7.43 2.25-8.12 0.25-0.69 0.71-0.54 0.66 0.1s-1.09 7.92-0.17 8.12c0.72 0.16 3.76-2.98 4.5-3.69s1.03-0.25 0.66 0.25c-0.37 0.49-4.38 4.98-3.81 5.86 0.54 0.84 2.39 1.18 3.32 0.89 0.93-0.3 0.64 0.45 0.3 0.66-0.34 0.22-4.67 0.39-4.85 3.89-0.1 1.96-0.05 3-1.62 4.38-2.07 1.82-8.79-0.46-10.97-0.2-2.46 0.3-3.37 1.03-2.56 5.71s0.7 10.86-1.23 12.89-2.54 1.8-2.54 1.8z" fill="url(#linearGradient20798)"/>
   <path transform="translate(0 -.00187)" d="m57.51 77.482s-8.29 4.53-9.91 6.36-0.61 3.05 0.71 4.07c0.83 0.64 0.37 0.7 9.25 3.66a8.3052 8.3052 0 0 1-3.66 0.71c-1.75 0-4.09-1.35-5.27-1.98s-1.22 0.15-0.41 0.7 4.55 1.99 3.23 2.7c-1.11 0.6-6.02 0.72-8.37 1.3-1.48 0.37-0.73 1.09 0.07 1 0.81-0.1 7.69-0.67 8.09 0.14 0.35 0.7-5.35 3.88-7.61 5.9-1.37 1.22 0.07 1.4 0.7 0.89 0.63-0.52 8.15-5.66 9.17-4.84 0.85 0.68-1.56 6.29-2.55 8.86-0.55 1.44 0.59 1.11 0.89 0.48s4.24-8.52 4.97-8.41c0.64 0.1 0.42 5.24 0.45 6.37s0.63 0.71 0.73 0.06c0.42-2.76 1.01-7.97 1.5-8.3 0.61-0.41 6.51-3.35 6.2-5.39-0.3-2.03-4.78-4.27-7.93-5.18s8.54 2.54 11.39-1.73 3.35-4.88 3.35-4.88z" fill="url(#linearGradient20800)"/>
   <g fill="#6bb828">
    <circle cx="87.89" cy="34.48" r="1.25"/>
    <circle cx="40.76" cy="17.49" r="1.25"/>
    <circle cx="8.39" cy="58.48" r="1.25"/>
    <circle cx="6.77" cy="65.48" r="1.25"/>
    <circle cx="9.26" cy="70.93" r="1.25"/>
    <circle cx="47.97" cy="90.35" r="1.25"/>
    <circle cx="42.32" cy="95.6" r="1.25"/>
    <circle cx="43.5" cy="102.95" r="1.25"/>
    <circle cx="51.25" cy="107.8" r="1.25"/>
    <circle cx="57.94" cy="106.09" r="1.25"/>
    <circle cx="20.08" cy="60.74" r="1.25"/>
    <circle cx="46.55" cy="15.13" r="1.25"/>
    <circle cx="51.18" cy="17.66" r="1.25"/>
    <circle cx="53.8" cy="22.17" r="1.25"/>
    <circle cx="38.19" cy="25.2" r="1.25"/>
    <circle cx="13.62" cy="56.43" r="1.25"/>
    <circle cx="93.01" cy="32.95" r="1.25"/>
    <circle cx="98.39" cy="37.62" r="1.25"/>
    <circle cx="98.44" cy="44.61" r="1.25"/>
    <circle cx="83.63" cy="41.91" r="1.25"/>
   </g>
   <path transform="translate(0 -.00187)" d="m116.91 105.12a7.3407 7.3407 0 0 0-2.24-2.97 7.0763 7.0763 0 0 0-2.97-1.4 7.3622 7.3622 0 0 0-2.76-0.04 7.7346 7.7346 0 0 0-2 0.63 7.6413 7.6413 0 0 0-1.16 0.69c-0.25 0.19-0.38 0.29-0.38 0.29a0.39161 0.39161 0 0 0-0.08 0.53 0.39909 0.39909 0 0 0 0.55537 0.10064l0.0146-0.0106s0.12-0.08 0.35-0.24a7.1757 7.1757 0 0 1 1.06-0.54 6.8795 6.8795 0 0 1 1.78-0.45 6.2255 6.2255 0 0 1 2.32 0.17 5.7485 5.7485 0 0 1 2.39 1.3 5.8596 5.8596 0 0 1 1.65 2.48 5.6786 5.6786 0 0 1 0.11 3.12 8.7698 8.7698 0 0 1-1.38 3.06 10.54 10.54 0 0 1-10.76 4.34c-0.19-0.04-0.38-0.1-0.57-0.15a20.974 20.974 0 0 1-3.32-2.07c-3.44-2.68-5.07-7.05-6.01-11.3-1.05-4.76-2.01-9.35-3.47-14.01-0.85-2.71-1.79-5.4-2.86-8.04-0.87-2.15-1.85-4.32-2.91-6.47a76.266 76.266 0 0 0-4.49-7.97 52.012 52.012 0 0 0-8.54-10.3 43.436 43.436 0 0 0-4.06-3.25 41.037 41.037 0 0 0-9.93-5.24 31.977 31.977 0 0 0-6.39-1.6 59.656 59.656 0 0 1-10.05-2.21 15.456 15.456 0 0 1-6.75-3.84 7.4531 7.4531 0 0 1-2.18-6c0.26-2.81 0.72-5.37 0.22-8.48a19.357 19.357 0 0 0-1.29-4.46c-0.09-0.22-0.23-0.46-0.35-0.7-1.42-2.74-4.79-6.62-8.2-10.07 1.81 4.83 2.21 9.9-0.32 14.98 0 1.05-3.15 3.15-6.3 2.1-6.42-2.57-8.91-8.68-9.4-15.19-1.18 5.35-1.89 12.22-0.86 17.46 1.62 8.21 6.4 11.68 9.02 13.66 1.94 1.47 2.29 2.29 5.45 5.25 1.81 1.69 3.21 8.21 4.37 10.46a36.068 36.068 0 0 0 6.16 9.02c0.38 0.38 0.77 0.74 1.18 1.08a30.159 30.159 0 0 0 7.83 4.64 46.676 46.676 0 0 0 5.33 1.85c2.18 0.63 4.4 1.14 6.62 1.62 2.1 0.46 4.39 0.91 6.71 1.45a39.164 39.164 0 0 1 9.99 3.55 17.133 17.133 0 0 1 4.5 3.5 36.36 36.36 0 0 1 5.71 8.44 71.911 71.911 0 0 0 4.64 9.19 47.627 47.627 0 0 0 8.42 9.72 37.263 37.263 0 0 0 5.12 3.91 16.329 16.329 0 0 0 9.82 2.36c0.3-0.03 0.6-0.07 0.9-0.13l0.23-0.04 0.24-0.05 0.41-0.1a13.742 13.742 0 0 0 1.84-0.63 13.047 13.047 0 0 0 5.98-5.19 10.603 10.603 0 0 0 1.43-3.81 7.239 7.239 0 0 0-0.37-4z" fill="url(#linearGradient20802)"/>
   <path transform="translate(0 -.00187)" d="m15.66 27.102c3.15 1.05 6.3-1.05 6.3-2.1 2.54-5.07 2.13-10.14 0.32-14.98-3.85-3.89-7.75-7.23-8.97-7.72a3.1333 3.1333 0 0 0-4.1708 1.4963l-0.02918 0.06366c-0.87 1.04-1.98 4.14-2.84 8.04 0.48 6.53 2.97 12.63 9.39 15.2z" fill="#aed581"/>
   <path transform="translate(0 -.00187)" d="m6.26 27.752a5.58 5.58 0 1 1 5.58-5.58 5.58 5.58 0 0 1-5.58 5.58z" fill="#fff"/>
   <path transform="translate(0 -.00187)" d="m6.26 17.272a4.9 4.9 0 1 1-4.9 4.9 4.8951 4.8951 0 0 1 4.8903-4.9h0.00972m0-1.37a6.26 6.26 0 1 0 6.26 6.26 6.26 6.26 0 0 0-6.26-6.26z" fill="#b3b3b3"/>
   <circle cx="4.91" cy="19.87" r="2.39"/>
   <path transform="translate(0 -.00187)" d="m25.34 20.202a5.58 5.58 0 1 1 5.58-5.58 5.5822 5.5822 0 0 1-5.58 5.58z" fill="#fff"/>
   <path transform="translate(0 -.00187)" d="m25.33 9.7223a4.9 4.9 0 1 1-4.9 4.9 4.8952 4.8952 0 0 1 4.8903-4.9h0.00972m0-1.36a6.26 6.26 0 1 0 6.26 6.26 6.26 6.26 0 0 0-6.26-6.26z" fill="#b3b3b3"/>
   <circle cx="25.64" cy="12.22" r="2.39"/>
   <path transform="translate(0 -.00187)" d="m22.59 32.182s0.11 0.4 0.33 1.14c0.21 0.78 0.54 1.74 0.99 3.02a27.187 27.187 0 0 0 1.99 4.36 24.112 24.112 0 0 0 3.72 4.83 53.856 53.856 0 0 0 5.79 4.92c1.09 0.82 2.29 1.74 3.43 2.51l0.92 0.64 0.89 0.56c0.58 0.38 1.2 0.75 1.86 1.12a92.494 92.494 0 0 0 8.27 4.19c2.92 1.32 5.95 2.62 8.97 4.05a86.321 86.321 0 0 1 8.9 4.74l0.54 0.33 0.3 0.19 0.25 0.17c0.34 0.24 0.65 0.43 1.01 0.71 0.72 0.53 1.38 1.06 2.03 1.6a36.329 36.329 0 0 1 3.54 3.47 51.257 51.257 0 0 1 8.92 14.87 75.524 75.524 0 0 1 3.54 11.55c0.32 1.42 0.52 2.54 0.65 3.3 0.13 0.77 0.2 1.17 0.2 1.17a0.17691 0.17691 0 0 1-0.14 0.2 0.18808 0.18808 0 0 1-0.19-0.11s-0.54-1.56-1.56-4.25a98.814 98.814 0 0 0-4.81-10.8 61.362 61.362 0 0 0-3.99-6.7 45.384 45.384 0 0 0-5.4-6.62 32.202 32.202 0 0 0-3.31-2.96c-0.59-0.46-1.2-0.9-1.8-1.29-0.28-0.2-0.66-0.42-0.99-0.63l-0.26-0.16-0.22-0.13-0.51-0.29a78.548 78.548 0 0 0-8.57-4.25c-5.96-2.57-12.2-4.96-17.81-8.12-0.7-0.38-1.39-0.8-2.08-1.24l-1.02-0.65-0.92-0.64c-1.32-0.9-2.43-1.75-3.61-2.62a51.385 51.385 0 0 1-6.3-5.46 26.557 26.557 0 0 1-4.31-5.94 31.308 31.308 0 0 1-2.16-5.16c-0.47-1.45-0.76-2.67-0.92-3.39-0.17-0.75-0.26-1.16-0.26-1.16a2.1206 2.1206 0 0 1 4.1-1.07z" fill="url(#linearGradient20804)"/>
  </g>
  <rect x="63.491" y="223.23" width="160" height="160" fill-opacity="0" stroke-opacity="0"/>
 </g>
</svg>
