<?xml version="1.0" encoding="UTF-8"?>
<!-- Created with Inkscape (http://www.inkscape.org/) -->
<svg width="371.5mm" height="207.03mm" version="1.1" viewBox="0 0 371.5 207.03" xmlns="http://www.w3.org/2000/svg">
 <g transform="translate(-287.4 -128.16)"></g>
 <g transform="translate(-287.4 -128.16)" stroke-miterlimit="2">
  <g>
   <rect x="287.4" y="128.2" width="165.14" height="206.99" fill="#deaa87" stroke-width="0"/>
   <rect x="411.42" y="129.67" width="81" height="204" fill="#b3b3b3" stroke-width="0"/>
   <rect x="411.42" y="129.67" width="40" height="40" fill="#e6e6e6" stroke="#b2b2b2"/>
  </g>
  <path d="m452.42 129.67h40v40h-40z" color="#000000" fill="#e6e6e6" style="-inkscape-stroke:none"/>
  <path d="m451.92 128.16v42.003h42.003v-42.003zm1 2.0031h39v39h-39z" color="#000000" fill="#b2b2b2" style="-inkscape-stroke:none"/>
  <g fill="#e6e6e6">
   <g stroke="#b2b2b2">
    <rect x="411.42" y="293.67" width="40" height="40"/>
    <rect transform="scale(1,-1)" x="452.42" y="-333.67" width="40" height="40"/>
    <rect x="452.42" y="252.67" width="40" height="40"/>
    <rect x="452.42" y="211.67" width="40" height="40"/>
   </g>
   <path d="m452.42 170.67h40v40h-40z" color="#000000" style="-inkscape-stroke:none"/>
  </g>
  <path d="m451.92 170.17v41h41v-41zm1 1h39v39h-39z" color="#000000" fill="#b2b2b2" style="-inkscape-stroke:none"/>
  <path d="m452.42 170.67h40v40h-40z" color="#000000" fill="#e6e6e6" style="-inkscape-stroke:none"/>
  <path d="m451.92 169.16v42.003h42.003v-42.003zm1 2.0031h39v39h-39z" color="#000000" fill="#b2b2b2" style="-inkscape-stroke:none"/>
  <path d="m452.42 211.67h40v40h-40z" color="#000000" fill="#e6e6e6" style="-inkscape-stroke:none"/>
  <path d="m451.92 210.16v42.003h42.003v-42.003zm1 2.0031h39v39h-39z" color="#000000" fill="#b2b2b2" style="-inkscape-stroke:none"/>
  <path d="m452.42 252.67h40v40h-40z" color="#000000" fill="#e6e6e6" style="-inkscape-stroke:none"/>
  <path d="m451.92 251.16v42.003h42.003v-42.003zm1 2.0031h39v39h-39z" color="#000000" fill="#b2b2b2" style="-inkscape-stroke:none"/>
  <g fill="#deaa87" stroke="#deaa87">
   <rect x="329.42" y="129.67" width="40" height="40"/>
   <rect x="288.25" y="129.5" width="40" height="40"/>
   <rect x="329.42" y="293.67" width="40" height="40"/>
   <rect x="329.42" y="211.67" width="40" height="40"/>
   <rect x="329.42" y="170.67" width="40" height="40"/>
   <rect x="370.42" y="211.67" width="40" height="40"/>
   <rect x="288.42" y="293.67" width="40" height="40"/>
   <rect x="288.42" y="252.67" width="40" height="40"/>
   <rect x="288.42" y="211.67" width="40" height="40"/>
   <rect x="288.42" y="170.67" width="40" height="40"/>
  </g>
  <g fill="#ffe8ce" stroke="#deaa87">
   <rect x="370.42" y="129.67" width="40" height="40"/>
   <rect x="329.42" y="252.67" width="40" height="40"/>
   <rect x="370.42" y="293.67" width="40" height="40"/>
   <rect x="370.42" y="252.67" width="40" height="40"/>
   <rect x="370.42" y="170.67" width="40" height="40"/>
   <rect x="411.42" y="252.67" width="40" height="40"/>
  </g>
  <rect x="411.42" y="211.67" width="40" height="40" fill="#ffe7cc" stroke="#deaa87"/>
  <rect x="411.42" y="170.67" width="40" height="40" fill="#ffe8ce" stroke="#deaa87"/>
  <path d="m452.42 293.67h40v40h-40z" color="#000000" fill="#e6e6e6" style="-inkscape-stroke:none"/>
  <path d="m451.92 292.16v43.005h42.003v-43.005zm1 2.0031h39v39h-39z" color="#000000" fill="#b2b2b2" style="-inkscape-stroke:none"/>
  <path d="m411.42 129.67h40v40h-40z" color="#000000" fill="#e6e6e6" style="-inkscape-stroke:none"/>
  <path d="m410.92 128.16v42.003h41.006v-42.003zm1 2.0031h39v39h-39z" color="#000000" fill="#b2b2b2" style="-inkscape-stroke:none"/>
  <path d="m411.42 333.67h40v-40h-40z" color="#000000" fill="#e6e6e6" style="-inkscape-stroke:none"/>
  <path d="m410.92 335.17v-42.003h41.006v42.003zm1-2.0031h39v-39h-39z" color="#000000" fill="#b2b2b2" style="-inkscape-stroke:none"/>
 </g>
 <g stroke-miterlimit="2" stroke-width="2">
  <rect x="237.22" y="16.108" width="40" height="40" fill="#deaa87" stroke="#deaa87"/>
  <rect x="237.22" y="83.421" width="40" height="40" fill="#ffe8ce" stroke="#deaa87"/>
  <rect x="237.22" y="150.73" width="40" height="40" fill="#e6e6e6" stroke="#b2b2b2"/>
 </g>
 <g fill="#333333" font-family="sans-serif" font-size="19.756px" stroke-width="2.646">
  <text x="290.66898" y="43.169353" style="font-variant-caps:normal;font-variant-east-asian:normal;font-variant-ligatures:normal;font-variant-numeric:normal;line-height:1.25" xml:space="preserve"><tspan x="290.66898" y="43.169353" fill="#333333" font-family="sans-serif" font-size="19.756px" stroke-width="2.646" style="font-variant-caps:normal;font-variant-east-asian:normal;font-variant-ligatures:normal;font-variant-numeric:normal">Mature</tspan></text>
  <text x="291.49857" y="108.87088" style="font-variant-caps:normal;font-variant-east-asian:normal;font-variant-ligatures:normal;font-variant-numeric:normal;line-height:1.25" xml:space="preserve"><tspan x="291.49857" y="108.87088">Growing</tspan></text>
  <text x="290.66898" y="175.8795" style="font-variant-caps:normal;font-variant-east-asian:normal;font-variant-ligatures:normal;font-variant-numeric:normal;line-height:1.25" xml:space="preserve"><tspan x="290.66898" y="175.8795">Empty</tspan></text>
 </g>
</svg>
