<?xml version="1.0" encoding="UTF-8"?>
<svg width="955.31" height="1229.5" clip-rule="evenodd" fill-rule="evenodd" stroke-linecap="round" stroke-linejoin="round" stroke-miterlimit="0" version="1.1" viewBox="0 0 955.31 1229.5" xml:space="preserve" xmlns="http://www.w3.org/2000/svg">
    
    
    
    
    
    
    
    
<text transform="translate(-518.63 -112.63)" fill="#000000" font-family="sans-serif" font-size="40px" style="line-height:1.25;shape-inside:url(#rect14202);white-space:pre" xml:space="preserve"/><g clip-rule="evenodd" fill-rule="evenodd"><text x="-4739.0864" y="1243.1885" fill="#000000" font-family="sans-serif" font-size="40px" stroke-linecap="round" stroke-linejoin="round" stroke-miterlimit="0" style="line-height:1.25" xml:space="preserve"><tspan x="-4739.0864" y="1243.1885" fill="#1e1e1e" font-family="sans-serif" font-size="53.333px" style="font-variant-caps:normal;font-variant-east-asian:normal;font-variant-ligatures:normal;font-variant-numeric:normal"/></text><text transform="matrix(1 0 0 1 -5277.5 -181.61)" fill="#000000" font-family="sans-serif" font-size="40px" style="line-height:1.25;shape-inside:url(#rect95981);white-space:pre" xml:space="preserve"/><text x="-2062.2708" y="372.46204" fill="#ffffff" font-family="ArialMT, Arial, sans-serif" font-size="25.202px" stroke-linecap="round" stroke-linejoin="round" stroke-miterlimit="0" stroke-width="1.113"/><text x="-2454.5566" y="877.0896" fill="#000000" font-family="sans-serif" font-size="40px" stroke-linecap="round" stroke-linejoin="round" stroke-miterlimit="0" style="line-height:1.25" xml:space="preserve"><tspan x="-2454.5566" y="877.0896" fill="#1e1e1e" font-family="sans-serif" font-size="53.333px" style="font-variant-caps:normal;font-variant-east-asian:normal;font-variant-ligatures:normal;font-variant-numeric:normal"/></text><text transform="matrix(1 0 0 1 -2992.9 -547.71)" fill="#000000" font-family="sans-serif" font-size="40px" style="line-height:1.25;shape-inside:url(#rect95981-2);white-space:pre" xml:space="preserve"/><text x="-1922.2695" y="1032.462" fill="#ffffff" font-family="ArialMT, Arial, sans-serif" font-size="25.202px" stroke-linecap="round" stroke-linejoin="round" stroke-miterlimit="0" stroke-width="1.113"/></g><text transform="matrix(1 0 0 1 -4960.2 -702.1)" fill="#000000" font-family="sans-serif" font-size="40px" style="line-height:1.25;shape-inside:url(#rect78235);white-space:pre" xml:space="preserve"/><g clip-rule="evenodd" fill-rule="evenodd" stroke-linecap="round" stroke-linejoin="round" stroke-miterlimit="0"><rect y="1.5259e-5" width="115.37" height="115.37" fill="#ff5757" stroke-width="1.0003"/><g transform="matrix(1.0003 0 0 1.0003 -704.76 -208.33)"><text x="729.93701" y="296.96701" fill="#ffffff" font-family="ArialMT, Arial, sans-serif" font-size="94.011px">R</text></g><rect y="276.83" width="115.37" height="115.37" fill="#5757ff" stroke-width="1.0003"/><g transform="matrix(1.0003 0 0 1.0003 -704.76 72.364)"><text x="729.93701" y="296.96701" fill="#ffffff" font-family="ArialMT, Arial, sans-serif" font-size="94.011px">B</text></g><rect y="138.41" width="115.37" height="115.37" fill="#55d400" stroke-width="1.0003"/><g transform="matrix(1.0003 0 0 1.0003 -711.04 -68.061)"><text x="729.93701" y="296.96701" fill="#ffffff" font-family="sans-serif" font-size="94.011px" style="font-variant-caps:normal;font-variant-east-asian:normal;font-variant-ligatures:normal;font-variant-numeric:normal">G</text></g></g><g transform="translate(-518.63 -112.63)" clip-rule="evenodd" fill-rule="evenodd" stroke-linecap="round" stroke-linejoin="round" stroke-miterlimit="0"><rect x="1358.6" y="112.63" width="115.37" height="115.37" fill="#ff5757" stroke-width="1.0003"/><g transform="matrix(1.0003 0 0 1.0003 653.81 -95.699)"><text x="729.93701" y="296.96701" fill="#ffffff" font-family="ArialMT, Arial, sans-serif" font-size="94.011px">R</text></g></g><g transform="translate(-518.63 -112.63)" clip-rule="evenodd" fill-rule="evenodd" stroke-linecap="round" stroke-linejoin="round" stroke-miterlimit="0"><rect x="1358.6" y="389.45" width="115.37" height="115.37" fill="#5757ff" stroke-width="1.0003"/><g transform="matrix(1.0003 0 0 1.0003 653.81 184.99)"><text x="729.93701" y="296.96701" fill="#ffffff" font-family="ArialMT, Arial, sans-serif" font-size="94.011px">B</text></g></g><g transform="translate(-518.63 -112.63)" clip-rule="evenodd" fill-rule="evenodd" stroke-linecap="round" stroke-linejoin="round" stroke-miterlimit="0"><rect x="1358.6" y="251.04" width="115.37" height="115.37" fill="#55d400" stroke-width="1.0003"/><g transform="matrix(1.0003 0 0 1.0003 647.53 44.566)"><text x="729.93701" y="296.96701" fill="#ffffff" font-family="sans-serif" font-size="94.011px" style="font-variant-caps:normal;font-variant-east-asian:normal;font-variant-ligatures:normal;font-variant-numeric:normal">G</text></g></g><g clip-rule="evenodd" fill-rule="evenodd" stroke-linecap="round" stroke-linejoin="round" stroke-miterlimit="0"><rect y="1107.3" width="115.37" height="115.37" fill="#e6e6e6" stroke-width="1.0003"/><rect y="415.24" width="115.37" height="115.37" fill="#808080" stroke-width="1.0003"/><text x="22.085999" y="508.46185" fill="#ffffff" font-family="ArialMT, Arial, sans-serif" font-size="120.42px" stroke-width="3.1688">α</text><rect y="553.65" width="115.37" height="115.37" fill="#e6e6e6" stroke-width="1.0003"/><rect y="692.06" width="115.37" height="115.37" fill="#e6e6e6" stroke-width="1.0003"/></g><g transform="translate(-518.63 -112.63)" clip-rule="evenodd" fill="#e6e6e6" fill-rule="evenodd" stroke-linecap="round" stroke-linejoin="round" stroke-miterlimit="0"><circle cx="576.32" cy="989.96" r="26.124" stroke-width="1.0003"/><g transform="matrix(1.0003 0 0 1.0003 -194 4.4792)"><circle cx="770.07" cy="1064" r="26.116" fill="#e6e6e6"/></g><g transform="matrix(1.0003 0 0 1.0003 -194 83.311)"><circle cx="770.07" cy="1064" r="26.116" fill="#e6e6e6"/></g></g><path d="m806.86 412.92c-20.198 0.17991-35.693 34.241-33.781 132.17 0.5076 25.976 0.9158 48.22 0.5015 66.861-1.1471 51.639-8.6052 75.638-37.752 74.75 0 0 38.795-10.145 39.328 67.063s-18.08 204.43 32.718 200.84" clip-rule="evenodd" fill="none" stroke="#808080" stroke-linecap="round" stroke-linejoin="round" stroke-miterlimit="0" stroke-width="17.008"/><path d="m148.46 1221c20.198-0.22 35.693-41.856 33.781-161.56-0.50759-31.752-0.91578-58.944-0.50154-81.731 1.1471-63.122 8.6052-92.459 37.753-91.374 0 0-38.795 12.401-39.328-81.977-0.5333-94.377 18.08-249.9-32.718-245.5" clip-rule="evenodd" fill="none" stroke="#808080" stroke-linecap="round" stroke-linejoin="round" stroke-miterlimit="0" stroke-width="17.008"/><g transform="translate(-521.61 -112.63)" clip-rule="evenodd" fill="#4d4d4d" fill-rule="evenodd" font-family="sans-serif" font-size="84.255px" stroke-linecap="round" stroke-linejoin="round" stroke-miterlimit="0" stroke-width="3.7795"><text x="786.71796" y="662.59497" style="font-variant-caps:normal;font-variant-east-asian:normal;font-variant-ligatures:normal;font-variant-numeric:normal"><tspan x="786.71796" y="662.59497" fill="#4d4d4d" font-family="sans-serif" font-size="84.255px" stroke-miterlimit="0" stroke-width="14.285" style="font-variant-caps:normal;font-variant-east-asian:normal;font-variant-ligatures:normal;font-variant-numeric:normal">12 hidden</tspan></text><text x="810.35291" y="749.60461" style="font-variant-caps:normal;font-variant-east-asian:normal;font-variant-ligatures:normal;font-variant-numeric:normal">channels</text></g><g transform="translate(-521.38 -112.63)" clip-rule="evenodd" fill="#808080" fill-rule="evenodd" stroke-linecap="round" stroke-linejoin="round" stroke-miterlimit="0" stroke-width="1.5118"><path d="m809.46 910 4.2709 22.248-40.798-27.655 27.657-40.803 4.2712 22.25 135.02-25.919 4.5997 23.96z"/><path d="m1193.3 887.08 4.3752-22.228 27.466 40.925-40.928 27.471 4.3755-22.23-134.9-26.552 4.7119-23.938z"/></g><g clip-rule="evenodd" fill-rule="evenodd" stroke-linecap="round" stroke-linejoin="round" stroke-miterlimit="0" stroke-width="11.027"><rect x="839.94" y="1107.3" width="115.37" height="115.37" fill="#808080"/><rect x="839.94" y="415.24" width="115.37" height="115.37" fill="#e6e6e6"/><rect x="839.94" y="830.48" width="115.37" height="115.37" fill="#e6e6e6"/></g><g transform="translate(-518.63 -119.99)" clip-rule="evenodd" fill="#e6e6e6" fill-rule="evenodd" stroke-linecap="round" stroke-linejoin="round" stroke-miterlimit="0" stroke-width="11.027"><circle cx="1416.3" cy="721.71" r="26.124"/><circle cx="1416.3" cy="800.54" r="26.124"/><circle cx="1416.3" cy="879.37" r="26.124"/></g><rect x="839.94" y="968.89" width="115.37" height="115.37" clip-rule="evenodd" fill="#808080" fill-rule="evenodd" stroke-linecap="round" stroke-linejoin="round" stroke-miterlimit="0" stroke-width="11.027"/><text x="849.22839" y="1057.0756" clip-rule="evenodd" fill="#ffffff" fill-rule="evenodd" font-family="ArialMT, Arial, sans-serif" font-size="122.26px" stroke-linecap="round" stroke-linejoin="round" stroke-miterlimit="0" stroke-width=".46698" style="font-variant-caps:normal;font-variant-east-asian:normal;font-variant-ligatures:normal;font-variant-numeric:normal"><tspan x="849.22839" y="1057.0756" stroke-width=".46698">α</tspan></text><text x="916.31348" y="1071.8688" fill="#ffffff" font-family="ArialMT, Arial, sans-serif" font-size="60.458px" stroke-width=".8336" style="font-variant-caps:normal;font-variant-east-asian:normal;font-variant-ligatures:normal;font-variant-numeric:normal;line-height:1.25" xml:space="preserve"><tspan x="916.31348" y="1071.8688" fill="#ffffff" font-family="ArialMT, Arial, sans-serif" font-size="60.458px" stroke-width=".8336" style="font-variant-caps:normal;font-variant-east-asian:normal;font-variant-ligatures:normal;font-variant-numeric:normal">1</tspan></text><g transform="translate(-518.63 -112.63)" fill="#ffffff" font-family="ArialMT, Arial, sans-serif"><text x="1367.8951" y="1308.1151" clip-rule="evenodd" fill-rule="evenodd" font-size="122.26px" stroke-linecap="round" stroke-linejoin="round" stroke-miterlimit="0" stroke-width=".46698" style="font-variant-caps:normal;font-variant-east-asian:normal;font-variant-ligatures:normal;font-variant-numeric:normal"><tspan x="1367.8951" y="1308.1151" stroke-width=".46698">α</tspan></text><text x="1434.9802" y="1322.9084" font-size="60.458px" stroke-width=".8336" style="font-variant-caps:normal;font-variant-east-asian:normal;font-variant-ligatures:normal;font-variant-numeric:normal;line-height:1.25" xml:space="preserve"><tspan x="1434.9802" y="1322.9084" font-family="ArialMT, Arial, sans-serif" font-size="60.458px" stroke-width=".8336" style="font-variant-caps:normal;font-variant-east-asian:normal;font-variant-ligatures:normal;font-variant-numeric:normal">2</tspan></text></g></svg>
