<?xml version="1.0" encoding="UTF-8"?>
<!-- Created with Inkscape (http://www.inkscape.org/) -->
<svg width="1101.9mm" height="653.18mm" version="1.1" viewBox="0 0 1101.9 653.18" xmlns="http://www.w3.org/2000/svg">
 <g transform="translate(-98.178 -27.478)">
  <path d="m870.6 362.6v4h79.934v-4z" clip-rule="evenodd" color="#000000" fill="#999" fill-rule="evenodd" stroke-linejoin="round" stroke-miterlimit=".20833" style="-inkscape-stroke:none"/>
  <g fill="#999" fill-rule="evenodd">
   <path d="m959.77 364.6-13.84 8v-16z" color="#000000" stroke-width="1.6pt" style="-inkscape-stroke:none"/>
   <path d="m944.86 354.75v19.697l17.039-9.8496-1.5977-0.92383zm2.1348 3.6973 10.641 6.1504-10.641 6.1504z" color="#000000" style="-inkscape-stroke:none"/>
  </g>
  <path d="m719.58 185.71v4h50.055v-4z" clip-rule="evenodd" color="#000000" fill="#999" fill-rule="evenodd" stroke-linejoin="round" stroke-miterlimit=".20833" style="-inkscape-stroke:none"/>
  <g fill="#999" fill-rule="evenodd">
   <path d="m778.87 187.71-13.84 8v-16z" color="#000000" stroke-width="1.6pt" style="-inkscape-stroke:none"/>
   <path d="m763.96 177.86v19.697l17.037-9.8496-1.5977-0.92382zm2.1328 3.6953 10.643 6.1523-10.643 6.1524z" color="#000000" style="-inkscape-stroke:none"/>
  </g>
  <path d="m718.88 540.73v4h50.055v-4z" clip-rule="evenodd" color="#000000" fill="#999" fill-rule="evenodd" stroke-linejoin="round" stroke-miterlimit=".20833" style="-inkscape-stroke:none"/>
  <g fill="#999" fill-rule="evenodd">
   <path d="m778.17 542.73-13.84 8v-16z" color="#000000" stroke-width="1.6pt" style="-inkscape-stroke:none"/>
   <path d="m763.26 532.88v19.697l17.037-9.8477-1.5977-0.92382zm2.1328 3.6973 10.643 6.1523-10.643 6.1524z" color="#000000" style="-inkscape-stroke:none"/>
  </g>
  <path d="m846.14 523.55v-125.65" clip-rule="evenodd" color="#000000" fill="#808080" fill-rule="evenodd" stroke-linejoin="round" stroke-miterlimit=".20833" stroke-width="4" style="-inkscape-stroke:none"/>
  <path d="m844.14 397.9v125.65h4v-125.65z" clip-rule="evenodd" color="#000000" fill="#999" fill-rule="evenodd" stroke-linejoin="round" stroke-miterlimit=".20833" style="-inkscape-stroke:none"/>
  <g fill="#999" fill-rule="evenodd">
   <path d="m846.14 388.66 8 13.84h-16z" color="#000000" stroke-width="1.6pt" style="-inkscape-stroke:none"/>
   <path d="m846.14 386.53-0.92188 1.5957-8.9258 15.441h19.697zm0 4.2598 6.1543 10.645h-12.307z" color="#000000" style="-inkscape-stroke:none"/>
  </g>
  <path d="m986.53 404.08v-5.3773" clip-rule="evenodd" color="#000000" fill="#808080" fill-rule="evenodd" stroke-linejoin="round" stroke-miterlimit=".20833" stroke-width="4" style="-inkscape-stroke:none"/>
  <path d="m984.53 398.7v5.3789h4v-5.3789z" clip-rule="evenodd" color="#000000" fill="#999" fill-rule="evenodd" stroke-linejoin="round" stroke-miterlimit=".20833" style="-inkscape-stroke:none"/>
  <g fill="#999" fill-rule="evenodd">
   <path d="m986.53 389.47 8 13.84h-16z" color="#000000" stroke-width="1.6pt" style="-inkscape-stroke:none"/>
   <path d="m986.53 387.33-0.92383 1.5977-8.9238 15.441h19.697zm0 4.2637 6.1523 10.643h-12.305z" color="#000000" style="-inkscape-stroke:none"/>
  </g>
  <path d="m844.14 205.4v124.9h4v-124.9z" clip-rule="evenodd" color="#000000" fill="#999" fill-rule="evenodd" stroke-linejoin="round" stroke-miterlimit=".20833" style="-inkscape-stroke:none"/>
  <g fill="#999" fill-rule="evenodd">
   <path d="m846.14 339.52-8-13.84h16z" color="#000000" stroke-width="1.6pt" style="-inkscape-stroke:none"/>
   <path d="m836.29 324.62 9.8477 17.037 0.92383-1.5977 8.9258-15.439zm3.6973 2.1328h12.303l-6.1523 10.643z" color="#000000" style="-inkscape-stroke:none"/>
  </g>
  <path d="m1009.6 362.6v4h79.934v-4z" clip-rule="evenodd" color="#000000" fill="#999" fill-rule="evenodd" stroke-linejoin="round" stroke-miterlimit=".20833" style="-inkscape-stroke:none"/>
  <g fill="#999" fill-rule="evenodd">
   <path d="m1098.8 364.6-13.84 8v-16z" color="#000000" stroke-width="1.6pt" style="-inkscape-stroke:none"/>
   <path d="m1083.9 354.75v19.697l17.037-9.8496-1.5976-0.92383zm2.1328 3.6973 10.643 6.1504-10.643 6.1504z" color="#000000" style="-inkscape-stroke:none"/>
  </g>
 </g>
 <g transform="translate(-98.178 -27.478)">
  <g clip-rule="evenodd" fill-rule="evenodd" stroke-linecap="round" stroke-linejoin="round">
   <g stroke-miterlimit="0">
    <path d="m334.33 149.6h36.62v36.62h-36.62z" fill="#ff5757" stroke-width=".3175"/>
    <g fill="#fff" stroke-width=".3175" aria-label="R">
     <path d="m359.35 177.77-5.3342-8.5261h-6.3982v8.5261h-2.7837v-20.535h9.6629q3.4687 0 5.3488 1.5595 1.8947 1.5449 1.8947 4.314 0 2.2882-1.3409 3.8477-1.3263 1.5595-3.6728 1.9676l5.8298 8.8467zm-0.40808-14.633q0-1.7927-1.2243-2.7254-1.2097-0.94734-3.4979-0.94734h-6.6022v7.5787h6.7188q2.2007 0 3.3958-1.0202 1.2097-1.0348 1.2097-2.8857z"/>
    </g>
    <path d="m334.33 237.47h36.62v36.62h-36.62z" fill="#5757ff" stroke-width=".3175"/>
    <g fill="#fff" stroke-width=".3175" aria-label="B">
     <path d="m360.72 261.07q0 2.74-1.9967 4.2703-1.9967 1.5157-5.5529 1.5157h-8.3366v-20.535h7.4621q7.2289 0 7.2289 4.9845 0 1.8218-1.0202 3.0606-1.0202 1.2388-2.8857 1.6615 2.4485 0.29149 3.7748 1.6469 1.3263 1.3408 1.3263 3.3958zm-3.9934-9.4297q0-1.6615-1.1368-2.3756-1.1368-0.71414-3.2938-0.71414h-4.6784v6.5002h4.6784q2.2299 0 3.323-0.83075 1.1077-0.84532 1.1077-2.5797zm1.1805 9.2111q0-3.629-5.1011-3.629h-5.1885v7.4038h5.4071q2.5505 0 3.7165-0.94734 1.166-0.94734 1.166-2.8274z"/>
    </g>
    <path d="m334.33 193.53h36.62v36.62h-36.62z" fill="#55d400" stroke-width=".3175"/>
    <g fill="#fff" stroke-width=".3175" aria-label="G">
     <path d="m358.16 219.18v-5.8444h-4.8096v-2.4194h7.7245v9.3422q-1.7052 1.2097-3.7602 1.8364-2.055 0.61213-4.3869 0.61213-5.1011 0-7.9868-2.9732-2.8712-2.9878-2.8712-8.3074 0-5.3343 2.8712-8.3074 2.8858-2.9878 7.9868-2.9878 2.1279 0 4.0371 0.52468 1.9238 0.52468 3.5416 1.5449v3.1335q-1.6323-1.3846-3.4687-2.0842-1.8364-0.69957-3.8622-0.69957-3.9934 0-6.0047 2.2299-1.9967 2.2299-1.9967 6.646 0 4.4015 1.9967 6.6314 2.0113 2.2299 6.0047 2.2299 1.5595 0 2.7837-0.26234 1.2242-0.27691 2.2007-0.84532z"/>
    </g>
    <path d="m334.33 501.06h36.62v36.62h-36.62z" fill="#e6e6e6" stroke-width=".3175"/>
    <path d="m334.33 281.4h36.62v36.62h-36.62z" fill="#666" stroke-width=".3175"/>
    <g fill="#fff" stroke-width="1.0058" aria-label="α">
     <path d="m357.07 306.56q-1.1757 2.538-2.818 3.6764-1.6236 1.1197-3.8817 1.1197-3.8257 0-5.6359-2.5754-1.7916-2.5754-1.7916-7.8007 0-5.3 2.0155-7.9313 2.0342-2.6313 5.9345-2.6313 2.3514 0 4.0123 1.2504 1.6796 1.2504 2.5194 3.5084h0.0373q0.42922-2.2208 1.3623-4.3856h3.5084q-0.9331 1.9782-1.7169 4.8521-0.7838 2.8553-0.9331 4.6842 0.0933 2.9859 0.63451 5.8599 0.55986 2.8739 1.437 4.7961h-3.4151q-0.44789-1.1384-0.7838-2.4634-0.31726-1.3437-0.41057-1.9595zm-10.6-5.6919q0 4.143 1.0637 6.0278 1.0637 1.8662 3.5271 1.8662 2.2394 0 3.7697-2.1461 1.5489-2.1648 2.0342-5.8225-0.5412-3.9377-1.9595-5.9158t-3.6391-1.9782q-2.538 0-3.6764 1.8849-1.1197 1.8662-1.1197 6.0838z"/>
    </g>
   </g>
   <g fill="#e6e6e6" stroke-miterlimit="0">
    <g stroke-width=".3175">
     <path d="m334.33 325.33h36.62v36.62h-36.62z"/>
     <path d="m334.33 369.26h36.62v36.62h-36.62z"/>
     <path d="m360.93 428.07a8.2918 8.2918 0 0 1-8.2918 8.2918 8.2918 8.2918 0 0 1-8.2918-8.2918 8.2918 8.2918 0 0 1 8.2918-8.2918 8.2918 8.2918 0 0 1 8.2918 8.2918z"/>
    </g>
    <path d="m360.93 453.09a8.2918 8.2918 0 0 1-8.2918 8.2918 8.2918 8.2918 0 0 1-8.2918-8.2918 8.2918 8.2918 0 0 1 8.2918-8.2918 8.2918 8.2918 0 0 1 8.2918 8.2918z" stroke-width=".3175"/>
    <path d="m360.93 478.11a8.2918 8.2918 0 0 1-8.2918 8.2918 8.2918 8.2918 0 0 1-8.2918-8.2918 8.2918 8.2918 0 0 1 8.2918-8.2918 8.2918 8.2918 0 0 1 8.2918 8.2918z" stroke-width=".3175"/>
   </g>
   <path d="m184.16 456.3a2 2 0 0 0-1.9531 2.0469 2 2 0 0 0 2.0469 1.9512c5.602-0.1305 8.9694 0.93942 10.975 2.4805 2.0052 1.541 2.9138 3.6542 3.2793 6.4512 0.73092 5.594-1.302 13.291-1.168 19.678 0.0724 3.4472 1.5519 6.1912 3.625 8.0117 1.0969 0.96323 2.3358 1.6725 3.6191 2.2344-0.62536 0.30713-1.269 0.59656-1.8086 0.98437-3.2046 2.3032-4.4196 5.9765-4.7031 10.176-0.2048 3.032-4e-3 6.4704 0.23047 10.428 0.42255 7.1192-1.078 11.528-3.4668 14.18-2.3888 2.6516-5.8636 3.8038-10.166 3.8164a2 2 0 0 0-1.9941 2.0059 2 2 0 0 0 2.0059 1.9941c5.0393-0.0148 9.818-1.4656 13.127-5.1387 3.3089-3.673 4.9503-9.3094 4.4883-17.094-0.23441-3.9492-0.41285-7.2797-0.23437-9.9219 0.24705-3.6596 1.0237-5.7432 3.0469-7.1973s5.8422-2.3802 12.4-2.3144v-4e-3c0.01-8.3e-4 0.19141-4e-3 0.19141-4e-3a2.0002 2.0002 0 0 0-0.15235-3.9922c-0.0754-7.6e-4 -0.1165 0.0142-0.1914 0.0137v-6e-3s-4.2453 0.3373-8.3652-0.65039c-2.06-0.49385-4.0261-1.3208-5.3867-2.5156s-2.2166-2.6619-2.2676-5.0898c-0.11262-5.364 2.0367-13.223 1.1367-20.111-0.45002-3.4441-1.8123-6.8027-4.8086-9.1055-2.9963-2.3027-7.3605-3.4498-13.506-3.3066z" color="#000000" fill="#999" stroke-miterlimit=".25" style="-inkscape-stroke:none"/>
   <g stroke-miterlimit="0">
    <g stroke-width="3.4925" style="paint-order:stroke fill markers" aria-label="+">
     <path d="m241.93 483.92v12.665h12.665v3.8654h-12.665v12.665h-3.8199v-12.665h-12.665v-3.8654h12.665v-12.665z"/>
    </g>
    <g stroke-width=".26458">
     <path d="m283.4 104.02v7.7308h3.5002q1.943 0 3.0041-1.006t1.0611-2.8663q0-1.8466-1.0611-2.8525-1.0611-1.006-3.0041-1.006zm-2.7836-2.2875h6.2838q3.4589 0 5.2228 1.571 1.7777 1.5572 1.7777 4.5751 0 3.0455-1.7777 4.6026-1.7639 1.5572-5.2228 1.5572h-3.5002v8.2682h-2.7836z"/>
     <path d="m309.72 113.95v1.2402h-11.658q0.16537 2.6183 1.571 3.9963 1.4194 1.3643 3.9412 1.3643 1.4607 0 2.825-0.35829 1.378-0.35829 2.7285-1.0749v2.3978q-1.3643 0.57878-2.7974 0.88195-1.4332 0.30316-2.9076 0.30316-3.6931 0-5.8567-2.1497-2.1497-2.1497-2.1497-5.8153 0-3.7896 2.0395-6.0082 2.0533-2.2324 5.5259-2.2324 3.1144 0 4.9196 2.0119 1.819 1.9982 1.819 5.4432zm-2.5356-0.74414q-0.0276-2.0808-1.1713-3.3211-1.13-1.2402-3.0041-1.2402-2.1222 0-3.4038 1.1989-1.2678 1.1989-1.4607 3.3762z"/>
     <path d="m322.82 109.24q-0.42719-0.24805-0.93707-0.35829-0.49609-0.12402-1.1024-0.12402-2.1497 0-3.3073 1.4056-1.1438 1.3918-1.1438 4.0101v8.1304h-2.5494v-15.434h2.5494v2.3978q0.79926-1.4056 2.0808-2.0808 1.2816-0.68902 3.1144-0.68902 0.26182 0 0.57877 0.0413 0.31695 0.0276 0.7028 0.0965z"/>
     <path d="m335.97 107.46v2.3702q-1.0749-0.59256-2.1635-0.88195-1.0749-0.30316-2.1773-0.30316-2.4667 0-3.831 1.571-1.3642 1.5572-1.3642 4.3822 0 2.825 1.3642 4.3959 1.3643 1.5572 3.831 1.5572 1.1024 0 2.1773-0.28939 1.0886-0.30317 2.1635-0.89573v2.3427q-1.0611 0.49609-2.2049 0.74414-1.13 0.24804-2.4116 0.24804-3.4864 0-5.5397-2.1911-2.0533-2.1911-2.0533-5.9118 0-3.7758 2.067-5.9393 2.0808-2.1635 5.6913-2.1635 1.1713 0 2.2876 0.24804 1.1162 0.23427 2.1635 0.71658z"/>
     <path d="m353.58 113.95v1.2402h-11.658q0.16537 2.6183 1.571 3.9963 1.4194 1.3643 3.9412 1.3643 1.4607 0 2.825-0.35829 1.378-0.35829 2.7285-1.0749v2.3978q-1.3642 0.57878-2.7974 0.88195-1.4332 0.30316-2.9077 0.30316-3.6931 0-5.8567-2.1497-2.1497-2.1497-2.1497-5.8153 0-3.7896 2.0395-6.0082 2.0533-2.2324 5.5259-2.2324 3.1144 0 4.9196 2.0119 1.819 1.9982 1.819 5.4432zm-2.5356-0.74414q-0.0276-2.0808-1.1713-3.3211-1.13-1.2402-3.0041-1.2402-2.1222 0-3.4038 1.1989-1.2678 1.1989-1.4607 3.3762z"/>
     <path d="m360.19 119.99v8.1855h-2.5494v-21.304h2.5494v2.3427q0.79926-1.378 2.0119-2.0395 1.2265-0.67524 2.9214-0.67524 2.8112 0 4.5613 2.2324 1.7639 2.2324 1.7639 5.8704 0 3.638-1.7639 5.8704-1.7501 2.2324-4.5613 2.2324-1.695 0-2.9214-0.66145-1.2127-0.67524-2.0119-2.0533zm8.6265-5.3881q0-2.7974-1.1576-4.3822-1.1438-1.5985-3.1557-1.5985-2.0119 0-3.1695 1.5985-1.1438 1.5847-1.1438 4.3822 0 2.7974 1.1438 4.3959 1.1576 1.5848 3.1695 1.5848 2.0119 0 3.1557-1.5848 1.1576-1.5985 1.1576-4.3959z"/>
     <path d="m378.16 102.49v4.3822h5.2228v1.9706h-5.2228v8.3785q0 1.8879 0.50988 2.4253 0.52365 0.53744 2.1084 0.53744h2.6045v2.1222h-2.6045q-2.9352 0-4.0514-1.0886-1.1162-1.1024-1.1162-3.9963v-8.3785h-1.8604v-1.9706h1.8604v-4.3822z"/>
     <path d="m386.72 106.87h2.5356v15.434h-2.5356zm0-6.0082h2.5356v3.2108h-2.5356z"/>
     <path d="m400.54 108.65q-2.0395 0-3.2246 1.5985-1.1851 1.5847-1.1851 4.3546 0 2.7698 1.1713 4.3684 1.1851 1.5848 3.2384 1.5848 2.0257 0 3.2108-1.5985 1.1851-1.5985 1.1851-4.3546 0-2.7423-1.1851-4.3408-1.1851-1.6123-3.2108-1.6123zm0-2.1497q3.3073 0 5.1952 2.1497 1.8879 2.1497 1.8879 5.9531 0 3.7896-1.8879 5.9531-1.8879 2.1497-5.1952 2.1497-3.3211 0-5.209-2.1497-1.8741-2.1635-1.8741-5.9531 0-3.8034 1.8741-5.9531 1.8879-2.1497 5.209-2.1497z"/>
     <path d="m424.66 112.99v9.3155h-2.5356v-9.2328q0-2.1911-0.85438-3.2797-0.85439-1.0886-2.5632-1.0886-2.0533 0-3.2384 1.3091-1.1851 1.3091-1.1851 3.5691v8.723h-2.5494v-15.434h2.5494v2.3978q0.9095-1.3918 2.136-2.0808 1.2402-0.68902 2.8525-0.68902 2.6596 0 4.0239 1.6536 1.3643 1.6399 1.3643 4.8369z"/>
    </g>
   </g>
  </g>
  <g stroke-miterlimit="0" stroke-width="1.2" aria-label="f2">
   <path d="m504.01 509.19-0.59945 3.1626h-3.638q-2.067 0-3.0179 0.82683-0.93017 0.80615-1.3849 2.9766l-0.41341 2.0464h6.2632l-0.5581 2.9559h-6.2632l-3.9274 20.195h-3.824l3.9481-20.195h-3.638l0.53743-2.9559h3.638l0.31006-1.6123q0.78548-4.0928 2.7492-5.7464 1.9844-1.6536 6.2218-1.6536z"/>
   <path d="m511.36 540.13-8.6661 7.43h9.5798l-0.47026 2.2572h-13.019l0.44338-2.2841 9.0558-7.7659q1.8138-1.572 2.5662-2.7544 0.76585-1.1958 0.76585-2.4453 0-1.3033-0.91364-2.1229-0.91364-0.81959-2.3916-0.81959-1.2764 0-2.835 0.45682t-3.3321 1.3302l0.49712-2.6872q1.666-0.65836 3.1843-0.99426 1.5182-0.33589 2.8081-0.33589 2.6334 0 4.2323 1.3973 1.6123 1.3973 1.6123 3.668 0 1.5317-0.76585 2.929-0.76584 1.3839-2.3513 2.7409z" baseline-shift="sub"/>
  </g>
  <g stroke-miterlimit="0" stroke-width=".318" aria-label="f1">
   <path d="m505.24 149.44-0.59944 3.1626h-3.638q-2.0671 0-3.0179 0.82683-0.93018 0.80615-1.3849 2.9766l-0.41341 2.0464h6.2632l-0.5581 2.9559h-6.2632l-3.9274 20.195h-3.8241l3.9481-20.195h-3.638l0.53744-2.9559h3.638l0.31006-1.6123q0.78548-4.0928 2.7492-5.7464 1.9844-1.6536 6.2218-1.6536z"/>
   <path d="m501.69 187.78h4.4338l2.9962-15.438-5.0116 0.96739 0.47026-2.3378 4.9847-0.96738h2.7275l-3.4665 17.776h4.4204l-0.42995 2.2841h-11.568z" baseline-shift="sub"/>
  </g>
  <g clip-rule="evenodd" fill-rule="evenodd" stroke-linejoin="round" stroke-miterlimit="0">
   <g stroke-linecap="round">
    <g fill="#fff" stroke-width="1.0058" aria-label="α">
     <path d="m617.93 517.89q-1.1757 2.538-2.818 3.6764-1.6236 1.1197-3.8817 1.1197-3.8257 0-5.6359-2.5754-1.7916-2.5754-1.7916-7.8007 0-5.3 2.0155-7.9313 2.0342-2.6313 5.9345-2.6313 2.3514 0 4.0123 1.2504 1.6796 1.2504 2.5194 3.5084h0.0373q0.42922-2.2208 1.3623-4.3856h3.5084q-0.9331 1.9782-1.7169 4.8521-0.78381 2.8553-0.9331 4.6842 0.0933 2.9859 0.63451 5.8598 0.55985 2.874 1.437 4.7961h-3.4151q-0.44789-1.1384-0.7838-2.4634-0.31726-1.3437-0.41057-1.9595zm-10.6-5.6919q0 4.143 1.0637 6.0278 1.0637 1.8662 3.5271 1.8662 2.2394 0 3.7697-2.1461 1.5489-2.1648 2.0342-5.8225-0.54119-3.9377-1.9595-5.9158-1.4183-1.9782-3.6391-1.9782-2.538 0-3.6764 1.8848-1.1197 1.8662-1.1197 6.0838z"/>
    </g>
    <g stroke-width=".17556">
     <path d="m604.31 422.34h20.248v20.248h-20.248z" fill="#ff5757"/>
     <path d="m604.31 470.92h20.248v20.248h-20.248z" fill="#5757ff"/>
     <path d="m604.31 446.63h20.248v20.248h-20.248z" fill="#55d400"/>
     <path d="m604.52 616.67h20.248v20.248h-20.248z" fill="#ebebeb"/>
     <path d="m604.31 495.21h20.248v20.248h-20.248z" fill="#666"/>
    </g>
    <g fill="#fff" stroke-width=".57865" aria-label="δ">
     <path d="m617.59 508.14q0-0.9341-0.28989-1.7501-0.27916-0.82673-0.7301-1.5246-0.44021-0.70862-1.3421-1.6427-1.9219 0.68715-2.9419 1.9648-1.02 1.2777-1.02 2.9526 0 1.8145 0.83747 2.8345 0.84821 1.0093 2.3406 1.0093 1.5461 0 2.3406-0.96631 0.80526-0.96631 0.80526-2.8774zm-2.7594-9.4591-1.6535-0.0859 3.3928 3.4787q1.2991 1.3314 1.8575 2.1903 0.56905 0.84821 0.88041 1.793 0.31137 0.9341 0.31137 2.04 0 2.4372-1.385 3.876-1.385 1.4387-3.7901 1.4387-2.4265 0-3.8223-1.4065-1.385-1.4065-1.385-3.8867 0-2.0829 1.2562-3.5753 1.2562-1.5032 3.7364-2.3621l-3.425-3.6398v-1.2777h7.87v1.4173z"/>
    </g>
   </g>
   <g fill="#ebebeb" stroke-linecap="round" stroke-width=".17556">
    <path d="m604.31 519.5h20.248v20.248h-20.248z"/>
    <path d="m604.31 543.79h20.248v20.248h-20.248z"/>
    <path d="m619.36 576.52a4.5848 4.5848 0 0 1-4.5848 4.5848 4.5848 4.5848 0 0 1-4.5848-4.5848 4.5848 4.5848 0 0 1 4.5848-4.5848 4.5848 4.5848 0 0 1 4.5848 4.5848z"/>
    <path d="m619.36 590.35a4.5848 4.5848 0 0 1-4.5848 4.5848 4.5848 4.5848 0 0 1-4.5848-4.5848 4.5848 4.5848 0 0 1 4.5848-4.5848 4.5848 4.5848 0 0 1 4.5848 4.5848z"/>
    <path d="m619.36 604.19a4.5848 4.5848 0 0 1-4.5848 4.5848 4.5848 4.5848 0 0 1-4.5848-4.5848 4.5848 4.5848 0 0 1 4.5848-4.5848 4.5848 4.5848 0 0 1 4.5848 4.5848z"/>
   </g>
   <path d="m632.21 508.47-0.77539 2.8965c7.6992 2.063 12.161 9.1201 15.062 19.314 2.9015 10.194 4.0766 23.276 5.2598 36.422 1.1831 13.145 2.3745 26.354 5.4844 37.014 3.1099 10.659 8.3058 19.007 17.531 21.479l0.77735-2.8984c-7.8733-2.1097-12.45-9.2071-15.43-19.42-2.9796-10.213-4.1941-23.301-5.377-36.443-1.1829-13.142-2.3345-26.338-5.3613-36.973s-8.0946-18.958-17.172-21.391z" color="#000000" fill="#999" style="-inkscape-stroke:none"/>
  </g>
  <g fill="#999" fill-rule="evenodd">
   <path d="m681.85 625.94-11.579 3.109 3.1058-11.591z" color="#000000" stroke-width="1.2pt" style="-inkscape-stroke:none"/>
   <path d="m672.97 615.91-3.8223 14.27 14.254-3.8262-0.97852-0.98047zm0.82812 3.0938 6.5156 6.5215-8.9024 2.3906z" color="#000000" style="-inkscape-stroke:none"/>
  </g>
  <g clip-rule="evenodd" fill-rule="evenodd" stroke-linejoin="round">
   <g stroke-linecap="round" stroke-miterlimit="0">
    <g stroke-width=".17556">
     <path d="m688.97 421.85h20.248v20.248h-20.248z" fill="#ff5757"/>
     <path d="m688.97 470.43h20.248v20.248h-20.248z" fill="#5757ff"/>
     <path d="m688.97 446.14h20.248v20.248h-20.248z" fill="#55d400"/>
     <path d="m688.97 593.39h20.248v20.248h-20.248z" fill="#666"/>
     <path d="m688.97 616.91h20.248v20.248h-20.248z" fill="#666"/>
    </g>
    <g fill="#fff" stroke-width=".57865" aria-label="δ">
     <path d="m702.26 629.83q0-0.9341-0.2899-1.7501-0.27915-0.82674-0.7301-1.5246-0.4402-0.70863-1.3421-1.6427-1.9219 0.68715-2.9419 1.9648-1.02 1.2777-1.02 2.9526 0 1.8145 0.83747 2.8345 0.8482 1.0092 2.3406 1.0092 1.5461 0 2.3406-0.96631 0.80526-0.96631 0.80526-2.8774zm-2.7594-9.4591-1.6535-0.0859 3.3928 3.4787q1.2992 1.3314 1.8575 2.1903 0.56905 0.8482 0.88042 1.793 0.31137 0.93409 0.31137 2.04 0 2.4372-1.385 3.876-1.385 1.4387-3.7901 1.4387-2.4265 0-3.8223-1.4065-1.385-1.4065-1.385-3.8867 0-2.0829 1.2562-3.5754 1.2562-1.5032 3.7364-2.3621l-3.425-3.6398v-1.2777h7.87v1.4173z"/>
    </g>
    <path d="m688.97 495.45h20.248v20.248h-20.248z" fill="#ebebeb" stroke-width=".17556"/>
    <path d="m688.97 568.33h20.248v20.248h-20.248z" fill="#ebebeb" stroke-width=".17556"/>
    <g fill="#fff" stroke-width=".55613" aria-label="0">
     <path d="m699.1 597.17q-1.6097 0-2.4249 1.5891-0.80486 1.5788-0.80486 4.7569 0 3.1679 0.80486 4.7569 0.81519 1.5788 2.4249 1.5788 1.62 0 2.4249-1.5788 0.81518-1.5891 0.81518-4.7569 0-3.1782-0.81518-4.7569-0.80487-1.5891-2.4249-1.5891zm0-1.651q2.59 0 3.9521 2.0534 1.3724 2.0431 1.3724 5.9436 0 3.8902-1.3724 5.9436-1.3621 2.0431-3.9521 2.0431t-3.9624-2.0431q-1.3621-2.0534-1.3621-5.9436 0-3.9005 1.3621-5.9436 1.3724-2.0534 3.9624-2.0534z"/>
    </g>
   </g>
   <g fill="#ebebeb" stroke-linecap="round" stroke-miterlimit="0" stroke-width=".17556">
    <path d="m703.68 528.18a4.5848 4.5848 0 0 1-4.5848 4.5848 4.5848 4.5848 0 0 1-4.5848-4.5848 4.5848 4.5848 0 0 1 4.5848-4.5848 4.5848 4.5848 0 0 1 4.5848 4.5848z"/>
    <path d="m703.68 542.01a4.5848 4.5848 0 0 1-4.5848 4.5848 4.5848 4.5848 0 0 1-4.5848-4.5848 4.5848 4.5848 0 0 1 4.5848-4.5848 4.5848 4.5848 0 0 1 4.5848 4.5848z"/>
    <path d="m703.68 555.85a4.5848 4.5848 0 0 1-4.5848 4.5848 4.5848 4.5848 0 0 1-4.5848-4.5848 4.5848 4.5848 0 0 1 4.5848-4.5848 4.5848 4.5848 0 0 1 4.5848 4.5848z"/>
   </g>
   <g stroke-linecap="round" stroke-miterlimit="0">
    <g stroke-width=".26458">
     <path d="m111.42 102.16v2.7147q-1.5847-0.75792-2.9903-1.13-1.4056-0.37207-2.7147-0.37207-2.2738 0-3.514 0.88195-1.2265 0.88194-1.2265 2.508 0 1.3643 0.81304 2.0671 0.82683 0.68902 3.1144 1.1162l1.6812 0.34451q3.1144 0.59256 4.5889 2.0946 1.4883 1.4883 1.4883 3.9963 0 2.9903-2.0119 4.5338-1.9982 1.5434-5.8704 1.5434-1.4607 0-3.1144-0.33073-1.6399-0.33073-3.4038-0.97841v-2.8663q1.695 0.95085 3.3211 1.4332 1.6261 0.48232 3.197 0.48232 2.384 0 3.6794-0.93707 1.2954-0.93706 1.2954-2.6734 0-1.5158-0.93707-2.3702-0.92328-0.85439-3.0455-1.2816l-1.695-0.33073q-3.1144-0.62011-4.5062-1.943-1.3918-1.3229-1.3918-3.6794 0-2.7285 1.9155-4.2995 1.9292-1.571 5.3054-1.571 1.4469 0 2.949 0.26183t3.073 0.78548z"/>
     <path d="m119.4 102.24v4.3822h5.2228v1.9706h-5.2228v8.3785q0 1.8879 0.50987 2.4253 0.52366 0.53744 2.1084 0.53744h2.6045v2.1222h-2.6045q-2.9352 0-4.0514-1.0886-1.1162-1.1024-1.1162-3.9963v-8.3785h-1.8604v-1.9706h1.8604v-4.3822z"/>
     <path d="m141.16 113.7v1.2402h-11.658q0.16537 2.6183 1.571 3.9963 1.4194 1.3643 3.9412 1.3643 1.4607 0 2.825-0.35829 1.378-0.35829 2.7285-1.0749v2.3978q-1.3643 0.57877-2.7974 0.88194-1.4332 0.30317-2.9076 0.30317-3.6931 0-5.8567-2.1497-2.1497-2.1497-2.1497-5.8153 0-3.7896 2.0395-6.0082 2.0533-2.2324 5.5259-2.2324 3.1144 0 4.9196 2.0119 1.819 1.9982 1.819 5.4432zm-2.5356-0.74414q-0.0276-2.0808-1.1713-3.3211-1.13-1.2402-3.0041-1.2402-2.1222 0-3.4038 1.1989-1.2678 1.1989-1.4607 3.3762z"/>
     <path d="m147.77 119.74v8.1855h-2.5494v-21.304h2.5494v2.3427q0.79926-1.378 2.0119-2.0395 1.2264-0.67524 2.9214-0.67524 2.8112 0 4.5613 2.2324 1.7639 2.2324 1.7639 5.8704t-1.7639 5.8704q-1.7501 2.2324-4.5613 2.2324-1.695 0-2.9214-0.66146-1.2127-0.67524-2.0119-2.0533zm8.6265-5.3881q0-2.7974-1.1576-4.3822-1.1438-1.5985-3.1557-1.5985-2.0119 0-3.1695 1.5985-1.1438 1.5847-1.1438 4.3822 0 2.7974 1.1438 4.3959 1.1576 1.5847 3.1695 1.5847 2.0119 0 3.1557-1.5847 1.1576-1.5985 1.1576-4.3959z"/>
     <path d="m172.32 101.48h3.7483l9.1226 17.212v-17.212h2.701v20.574h-3.7483l-9.1226-17.212v17.212h-2.701z"/>
     <g aria-label="Step N+1">
      <path d="m1081.8 102.16v2.7147q-1.5847-0.75792-2.9903-1.13t-2.7148-0.37207q-2.2737 0-3.514 0.88194-1.2264 0.88194-1.2264 2.508 0 1.3642 0.813 2.067 0.8268 0.68902 3.1144 1.1162l1.6812 0.34451q3.1144 0.59256 4.5889 2.0946 1.4882 1.4883 1.4882 3.9963 0 2.9903-2.0119 4.5337-1.9982 1.5434-5.8704 1.5434-1.4608 0-3.1144-0.33073-1.6399-0.33073-3.4038-0.9784v-2.8663q1.695 0.95084 3.3211 1.4332 1.6261 0.48231 3.1971 0.48231 2.384 0 3.6793-0.93707 1.2954-0.93706 1.2954-2.6734 0-1.5158-0.9371-2.3702-0.9233-0.85438-3.0455-1.2816l-1.6949-0.33072q-3.1144-0.62012-4.5062-1.943-1.3918-1.3229-1.3918-3.6794 0-2.7285 1.9154-4.2995 1.9293-1.571 5.3055-1.571 1.4469 0 2.949 0.26182 1.502 0.26183 3.073 0.78548z"/>
      <path d="m1089.8 102.24v4.3822h5.2228v1.9706h-5.2228v8.3785q0 1.8879 0.5099 2.4254 0.5237 0.53743 2.1084 0.53743h2.6045v2.1222h-2.6045q-2.9352 0-4.0514-1.0886-1.1162-1.1024-1.1162-3.9963v-8.3785h-1.8604v-1.9706h1.8604v-4.3822z"/>
      <path d="m1111.6 113.71v1.2402h-11.658q0.1654 2.6183 1.571 3.9963 1.4194 1.3642 3.9412 1.3642 1.4607 0 2.825-0.35829 1.378-0.35829 2.7285-1.0749v2.3978q-1.3643 0.57877-2.7974 0.88194-1.4332 0.30317-2.9077 0.30317-3.6931 0-5.8566-2.1497-2.1498-2.1497-2.1498-5.8153 0-3.7896 2.0395-6.0082 2.0533-2.2324 5.5259-2.2324 3.1144 0 4.9196 2.0119 1.819 1.9982 1.819 5.4432zm-2.5355-0.74414q-0.028-2.0808-1.1714-3.3211-1.13-1.2402-3.0041-1.2402-2.1222 0-3.4038 1.1989-1.2677 1.1989-1.4607 3.3762z"/>
      <path d="m1118.2 119.75v8.1855h-2.5494v-21.304h2.5494v2.3427q0.7993-1.378 2.012-2.0395 1.2264-0.67524 2.9214-0.67524 2.8112 0 4.5613 2.2324 1.7639 2.2324 1.7639 5.8704t-1.7639 5.8704q-1.7501 2.2324-4.5613 2.2324-1.695 0-2.9214-0.66146-1.2127-0.67524-2.012-2.0533zm8.6265-5.3881q0-2.7974-1.1575-4.3822-1.1438-1.5985-3.1557-1.5985-2.012 0-3.1695 1.5985-1.1438 1.5848-1.1438 4.3822 0 2.7974 1.1438 4.3959 1.1575 1.5847 3.1695 1.5847 2.0119 0 3.1557-1.5847 1.1575-1.5985 1.1575-4.3959z"/>
      <path d="m1142.7 101.49h3.7482l9.1226 17.212v-17.212h2.701v20.574h-3.7483l-9.1226-17.212v17.212h-2.7009z"/>
      <path d="m1174 104.37v7.6757h7.6757v2.3427h-7.6757v7.6757h-2.3151v-7.6757h-7.6756v-2.3427h7.6756v-7.6757z"/>
      <path d="m1188.2 119.72h4.5475v-15.696l-4.9472 0.99219v-2.5356l4.9196-0.99218h2.7837v18.231h4.5475v2.3427h-11.851z"/>
     </g>
    </g>
    <g stroke-width="3.4925" style="paint-order:stroke fill markers" aria-label="+">
     <path d="m988.28 350v12.665h12.665v3.8654h-12.665v12.665h-3.8199v-12.665h-12.665v-3.8654h12.665v-12.665z"/>
    </g>
    <g stroke-width="2.8" style="paint-order:stroke fill markers" aria-label="+">
     <path d="m848.05 350v12.665h12.665v3.8654h-12.665v12.665h-3.8199v-12.665h-12.665v-3.8654h12.665v-12.665z"/>
    </g>
    <g transform="rotate(.055027)" stroke-width=".21735" aria-label="masking">
     <path d="m801.9 183.42q0.93732-1.6845 2.2414-2.4859 1.3041-0.80148 3.0701-0.80148 2.3772 0 3.6678 1.6709 1.2905 1.6573 1.2905 4.7274v9.183h-2.5131v-9.1015q0-2.1871-0.7743-3.2466-0.77431-1.0596-2.3637-1.0596-1.9426 0-3.07 1.2905-1.1275 1.2905-1.1275 3.5183v8.5989h-2.5131v-9.1015q0-2.2007-0.77431-3.2466-0.77431-1.0596-2.3908-1.0596-1.9154 0-3.0429 1.3041-1.1275 1.2905-1.1275 3.5048v8.5989h-2.5131v-15.214h2.5131v2.3637q0.85581-1.3992 2.0512-2.0648 1.1954-0.66563 2.8391-0.66563 1.6573 0 2.812 0.84223 1.1683 0.84223 1.7252 2.4452z"/>
     <path d="m824.07 188.07q-3.0293 0-4.1976 0.6928t-1.1682 2.3637q0 1.3313 0.86939 2.1192 0.88298 0.7743 2.3908 0.7743 2.0784 0 3.3282-1.4671 1.2634-1.4807 1.2634-3.9259v-0.55695zm4.9854-1.0324v8.6804h-2.4995v-2.3093q-0.85582 1.3856-2.1327 2.0512-1.2769 0.65205-3.1244 0.65205-2.3365 0-3.7221-1.3041-1.372-1.3177-1.372-3.5183 0-2.5674 1.7116-3.8715 1.7252-1.3041 5.1349-1.3041h3.5048v-0.24451q0-1.7252-1.1411-2.6625-1.1275-0.9509-3.1787-0.9509-1.3041 0-2.5403 0.31244-1.2362 0.31244-2.3773 0.93731v-2.3093q1.372-0.52979 2.6625-0.78789 1.2905-0.27169 2.5131-0.27169 3.301 0 4.9311 1.7116 1.6301 1.7116 1.6301 5.1892z"/>
     <path d="m843.9 180.95v2.3637q-1.0596-0.54337-2.2007-0.81506-1.1411-0.27168-2.3637-0.27168-1.8611 0-2.7984 0.57054-0.92374 0.57054-0.92374 1.7116 0 0.8694 0.66563 1.372 0.66563 0.48904 2.6761 0.93732l0.85581 0.19018q2.6625 0.57054 3.7764 1.6165 1.1275 1.0324 1.1275 2.8935 0 2.1192-1.6845 3.3553-1.6709 1.2362-4.6051 1.2362-1.2226 0-2.5539-0.24452-1.3177-0.23093-2.7848-0.70638v-2.581q1.3856 0.71997 2.7304 1.0868 1.3448 0.35319 2.6625 0.35319 1.766 0 2.7169-0.59771 0.9509-0.61129 0.9509-1.7116 0-1.0188-0.6928-1.5622-0.67922-0.54337-3.0021-1.046l-0.8694-0.20377q-2.3229-0.48903-3.3553-1.4943-1.0324-1.0188-1.0324-2.7848 0-2.1463 1.5214-3.3146 1.5214-1.1682 4.3198-1.1682 1.3856 0 2.6082 0.20377 1.2226 0.20376 2.255 0.61129z"/>
     <path d="m848.6 174.58h2.5131v12.484l7.4578-6.5612h3.1923l-8.0691 7.1182 8.4087 8.0963h-3.2602l-7.7295-7.4306v7.4306h-2.5131z"/>
     <path d="m864.81 180.5h2.4995v15.214h-2.4995zm0-5.9228h2.4995v3.1652h-2.4995z"/>
     <path d="m885.18 186.53v9.183h-2.4995v-9.1015q0-2.1599-0.84222-3.2331-0.84223-1.0732-2.5267-1.0732-2.0241 0-3.1923 1.2905-1.1683 1.2905-1.1683 3.5183v8.5989h-2.5131v-15.214h2.5131v2.3637q0.89657-1.372 2.1056-2.0512 1.2226-0.67922 2.812-0.67922 2.6218 0 3.9666 1.6301 1.3448 1.6165 1.3448 4.7681z"/>
     <path d="m900.18 187.93q0-2.7169-1.1275-4.2111-1.1139-1.4943-3.138-1.4943-2.0105 0-3.138 1.4943-1.1139 1.4943-1.1139 4.2111 0 2.7033 1.1139 4.1976 1.1275 1.4943 3.138 1.4943 2.0241 0 3.138-1.4943 1.1275-1.4943 1.1275-4.1976zm2.4995 5.8956q0 3.8851-1.7252 5.7733-1.7252 1.9018-5.2843 1.9018-1.3177 0-2.4859-0.20377-1.1682-0.19018-2.2686-0.59771v-2.4316q1.1003 0.59771 2.1735 0.88298t2.1871 0.28527q2.4588 0 3.6814-1.2905 1.2226-1.2769 1.2226-3.8715v-1.2362q-0.77431 1.3448-1.9833 2.0105-1.209 0.66563-2.8935 0.66563-2.7984 0-4.51-2.1327-1.7116-2.1327-1.7116-5.6511 0-3.5319 1.7116-5.6647 1.7116-2.1327 4.51-2.1327 1.6845 0 2.8935 0.66563 1.209 0.66564 1.9833 2.0105v-2.3093h2.4995z"/>
    </g>
   </g>
   <path d="m316.98 302.87c-7.9165 2.1212-13.791 7.3151-17.959 14.307s-6.7438 15.784-8.4141 25.543c-3.3404 19.518-3.0332 42.979-3.4707 63.541-0.43962 20.661-0.17099 41.401-3.3926 57.703-1.6108 8.1512-4.0898 15.165-7.8359 20.529-3.7461 5.3641-8.6964 9.1289-15.65 10.992l1.0352 3.8633c7.8187-2.095 13.69-6.544 17.895-12.564 4.2044-6.0204 6.8057-13.56 8.4824-22.045 3.3534-16.969 3.0292-37.829 3.4668-58.395 0.43968-20.664 0.17114-44.001 3.4141-62.949 1.6214-9.4743 4.1269-17.832 7.9062-24.172 3.7794-6.3396 8.7192-10.658 15.559-12.49z" color="#000000" fill="#999" stroke-miterlimit=".20833" style="-inkscape-stroke:none"/>
  </g>
  <g fill="#999" fill-rule="evenodd">
   <path d="m326.41 302.41-11.298 11.309-4.1411-15.455z" color="#000000" stroke-width="1.6pt" style="-inkscape-stroke:none"/>
   <path d="m309.47 296.76 5.0976 19.027 13.908-13.924-1.7832-0.47851zm3.0176 3.0215 11.871 3.1856-8.6875 8.6953z" color="#000000" style="-inkscape-stroke:none"/>
   <path d="m382.62 364.78-1.0352 3.8633c16.49 4.4184 26.284 14.616 32.213 28.363 5.9286 13.747 7.791 31.068 7.791 49.08 0 17.671 1.5407 36.256 7.6816 51.402 6.141 15.146 17.187 26.897 35.477 29.945l0.6582-3.9453c-16.932-2.8221-26.631-13.206-32.428-27.504-5.797-14.298-7.3887-32.465-7.3887-49.898 0-18.284-1.8286-36.082-8.1172-50.664s-17.236-25.922-34.852-30.643z" clip-rule="evenodd" color="#000000" stroke-linejoin="round" stroke-miterlimit=".20833" style="-inkscape-stroke:none"/>
   <path d="m474.18 526.98-14.967 5.6159 2.6304-15.782z" color="#000000" stroke-width="1.6pt" style="-inkscape-stroke:none"/>
   <path d="m461.09 514.81-3.2383 19.43 18.424-6.9141-1.4238-1.1738zm1.4941 3.998 9.4883 7.8184-11.508 4.3164z" color="#000000" style="-inkscape-stroke:none"/>
   <path d="m464.74 167.28c-18.29 3.0483-29.336 14.799-35.477 29.945-6.141 15.146-7.6816 33.731-7.6816 51.402 0 18.013-1.8624 35.333-7.791 49.08-5.9286 13.747-15.723 23.945-32.213 28.363l1.0352 3.8633c17.616-4.7201 28.563-16.061 34.852-30.643s8.1172-32.38 8.1172-50.664c0-17.433 1.5916-35.601 7.3887-49.898 5.797-14.298 15.495-24.682 32.428-27.504z" clip-rule="evenodd" color="#000000" stroke-linejoin="round" stroke-miterlimit=".20833" style="-inkscape-stroke:none"/>
   <path d="m474.18 167.73-12.336 10.166-2.6304-15.782z" color="#000000" stroke-width="1.6pt" style="-inkscape-stroke:none"/>
   <path d="m457.86 160.47 3.2383 19.428 15.186-12.516-1.7266-0.64649zm2.7129 3.2969 11.508 4.3164-9.4863 7.8184z" color="#000000" style="-inkscape-stroke:none"/>
   <path d="m527.65 167.75v4h56.621v-4z" clip-rule="evenodd" color="#000000" stroke-linejoin="round" stroke-miterlimit=".20833" style="-inkscape-stroke:none"/>
   <path d="m593.5 169.75-13.84 8v-16z" color="#000000" stroke-width="1.6pt" style="-inkscape-stroke:none"/>
   <path d="m578.6 159.9v19.697l17.037-9.8477-1.5976-0.92383zm2.1328 3.6973 10.643 6.1523-10.643 6.1524z" color="#000000" style="-inkscape-stroke:none"/>
   <path d="m527.65 527.5v4h56.621v-4z" clip-rule="evenodd" color="#000000" stroke-linejoin="round" stroke-miterlimit=".20833" style="-inkscape-stroke:none"/>
   <path d="m593.5 529.5-13.84 8v-16z" color="#000000" stroke-width="1.6pt" style="-inkscape-stroke:none"/>
   <path d="m578.6 519.65v19.697l17.037-9.8477-1.5976-0.92383zm2.1328 3.6953 10.645 6.1523-10.645 6.1543z" color="#000000" style="-inkscape-stroke:none"/>
  </g>
  <g stroke-linecap="round" stroke-miterlimit=".20833">
   <path d="m1115.1 138.52h38.455c6.9374 0 12.522 5.585 12.522 12.522v387.71c0 6.9374-5.5849 12.522-12.522 12.522h-38.455c-6.9374 0-12.522-5.585-12.522-12.522v-387.71c0-6.9374 5.585-12.522 12.522-12.522z" color="#000000" fill-opacity="0" stroke-width="4" style="-inkscape-stroke:none"/>
   <path d="m1115.1 136.53c-8.0108 0-14.521 6.5107-14.521 14.521v387.71c0 8.0108 6.5106 14.523 14.521 14.523h38.455c8.0108 0 14.524-6.5127 14.524-14.523v-387.71c0-8.0108-6.5127-14.521-14.524-14.521zm0 4h38.455c5.864 0 10.524 4.6575 10.524 10.521v387.71c0 5.864-4.6595 10.523-10.524 10.523h-38.455c-5.864 0-10.521-4.6595-10.521-10.523v-387.71c0-5.864 4.6574-10.521 10.521-10.521z" color="#000000" fill="#999" style="-inkscape-stroke:none"/>
  </g>
  <g clip-rule="evenodd" fill-rule="evenodd" stroke-linecap="round" stroke-linejoin="round" stroke-miterlimit="0">
   <path d="m1116 150.86h36.62v36.62h-36.62z" fill="#ff5757" stroke-width=".3175"/>
   <g fill="#fff" stroke-width=".3175" aria-label="R">
    <path d="m1141 179.03-5.3342-8.5261h-6.3982v8.5261h-2.7837v-20.535h9.6629q3.4687 0 5.3488 1.5595 1.8947 1.5449 1.8947 4.314 0 2.2882-1.3409 3.8477-1.3263 1.5595-3.6728 1.9676l5.8298 8.8467zm-0.408-14.633q0-1.7927-1.2243-2.7254-1.2097-0.94734-3.4979-0.94734h-6.6022v7.5787h6.7188q2.2008 0 3.3959-1.0202 1.2097-1.0348 1.2097-2.8857z"/>
   </g>
   <path d="m1116 238.73h36.62v36.62h-36.62z" fill="#5757ff" stroke-width=".3175"/>
   <g fill="#fff" stroke-width=".3175" aria-label="B">
    <path d="m1142.4 262.33q0 2.74-1.9967 4.2703-1.9967 1.5158-5.5528 1.5158h-8.3366v-20.535h7.4621q7.2289 0 7.2289 4.9845 0 1.8218-1.0202 3.0606t-2.8857 1.6615q2.4485 0.29149 3.7748 1.6469 1.3262 1.3408 1.3262 3.3958zm-3.9934-9.4297q0-1.6615-1.1368-2.3756t-3.2938-0.71415h-4.6784v6.5002h4.6784q2.2299 0 3.323-0.83074 1.1076-0.84532 1.1076-2.5797zm1.1806 9.2111q0-3.629-5.1011-3.629h-5.1885v7.4038h5.4071q2.5506 0 3.7165-0.94734 1.166-0.94734 1.166-2.8274z"/>
   </g>
   <path d="m1116 194.79h36.62v36.62h-36.62z" fill="#55d400" stroke-width=".3175"/>
   <g fill="#fff" stroke-width=".3175" aria-label="G">
    <path d="m1139.8 220.44v-5.8444h-4.8096v-2.4194h7.7244v9.3422q-1.7052 1.2097-3.7602 1.8364-2.055 0.61212-4.3869 0.61212-5.101 0-7.9868-2.9732-2.8712-2.9878-2.8712-8.3074 0-5.3342 2.8712-8.3074 2.8858-2.9878 7.9868-2.9878 2.1279 0 4.0372 0.52468 1.9238 0.52468 3.5415 1.5449v3.1335q-1.6323-1.3846-3.4687-2.0841-1.8364-0.69958-3.8622-0.69958-3.9934 0-6.0047 2.2299-1.9967 2.2299-1.9967 6.646 0 4.4015 1.9967 6.6314 2.0113 2.2299 6.0047 2.2299 1.5595 0 2.7837-0.26234 1.2243-0.27691 2.2008-0.84532z"/>
   </g>
   <path d="m1116 502.32h36.62v36.62h-36.62z" fill="#666" stroke-width="3.5"/>
   <g fill="#e6e6e6">
    <path d="m1116 282.66h36.62v36.62h-36.62z" stroke-width="3.5"/>
    <path d="m1116 414.45h36.62v36.62h-36.62z" stroke-width="3.5"/>
    <g stroke-width="3.5">
     <path d="m1142.6 341.84a8.2918 8.2918 0 0 1-8.2918 8.2918 8.2918 8.2918 0 0 1-8.2918-8.2918 8.2918 8.2918 0 0 1 8.2918-8.2918 8.2918 8.2918 0 0 1 8.2918 8.2918z"/>
     <path d="m1142.6 366.87a8.2918 8.2918 0 0 1-8.2918 8.2918 8.2918 8.2918 0 0 1-8.2918-8.2918 8.2918 8.2918 0 0 1 8.2918-8.2918 8.2918 8.2918 0 0 1 8.2918 8.2918z"/>
     <path d="m1142.6 391.89a8.2918 8.2918 0 0 1-8.2918 8.2918 8.2918 8.2918 0 0 1-8.2918-8.2918 8.2918 8.2918 0 0 1 8.2918-8.2918 8.2918 8.2918 0 0 1 8.2918 8.2918z"/>
    </g>
   </g>
   <path d="m1116 458.39h36.62v36.62h-36.62z" fill="#666" stroke-width="3.5"/>
   <g fill="#fff">
    <g stroke-width=".14822" aria-label="α">
     <path d="m1134.9 481.89q-1.1938 2.5769-2.8612 3.7328-1.6485 1.1369-3.9412 1.1369-3.8843 0-5.7223-2.6148-1.819-2.6148-1.819-7.9203 0-5.3812 2.0464-8.0529 2.0653-2.6717 6.0255-2.6717 2.3874 0 4.0738 1.2695 1.7053 1.2695 2.558 3.5622h0.038q0.4358-2.2548 1.3832-4.4528h3.5622q-0.9474 2.0085-1.7432 4.9265-0.7958 2.899-0.9474 4.756 0.095 3.0317 0.6442 5.9497 0.5685 2.918 1.459 4.8696h-3.4675q-0.4547-1.1558-0.7958-2.5011-0.3221-1.3643-0.4168-1.9895zm-10.762-5.7791q0 4.2065 1.08 6.1202 1.0801 1.8948 3.5812 1.8948 2.2738 0 3.8275-2.179 1.5727-2.198 2.0653-5.9118-0.5495-3.998-1.9895-6.0065t-3.6949-2.0085q-2.5769 0-3.7327 1.9138-1.1369 1.8948-1.1369 6.177z"/>
    </g>
    <g stroke-width=".26458" aria-label="1">
     <path d="m1141.7 491.07v-1.4336h3.3637v-10.157l-2.9796 2.127v-1.5929l3.1202-2.1457h1.5554v11.769h3.2138v1.4336z"/>
    </g>
    <g stroke-width=".14822" aria-label="α">
     <path d="m1134.9 525.82q-1.1937 2.5769-2.8612 3.7328-1.6484 1.1369-3.9411 1.1369-3.8844 0-5.7223-2.6148-1.819-2.6148-1.819-7.9203 0-5.3812 2.0463-8.0529 2.0654-2.6717 6.0255-2.6717 2.3875 0 4.0738 1.2695 1.7053 1.2695 2.558 3.5622h0.038q0.4358-2.2548 1.3832-4.4528h3.5622q-0.9474 2.0085-1.7432 4.9265-0.7958 2.899-0.9474 4.756 0.095 3.0317 0.6442 5.9497 0.5685 2.918 1.459 4.8696h-3.4674q-0.4548-1.1558-0.7959-2.5011-0.3221-1.3643-0.4168-1.9895zm-10.762-5.7791q0 4.2064 1.0801 6.1202 1.08 1.8948 3.5811 1.8948 2.2738 0 3.8275-2.179 1.5727-2.198 2.0654-5.9118-0.5495-3.998-1.9896-6.0065-1.44-2.0085-3.6948-2.0085-2.577 0-3.7328 1.9138-1.1369 1.8948-1.1369 6.177z"/>
    </g>
    <g stroke-width=".26458" aria-label="2">
     <path d="m1141.2 535v-1.19q0.4778-1.0963 1.1618-1.9302 0.6934-0.84329 1.4524-1.5179 0.7589-0.684 1.4992-1.2649 0.7495-0.58094 1.3492-1.1619t0.9651-1.2181q0.3748-0.63715 0.3748-1.443 0-1.0869-0.6371-1.6866-0.6372-0.59967-1.771-0.59967-1.0775 0-1.7802 0.5903-0.6934 0.58093-0.8152 1.6397l-1.7241-0.15929q0.1874-1.5835 1.3399-2.5205 1.1619-0.93699 2.9796-0.93699 1.9958 0 3.064 0.94636 1.0775 0.93698 1.0775 2.6704 0 0.76833-0.356 1.5273-0.3467 0.75896-1.0401 1.5179-0.6933 0.75896-2.6517 2.3518-1.0775 0.88076-1.7146 1.5929-0.6372 0.70275-0.9183 1.3586h6.8869v1.4336z"/>
    </g>
   </g>
  </g>
  <g stroke-linecap="round" stroke-miterlimit=".20833">
   <path d="m123.34 138.52h39.393c6.6777 0 12.054 5.3759 12.054 12.054v388.64c0 6.6777-5.3759 12.054-12.054 12.054h-39.393c-6.6777 0-12.054-5.3759-12.054-12.054v-388.64c0-6.6777 5.3759-12.054 12.054-12.054z" color="#000000" fill-opacity="0" stroke-width="4" style="-inkscape-stroke:none"/>
   <path d="m123.34 136.53c-7.7511 0-14.053 6.3017-14.053 14.053v388.64c0 7.7511 6.3017 14.055 14.053 14.055h39.393c7.7511 0 14.055-6.3036 14.055-14.055v-388.64c0-7.7511-6.3036-14.053-14.055-14.053zm0 4h39.393c5.6043 0 10.055 4.4485 10.055 10.053v388.64c0 5.6043-4.4504 10.055-10.055 10.055h-39.393c-5.6043 0-10.053-4.4504-10.053-10.055v-388.64c0-5.6043 4.4485-10.053 10.053-10.053z" color="#000000" fill="#999" style="-inkscape-stroke:none"/>
  </g>
  <g clip-rule="evenodd" fill-rule="evenodd" stroke-linejoin="round" stroke-miterlimit="0">
   <g stroke-linecap="round">
    <path d="m124.72 150.86h36.62v36.62h-36.62z" fill="#ff5757" stroke-width=".3175"/>
    <g fill="#fff" stroke-width=".3175" aria-label="R">
     <path d="m149.75 179.03-5.3343-8.5261h-6.3982v8.5261h-2.7837v-20.535h9.6629q3.4687 0 5.3488 1.5595 1.8947 1.5449 1.8947 4.314 0 2.2882-1.3408 3.8477-1.3263 1.5595-3.6728 1.9676l5.8298 8.8467zm-0.40809-14.633q0-1.7927-1.2242-2.7254-1.2097-0.94734-3.4979-0.94734h-6.6022v7.5787h6.7188q2.2008 0 3.3958-1.0202 1.2097-1.0348 1.2097-2.8857z"/>
    </g>
    <path d="m124.72 238.73h36.62v36.62h-36.62z" fill="#5757ff" stroke-width=".3175"/>
    <g fill="#fff" stroke-width=".3175" aria-label="B">
     <path d="m151.12 262.33q0 2.74-1.9967 4.2703-1.9967 1.5158-5.5529 1.5158h-8.3366v-20.535h7.4621q7.2289 0 7.2289 4.9845 0 1.8218-1.0202 3.0606t-2.8858 1.6615q2.4485 0.29149 3.7748 1.6469 1.3263 1.3408 1.3263 3.3958zm-3.9934-9.4297q0-1.6615-1.1368-2.3756-1.1368-0.71415-3.2938-0.71415h-4.6784v6.5002h4.6784q2.2299 0 3.323-0.83074 1.1077-0.84532 1.1077-2.5797zm1.1805 9.2111q0-3.629-5.1011-3.629h-5.1885v7.4038h5.4071q2.5505 0 3.7165-0.94734 1.166-0.94734 1.166-2.8274z"/>
    </g>
    <path d="m124.72 194.79h36.62v36.62h-36.62z" fill="#55d400" stroke-width=".3175"/>
    <g fill="#fff" stroke-width=".3175" aria-label="G">
     <path d="m148.56 220.44v-5.8444h-4.8096v-2.4194h7.7245v9.3422q-1.7052 1.2097-3.7602 1.8364-2.055 0.61213-4.3869 0.61213-5.1011 0-7.9868-2.9732-2.8712-2.9878-2.8712-8.3074 0-5.3342 2.8712-8.3074 2.8857-2.9878 7.9868-2.9878 2.1279 0 4.0371 0.52468 1.9238 0.52468 3.5416 1.5449v3.1335q-1.6323-1.3846-3.4687-2.0842t-3.8622-0.69957q-3.9934 0-6.0047 2.2299-1.9967 2.2299-1.9967 6.646 0 4.4015 1.9967 6.6314 2.0113 2.2299 6.0047 2.2299 1.5595 0 2.7837-0.26234 1.2243-0.27692 2.2008-0.84532z"/>
    </g>
    <path d="m124.72 502.32h36.62v36.62h-36.62z" fill="#666" stroke-width="3.5"/>
   </g>
   <g fill="#e6e6e6" stroke-linecap="round">
    <path d="m124.72 282.66h36.62v36.62h-36.62z" stroke-width="3.5"/>
    <path d="m124.72 414.45h36.62v36.62h-36.62z" stroke-width="3.5"/>
    <g stroke-width="3.5">
     <path d="m151.32 341.84a8.2918 8.2918 0 0 1-8.2918 8.2918 8.2918 8.2918 0 0 1-8.2918-8.2918 8.2918 8.2918 0 0 1 8.2918-8.2918 8.2918 8.2918 0 0 1 8.2918 8.2918z"/>
     <path d="m151.32 366.87a8.2918 8.2918 0 0 1-8.2918 8.2918 8.2918 8.2918 0 0 1-8.2918-8.2918 8.2918 8.2918 0 0 1 8.2918-8.2918 8.2918 8.2918 0 0 1 8.2918 8.2918z"/>
     <path d="m151.32 391.89a8.2918 8.2918 0 0 1-8.2918 8.2918 8.2918 8.2918 0 0 1-8.2918-8.2918 8.2918 8.2918 0 0 1 8.2918-8.2918 8.2918 8.2918 0 0 1 8.2918 8.2918z"/>
    </g>
   </g>
   <path d="m124.72 458.39h36.62v36.62h-36.62z" fill="#666" stroke-linecap="round" stroke-width="3.5"/>
   <g fill="#fff" stroke-linecap="round">
    <g stroke-width=".14822" aria-label="α">
     <path d="m143.64 481.89q-1.1937 2.5769-2.8612 3.7328-1.6485 1.1369-3.9412 1.1369-3.8843 0-5.7223-2.6148-1.819-2.6148-1.819-7.9203 0-5.3812 2.0464-8.0529 2.0653-2.6717 6.0255-2.6717 2.3874 0 4.0738 1.2695 1.7053 1.2695 2.558 3.5622h0.0379q0.4358-2.2548 1.3832-4.4528h3.5622q-0.9474 2.0085-1.7432 4.9265-0.79582 2.899-0.9474 4.756 0.0947 3.0317 0.64423 5.9497 0.56844 2.918 1.459 4.8696h-3.4675q-0.45475-1.1558-0.79581-2.5011-0.32212-1.3643-0.41686-1.9895zm-10.762-5.7791q0 4.2065 1.08 6.1202 1.08 1.8948 3.5812 1.8948 2.2738 0 3.8275-2.179 1.5727-2.198 2.0653-5.9118-0.54949-3.998-1.9895-6.0065t-3.6949-2.0085q-2.5769 0-3.7328 1.9138-1.1369 1.8948-1.1369 6.177z"/>
    </g>
    <g stroke-width=".26458" aria-label="1">
     <path d="m150.43 491.07v-1.4336h3.3638v-10.157l-2.9796 2.127v-1.5929l3.1202-2.1457h1.5554v11.769h3.2139v1.4336z"/>
    </g>
    <g stroke-width=".14822" aria-label="α">
     <path d="m143.66 525.82q-1.1937 2.5769-2.8612 3.7328-1.6485 1.1369-3.9412 1.1369-3.8843 0-5.7223-2.6148-1.819-2.6148-1.819-7.9203 0-5.3812 2.0464-8.0529 2.0653-2.6717 6.0255-2.6717 2.3874 0 4.0738 1.2695 1.7053 1.2695 2.558 3.5622h0.0379q0.4358-2.2548 1.3832-4.4528h3.5622q-0.9474 2.0085-1.7432 4.9265-0.79582 2.899-0.9474 4.756 0.0947 3.0317 0.64423 5.9497 0.56844 2.918 1.459 4.8696h-3.4675q-0.45475-1.1558-0.79581-2.5011-0.32212-1.3643-0.41686-1.9895zm-10.762-5.7791q0 4.2064 1.08 6.1202 1.08 1.8948 3.5812 1.8948 2.2738 0 3.8275-2.179 1.5727-2.198 2.0653-5.9118-0.54949-3.998-1.9895-6.0065t-3.6949-2.0085q-2.5769 0-3.7328 1.9138-1.1369 1.8948-1.1369 6.177z"/>
    </g>
    <g stroke-width=".26458" aria-label="2">
     <path d="m149.94 535v-1.19q0.47786-1.0963 1.1619-1.9302 0.69337-0.84329 1.4523-1.5179 0.75896-0.684 1.4992-1.2649 0.74959-0.58094 1.3493-1.1619 0.59968-0.58093 0.9651-1.2181 0.3748-0.63715 0.3748-1.443 0-1.0869-0.63716-1.6866-0.63715-0.59967-1.7709-0.59967-1.0775 0-1.7803 0.5903-0.69337 0.58093-0.81518 1.6397l-1.724-0.15929q0.18739-1.5835 1.3399-2.5205 1.1619-0.93698 2.9796-0.93698 1.9958 0 3.064 0.94635 1.0775 0.93699 1.0775 2.6704 0 0.76833-0.35605 1.5273-0.34669 0.75896-1.0401 1.5179t-2.6517 2.3518q-1.0775 0.88076-1.7147 1.5929-0.63715 0.70274-0.91825 1.3586h6.8869v1.4336z"/>
    </g>
   </g>
   <path d="m631.37 157.3-0.77539 2.8984c6.6734 1.7881 11.034 7.2667 14.34 15.051s5.4184 17.727 7.5391 27.74c2.1206 10.014 4.2507 20.1 7.7774 28.314 3.5267 8.2144 8.5894 14.698 16.512 16.82l0.77539-2.8965c-6.7632-1.8122-11.185-7.3135-14.531-15.107-3.3461-7.7939-5.4774-17.74-7.5977-27.752s-4.2293-20.089-7.7129-28.291c-3.4836-8.2019-8.4804-14.675-16.326-16.777z" color="#000000" fill="#999" style="-inkscape-stroke:none"/>
  </g>
  <g fill="#999" fill-rule="evenodd">
   <path d="m683.84 248.47-11.579 3.109 3.1058-11.591z" color="#000000" stroke-width="1.2pt" style="-inkscape-stroke:none"/>
   <path d="m674.95 238.44-3.8223 14.27 14.254-3.8281-0.97852-0.97851zm0.82812 3.0918 6.5156 6.5215-8.9024 2.3906z" color="#000000" style="-inkscape-stroke:none"/>
  </g>
  <g clip-rule="evenodd" fill-rule="evenodd" stroke-linecap="round" stroke-linejoin="round" stroke-miterlimit="0">
   <g stroke-width=".17556">
    <path d="m690.56 67.543h20.248v20.248h-20.248z" fill="#ff5757"/>
    <path d="m690.56 116.13h20.248v20.248h-20.248z" fill="#5757ff"/>
    <path d="m690.56 91.835h20.248v20.248h-20.248z" fill="#55d400"/>
    <path d="m690.56 239.08h20.248v20.248h-20.248z" fill="#666"/>
    <path d="m690.56 262.61h20.248v20.248h-20.248z" fill="#666"/>
    <path d="m690.56 141.15h20.248v20.248h-20.248z" fill="#ebebeb"/>
    <path d="m690.56 214.02h20.248v20.248h-20.248z" fill="#ebebeb"/>
   </g>
   <g fill="#fff" stroke-width=".55613" aria-label="0">
    <path d="m700.69 266.39q-1.6097 0-2.4249 1.5891-0.80486 1.5788-0.80486 4.757 0 3.1678 0.80486 4.7569 0.81518 1.5788 2.4249 1.5788 1.62 0 2.4249-1.5788 0.81518-1.5891 0.81518-4.7569 0-3.1782-0.81518-4.757-0.80486-1.5891-2.4249-1.5891zm0-1.651q2.59 0 3.9521 2.0534 1.3724 2.0431 1.3724 5.9436 0 3.8902-1.3724 5.9436-1.3621 2.0431-3.9521 2.0431-2.59 0-3.9624-2.0431-1.3621-2.0534-1.3621-5.9436 0-3.9005 1.3621-5.9436 1.3724-2.0534 3.9624-2.0534z"/>
   </g>
   <g fill="#ebebeb" stroke-width=".17556">
    <path d="m705.27 173.87a4.5848 4.5848 0 0 1-4.5848 4.5848 4.5848 4.5848 0 0 1-4.5848-4.5848 4.5848 4.5848 0 0 1 4.5848-4.5848 4.5848 4.5848 0 0 1 4.5848 4.5848z"/>
    <path d="m705.27 187.71a4.5848 4.5848 0 0 1-4.5848 4.5848 4.5848 4.5848 0 0 1-4.5848-4.5848 4.5848 4.5848 0 0 1 4.5848-4.5848 4.5848 4.5848 0 0 1 4.5848 4.5848z"/>
    <path d="m705.27 201.54a4.5848 4.5848 0 0 1-4.5848 4.5848 4.5848 4.5848 0 0 1-4.5848-4.5848 4.5848 4.5848 0 0 1 4.5848-4.5848 4.5848 4.5848 0 0 1 4.5848 4.5848z"/>
   </g>
   <g fill="#fff" stroke-width=".57865" aria-label="δ">
    <path d="m703.85 252.01q0-0.9341-0.28989-1.7501-0.27915-0.82673-0.7301-1.5246-0.44021-0.70863-1.3421-1.6427-1.9219 0.68716-2.9419 1.9648-1.02 1.2777-1.02 2.9526 0 1.8145 0.83747 2.8345 0.8482 1.0092 2.3406 1.0092 1.5461 0 2.3406-0.9663 0.80525-0.96631 0.80525-2.8775zm-2.7594-9.4591-1.6535-0.0859 3.3928 3.4787q1.2992 1.3314 1.8575 2.1903 0.56905 0.8482 0.88042 1.793 0.31136 0.9341 0.31136 2.04 0 2.4372-1.385 3.876-1.385 1.4387-3.7901 1.4387-2.4265 0-3.8223-1.4065-1.385-1.4065-1.385-3.8867 0-2.0829 1.2562-3.5754 1.2562-1.5031 3.7364-2.3621l-3.425-3.6398v-1.2777h7.87v1.4172z"/>
   </g>
   <g stroke-width=".17556">
    <path d="m604.31 69.961h20.248v20.248h-20.248z" fill="#ff5757"/>
    <path d="m604.31 118.54h20.248v20.248h-20.248z" fill="#5757ff"/>
    <path d="m604.31 94.252h20.248v20.248h-20.248z" fill="#55d400"/>
    <path d="m604.52 264.29h20.248v20.248h-20.248z" fill="#ebebeb"/>
    <path d="m604.31 142.84h20.248v20.248h-20.248z" fill="#666"/>
   </g>
   <g fill="#ebebeb" stroke-width=".17556">
    <path d="m604.31 167.13h20.248v20.248h-20.248z"/>
    <path d="m604.31 191.42h20.248v20.248h-20.248z"/>
    <path d="m619.36 224.14a4.5848 4.5848 0 0 1-4.5848 4.5848 4.5848 4.5848 0 0 1-4.5848-4.5848 4.5848 4.5848 0 0 1 4.5848-4.5848 4.5848 4.5848 0 0 1 4.5848 4.5848z"/>
    <path d="m619.36 237.98a4.5848 4.5848 0 0 1-4.5848 4.5848 4.5848 4.5848 0 0 1-4.5848-4.5848 4.5848 4.5848 0 0 1 4.5848-4.5848 4.5848 4.5848 0 0 1 4.5848 4.5848z"/>
    <path d="m619.36 251.81a4.5848 4.5848 0 0 1-4.5848 4.5848 4.5848 4.5848 0 0 1-4.5848-4.5848 4.5848 4.5848 0 0 1 4.5848-4.5848 4.5848 4.5848 0 0 1 4.5848 4.5848z"/>
   </g>
   <g fill="#fff" stroke-width=".57865" aria-label="δ">
    <path d="m617.59 155.76q0-0.9341-0.28989-1.7501-0.27916-0.82673-0.7301-1.5246-0.44021-0.70863-1.3421-1.6427-1.9219 0.68716-2.9419 1.9648-1.02 1.2777-1.02 2.9526 0 1.8145 0.83747 2.8345 0.84821 1.0093 2.3406 1.0093 1.5461 0 2.3406-0.96631 0.80526-0.96631 0.80526-2.8775zm-2.7594-9.4591-1.6535-0.0859 3.3928 3.4787q1.2991 1.3314 1.8575 2.1903 0.56905 0.8482 0.88041 1.793 0.31137 0.9341 0.31137 2.04 0 2.4372-1.385 3.876-1.385 1.4387-3.7901 1.4387-2.4265 0-3.8223-1.4065-1.385-1.4065-1.385-3.8867 0-2.0829 1.2562-3.5753 1.2562-1.5032 3.7364-2.3621l-3.425-3.6398v-1.2777h7.87v1.4172z"/>
   </g>
   <g transform="rotate(.055027)" stroke-width=".21735" aria-label="masking">
    <path d="m802.24 537.27q0.93732-1.6845 2.2414-2.4859 1.3041-0.80148 3.0701-0.80148 2.3773 0 3.6678 1.6709 1.2905 1.6573 1.2905 4.7273v9.183h-2.5131v-9.1015q0-2.1871-0.77431-3.2467-0.77431-1.0596-2.3637-1.0596-1.9426 0-3.0701 1.2905t-1.1275 3.5183v8.5989h-2.5131v-9.1015q0-2.2007-0.77431-3.2467-0.7743-1.0596-2.3908-1.0596-1.9154 0-3.0429 1.3041-1.1275 1.2905-1.1275 3.5048v8.5989h-2.5131v-15.214h2.5131v2.3637q0.85581-1.3992 2.0512-2.0648 1.1954-0.66564 2.8391-0.66564 1.6573 0 2.812 0.84223 1.1682 0.84223 1.7252 2.4452z"/>
    <path d="m824.41 541.92q-3.0293 0-4.1976 0.6928t-1.1682 2.3637q0 1.3313 0.8694 2.1192 0.88298 0.77431 2.3908 0.77431 2.0784 0 3.3282-1.4671 1.2633-1.4807 1.2633-3.9259v-0.55696zm4.9854-1.0324v8.6804h-2.4995v-2.3093q-0.85581 1.3856-2.1327 2.0512-1.2769 0.65205-3.1244 0.65205-2.3365 0-3.7221-1.3041-1.372-1.3177-1.372-3.5183 0-2.5674 1.7116-3.8715 1.7252-1.3041 5.1349-1.3041h3.5048v-0.24452q0-1.7252-1.1411-2.6625-1.1275-0.9509-3.1787-0.9509-1.3041 0-2.5403 0.31244-1.2362 0.31244-2.3773 0.93732v-2.3093q1.372-0.52979 2.6625-0.78789 1.2905-0.27169 2.5131-0.27169 3.301 0 4.9311 1.7116 1.6301 1.7116 1.6301 5.1892z"/>
    <path d="m844.24 534.8v2.3637q-1.0596-0.54338-2.2007-0.81506-1.1411-0.27169-2.3637-0.27169-1.861 0-2.7984 0.57054-0.92374 0.57054-0.92374 1.7116 0 0.86939 0.66564 1.372 0.66563 0.48904 2.6761 0.93732l0.85581 0.19018q2.6625 0.57054 3.7764 1.6165 1.1275 1.0324 1.1275 2.8935 0 2.1192-1.6844 3.3553-1.6709 1.2362-4.6051 1.2362-1.2226 0-2.5538-0.24452-1.3177-0.23093-2.7848-0.70638v-2.581q1.3856 0.71997 2.7304 1.0867 1.3448 0.3532 2.6625 0.3532 1.766 0 2.7169-0.59771 0.95091-0.6113 0.95091-1.7116 0-1.0188-0.69281-1.5622-0.67921-0.54337-3.0021-1.046l-0.8694-0.20377q-2.3229-0.48903-3.3553-1.4943-1.0324-1.0188-1.0324-2.7848 0-2.1463 1.5214-3.3146 1.5214-1.1683 4.3198-1.1683 1.3856 0 2.6082 0.20377 1.2226 0.20376 2.255 0.61129z"/>
    <path d="m848.94 528.43h2.5131v12.484l7.4578-6.5612h3.1923l-8.0691 7.1182 8.4087 8.0963h-3.2602l-7.7295-7.4306v7.4306h-2.5131z"/>
    <path d="m865.15 534.35h2.4995v15.214h-2.4995zm0-5.9228h2.4995v3.1652h-2.4995z"/>
    <path d="m885.52 540.39v9.183h-2.4995v-9.1015q0-2.1599-0.84223-3.2331t-2.5267-1.0732q-2.0241 0-3.1923 1.2905t-1.1682 3.5183v8.5989h-2.5131v-15.214h2.5131v2.3637q0.89656-1.372 2.1056-2.0512 1.2226-0.67922 2.812-0.67922 2.6218 0 3.9666 1.6301 1.3448 1.6165 1.3448 4.7681z"/>
    <path d="m900.52 541.78q0-2.7169-1.1275-4.2111-1.1139-1.4943-3.138-1.4943-2.0105 0-3.138 1.4943-1.1139 1.4943-1.1139 4.2111 0 2.7033 1.1139 4.1976 1.1275 1.4943 3.138 1.4943 2.0241 0 3.138-1.4943 1.1275-1.4943 1.1275-4.1976zm2.4995 5.8956q0 3.8851-1.7252 5.7733-1.7252 1.9018-5.2843 1.9018-1.3177 0-2.4859-0.20377-1.1682-0.19018-2.2686-0.59771v-2.4316q1.1003 0.59771 2.1735 0.88298t2.1871 0.28527q2.4588 0 3.6814-1.2905 1.2226-1.2769 1.2226-3.8715v-1.2362q-0.77431 1.3448-1.9833 2.0105-1.209 0.66564-2.8935 0.66564-2.7984 0-4.51-2.1327-1.7116-2.1327-1.7116-5.6511 0-3.5319 1.7116-5.6647 1.7116-2.1327 4.51-2.1327 1.6844 0 2.8935 0.66564 1.209 0.66563 1.9833 2.0105v-2.3093h2.4995z"/>
   </g>
  </g>
  <path d="m986.52 397.5v248.67c0 18.002-14.493 32.495-32.495 32.495h-779.98c-18.002 0-32.495-14.493-32.495-32.495v-93.188" color="#000000" fill-opacity="0" stroke-width="4" style="-inkscape-stroke:none"/>
  <path d="m984.52 397.5v248.67c0 16.929-13.565 30.496-30.494 30.496h-779.98c-16.929 0-30.494-13.567-30.494-30.496v-93.188h-4v93.188c0 19.076 15.418 34.496 34.494 34.496h779.98c19.076 0 34.494-15.42 34.494-34.496v-248.67z" color="#000000" fill="#999" style="-inkscape-stroke:none"/>
 </g>
 <g transform="translate(-98.178 -27.478)" clip-rule="evenodd" fill="#000000" fill-rule="evenodd" font-family="sans-serif" font-size="28.222px" stroke-linecap="round" stroke-linejoin="round" stroke-miterlimit="0" stroke-width=".26458">
  <text x="595.5885" y="48.424381" style="font-variant-caps:normal;font-variant-east-asian:normal;font-variant-ligatures:normal;font-variant-numeric:normal;line-height:1.25" xml:space="preserve"><tspan x="595.5885" y="48.424381">Output 1</tspan></text>
  <text x="594.65491" y="398.08545" style="font-variant-caps:normal;font-variant-east-asian:normal;font-variant-ligatures:normal;font-variant-numeric:normal;line-height:1.25" xml:space="preserve"><tspan x="594.65491" y="398.08545">Output 2</tspan></text>
 </g>
</svg>
