<?xml version="1.0" encoding="UTF-8"?>
<!-- Created with Inkscape (http://www.inkscape.org/) -->
<svg width="1090.8mm" height="637.39mm" version="1.1" viewBox="0 0 1090.8 637.39" xmlns="http://www.w3.org/2000/svg">
 <g transform="translate(-102.66 -39.298)">
  <path d="m866.78 361.8v4h84.473v-4z" clip-rule="evenodd" color="#000000" fill="#999" fill-rule="evenodd" stroke-linejoin="round" stroke-miterlimit=".20833" style="-inkscape-stroke:none"/>
  <g fill="#999" fill-rule="evenodd">
   <path d="m960.48 363.8-13.84 8v-16z" color="#000000" stroke-width="1.6pt" style="-inkscape-stroke:none"/>
   <path d="m945.57 353.95v19.697l17.039-9.8477-1.5977-0.92382zm2.1328 3.6953 10.645 6.1523-10.645 6.1543z" color="#000000" style="-inkscape-stroke:none"/>
  </g>
  <path d="m1091.4 361.54-86.027 0.26562 0.012 4 86.027-0.26562z" clip-rule="evenodd" color="#000000" fill="#999" fill-rule="evenodd" stroke-linejoin="round" stroke-miterlimit=".20833" style="-inkscape-stroke:none"/>
  <g fill="#999" fill-rule="evenodd">
   <path d="m1100.7 363.51-13.815 8.0425-0.049-16z" color="#000000" stroke-width="1.6pt" style="-inkscape-stroke:none"/>
   <path d="m1085.7 353.71 0.059 19.697 17.008-9.9024-1.5996-0.91797zm2.1446 3.6894 10.66 6.1191-10.623 6.1836z" color="#000000" style="-inkscape-stroke:none"/>
  </g>
  <path d="m714.38 540.01v4h56.062v-4z" clip-rule="evenodd" color="#000000" fill="#999" fill-rule="evenodd" stroke-linejoin="round" stroke-miterlimit=".20833" style="-inkscape-stroke:none"/>
  <g fill="#999" fill-rule="evenodd">
   <path d="m779.68 542.01-13.84 8 2e-5 -16z" color="#000000" stroke-width="1.6pt" style="-inkscape-stroke:none"/>
   <path d="m764.77 532.16v19.697l17.039-9.8496-1.5977-0.92383zm2.1348 3.6973 10.641 6.1504-10.641 6.1504z" color="#000000" style="-inkscape-stroke:none"/>
  </g>
  <path d="m714.38 185.71v4h56.033v-4z" clip-rule="evenodd" color="#000000" fill="#999" fill-rule="evenodd" stroke-linejoin="round" stroke-miterlimit=".20833" style="-inkscape-stroke:none"/>
  <g fill="#999" fill-rule="evenodd">
   <path d="m779.65 187.71-13.84 8v-16z" color="#000000" stroke-width="1.6pt" style="-inkscape-stroke:none"/>
   <path d="m764.74 177.86v19.697l17.037-9.8496-1.5976-0.92382zm2.1328 3.6953 10.643 6.1523-10.643 6.1524z" color="#000000" style="-inkscape-stroke:none"/>
  </g>
  <path d="m846.14 522.49v-125.65" clip-rule="evenodd" color="#000000" fill="#808080" fill-rule="evenodd" stroke-linejoin="round" stroke-miterlimit=".20833" stroke-width="4" style="-inkscape-stroke:none"/>
  <path d="m844.14 396.84v125.65h4v-125.65z" clip-rule="evenodd" color="#000000" fill="#999" fill-rule="evenodd" stroke-linejoin="round" stroke-miterlimit=".20833" style="-inkscape-stroke:none"/>
  <g fill="#999" fill-rule="evenodd">
   <path d="m846.14 387.61 8 13.84h-16z" color="#000000" stroke-width="1.6pt" style="-inkscape-stroke:none"/>
   <path d="m846.14 385.47-0.92188 1.5977-8.9258 15.439h19.697zm0 4.2598 6.1543 10.645h-12.307z" color="#000000" style="-inkscape-stroke:none"/>
  </g>
  <path d="m844.14 207.51v124.9h4v-124.9z" clip-rule="evenodd" color="#000000" fill="#999" fill-rule="evenodd" stroke-linejoin="round" stroke-miterlimit=".20833" style="-inkscape-stroke:none"/>
  <g fill="#999" fill-rule="evenodd">
   <path d="m846.14 341.64-8-13.84h16z" color="#000000" stroke-width="1.6pt" style="-inkscape-stroke:none"/>
   <path d="m836.29 326.73 9.8477 17.039 0.92383-1.5977 8.9258-15.441zm3.6973 2.1348h12.303l-6.1523 10.643z" color="#000000" style="-inkscape-stroke:none"/>
  </g>
  <path d="m982.25 395.51v277.17h-838.7v-119.71h-4v121.71l2 2h842.7l2-2v-279.17z" color="#000000" fill="#999" stroke-miterlimit=".20833" style="-inkscape-stroke:none"/>
  <g fill="#999" fill-rule="evenodd">
   <path d="m984.25 386.28 8 13.84h-16z" color="#000000" stroke-width="1.6pt" style="-inkscape-stroke:none"/>
   <path d="m984.25 384.15-0.92383 1.5977-8.9238 15.441h19.697zm0 4.2637 6.1523 10.643h-12.305z" color="#000000" style="-inkscape-stroke:none"/>
  </g>
 </g>
 <g transform="translate(-102.66 -39.298)">
  <g clip-rule="evenodd" fill-rule="evenodd" stroke-linecap="round" stroke-linejoin="round" stroke-miterlimit="0">
   <path d="m334.33 149.6h36.62v36.62h-36.62z" fill="#ff5757" stroke-width=".3175"/>
   <g fill="#fff" stroke-width=".3175" aria-label="R">
    <path d="m359.35 177.77-5.3342-8.5261h-6.3982v8.5261h-2.7837v-20.535h9.6629q3.4687 0 5.3488 1.5595 1.8947 1.5449 1.8947 4.314 0 2.2882-1.3409 3.8477-1.3263 1.5595-3.6728 1.9676l5.8298 8.8467zm-0.40808-14.633q0-1.7927-1.2243-2.7254-1.2097-0.94734-3.4979-0.94734h-6.6022v7.5787h6.7188q2.2007 0 3.3958-1.0202 1.2097-1.0348 1.2097-2.8857z"/>
   </g>
   <path d="m334.33 237.47h36.62v36.62h-36.62z" fill="#5757ff" stroke-width=".3175"/>
   <g fill="#fff" stroke-width=".3175" aria-label="B">
    <path d="m360.72 261.07q0 2.74-1.9967 4.2703-1.9967 1.5157-5.5529 1.5157h-8.3366v-20.535h7.4621q7.2289 0 7.2289 4.9845 0 1.8218-1.0202 3.0606-1.0202 1.2388-2.8857 1.6615 2.4485 0.29149 3.7748 1.6469 1.3263 1.3408 1.3263 3.3958zm-3.9934-9.4297q0-1.6615-1.1368-2.3756-1.1368-0.71414-3.2938-0.71414h-4.6784v6.5002h4.6784q2.2299 0 3.323-0.83075 1.1077-0.84532 1.1077-2.5797zm1.1805 9.2111q0-3.629-5.1011-3.629h-5.1885v7.4038h5.4071q2.5505 0 3.7165-0.94734 1.166-0.94734 1.166-2.8274z"/>
   </g>
   <path d="m334.33 193.53h36.62v36.62h-36.62z" fill="#55d400" stroke-width=".3175"/>
   <g fill="#fff" stroke-width=".3175" aria-label="G">
    <path d="m358.16 219.18v-5.8444h-4.8096v-2.4194h7.7245v9.3422q-1.7052 1.2097-3.7602 1.8364-2.055 0.61213-4.3869 0.61213-5.1011 0-7.9868-2.9732-2.8712-2.9878-2.8712-8.3074 0-5.3343 2.8712-8.3074 2.8858-2.9878 7.9868-2.9878 2.1279 0 4.0371 0.52468 1.9238 0.52468 3.5416 1.5449v3.1335q-1.6323-1.3846-3.4687-2.0842-1.8364-0.69957-3.8622-0.69957-3.9934 0-6.0047 2.2299-1.9967 2.2299-1.9967 6.646 0 4.4015 1.9967 6.6314 2.0113 2.2299 6.0047 2.2299 1.5595 0 2.7837-0.26234 1.2242-0.27691 2.2007-0.84532z"/>
   </g>
   <path d="m334.33 501.06h36.62v36.62h-36.62z" fill="#e6e6e6" stroke-width=".3175"/>
   <path d="m334.33 281.4h36.62v36.62h-36.62z" fill="#666" stroke-width=".3175"/>
   <g fill="#fff" stroke-width="1.0058" aria-label="α">
    <path d="m357.07 306.56q-1.1757 2.538-2.818 3.6764-1.6236 1.1197-3.8817 1.1197-3.8257 0-5.6359-2.5754-1.7916-2.5754-1.7916-7.8007 0-5.3 2.0155-7.9313 2.0342-2.6313 5.9345-2.6313 2.3514 0 4.0123 1.2504 1.6796 1.2504 2.5194 3.5084h0.0373q0.42922-2.2208 1.3623-4.3856h3.5084q-0.9331 1.9782-1.7169 4.8521-0.7838 2.8553-0.9331 4.6842 0.0933 2.9859 0.63451 5.8599 0.55986 2.8739 1.437 4.7961h-3.4151q-0.44789-1.1384-0.7838-2.4634-0.31726-1.3437-0.41057-1.9595zm-10.6-5.6919q0 4.143 1.0637 6.0278 1.0637 1.8662 3.5271 1.8662 2.2394 0 3.7697-2.1461 1.5489-2.1648 2.0342-5.8225-0.5412-3.9377-1.9595-5.9158t-3.6391-1.9782q-2.538 0-3.6764 1.8849-1.1197 1.8662-1.1197 6.0838z"/>
   </g>
   <g fill="#e6e6e6">
    <g stroke-width=".3175">
     <path d="m334.33 325.33h36.62v36.62h-36.62z"/>
     <path d="m334.33 369.26h36.62v36.62h-36.62z"/>
     <path d="m360.93 428.07a8.2918 8.2918 0 0 1-8.2918 8.2918 8.2918 8.2918 0 0 1-8.2918-8.2918 8.2918 8.2918 0 0 1 8.2918-8.2918 8.2918 8.2918 0 0 1 8.2918 8.2918z"/>
    </g>
    <path d="m360.93 453.09a8.2918 8.2918 0 0 1-8.2918 8.2918 8.2918 8.2918 0 0 1-8.2918-8.2918 8.2918 8.2918 0 0 1 8.2918-8.2918 8.2918 8.2918 0 0 1 8.2918 8.2918z" stroke-width=".3175"/>
    <path d="m360.93 478.11a8.2918 8.2918 0 0 1-8.2918 8.2918 8.2918 8.2918 0 0 1-8.2918-8.2918 8.2918 8.2918 0 0 1 8.2918-8.2918 8.2918 8.2918 0 0 1 8.2918 8.2918z" stroke-width=".3175"/>
   </g>
  </g>
  <g clip-rule="evenodd" fill-rule="evenodd" stroke-linecap="round" stroke-linejoin="round">
   <path d="m184.16 456.3a2 2 0 0 0-1.9531 2.0469 2 2 0 0 0 2.0469 1.9512c5.602-0.1305 8.9694 0.93942 10.975 2.4805 2.0052 1.541 2.9138 3.6542 3.2793 6.4512 0.73092 5.594-1.302 13.291-1.168 19.678 0.0724 3.4472 1.5519 6.1912 3.625 8.0117 1.0969 0.96323 2.3358 1.6725 3.6191 2.2344-0.62536 0.30713-1.269 0.59656-1.8086 0.98437-3.2046 2.3032-4.4196 5.9765-4.7031 10.176-0.2048 3.032-4e-3 6.4704 0.23047 10.428 0.42255 7.1192-1.078 11.528-3.4668 14.18-2.3888 2.6516-5.8636 3.8038-10.166 3.8164a2 2 0 0 0-1.9941 2.0059 2 2 0 0 0 2.0059 1.9941c5.0393-0.0148 9.818-1.4656 13.127-5.1387 3.3089-3.673 4.9503-9.3094 4.4883-17.094-0.23441-3.9492-0.41285-7.2797-0.23437-9.9219 0.24705-3.6596 1.0237-5.7432 3.0469-7.1973s5.8422-2.3802 12.4-2.3144v-4e-3c0.01-8.3e-4 0.19141-4e-3 0.19141-4e-3a2.0002 2.0002 0 0 0-0.15235-3.9922c-0.0754-7.6e-4 -0.1165 0.0142-0.1914 0.0137v-6e-3s-4.2453 0.3373-8.3652-0.65039c-2.06-0.49385-4.0261-1.3208-5.3867-2.5156s-2.2166-2.6619-2.2676-5.0898c-0.11262-5.364 2.0367-13.223 1.1367-20.111-0.45002-3.4441-1.8123-6.8027-4.8086-9.1055-2.9963-2.3027-7.3605-3.4498-13.506-3.3066z" color="#000000" fill="#999" stroke-miterlimit=".25" style="-inkscape-stroke:none"/>
   <g fill="#4d4d4d" stroke-miterlimit="0" stroke-width="3.4925" style="paint-order:stroke fill markers" aria-label="+">
    <path d="m241.93 483.92v12.665h12.665v3.8654h-12.665v12.665h-3.8199v-12.665h-12.665v-3.8654h12.665v-12.665z"/>
   </g>
   <g stroke-miterlimit="0" stroke-width=".26458" aria-label="Perception">
    <path d="m290.32 118.15v6.9577h3.1502q1.7487 0 2.7037-0.90537t0.95498-2.5797q0-1.6619-0.95498-2.5673t-2.7037-0.90537zm-2.5053-2.0588h5.6555q3.113 0 4.7005 1.4139 1.5999 1.4015 1.5999 4.1176 0 2.7409-1.5999 4.1424-1.5875 1.4015-4.7005 1.4015h-3.1502v7.4414h-2.5053z"/>
    <path d="m314.01 127.09v1.1162h-10.492q0.14883 2.3564 1.4139 3.5967 1.2774 1.2278 3.5471 1.2278 1.3146 0 2.5425-0.32246 1.2402-0.32246 2.4557-0.96739v2.158q-1.2278 0.5209-2.5177 0.79375t-2.6169 0.27285q-3.3238 0-5.271-1.9348-1.9348-1.9348-1.9348-5.2338 0-3.4106 1.8356-5.4074 1.848-2.0092 4.9733-2.0092 2.8029 0 4.4276 1.8107 1.6371 1.7983 1.6371 4.8989zm-2.282-0.66973q-0.0248-1.8728-1.0542-2.989-1.017-1.1162-2.7037-1.1162-1.91 0-3.0634 1.079-1.141 1.079-1.3146 3.0386z"/>
    <path d="m325.8 122.85q-0.38447-0.22324-0.84336-0.32246-0.44648-0.11162-0.99218-0.11162-1.9348 0-2.9766 1.265-1.0294 1.2526-1.0294 3.6091v7.3174h-2.2944v-13.891h2.2944v2.158q0.71934-1.265 1.8728-1.8728 1.1534-0.62012 2.8029-0.62012 0.23565 0 0.5209 0.0372 0.28526 0.0248 0.63252 0.0868z"/>
    <path d="m337.64 121.25v2.1332q-0.96738-0.53331-1.9472-0.79375-0.96738-0.27286-1.9596-0.27286-2.22 0-3.4478 1.4139-1.2278 1.4015-1.2278 3.944t1.2278 3.9563q1.2278 1.4015 3.4478 1.4015 0.99219 0 1.9596-0.26045 0.97979-0.27285 1.9472-0.80615v2.1084q-0.95498 0.44648-1.9844 0.66972-1.017 0.22324-2.1704 0.22324-3.1378 0-4.9857-1.972t-1.848-5.3206q0-3.3982 1.8604-5.3454 1.8728-1.9472 5.1222-1.9472 1.0542 0 2.0588 0.22324 1.0046 0.21084 1.9472 0.64492z"/>
    <path d="m353.49 127.09v1.1162h-10.492q0.14883 2.3564 1.4139 3.5967 1.2774 1.2278 3.5471 1.2278 1.3146 0 2.5425-0.32246 1.2402-0.32246 2.4557-0.96739v2.158q-1.2278 0.5209-2.5177 0.79375t-2.6169 0.27285q-3.3238 0-5.271-1.9348-1.9348-1.9348-1.9348-5.2338 0-3.4106 1.8356-5.4074 1.848-2.0092 4.9733-2.0092 2.8029 0 4.4276 1.8107 1.6371 1.7983 1.6371 4.8989zm-2.282-0.66973q-0.0248-1.8728-1.0542-2.989-1.017-1.1162-2.7037-1.1162-1.91 0-3.0634 1.079-1.141 1.079-1.3146 3.0386z"/>
    <path d="m359.44 132.53v7.367h-2.2944v-19.174h2.2944v2.1084q0.71934-1.2402 1.8107-1.8356 1.1038-0.60771 2.6293-0.60771 2.5301 0 4.1052 2.0092 1.5875 2.0092 1.5875 5.2834 0 3.2742-1.5875 5.2834-1.5751 2.0092-4.1052 2.0092-1.5255 0-2.6293-0.59531-1.0914-0.60771-1.8107-1.848zm7.7639-4.8493q0-2.5177-1.0418-3.944-1.0294-1.4387-2.8401-1.4387-1.8108 0-2.8525 1.4387-1.0294 1.4263-1.0294 3.944 0 2.5177 1.0294 3.9563 1.0418 1.4263 2.8525 1.4263 1.8107 0 2.8401-1.4263 1.0418-1.4387 1.0418-3.9563z"/>
    <path d="m375.61 116.78v3.9439h4.7005v1.7735h-4.7005v7.5406q0 1.6991 0.45888 2.1828 0.47129 0.4837 1.8976 0.4837h2.344v1.91h-2.344q-2.6417 0-3.6463-0.97979-1.0046-0.99219-1.0046-3.5967v-7.5406h-1.6743v-1.7735h1.6743v-3.9439z"/>
    <path d="m383.31 120.72h2.282v13.891h-2.282zm0-5.4074h2.282v2.8898h-2.282z"/>
    <path d="m395.75 122.32q-1.8355 0-2.9022 1.4387-1.0666 1.4263-1.0666 3.9191 0 2.4929 1.0542 3.9315 1.0666 1.4263 2.9146 1.4263 1.8232 0 2.8898-1.4387 1.0666-1.4387 1.0666-3.9191 0-2.4681-1.0666-3.9067-1.0666-1.4511-2.8898-1.4511zm0-1.9348q2.9766 0 4.6757 1.9348 1.6991 1.9348 1.6991 5.3578 0 3.4106-1.6991 5.3578-1.6991 1.9348-4.6757 1.9348-2.989 0-4.6881-1.9348-1.6867-1.9472-1.6867-5.3578 0-3.423 1.6867-5.3578 1.6991-1.9348 4.6881-1.9348z"/>
    <path d="m417.46 126.23v8.384h-2.282v-8.3096q0-1.972-0.76894-2.9518-0.76895-0.97979-2.3068-0.97979-1.848 0-2.9146 1.1782-1.0666 1.1782-1.0666 3.2122v7.8507h-2.2944v-13.891h2.2944v2.158q0.81856-1.2526 1.9224-1.8728 1.1162-0.62012 2.5673-0.62012 2.3936 0 3.6215 1.4883 1.2278 1.4759 1.2278 4.3532z"/>
   </g>
  </g>
  <g clip-rule="evenodd" fill-rule="evenodd" stroke-linecap="round" stroke-linejoin="round" stroke-miterlimit="0">
   <g fill="#fff" stroke-width="1.0058" aria-label="α">
    <path d="m617.93 517.89q-1.1757 2.538-2.818 3.6764-1.6236 1.1197-3.8817 1.1197-3.8257 0-5.6359-2.5754-1.7916-2.5754-1.7916-7.8007 0-5.3 2.0155-7.9313 2.0342-2.6313 5.9345-2.6313 2.3514 0 4.0123 1.2504 1.6796 1.2504 2.5194 3.5084h0.0373q0.42922-2.2208 1.3623-4.3856h3.5084q-0.9331 1.9782-1.7169 4.8521-0.78381 2.8553-0.9331 4.6842 0.0933 2.9859 0.63451 5.8598 0.55985 2.874 1.437 4.7961h-3.4151q-0.44789-1.1384-0.7838-2.4634-0.31726-1.3437-0.41057-1.9595zm-10.6-5.6919q0 4.143 1.0637 6.0278 1.0637 1.8662 3.5271 1.8662 2.2394 0 3.7697-2.1461 1.5489-2.1648 2.0342-5.8225-0.54119-3.9377-1.9595-5.9158-1.4183-1.9782-3.6391-1.9782-2.538 0-3.6764 1.8848-1.1197 1.8662-1.1197 6.0838z"/>
   </g>
   <g stroke-width=".17556">
    <path d="m604.31 422.34h20.248v20.248h-20.248z" fill="#ff5757"/>
    <path d="m604.31 470.92h20.248v20.248h-20.248z" fill="#5757ff"/>
    <path d="m604.31 446.63h20.248v20.248h-20.248z" fill="#55d400"/>
    <path d="m604.52 616.67h20.248v20.248h-20.248z" fill="#ebebeb"/>
    <path d="m604.31 495.21h20.248v20.248h-20.248z" fill="#666"/>
   </g>
   <g fill="#fff" stroke-width=".57865" aria-label="δ">
    <path d="m617.59 508.14q0-0.9341-0.28989-1.7501-0.27916-0.82673-0.7301-1.5246-0.44021-0.70862-1.3421-1.6427-1.9219 0.68715-2.9419 1.9648-1.02 1.2777-1.02 2.9526 0 1.8145 0.83747 2.8345 0.84821 1.0093 2.3406 1.0093 1.5461 0 2.3406-0.96631 0.80526-0.96631 0.80526-2.8774zm-2.7594-9.4591-1.6535-0.0859 3.3928 3.4787q1.2991 1.3314 1.8575 2.1903 0.56905 0.84821 0.88041 1.793 0.31137 0.9341 0.31137 2.04 0 2.4372-1.385 3.876-1.385 1.4387-3.7901 1.4387-2.4265 0-3.8223-1.4065-1.385-1.4065-1.385-3.8867 0-2.0829 1.2562-3.5753 1.2562-1.5032 3.7364-2.3621l-3.425-3.6398v-1.2777h7.87v1.4173z"/>
   </g>
   <g fill="#ebebeb" stroke-width=".17556">
    <path d="m604.31 519.5h20.248v20.248h-20.248z"/>
    <path d="m604.31 543.79h20.248v20.248h-20.248z"/>
    <path d="m619.36 576.52a4.5848 4.5848 0 0 1-4.5848 4.5848 4.5848 4.5848 0 0 1-4.5848-4.5848 4.5848 4.5848 0 0 1 4.5848-4.5848 4.5848 4.5848 0 0 1 4.5848 4.5848z"/>
    <path d="m619.36 590.35a4.5848 4.5848 0 0 1-4.5848 4.5848 4.5848 4.5848 0 0 1-4.5848-4.5848 4.5848 4.5848 0 0 1 4.5848-4.5848 4.5848 4.5848 0 0 1 4.5848 4.5848z"/>
    <path d="m619.36 604.19a4.5848 4.5848 0 0 1-4.5848 4.5848 4.5848 4.5848 0 0 1-4.5848-4.5848 4.5848 4.5848 0 0 1 4.5848-4.5848 4.5848 4.5848 0 0 1 4.5848 4.5848z"/>
   </g>
  </g>
  <g clip-rule="evenodd" fill-rule="evenodd" stroke-linecap="round" stroke-linejoin="round" stroke-miterlimit="0">
   <g stroke-width=".17556">
    <path d="m690.56 67.543h20.248v20.248h-20.248z" fill="#ff5757"/>
    <path d="m690.56 116.13h20.248v20.248h-20.248z" fill="#5757ff"/>
    <path d="m690.56 91.835h20.248v20.248h-20.248z" fill="#55d400"/>
    <path d="m690.56 239.08h20.248v20.248h-20.248z" fill="#666"/>
    <path d="m690.56 262.61h20.248v20.248h-20.248z" fill="#666"/>
    <path d="m690.56 141.15h20.248v20.248h-20.248z" fill="#ebebeb"/>
    <path d="m690.56 214.02h20.248v20.248h-20.248z" fill="#ebebeb"/>
   </g>
   <g fill="#fff" stroke-width=".55613" aria-label="0">
    <path d="m700.69 266.39q-1.6097 0-2.4249 1.5891-0.80486 1.5788-0.80486 4.757 0 3.1678 0.80486 4.7569 0.81518 1.5788 2.4249 1.5788 1.62 0 2.4249-1.5788 0.81518-1.5891 0.81518-4.7569 0-3.1782-0.81518-4.757-0.80486-1.5891-2.4249-1.5891zm0-1.651q2.59 0 3.9521 2.0534 1.3724 2.0431 1.3724 5.9436 0 3.8902-1.3724 5.9436-1.3621 2.0431-3.9521 2.0431-2.59 0-3.9624-2.0431-1.3621-2.0534-1.3621-5.9436 0-3.9005 1.3621-5.9436 1.3724-2.0534 3.9624-2.0534z"/>
   </g>
   <g fill="#ebebeb" stroke-width=".17556">
    <path d="m705.27 173.87a4.5848 4.5848 0 0 1-4.5848 4.5848 4.5848 4.5848 0 0 1-4.5848-4.5848 4.5848 4.5848 0 0 1 4.5848-4.5848 4.5848 4.5848 0 0 1 4.5848 4.5848z"/>
    <path d="m705.27 187.71a4.5848 4.5848 0 0 1-4.5848 4.5848 4.5848 4.5848 0 0 1-4.5848-4.5848 4.5848 4.5848 0 0 1 4.5848-4.5848 4.5848 4.5848 0 0 1 4.5848 4.5848z"/>
    <path d="m705.27 201.54a4.5848 4.5848 0 0 1-4.5848 4.5848 4.5848 4.5848 0 0 1-4.5848-4.5848 4.5848 4.5848 0 0 1 4.5848-4.5848 4.5848 4.5848 0 0 1 4.5848 4.5848z"/>
   </g>
  </g>
  <path d="m631.37 157.3-0.77539 2.8984c6.6753 1.7886 11.036 7.2533 14.342 15.014s5.4165 17.672 7.5371 27.654c2.1206 9.9822 4.2503 20.035 7.7774 28.227s8.5913 14.659 16.512 16.781l0.77539-2.8984c-6.7651-1.8127-11.185-7.2982-14.531-15.068-3.3458-7.7701-5.4774-17.686-7.5977-27.666s-4.229-20.026-7.7129-28.205-8.4823-14.635-16.326-16.736z" clip-rule="evenodd" color="#000000" fill="#999" fill-rule="evenodd" stroke-linejoin="round" stroke-miterlimit="0" style="-inkscape-stroke:none"/>
  <g fill="#999" fill-rule="evenodd">
   <path d="m683.84 248.22-11.579 3.109 3.1058-11.591z" color="#000000" stroke-width="1.2pt" style="-inkscape-stroke:none"/>
   <path d="m674.95 238.19-3.8223 14.27 14.254-3.8262-0.97852-0.98047zm0.82812 3.0918 6.5156 6.5234-8.9024 2.3906z" color="#000000" style="-inkscape-stroke:none"/>
  </g>
  <g stroke-miterlimit="0">
   <g clip-rule="evenodd" fill-rule="evenodd" stroke-linecap="round" stroke-linejoin="round" stroke-width=".26458" aria-label="δS1">
    <path d="m604.99 51.861q0-1.079-0.33486-2.0216-0.32246-0.95498-0.84336-1.7611-0.5085-0.81855-1.5503-1.8976-2.22 0.79375-3.3982 2.2696t-1.1782 3.4106q0 2.096 0.96738 3.2742 0.97979 1.1658 2.7037 1.1658 1.7859 0 2.7037-1.1162 0.93018-1.1162 0.93018-3.3238zm-3.1874-10.926-1.91-0.09922 3.9191 4.0184q1.5007 1.5379 2.1456 2.5301 0.65733 0.97978 1.017 2.0712 0.35967 1.079 0.35967 2.3564 0 2.8153-1.5999 4.4772t-4.378 1.6619q-2.8029 0-4.4152-1.6247-1.5999-1.6247-1.5999-4.4896 0-2.4061 1.4511-4.13 1.4511-1.7363 4.316-2.7285l-3.9564-4.2044v-1.4759h9.0909v1.6371z"/>
    <path d="m624.19 52.878q0 2.4185-1.8976 3.7455-1.8852 1.3271-5.3206 1.3271-6.3872 0-7.4042-4.44l2.2944-0.45889q0.39687 1.5751 1.6867 2.3192 1.2898 0.73174 3.5099 0.73174 2.2944 0 3.5347-0.78135 1.2526-0.79375 1.2526-2.3192 0-0.85576-0.39688-1.3891-0.38447-0.5333-1.0914-0.88057-0.70693-0.34727-1.6867-0.58291-0.97979-0.23564-2.1704-0.5085-2.0712-0.45889-3.1502-0.91777-1.0666-0.45889-1.6867-1.017-0.62012-0.57051-0.95498-1.3271-0.32246-0.75654-0.32246-1.7363 0-2.2448 1.7115-3.4603 1.7239-1.2154 4.9237-1.2154 2.9766 0 4.5517 0.91777 1.5751 0.90537 2.2076 3.1006l-2.3316 0.40928q-0.38447-1.3891-1.4635-2.0092-1.079-0.63252-2.989-0.63252-2.096 0-3.1998 0.69453-1.1038 0.69453-1.1038 2.0712 0 0.80615 0.42168 1.3395 0.43408 0.5209 1.2402 0.89297 0.80615 0.35967 3.2122 0.89297 0.80615 0.18604 1.5999 0.38447 0.80615 0.18604 1.5379 0.45889 0.73174 0.26045 1.3643 0.62012 0.64492 0.35967 1.1162 0.88057 0.47129 0.5209 0.73174 1.2278 0.27285 0.70693 0.27285 1.6619z"/>
    <path d="m626.62 62.783v-1.2334h2.8941v-8.7387l-2.5636 1.83v-1.3705l2.6845-1.8461h1.3382v10.125h2.7651v1.2334z" baseline-shift="sub"/>
   </g>
   <g clip-rule="evenodd" fill-rule="evenodd" stroke-linecap="round" stroke-linejoin="round" stroke-width=".26458" aria-label="δS2">
    <path d="m604.76 404.37q0-1.079-0.33486-2.0216-0.32246-0.95498-0.84336-1.7611-0.50849-0.81856-1.5503-1.8976-2.22 0.79375-3.3982 2.2696-1.1782 1.4759-1.1782 3.4106 0 2.096 0.96739 3.2742 0.97978 1.1658 2.7037 1.1658 1.7859 0 2.7037-1.1162 0.93017-1.1162 0.93017-3.3238zm-3.1874-10.926-1.91-0.0992 3.9191 4.0184q1.5007 1.5379 2.1456 2.5301 0.65732 0.97978 1.017 2.0712 0.35967 1.079 0.35967 2.3564 0 2.8153-1.5999 4.4772-1.5999 1.6619-4.378 1.6619-2.8029 0-4.4152-1.6247-1.5999-1.6247-1.5999-4.4896 0-2.4061 1.4511-4.13 1.4511-1.7363 4.316-2.7285l-3.9564-4.2044v-1.4759h9.0909v1.6371z"/>
    <path d="m623.95 405.39q0 2.4184-1.8976 3.7455-1.8852 1.327-5.3206 1.327-6.3872 0-7.4042-4.44l2.2944-0.45889q0.39688 1.5751 1.6867 2.3192 1.2898 0.73174 3.5099 0.73174 2.2944 0 3.5347-0.78135 1.2526-0.79375 1.2526-2.3192 0-0.85576-0.39687-1.3891-0.38448-0.5333-1.0914-0.88057t-1.6867-0.58291-2.1704-0.5085q-2.0712-0.45888-3.1502-0.91777-1.0666-0.45889-1.6867-1.017-0.62012-0.57051-0.95498-1.327-0.32247-0.75655-0.32247-1.7363 0-2.2448 1.7115-3.4602 1.7239-1.2154 4.9237-1.2154 2.9766 0 4.5517 0.91777 1.5751 0.90537 2.2076 3.1006l-2.3316 0.40927q-0.38448-1.3891-1.4635-2.0092-1.079-0.63252-2.989-0.63252-2.096 0-3.1998 0.69453-1.1038 0.69454-1.1038 2.0712 0 0.80615 0.42168 1.3394 0.43408 0.5209 1.2402 0.89297 0.80616 0.35967 3.2122 0.89297 0.80615 0.18603 1.5999 0.38447 0.80616 0.18603 1.5379 0.45889 0.73174 0.26045 1.3643 0.62011 0.64492 0.35967 1.1162 0.88057t0.73174 1.2278q0.27285 0.70694 0.27285 1.6619z"/>
    <path d="m625.95 415.29v-1.0238q0.41114-0.94319 0.99963-1.6607 0.59655-0.72554 1.2495-1.306 0.65299-0.58849 1.2898-1.0883 0.64492-0.49982 1.1609-0.99963 0.51593-0.49981 0.83033-1.048 0.32247-0.54818 0.32247-1.2415 0-0.93514-0.54819-1.4511-0.54818-0.51593-1.5236-0.51593-0.92707 0-1.5317 0.50787-0.59655 0.49982-0.70135 1.4108l-1.4833-0.13705q0.16123-1.3624 1.1528-2.1686 0.99963-0.80615 2.5636-0.80615 1.7171 0 2.6361 0.81421 0.92708 0.80616 0.92708 2.2975 0 0.66104-0.30634 1.314-0.29828 0.65298-0.89483 1.306-0.59655 0.65299-2.2814 2.0234-0.92708 0.75779-1.4753 1.3705-0.54818 0.60462-0.79003 1.1689h5.9252v1.2334z" baseline-shift="sub"/>
   </g>
   <g stroke-width="1.2" aria-label="f2">
    <path d="m504.01 515.51-0.59945 3.1626h-3.638q-2.067 0-3.0179 0.82682-0.93017 0.80615-1.3849 2.9766l-0.41341 2.0464h6.2632l-0.5581 2.9559h-6.2632l-3.9274 20.195h-3.824l3.9481-20.195h-3.638l0.53743-2.9559h3.638l0.31006-1.6123q0.78548-4.0928 2.7492-5.7464 1.9844-1.6536 6.2218-1.6536z"/>
    <path d="m511.36 546.45-8.6661 7.43h9.5798l-0.47026 2.2572h-13.019l0.44338-2.2841 9.0558-7.7659q1.8138-1.572 2.5662-2.7544 0.76585-1.1958 0.76585-2.4453 0-1.3033-0.91364-2.1229-0.91364-0.81958-2.3916-0.81958-1.2764 0-2.835 0.45681-1.5586 0.45682-3.3321 1.3302l0.49712-2.6872q1.666-0.65835 3.1843-0.99425t2.8081-0.3359q2.6334 0 4.2323 1.3973 1.6123 1.3973 1.6123 3.668 0 1.5317-0.76585 2.929-0.76584 1.3839-2.3513 2.7409z" baseline-shift="sub"/>
   </g>
   <g stroke-width=".318" aria-label="f1">
    <path d="m505.24 155.21-0.59944 3.1626h-3.638q-2.0671 0-3.0179 0.82683-0.93018 0.80615-1.3849 2.9766l-0.41341 2.0464h6.2632l-0.5581 2.9559h-6.2632l-3.9274 20.195h-3.8241l3.9481-20.195h-3.638l0.53744-2.9559h3.638l0.31006-1.6123q0.78548-4.0928 2.7492-5.7464 1.9844-1.6536 6.2218-1.6536z"/>
    <path d="m501.69 193.55h4.4338l2.9962-15.438-5.0116 0.96738 0.47026-2.3378 4.9847-0.96739h2.7275l-3.4665 17.776h4.4204l-0.42995 2.2841h-11.568z" baseline-shift="sub"/>
   </g>
  </g>
  <g clip-rule="evenodd" fill-rule="evenodd" stroke-linecap="round" stroke-linejoin="round" stroke-miterlimit="0">
   <g stroke-width=".17556">
    <path d="m688.97 421.85h20.248v20.248h-20.248z" fill="#ff5757"/>
    <path d="m688.97 470.43h20.248v20.248h-20.248z" fill="#5757ff"/>
    <path d="m688.97 446.14h20.248v20.248h-20.248z" fill="#55d400"/>
    <path d="m688.97 593.39h20.248v20.248h-20.248z" fill="#666"/>
    <path d="m688.97 616.91h20.248v20.248h-20.248z" fill="#666"/>
   </g>
   <g fill="#fff" stroke-width=".57865" aria-label="δ">
    <path d="m702.26 629.83q0-0.9341-0.2899-1.7501-0.27915-0.82674-0.7301-1.5246-0.4402-0.70863-1.3421-1.6427-1.9219 0.68715-2.9419 1.9648-1.02 1.2777-1.02 2.9526 0 1.8145 0.83747 2.8345 0.8482 1.0092 2.3406 1.0092 1.5461 0 2.3406-0.96631 0.80526-0.96631 0.80526-2.8774zm-2.7594-9.4591-1.6535-0.0859 3.3928 3.4787q1.2992 1.3314 1.8575 2.1903 0.56905 0.8482 0.88042 1.793 0.31137 0.93409 0.31137 2.04 0 2.4372-1.385 3.876-1.385 1.4387-3.7901 1.4387-2.4265 0-3.8223-1.4065-1.385-1.4065-1.385-3.8867 0-2.0829 1.2562-3.5754 1.2562-1.5032 3.7364-2.3621l-3.425-3.6398v-1.2777h7.87v1.4173z"/>
   </g>
   <path d="m688.97 495.45h20.248v20.248h-20.248z" fill="#ebebeb" stroke-width=".17556"/>
   <path d="m688.97 568.33h20.248v20.248h-20.248z" fill="#ebebeb" stroke-width=".17556"/>
   <g fill="#fff" stroke-width=".55613" aria-label="0">
    <path d="m699.1 597.17q-1.6097 0-2.4249 1.5891-0.80486 1.5788-0.80486 4.7569 0 3.1679 0.80486 4.7569 0.81519 1.5788 2.4249 1.5788 1.62 0 2.4249-1.5788 0.81518-1.5891 0.81518-4.7569 0-3.1782-0.81518-4.7569-0.80487-1.5891-2.4249-1.5891zm0-1.651q2.59 0 3.9521 2.0534 1.3724 2.0431 1.3724 5.9436 0 3.8902-1.3724 5.9436-1.3621 2.0431-3.9521 2.0431t-3.9624-2.0431q-1.3621-2.0534-1.3621-5.9436 0-3.9005 1.3621-5.9436 1.3724-2.0534 3.9624-2.0534z"/>
   </g>
   <g fill="#ebebeb" stroke-width=".17556">
    <path d="m703.68 528.18a4.5848 4.5848 0 0 1-4.5848 4.5848 4.5848 4.5848 0 0 1-4.5848-4.5848 4.5848 4.5848 0 0 1 4.5848-4.5848 4.5848 4.5848 0 0 1 4.5848 4.5848z"/>
    <path d="m703.68 542.01a4.5848 4.5848 0 0 1-4.5848 4.5848 4.5848 4.5848 0 0 1-4.5848-4.5848 4.5848 4.5848 0 0 1 4.5848-4.5848 4.5848 4.5848 0 0 1 4.5848 4.5848z"/>
    <path d="m703.68 555.85a4.5848 4.5848 0 0 1-4.5848 4.5848 4.5848 4.5848 0 0 1-4.5848-4.5848 4.5848 4.5848 0 0 1 4.5848-4.5848 4.5848 4.5848 0 0 1 4.5848 4.5848z"/>
   </g>
  </g>
  <path d="m632.21 508.47-0.77539 2.8965c7.6992 2.063 12.161 9.1201 15.062 19.314 2.9015 10.194 4.0766 23.276 5.2598 36.422 1.1831 13.145 2.3745 26.354 5.4844 37.014 3.1099 10.659 8.3058 19.007 17.531 21.479l0.77735-2.8984c-7.8733-2.1097-12.45-9.2071-15.43-19.42-2.9796-10.213-4.1941-23.301-5.377-36.443-1.1829-13.142-2.3345-26.338-5.3613-36.973s-8.0946-18.958-17.172-21.391z" clip-rule="evenodd" color="#000000" fill="#999" fill-rule="evenodd" stroke-linejoin="round" stroke-miterlimit="0" style="-inkscape-stroke:none"/>
  <g fill="#999" fill-rule="evenodd">
   <path d="m681.85 625.94-11.579 3.109 3.1058-11.591z" color="#000000" stroke-width="1.2pt" style="-inkscape-stroke:none"/>
   <path d="m672.97 615.91-3.8223 14.27 14.254-3.8262-0.97852-0.98047zm0.82812 3.0938 6.5156 6.5215-8.9024 2.3906z" color="#000000" style="-inkscape-stroke:none"/>
  </g>
  <g clip-rule="evenodd" fill-rule="evenodd" stroke-linecap="round" stroke-linejoin="round" stroke-miterlimit="0">
   <g stroke-width=".26458" aria-label="Step N">
    <path d="m114.58 104.15v2.4433q-1.4263-0.68212-2.6913-1.017-1.265-0.33486-2.4433-0.33486-2.0464 0-3.1626 0.79375-1.1038 0.79375-1.1038 2.2572 0 1.2278 0.73173 1.8604 0.74414 0.62011 2.8029 1.0046l1.5131 0.31006q2.8029 0.5333 4.13 1.8852 1.3394 1.3394 1.3394 3.5967 0 2.6913-1.8107 4.0804-1.7983 1.3891-5.2834 1.3891-1.3146 0-2.8029-0.29765-1.4759-0.29766-3.0634-0.88057v-2.5797q1.5255 0.85577 2.989 1.2898t2.8773 0.43408q2.1456 0 3.3114-0.84336t1.1658-2.406q0-1.3643-0.84336-2.1332-0.83096-0.76894-2.7409-1.1534l-1.5255-0.29766q-2.8029-0.55811-4.0556-1.7487-1.2526-1.1906-1.2526-3.3114 0-2.4557 1.7239-3.8695 1.7363-1.4139 4.7749-1.4139 1.3022 0 2.6541 0.23565 1.3519 0.23564 2.7657 0.70693z"/>
    <path d="m121.76 104.22v3.9439h4.7005v1.7735h-4.7005v7.5406q0 1.6991 0.45889 2.1828 0.47129 0.4837 1.8976 0.4837h2.344v1.91h-2.344q-2.6417 0-3.6463-0.97979-1.0046-0.99219-1.0046-3.5967v-7.5406h-1.6743v-1.7735h1.6743v-3.9439z"/>
    <path d="m141.35 114.54v1.1162h-10.492q0.14883 2.3564 1.4139 3.5967 1.2774 1.2278 3.5471 1.2278 1.3146 0 2.5425-0.32246 1.2402-0.32246 2.4557-0.96738v2.158q-1.2278 0.5209-2.5177 0.79375-1.2898 0.27285-2.6169 0.27285-3.3238 0-5.271-1.9348-1.9348-1.9348-1.9348-5.2338 0-3.4106 1.8355-5.4074 1.848-2.0092 4.9733-2.0092 2.8029 0 4.4276 1.8107 1.6371 1.7983 1.6371 4.8989zm-2.282-0.66973q-0.0248-1.8728-1.0542-2.989-1.017-1.1162-2.7037-1.1162-1.91 0-3.0634 1.079-1.141 1.079-1.3146 3.0386z"/>
    <path d="m147.3 119.97v7.367h-2.2944v-19.174h2.2944v2.1084q0.71933-1.2402 1.8107-1.8356 1.1038-0.60771 2.6293-0.60771 2.5301 0 4.1052 2.0092 1.5875 2.0092 1.5875 5.2834t-1.5875 5.2834q-1.5751 2.0092-4.1052 2.0092-1.5255 0-2.6293-0.59531-1.0914-0.60771-1.8107-1.848zm7.7639-4.8493q0-2.5177-1.0418-3.944-1.0294-1.4387-2.8401-1.4387t-2.8525 1.4387q-1.0294 1.4263-1.0294 3.944 0 2.5177 1.0294 3.9563 1.0418 1.4263 2.8525 1.4263t2.8401-1.4263q1.0418-1.4387 1.0418-3.9563z"/>
    <path d="m169.39 103.54h3.3734l8.2104 15.491v-15.491h2.4308v18.517h-3.3734l-8.2104-15.491v15.491h-2.4309z"/>
   </g>
   <g stroke-width=".26458" aria-label="Step N+1">
    <path d="m1087.1 104.15v2.4433q-1.4263-0.68213-2.6913-1.017-1.2651-0.33487-2.4433-0.33487-2.0464 0-3.1626 0.79375-1.1038 0.79375-1.1038 2.2572 0 1.2278 0.7317 1.8604 0.7442 0.62012 2.803 1.0046l1.513 0.31006q2.803 0.5333 4.13 1.8852 1.3395 1.3395 1.3395 3.5967 0 2.6913-1.8108 4.0804-1.7983 1.3891-5.2834 1.3891-1.3146 0-2.8029-0.29766-1.4759-0.29765-3.0634-0.88056v-2.5797q1.5255 0.85576 2.989 1.2898t2.8773 0.43408q2.1456 0 3.3115-0.84336 1.1658-0.84336 1.1658-2.406 0-1.3643-0.8434-2.1332-0.8309-0.76895-2.7409-1.1534l-1.5255-0.29766q-2.8029-0.5581-4.0555-1.7487-1.2527-1.1906-1.2527-3.3114 0-2.4557 1.7239-3.8695 1.7364-1.4139 4.7749-1.4139 1.3023 0 2.6541 0.23564 1.3519 0.23565 2.7658 0.70694z"/>
    <path d="m1094.2 104.23v3.944h4.7005v1.7735h-4.7005v7.5406q0 1.6991 0.4589 2.1828 0.4713 0.48369 1.8976 0.48369h2.344v1.91h-2.344q-2.6417 0-3.6463-0.97979-1.0046-0.99218-1.0046-3.5967v-7.5406h-1.6743v-1.7735h1.6743v-3.944z"/>
    <path d="m1113.8 114.54v1.1162h-10.492q0.1489 2.3564 1.4139 3.5967 1.2775 1.2278 3.5471 1.2278 1.3146 0 2.5425-0.32246 1.2402-0.32246 2.4556-0.96738v2.158q-1.2278 0.52089-2.5177 0.79375-1.2898 0.27285-2.6168 0.27285-3.3239 0-5.271-1.9348-1.9348-1.9348-1.9348-5.2338 0-3.4106 1.8355-5.4074 1.848-2.0092 4.9734-2.0092 2.8029 0 4.4276 1.8107 1.6371 1.7983 1.6371 4.8989zm-2.282-0.66973q-0.025-1.8728-1.0542-2.989-1.017-1.1162-2.7037-1.1162-1.91 0-3.0634 1.079-1.141 1.079-1.3146 3.0386z"/>
    <path d="m1119.8 119.98v7.367h-2.2945v-19.174h2.2945v2.1084q0.7193-1.2402 1.8107-1.8355 1.1038-0.60772 2.6293-0.60772 2.5301 0 4.1052 2.0092 1.5875 2.0092 1.5875 5.2834t-1.5875 5.2834q-1.5751 2.0092-4.1052 2.0092-1.5255 0-2.6293-0.59531-1.0914-0.60772-1.8107-1.848zm7.7638-4.8493q0-2.5177-1.0418-3.944-1.0294-1.4387-2.8401-1.4387-1.8108 0-2.8526 1.4387-1.0293 1.4263-1.0293 3.944t1.0293 3.9564q1.0418 1.4263 2.8526 1.4263 1.8107 0 2.8401-1.4263 1.0418-1.4387 1.0418-3.9564z"/>
    <path d="m1141.9 103.54h3.3735l8.2103 15.491v-15.491h2.4309v18.517h-3.3735l-8.2103-15.491v15.491h-2.4309z"/>
    <path d="m1170.1 106.14v6.9081h6.9081v2.1084h-6.9081v6.9081h-2.0836v-6.9081h-6.9081v-2.1084h6.9081v-6.9081z"/>
    <path d="m1182.8 119.95h4.0927v-14.126l-4.4524 0.89297v-2.282l4.4276-0.89297h2.5053v16.408h4.0928v2.1084h-10.666z"/>
   </g>
   <g fill="#4d4d4d" stroke-width="3.4925" style="paint-order:stroke fill markers" aria-label="+">
    <path d="m986.16 348.94v12.665h12.665v3.8654h-12.665v12.665h-3.8199v-12.665h-12.665v-3.8654h12.665v-12.665z"/>
   </g>
  </g>
  <path d="m825.35 341.43c-1.2812 0-2.375 1.0938-2.375 2.375v41.582c0 1.2812 1.0938 2.375 2.375 2.375h41.584c1.2812 0 2.375-1.0938 2.375-2.375v-41.582c0-1.2812-1.0938-2.375-2.375-2.375zm1.625 4h38.334v38.332h-38.334z" color="#000000" fill="#999" stroke-linecap="round" stroke-miterlimit=".20833" style="-inkscape-stroke:none"/>
  <g clip-rule="evenodd" fill="#4d4d4d" fill-rule="evenodd" stroke-linecap="round" stroke-linejoin="round" stroke-miterlimit="0" stroke-width="2.8" style="paint-order:stroke fill markers" aria-label="+">
   <path d="m848.05 350v12.665h12.665v3.8654h-12.665v12.665h-3.8199v-12.665h-12.665v-3.8654h12.665v-12.665z"/>
  </g>
  <g stroke-linecap="round" stroke-miterlimit=".20833">
   <path d="m963.46 342.37h41.583c0.2078 0 0.375 0.16725 0.375 0.375v41.583c0 0.20775-0.1672 0.375-0.375 0.375h-41.583c-0.20775 0-0.375-0.16725-0.375-0.375v-41.583c0-0.20775 0.16725-0.375 0.375-0.375z" color="#000000" fill-opacity="0" stroke-width="4" style="-inkscape-stroke:none"/>
   <path d="m963.46 340.37c-1.2812 0-2.375 1.0938-2.375 2.375v41.584c0 1.2812 1.0938 2.375 2.375 2.375h41.582c1.281 0 2.375-1.0942 2.375-2.375v-41.584c0-1.2808-1.094-2.375-2.375-2.375zm1.625 4h38.332v38.334h-38.332z" color="#000000" fill="#999" style="-inkscape-stroke:none"/>
  </g>
  <g transform="translate(-12.216 .33631)" stroke-linecap="round">
   <g transform="rotate(.055027)" clip-rule="evenodd" fill-rule="evenodd" stroke-linejoin="round" stroke-miterlimit="0" stroke-width=".19844" aria-label="masking">
    <path d="m815.3 182.31q0.85576-1.5379 2.0464-2.2696 1.1906-0.73174 2.8029-0.73174 2.1704 0 3.3486 1.5255 1.1782 1.5131 1.1782 4.316v8.384h-2.2944v-8.3096q0-1.9968-0.70693-2.9642-0.70694-0.96739-2.158-0.96739-1.7735 0-2.8029 1.1782-1.0294 1.1782-1.0294 3.2122v7.8507h-2.2944v-8.3096q0-2.0092-0.70693-2.9642-0.70694-0.96739-2.1828-0.96739-1.7487 0-2.7781 1.1906-1.0294 1.1782-1.0294 3.1998v7.8507h-2.2944v-13.891h2.2944v2.158q0.78134-1.2774 1.8728-1.8852 1.0914-0.60771 2.5921-0.60771 1.5131 0 2.5673 0.76894 1.0666 0.76895 1.5751 2.2324z"/>
    <path d="m835.54 186.55q-2.7657 0-3.8323 0.63252t-1.0666 2.158q0 1.2154 0.79375 1.9348 0.80615 0.70693 2.1828 0.70693 1.8976 0 3.0386-1.3394 1.1534-1.3519 1.1534-3.5843v-0.50849zm4.5517-0.94258v7.9251h-2.282v-2.1084q-0.78135 1.265-1.9472 1.8728-1.1658 0.59531-2.8525 0.59531-2.1332 0-3.3982-1.1906-1.2526-1.203-1.2526-3.2122 0-2.344 1.5627-3.5347 1.5751-1.1906 4.6881-1.1906h3.1998v-0.22324q0-1.5751-1.0418-2.4309-1.0294-0.86817-2.9022-0.86817-1.1906 0-2.3192 0.28526-1.1286 0.28525-2.1704 0.85576v-2.1084q1.2526-0.48369 2.4309-0.71934 1.1782-0.24804 2.2944-0.24804 3.0138 0 4.502 1.5627 1.4883 1.5627 1.4883 4.7377z"/>
    <path d="m853.65 180.05v2.158q-0.96738-0.4961-2.0092-0.74414-1.0418-0.24805-2.158-0.24805-1.6991 0-2.5549 0.5209-0.84336 0.5209-0.84336 1.5627 0 0.79375 0.60771 1.2526 0.60772 0.44648 2.4433 0.85576l0.78134 0.17363q2.4309 0.5209 3.4479 1.4759 1.0294 0.94258 1.0294 2.6417 0 1.9348-1.5379 3.0634-1.5255 1.1286-4.2044 1.1286-1.1162 0-2.3316-0.22324-1.203-0.21084-2.5425-0.64492v-2.3564q1.265 0.65733 2.4929 0.99219 1.2278 0.32246 2.4309 0.32246 1.6123 0 2.4805-0.5457 0.86817-0.55811 0.86817-1.5627 0-0.93017-0.63252-1.4263-0.62012-0.4961-2.7409-0.95499l-0.79375-0.18603q-2.1208-0.44648-3.0634-1.3643-0.94258-0.93017-0.94258-2.5425 0-1.9596 1.3891-3.0262 1.3891-1.0666 3.944-1.0666 1.265 0 2.3812 0.18603 1.1162 0.18604 2.0588 0.55811z"/>
    <path d="m857.94 174.23h2.2944v11.398l6.8089-5.9903h2.9146l-7.367 6.4988 7.677 7.3918h-2.9766l-7.0569-6.7841v6.7841h-2.2944z"/>
    <path d="m872.74 179.64h2.282v13.891h-2.282zm0-5.4074h2.282v2.8898h-2.282z"/>
    <path d="m891.34 185.15v8.384h-2.282v-8.3096q0-1.972-0.76895-2.9518-0.76894-0.97979-2.3068-0.97979-1.848 0-2.9146 1.1782-1.0666 1.1782-1.0666 3.2122v7.8507h-2.2944v-13.891h2.2944v2.158q0.81855-1.2526 1.9224-1.8728 1.1162-0.62012 2.5673-0.62012 2.3937 0 3.6215 1.4883 1.2278 1.4759 1.2278 4.3532z"/>
    <path d="m905.03 186.43q0-2.4805-1.0294-3.8447-1.017-1.3643-2.8649-1.3643-1.8355 0-2.8649 1.3643-1.017 1.3642-1.017 3.8447 0 2.4681 1.017 3.8323 1.0294 1.3643 2.8649 1.3643 1.848 0 2.8649-1.3643 1.0294-1.3643 1.0294-3.8323zm2.282 5.3826q0 3.5471-1.5751 5.271-1.5751 1.7363-4.8245 1.7363-1.203 0-2.2696-0.18603-1.0666-0.17363-2.0712-0.5457v-2.22q1.0046 0.5457 1.9844 0.80615 0.97978 0.26045 1.9968 0.26045 2.2448 0 3.361-1.1782 1.1162-1.1658 1.1162-3.5347v-1.1286q-0.70693 1.2278-1.8107 1.8356-1.1038 0.60772-2.6417 0.60772-2.5549 0-4.1176-1.9472t-1.5627-5.1594q0-3.2246 1.5627-5.1718 1.5627-1.9472 4.1176-1.9472 1.5379 0 2.6417 0.60771 1.1038 0.60772 1.8107 1.8356v-2.1084h2.282z"/>
   </g>
   <g stroke-miterlimit=".20833">
    <path d="m794.71 168.76h121.94c0.21917 0 0.3956 0.17616 0.3956 0.39498v36.437c0 0.21881-0.17643 0.39497-0.3956 0.39497h-121.94c-0.21916 0-0.3956-0.17616-0.3956-0.39497v-36.437c0-0.21882 0.17644-0.39498 0.3956-0.39498z" color="#000000" fill-opacity="0" stroke-width="4" style="-inkscape-stroke:none"/>
    <path d="m794.71 166.76c-1.2909 0-2.3965 1.1006-2.3965 2.3945v36.438c0 1.294 1.1056 2.3945 2.3965 2.3945h121.94c1.2908 0 2.3945-1.1006 2.3945-2.3945v-36.438c0-1.2939-1.1037-2.3945-2.3945-2.3945zm1.6035 4h118.73v33.227h-118.73z" color="#000000" fill="#808080" style="-inkscape-stroke:none"/>
   </g>
  </g>
  <path d="m316.98 315.57c-7.7959 2.0889-13.659 6.4323-17.867 12.314-4.2078 5.8822-6.8138 13.246-8.4941 21.553-3.3607 16.613-3.0448 37.109-3.4824 57.676-0.43962 20.661-0.17082 41.187-3.3906 57.271-1.6099 8.0424-4.087 14.948-7.8301 20.232-3.7431 5.2847-8.6956 9.0035-15.658 10.869l1.0352 3.8633c7.81-2.0927 13.679-6.4816 17.887-12.422 4.2075-5.9403 6.8107-13.377 8.4883-21.758 3.3552-16.761 3.0312-37.407 3.4688-57.973 0.43959-20.66 0.17968-41.036 3.4023-56.967 1.6113-7.9652 4.0886-14.79 7.8281-20.018 3.7396-5.2276 8.6885-8.9144 15.648-10.779z" clip-rule="evenodd" color="#000000" fill="#999" fill-rule="evenodd" stroke-linejoin="round" stroke-miterlimit=".20833" style="-inkscape-stroke:none"/>
  <g fill="#999" fill-rule="evenodd">
   <path d="m326.41 315.11-11.298 11.309-4.1411-15.455z" color="#000000" stroke-width="1.6pt" style="-inkscape-stroke:none"/>
   <path d="m309.47 309.46 5.0976 19.027 13.908-13.924-1.7832-0.47851zm3.0176 3.0215 11.871 3.1856-8.6875 8.6953z" color="#000000" style="-inkscape-stroke:none"/>
  </g>
  <path d="m382.62 364.78-1.0352 3.8633c16.49 4.4184 26.284 14.616 32.213 28.363 5.9286 13.747 7.791 31.068 7.791 49.08 0 17.671 1.5407 36.256 7.6816 51.402 6.141 15.146 17.187 26.897 35.477 29.945l0.6582-3.9453c-16.932-2.8221-26.631-13.206-32.428-27.504-5.797-14.298-7.3887-32.465-7.3887-49.898 0-18.284-1.8286-36.082-8.1172-50.664s-17.236-25.922-34.852-30.643z" clip-rule="evenodd" color="#000000" fill="#999" fill-rule="evenodd" stroke-linejoin="round" stroke-miterlimit=".20833" style="-inkscape-stroke:none"/>
  <g fill="#999" fill-rule="evenodd">
   <path d="m474.18 526.98-14.967 5.6159 2.6304-15.782z" color="#000000" stroke-width="1.6pt" style="-inkscape-stroke:none"/>
   <path d="m461.09 514.81-3.2383 19.43 18.424-6.9141-1.4238-1.1738zm1.4941 3.998 9.4883 7.8184-11.508 4.3164z" color="#000000" style="-inkscape-stroke:none"/>
  </g>
  <path d="m464.74 169.39c-18.29 3.0483-29.336 14.799-35.477 29.945-6.141 15.146-7.6816 33.731-7.6816 51.402 0 18.013-1.8624 35.331-7.791 49.078-5.9286 13.747-15.723 23.947-32.213 28.365l1.0352 3.8633c17.616-4.7201 28.563-16.061 34.852-30.643s8.1172-32.38 8.1172-50.664c0-17.433 1.5916-35.603 7.3887-49.9 5.797-14.298 15.495-24.68 32.428-27.502z" clip-rule="evenodd" color="#000000" fill="#999" fill-rule="evenodd" stroke-linejoin="round" stroke-miterlimit=".20833" style="-inkscape-stroke:none"/>
  <g fill="#999" fill-rule="evenodd">
   <path d="m474.18 169.85-12.336 10.166-2.6304-15.782z" color="#000000" stroke-width="1.6pt" style="-inkscape-stroke:none"/>
   <path d="m457.86 162.58 3.2383 19.43 15.186-12.516-1.7266-0.64844zm2.7129 3.2988 11.506 4.3164-9.4863 7.8164z" color="#000000" style="-inkscape-stroke:none"/>
  </g>
  <path d="m527.65 167.75v4h56.621v-4z" clip-rule="evenodd" color="#000000" fill="#999" fill-rule="evenodd" stroke-linejoin="round" stroke-miterlimit=".20833" style="-inkscape-stroke:none"/>
  <g fill="#999" fill-rule="evenodd">
   <path d="m593.5 169.75-13.84 8v-16z" color="#000000" stroke-width="1.6pt" style="-inkscape-stroke:none"/>
   <path d="m578.6 159.9v19.697l17.037-9.8477-1.5976-0.92383zm2.1328 3.6973 10.643 6.1523-10.643 6.1524z" color="#000000" style="-inkscape-stroke:none"/>
  </g>
  <path d="m527.65 527.5v4h56.621v-4z" clip-rule="evenodd" color="#000000" fill="#999" fill-rule="evenodd" stroke-linejoin="round" stroke-miterlimit=".20833" style="-inkscape-stroke:none"/>
  <g fill="#999" fill-rule="evenodd">
   <path d="m593.5 529.5-13.84 8v-16z" color="#000000" stroke-width="1.6pt" style="-inkscape-stroke:none"/>
   <path d="m578.6 519.65v19.697l17.037-9.8477-1.5976-0.92383zm2.1328 3.6953 10.645 6.1523-10.645 6.1543z" color="#000000" style="-inkscape-stroke:none"/>
  </g>
  <g stroke-linecap="round">
   <g stroke-miterlimit=".20833">
    <path d="m1102.9 138.52h62.75c0.2078 0 0.375 0.16725 0.375 0.375v412c0 0.20775-0.1672 0.375-0.375 0.375h-62.75c-0.2077 0-0.375-0.16725-0.375-0.375v-412c0-0.20775 0.1673-0.375 0.375-0.375z" color="#000000" fill-opacity="0" stroke-width="4" style="-inkscape-stroke:none"/>
    <path d="m1102.9 136.53c-1.2814 0-2.375 1.0935-2.375 2.375v412c0 1.2815 1.0936 2.375 2.375 2.375h62.75c1.2809 0 2.375-1.0942 2.375-2.375v-412c0-1.2808-1.0941-2.375-2.375-2.375zm1.625 4h59.5v408.75h-59.5z" color="#000000" fill="#999" style="-inkscape-stroke:none"/>
   </g>
   <g clip-rule="evenodd" fill-rule="evenodd" stroke-linejoin="round" stroke-miterlimit="0">
    <path d="m1116 150.86h36.62v36.62h-36.62z" fill="#ff5757" stroke-width=".3175"/>
    <g fill="#fff" stroke-width=".3175" aria-label="R">
     <path d="m1141 179.03-5.3342-8.5261h-6.3982v8.5261h-2.7837v-20.535h9.6629q3.4687 0 5.3488 1.5595 1.8947 1.5449 1.8947 4.314 0 2.2882-1.3409 3.8477-1.3263 1.5595-3.6728 1.9676l5.8298 8.8467zm-0.408-14.633q0-1.7927-1.2243-2.7254-1.2097-0.94734-3.4979-0.94734h-6.6022v7.5787h6.7188q2.2008 0 3.3959-1.0202 1.2097-1.0348 1.2097-2.8857z"/>
    </g>
    <path d="m1116 238.73h36.62v36.62h-36.62z" fill="#5757ff" stroke-width=".3175"/>
    <g fill="#fff" stroke-width=".3175" aria-label="B">
     <path d="m1142.4 262.33q0 2.74-1.9967 4.2703-1.9967 1.5158-5.5528 1.5158h-8.3366v-20.535h7.4621q7.2289 0 7.2289 4.9845 0 1.8218-1.0202 3.0606t-2.8857 1.6615q2.4485 0.29149 3.7748 1.6469 1.3262 1.3408 1.3262 3.3958zm-3.9934-9.4297q0-1.6615-1.1368-2.3756t-3.2938-0.71415h-4.6784v6.5002h4.6784q2.2299 0 3.323-0.83074 1.1076-0.84532 1.1076-2.5797zm1.1806 9.2111q0-3.629-5.1011-3.629h-5.1885v7.4038h5.4071q2.5506 0 3.7165-0.94734 1.166-0.94734 1.166-2.8274z"/>
    </g>
    <path d="m1116 194.79h36.62v36.62h-36.62z" fill="#55d400" stroke-width=".3175"/>
    <g fill="#fff" stroke-width=".3175" aria-label="G">
     <path d="m1139.8 220.44v-5.8444h-4.8096v-2.4194h7.7244v9.3422q-1.7052 1.2097-3.7602 1.8364-2.055 0.61212-4.3869 0.61212-5.101 0-7.9868-2.9732-2.8712-2.9878-2.8712-8.3074 0-5.3342 2.8712-8.3074 2.8858-2.9878 7.9868-2.9878 2.1279 0 4.0372 0.52468 1.9238 0.52468 3.5415 1.5449v3.1335q-1.6323-1.3846-3.4687-2.0841-1.8364-0.69958-3.8622-0.69958-3.9934 0-6.0047 2.2299-1.9967 2.2299-1.9967 6.646 0 4.4015 1.9967 6.6314 2.0113 2.2299 6.0047 2.2299 1.5595 0 2.7837-0.26234 1.2243-0.27691 2.2008-0.84532z"/>
    </g>
    <path d="m1116 502.32h36.62v36.62h-36.62z" fill="#666" stroke-width="3.5"/>
    <g fill="#e6e6e6">
     <path d="m1116 282.66h36.62v36.62h-36.62z" stroke-width="3.5"/>
     <path d="m1116 414.45h36.62v36.62h-36.62z" stroke-width="3.5"/>
     <g stroke-width="3.5">
      <path d="m1142.6 341.84a8.2918 8.2918 0 0 1-8.2918 8.2918 8.2918 8.2918 0 0 1-8.2918-8.2918 8.2918 8.2918 0 0 1 8.2918-8.2918 8.2918 8.2918 0 0 1 8.2918 8.2918z"/>
      <path d="m1142.6 366.87a8.2918 8.2918 0 0 1-8.2918 8.2918 8.2918 8.2918 0 0 1-8.2918-8.2918 8.2918 8.2918 0 0 1 8.2918-8.2918 8.2918 8.2918 0 0 1 8.2918 8.2918z"/>
      <path d="m1142.6 391.89a8.2918 8.2918 0 0 1-8.2918 8.2918 8.2918 8.2918 0 0 1-8.2918-8.2918 8.2918 8.2918 0 0 1 8.2918-8.2918 8.2918 8.2918 0 0 1 8.2918 8.2918z"/>
     </g>
    </g>
    <path d="m1116 458.39h36.62v36.62h-36.62z" fill="#666" stroke-width="3.5"/>
    <g fill="#fff">
     <g stroke-width=".14822" aria-label="α">
      <path d="m1134.9 481.89q-1.1938 2.5769-2.8612 3.7328-1.6485 1.1369-3.9412 1.1369-3.8843 0-5.7223-2.6148-1.819-2.6148-1.819-7.9203 0-5.3812 2.0464-8.0529 2.0653-2.6717 6.0255-2.6717 2.3874 0 4.0738 1.2695 1.7053 1.2695 2.558 3.5622h0.038q0.4358-2.2548 1.3832-4.4528h3.5622q-0.9474 2.0085-1.7432 4.9265-0.7958 2.899-0.9474 4.756 0.095 3.0317 0.6442 5.9497 0.5685 2.918 1.459 4.8696h-3.4675q-0.4547-1.1558-0.7958-2.5011-0.3221-1.3643-0.4168-1.9895zm-10.762-5.7791q0 4.2065 1.08 6.1202 1.0801 1.8948 3.5812 1.8948 2.2738 0 3.8275-2.179 1.5727-2.198 2.0653-5.9118-0.5495-3.998-1.9895-6.0065t-3.6949-2.0085q-2.5769 0-3.7327 1.9138-1.1369 1.8948-1.1369 6.177z"/>
     </g>
     <g stroke-width=".26458" aria-label="1">
      <path d="m1141.7 491.07v-1.4336h3.3637v-10.157l-2.9796 2.127v-1.5929l3.1202-2.1457h1.5554v11.769h3.2138v1.4336z"/>
     </g>
     <g stroke-width=".14822" aria-label="α">
      <path d="m1134.9 525.82q-1.1937 2.5769-2.8612 3.7328-1.6484 1.1369-3.9411 1.1369-3.8844 0-5.7223-2.6148-1.819-2.6148-1.819-7.9203 0-5.3812 2.0463-8.0529 2.0654-2.6717 6.0255-2.6717 2.3875 0 4.0738 1.2695 1.7053 1.2695 2.558 3.5622h0.038q0.4358-2.2548 1.3832-4.4528h3.5622q-0.9474 2.0085-1.7432 4.9265-0.7958 2.899-0.9474 4.756 0.095 3.0317 0.6442 5.9497 0.5685 2.918 1.459 4.8696h-3.4674q-0.4548-1.1558-0.7959-2.5011-0.3221-1.3643-0.4168-1.9895zm-10.762-5.7791q0 4.2064 1.0801 6.1202 1.08 1.8948 3.5811 1.8948 2.2738 0 3.8275-2.179 1.5727-2.198 2.0654-5.9118-0.5495-3.998-1.9896-6.0065-1.44-2.0085-3.6948-2.0085-2.577 0-3.7328 1.9138-1.1369 1.8948-1.1369 6.177z"/>
     </g>
     <g stroke-width=".26458" aria-label="2">
      <path d="m1141.2 535v-1.19q0.4778-1.0963 1.1618-1.9302 0.6934-0.84329 1.4524-1.5179 0.7589-0.684 1.4992-1.2649 0.7495-0.58094 1.3492-1.1619t0.9651-1.2181q0.3748-0.63715 0.3748-1.443 0-1.0869-0.6371-1.6866-0.6372-0.59967-1.771-0.59967-1.0775 0-1.7802 0.5903-0.6934 0.58093-0.8152 1.6397l-1.7241-0.15929q0.1874-1.5835 1.3399-2.5205 1.1619-0.93699 2.9796-0.93699 1.9958 0 3.064 0.94636 1.0775 0.93698 1.0775 2.6704 0 0.76833-0.356 1.5273-0.3467 0.75896-1.0401 1.5179-0.6933 0.75896-2.6517 2.3518-1.0775 0.88076-1.7146 1.5929-0.6372 0.70275-0.9183 1.3586h6.8869v1.4336z"/>
     </g>
    </g>
   </g>
  </g>
  <g stroke-linecap="round">
   <g stroke-miterlimit=".20833">
    <path d="m111.66 138.52h62.75c0.20775 0 0.375 0.16725 0.375 0.37499v412c0 0.20775-0.16725 0.375-0.375 0.375h-62.75c-0.20775 0-0.375-0.16725-0.375-0.375v-412c0-0.20774 0.16725-0.37499 0.375-0.37499z" color="#000000" fill-opacity="0" stroke-width="4" style="-inkscape-stroke:none"/>
    <path d="m111.66 136.53c-1.2812 0-2.375 1.0938-2.375 2.375v412c0 1.2812 1.0938 2.375 2.375 2.375h62.75c1.2812 0 2.375-1.0938 2.375-2.375v-412c0-1.2812-1.0938-2.375-2.375-2.375zm1.625 4h59.5v408.75h-59.5z" color="#000000" fill="#999" style="-inkscape-stroke:none"/>
   </g>
   <g clip-rule="evenodd" fill-rule="evenodd" stroke-linejoin="round" stroke-miterlimit="0">
    <path d="m124.72 150.86h36.62v36.62h-36.62z" fill="#ff5757" stroke-width=".3175"/>
    <g fill="#fff" stroke-width=".3175" aria-label="R">
     <path d="m149.75 179.03-5.3343-8.5261h-6.3982v8.5261h-2.7837v-20.535h9.6629q3.4687 0 5.3488 1.5595 1.8947 1.5449 1.8947 4.314 0 2.2882-1.3408 3.8477-1.3263 1.5595-3.6728 1.9676l5.8298 8.8467zm-0.40809-14.633q0-1.7927-1.2242-2.7254-1.2097-0.94734-3.4979-0.94734h-6.6022v7.5787h6.7188q2.2008 0 3.3958-1.0202 1.2097-1.0348 1.2097-2.8857z"/>
    </g>
    <path d="m124.72 238.73h36.62v36.62h-36.62z" fill="#5757ff" stroke-width=".3175"/>
    <g fill="#fff" stroke-width=".3175" aria-label="B">
     <path d="m151.12 262.33q0 2.74-1.9967 4.2703-1.9967 1.5158-5.5529 1.5158h-8.3366v-20.535h7.4621q7.2289 0 7.2289 4.9845 0 1.8218-1.0202 3.0606t-2.8858 1.6615q2.4485 0.29149 3.7748 1.6469 1.3263 1.3408 1.3263 3.3958zm-3.9934-9.4297q0-1.6615-1.1368-2.3756-1.1368-0.71415-3.2938-0.71415h-4.6784v6.5002h4.6784q2.2299 0 3.323-0.83074 1.1077-0.84532 1.1077-2.5797zm1.1805 9.2111q0-3.629-5.1011-3.629h-5.1885v7.4038h5.4071q2.5505 0 3.7165-0.94734 1.166-0.94734 1.166-2.8274z"/>
    </g>
    <path d="m124.72 194.79h36.62v36.62h-36.62z" fill="#55d400" stroke-width=".3175"/>
    <g fill="#fff" stroke-width=".3175" aria-label="G">
     <path d="m148.56 220.44v-5.8444h-4.8096v-2.4194h7.7245v9.3422q-1.7052 1.2097-3.7602 1.8364-2.055 0.61213-4.3869 0.61213-5.1011 0-7.9868-2.9732-2.8712-2.9878-2.8712-8.3074 0-5.3342 2.8712-8.3074 2.8857-2.9878 7.9868-2.9878 2.1279 0 4.0371 0.52468 1.9238 0.52468 3.5416 1.5449v3.1335q-1.6323-1.3846-3.4687-2.0842t-3.8622-0.69957q-3.9934 0-6.0047 2.2299-1.9967 2.2299-1.9967 6.646 0 4.4015 1.9967 6.6314 2.0113 2.2299 6.0047 2.2299 1.5595 0 2.7837-0.26234 1.2243-0.27692 2.2008-0.84532z"/>
    </g>
    <path d="m124.72 502.32h36.62v36.62h-36.62z" fill="#666" stroke-width="3.5"/>
    <g fill="#e6e6e6">
     <path d="m124.72 282.66h36.62v36.62h-36.62z" stroke-width="3.5"/>
     <path d="m124.72 414.45h36.62v36.62h-36.62z" stroke-width="3.5"/>
     <g stroke-width="3.5">
      <path d="m151.32 341.84a8.2918 8.2918 0 0 1-8.2918 8.2918 8.2918 8.2918 0 0 1-8.2918-8.2918 8.2918 8.2918 0 0 1 8.2918-8.2918 8.2918 8.2918 0 0 1 8.2918 8.2918z"/>
      <path d="m151.32 366.87a8.2918 8.2918 0 0 1-8.2918 8.2918 8.2918 8.2918 0 0 1-8.2918-8.2918 8.2918 8.2918 0 0 1 8.2918-8.2918 8.2918 8.2918 0 0 1 8.2918 8.2918z"/>
      <path d="m151.32 391.89a8.2918 8.2918 0 0 1-8.2918 8.2918 8.2918 8.2918 0 0 1-8.2918-8.2918 8.2918 8.2918 0 0 1 8.2918-8.2918 8.2918 8.2918 0 0 1 8.2918 8.2918z"/>
     </g>
    </g>
    <path d="m124.72 458.39h36.62v36.62h-36.62z" fill="#666" stroke-width="3.5"/>
    <g fill="#fff">
     <g stroke-width=".14822" aria-label="α">
      <path d="m143.64 481.89q-1.1937 2.5769-2.8612 3.7328-1.6485 1.1369-3.9412 1.1369-3.8843 0-5.7223-2.6148-1.819-2.6148-1.819-7.9203 0-5.3812 2.0464-8.0529 2.0653-2.6717 6.0255-2.6717 2.3874 0 4.0738 1.2695 1.7053 1.2695 2.558 3.5622h0.0379q0.4358-2.2548 1.3832-4.4528h3.5622q-0.9474 2.0085-1.7432 4.9265-0.79582 2.899-0.9474 4.756 0.0947 3.0317 0.64423 5.9497 0.56844 2.918 1.459 4.8696h-3.4675q-0.45475-1.1558-0.79581-2.5011-0.32212-1.3643-0.41686-1.9895zm-10.762-5.7791q0 4.2065 1.08 6.1202 1.08 1.8948 3.5812 1.8948 2.2738 0 3.8275-2.179 1.5727-2.198 2.0653-5.9118-0.54949-3.998-1.9895-6.0065t-3.6949-2.0085q-2.5769 0-3.7328 1.9138-1.1369 1.8948-1.1369 6.177z"/>
     </g>
     <g stroke-width=".26458" aria-label="1">
      <path d="m150.43 491.07v-1.4336h3.3638v-10.157l-2.9796 2.127v-1.5929l3.1202-2.1457h1.5554v11.769h3.2139v1.4336z"/>
     </g>
     <g stroke-width=".14822" aria-label="α">
      <path d="m143.66 525.82q-1.1937 2.5769-2.8612 3.7328-1.6485 1.1369-3.9412 1.1369-3.8843 0-5.7223-2.6148-1.819-2.6148-1.819-7.9203 0-5.3812 2.0464-8.0529 2.0653-2.6717 6.0255-2.6717 2.3874 0 4.0738 1.2695 1.7053 1.2695 2.558 3.5622h0.0379q0.4358-2.2548 1.3832-4.4528h3.5622q-0.9474 2.0085-1.7432 4.9265-0.79582 2.899-0.9474 4.756 0.0947 3.0317 0.64423 5.9497 0.56844 2.918 1.459 4.8696h-3.4675q-0.45475-1.1558-0.79581-2.5011-0.32212-1.3643-0.41686-1.9895zm-10.762-5.7791q0 4.2064 1.08 6.1202 1.08 1.8948 3.5812 1.8948 2.2738 0 3.8275-2.179 1.5727-2.198 2.0653-5.9118-0.54949-3.998-1.9895-6.0065t-3.6949-2.0085q-2.5769 0-3.7328 1.9138-1.1369 1.8948-1.1369 6.177z"/>
     </g>
     <g stroke-width=".26458" aria-label="2">
      <path d="m149.94 535v-1.19q0.47786-1.0963 1.1619-1.9302 0.69337-0.84329 1.4523-1.5179 0.75896-0.684 1.4992-1.2649 0.74959-0.58094 1.3493-1.1619 0.59968-0.58093 0.9651-1.2181 0.3748-0.63715 0.3748-1.443 0-1.0869-0.63716-1.6866-0.63715-0.59967-1.7709-0.59967-1.0775 0-1.7803 0.5903-0.69337 0.58093-0.81518 1.6397l-1.724-0.15929q0.18739-1.5835 1.3399-2.5205 1.1619-0.93698 2.9796-0.93698 1.9958 0 3.064 0.94635 1.0775 0.93699 1.0775 2.6704 0 0.76833-0.35605 1.5273-0.34669 0.75896-1.0401 1.5179t-2.6517 2.3518q-1.0775 0.88076-1.7147 1.5929-0.63715 0.70274-0.91825 1.3586h6.8869v1.4336z"/>
     </g>
    </g>
   </g>
  </g>
  <g clip-rule="evenodd" fill="#fff" fill-rule="evenodd" stroke-linecap="round" stroke-linejoin="round" stroke-miterlimit="0" stroke-width=".57865" aria-label="δ">
   <path d="m703.85 252.01q0-0.9341-0.28989-1.7501-0.27915-0.82673-0.7301-1.5246-0.44021-0.70863-1.3421-1.6427-1.9219 0.68716-2.9419 1.9648-1.02 1.2777-1.02 2.9526 0 1.8145 0.83747 2.8345 0.8482 1.0092 2.3406 1.0092 1.5461 0 2.3406-0.9663 0.80525-0.96631 0.80525-2.8775zm-2.7594-9.4591-1.6535-0.0859 3.3928 3.4787q1.2992 1.3314 1.8575 2.1903 0.56905 0.8482 0.88042 1.793 0.31136 0.9341 0.31136 2.04 0 2.4372-1.385 3.876-1.385 1.4387-3.7901 1.4387-2.4265 0-3.8223-1.4065-1.385-1.4065-1.385-3.8867 0-2.0829 1.2562-3.5754 1.2562-1.5031 3.7364-2.3621l-3.425-3.6398v-1.2777h7.87v1.4172z"/>
  </g>
  <g clip-rule="evenodd" fill-rule="evenodd" stroke-linecap="round" stroke-linejoin="round" stroke-miterlimit="0">
   <g stroke-width=".17556">
    <path d="m604.31 69.961h20.248v20.248h-20.248z" fill="#ff5757"/>
    <path d="m604.31 118.54h20.248v20.248h-20.248z" fill="#5757ff"/>
    <path d="m604.31 94.252h20.248v20.248h-20.248z" fill="#55d400"/>
    <path d="m604.52 264.29h20.248v20.248h-20.248z" fill="#ebebeb"/>
    <path d="m604.31 142.84h20.248v20.248h-20.248z" fill="#666"/>
   </g>
   <g fill="#ebebeb" stroke-width=".17556">
    <path d="m604.31 167.13h20.248v20.248h-20.248z"/>
    <path d="m604.31 191.42h20.248v20.248h-20.248z"/>
    <path d="m619.36 224.14a4.5848 4.5848 0 0 1-4.5848 4.5848 4.5848 4.5848 0 0 1-4.5848-4.5848 4.5848 4.5848 0 0 1 4.5848-4.5848 4.5848 4.5848 0 0 1 4.5848 4.5848z"/>
    <path d="m619.36 237.98a4.5848 4.5848 0 0 1-4.5848 4.5848 4.5848 4.5848 0 0 1-4.5848-4.5848 4.5848 4.5848 0 0 1 4.5848-4.5848 4.5848 4.5848 0 0 1 4.5848 4.5848z"/>
    <path d="m619.36 251.81a4.5848 4.5848 0 0 1-4.5848 4.5848 4.5848 4.5848 0 0 1-4.5848-4.5848 4.5848 4.5848 0 0 1 4.5848-4.5848 4.5848 4.5848 0 0 1 4.5848 4.5848z"/>
   </g>
   <g fill="#fff" stroke-width=".57865" aria-label="δ">
    <path d="m617.59 155.76q0-0.9341-0.28989-1.7501-0.27916-0.82673-0.7301-1.5246-0.44021-0.70863-1.3421-1.6427-1.9219 0.68716-2.9419 1.9648-1.02 1.2777-1.02 2.9526 0 1.8145 0.83747 2.8345 0.84821 1.0093 2.3406 1.0093 1.5461 0 2.3406-0.96631 0.80526-0.96631 0.80526-2.8775zm-2.7594-9.4591-1.6535-0.0859 3.3928 3.4787q1.2991 1.3314 1.8575 2.1903 0.56905 0.8482 0.88041 1.793 0.31137 0.9341 0.31137 2.04 0 2.4372-1.385 3.876-1.385 1.4387-3.7901 1.4387-2.4265 0-3.8223-1.4065-1.385-1.4065-1.385-3.8867 0-2.0829 1.2562-3.5753 1.2562-1.5032 3.7364-2.3621l-3.425-3.6398v-1.2777h7.87v1.4172z"/>
   </g>
  </g>
  <g transform="translate(-12.114 354.64)" stroke-linecap="round">
   <g transform="rotate(.055027)" clip-rule="evenodd" fill-rule="evenodd" stroke-linejoin="round" stroke-miterlimit="0" stroke-width=".19844" aria-label="masking">
    <path d="m815.3 182.31q0.85576-1.5379 2.0464-2.2696 1.1906-0.73174 2.8029-0.73174 2.1704 0 3.3486 1.5255 1.1782 1.5131 1.1782 4.316v8.384h-2.2944v-8.3096q0-1.9968-0.70693-2.9642-0.70694-0.96739-2.158-0.96739-1.7735 0-2.8029 1.1782-1.0294 1.1782-1.0294 3.2122v7.8507h-2.2944v-8.3096q0-2.0092-0.70693-2.9642-0.70694-0.96739-2.1828-0.96739-1.7487 0-2.7781 1.1906-1.0294 1.1782-1.0294 3.1998v7.8507h-2.2944v-13.891h2.2944v2.158q0.78134-1.2774 1.8728-1.8852 1.0914-0.60771 2.5921-0.60771 1.5131 0 2.5673 0.76894 1.0666 0.76895 1.5751 2.2324z"/>
    <path d="m835.54 186.55q-2.7657 0-3.8323 0.63252t-1.0666 2.158q0 1.2154 0.79375 1.9348 0.80615 0.70693 2.1828 0.70693 1.8976 0 3.0386-1.3394 1.1534-1.3519 1.1534-3.5843v-0.50849zm4.5517-0.94258v7.9251h-2.282v-2.1084q-0.78135 1.265-1.9472 1.8728-1.1658 0.59531-2.8525 0.59531-2.1332 0-3.3982-1.1906-1.2526-1.203-1.2526-3.2122 0-2.344 1.5627-3.5347 1.5751-1.1906 4.6881-1.1906h3.1998v-0.22324q0-1.5751-1.0418-2.4309-1.0294-0.86817-2.9022-0.86817-1.1906 0-2.3192 0.28526-1.1286 0.28525-2.1704 0.85576v-2.1084q1.2526-0.48369 2.4309-0.71934 1.1782-0.24804 2.2944-0.24804 3.0138 0 4.502 1.5627 1.4883 1.5627 1.4883 4.7377z"/>
    <path d="m853.65 180.05v2.158q-0.96738-0.4961-2.0092-0.74414-1.0418-0.24805-2.158-0.24805-1.6991 0-2.5549 0.5209-0.84336 0.5209-0.84336 1.5627 0 0.79375 0.60771 1.2526 0.60772 0.44648 2.4433 0.85576l0.78134 0.17363q2.4309 0.5209 3.4479 1.4759 1.0294 0.94258 1.0294 2.6417 0 1.9348-1.5379 3.0634-1.5255 1.1286-4.2044 1.1286-1.1162 0-2.3316-0.22324-1.203-0.21084-2.5425-0.64492v-2.3564q1.265 0.65733 2.4929 0.99219 1.2278 0.32246 2.4309 0.32246 1.6123 0 2.4805-0.5457 0.86817-0.55811 0.86817-1.5627 0-0.93017-0.63252-1.4263-0.62012-0.4961-2.7409-0.95499l-0.79375-0.18603q-2.1208-0.44648-3.0634-1.3643-0.94258-0.93017-0.94258-2.5425 0-1.9596 1.3891-3.0262 1.3891-1.0666 3.944-1.0666 1.265 0 2.3812 0.18603 1.1162 0.18604 2.0588 0.55811z"/>
    <path d="m857.94 174.23h2.2944v11.398l6.8089-5.9903h2.9146l-7.367 6.4988 7.677 7.3918h-2.9766l-7.0569-6.7841v6.7841h-2.2944z"/>
    <path d="m872.74 179.64h2.282v13.891h-2.282zm0-5.4074h2.282v2.8898h-2.282z"/>
    <path d="m891.34 185.15v8.384h-2.282v-8.3096q0-1.972-0.76895-2.9518-0.76894-0.97979-2.3068-0.97979-1.848 0-2.9146 1.1782-1.0666 1.1782-1.0666 3.2122v7.8507h-2.2944v-13.891h2.2944v2.158q0.81855-1.2526 1.9224-1.8728 1.1162-0.62012 2.5673-0.62012 2.3937 0 3.6215 1.4883 1.2278 1.4759 1.2278 4.3532z"/>
    <path d="m905.03 186.43q0-2.4805-1.0294-3.8447-1.017-1.3643-2.8649-1.3643-1.8355 0-2.8649 1.3643-1.017 1.3642-1.017 3.8447 0 2.4681 1.017 3.8323 1.0294 1.3643 2.8649 1.3643 1.848 0 2.8649-1.3643 1.0294-1.3643 1.0294-3.8323zm2.282 5.3826q0 3.5471-1.5751 5.271-1.5751 1.7363-4.8245 1.7363-1.203 0-2.2696-0.18603-1.0666-0.17363-2.0712-0.5457v-2.22q1.0046 0.5457 1.9844 0.80615 0.97978 0.26045 1.9968 0.26045 2.2448 0 3.361-1.1782 1.1162-1.1658 1.1162-3.5347v-1.1286q-0.70693 1.2278-1.8107 1.8356-1.1038 0.60772-2.6417 0.60772-2.5549 0-4.1176-1.9472t-1.5627-5.1594q0-3.2246 1.5627-5.1718 1.5627-1.9472 4.1176-1.9472 1.5379 0 2.6417 0.60771 1.1038 0.60772 1.8107 1.8356v-2.1084h2.282z"/>
   </g>
   <g stroke-miterlimit=".20833">
    <path d="m794.71 168.76h121.94c0.21917 0 0.3956 0.17616 0.3956 0.39498v36.437c0 0.21881-0.17643 0.39497-0.3956 0.39497h-121.94c-0.21916 0-0.3956-0.17616-0.3956-0.39497v-36.437c0-0.21882 0.17644-0.39498 0.3956-0.39498z" color="#000000" fill-opacity="0" stroke-width="4" style="-inkscape-stroke:none"/>
    <path d="m794.71 166.76c-1.2909 0-2.3965 1.1006-2.3965 2.3945v36.438c0 1.294 1.1056 2.3945 2.3965 2.3945h121.94c1.2908 0 2.3945-1.1006 2.3945-2.3945v-36.438c0-1.2939-1.1037-2.3945-2.3945-2.3945zm1.6035 4h118.73v33.227h-118.73z" color="#000000" fill="#808080" style="-inkscape-stroke:none"/>
   </g>
  </g>
 </g>
</svg>
