<?xml version="1.0" encoding="UTF-8"?>
<!-- Created with Inkscape (http://www.inkscape.org/) -->
<svg width="310mm" height="55mm" version="1.1" viewBox="0 0 310 55" xmlns="http://www.w3.org/2000/svg">
 <defs>
  <marker id="marker8345" overflow="visible" orient="auto">
   <path transform="scale(.4)" d="m5.77 0-8.65 5v-10z" fill="context-stroke" fill-rule="evenodd" stroke="context-stroke" stroke-width="1pt"/>
  </marker>
  <marker id="TriangleOutM-9" overflow="visible" orient="auto">
   <path transform="scale(.4)" d="m5.77 0-8.65 5v-10z" fill="context-stroke" fill-rule="evenodd" stroke="context-stroke" stroke-width="1pt"/>
  </marker>
  <marker id="TriangleOutM-5" overflow="visible" orient="auto">
   <path transform="scale(.4)" d="m5.77 0-8.65 5v-10z" fill="context-stroke" fill-rule="evenodd" stroke="context-stroke" stroke-width="1pt"/>
  </marker>
 </defs>
 <g fill-rule="evenodd">
  <g transform="translate(-20,-20)" fill="#ffd42a">
   <rect x="20" y="20" width="6.1349" height="6.1349" stroke-width=".32464"/>
   <g stroke-width=".26458">
    <rect x="30" y="55" width="5" height="5"/>
    <rect x="60" y="40" width="5" height="5"/>
    <rect x="65" y="60" width="5" height="5"/>
   </g>
  </g>
  <g transform="translate(-20,-20)" fill="#f55">
   <g stroke-width=".26458">
    <rect x="20" y="30" width="5" height="5"/>
    <rect x="25" y="30" width="5" height="5"/>
    <rect x="20" y="35" width="5" height="5"/>
    <rect x="25" y="35" width="5" height="5"/>
    <rect x="30" y="30" width="5" height="5"/>
    <rect x="35" y="30" width="5" height="5"/>
    <rect x="30" y="35" width="5" height="5"/>
    <rect x="35" y="35" width="5" height="5"/>
   </g>
   <rect x="25" y="20" width="35" height="35" stroke-width="1.8521"/>
   <rect x="20" y="25" width="5" height="5" stroke-width=".26458"/>
   <rect x="20" y="25" width="10" height="30" stroke-width=".91654"/>
   <g stroke-width=".26458">
    <rect x="30" y="20" width="5" height="5"/>
    <rect x="35" y="20" width="5" height="5"/>
    <rect x="30" y="25" width="5" height="5"/>
    <rect x="35" y="25" width="5" height="5"/>
    <rect x="40" y="30" width="5" height="5"/>
    <rect x="45" y="30" width="5" height="5"/>
    <rect x="40" y="35" width="5" height="5"/>
    <rect x="45" y="35" width="5" height="5"/>
    <rect x="20" y="40" width="5" height="5"/>
    <rect x="25" y="40" width="5" height="5"/>
    <rect x="20" y="45" width="5" height="5"/>
    <rect x="25" y="45" width="5" height="5"/>
    <rect x="30" y="40" width="5" height="5"/>
    <rect x="35" y="40" width="5" height="5"/>
    <rect x="30" y="45" width="5" height="5"/>
    <rect x="35" y="45" width="5" height="5"/>
    <rect x="40" y="40" width="5" height="5"/>
    <rect x="45" y="40" width="5" height="5"/>
    <rect x="40" y="45" width="5" height="5"/>
    <rect x="45" y="45" width="5" height="5"/>
    <rect x="40" y="20" width="5" height="5"/>
    <rect x="45" y="20" width="5" height="5"/>
    <rect x="40" y="25" width="5" height="5"/>
    <rect x="45" y="25" width="5" height="5"/>
    <rect x="20" y="60" width="5" height="5"/>
   </g>
   <rect x="25" y="60" width="40" height="15" stroke-width="1.2962"/>
   <g stroke-width=".26458">
    <rect x="20" y="65" width="5" height="5"/>
    <rect x="25" y="65" width="5" height="5"/>
    <rect x="30" y="60" width="5" height="5"/>
    <rect x="35" y="60" width="5" height="5"/>
    <rect x="30" y="65" width="5" height="5"/>
    <rect x="35" y="65" width="5" height="5"/>
   </g>
   <rect x="20" y="50" width="10" height="25" stroke-width=".83668"/>
   <g stroke-width=".26458">
    <rect x="25" y="50" width="5" height="5"/>
    <rect x="20" y="55" width="5" height="5"/>
    <rect x="25" y="55" width="5" height="5"/>
    <rect x="30" y="50" width="5" height="5"/>
   </g>
   <rect x="35" y="50" width="35" height="10" stroke-width=".98998"/>
   <rect x="35" y="55" width="30" height="10" stroke-width=".91654"/>
   <g stroke-width=".26458">
    <rect x="40" y="60" width="5" height="5"/>
    <rect x="45" y="60" width="5" height="5"/>
    <rect x="40" y="65" width="5" height="5"/>
    <rect x="45" y="65" width="5" height="5"/>
    <rect x="20" y="70" width="5" height="5"/>
    <rect x="25" y="70" width="5" height="5"/>
    <rect x="30" y="70" width="5" height="5"/>
    <rect x="35" y="70" width="5" height="5"/>
    <rect x="40" y="70" width="5" height="5"/>
    <rect x="45" y="70" width="5" height="5"/>
    <rect x="40" y="50" width="5" height="5"/>
    <rect x="45" y="50" width="5" height="5"/>
    <rect x="40" y="55" width="5" height="5"/>
    <rect x="45" y="55" width="5" height="5"/>
    <rect x="50" y="30" width="5" height="5"/>
    <rect x="55" y="30" width="5" height="5"/>
    <rect x="50" y="35" width="5" height="5"/>
    <rect x="55" y="35" width="5" height="5"/>
    <rect x="60" y="30" width="5" height="5"/>
   </g>
   <rect x="65" y="30" width="10" height="15" stroke-width=".64809"/>
   <g stroke-width=".26458">
    <rect x="60" y="35" width="5" height="5"/>
    <rect x="65" y="35" width="5" height="5"/>
    <rect x="50" y="20" width="5" height="5"/>
   </g>
   <rect x="55" y="20" width="20" height="10" stroke-width=".74835"/>
   <rect x="50" y="25" width="5" height="5" stroke-width=".26458"/>
   <rect x="55" y="25" width="20" height="15" stroke-width=".91654"/>
   <g stroke-width=".26458">
    <rect x="60" y="20" width="5" height="5"/>
    <rect x="65" y="20" width="5" height="5"/>
    <rect x="60" y="25" width="5" height="5"/>
    <rect x="65" y="25" width="5" height="5"/>
    <rect x="70" y="30" width="5" height="5"/>
    <rect x="70" y="35" width="5" height="5"/>
    <rect x="50" y="40" width="5" height="5"/>
    <rect x="55" y="40" width="5" height="5"/>
    <rect x="50" y="45" width="5" height="5"/>
   </g>
   <rect x="55" y="45" width="20" height="15" stroke-width=".91654"/>
   <rect x="65" y="40" width="10" height="20" stroke-width=".74835"/>
   <g stroke-width=".26458">
    <rect x="60" y="45" width="5" height="5"/>
    <rect x="65" y="45" width="5" height="5"/>
    <rect x="70" y="40" width="5" height="5"/>
    <rect x="70" y="45" width="5" height="5"/>
    <rect x="70" y="20" width="5" height="5"/>
    <rect x="70" y="25" width="5" height="5"/>
    <rect x="50" y="60" width="5" height="5"/>
    <rect x="55" y="60" width="5" height="5"/>
    <rect x="50" y="65" width="5" height="5"/>
    <rect x="55" y="65" width="5" height="5"/>
    <rect x="60" y="60" width="5" height="5"/>
   </g>
   <rect x="60" y="65" width="15" height="10" stroke-width=".64809"/>
   <g stroke-width=".26458">
    <rect x="65" y="65" width="5" height="5"/>
    <rect x="50" y="50" width="5" height="5"/>
    <rect x="55" y="50" width="5" height="5"/>
    <rect x="50" y="55" width="5" height="5"/>
    <rect x="55" y="55" width="5" height="5"/>
    <rect x="60" y="50" width="5" height="5"/>
    <rect x="65" y="50" width="5" height="5"/>
    <rect x="60" y="55" width="5" height="5"/>
    <rect x="65" y="55" width="5" height="5"/>
    <rect x="70" y="60" width="5" height="5"/>
    <rect x="70" y="65" width="5" height="5"/>
    <rect x="50" y="70" width="5" height="5"/>
    <rect x="55" y="70" width="5" height="5"/>
    <rect x="60" y="70" width="5" height="5"/>
    <rect x="65" y="70" width="5" height="5"/>
    <rect x="70" y="70" width="5" height="5"/>
    <rect x="70" y="50" width="5" height="5"/>
   </g>
   <rect x="70" y="55" width="5" height="15" stroke-width=".45827"/>
  </g>
  <g transform="translate(-25 -20)" fill="#ffd42a">
   <rect x="109.77" y="20" width="15" height="10" stroke-width=".64809"/>
   <rect x="119.77" y="55" width="5" height="5" stroke-width=".26458"/>
   <rect x="149.77" y="40" width="10" height="5" stroke-width=".37418"/>
   <rect x="154.77" y="60" width="5" height="5" stroke-width=".26458"/>
  </g>
  <g transform="translate(-25 -20)" fill="#f55">
   <rect x="109.77" y="30" width="35" height="20" stroke-width="1.4"/>
   <g stroke-width=".26458">
    <rect x="114.77" y="30" width="5" height="5"/>
    <rect x="109.77" y="35" width="5" height="5"/>
    <rect x="114.77" y="35" width="5" height="5"/>
    <rect x="119.77" y="30" width="5" height="5"/>
    <rect x="124.77" y="30" width="5" height="5"/>
    <rect x="119.77" y="35" width="5" height="5"/>
    <rect x="124.77" y="35" width="5" height="5"/>
   </g>
  </g>
  <g transform="translate(-25 -20)" fill="#ffd42a" stroke-width=".26458">
   <rect x="114.77" y="20" width="5" height="5"/>
   <rect x="109.77" y="25" width="5" height="5"/>
   <rect x="114.77" y="25" width="5" height="5"/>
   <rect x="119.77" y="20" width="5" height="5"/>
  </g>
  <rect x="99.77" width="40" height="10" fill="#f55" stroke-width="1.0583"/>
  <rect x="94.77" y="5" width="5" height="5" fill="#ffd42a" stroke-width=".26458"/>
  <g transform="translate(-25 -20)" fill="#f55">
   <rect x="124.77" y="25" width="25" height="15" stroke-width="1.0247"/>
   <g stroke-width=".26458">
    <rect x="129.77" y="30" width="5" height="5"/>
    <rect x="134.77" y="30" width="5" height="5"/>
    <rect x="129.77" y="35" width="5" height="5"/>
    <rect x="134.77" y="35" width="5" height="5"/>
    <rect x="109.77" y="40" width="5" height="5"/>
    <rect x="114.77" y="40" width="5" height="5"/>
   </g>
   <rect x="109.77" y="45" width="10" height="30" stroke-width=".91654"/>
   <g stroke-width=".26458">
    <rect x="114.77" y="45" width="5" height="5"/>
    <rect x="119.77" y="40" width="5" height="5"/>
    <rect x="124.77" y="40" width="5" height="5"/>
    <rect x="119.77" y="45" width="5" height="5"/>
    <rect x="124.77" y="45" width="5" height="5"/>
    <rect x="129.77" y="40" width="5" height="5"/>
    <rect x="134.77" y="40" width="5" height="5"/>
   </g>
   <rect x="129.77" y="45" width="15" height="15" stroke-width=".79375"/>
   <g stroke-width=".26458">
    <rect x="134.77" y="45" width="5" height="5"/>
    <rect x="129.77" y="20" width="5" height="5"/>
    <rect x="134.77" y="20" width="5" height="5"/>
    <rect x="129.77" y="25" width="5" height="5"/>
    <rect x="134.77" y="25" width="5" height="5"/>
    <rect x="109.77" y="60" width="5" height="5"/>
    <rect x="114.77" y="60" width="5" height="5"/>
    <rect x="109.77" y="65" width="5" height="5"/>
   </g>
   <rect x="114.77" y="65" width="35" height="10" stroke-width=".98998"/>
  </g>
  <g stroke-width=".26458">
   <rect x="94.77" y="40" width="5" height="5" fill="#ffd42a"/>
   <rect x="99.77" y="40" width="5" height="5" fill="#ffd42a"/>
   <g transform="translate(-25 -20)" fill="#f55">
    <rect x="119.77" y="65" width="5" height="5"/>
    <rect x="124.77" y="65" width="5" height="5"/>
    <rect x="109.77" y="50" width="5" height="5"/>
    <rect x="114.77" y="50" width="5" height="5"/>
    <rect x="109.77" y="55" width="5" height="5"/>
    <rect x="114.77" y="55" width="5" height="5"/>
   </g>
  </g>
  <g transform="translate(-25 -20)" fill="#ffd42a">
   <rect x="119.77" y="50" width="10" height="15" stroke-width=".64809"/>
   <rect x="124.77" y="50" width="5" height="5" stroke-width=".26458"/>
   <rect x="124.77" y="55" width="5" height="5" stroke-width=".26458"/>
   <rect x="119.77" y="60" width="15" height="5" stroke-width=".45827"/>
  </g>
  <g transform="translate(-25 -20)" fill="#f55">
   <g stroke-width=".26458">
    <rect x="134.77" y="60" width="5" height="5"/>
    <rect x="129.77" y="65" width="5" height="5"/>
    <rect x="134.77" y="65" width="5" height="5"/>
    <rect x="109.77" y="70" width="5" height="5"/>
    <rect x="114.77" y="70" width="5" height="5"/>
    <rect x="119.77" y="70" width="5" height="5"/>
    <rect x="124.77" y="70" width="5" height="5"/>
    <rect x="129.77" y="70" width="5" height="5"/>
    <rect x="134.77" y="70" width="5" height="5"/>
    <rect x="129.77" y="50" width="5" height="5"/>
    <rect x="134.77" y="50" width="5" height="5"/>
    <rect x="129.77" y="55" width="5" height="5"/>
   </g>
   <rect x="134.77" y="55" width="15" height="10" stroke-width=".64809"/>
   <g stroke-width=".26458">
    <rect x="139.77" y="30" width="5" height="5"/>
    <rect x="144.77" y="30" width="5" height="5"/>
    <rect x="139.77" y="35" width="5" height="5"/>
    <rect x="144.77" y="35" width="5" height="5"/>
    <rect x="149.77" y="30" width="5" height="5"/>
    <rect x="154.77" y="30" width="5" height="5"/>
   </g>
  </g>
  <rect x="124.77" y="15" width="5" height="10" fill="#ffd42a" stroke-width=".37418"/>
  <g transform="translate(-25 -20)" fill="#f55">
   <rect x="154.77" y="30" width="10" height="10" stroke-width=".52917"/>
   <g stroke-width=".26458">
    <rect x="139.77" y="20" width="5" height="5"/>
    <rect x="144.77" y="20" width="5" height="5"/>
    <rect x="139.77" y="25" width="5" height="5"/>
   </g>
   <rect x="144.77" y="25" width="20" height="10" stroke-width=".74835"/>
   <g stroke-width=".26458">
    <rect x="149.77" y="20" width="5" height="5"/>
    <rect x="154.77" y="20" width="5" height="5"/>
    <rect x="149.77" y="25" width="5" height="5"/>
    <rect x="154.77" y="25" width="5" height="5"/>
    <rect x="159.77" y="30" width="5" height="5"/>
    <rect x="159.77" y="35" width="5" height="5"/>
    <rect x="139.77" y="40" width="5" height="5"/>
   </g>
  </g>
  <rect x="119.77" y="20" width="10" height="10" fill="#ffd42a" stroke-width=".52917"/>
  <rect x="114.77" y="25" width="5" height="5" fill="#f55" stroke-width=".26458"/>
  <g transform="translate(-25 -20)" fill="#ffd42a">
   <rect x="144.77" y="45" width="5" height="5" stroke-width=".26458"/>
   <rect x="149.77" y="40" width="10" height="5" stroke-width=".37418"/>
   <rect x="149.77" y="45" width="5" height="5" stroke-width=".26458"/>
  </g>
  <g transform="translate(-25 -20)" fill="#f55">
   <rect x="154.77" y="45" width="10" height="10" stroke-width=".52917"/>
   <g stroke-width=".26458">
    <rect x="159.77" y="40" width="5" height="5"/>
    <rect x="159.77" y="45" width="5" height="5"/>
    <rect x="159.77" y="20" width="5" height="5"/>
    <rect x="159.77" y="25" width="5" height="5"/>
    <rect x="139.77" y="60" width="5" height="5"/>
    <rect x="144.77" y="60" width="5" height="5"/>
    <rect x="139.77" y="65" width="5" height="5"/>
   </g>
   <rect x="134.77" y="55" width="15" height="15" stroke-width=".79375"/>
  </g>
  <g transform="translate(-25 -20)" fill="#ffd42a">
   <rect x="149.77" y="60" width="10" height="10" stroke-width=".52917"/>
   <rect x="149.77" y="65" width="5" height="5" stroke-width=".26458"/>
   <rect x="154.77" y="65" width="5" height="5" stroke-width=".26458"/>
  </g>
  <g transform="translate(-25 -20)" fill="#f55">
   <rect x="139.77" y="50" width="25" height="10" stroke-width=".83668"/>
   <g stroke-width=".26458">
    <rect x="144.77" y="50" width="5" height="5"/>
    <rect x="139.77" y="55" width="5" height="5"/>
    <rect x="144.77" y="55" width="5" height="5"/>
    <rect x="149.77" y="50" width="5" height="5"/>
    <rect x="154.77" y="50" width="5" height="5"/>
    <rect x="149.77" y="55" width="5" height="5"/>
    <rect x="154.77" y="55" width="5" height="5"/>
    <rect x="159.77" y="60" width="5" height="5"/>
    <rect x="159.77" y="65" width="5" height="5"/>
    <rect x="139.77" y="70" width="5" height="5"/>
    <rect x="144.77" y="70" width="5" height="5"/>
   </g>
  </g>
  <rect x="124.77" y="45" width="5" height="10" fill="#ffd42a" stroke-width=".37418"/>
  <g transform="translate(-25 -20)" fill="#f55">
   <rect x="154.77" y="70" width="10" height="5" stroke-width=".37418"/>
   <rect x="159.77" y="25" width="5" height="50" stroke-width=".83668"/>
   <rect x="159.77" y="50" width="5" height="5" stroke-width=".26458"/>
   <rect x="159.77" y="55" width="5" height="5" stroke-width=".26458"/>
  </g>
  <rect x="255" width="55" height="55" fill="#ffd42a" stroke-width="2.9104"/>
 </g>
 <g stroke="#808080" stroke-width="1.6">
  <path d="m60.284 27.5h14.659" fill="none" marker-end="url(#marker8345)"/>
  <path d="m145.06 27.5h15" fill="#999" marker-end="url(#TriangleOutM-9)"/>
  <path d="m230.17 27.5h15" fill="none" marker-end="url(#TriangleOutM-5)"/>
 </g>
 <g fill-rule="evenodd">
  <g transform="translate(-25 -20)" fill="#ffd42a">
   <rect x="194.89" y="20" width="25" height="15" stroke-width="1.0247"/>
   <g stroke-width=".26458">
    <rect x="204.89" y="55" width="5" height="5"/>
    <rect x="234.89" y="40" width="5" height="5"/>
    <rect x="239.89" y="60" width="5" height="5"/>
    <rect x="194.89" y="30" width="5" height="5"/>
   </g>
   <rect x="199.89" y="30" width="10" height="15" stroke-width=".64809"/>
  </g>
  <g stroke-width=".26458">
   <rect x="169.89" y="15" width="5" height="5" fill="#f55"/>
   <rect x="169.89" y="15" width="5" height="5" fill="#f55"/>
   <g transform="translate(-25 -20)" fill="#ffd42a">
    <rect x="204.89" y="30" width="5" height="5"/>
    <rect x="209.89" y="30" width="5" height="5"/>
    <rect x="204.89" y="35" width="5" height="5"/>
    <rect x="209.89" y="35" width="5" height="5"/>
    <rect x="199.89" y="20" width="5" height="5"/>
    <rect x="194.89" y="25" width="5" height="5"/>
    <rect x="199.89" y="25" width="5" height="5"/>
    <rect x="204.89" y="20" width="5" height="5"/>
    <rect x="209.89" y="20" width="5" height="5"/>
    <rect x="204.89" y="25" width="5" height="5"/>
    <rect x="209.89" y="25" width="5" height="5"/>
    <rect x="214.89" y="30" width="5" height="5"/>
   </g>
   <g transform="translate(-25 -20)" fill="#f55">
    <rect x="219.89" y="30" width="5" height="5"/>
    <rect x="214.89" y="35" width="5" height="5"/>
    <rect x="219.89" y="35" width="5" height="5"/>
    <rect x="194.89" y="40" width="5" height="5"/>
   </g>
  </g>
  <rect x="174.89" y="20" width="20" height="25" fill="#ffd42a" stroke-width="1.1832"/>
  <rect x="169.89" y="25" width="5" height="5" fill="#f55" stroke-width=".26458"/>
  <g transform="translate(-25 -20)" fill="#ffd42a">
   <rect x="199.89" y="45" width="5" height="5" stroke-width=".26458"/>
   <rect x="204.89" y="40" width="5" height="5" stroke-width=".26458"/>
   <rect x="204.89" y="30" width="10" height="15" stroke-width=".64809"/>
   <rect x="204.89" y="45" width="5" height="5" stroke-width=".26458"/>
   <rect x="209.89" y="45" width="5" height="5" stroke-width=".26458"/>
  </g>
  <rect x="189.89" y="15" width="10" height="10" fill="#f55" stroke-width=".52917"/>
  <rect x="194.89" y="20" width="5" height="5" fill="#f55" stroke-width=".26458"/>
  <rect x="189.89" y="25" width="5" height="5" fill="#ffd42a" stroke-width=".26458"/>
  <rect x="194.89" width="5" height="30" fill="#f55" stroke-width=".64809"/>
  <g transform="translate(-25 -20)" stroke-width=".26458">
   <rect x="214.89" y="20" width="5" height="5" fill="#ffd42a"/>
   <rect x="219.89" y="20" width="5" height="5" fill="#f55"/>
   <rect x="214.89" y="25" width="5" height="5" fill="#ffd42a"/>
   <rect x="219.89" y="25" width="5" height="5" fill="#f55"/>
  </g>
  <rect x="169.89" y="40" width="5" height="15" fill="#f55" stroke-width=".45827"/>
  <rect x="174.89" y="40" width="5" height="5" fill="#ffd42a" stroke-width=".26458"/>
  <rect x="169.89" y="45" width="5" height="5" fill="#f55" stroke-width=".26458"/>
  <rect x="169.89" y="45" width="10" height="10" fill="#f55" stroke-width=".52917"/>
  <g transform="translate(-25 -20)" fill="#ffd42a">
   <rect x="204.89" y="60" width="5" height="5" stroke-width=".26458"/>
   <rect x="209.89" y="60" width="5" height="5" stroke-width=".26458"/>
   <rect x="204.89" y="60" width="15" height="10" stroke-width=".64809"/>
   <rect x="209.89" y="65" width="5" height="5" stroke-width=".26458"/>
  </g>
  <rect x="169.89" y="15" width="5" height="20" fill="#f55" stroke-width=".52917"/>
  <g transform="translate(-25 -20)" fill="#ffd42a">
   <rect x="199.89" y="50" width="5" height="5" stroke-width=".26458"/>
   <rect x="194.89" y="55" width="10" height="5" stroke-width=".37418"/>
   <g stroke-width=".26458">
    <rect x="199.89" y="55" width="5" height="5"/>
    <rect x="204.89" y="50" width="5" height="5"/>
    <rect x="209.89" y="50" width="5" height="5"/>
    <rect x="209.89" y="55" width="5" height="5"/>
    <rect x="214.89" y="60" width="5" height="5"/>
    <rect x="219.89" y="60" width="5" height="5"/>
    <rect x="214.89" y="65" width="5" height="5"/>
   </g>
  </g>
  <g transform="translate(-25 -20)" fill="#f55">
   <rect x="219.89" y="65" width="10" height="10" stroke-width=".52917"/>
   <rect x="194.89" y="70" width="5" height="5" stroke-width=".26458"/>
   <rect x="199.89" y="70" width="5" height="5" stroke-width=".26458"/>
   <rect x="194.89" y="70" width="15" height="5" stroke-width=".45827"/>
  </g>
  <rect x="184.89" y="45" width="5" height="10" fill="#ffd42a" stroke-width=".37418"/>
  <rect x="189.89" y="50" width="5" height="5" fill="#f55" stroke-width=".26458"/>
  <rect x="194.89" y="50" width="5" height="5" fill="#f55" stroke-width=".26458"/>
  <g transform="translate(-25 -20)" fill="#ffd42a">
   <rect x="214.89" y="50" width="20" height="15" stroke-width=".91654"/>
   <g stroke-width=".26458">
    <rect x="219.89" y="50" width="5" height="5"/>
    <rect x="214.89" y="55" width="5" height="5"/>
    <rect x="219.89" y="55" width="5" height="5"/>
   </g>
   <rect x="224.89" y="30" width="20" height="35" stroke-width="1.4"/>
   <g stroke-width=".26458">
    <rect x="229.89" y="30" width="5" height="5"/>
    <rect x="224.89" y="35" width="5" height="5"/>
    <rect x="229.89" y="35" width="5" height="5"/>
    <rect x="234.89" y="30" width="5" height="5"/>
    <rect x="239.89" y="30" width="5" height="5"/>
    <rect x="234.89" y="35" width="5" height="5"/>
    <rect x="239.89" y="35" width="5" height="5"/>
   </g>
  </g>
  <rect x="194.89" width="10" height="10" fill="#f55" stroke-width=".52917"/>
  <rect x="204.89" width="10" height="15" fill="#ffd42a" stroke-width=".64809"/>
  <g transform="translate(-25 -20)" stroke-width=".26458">
   <rect x="224.89" y="25" width="5" height="5" fill="#f55"/>
   <rect x="229.89" y="25" width="5" height="5" fill="#ffd42a"/>
   <rect x="234.89" y="20" width="5" height="5" fill="#ffd42a"/>
  </g>
  <rect x="214.89" width="10" height="10" fill="#f55" stroke-width=".52917"/>
  <rect x="209.89" y="5" width="5" height="5" fill="#ffd42a" stroke-width=".26458"/>
  <g transform="translate(-25 -20)" fill="#f55">
   <rect x="239.89" y="25" width="5" height="5" stroke-width=".26458"/>
   <rect x="244.89" y="30" width="5" height="5" stroke-width=".26458"/>
   <rect x="244.89" y="20" width="5" height="15" stroke-width=".45827"/>
  </g>
  <g transform="translate(-25 -20)" fill="#ffd42a">
   <g stroke-width=".26458">
    <rect x="224.89" y="40" width="5" height="5"/>
    <rect x="229.89" y="40" width="5" height="5"/>
    <rect x="224.89" y="45" width="5" height="5"/>
    <rect x="229.89" y="45" width="5" height="5"/>
    <rect x="239.89" y="40" width="5" height="5"/>
    <rect x="234.89" y="45" width="5" height="5"/>
    <rect x="239.89" y="45" width="5" height="5"/>
   </g>
   <rect x="234.89" y="35" width="15" height="20" stroke-width=".91654"/>
   <rect x="244.89" y="45" width="5" height="5" stroke-width=".26458"/>
  </g>
  <g transform="translate(-25 -20)" stroke-width=".26458">
   <rect x="244.89" y="20" width="5" height="5" fill="#f55"/>
   <rect x="244.89" y="25" width="5" height="5" fill="#f55"/>
   <rect x="224.89" y="60" width="5" height="5" fill="#ffd42a"/>
   <rect x="229.89" y="60" width="5" height="5" fill="#ffd42a"/>
   <rect x="224.89" y="65" width="5" height="5" fill="#f55"/>
  </g>
  <g transform="translate(-25 -20)" fill="#ffd42a">
   <rect x="229.89" y="57.101" width="12.173" height="12.899" stroke-width=".66308"/>
   <g stroke-width=".26458">
    <rect x="234.89" y="60" width="5" height="5"/>
    <rect x="234.89" y="65" width="5" height="5"/>
    <rect x="239.89" y="65" width="5" height="5"/>
    <rect x="224.89" y="50" width="5" height="5"/>
    <rect x="229.89" y="50" width="5" height="5"/>
    <rect x="224.89" y="55" width="5" height="5"/>
    <rect x="229.89" y="55" width="5" height="5"/>
    <rect x="234.89" y="50" width="5" height="5"/>
    <rect x="239.89" y="50" width="5" height="5"/>
    <rect x="234.89" y="55" width="5" height="5"/>
    <rect x="239.89" y="55" width="5" height="5"/>
    <rect x="244.89" y="60" width="5" height="5"/>
    <rect x="244.89" y="65" width="5" height="5"/>
   </g>
  </g>
  <rect x="199.89" y="50" width="5" height="5" fill="#f55" stroke-width=".26458"/>
  <rect x="189.89" y="50" width="20" height="5" fill="#f55" stroke-width=".52917"/>
  <g transform="translate(-25 -20)" fill="#ffd42a">
   <rect x="234.89" y="70" width="5" height="5" stroke-width=".26458"/>
   <rect x="239.89" y="70" width="5" height="5" stroke-width=".26458"/>
   <rect x="234.89" y="50" width="15" height="25" stroke-width="1.0247"/>
   <rect x="244.89" y="50" width="5" height="5" stroke-width=".26458"/>
   <rect x="244.89" y="55" width="5" height="5" stroke-width=".26458"/>
  </g>
 </g>
</svg>
