<?xml version="1.0" encoding="UTF-8"?>
<svg width="1026.6" height="1477.2" clip-rule="evenodd" fill-rule="evenodd" stroke-linecap="round" stroke-linejoin="round" stroke-miterlimit="0" version="1.1" viewBox="0 0 1026.6 1477.2" xml:space="preserve" xmlns="http://www.w3.org/2000/svg"><defs><marker id="marker36732-3-3-2" overflow="visible" orient="auto"><path transform="scale(.4)" d="m5.77 0-8.65 5v-10z" fill="context-stroke" fill-rule="evenodd" stroke="context-stroke" stroke-width="1pt"/></marker></defs><g stroke-miterlimit="0">
    
    
    
    
    <g transform="matrix(-1.3004 0 0 -.643 410.57 1726.9)" stroke="#808080" stroke-width="16.533">
        <path d="m166.09 395.63c-27.151 0.161-47.981 30.631-45.41 118.23 0.682 23.237 1.231 43.136 0.674 59.812-1.542 46.194-11.568 67.663-50.75 66.869 0 0 52.151-9.075 52.868 59.992s-24.304 182.88 43.982 179.66" fill="none" stroke="#808080" stroke-miterlimit="0" stroke-width="14.466"/>
    </g>
    
    
    
<text x="354.21808" y="1372.905" fill="#808080" font-family="sans-serif" font-size="179.27px" stroke-width="13.445" style="font-variant-caps:normal;font-variant-east-asian:normal;font-variant-ligatures:normal;font-variant-numeric:normal;line-height:1.25;paint-order:stroke fill markers" xml:space="preserve"><tspan x="354.21808" y="1372.905" fill="#808080" stroke-miterlimit="0" stroke-width="13.445">+</tspan></text><path d="m530.49 1315.2c175.95 0 181.32-213.08 138.08-370.12-49.523-179.87-28.974-370.12 138.08-370.12" clip-rule="evenodd" fill="none" marker-end="url(#marker36732-3-3-2)" stroke="#808080" stroke-linecap="butt" stroke-linejoin="round" stroke-width="14.362"/></g><text x="-144.36926" y="1348.0656" fill="#000000" font-family="sans-serif" font-size="40px" style="line-height:1.25" xml:space="preserve"><tspan x="-144.36926" y="1348.0656" fill="#1e1e1e" font-family="sans-serif" font-size="53.333px" style="font-variant-caps:normal;font-variant-east-asian:normal;font-variant-ligatures:normal;font-variant-numeric:normal"/></text><text transform="translate(-682.74 -76.733)" fill="#000000" font-family="sans-serif" font-size="40px" style="line-height:1.25;shape-inside:url(#rect95981);white-space:pre" xml:space="preserve"/><g transform="translate(-682.74 -76.733)" clip-rule="evenodd" fill-rule="evenodd" stroke-linecap="round" stroke-linejoin="round" stroke-miterlimit="0"><rect x="1571.4" y="80.007" width="137.9" height="137.9" fill="#ff5757" stroke-width="1.1956"/><g transform="matrix(1.1956 0 0 1.1956 729.07 -168.99)"><text x="729.93701" y="296.96701" fill="#ffffff" font-family="ArialMT, Arial, sans-serif" font-size="94.011px">R</text></g><rect x="1571.4" y="410.87" width="137.9" height="137.9" fill="#5757ff" stroke-width="1.1956"/><g transform="matrix(1.1956 0 0 1.1956 729.07 166.5)"><text x="729.93701" y="296.96701" fill="#ffffff" font-family="ArialMT, Arial, sans-serif" font-size="94.011px">B</text></g><rect x="1571.4" y="245.44" width="137.9" height="137.9" fill="#55d400" stroke-width="1.1956"/><g transform="matrix(1.1956 0 0 1.1956 721.57 -1.3411)"><text x="729.93701" y="296.96701" fill="#ffffff" font-family="sans-serif" font-size="94.011px" style="font-variant-caps:normal;font-variant-east-asian:normal;font-variant-ligatures:normal;font-variant-numeric:normal">G</text></g><rect x="1571.4" y="1403.5" width="137.9" height="137.9" fill="#e6e6e6" stroke-width="1.1956"/><rect x="1571.4" y="576.31" width="137.9" height="137.9" fill="#808080" stroke-width="1.1956"/><text x="1597.8157" y="687.72906" fill="#ffffff" font-family="ArialMT, Arial, sans-serif" font-size="143.92px" stroke-width="3.7874">α</text><g fill="#e6e6e6"><rect x="1571.4" y="741.74" width="137.9" height="137.9" stroke-width="1.1956"/><rect x="1571.4" y="907.17" width="137.9" height="137.9" stroke-width="1.1956"/><g transform="matrix(1.1952 0 0 1.1952 951.54 -54.607)"><circle cx="576.32" cy="989.96" r="26.124" stroke-width="1.0003"/><g transform="matrix(1.0003 0 0 1.0003 -194 4.4792)"><circle cx="770.07" cy="1064" r="26.116" fill="#e6e6e6"/></g><g transform="matrix(1.0003 0 0 1.0003 -194 83.311)"><circle cx="770.07" cy="1064" r="26.116" fill="#e6e6e6"/></g></g></g></g><g transform="translate(-682.74 -76.733)" clip-rule="evenodd" fill-rule="evenodd" stroke-linecap="round" stroke-linejoin="round" stroke-miterlimit="0"><g transform="matrix(1.1992 0 0 1.1992 -946.44 -58.328)"><rect x="1358.6" y="112.63" width="115.37" height="115.37" fill="#ff5757" stroke-width="1.0003"/><g transform="matrix(1.0003 0 0 1.0003 653.81 -95.699)"><text x="729.93701" y="296.96701" fill="#ffffff" font-family="ArialMT, Arial, sans-serif" font-size="94.011px">R</text></g></g><g transform="matrix(1.1992 0 0 1.1992 -946.44 -58.327)"><rect x="1358.6" y="389.45" width="115.37" height="115.37" fill="#5757ff" stroke-width="1.0003"/><g transform="matrix(1.0003 0 0 1.0003 653.81 184.99)"><text x="729.93701" y="296.96701" fill="#ffffff" font-family="ArialMT, Arial, sans-serif" font-size="94.011px">B</text></g></g><g transform="matrix(1.1992 0 0 1.1992 -946.44 -58.328)"><rect x="1358.6" y="251.04" width="115.37" height="115.37" fill="#55d400" stroke-width="1.0003"/><g transform="matrix(1.0003 0 0 1.0003 647.53 44.566)"><text x="729.93701" y="296.96701" fill="#ffffff" font-family="sans-serif" font-size="94.011px" style="font-variant-caps:normal;font-variant-east-asian:normal;font-variant-ligatures:normal;font-variant-numeric:normal">G</text></g></g><rect x="682.74" y="1404.6" width="138.36" height="138.36" fill="#808080" stroke-width="13.224"/><g fill="#e6e6e6"><rect x="682.74" y="574.68" width="138.36" height="138.36" stroke-width="13.224"/><rect x="682.74" y="1072.6" width="138.36" height="138.36" stroke-width="13.224"/><g transform="matrix(1.1992 0 0 1.1992 -946.44 -67.162)" stroke-width="11.027"><circle cx="1416.3" cy="721.71" r="26.124"/><circle cx="1416.3" cy="800.54" r="26.124"/><circle cx="1416.3" cy="879.37" r="26.124"/></g></g><rect x="682.74" y="1238.6" width="138.36" height="138.36" fill="#808080" stroke-width="13.224"/><g fill="#ffffff" font-family="ArialMT, Arial, sans-serif"><text x="693.87585" y="1344.3638" font-size="146.61px" stroke-width=".56" style="font-variant-caps:normal;font-variant-east-asian:normal;font-variant-ligatures:normal;font-variant-numeric:normal"><tspan x="693.87585" y="1344.3638" stroke-width=".56">α</tspan></text><text x="774.32324" y="1362.1036" font-size="72.501px" stroke-width=".99964" style="font-variant-caps:normal;font-variant-east-asian:normal;font-variant-ligatures:normal;font-variant-numeric:normal;line-height:1.25" xml:space="preserve"><tspan x="774.32324" y="1362.1036" fill="#ffffff" font-family="ArialMT, Arial, sans-serif" font-size="72.501px" stroke-width=".99964" style="font-variant-caps:normal;font-variant-east-asian:normal;font-variant-ligatures:normal;font-variant-numeric:normal">1</tspan></text><text x="693.91852" y="1510.3463" font-size="146.61px" stroke-width=".56" style="font-variant-caps:normal;font-variant-east-asian:normal;font-variant-ligatures:normal;font-variant-numeric:normal"><tspan x="693.91852" y="1510.3463" stroke-width=".56">α</tspan></text><text x="774.36597" y="1528.0863" font-size="72.501px" stroke-width=".99964" style="font-variant-caps:normal;font-variant-east-asian:normal;font-variant-ligatures:normal;font-variant-numeric:normal;line-height:1.25" xml:space="preserve"><tspan x="774.36597" y="1528.0863" font-family="ArialMT, Arial, sans-serif" font-size="72.501px" stroke-width=".99964" style="font-variant-caps:normal;font-variant-east-asian:normal;font-variant-ligatures:normal;font-variant-numeric:normal">2</tspan></text></g></g></svg>
