<?xml version="1.0" encoding="UTF-8"?>
<svg width="986.58" height="1480.1" clip-rule="evenodd" fill-rule="evenodd" stroke-linecap="round" stroke-linejoin="round" stroke-miterlimit="0" version="1.1" viewBox="0 0 986.58 1480.1" xml:space="preserve" xmlns="http://www.w3.org/2000/svg">
    
    
    
    
    <path d="m184.02 1472.5c35.307-0.1035 62.394-19.696 59.051-76.024-0.88687-14.942-1.6008-27.737-0.87647-38.459 2.0052-29.703 15.043-43.508 65.995-42.997 0 0-67.817 5.8353-68.749-38.575-0.93238-44.41 31.605-117.59-57.194-115.52" fill="none" stroke="#808080" stroke-miterlimit="0" stroke-width="15.118"/><g font-family="sans-serif">
    
    
    
<text x="333.07379" y="1372.905" fill="#4d4d4d" font-size="179.27px" stroke-miterlimit="0" stroke-width="13.445" style="font-variant-caps:normal;font-variant-east-asian:normal;font-variant-ligatures:normal;font-variant-numeric:normal;line-height:1.25;paint-order:stroke fill markers" xml:space="preserve"><tspan x="333.07379" y="1372.905" fill="#4d4d4d" stroke-miterlimit="0" stroke-width="13.445">+</tspan></text><text x="-144.36926" y="1348.0656" fill="#000000" font-size="40px" style="line-height:1.25" xml:space="preserve"><tspan x="-144.36926" y="1348.0656" fill="#1e1e1e" font-family="sans-serif" font-size="53.333px" style="font-variant-caps:normal;font-variant-east-asian:normal;font-variant-ligatures:normal;font-variant-numeric:normal"/></text><text transform="translate(-682.74 -76.733)" fill="#000000" font-size="40px" style="line-height:1.25;shape-inside:url(#rect95981);white-space:pre" xml:space="preserve"/></g><g transform="translate(-722.74 -76.733)" clip-rule="evenodd" fill-rule="evenodd" stroke-linecap="round" stroke-linejoin="round" stroke-miterlimit="0"><rect x="1571.4" y="80.007" width="137.9" height="137.9" fill="#ff5757" stroke-width="1.1956"/><text x="1601.7804" y="186.06435" fill="#ffffff" font-family="ArialMT, Arial, sans-serif" font-size="112.4px" stroke-width="1.1956">R</text><rect x="1571.4" y="410.87" width="137.9" height="137.9" fill="#5757ff" stroke-width="1.1956"/><text x="1601.7804" y="521.5495" fill="#ffffff" font-family="ArialMT, Arial, sans-serif" font-size="112.4px" stroke-width="1.1956">B</text><rect x="1571.4" y="245.44" width="137.9" height="137.9" fill="#55d400" stroke-width="1.1956"/><text x="1594.2743" y="353.71109" fill="#ffffff" font-family="sans-serif" font-size="112.4px" stroke-width="1.1956" style="font-variant-caps:normal;font-variant-east-asian:normal;font-variant-ligatures:normal;font-variant-numeric:normal">G</text><rect x="1571.4" y="1403.5" width="137.9" height="137.9" fill="#e6e6e6" stroke-width="1.1956"/><rect x="1571.4" y="576.31" width="137.9" height="137.9" fill="#666" stroke-width="1.1956"/><text x="1597.8156" y="687.72906" fill="#ffffff" font-family="ArialMT, Arial, sans-serif" font-size="143.92px" stroke-width="3.7874">α</text><g fill="#e6e6e6"><g stroke-width="1.1956"><rect x="1571.4" y="741.74" width="137.9" height="137.9"/><rect x="1571.4" y="907.17" width="137.9" height="137.9"/><circle cx="1640.4" cy="1128.6" r="31.224"/></g><circle cx="1640.4" cy="1222.8" r="31.224" stroke-width="1.1956"/><circle cx="1640.4" cy="1317.1" r="31.224" stroke-width="1.1956"/></g></g><g transform="translate(-682.74 -76.733)" clip-rule="evenodd" fill-rule="evenodd" stroke-linecap="round" stroke-linejoin="round" stroke-miterlimit="0"><g stroke-width="1.1996"><rect x="682.74" y="76.733" width="138.36" height="138.36" fill="#ff5757"/><text x="713.20068" y="183.14262" fill="#ffffff" font-family="ArialMT, Arial, sans-serif" font-size="112.77px">R</text><rect x="682.74" y="408.7" width="138.36" height="138.36" fill="#5757ff"/><text x="713.20068" y="519.74243" fill="#ffffff" font-family="ArialMT, Arial, sans-serif" font-size="112.77px">B</text><rect x="682.74" y="242.72" width="138.36" height="138.36" fill="#55d400"/><text x="705.66962" y="351.34595" fill="#ffffff" font-family="sans-serif" font-size="112.77px" style="font-variant-caps:normal;font-variant-east-asian:normal;font-variant-ligatures:normal;font-variant-numeric:normal">G</text></g><rect x="682.74" y="1404.6" width="138.36" height="138.36" fill="#666" stroke-width="13.224"/><g fill="#e6e6e6" stroke-width="13.224"><rect x="682.74" y="574.68" width="138.36" height="138.36"/><rect x="682.74" y="1072.6" width="138.36" height="138.36"/><circle cx="751.92" cy="798.3" r="31.328"/><circle cx="751.92" cy="892.83" r="31.328"/><circle cx="751.92" cy="987.37" r="31.328"/></g><rect x="682.74" y="1238.6" width="138.36" height="138.36" fill="#666" stroke-width="13.224"/><g fill="#ffffff" font-family="ArialMT, Arial, sans-serif"><text x="693.87585" y="1344.3638" font-size="146.61px" stroke-width=".56" style="font-variant-caps:normal;font-variant-east-asian:normal;font-variant-ligatures:normal;font-variant-numeric:normal"><tspan x="693.87585" y="1344.3638" stroke-width=".56">α</tspan></text><text x="774.32324" y="1362.1036" font-size="72.501px" stroke-width=".99964" style="font-variant-caps:normal;font-variant-east-asian:normal;font-variant-ligatures:normal;font-variant-numeric:normal;line-height:1.25" xml:space="preserve"><tspan x="774.32324" y="1362.1036" fill="#ffffff" font-family="ArialMT, Arial, sans-serif" font-size="72.501px" stroke-width=".99964" style="font-variant-caps:normal;font-variant-east-asian:normal;font-variant-ligatures:normal;font-variant-numeric:normal">1</tspan></text><text x="693.91852" y="1510.3463" font-size="146.61px" stroke-width=".56" style="font-variant-caps:normal;font-variant-east-asian:normal;font-variant-ligatures:normal;font-variant-numeric:normal"><tspan x="693.91852" y="1510.3463" stroke-width=".56">α</tspan></text><text x="774.36597" y="1528.0863" font-size="72.501px" stroke-width=".99964" style="font-variant-caps:normal;font-variant-east-asian:normal;font-variant-ligatures:normal;font-variant-numeric:normal;line-height:1.25" xml:space="preserve"><tspan x="774.36597" y="1528.0863" font-family="ArialMT, Arial, sans-serif" font-size="72.501px" stroke-width=".99964" style="font-variant-caps:normal;font-variant-east-asian:normal;font-variant-ligatures:normal;font-variant-numeric:normal">2</tspan></text></g></g><g transform="translate(-682.74 -76.733)"><path d="m1456.2 646.12c-36.034 0-63.978 18.627-84.012 46.768-20.034 28.141-33.036 65.759-41.834 106.25-17.597 80.989-18.115 173.84-18.115 224.36 0 48.744-0.6008 140.8-17.668 219.92-8.5336 39.559-21.25 75.794-39.379 101.49-18.129 25.694-40.774 40.859-71.795 40.859v15.119c36.129 0 64.109-18.863 84.146-47.262 20.037-28.399 33.027-66.32 41.807-107.02 17.559-81.396 18.008-174.25 18.008-223.11 0-50.402 0.6718-142.46 17.77-221.15 8.5488-39.346 21.269-75.261 39.375-100.69s40.718-40.418 71.697-40.418z" clip-rule="nonzero" color="#000000" fill="#808080" fill-rule="nonzero" stroke-linecap="butt" stroke-linejoin="miter" style="-inkscape-stroke:none"/><g clip-rule="nonzero" fill="#808080" stroke-linecap="butt" stroke-linejoin="miter"><path d="m1491.1 653.68-52.309 30.236v-60.472z" color="#000000" stroke-width="6.0472pt" style="-inkscape-stroke:none"/><path d="m1436.7 619.96a4.0319 4.0319 0 0 0-2.0176 3.4922v60.471a4.0319 4.0319 0 0 0 6.0488 3.4922l52.309-30.236a4.0319 4.0319 0 0 0 0-6.9824l-52.309-30.234a4.0319 4.0319 0 0 0-4.0312-2e-3zm6.0449 10.479 40.221 23.25-40.221 23.248z" color="#000000" style="-inkscape-stroke:none"/></g></g></svg>
