<?xml version="1.0" encoding="UTF-8"?>
<!-- Created with Inkscape (http://www.inkscape.org/) -->
<svg width="252.976mm" height="325.373mm" version="1.1" viewBox="0 0 252.976 325.373" xmlns="http://www.w3.org/2000/svg">
 <g transform="translate(-1312.22 -185.704)">
  <g clip-rule="evenodd" fill-rule="evenodd">
   <text x="58.509254" y="514.69031" fill="#000000" font-family="sans-serif" font-size="10.5833px" stroke-linecap="round" stroke-linejoin="round" stroke-miterlimit="0" stroke-width=".264583" style="line-height:1.25" xml:space="preserve"><tspan x="58.509254" y="514.69031" fill="#1e1e1e" font-family="sans-serif" font-size="14.1111px" stroke-width=".264583" style="font-variant-caps:normal;font-variant-east-asian:normal;font-variant-ligatures:normal;font-variant-numeric:normal"/></text>
   <text transform="matrix(.264583 0 0 .264583 -83.934 137.712)" fill="#000000" font-family="sans-serif" font-size="40px" style="line-height:1.25;shape-inside:url(#rect95981);white-space:pre" xml:space="preserve"/>
   <g stroke-linecap="round" stroke-linejoin="round" stroke-miterlimit="0">
    <g transform="matrix(.264765 0 0 .264765 1153.29 133.115)">
     <g transform="translate(-97.0267,-142.611)">
      <rect x="697.314" y="341.234" width="115.338" height="115.338" fill="#ff4f4f"/>
      <g transform="translate(-7.22778,132.974)">
       <text x="729.93701" y="296.96701" fill="#ffffff" font-family="ArialMT, Arial, sans-serif" font-size="94.011px">R</text>
      </g>
     </g>
     <g transform="translate(-97.0267,134.127)">
      <rect x="697.314" y="341.234" width="115.338" height="115.338" fill="#5c5cf6"/>
      <g transform="translate(-7.22778,136.837)">
       <text x="729.93701" y="296.96701" fill="#ffffff" font-family="ArialMT, Arial, sans-serif" font-size="94.011px">B</text>
      </g>
     </g>
     <g transform="translate(-97.0267,-4.24165)">
      <rect x="697.314" y="341.234" width="115.338" height="115.338" fill="#58d038"/>
      <g transform="translate(-13.5059,134.825)">
       <text x="729.93701" y="296.96701" fill="#ffffff" font-family="ArialMT, Arial, sans-serif" font-size="94.011px">G</text>
      </g>
     </g>
     <g transform="translate(-95.8051,964.342)">
      <rect x="697.314" y="341.234" width="115.338" height="115.338" fill="#ebebeb"/>
     </g>
     <g transform="translate(-97.0267,272.496)">
      <rect x="697.314" y="341.234" width="115.338" height="115.338" fill="#646464"/>
     </g>
     <g transform="matrix(3.16781,0,0,3.16781,-1697.96,-1562.97)">
      <text x="732.88501" y="716.54999" fill="#ffffff" font-family="ArialMT, Arial, sans-serif" font-size="38px">α</text>
     </g>
     <g transform="translate(-97.0267,410.865)">
      <rect x="697.314" y="341.234" width="115.338" height="115.338" fill="#ebebeb"/>
     </g>
     <g transform="translate(-97.0267,549.235)">
      <rect x="697.314" y="341.234" width="115.338" height="115.338" fill="#ebebeb"/>
     </g>
     <g transform="translate(-110.14,11.7025)">
      <circle cx="770.071" cy="1063.98" r="26.116" fill="#ebebeb"/>
      <g transform="translate(0,78.8069)">
       <circle cx="770.071" cy="1063.98" r="26.116" fill="#ebebeb"/>
      </g>
      <g transform="translate(0,157.614)">
       <circle cx="770.071" cy="1063.98" r="26.116" fill="#ebebeb"/>
      </g>
     </g>
    </g>
    <g transform="matrix(.294472 0 0 .294472 284.555 74.019)">
     <text x="1637.49" y="714.13098" fill="#ffffff" font-family="ArialMT, Arial, sans-serif" font-size="22.644px"/>
    </g>
    <text x="662.9577" y="417.82663" fill="#000000" font-family="sans-serif" font-size="10.5833px" stroke-width=".264583" style="line-height:1.25" xml:space="preserve"><tspan x="662.9577" y="417.82663" fill="#1e1e1e" font-family="sans-serif" font-size="14.1111px" stroke-width=".264583" style="font-variant-caps:normal;font-variant-east-asian:normal;font-variant-ligatures:normal;font-variant-numeric:normal"/></text>
   </g>
   <text transform="matrix(.264583 0 0 .264583 520.514 40.8487)" fill="#000000" font-family="sans-serif" font-size="40px" style="line-height:1.25;shape-inside:url(#rect95981-2);white-space:pre" xml:space="preserve"/>
   <g transform="matrix(.294472 0 0 .294472 321.597 248.644)" stroke-linecap="round" stroke-linejoin="round" stroke-miterlimit="0">
    <text x="1637.49" y="714.13098" fill="#ffffff" font-family="ArialMT, Arial, sans-serif" font-size="22.644px"/>
   </g>
  </g>
  <text transform="scale(.264583)" fill="#000000" font-family="sans-serif" font-size="40px" style="line-height:1.25;shape-inside:url(#rect78235);white-space:pre" xml:space="preserve"/>
  <g clip-rule="evenodd" stroke-linecap="round" stroke-linejoin="round" stroke-miterlimit="0">
   <path d="m1521.29 295.016c-5.344 0.0476-9.4438 9.05965-8.9378 34.9694 0.1343 6.87274 0.2423 12.7582 0.1327 17.6904-0.3035 13.6627-2.2768 20.0125-9.9887 19.7776 0 0 10.2645-2.68409 10.4056 17.7437s-4.7836 54.0899 8.6566 53.1384" fill="none" stroke="#808080" stroke-width="4.5"/>
   <path d="m1357.68 508.827c5.344-0.0582 9.4438-11.0744 8.9378-42.7463-0.1343-8.40116-0.2423-15.5955-0.1327-21.6246 0.3035-16.7011 2.2768-24.463 9.9887-24.176 0 0-10.2645 3.281-10.4056-21.6897s4.7836-66.1189-8.6566-64.9558" fill="none" stroke="#808080" stroke-width="4.5"/>
   <g fill-rule="evenodd">
    <text x="1389.4211" y="331.27573" fill="#666666" font-family="ArialMT, Arial, sans-serif" font-size="22.2924px"><tspan x="1389.4211" y="331.27573" fill="#666666" stroke-miterlimit="0">12 hidden</tspan></text>
    <text x="1394.2106" y="354.29703" fill="#666666" font-family="ArialMT, Arial, sans-serif" font-size="22.2924px">channels</text>
    <path d="m1389.34 396.736 1.13 5.88642-10.7946-7.31701 7.3175-10.7959 1.1301 5.88706 35.7237-6.8578 1.217 6.33943z" fill="#808080" stroke-width=".4"/>
    <path d="m1490.9 390.671 1.1576-5.88107 7.2671 10.8282-10.829 7.26827 1.1577-5.88171-35.6912-7.02513 1.2467-6.33365z" fill="#808080" stroke-width=".4"/>
   </g>
  </g>
  <g transform="matrix(.827275 0 0 .827275 611.5 63.4723)">
   <g transform="matrix(.3175 0 0 .3175 925.219 87.7983)" clip-rule="evenodd" fill-rule="evenodd" stroke-linecap="round" stroke-linejoin="round" stroke-miterlimit="0" stroke-width="11.0236">
    <g transform="translate(-97.0267,-142.611)">
     <rect x="697.314" y="341.234" width="115.338" height="115.338" fill="#ff4f4f"/>
     <g transform="translate(-7.22778,132.974)">
      <text x="729.93701" y="296.96701" fill="#ffffff" font-family="ArialMT, Arial, sans-serif" font-size="94.011px" stroke-miterlimit="0" stroke-width="11.0236">R</text>
     </g>
    </g>
    <g transform="translate(-97.0267,134.127)">
     <rect x="697.314" y="341.234" width="115.338" height="115.338" fill="#5c5cf6"/>
     <g transform="translate(-7.22778,136.837)">
      <text x="729.93701" y="296.96701" fill="#ffffff" font-family="ArialMT, Arial, sans-serif" font-size="94.011px" stroke-miterlimit="0" stroke-width="11.0236">B</text>
     </g>
    </g>
    <g transform="translate(-97.0267,-4.24165)">
     <rect x="697.314" y="341.234" width="115.338" height="115.338" fill="#58d038"/>
     <g transform="translate(-13.5059,134.825)">
      <text x="729.93701" y="296.96701" fill="#ffffff" font-family="ArialMT, Arial, sans-serif" font-size="94.011px" stroke-miterlimit="0" stroke-width="11.0236">G</text>
     </g>
    </g>
   </g>
   <g transform="matrix(.3175 0 0 .3175 894.801 393.977)" clip-rule="evenodd" fill-rule="evenodd" stroke-linecap="round" stroke-linejoin="round" stroke-miterlimit="0" stroke-width="11.0236">
    <rect x="697.314" y="341.234" width="115.338" height="115.338" fill="#646464" stroke-miterlimit="0" stroke-width="11.0236"/>
   </g>
   <g transform="translate(1.05258 45.1775)">
    <g transform="matrix(.148219 0 0 .148219 1016.45 441.206)" clip-rule="evenodd" fill-rule="evenodd" stroke-linecap="round" stroke-linejoin="round" stroke-miterlimit="0">
     <text x="694.40845" y="296.35446" fill="#ffffff" font-family="ArialMT, Arial, sans-serif" font-size="261.813px" style="font-variant-caps:normal;font-variant-east-asian:normal;font-variant-ligatures:normal;font-variant-numeric:normal"><tspan x="694.40845" y="296.35446">α</tspan></text>
    </g>
    <text x="1141.9467" y="489.82675" fill="#ffffff" font-family="ArialMT, Arial, sans-serif" font-size="14.1111px" stroke-width=".264583" style="font-variant-caps:normal;font-variant-east-asian:normal;font-variant-ligatures:normal;font-variant-numeric:normal;line-height:1.25" xml:space="preserve"><tspan x="1141.9467" y="489.82675">2</tspan></text>
   </g>
   <g clip-rule="evenodd" fill-rule="evenodd" stroke-linecap="round" stroke-linejoin="round" stroke-miterlimit="0" stroke-width="11.0236">
    <g transform="matrix(.3175 0 0 .3175 894.414 174.316)">
     <rect x="697.314" y="341.234" width="115.338" height="115.338" fill="#ebebeb" stroke-miterlimit="0" stroke-width="11.0236"/>
    </g>
    <g transform="matrix(.3175 0 0 .3175 894.414 306.113)">
     <rect x="697.314" y="341.234" width="115.338" height="115.338" fill="#ebebeb" stroke-miterlimit="0" stroke-width="11.0236"/>
    </g>
    <g transform="matrix(.3175 0 0 .3175 894.414 350.045)">
     <rect x="697.314" y="341.234" width="115.338" height="115.338" fill="#646464" stroke-miterlimit="0" stroke-width="11.0236"/>
    </g>
    <g transform="matrix(.3175 0 0 .3175 889.817 6.36945)">
     <circle cx="770.071" cy="1063.98" r="26.116" fill="#ebebeb"/>
     <g transform="translate(0,78.8069)">
      <circle cx="770.071" cy="1063.98" r="26.116" fill="#ebebeb" stroke-miterlimit="0" stroke-width="11.0236"/>
     </g>
     <g transform="translate(0,157.614)">
      <circle cx="770.071" cy="1063.98" r="26.116" fill="#ebebeb" stroke-miterlimit="0" stroke-width="11.0236"/>
     </g>
    </g>
   </g>
   <g transform="translate(.654373 1.24531)">
    <g transform="matrix(.148219 0 0 .148219 1016.45 441.206)" clip-rule="evenodd" fill-rule="evenodd" stroke-linecap="round" stroke-linejoin="round" stroke-miterlimit="0">
     <text x="694.40845" y="296.35446" fill="#ffffff" font-family="ArialMT, Arial, sans-serif" font-size="261.813px" style="font-variant-caps:normal;font-variant-east-asian:normal;font-variant-ligatures:normal;font-variant-numeric:normal"><tspan x="694.40845" y="296.35446">α</tspan></text>
    </g>
    <text x="1141.9467" y="489.82675" fill="#ffffff" font-family="ArialMT, Arial, sans-serif" font-size="14.1111px" stroke-width=".264583" style="font-variant-caps:normal;font-variant-east-asian:normal;font-variant-ligatures:normal;font-variant-numeric:normal;line-height:1.25" xml:space="preserve"><tspan x="1141.9467" y="489.82675" fill="#ffffff" font-family="ArialMT, Arial, sans-serif" font-size="14.1111px" stroke-width=".264583" style="font-variant-caps:normal;font-variant-east-asian:normal;font-variant-ligatures:normal;font-variant-numeric:normal">1</tspan></text>
   </g>
  </g>
 </g>
</svg>
