<?xml version="1.0" encoding="UTF-8"?>
<!-- Created with Inkscape (http://www.inkscape.org/) -->
<svg width="263.75mm" height="121.35mm" version="1.1" viewBox="0 0 263.75 121.35" xmlns="http://www.w3.org/2000/svg" xmlns:xlink="http://www.w3.org/1999/xlink">
 <defs>
  <linearGradient id="linear-gradient" x1="205.45" x2="218.79" y1="617.74" y2="599.78" gradientTransform="rotate(14.573 2375.9 -345.55)" gradientUnits="userSpaceOnUse">
   <stop stop-color="#13630f" offset="0"/>
   <stop stop-color="#2a7915" offset=".1391"/>
   <stop stop-color="#59a623" offset=".457"/>
   <stop stop-color="#6bb828" offset=".6158"/>
  </linearGradient>
  <linearGradient id="linear-gradient-2" x1="32.084" x2="16.132" y1="772.52" y2="793.38" gradientTransform="translate(-4.18 -717.55)" xlink:href="#linear-gradient"/>
  <linearGradient id="linear-gradient-3" x1="73.64" x2="102.73" y1="770.65" y2="770.65" gradientTransform="translate(-4.18 -717.55)" xlink:href="#linear-gradient"/>
  <linearGradient id="linear-gradient-4" x1="66.255" x2="53.119" y1="795.19" y2="821.73" gradientTransform="translate(-4.18 -717.55)" gradientUnits="userSpaceOnUse">
   <stop stop-color="#134e0f" offset="0"/>
   <stop stop-color="#357719" offset=".2097"/>
   <stop stop-color="#5ca624" offset=".4804"/>
   <stop stop-color="#6bb828" offset=".6158"/>
  </linearGradient>
  <linearGradient id="linear-gradient-5" x1="9.8108" x2="109.67" y1="715.42" y2="845.35" gradientTransform="translate(-4.18 -717.55)" gradientUnits="userSpaceOnUse">
   <stop stop-color="#4aba00" offset=".2397"/>
   <stop stop-color="#49b802" offset=".2683"/>
   <stop stop-color="#2e7d32" offset="1"/>
  </linearGradient>
  <linearGradient id="linear-gradient-6" x1="25.16" x2="94.433" y1="747.27" y2="820.74" gradientTransform="translate(-4.18 -717.55)" gradientUnits="userSpaceOnUse">
   <stop stop-color="#c5e1a5" offset=".0169"/>
   <stop stop-color="#c1dea1" offset=".1983"/>
   <stop stop-color="#b6d595" offset=".3788"/>
   <stop stop-color="#a3c781" offset=".5591"/>
   <stop stop-color="#88b265" offset=".7392"/>
   <stop stop-color="#669841" offset=".9176"/>
   <stop stop-color="#558b2f" offset=".9969"/>
  </linearGradient>
  <linearGradient id="linearGradient3233" x1="205.45" x2="218.79" y1="617.74" y2="599.78" gradientTransform="rotate(14.573 2375.9 -345.55)" gradientUnits="userSpaceOnUse" xlink:href="#linear-gradient"/>
 </defs>
 <g transform="translate(-75.906 -79.156)">
  <g transform="matrix(1.002 0 0 1.002 219.66 79.148)">
   <path transform="translate(0 -.00187)" d="m117.26 105.12a7.3407 7.3407 0 0 0-2.24-2.97 7.0762 7.0762 0 0 0-2.97-1.4 7.3622 7.3622 0 0 0-2.76-0.04 7.7347 7.7347 0 0 0-2 0.63 7.6412 7.6412 0 0 0-1.16 0.69c-0.25 0.19-0.38 0.29-0.38 0.29a0.3916 0.3916 0 0 0-0.08 0.53 0.39908 0.39908 0 0 0 0.55537 0.10064l0.0146-0.0106s0.12-0.08 0.35-0.24a7.1756 7.1756 0 0 1 1.06-0.54 6.8804 6.8804 0 0 1 1.78-0.45 6.2255 6.2255 0 0 1 2.32 0.17 5.7483 5.7483 0 0 1 2.39 1.3 5.8594 5.8594 0 0 1 1.65 2.48 5.6782 5.6782 0 0 1 0.11 3.12 8.7696 8.7696 0 0 1-1.38 3.06 10.54 10.54 0 0 1-10.76 4.34c-0.19-0.04-0.38-0.1-0.57-0.15a20.972 20.972 0 0 1-3.32-2.07c-3.44-2.68-5.07-7.05-6.01-11.3-1.05-4.76-2.01-9.35-3.47-14.01-0.85-2.71-1.79-5.4-2.86-8.04-0.87-2.15-1.85-4.32-2.91-6.47a76.27 76.27 0 0 0-4.49-7.97c-0.35-0.54-0.73-1.07-1.1-1.6a33.32 33.32 0 0 0-0.48-5.63c-0.81-4.68 0.1-5.41 2.56-5.71 2.18-0.26 8.91 2.02 10.97 0.2 1.57-1.38 1.53-2.42 1.62-4.38 0.13-2.69 2.72-3.41 4.07-3.7a1.2914 1.2914 0 0 0 0.8 0.49 1.256 1.256 0 1 0-1.04-1.44 1.3422 1.3422 0 0 0 0.01 0.2 3.3229 3.3229 0 0 1-2.61-0.98c-0.44-0.68 1.85-3.5 3.08-4.98a1.4624 1.4624 0 0 0 0.51 0.22 1.256 1.256 0 1 0-1.04-1.44 1.2414 1.2414 0 0 0 0.07 0.61c-1.14 1.13-3.37 3.31-3.98 3.18-0.73-0.16-0.22-4.84 0.05-7.04a1.239 1.239 0 0 0 0.95-1.02 1.256 1.256 0 1 0-2.48-0.4 1.2416 1.2416 0 0 0 0.73 1.32c-0.49 2.21-1.44 6.9-1.99 7.03-0.59 0.15-1.42-3.36-1.93-5.59a1.2303 1.2303 0 0 0 0.55-0.84 1.256 1.256 0 1 0-1.44 1.04h0.05c0.3 2.11 0.63 5.44 0.32 6-0.37 0.66-2.04 0.55-3.19 0.37a1.2538 1.2538 0 1 0-1.44 1.07 1.2225 1.2225 0 0 0 1.04-0.34c1.69 0.74 3.55 1.61 3.99 3.07a2.1831 2.1831 0 0 1-1.32 2.74s-9.33-0.36-12.43 0.53c-2.11 0.6-2.12 4.87-1.96 8.21-0.5-0.5-0.99-1.02-1.51-1.49a43.44 43.44 0 0 0-4.06-3.25 41.036 41.036 0 0 0-9.93-5.24 31.977 31.977 0 0 0-6.39-1.6c-0.89-0.13-1.8-0.27-2.72-0.43a10.838 10.838 0 0 0 1.08-5.35c-0.09-3.7-1.46-9.8 0.06-12.69a14.852 14.852 0 0 1 3.68-4.23 1.1886 1.1886 0 0 0 0.63 0.32 1.256 1.256 0 1 0-1.04-1.44 1.1821 1.1821 0 0 0 0.13 0.72c-1.12 0.91-2.61 1.68-3.32 1.12-0.8-0.62 0.64-3.47 1.42-4.99a1.0658 1.0658 0 0 0 0.19 0.07 1.256 1.256 0 1 0-1.04-1.44 1.2293 1.2293 0 0 0 0.39 1.09c-0.71 1.61-2.11 4.59-2.97 4.04-0.54-0.35-0.13-4.05-0.29-6.33a1.2335 1.2335 0 0 0 0.73-0.92 1.256 1.256 0 1 0-1.44 1.04c0.06 1.89 0.05 5.99-0.92 6.35-0.91 0.34-2.37-1.9-3.76-4.41a1.1954 1.1954 0 0 0 0.32-0.62 1.256 1.256 0 1 0-1.44 1.04 1.1994 1.1994 0 0 0 0.5-0.02c0.85 1.4 2.89 4.88 2.13 5.87-0.35 0.46-2.24 0.39-3.79 0.37a1.2335 1.2335 0 0 0-1.02-0.99 1.2561 1.2561 0 1 0 0.88 1.86c1.64 0.62 3.78 1.71 4.41 2.86 1.36 2.45 3.57 10.91-0.64 13.38a20.24 20.24 0 0 1-2.74 1.33 14.841 14.841 0 0 1-6.21-3.65 7.4531 7.4531 0 0 1-2.18-6c0.26-2.81 0.72-5.37 0.22-8.48a19.357 19.357 0 0 0-1.29-4.46c-0.09-0.22-0.23-0.46-0.35-0.7-1.42-2.74-4.79-6.62-8.2-10.07-3.85-3.89-7.75-7.23-8.97-7.72a3.1333 3.1333 0 0 0-4.1708 1.4963l-0.02918 0.06366c-0.87 1.04-1.98 4.14-2.84 8.04-1.18 5.35-1.89 12.22-0.86 17.46 1.62 8.21 6.4 11.68 9.02 13.66 1.94 1.47 2.29 2.29 5.45 5.25 1.81 1.69 3.21 8.21 4.37 10.46 0.59 1.15 1.23 2.31 1.93 3.46l-0.17 2.65s-0.2 5.34-1.27 7.47a8.2836 8.2836 0 0 1-2.14 2.9s-3.66-5.41-3.05-9.52a36.157 36.157 0 0 1 0.72-3.74 1.2407 1.2407 0 0 0 1.06-1.03 1.256 1.256 0 0 0-2.48-0.4 1.2274 1.2274 0 0 0 0.69 1.3c-0.23 1.18-0.63 2.81-1.61 2.78-1.24-0.04-2.98-4.9-3.73-7.1a1.2244 1.2244 0 1 0-0.77 0.15c0.04 0.01 0.07-0.01 0.1 0 0.8 2 2.62 6.42 1.73 6.89-0.83 0.44-4.02-3.34-5.81-5.4a1.3364 1.3364 0 1 0-0.67 0.5c1.44 1.48 5.46 5.77 4.83 6.69-0.55 0.81-3.68-0.11-5.59-0.85a1.2412 1.2412 0 0 0-1.03-1.26 1.2561 1.2561 0 1 0 0.82 1.95c1.84 0.63 5.29 1.65 5.14 2.64-0.13 0.89-1.24 0.96-2.64 1.4a1.245 1.245 0 1 0 0.21 0.9v-0.06c1.56-0.38 4.34-0.82 5.9 0.9 1.96 2.15 5.83 10.96 7.89 9.96 1.8-0.87 6.14-10.1 8.14-12.44a30.932 30.932 0 0 0 6.98 3.99 46.68 46.68 0 0 0 5.33 1.85c2.18 0.63 4.4 1.14 6.62 1.62 1.62 0.36 3.36 0.7 5.13 1.1-2.26 1.27-7.62 4.36-8.89 5.79-1.63 1.83-0.61 3.05 0.71 4.07 0.83 0.64 0.37 0.7 9.25 3.66a8.3052 8.3052 0 0 1-3.66 0.71c-1.51 0-3.45-1-4.72-1.68 0-0.02 0.01-0.03 0.02-0.05a1.256 1.256 0 1 0-1.44 1.04 1.2368 1.2368 0 0 0 1-0.29c1.28 0.66 3.83 1.79 2.7 2.4-1.07 0.57-5.65 0.71-8.09 1.24a1.2338 1.2338 0 0 0-0.85-0.58 1.256 1.256 0 0 0-0.4 2.48 1.2358 1.2358 0 0 0 1.37-0.87c1.59-0.15 7.39-0.57 7.76 0.17 0.34 0.67-4.9 3.63-7.32 5.65a1.7053 1.7053 0 0 0-0.24-0.09 1.256 1.256 0 1 0 1.04 1.44 1.1454 1.1454 0 0 0-0.02-0.49c1.65-1.18 7.87-5.3 8.79-4.56 0.82 0.65-1.35 5.78-2.41 8.49a1.248 1.248 0 1 0 1.38 1.43 1.2293 1.2293 0 0 0-0.39-1.09c0.94-1.89 4.07-7.99 4.71-7.89 0.59 0.09 0.45 4.46 0.45 6.03a1.2428 1.2428 0 0 0-0.56 0.84 1.256 1.256 0 1 0 1.44-1.04h-0.06c0.42-2.85 0.96-7.39 1.42-7.7 0.61-0.41 6.51-3.35 6.2-5.39-0.31-2.03-4.78-4.27-7.93-5.18s8.54 2.54 11.39-1.73c0.39-0.58 0.72-1.08 1.03-1.53a15.042 15.042 0 0 1 2.38 2.13 36.359 36.359 0 0 1 5.71 8.44 71.907 71.907 0 0 0 4.64 9.19 47.627 47.627 0 0 0 8.42 9.72 37.265 37.265 0 0 0 5.12 3.91 16.329 16.329 0 0 0 9.82 2.36c0.3-0.03 0.6-0.07 0.9-0.13l0.23-0.04 0.24-0.05 0.41-0.1a13.739 13.739 0 0 0 1.84-0.63 13.047 13.047 0 0 0 5.98-5.19 10.603 10.603 0 0 0 1.43-3.81 7.1202 7.1202 0 0 0-0.36-3.99z" fill="none" stroke="#2e7d32" stroke-linecap="round" stroke-linejoin="round" stroke-width="4px"/>
   <path transform="translate(0 -.00187)" d="m40.73 18.152c0.3 0.52 3.37 5.25 2.46 6.43-0.47 0.61-3.62 0.28-5.12 0.39a0.22377 0.22377 0 0 0-0.04 0.44c1.53 0.4 4.83 1.79 5.64 3.26 1.36 2.45 3.57 10.91-0.64 13.38a25.6 25.6 0 0 1-9.08 3l-0.87 3.76 7.16 1.13 7.73-4.29a10.112 10.112 0 0 0 1.26-5.66c-0.09-3.7-1.46-9.8 0.06-12.69 1.46-2.79 4.33-4.63 4.55-5.01 0.22-0.37-0.2-0.51-0.41-0.28-1.08 1.12-3.18 2.49-4.07 1.8-1.01-0.78 1.59-5.18 1.85-5.87s-0.19-0.96-0.49-0.32-2.28 5.66-3.37 4.95c-0.65-0.42 0.07-5.64-0.46-7.48-0.29-1.02-0.61-0.18-0.58 0.36s0.33 6.82-0.88 7.26c-0.96 0.36-2.52-2.15-3.98-4.81-0.62-1.14-1.27-0.73-0.72 0.25z" fill="url(#linearGradient3233)"/>
   <path transform="translate(0 -.00187)" d="m26.01 64.862s-0.2 5.34-1.27 7.47a8.2836 8.2836 0 0 1-2.14 2.9s-3.66-5.41-3.05-9.52a23.57 23.57 0 0 1 1.03-4.74c0.19-0.58-0.57-0.8-0.8-0.19-0.24 0.61-0.47 3.9-1.84 3.85-1.5-0.05-3.76-7.24-4.06-8.08s-0.92-0.57-0.68 0.23 3.15 7.2 2.07 7.78c-0.94 0.5-4.91-4.43-6.45-6.11-0.47-0.52-1.3-0.18-0.54 0.71 0 0 6.1 6.09 5.34 7.2-0.66 0.96-5-0.53-6.56-1.25-0.51-0.24-0.95 0.15-0.32 0.64 0.63 0.5 6.4 1.81 6.21 3.09-0.15 0.99-1.52 0.96-3.17 1.58-1.07 0.4-1.18 1.15-0.2 0.9s4.87-1.5 6.83 0.66 5.83 10.96 7.89 9.96 7.46-12.96 8.84-12.98c0.94-0.01-6.73-10.5-6.73-10.5z" fill="url(#linear-gradient-2)"/>
   <path transform="translate(0 -.00187)" d="m69.46 61.442s3.35 1.73 3.46-0.51c0.1-2.24-1.26-10.9 1.8-11.77 3.1-0.89 12.43-0.53 12.43-0.53a2.1832 2.1832 0 0 0 1.32-2.74c-0.5-1.67-2.84-2.56-4.67-3.37-0.4-0.18-0.55-0.82 0.08-0.63s3.67 0.75 4.18-0.16c0.42-0.76-0.33-6.61-0.6-7.62s0.47-1.11 0.71-0.3c0.25 0.81 1.51 7.51 2.32 7.3 0.68-0.17 2.01-7.43 2.25-8.12 0.25-0.69 0.71-0.54 0.66 0.1s-1.09 7.92-0.17 8.12c0.72 0.16 3.76-2.98 4.5-3.69s1.03-0.25 0.66 0.25c-0.37 0.49-4.38 4.98-3.81 5.86 0.54 0.84 2.39 1.18 3.32 0.89 0.93-0.3 0.64 0.45 0.3 0.66-0.34 0.22-4.67 0.39-4.85 3.89-0.1 1.96-0.05 3-1.62 4.38-2.07 1.82-8.79-0.46-10.97-0.2-2.46 0.3-3.37 1.03-2.56 5.71s0.7 10.86-1.23 12.89-2.54 1.8-2.54 1.8z" fill="url(#linear-gradient-3)"/>
   <path transform="translate(0 -.00187)" d="m57.51 77.482s-8.29 4.53-9.91 6.36-0.61 3.05 0.71 4.07c0.83 0.64 0.37 0.7 9.25 3.66a8.3052 8.3052 0 0 1-3.66 0.71c-1.75 0-4.09-1.35-5.27-1.98s-1.22 0.15-0.41 0.7 4.55 1.99 3.23 2.7c-1.11 0.6-6.02 0.72-8.37 1.3-1.48 0.37-0.73 1.09 0.07 1 0.81-0.1 7.69-0.67 8.09 0.14 0.35 0.7-5.35 3.88-7.61 5.9-1.37 1.22 0.07 1.4 0.7 0.89 0.63-0.52 8.15-5.66 9.17-4.84 0.85 0.68-1.56 6.29-2.55 8.86-0.55 1.44 0.59 1.11 0.89 0.48s4.24-8.52 4.97-8.41c0.64 0.1 0.42 5.24 0.45 6.37s0.63 0.71 0.73 0.06c0.42-2.76 1.01-7.97 1.5-8.3 0.61-0.41 6.51-3.35 6.2-5.39-0.3-2.03-4.78-4.27-7.93-5.18s8.54 2.54 11.39-1.73 3.35-4.88 3.35-4.88z" fill="url(#linear-gradient-4)"/>
   <g fill="#6bb828">
    <circle cx="87.89" cy="34.48" r="1.25"/>
    <circle cx="40.76" cy="17.49" r="1.25"/>
    <circle cx="8.39" cy="58.48" r="1.25"/>
    <circle cx="6.77" cy="65.48" r="1.25"/>
    <circle cx="9.26" cy="70.93" r="1.25"/>
    <circle cx="47.97" cy="90.35" r="1.25"/>
    <circle cx="42.32" cy="95.6" r="1.25"/>
    <circle cx="43.5" cy="102.95" r="1.25"/>
    <circle cx="51.25" cy="107.8" r="1.25"/>
    <circle cx="57.94" cy="106.09" r="1.25"/>
    <circle cx="20.08" cy="60.74" r="1.25"/>
    <circle cx="46.55" cy="15.13" r="1.25"/>
    <circle cx="51.18" cy="17.66" r="1.25"/>
    <circle cx="53.8" cy="22.17" r="1.25"/>
    <circle cx="38.19" cy="25.2" r="1.25"/>
    <circle cx="13.62" cy="56.43" r="1.25"/>
    <circle cx="93.01" cy="32.95" r="1.25"/>
    <circle cx="98.39" cy="37.62" r="1.25"/>
    <circle cx="98.44" cy="44.61" r="1.25"/>
    <circle cx="83.63" cy="41.91" r="1.25"/>
   </g>
   <path transform="translate(0 -.00187)" d="m116.91 105.12a7.3407 7.3407 0 0 0-2.24-2.97 7.0763 7.0763 0 0 0-2.97-1.4 7.3622 7.3622 0 0 0-2.76-0.04 7.7346 7.7346 0 0 0-2 0.63 7.6413 7.6413 0 0 0-1.16 0.69c-0.25 0.19-0.38 0.29-0.38 0.29a0.39161 0.39161 0 0 0-0.08 0.53 0.39909 0.39909 0 0 0 0.55537 0.10064l0.0146-0.0106s0.12-0.08 0.35-0.24a7.1757 7.1757 0 0 1 1.06-0.54 6.8795 6.8795 0 0 1 1.78-0.45 6.2255 6.2255 0 0 1 2.32 0.17 5.7485 5.7485 0 0 1 2.39 1.3 5.8596 5.8596 0 0 1 1.65 2.48 5.6786 5.6786 0 0 1 0.11 3.12 8.7698 8.7698 0 0 1-1.38 3.06 10.54 10.54 0 0 1-10.76 4.34c-0.19-0.04-0.38-0.1-0.57-0.15a20.974 20.974 0 0 1-3.32-2.07c-3.44-2.68-5.07-7.05-6.01-11.3-1.05-4.76-2.01-9.35-3.47-14.01-0.85-2.71-1.79-5.4-2.86-8.04-0.87-2.15-1.85-4.32-2.91-6.47a76.266 76.266 0 0 0-4.49-7.97 52.012 52.012 0 0 0-8.54-10.3 43.436 43.436 0 0 0-4.06-3.25 41.037 41.037 0 0 0-9.93-5.24 31.977 31.977 0 0 0-6.39-1.6 59.656 59.656 0 0 1-10.05-2.21 15.456 15.456 0 0 1-6.75-3.84 7.4531 7.4531 0 0 1-2.18-6c0.26-2.81 0.72-5.37 0.22-8.48a19.357 19.357 0 0 0-1.29-4.46c-0.09-0.22-0.23-0.46-0.35-0.7-1.42-2.74-4.79-6.62-8.2-10.07 1.81 4.83 2.21 9.9-0.32 14.98 0 1.05-3.15 3.15-6.3 2.1-6.42-2.57-8.91-8.68-9.4-15.19-1.18 5.35-1.89 12.22-0.86 17.46 1.62 8.21 6.4 11.68 9.02 13.66 1.94 1.47 2.29 2.29 5.45 5.25 1.81 1.69 3.21 8.21 4.37 10.46a36.068 36.068 0 0 0 6.16 9.02c0.38 0.38 0.77 0.74 1.18 1.08a30.159 30.159 0 0 0 7.83 4.64 46.676 46.676 0 0 0 5.33 1.85c2.18 0.63 4.4 1.14 6.62 1.62 2.1 0.46 4.39 0.91 6.71 1.45a39.164 39.164 0 0 1 9.99 3.55 17.133 17.133 0 0 1 4.5 3.5 36.36 36.36 0 0 1 5.71 8.44 71.911 71.911 0 0 0 4.64 9.19 47.627 47.627 0 0 0 8.42 9.72 37.263 37.263 0 0 0 5.12 3.91 16.329 16.329 0 0 0 9.82 2.36c0.3-0.03 0.6-0.07 0.9-0.13l0.23-0.04 0.24-0.05 0.41-0.1a13.742 13.742 0 0 0 1.84-0.63 13.047 13.047 0 0 0 5.98-5.19 10.603 10.603 0 0 0 1.43-3.81 7.239 7.239 0 0 0-0.37-4z" fill="url(#linear-gradient-5)"/>
   <path transform="translate(0 -.00187)" d="m15.66 27.102c3.15 1.05 6.3-1.05 6.3-2.1 2.54-5.07 2.13-10.14 0.32-14.98-3.85-3.89-7.75-7.23-8.97-7.72a3.1333 3.1333 0 0 0-4.1708 1.4963l-0.02918 0.06366c-0.87 1.04-1.98 4.14-2.84 8.04 0.48 6.53 2.97 12.63 9.39 15.2z" fill="#aed581"/>
   <path transform="translate(0 -.00187)" d="m6.26 27.752a5.58 5.58 0 1 1 5.58-5.58 5.58 5.58 0 0 1-5.58 5.58z" fill="#fff"/>
   <path transform="translate(0 -.00187)" d="m6.26 17.272a4.9 4.9 0 1 1-4.9 4.9 4.8951 4.8951 0 0 1 4.8903-4.9h0.00972m0-1.37a6.26 6.26 0 1 0 6.26 6.26 6.26 6.26 0 0 0-6.26-6.26z" fill="#b3b3b3"/>
   <circle cx="4.91" cy="19.87" r="2.39"/>
   <path transform="translate(0 -.00187)" d="m25.34 20.202a5.58 5.58 0 1 1 5.58-5.58 5.5822 5.5822 0 0 1-5.58 5.58z" fill="#fff"/>
   <path transform="translate(0 -.00187)" d="m25.33 9.7223a4.9 4.9 0 1 1-4.9 4.9 4.8952 4.8952 0 0 1 4.8903-4.9h0.00972m0-1.36a6.26 6.26 0 1 0 6.26 6.26 6.26 6.26 0 0 0-6.26-6.26z" fill="#b3b3b3"/>
   <circle cx="25.64" cy="12.22" r="2.39"/>
   <path transform="translate(0 -.00187)" d="m22.59 32.182s0.11 0.4 0.33 1.14c0.21 0.78 0.54 1.74 0.99 3.02a27.187 27.187 0 0 0 1.99 4.36 24.112 24.112 0 0 0 3.72 4.83 53.856 53.856 0 0 0 5.79 4.92c1.09 0.82 2.29 1.74 3.43 2.51l0.92 0.64 0.89 0.56c0.58 0.38 1.2 0.75 1.86 1.12a92.494 92.494 0 0 0 8.27 4.19c2.92 1.32 5.95 2.62 8.97 4.05a86.321 86.321 0 0 1 8.9 4.74l0.54 0.33 0.3 0.19 0.25 0.17c0.34 0.24 0.65 0.43 1.01 0.71 0.72 0.53 1.38 1.06 2.03 1.6a36.329 36.329 0 0 1 3.54 3.47 51.257 51.257 0 0 1 8.92 14.87 75.524 75.524 0 0 1 3.54 11.55c0.32 1.42 0.52 2.54 0.65 3.3 0.13 0.77 0.2 1.17 0.2 1.17a0.17691 0.17691 0 0 1-0.14 0.2 0.18808 0.18808 0 0 1-0.19-0.11s-0.54-1.56-1.56-4.25a98.814 98.814 0 0 0-4.81-10.8 61.362 61.362 0 0 0-3.99-6.7 45.384 45.384 0 0 0-5.4-6.62 32.202 32.202 0 0 0-3.31-2.96c-0.59-0.46-1.2-0.9-1.8-1.29-0.28-0.2-0.66-0.42-0.99-0.63l-0.26-0.16-0.22-0.13-0.51-0.29a78.548 78.548 0 0 0-8.57-4.25c-5.96-2.57-12.2-4.96-17.81-8.12-0.7-0.38-1.39-0.8-2.08-1.24l-1.02-0.65-0.92-0.64c-1.32-0.9-2.43-1.75-3.61-2.62a51.385 51.385 0 0 1-6.3-5.46 26.557 26.557 0 0 1-4.31-5.94 31.308 31.308 0 0 1-2.16-5.16c-0.47-1.45-0.76-2.67-0.92-3.39-0.17-0.75-0.26-1.16-0.26-1.16a2.1206 2.1206 0 0 1 4.1-1.07z" fill="url(#linear-gradient-6)"/>
  </g>
  <rect x="132.9" y="136.84" width="5.981" height="5.9812" ry=".74285" stroke-width="0"/>
  <rect x="75.906" y="79.169" width="119.97" height="121.32" fill-opacity=".00042024"/>
 </g>
</svg>
