<?xml version="1.0" encoding="UTF-8"?>
<!-- Created with Inkscape (http://www.inkscape.org/) -->
<svg width="263.36mm" height="121.35mm" version="1.1" viewBox="0 0 263.36 121.35" xmlns="http://www.w3.org/2000/svg" xmlns:xlink="http://www.w3.org/1999/xlink">
 <defs>
  <linearGradient id="linear-gradient" x1="205.45" x2="218.79" y1="617.74" y2="599.78" gradientTransform="rotate(14.573 2375.9 -345.55)" gradientUnits="userSpaceOnUse">
   <stop stop-color="#13630f" offset="0"/>
   <stop stop-color="#2a7915" offset=".1391"/>
   <stop stop-color="#59a623" offset=".457"/>
   <stop stop-color="#6bb828" offset=".6158"/>
  </linearGradient>
  <linearGradient id="linear-gradient-6" x1="25.16" x2="94.433" y1="747.27" y2="820.74" gradientTransform="translate(-4.18 -717.55)" gradientUnits="userSpaceOnUse">
   <stop stop-color="#c5e1a5" offset=".0169"/>
   <stop stop-color="#c1dea1" offset=".1983"/>
   <stop stop-color="#b6d595" offset=".3788"/>
   <stop stop-color="#a3c781" offset=".5591"/>
   <stop stop-color="#88b265" offset=".7392"/>
   <stop stop-color="#669841" offset=".9176"/>
   <stop stop-color="#558b2f" offset=".9969"/>
  </linearGradient>
  <linearGradient id="linearGradient3088" x1="205.45" x2="218.79" y1="617.74" y2="599.78" gradientTransform="matrix(.79882 .20767 -.20767 .79882 15.595 -492.9)" gradientUnits="userSpaceOnUse" xlink:href="#linear-gradient"/>
  <linearGradient id="linear-gradient-2-0" x1="32.084" x2="16.132" y1="772.52" y2="793.38" gradientTransform="matrix(.82538 0 0 .82538 20.818 -582.56)" xlink:href="#linear-gradient"/>
  <linearGradient id="linear-gradient-3-5" x1="73.64" x2="102.73" y1="770.65" y2="770.65" gradientTransform="matrix(.82538 0 0 .82538 20.818 -582.56)" xlink:href="#linear-gradient"/>
  <linearGradient id="linear-gradient-4-5" x1="66.255" x2="53.119" y1="795.19" y2="821.73" gradientTransform="matrix(.82538 0 0 .82538 20.818 -582.56)" gradientUnits="userSpaceOnUse">
   <stop stop-color="#134e0f" offset="0"/>
   <stop stop-color="#357719" offset=".2097"/>
   <stop stop-color="#5ca624" offset=".4804"/>
   <stop stop-color="#6bb828" offset=".6158"/>
  </linearGradient>
  <linearGradient id="linear-gradient-5-2" x1="9.8108" x2="109.41" y1="715.42" y2="846.86" gradientTransform="matrix(.82538 0 0 .82538 20.818 -582.56)" gradientUnits="userSpaceOnUse" xlink:href="#linear-gradient-6">
   <stop stop-color="#4cc41c" offset=".16281"/>
   <stop stop-color="#173" offset="1"/>
  </linearGradient>
  <linearGradient id="linearGradient8879" x1="25.16" x2="94.433" y1="747.27" y2="820.74" gradientTransform="matrix(.82538 0 0 .82538 20.818 -582.56)" gradientUnits="userSpaceOnUse" xlink:href="#linear-gradient-6"/>
 </defs>
 <g transform="translate(-75.906 -79.156)">
  <g transform="matrix(1.214 0 0 1.214 189.8 67.392)">
   <path d="m121.05 96.447a6.0588 6.0588 0 0 0-1.8488-2.4514 5.8405 5.8405 0 0 0-2.4514-1.1555 6.0766 6.0766 0 0 0-2.278-0.03302 6.384 6.384 0 0 0-1.6508 0.51999 6.3069 6.3069 0 0 0-0.95743 0.56951c-0.20635 0.15682-0.31365 0.23936-0.31365 0.23936a0.32322 0.32322 0 0 0-0.066 0.43745 0.32939 0.32939 0 0 0 0.45839 0.08307l0.0121-0.0087s0.099-0.06603 0.28889-0.19809a5.9225 5.9225 0 0 1 0.87489-0.4457 5.6789 5.6789 0 0 1 1.4692-0.37142 5.1384 5.1384 0 0 1 1.9149 0.14031 4.7445 4.7445 0 0 1 1.9726 1.073 4.8362 4.8362 0 0 1 1.3619 2.0469 4.6867 4.6867 0 0 1 0.0908 2.5752 7.2382 7.2382 0 0 1-1.139 2.5257 8.6991 8.6991 0 0 1-8.881 3.5821c-0.15682-0.033-0.31364-0.0825-0.47046-0.1238a17.31 17.31 0 0 1-2.7402-1.7085c-2.8393-2.212-4.1847-5.8189-4.9605-9.3268-0.86665-3.9288-1.659-7.7173-2.8641-11.564-0.70157-2.2368-1.4774-4.457-2.3606-6.636-0.71808-1.7746-1.5269-3.5656-2.4018-5.3402a62.951 62.951 0 0 0-3.706-6.5783c-0.28888-0.4457-0.60252-0.88315-0.90791-1.3206a27.502 27.502 0 0 0-0.39618-4.6469c-0.66855-3.8628 0.08254-4.4653 2.113-4.7129 1.7993-0.2146 7.3541 1.6673 9.0544 0.16508 1.2958-1.139 1.2628-1.9974 1.3371-3.6151 0.1073-2.2203 2.245-2.8145 3.3593-3.0539a1.0659 1.0659 0 0 0 0.6603 0.40443 1.0367 1.0367 0 1 0-0.85839-1.1885 1.1078 1.1078 0 0 0 8e-3 0.16508 2.7427 2.7427 0 0 1-2.1542-0.80887c-0.36317-0.56126 1.5269-2.8888 2.5422-4.1104a1.2071 1.2071 0 0 0 0.42094 0.18158 1.0367 1.0367 0 1 0-0.85839-1.1885 1.0246 1.0246 0 0 0 0.0578 0.50348c-0.94092 0.93268-2.7815 2.732-3.285 2.6247-0.60253-0.13206-0.18159-3.9948 0.0413-5.8106a1.0226 1.0226 0 0 0 0.7841-0.84188 1.0367 1.0367 0 1 0-2.0469-0.33015 1.0248 1.0248 0 0 0 0.60253 1.0895c-0.40444 1.8241-1.1885 5.6951-1.6425 5.8024-0.48697 0.12381-1.172-2.7733-1.593-4.6139a1.0154 1.0154 0 0 0 0.45396-0.69332 1.0367 1.0367 0 1 0-1.1885 0.85839h0.04127c0.24761 1.7415 0.51999 4.49 0.26412 4.9523-0.30539 0.54475-1.6838 0.45396-2.633 0.30539a1.0349 1.0349 0 1 0-1.1885 0.88315 1.009 1.009 0 0 0 0.85839-0.28063c1.3949 0.61078 2.9301 1.3289 3.2933 2.5339a1.8019 1.8019 0 0 1-1.0895 2.2615s-7.7008-0.29714-10.259 0.43745c-1.7415 0.49523-1.7498 4.0196-1.6177 6.7763-0.41269-0.41269-0.81712-0.84188-1.2463-1.2298a35.854 35.854 0 0 0-3.351-2.6825 33.87 33.87 0 0 0-8.196-4.325 26.393 26.393 0 0 0-5.2742-1.3206c-0.73458-0.1073-1.4857-0.22285-2.245-0.35491a8.9456 8.9456 0 0 0 0.89141-4.4158c-0.07428-3.0539-1.205-8.0887 0.04952-10.474a12.258 12.258 0 0 1 3.0374-3.4913 0.98107 0.98107 0 0 0 0.51999 0.26412 1.0367 1.0367 0 1 0-0.85839-1.1885 0.97569 0.97569 0 0 0 0.1073 0.59427c-0.92442 0.75109-2.1542 1.3866-2.7402 0.92442-0.6603-0.51173 0.52824-2.8641 1.172-4.1186a0.87973 0.87973 0 0 0 0.15682 0.05778 1.0367 1.0367 0 1 0-0.85839-1.1885 1.0147 1.0147 0 0 0 0.3219 0.89966c-0.58602 1.3289-1.7415 3.7885-2.4514 3.3345-0.4457-0.28888-0.1073-3.3428-0.23936-5.2246a1.0181 1.0181 0 0 0 0.60252-0.75935 1.0367 1.0367 0 1 0-1.1885 0.85839c0.04952 1.56 0.04127 4.944-0.75935 5.2411-0.75109 0.28063-1.9561-1.5682-3.1034-3.6399a0.98668 0.98668 0 0 0 0.26412-0.51173 1.0367 1.0367 0 1 0-1.1885 0.85839 0.98992 0.98992 0 0 0 0.41269-0.01651c0.70157 1.1555 2.3853 4.0278 1.7581 4.845-0.28888 0.37967-1.8488 0.3219-3.1282 0.30539a1.0181 1.0181 0 0 0-0.84188-0.81712 1.0367 1.0367 0 1 0 0.72633 1.5352c1.3536 0.51173 3.1199 1.4114 3.6399 2.3606 1.1225 2.0222 2.9466 9.0049-0.52824 11.044a16.706 16.706 0 0 1-2.2615 1.0978 12.249 12.249 0 0 1-5.1256-3.0126 6.1516 6.1516 0 0 1-1.7993-4.9523c0.2146-2.3193 0.59427-4.4323 0.18158-6.9992a15.976 15.976 0 0 0-1.0647-3.6812c-0.07428-0.18158-0.18984-0.37967-0.28888-0.57776-1.172-2.2615-3.9536-5.464-6.7681-8.3115-3.1777-3.2107-6.3967-5.9675-7.4036-6.3719a2.5861 2.5861 0 0 0-3.4425 1.235l-0.02408 0.05254c-0.71808 0.85839-1.6342 3.4171-2.3441 6.636-0.97394 4.4158-1.56 10.086-0.70982 14.411 1.3371 6.7763 5.2824 9.6404 7.4449 11.275 1.6012 1.2133 1.8901 1.8901 4.4983 4.3332 1.4939 1.3949 2.6495 6.7763 3.6069 8.6334 0.48697 0.94918 1.0152 1.9066 1.593 2.8558l-0.14031 2.1872s-0.16508 4.4075-1.0482 6.1656a6.8371 6.8371 0 0 1-1.7663 2.3936s-3.0209-4.4653-2.5174-7.8576a29.843 29.843 0 0 1 0.59427-3.0869 1.024 1.024 0 0 0 0.8749-0.85014 1.0367 1.0367 0 0 0-2.0469-0.33015 1.013 1.013 0 0 0 0.56951 1.073c-0.18984 0.97394-0.51999 2.3193-1.3289 2.2945-1.0235-0.03301-2.4596-4.0443-3.0787-5.8602a1.0106 1.0106 0 1 0-0.63554 0.12381c0.03301 0.0083 0.05778-0.0083 0.08254 0 0.6603 1.6508 2.1625 5.2989 1.4279 5.6868-0.68506 0.36317-3.318-2.7568-4.7954-4.457a1.1031 1.1031 0 1 0-0.553 0.41269c1.1885 1.2216 4.5066 4.7624 3.9866 5.5218-0.45396 0.66855-3.0374-0.09079-4.6139-0.70157a1.0244 1.0244 0 0 0-0.85014-1.04 1.0368 1.0368 0 1 0 0.67681 1.6095c1.5187 0.51999 4.3662 1.3619 4.2424 2.179-0.1073 0.73458-1.0235 0.79236-2.179 1.1555a1.0276 1.0276 0 1 0 0.17333 0.74284v-0.04952c1.2876-0.31364 3.5821-0.67681 4.8697 0.74284 1.6177 1.7746 4.8119 9.0461 6.5122 8.2207 1.4857-0.71808 5.0678-8.3363 6.7186-10.268a25.53 25.53 0 0 0 5.7611 3.2933 38.529 38.529 0 0 0 4.3993 1.5269c1.7993 0.51999 3.6317 0.94093 5.464 1.3371 1.3371 0.29714 2.7733 0.57776 4.2342 0.90791-1.8654 1.0482-6.2894 3.5986-7.3376 4.7789-1.3454 1.5104-0.50348 2.5174 0.58602 3.3593 0.68506 0.52824 0.30539 0.57776 7.6347 3.0209a6.8549 6.8549 0 0 1-3.0209 0.58602c-1.2463 0-2.8475-0.82538-3.8958-1.3866 0-0.01651 0.0083-0.02476 0.01651-0.04127a1.0367 1.0367 0 1 0-1.1885 0.85839 1.0208 1.0208 0 0 0 0.82538-0.23936c1.0565 0.54475 3.1612 1.4774 2.2285 1.9809-0.88315 0.47046-4.6634 0.58602-6.6773 1.0235a1.0184 1.0184 0 0 0-0.70157-0.47872 1.0367 1.0367 0 0 0-0.33015 2.0469 1.02 1.02 0 0 0 1.1308-0.71808c1.3123-0.12381 6.0995-0.47046 6.4049 0.14031 0.28063 0.553-4.0443 2.9961-6.0418 4.6634a1.4075 1.4075 0 0 0-0.19809-0.07428 1.0367 1.0367 0 1 0 0.85839 1.1885 0.9454 0.9454 0 0 0-0.01651-0.40443c1.3619-0.97394 6.4957-4.3745 7.2551-3.7637 0.67681 0.5365-1.1143 4.7707-1.9892 7.0074a1.03 1.03 0 1 0 1.139 1.1803 1.0146 1.0146 0 0 0-0.3219-0.89966c0.77585-1.56 3.3593-6.5948 3.8875-6.5122 0.48697 0.07428 0.37142 3.6812 0.37142 4.977a1.0258 1.0258 0 0 0-0.46221 0.69332 1.0367 1.0367 0 1 0 1.1885-0.85839h-0.04952c0.34666-2.3523 0.79236-6.0995 1.172-6.3554 0.50348-0.3384 5.3732-2.765 5.1173-4.4488-0.25587-1.6755-3.9453-3.5244-6.5452-4.2754-2.5999-0.75109 7.0487 2.0965 9.401-1.4279 0.3219-0.47872 0.59427-0.89141 0.85014-1.2628a12.415 12.415 0 0 1 1.9644 1.7581 30.01 30.01 0 0 1 4.7129 6.9662 59.35 59.35 0 0 0 3.8297 7.5852 39.31 39.31 0 0 0 6.9497 8.0226 30.757 30.757 0 0 0 4.2259 3.2272 13.477 13.477 0 0 0 8.1052 1.9479c0.24761-0.0248 0.49523-0.0578 0.74284-0.1073l0.18984-0.033 0.19809-0.0413 0.3384-0.0825a11.34 11.34 0 0 0 1.5187-0.51999 10.768 10.768 0 0 0 4.9358-4.2837 8.7516 8.7516 0 0 0 1.1803-3.1447 5.8768 5.8768 0 0 0-0.29714-3.2933z" fill="none" stroke="#2e7d32" stroke-linecap="round" stroke-linejoin="round" stroke-width="3.3015px"/>
   <g stroke-width=".82538">
    <path d="m57.885 24.664c0.24761 0.4292 2.7815 4.3332 2.0304 5.3072-0.38793 0.50348-2.9879 0.2311-4.2259 0.3219a0.18469 0.18469 0 0 0-0.03301 0.36317c1.2628 0.33015 3.9866 1.4774 4.6551 2.6907 1.1225 2.0222 2.9466 9.0049-0.52824 11.044a21.129 21.129 0 0 1-7.4944 2.4761l-0.71808 3.1034 5.9097 0.93268 6.3802-3.5409a8.3459 8.3459 0 0 0 1.04-4.6716c-0.07428-3.0539-1.205-8.0887 0.04952-10.474 1.205-2.3028 3.5739-3.8215 3.7555-4.1351 0.18158-0.30539-0.16508-0.42094-0.3384-0.2311-0.89141 0.92442-2.6247 2.0552-3.3593 1.4857-0.83363-0.64379 1.3123-4.2754 1.5269-4.845 0.2146-0.56951-0.15682-0.79236-0.40444-0.26412-0.24761 0.52824-1.8819 4.6716-2.7815 4.0856-0.5365-0.34666 0.05778-4.6551-0.37967-6.1738-0.23936-0.84188-0.50348-0.14857-0.47872 0.29714 0.02476 0.4457 0.27238 5.6291-0.72633 5.9922-0.79236 0.29714-2.0799-1.7746-3.285-3.9701-0.51173-0.94093-1.0482-0.60252-0.59427 0.20634z" fill="url(#linearGradient3088)"/>
    <path d="m45.736 63.218s-0.16508 4.4075-1.0482 6.1656a6.8371 6.8371 0 0 1-1.7663 2.3936s-3.0209-4.4653-2.5174-7.8576a19.454 19.454 0 0 1 0.85014-3.9123c0.15682-0.47872-0.47046-0.6603-0.6603-0.15682-0.19809 0.50348-0.38793 3.219-1.5187 3.1777-1.2381-0.04127-3.1034-5.9757-3.351-6.669s-0.75935-0.47046-0.56126 0.18984c0.19809 0.6603 2.5999 5.9427 1.7085 6.4214-0.77585 0.41269-4.0526-3.6564-5.3237-5.043-0.38793-0.4292-1.073-0.14857-0.4457 0.58602 0 0 5.0348 5.0265 4.4075 5.9427-0.54475 0.79236-4.1269-0.43745-5.4145-1.0317-0.42094-0.19809-0.78411 0.12381-0.26412 0.52824 0.51999 0.41269 5.2824 1.4939 5.1256 2.5504-0.12381 0.81712-1.2546 0.79236-2.6164 1.3041-0.88315 0.33015-0.97394 0.94918-0.16508 0.74284 0.80887-0.20634 4.0196-1.2381 5.6373 0.54475 1.6177 1.7828 4.8119 9.0461 6.5122 8.2207s6.1573-10.697 7.2963-10.713c0.77585-0.0083-5.5548-8.6664-5.5548-8.6664z" fill="url(#linear-gradient-2-0)"/>
    <path d="m81.598 60.395s2.765 1.4279 2.8558-0.42094c0.08254-1.8488-1.04-8.9966 1.4857-9.7147 2.5587-0.73458 10.259-0.43745 10.259-0.43745a1.8019 1.8019 0 0 0 1.0895-2.2615c-0.41269-1.3784-2.3441-2.113-3.8545-2.7815-0.33015-0.14857-0.45396-0.67681 0.06603-0.51999 0.51999 0.15682 3.0291 0.61903 3.4501-0.13206 0.34666-0.62729-0.27238-5.4557-0.49523-6.2894-0.22285-0.83363 0.38793-0.91617 0.58602-0.24761 0.20634 0.66855 1.2463 6.1986 1.9149 6.0252 0.56126-0.14031 1.659-6.1325 1.8571-6.7021 0.20634-0.56951 0.58602-0.4457 0.54475 0.08254-0.0413 0.52824-0.89966 6.537-0.14032 6.7021 0.59428 0.13206 3.1034-2.4596 3.7142-3.0456s0.85013-0.20634 0.54475 0.20634c-0.30539 0.40444-3.6152 4.1104-3.1447 4.8367 0.44571 0.69332 1.9726 0.97394 2.7402 0.73458 0.7676-0.24761 0.52824 0.37142 0.24761 0.54475-0.28062 0.18158-3.8545 0.3219-4.0031 3.2107-0.0825 1.6177-0.0413 2.4761-1.3371 3.6151-1.7085 1.5022-7.2551-0.37967-9.0544-0.16508-2.0304 0.24761-2.7815 0.85014-2.113 4.7129 0.66856 3.8628 0.57776 8.9636-1.0152 10.639-1.593 1.6755-2.0965 1.4857-2.0965 1.4857z" fill="url(#linear-gradient-3-5)"/>
    <path d="m71.735 73.634s-6.8424 3.739-8.1795 5.2494c-1.3371 1.5104-0.50348 2.5174 0.58602 3.3593 0.68506 0.52824 0.30539 0.57776 7.6347 3.0209a6.8549 6.8549 0 0 1-3.0209 0.58602c-1.4444 0-3.3758-1.1143-4.3497-1.6342s-1.007 0.12381-0.3384 0.57776 3.7555 1.6425 2.666 2.2285c-0.91617 0.49523-4.9688 0.59427-6.9084 1.073-1.2216 0.30539-0.60252 0.89966 0.05778 0.82538 0.66855-0.08254 6.3471-0.553 6.6773 0.11555 0.28888 0.57776-4.4158 3.2025-6.2811 4.8697-1.1308 1.007 0.05778 1.1555 0.57776 0.73458 0.51999-0.4292 6.7268-4.6716 7.5687-3.9948 0.70157 0.56126-1.2876 5.1916-2.1047 7.3128-0.45396 1.1885 0.48697 0.91617 0.73458 0.39618s3.4996-7.0322 4.1021-6.9414c0.52824 0.08254 0.34666 4.325 0.37142 5.2576 0.02476 0.93268 0.51999 0.58602 0.60252 0.04952 0.34666-2.278 0.83363-6.5782 1.2381-6.8506 0.50348-0.3384 5.3732-2.765 5.1173-4.4488-0.24761-1.6755-3.9453-3.5244-6.5452-4.2754s7.0487 2.0965 9.401-1.4279c2.3523-3.5244 2.765-4.0278 2.765-4.0278z" fill="url(#linear-gradient-4-5)"/>
   </g>
   <g fill="#6bb828" stroke-width=".82538">
    <circle cx="96.81" cy="38.143" r="1.0317"/>
    <circle cx="57.91" cy="24.12" r="1.0317"/>
    <circle cx="31.192" cy="57.952" r="1.0317"/>
    <circle cx="29.855" cy="63.729" r="1.0317"/>
    <circle cx="31.911" cy="68.228" r="1.0317"/>
    <circle cx="63.861" cy="84.257" r="1.0317"/>
    <circle cx="59.198" cy="88.59" r="1.0317"/>
    <circle cx="60.171" cy="94.656" r="1.0317"/>
    <circle cx="66.568" cy="98.659" r="1.0317"/>
    <circle cx="72.09" cy="97.248" r="1.0317"/>
    <circle cx="40.841" cy="59.817" r="1.0317"/>
    <circle cx="62.689" cy="22.172" r="1.0317"/>
    <circle cx="66.51" cy="24.26" r="1.0317"/>
    <circle cx="68.673" cy="27.982" r="1.0317"/>
    <circle cx="55.789" cy="30.483" r="1.0317"/>
    <circle cx="35.509" cy="56.26" r="1.0317"/>
    <circle cx="101.04" cy="36.88" r="1.0317"/>
    <circle cx="105.48" cy="40.734" r="1.0317"/>
    <circle cx="105.52" cy="46.504" r="1.0317"/>
    <circle cx="93.294" cy="44.275" r="1.0317"/>
   </g>
   <g stroke-width=".82538">
    <path d="m120.76 96.447a6.0588 6.0588 0 0 0-1.8488-2.4514 5.8406 5.8406 0 0 0-2.4514-1.1555 6.0766 6.0766 0 0 0-2.278-0.03302 6.3839 6.3839 0 0 0-1.6508 0.51999 6.3069 6.3069 0 0 0-0.95743 0.56951c-0.20635 0.15682-0.31365 0.23936-0.31365 0.23936a0.32323 0.32323 0 0 0-0.066 0.43745 0.3294 0.3294 0 0 0 0.45839 0.08307l0.0121-0.0087s0.0991-0.06603 0.28888-0.19809a5.9226 5.9226 0 0 1 0.8749-0.4457 5.6782 5.6782 0 0 1 1.4692-0.37142 5.1384 5.1384 0 0 1 1.9149 0.14031 4.7446 4.7446 0 0 1 1.9726 1.073 4.8364 4.8364 0 0 1 1.3619 2.0469 4.687 4.687 0 0 1 0.0908 2.5752 7.2384 7.2384 0 0 1-1.139 2.5257 8.6991 8.6991 0 0 1-8.881 3.5821c-0.15682-0.033-0.31364-0.0825-0.47047-0.1238a17.311 17.311 0 0 1-2.7402-1.7085c-2.8393-2.212-4.1847-5.8189-4.9605-9.3268-0.86664-3.9288-1.659-7.7173-2.864-11.564-0.70157-2.2368-1.4774-4.457-2.3606-6.636-0.71808-1.7746-1.5269-3.5656-2.4018-5.3402a62.948 62.948 0 0 0-3.706-6.5783 42.93 42.93 0 0 0-7.0487-8.5014 35.851 35.851 0 0 0-3.351-2.6825 33.871 33.871 0 0 0-8.196-4.325 26.393 26.393 0 0 0-5.2742-1.3206 49.239 49.239 0 0 1-8.295-1.8241 12.757 12.757 0 0 1-5.5713-3.1694 6.1516 6.1516 0 0 1-1.7993-4.9523c0.2146-2.3193 0.59427-4.4323 0.18158-6.9992a15.977 15.977 0 0 0-1.0647-3.6812c-0.07428-0.18158-0.18984-0.37967-0.28888-0.57776-1.172-2.2615-3.9536-5.464-6.7681-8.3115 1.4939 3.9866 1.8241 8.1712-0.26412 12.364 0 0.86664-2.5999 2.5999-5.1999 1.7333-5.2989-2.1212-7.3541-7.1643-7.7585-12.537-0.97394 4.4158-1.56 10.086-0.70982 14.411 1.3371 6.7763 5.2824 9.6404 7.4449 11.275 1.6012 1.2133 1.8901 1.8901 4.4983 4.3332 1.4939 1.3949 2.6495 6.7763 3.6069 8.6334a29.769 29.769 0 0 0 5.0843 7.4449c0.31364 0.31364 0.63554 0.61078 0.97394 0.89141a24.893 24.893 0 0 0 6.4627 3.8297 38.526 38.526 0 0 0 4.3993 1.5269c1.7993 0.51999 3.6317 0.94093 5.464 1.3371 1.7333 0.37967 3.6234 0.75109 5.5383 1.1968a32.325 32.325 0 0 1 8.2455 2.9301 14.141 14.141 0 0 1 3.7142 2.8888 30.01 30.01 0 0 1 4.7129 6.9662 59.354 59.354 0 0 0 3.8297 7.5852 39.31 39.31 0 0 0 6.9497 8.0227 30.756 30.756 0 0 0 4.2259 3.2272 13.477 13.477 0 0 0 8.1052 1.9479c0.24761-0.0248 0.49522-0.0578 0.74284-0.1073l0.18983-0.033 0.19809-0.0413 0.33841-0.0825a11.342 11.342 0 0 0 1.5187-0.51999 10.769 10.769 0 0 0 4.9358-4.2837 8.7518 8.7518 0 0 0 1.1803-3.1447 5.9749 5.9749 0 0 0-0.30539-3.3015z" fill="url(#linear-gradient-5-2)"/>
    <path d="m37.193 32.052c2.5999 0.86664 5.1999-0.86664 5.1999-1.7333 2.0965-4.1847 1.7581-8.3693 0.26412-12.364-3.1777-3.2107-6.3967-5.9675-7.4036-6.3719a2.5861 2.5861 0 0 0-3.4425 1.235l-0.02408 0.05254c-0.71808 0.85839-1.6342 3.4171-2.3441 6.636 0.39618 5.3897 2.4514 10.425 7.7503 12.546z" fill="#aed581"/>
    <path d="m29.434 32.588a4.6056 4.6056 0 1 1 4.6056-4.6056 4.6056 4.6056 0 0 1-4.6056 4.6056z" fill="#fff"/>
    <path d="m29.434 23.938a4.0443 4.0443 0 1 1-4.0443 4.0443 4.0403 4.0403 0 0 1 4.0363-4.0443h8e-3m0-1.1308a5.1669 5.1669 0 1 0 5.1669 5.1669 5.1669 5.1669 0 0 0-5.1669-5.1669z" fill="#b3b3b3"/>
    <circle cx="28.32" cy="26.084" r="1.9726"/>
    <path d="m45.183 26.356a4.6056 4.6056 0 1 1 4.6056-4.6056 4.6075 4.6075 0 0 1-4.6056 4.6056z" fill="#fff"/>
    <path d="m45.174 17.706a4.0443 4.0443 0 1 1-4.0443 4.0443 4.0403 4.0403 0 0 1 4.0363-4.0443h8e-3m0-1.1225a5.1669 5.1669 0 1 0 5.1669 5.1669 5.1669 5.1669 0 0 0-5.1669-5.1669z" fill="#b3b3b3"/>
    <circle cx="45.43" cy="19.77" r="1.9726"/>
    <path d="m42.913 36.244s0.09079 0.33015 0.27237 0.94093c0.17333 0.64379 0.4457 1.4362 0.81712 2.4926a22.44 22.44 0 0 0 1.6425 3.5986 19.901 19.901 0 0 0 3.0704 3.9866 44.451 44.451 0 0 0 4.7789 4.0609c0.89966 0.67681 1.8901 1.4362 2.831 2.0717l0.75935 0.52824 0.73458 0.46221c0.47872 0.31364 0.99045 0.61903 1.5352 0.92442a76.342 76.342 0 0 0 6.8259 3.4583c2.4101 1.0895 4.911 2.1625 7.4036 3.3428a71.248 71.248 0 0 1 7.3458 3.9123l0.4457 0.27237 0.24761 0.15682 0.20634 0.14031c0.28063 0.19809 0.5365 0.35491 0.83363 0.58602 0.59427 0.43745 1.139 0.8749 1.6755 1.3206a29.985 29.985 0 0 1 2.9218 2.8641 42.306 42.306 0 0 1 7.3624 12.273 62.336 62.336 0 0 1 2.9218 9.5331c0.26412 1.172 0.4292 2.0965 0.5365 2.7237 0.1073 0.63554 0.16508 0.96569 0.16508 0.96569a0.14602 0.14602 0 0 1-0.11555 0.16508 0.15524 0.15524 0 0 1-0.15682-0.09079s-0.4457-1.2876-1.2876-3.5078a81.559 81.559 0 0 0-3.9701-8.9141 50.646 50.646 0 0 0-3.2933-5.53 37.459 37.459 0 0 0-4.457-5.464 26.579 26.579 0 0 0-2.732-2.4431c-0.48697-0.37967-0.99045-0.74284-1.4857-1.0647-0.2311-0.16508-0.54475-0.34666-0.81712-0.51999l-0.2146-0.13206-0.18158-0.1073-0.42094-0.23936a64.832 64.832 0 0 0-7.0735-3.5078c-4.9192-2.1212-10.07-4.0939-14.7-6.7021-0.57776-0.31364-1.1473-0.6603-1.7168-1.0235l-0.84188-0.5365-0.75935-0.52824c-1.0895-0.74284-2.0057-1.4444-2.9796-2.1625a42.412 42.412 0 0 1-5.1999-4.5066 21.919 21.919 0 0 1-3.5574-4.9027 25.841 25.841 0 0 1-1.7828-4.2589c-0.38793-1.1968-0.62729-2.2038-0.75935-2.798-0.14031-0.61903-0.2146-0.95744-0.2146-0.95744a1.7503 1.7503 0 0 1 3.384-0.88315z" fill="url(#linearGradient8879)"/>
   </g>
  </g>
  <g transform="translate(-1.0583 1.0583)">
   <rect x="133.96" y="135.78" width="5.9812" height="5.9812" stroke="#808080" stroke-width=".018838"/>
   <rect x="76.964" y="78.111" width="119.97" height="121.32" fill-opacity=".00042024"/>
  </g>
 </g>
</svg>
