<?xml version="1.0" encoding="UTF-8"?>
<svg width="737.5" height="1466.7" clip-rule="evenodd" fill-rule="evenodd" stroke-linecap="round" stroke-linejoin="round" stroke-miterlimit="0" version="1.1" viewBox="0 0 737.5 1466.7" xml:space="preserve" xmlns="http://www.w3.org/2000/svg"><defs><marker id="marker36732-3-3-2" overflow="visible" orient="auto"><path transform="scale(.4)" d="m5.77 0-8.65 5v-10z" fill="context-stroke" fill-rule="evenodd" stroke="context-stroke" stroke-width="1pt"/></marker></defs>
    
    
    
    
    
    
    
    
<path d="m174.58 568.72c150.28 0 174.7 158.88 174.7 332.47 0 185.21 24.684 332.47 174.7 332.47" clip-rule="evenodd" fill="none" marker-end="url(#marker36732-3-3-2)" stroke="#808080" stroke-linecap="butt" stroke-linejoin="round" stroke-miterlimit="0" stroke-width="15.118"/><text x="-201.32111" y="1347.8628" fill="#000000" font-family="sans-serif" font-size="40px" style="line-height:1.25" xml:space="preserve"><tspan x="-201.32111" y="1347.8628" fill="#1e1e1e" font-family="sans-serif" font-size="53.333px" style="font-variant-caps:normal;font-variant-east-asian:normal;font-variant-ligatures:normal;font-variant-numeric:normal"/></text><text transform="translate(-739.69 -76.936)" fill="#000000" font-family="sans-serif" font-size="40px" style="line-height:1.25;shape-inside:url(#rect95981);white-space:pre" xml:space="preserve"/><g transform="translate(-524.39 -61.64)" clip-rule="evenodd" fill-rule="evenodd" stroke-linecap="round" stroke-linejoin="round" stroke-miterlimit="0"><rect x="524.39" y="61.64" width="138.41" height="138.41" fill="#ff5757" stroke-width="1.2"/><g transform="matrix(1.2 0 0 1.2 -321.05 -188.27)"><text x="729.93701" y="296.96701" fill="#ffffff" font-family="ArialMT, Arial, sans-serif" font-size="94.011px">R</text></g><rect x="524.39" y="393.73" width="138.41" height="138.41" fill="#5757ff" stroke-width="1.2"/><g transform="matrix(1.2 0 0 1.2 -321.05 148.45)"><text x="729.93701" y="296.96701" fill="#ffffff" font-family="ArialMT, Arial, sans-serif" font-size="94.011px">B</text></g><rect x="524.39" y="227.68" width="138.41" height="138.41" fill="#55d400" stroke-width="1.2"/><g transform="matrix(1.2 0 0 1.2 -328.59 -20.007)"><text x="729.93701" y="296.96701" fill="#ffffff" font-family="sans-serif" font-size="94.011px" style="font-variant-caps:normal;font-variant-east-asian:normal;font-variant-ligatures:normal;font-variant-numeric:normal">G</text></g><rect x="524.39" y="1390" width="138.41" height="138.41" fill="#e6e6e6" stroke-width="1.2"/><rect x="524.39" y="559.77" width="138.41" height="138.41" fill="#808080" stroke-width="1.2"/><text x="550.88947" y="671.60107" fill="#ffffff" font-family="ArialMT, Arial, sans-serif" font-size="144.45px" stroke-width="3.8014">α</text><g fill="#e6e6e6"><rect x="524.39" y="725.81" width="138.41" height="138.41" stroke-width="1.2"/><rect x="524.39" y="891.85" width="138.41" height="138.41" stroke-width="1.2"/><g transform="matrix(1.1996 0 0 1.1996 -97.765 -73.469)"><circle cx="576.32" cy="989.96" r="26.124" stroke-width="1.0003"/><g transform="matrix(1.0003 0 0 1.0003 -194 4.4792)"><circle cx="770.07" cy="1064" r="26.116" fill="#e6e6e6"/></g><g transform="matrix(1.0003 0 0 1.0003 -194 83.311)"><circle cx="770.07" cy="1064" r="26.116" fill="#e6e6e6"/></g></g></g></g><g transform="translate(-739.69 -76.936)" clip-rule="evenodd" fill-rule="evenodd" stroke-linecap="round" stroke-linejoin="round" stroke-miterlimit="0"><g transform="matrix(1.1996 0 0 1.1996 -290.99 -58.174)"><rect x="1358.6" y="112.63" width="115.37" height="115.37" fill="#ff5757" stroke-width="1.0003"/><g transform="matrix(1.0003 0 0 1.0003 653.81 -95.699)"><text x="729.93701" y="296.96701" fill="#ffffff" font-family="ArialMT, Arial, sans-serif" font-size="94.011px">R</text></g></g><g transform="matrix(1.1996 0 0 1.1996 -290.99 -58.173)"><rect x="1358.6" y="389.45" width="115.37" height="115.37" fill="#5757ff" stroke-width="1.0003"/><g transform="matrix(1.0003 0 0 1.0003 653.81 184.99)"><text x="729.93701" y="296.96701" fill="#ffffff" font-family="ArialMT, Arial, sans-serif" font-size="94.011px">B</text></g></g><g transform="matrix(1.1996 0 0 1.1996 -290.99 -58.174)"><rect x="1358.6" y="251.04" width="115.37" height="115.37" fill="#55d400" stroke-width="1.0003"/><g transform="matrix(1.0003 0 0 1.0003 647.53 44.566)"><text x="729.93701" y="296.96701" fill="#ffffff" font-family="sans-serif" font-size="94.011px" style="font-variant-caps:normal;font-variant-east-asian:normal;font-variant-ligatures:normal;font-variant-numeric:normal">G</text></g></g><rect x="1338.8" y="1405.3" width="138.41" height="138.41" fill="#808080" stroke-width="13.228"/><g fill="#e6e6e6"><rect x="1338.8" y="575.06" width="138.41" height="138.41" stroke-width="13.228"/><rect x="1338.8" y="1073.2" width="138.41" height="138.41" stroke-width="13.228"/><g transform="matrix(1.1996 0 0 1.1996 -290.99 -67.011)" stroke-width="11.027"><circle cx="1416.3" cy="721.71" r="26.124"/><circle cx="1416.3" cy="800.54" r="26.124"/><circle cx="1416.3" cy="879.37" r="26.124"/></g></g><rect x="1338.8" y="1239.2" width="138.41" height="138.41" fill="#808080" stroke-width="13.228"/><g fill="#ffffff" font-family="ArialMT, Arial, sans-serif"><text x="1349.924" y="1345.0229" font-size="146.67px" stroke-width=".5602" style="font-variant-caps:normal;font-variant-east-asian:normal;font-variant-ligatures:normal;font-variant-numeric:normal"><tspan x="1349.924" y="1345.0229" stroke-width=".5602">α</tspan></text><text x="1430.4003" y="1362.7692" font-size="72.527px" style="font-variant-caps:normal;font-variant-east-asian:normal;font-variant-ligatures:normal;font-variant-numeric:normal;line-height:1.25" xml:space="preserve"><tspan x="1430.4003" y="1362.7692" fill="#ffffff" font-family="ArialMT, Arial, sans-serif" font-size="72.527px" style="font-variant-caps:normal;font-variant-east-asian:normal;font-variant-ligatures:normal;font-variant-numeric:normal">1</tspan></text><text x="1367.1996" y="1524.9674" font-size="146.67px" stroke-width=".5602" style="font-variant-caps:normal;font-variant-east-asian:normal;font-variant-ligatures:normal;font-variant-numeric:normal"><tspan x="1367.1996" y="1524.9674" stroke-width=".5602">0</tspan></text></g></g></svg>
