<?xml version="1.0" encoding="UTF-8"?>
<svg width="737.5" height="1466.7" clip-rule="evenodd" fill-rule="evenodd" stroke-linecap="round" stroke-linejoin="round" stroke-miterlimit="0" version="1.1" viewBox="0 0 737.5 1466.7" xml:space="preserve" xmlns="http://www.w3.org/2000/svg">
    
    
    
    
    
    
    
    
<g transform="translate(-739.69 -76.936)"><path d="m914.27 638.09v15.119c72.474 0 112.54 36.801 136.7 96.418 24.161 59.617 30.445 142.05 30.445 228.5 0 92.939 5.9682 176.74 31.672 238.59 25.704 61.845 73.106 101.44 150.59 101.44v-15.119c-72.535 0-112.48-34.035-136.63-92.125-24.143-58.09-30.516-140.52-30.516-232.79 0-87.153-5.9297-170.95-31.551-234.17-25.621-63.22-72.909-105.86-150.71-105.86z" color="#000000" fill="#808080" stroke-linecap="butt" style="-inkscape-stroke:none"/><g clip-rule="nonzero" fill="#808080" stroke-linecap="butt" stroke-linejoin="miter"><path d="m1298.6 1310.6-52.308 30.236v-60.472z" color="#000000" stroke-width="6.0472pt" style="-inkscape-stroke:none"/><path d="m1244.2 1276.9a4.0319 4.0319 0 0 0-2.0175 3.4922v60.471a4.0319 4.0319 0 0 0 6.0508 3.4902l52.307-30.234a4.0319 4.0319 0 0 0 0-6.9824l-52.307-30.234a4.0319 4.0319 0 0 0-4.0333 0zm6.0469 10.478 40.219 23.248-40.219 23.25z" color="#000000" style="-inkscape-stroke:none"/></g></g><text x="-201.32111" y="1347.8628" fill="#000000" font-family="sans-serif" font-size="40px" style="line-height:1.25" xml:space="preserve"><tspan x="-201.32111" y="1347.8628" fill="#1e1e1e" font-family="sans-serif" font-size="53.333px" style="font-variant-caps:normal;font-variant-east-asian:normal;font-variant-ligatures:normal;font-variant-numeric:normal"/></text><text transform="translate(-739.69 -76.936)" fill="#000000" font-family="sans-serif" font-size="40px" style="line-height:1.25;shape-inside:url(#rect95981);white-space:pre" xml:space="preserve"/><g clip-rule="evenodd" fill-rule="evenodd" stroke-linecap="round" stroke-linejoin="round" stroke-miterlimit="0"><g stroke-width="1.2"><rect y=".00054932" width="138.41" height="138.41" fill="#ff5757"/><text x="30.474182" y="106.44884" fill="#ffffff" font-family="ArialMT, Arial, sans-serif" font-size="112.81px">R</text><rect y="332.09" width="138.41" height="138.41" fill="#5757ff"/><text x="30.474182" y="443.16968" fill="#ffffff" font-family="ArialMT, Arial, sans-serif" font-size="112.81px">B</text><rect y="166.04" width="138.41" height="138.41" fill="#55d400"/><text x="22.940491" y="274.71307" fill="#ffffff" font-family="sans-serif" font-size="112.81px" style="font-variant-caps:normal;font-variant-east-asian:normal;font-variant-ligatures:normal;font-variant-numeric:normal">G</text><rect y="1328.3" width="138.41" height="138.41" fill="#e6e6e6"/><rect y="498.13" width="138.41" height="138.41" fill="#666"/></g><text x="26.494751" y="609.9613" fill="#ffffff" font-family="ArialMT, Arial, sans-serif" font-size="144.45px" stroke-width="3.8014">α</text><g fill="#e6e6e6" stroke-width="1.2"><rect y="664.17" width="138.41" height="138.41"/><rect y="830.21" width="138.41" height="138.41"/><circle cx="69.203" cy="1052.5" r="31.339"/><circle cx="69.203" cy="1147" r="31.339"/><circle cx="69.203" cy="1241.6" r="31.339"/></g><g stroke-width="1.2"><rect x="599.09" width="138.41" height="138.41" fill="#ff5757"/><text x="629.56653" y="106.4482" fill="#ffffff" font-family="ArialMT, Arial, sans-serif" font-size="112.81px">R</text><rect x="599.09" y="332.09" width="138.41" height="138.41" fill="#5757ff"/><text x="629.56653" y="443.16913" fill="#ffffff" font-family="ArialMT, Arial, sans-serif" font-size="112.81px">B</text><rect x="599.09" y="166.04" width="138.41" height="138.41" fill="#55d400"/><text x="622.03284" y="274.71204" fill="#ffffff" font-family="sans-serif" font-size="112.81px" style="font-variant-caps:normal;font-variant-east-asian:normal;font-variant-ligatures:normal;font-variant-numeric:normal">G</text></g><rect x="599.09" y="1328.3" width="138.41" height="138.41" fill="#666" stroke-width="13.228"/><g fill="#e6e6e6" stroke-width="13.228"><rect x="599.09" y="498.13" width="138.41" height="138.41"/><rect x="599.09" y="996.26" width="138.41" height="138.41"/><circle cx="668.3" cy="721.83" r="31.339"/><circle cx="668.3" cy="816.4" r="31.339"/><circle cx="668.3" cy="910.96" r="31.339"/></g><rect x="599.09" y="1162.3" width="138.41" height="138.41" fill="#666" stroke-width="13.228"/><g fill="#ffffff" font-family="ArialMT, Arial, sans-serif"><text x="610.23462" y="1268.0874" font-size="146.67px" stroke-width=".5602" style="font-variant-caps:normal;font-variant-east-asian:normal;font-variant-ligatures:normal;font-variant-numeric:normal"><tspan x="610.23462" y="1268.0874" stroke-width=".5602">α</tspan></text><text x="690.71094" y="1285.8336" font-size="72.527px" style="font-variant-caps:normal;font-variant-east-asian:normal;font-variant-ligatures:normal;font-variant-numeric:normal;line-height:1.25" xml:space="preserve"><tspan x="690.71094" y="1285.8336" fill="#ffffff" font-family="ArialMT, Arial, sans-serif" font-size="72.527px" style="font-variant-caps:normal;font-variant-east-asian:normal;font-variant-ligatures:normal;font-variant-numeric:normal">1</tspan></text><text x="627.51025" y="1448.0319" font-size="146.67px" stroke-width=".5602" style="font-variant-caps:normal;font-variant-east-asian:normal;font-variant-ligatures:normal;font-variant-numeric:normal"><tspan x="627.51025" y="1448.0319" stroke-width=".5602">0</tspan></text></g></g></svg>
