<?xml version="1.0" encoding="utf-8" standalone="no"?>
<!DOCTYPE svg PUBLIC "-//W3C//DTD SVG 1.1//EN"
  "http://www.w3.org/Graphics/SVG/1.1/DTD/svg11.dtd">
<svg height="288pt" version="1.1" viewBox="0 0 432 288" width="432pt" xmlns="http://www.w3.org/2000/svg" xmlns:xlink="http://www.w3.org/1999/xlink">
 <metadata>
  <rdf:RDF xmlns:cc="http://creativecommons.org/ns#" xmlns:dc="http://purl.org/dc/elements/1.1/" xmlns:rdf="http://www.w3.org/1999/02/22-rdf-syntax-ns#">
   <cc:Work>
    <dc:type rdf:resource="http://purl.org/dc/dcmitype/StillImage"/>
    <dc:date>2021-11-23T19:51:13.133044</dc:date>
    <dc:format>image/svg+xml</dc:format>
    <dc:creator>
     <cc:Agent>
      <dc:title>Matplotlib v3.4.2, https://matplotlib.org/</dc:title>
     </cc:Agent>
    </dc:creator>
   </cc:Work>
  </rdf:RDF>
 </metadata>
 <defs>
  <style type="text/css">*{stroke-linecap:butt;stroke-linejoin:round;}</style>
 </defs>
 <g id="figure_1">
  <g id="patch_1">
   <path d="M 0 288 
L 432 288 
L 432 0 
L 0 0 
z
" style="fill:none;"/>
  </g>
  <g id="axes_1">
   <g id="patch_2">
    <path d="M 54 252 
L 388.8 252 
L 388.8 34.56 
L 54 34.56 
z
" style="fill:#ffffff;"/>
   </g>
   <g id="matplotlib.axis_1">
    <g id="xtick_1">
     <g id="line2d_1">
      <defs>
       <path d="M 0 0 
L 0 3.5 
" id="m3548dab289" style="stroke:#000000;stroke-width:0.8;"/>
      </defs>
      <g>
       <use style="stroke:#000000;stroke-width:0.8;" x="69.218182" xlink:href="#m3548dab289" y="252"/>
      </g>
     </g>
     <g id="text_1">
      <!-- $\mathdefault{10^{0}}$ -->
      <g transform="translate(60.418182 266.598437)scale(0.1 -0.1)">
       <defs>
        <path d="M 794 531 
L 1825 531 
L 1825 4091 
L 703 3866 
L 703 4441 
L 1819 4666 
L 2450 4666 
L 2450 531 
L 3481 531 
L 3481 0 
L 794 0 
L 794 531 
z
" id="DejaVuSans-31" transform="scale(0.015625)"/>
        <path d="M 2034 4250 
Q 1547 4250 1301 3770 
Q 1056 3291 1056 2328 
Q 1056 1369 1301 889 
Q 1547 409 2034 409 
Q 2525 409 2770 889 
Q 3016 1369 3016 2328 
Q 3016 3291 2770 3770 
Q 2525 4250 2034 4250 
z
M 2034 4750 
Q 2819 4750 3233 4129 
Q 3647 3509 3647 2328 
Q 3647 1150 3233 529 
Q 2819 -91 2034 -91 
Q 1250 -91 836 529 
Q 422 1150 422 2328 
Q 422 3509 836 4129 
Q 1250 4750 2034 4750 
z
" id="DejaVuSans-30" transform="scale(0.015625)"/>
       </defs>
       <use transform="translate(0 0.765625)" xlink:href="#DejaVuSans-31"/>
       <use transform="translate(63.623047 0.765625)" xlink:href="#DejaVuSans-30"/>
       <use transform="translate(128.203125 39.046875)scale(0.7)" xlink:href="#DejaVuSans-30"/>
      </g>
     </g>
    </g>
    <g id="xtick_2">
     <g id="line2d_2">
      <g>
       <use style="stroke:#000000;stroke-width:0.8;" x="156.755052" xlink:href="#m3548dab289" y="252"/>
      </g>
     </g>
     <g id="text_2">
      <!-- $\mathdefault{10^{1}}$ -->
      <g transform="translate(147.955052 266.598437)scale(0.1 -0.1)">
       <use transform="translate(0 0.684375)" xlink:href="#DejaVuSans-31"/>
       <use transform="translate(63.623047 0.684375)" xlink:href="#DejaVuSans-30"/>
       <use transform="translate(128.203125 38.965625)scale(0.7)" xlink:href="#DejaVuSans-31"/>
      </g>
     </g>
    </g>
    <g id="xtick_3">
     <g id="line2d_3">
      <g>
       <use style="stroke:#000000;stroke-width:0.8;" x="244.291922" xlink:href="#m3548dab289" y="252"/>
      </g>
     </g>
     <g id="text_3">
      <!-- $\mathdefault{10^{2}}$ -->
      <g transform="translate(235.491922 266.598437)scale(0.1 -0.1)">
       <defs>
        <path d="M 1228 531 
L 3431 531 
L 3431 0 
L 469 0 
L 469 531 
Q 828 903 1448 1529 
Q 2069 2156 2228 2338 
Q 2531 2678 2651 2914 
Q 2772 3150 2772 3378 
Q 2772 3750 2511 3984 
Q 2250 4219 1831 4219 
Q 1534 4219 1204 4116 
Q 875 4013 500 3803 
L 500 4441 
Q 881 4594 1212 4672 
Q 1544 4750 1819 4750 
Q 2544 4750 2975 4387 
Q 3406 4025 3406 3419 
Q 3406 3131 3298 2873 
Q 3191 2616 2906 2266 
Q 2828 2175 2409 1742 
Q 1991 1309 1228 531 
z
" id="DejaVuSans-32" transform="scale(0.015625)"/>
       </defs>
       <use transform="translate(0 0.765625)" xlink:href="#DejaVuSans-31"/>
       <use transform="translate(63.623047 0.765625)" xlink:href="#DejaVuSans-30"/>
       <use transform="translate(128.203125 39.046875)scale(0.7)" xlink:href="#DejaVuSans-32"/>
      </g>
     </g>
    </g>
    <g id="xtick_4">
     <g id="line2d_4">
      <g>
       <use style="stroke:#000000;stroke-width:0.8;" x="331.828791" xlink:href="#m3548dab289" y="252"/>
      </g>
     </g>
     <g id="text_4">
      <!-- $\mathdefault{10^{3}}$ -->
      <g transform="translate(323.028791 266.598437)scale(0.1 -0.1)">
       <defs>
        <path d="M 2597 2516 
Q 3050 2419 3304 2112 
Q 3559 1806 3559 1356 
Q 3559 666 3084 287 
Q 2609 -91 1734 -91 
Q 1441 -91 1130 -33 
Q 819 25 488 141 
L 488 750 
Q 750 597 1062 519 
Q 1375 441 1716 441 
Q 2309 441 2620 675 
Q 2931 909 2931 1356 
Q 2931 1769 2642 2001 
Q 2353 2234 1838 2234 
L 1294 2234 
L 1294 2753 
L 1863 2753 
Q 2328 2753 2575 2939 
Q 2822 3125 2822 3475 
Q 2822 3834 2567 4026 
Q 2313 4219 1838 4219 
Q 1578 4219 1281 4162 
Q 984 4106 628 3988 
L 628 4550 
Q 988 4650 1302 4700 
Q 1616 4750 1894 4750 
Q 2613 4750 3031 4423 
Q 3450 4097 3450 3541 
Q 3450 3153 3228 2886 
Q 3006 2619 2597 2516 
z
" id="DejaVuSans-33" transform="scale(0.015625)"/>
       </defs>
       <use transform="translate(0 0.765625)" xlink:href="#DejaVuSans-31"/>
       <use transform="translate(63.623047 0.765625)" xlink:href="#DejaVuSans-30"/>
       <use transform="translate(128.203125 39.046875)scale(0.7)" xlink:href="#DejaVuSans-33"/>
      </g>
     </g>
    </g>
    <g id="xtick_5">
     <g id="line2d_5">
      <defs>
       <path d="M 0 0 
L 0 2 
" id="mb45db3c86a" style="stroke:#000000;stroke-width:0.6;"/>
      </defs>
      <g>
       <use style="stroke:#000000;stroke-width:0.6;" x="55.658549" xlink:href="#mb45db3c86a" y="252"/>
      </g>
     </g>
    </g>
    <g id="xtick_6">
     <g id="line2d_6">
      <g>
       <use style="stroke:#000000;stroke-width:0.6;" x="60.734983" xlink:href="#mb45db3c86a" y="252"/>
      </g>
     </g>
    </g>
    <g id="xtick_7">
     <g id="line2d_7">
      <g>
       <use style="stroke:#000000;stroke-width:0.6;" x="65.212714" xlink:href="#mb45db3c86a" y="252"/>
      </g>
     </g>
    </g>
    <g id="xtick_8">
     <g id="line2d_8">
      <g>
       <use style="stroke:#000000;stroke-width:0.6;" x="95.569405" xlink:href="#mb45db3c86a" y="252"/>
      </g>
     </g>
    </g>
    <g id="xtick_9">
     <g id="line2d_9">
      <g>
       <use style="stroke:#000000;stroke-width:0.6;" x="110.983883" xlink:href="#mb45db3c86a" y="252"/>
      </g>
     </g>
    </g>
    <g id="xtick_10">
     <g id="line2d_10">
      <g>
       <use style="stroke:#000000;stroke-width:0.6;" x="121.920629" xlink:href="#mb45db3c86a" y="252"/>
      </g>
     </g>
    </g>
    <g id="xtick_11">
     <g id="line2d_11">
      <g>
       <use style="stroke:#000000;stroke-width:0.6;" x="130.403828" xlink:href="#mb45db3c86a" y="252"/>
      </g>
     </g>
    </g>
    <g id="xtick_12">
     <g id="line2d_12">
      <g>
       <use style="stroke:#000000;stroke-width:0.6;" x="137.335107" xlink:href="#mb45db3c86a" y="252"/>
      </g>
     </g>
    </g>
    <g id="xtick_13">
     <g id="line2d_13">
      <g>
       <use style="stroke:#000000;stroke-width:0.6;" x="143.195419" xlink:href="#mb45db3c86a" y="252"/>
      </g>
     </g>
    </g>
    <g id="xtick_14">
     <g id="line2d_14">
      <g>
       <use style="stroke:#000000;stroke-width:0.6;" x="148.271852" xlink:href="#mb45db3c86a" y="252"/>
      </g>
     </g>
    </g>
    <g id="xtick_15">
     <g id="line2d_15">
      <g>
       <use style="stroke:#000000;stroke-width:0.6;" x="152.749584" xlink:href="#mb45db3c86a" y="252"/>
      </g>
     </g>
    </g>
    <g id="xtick_16">
     <g id="line2d_16">
      <g>
       <use style="stroke:#000000;stroke-width:0.6;" x="183.106275" xlink:href="#mb45db3c86a" y="252"/>
      </g>
     </g>
    </g>
    <g id="xtick_17">
     <g id="line2d_17">
      <g>
       <use style="stroke:#000000;stroke-width:0.6;" x="198.520753" xlink:href="#mb45db3c86a" y="252"/>
      </g>
     </g>
    </g>
    <g id="xtick_18">
     <g id="line2d_18">
      <g>
       <use style="stroke:#000000;stroke-width:0.6;" x="209.457499" xlink:href="#mb45db3c86a" y="252"/>
      </g>
     </g>
    </g>
    <g id="xtick_19">
     <g id="line2d_19">
      <g>
       <use style="stroke:#000000;stroke-width:0.6;" x="217.940698" xlink:href="#mb45db3c86a" y="252"/>
      </g>
     </g>
    </g>
    <g id="xtick_20">
     <g id="line2d_20">
      <g>
       <use style="stroke:#000000;stroke-width:0.6;" x="224.871976" xlink:href="#mb45db3c86a" y="252"/>
      </g>
     </g>
    </g>
    <g id="xtick_21">
     <g id="line2d_21">
      <g>
       <use style="stroke:#000000;stroke-width:0.6;" x="230.732289" xlink:href="#mb45db3c86a" y="252"/>
      </g>
     </g>
    </g>
    <g id="xtick_22">
     <g id="line2d_22">
      <g>
       <use style="stroke:#000000;stroke-width:0.6;" x="235.808722" xlink:href="#mb45db3c86a" y="252"/>
      </g>
     </g>
    </g>
    <g id="xtick_23">
     <g id="line2d_23">
      <g>
       <use style="stroke:#000000;stroke-width:0.6;" x="240.286454" xlink:href="#mb45db3c86a" y="252"/>
      </g>
     </g>
    </g>
    <g id="xtick_24">
     <g id="line2d_24">
      <g>
       <use style="stroke:#000000;stroke-width:0.6;" x="270.643145" xlink:href="#mb45db3c86a" y="252"/>
      </g>
     </g>
    </g>
    <g id="xtick_25">
     <g id="line2d_25">
      <g>
       <use style="stroke:#000000;stroke-width:0.6;" x="286.057623" xlink:href="#mb45db3c86a" y="252"/>
      </g>
     </g>
    </g>
    <g id="xtick_26">
     <g id="line2d_26">
      <g>
       <use style="stroke:#000000;stroke-width:0.6;" x="296.994369" xlink:href="#mb45db3c86a" y="252"/>
      </g>
     </g>
    </g>
    <g id="xtick_27">
     <g id="line2d_27">
      <g>
       <use style="stroke:#000000;stroke-width:0.6;" x="305.477568" xlink:href="#mb45db3c86a" y="252"/>
      </g>
     </g>
    </g>
    <g id="xtick_28">
     <g id="line2d_28">
      <g>
       <use style="stroke:#000000;stroke-width:0.6;" x="312.408846" xlink:href="#mb45db3c86a" y="252"/>
      </g>
     </g>
    </g>
    <g id="xtick_29">
     <g id="line2d_29">
      <g>
       <use style="stroke:#000000;stroke-width:0.6;" x="318.269159" xlink:href="#mb45db3c86a" y="252"/>
      </g>
     </g>
    </g>
    <g id="xtick_30">
     <g id="line2d_30">
      <g>
       <use style="stroke:#000000;stroke-width:0.6;" x="323.345592" xlink:href="#mb45db3c86a" y="252"/>
      </g>
     </g>
    </g>
    <g id="xtick_31">
     <g id="line2d_31">
      <g>
       <use style="stroke:#000000;stroke-width:0.6;" x="327.823324" xlink:href="#mb45db3c86a" y="252"/>
      </g>
     </g>
    </g>
    <g id="xtick_32">
     <g id="line2d_32">
      <g>
       <use style="stroke:#000000;stroke-width:0.6;" x="358.180015" xlink:href="#mb45db3c86a" y="252"/>
      </g>
     </g>
    </g>
    <g id="xtick_33">
     <g id="line2d_33">
      <g>
       <use style="stroke:#000000;stroke-width:0.6;" x="373.594493" xlink:href="#mb45db3c86a" y="252"/>
      </g>
     </g>
    </g>
    <g id="xtick_34">
     <g id="line2d_34">
      <g>
       <use style="stroke:#000000;stroke-width:0.6;" x="384.531238" xlink:href="#mb45db3c86a" y="252"/>
      </g>
     </g>
    </g>
    <g id="text_5">
     <!-- Iterations -->
     <g transform="translate(197.586719 280.276563)scale(0.1 -0.1)">
      <defs>
       <path d="M 628 4666 
L 1259 4666 
L 1259 0 
L 628 0 
L 628 4666 
z
" id="DejaVuSans-49" transform="scale(0.015625)"/>
       <path d="M 1172 4494 
L 1172 3500 
L 2356 3500 
L 2356 3053 
L 1172 3053 
L 1172 1153 
Q 1172 725 1289 603 
Q 1406 481 1766 481 
L 2356 481 
L 2356 0 
L 1766 0 
Q 1100 0 847 248 
Q 594 497 594 1153 
L 594 3053 
L 172 3053 
L 172 3500 
L 594 3500 
L 594 4494 
L 1172 4494 
z
" id="DejaVuSans-74" transform="scale(0.015625)"/>
       <path d="M 3597 1894 
L 3597 1613 
L 953 1613 
Q 991 1019 1311 708 
Q 1631 397 2203 397 
Q 2534 397 2845 478 
Q 3156 559 3463 722 
L 3463 178 
Q 3153 47 2828 -22 
Q 2503 -91 2169 -91 
Q 1331 -91 842 396 
Q 353 884 353 1716 
Q 353 2575 817 3079 
Q 1281 3584 2069 3584 
Q 2775 3584 3186 3129 
Q 3597 2675 3597 1894 
z
M 3022 2063 
Q 3016 2534 2758 2815 
Q 2500 3097 2075 3097 
Q 1594 3097 1305 2825 
Q 1016 2553 972 2059 
L 3022 2063 
z
" id="DejaVuSans-65" transform="scale(0.015625)"/>
       <path d="M 2631 2963 
Q 2534 3019 2420 3045 
Q 2306 3072 2169 3072 
Q 1681 3072 1420 2755 
Q 1159 2438 1159 1844 
L 1159 0 
L 581 0 
L 581 3500 
L 1159 3500 
L 1159 2956 
Q 1341 3275 1631 3429 
Q 1922 3584 2338 3584 
Q 2397 3584 2469 3576 
Q 2541 3569 2628 3553 
L 2631 2963 
z
" id="DejaVuSans-72" transform="scale(0.015625)"/>
       <path d="M 2194 1759 
Q 1497 1759 1228 1600 
Q 959 1441 959 1056 
Q 959 750 1161 570 
Q 1363 391 1709 391 
Q 2188 391 2477 730 
Q 2766 1069 2766 1631 
L 2766 1759 
L 2194 1759 
z
M 3341 1997 
L 3341 0 
L 2766 0 
L 2766 531 
Q 2569 213 2275 61 
Q 1981 -91 1556 -91 
Q 1019 -91 701 211 
Q 384 513 384 1019 
Q 384 1609 779 1909 
Q 1175 2209 1959 2209 
L 2766 2209 
L 2766 2266 
Q 2766 2663 2505 2880 
Q 2244 3097 1772 3097 
Q 1472 3097 1187 3025 
Q 903 2953 641 2809 
L 641 3341 
Q 956 3463 1253 3523 
Q 1550 3584 1831 3584 
Q 2591 3584 2966 3190 
Q 3341 2797 3341 1997 
z
" id="DejaVuSans-61" transform="scale(0.015625)"/>
       <path d="M 603 3500 
L 1178 3500 
L 1178 0 
L 603 0 
L 603 3500 
z
M 603 4863 
L 1178 4863 
L 1178 4134 
L 603 4134 
L 603 4863 
z
" id="DejaVuSans-69" transform="scale(0.015625)"/>
       <path d="M 1959 3097 
Q 1497 3097 1228 2736 
Q 959 2375 959 1747 
Q 959 1119 1226 758 
Q 1494 397 1959 397 
Q 2419 397 2687 759 
Q 2956 1122 2956 1747 
Q 2956 2369 2687 2733 
Q 2419 3097 1959 3097 
z
M 1959 3584 
Q 2709 3584 3137 3096 
Q 3566 2609 3566 1747 
Q 3566 888 3137 398 
Q 2709 -91 1959 -91 
Q 1206 -91 779 398 
Q 353 888 353 1747 
Q 353 2609 779 3096 
Q 1206 3584 1959 3584 
z
" id="DejaVuSans-6f" transform="scale(0.015625)"/>
       <path d="M 3513 2113 
L 3513 0 
L 2938 0 
L 2938 2094 
Q 2938 2591 2744 2837 
Q 2550 3084 2163 3084 
Q 1697 3084 1428 2787 
Q 1159 2491 1159 1978 
L 1159 0 
L 581 0 
L 581 3500 
L 1159 3500 
L 1159 2956 
Q 1366 3272 1645 3428 
Q 1925 3584 2291 3584 
Q 2894 3584 3203 3211 
Q 3513 2838 3513 2113 
z
" id="DejaVuSans-6e" transform="scale(0.015625)"/>
       <path d="M 2834 3397 
L 2834 2853 
Q 2591 2978 2328 3040 
Q 2066 3103 1784 3103 
Q 1356 3103 1142 2972 
Q 928 2841 928 2578 
Q 928 2378 1081 2264 
Q 1234 2150 1697 2047 
L 1894 2003 
Q 2506 1872 2764 1633 
Q 3022 1394 3022 966 
Q 3022 478 2636 193 
Q 2250 -91 1575 -91 
Q 1294 -91 989 -36 
Q 684 19 347 128 
L 347 722 
Q 666 556 975 473 
Q 1284 391 1588 391 
Q 1994 391 2212 530 
Q 2431 669 2431 922 
Q 2431 1156 2273 1281 
Q 2116 1406 1581 1522 
L 1381 1569 
Q 847 1681 609 1914 
Q 372 2147 372 2553 
Q 372 3047 722 3315 
Q 1072 3584 1716 3584 
Q 2034 3584 2315 3537 
Q 2597 3491 2834 3397 
z
" id="DejaVuSans-73" transform="scale(0.015625)"/>
      </defs>
      <use xlink:href="#DejaVuSans-49"/>
      <use x="29.492188" xlink:href="#DejaVuSans-74"/>
      <use x="68.701172" xlink:href="#DejaVuSans-65"/>
      <use x="130.224609" xlink:href="#DejaVuSans-72"/>
      <use x="171.337891" xlink:href="#DejaVuSans-61"/>
      <use x="232.617188" xlink:href="#DejaVuSans-74"/>
      <use x="271.826172" xlink:href="#DejaVuSans-69"/>
      <use x="299.609375" xlink:href="#DejaVuSans-6f"/>
      <use x="360.791016" xlink:href="#DejaVuSans-6e"/>
      <use x="424.169922" xlink:href="#DejaVuSans-73"/>
     </g>
    </g>
   </g>
   <g id="matplotlib.axis_2">
    <g id="ytick_1">
     <g id="line2d_35">
      <defs>
       <path d="M 0 0 
L -3.5 0 
" id="m148577a2e3" style="stroke:#000000;stroke-width:0.8;"/>
      </defs>
      <g>
       <use style="stroke:#000000;stroke-width:0.8;" x="54" xlink:href="#m148577a2e3" y="251.117702"/>
      </g>
     </g>
     <g id="text_6">
      <!-- $\mathdefault{10^{-4}}$ -->
      <g transform="translate(23.5 254.916921)scale(0.1 -0.1)">
       <defs>
        <path d="M 678 2272 
L 4684 2272 
L 4684 1741 
L 678 1741 
L 678 2272 
z
" id="DejaVuSans-2212" transform="scale(0.015625)"/>
        <path d="M 2419 4116 
L 825 1625 
L 2419 1625 
L 2419 4116 
z
M 2253 4666 
L 3047 4666 
L 3047 1625 
L 3713 1625 
L 3713 1100 
L 3047 1100 
L 3047 0 
L 2419 0 
L 2419 1100 
L 313 1100 
L 313 1709 
L 2253 4666 
z
" id="DejaVuSans-34" transform="scale(0.015625)"/>
       </defs>
       <use transform="translate(0 0.684375)" xlink:href="#DejaVuSans-31"/>
       <use transform="translate(63.623047 0.684375)" xlink:href="#DejaVuSans-30"/>
       <use transform="translate(128.203125 38.965625)scale(0.7)" xlink:href="#DejaVuSans-2212"/>
       <use transform="translate(186.855469 38.965625)scale(0.7)" xlink:href="#DejaVuSans-34"/>
      </g>
     </g>
    </g>
    <g id="ytick_2">
     <g id="line2d_36">
      <g>
       <use style="stroke:#000000;stroke-width:0.8;" x="54" xlink:href="#m148577a2e3" y="198.872337"/>
      </g>
     </g>
     <g id="text_7">
      <!-- $\mathdefault{10^{-3}}$ -->
      <g transform="translate(23.5 202.671556)scale(0.1 -0.1)">
       <use transform="translate(0 0.765625)" xlink:href="#DejaVuSans-31"/>
       <use transform="translate(63.623047 0.765625)" xlink:href="#DejaVuSans-30"/>
       <use transform="translate(128.203125 39.046875)scale(0.7)" xlink:href="#DejaVuSans-2212"/>
       <use transform="translate(186.855469 39.046875)scale(0.7)" xlink:href="#DejaVuSans-33"/>
      </g>
     </g>
    </g>
    <g id="ytick_3">
     <g id="line2d_37">
      <g>
       <use style="stroke:#000000;stroke-width:0.8;" x="54" xlink:href="#m148577a2e3" y="146.626972"/>
      </g>
     </g>
     <g id="text_8">
      <!-- $\mathdefault{10^{-2}}$ -->
      <g transform="translate(23.5 150.426191)scale(0.1 -0.1)">
       <use transform="translate(0 0.765625)" xlink:href="#DejaVuSans-31"/>
       <use transform="translate(63.623047 0.765625)" xlink:href="#DejaVuSans-30"/>
       <use transform="translate(128.203125 39.046875)scale(0.7)" xlink:href="#DejaVuSans-2212"/>
       <use transform="translate(186.855469 39.046875)scale(0.7)" xlink:href="#DejaVuSans-32"/>
      </g>
     </g>
    </g>
    <g id="ytick_4">
     <g id="line2d_38">
      <g>
       <use style="stroke:#000000;stroke-width:0.8;" x="54" xlink:href="#m148577a2e3" y="94.381607"/>
      </g>
     </g>
     <g id="text_9">
      <!-- $\mathdefault{10^{-1}}$ -->
      <g transform="translate(23.5 98.180825)scale(0.1 -0.1)">
       <use transform="translate(0 0.684375)" xlink:href="#DejaVuSans-31"/>
       <use transform="translate(63.623047 0.684375)" xlink:href="#DejaVuSans-30"/>
       <use transform="translate(128.203125 38.965625)scale(0.7)" xlink:href="#DejaVuSans-2212"/>
       <use transform="translate(186.855469 38.965625)scale(0.7)" xlink:href="#DejaVuSans-31"/>
      </g>
     </g>
    </g>
    <g id="ytick_5">
     <g id="line2d_39">
      <g>
       <use style="stroke:#000000;stroke-width:0.8;" x="54" xlink:href="#m148577a2e3" y="42.136241"/>
      </g>
     </g>
     <g id="text_10">
      <!-- $\mathdefault{10^{0}}$ -->
      <g transform="translate(29.4 45.93546)scale(0.1 -0.1)">
       <use transform="translate(0 0.765625)" xlink:href="#DejaVuSans-31"/>
       <use transform="translate(63.623047 0.765625)" xlink:href="#DejaVuSans-30"/>
       <use transform="translate(128.203125 39.046875)scale(0.7)" xlink:href="#DejaVuSans-30"/>
      </g>
     </g>
    </g>
    <g id="ytick_6">
     <g id="line2d_40">
      <defs>
       <path d="M 0 0 
L -2 0 
" id="mb6a02c8108" style="stroke:#000000;stroke-width:0.6;"/>
      </defs>
      <g>
       <use style="stroke:#000000;stroke-width:0.6;" x="54" xlink:href="#mb6a02c8108" y="235.39028"/>
      </g>
     </g>
    </g>
    <g id="ytick_7">
     <g id="line2d_41">
      <g>
       <use style="stroke:#000000;stroke-width:0.6;" x="54" xlink:href="#mb6a02c8108" y="226.190328"/>
      </g>
     </g>
    </g>
    <g id="ytick_8">
     <g id="line2d_42">
      <g>
       <use style="stroke:#000000;stroke-width:0.6;" x="54" xlink:href="#mb6a02c8108" y="219.662858"/>
      </g>
     </g>
    </g>
    <g id="ytick_9">
     <g id="line2d_43">
      <g>
       <use style="stroke:#000000;stroke-width:0.6;" x="54" xlink:href="#mb6a02c8108" y="214.599759"/>
      </g>
     </g>
    </g>
    <g id="ytick_10">
     <g id="line2d_44">
      <g>
       <use style="stroke:#000000;stroke-width:0.6;" x="54" xlink:href="#mb6a02c8108" y="210.462906"/>
      </g>
     </g>
    </g>
    <g id="ytick_11">
     <g id="line2d_45">
      <g>
       <use style="stroke:#000000;stroke-width:0.6;" x="54" xlink:href="#mb6a02c8108" y="206.965247"/>
      </g>
     </g>
    </g>
    <g id="ytick_12">
     <g id="line2d_46">
      <g>
       <use style="stroke:#000000;stroke-width:0.6;" x="54" xlink:href="#mb6a02c8108" y="203.935436"/>
      </g>
     </g>
    </g>
    <g id="ytick_13">
     <g id="line2d_47">
      <g>
       <use style="stroke:#000000;stroke-width:0.6;" x="54" xlink:href="#mb6a02c8108" y="201.262954"/>
      </g>
     </g>
    </g>
    <g id="ytick_14">
     <g id="line2d_48">
      <g>
       <use style="stroke:#000000;stroke-width:0.6;" x="54" xlink:href="#mb6a02c8108" y="183.144915"/>
      </g>
     </g>
    </g>
    <g id="ytick_15">
     <g id="line2d_49">
      <g>
       <use style="stroke:#000000;stroke-width:0.6;" x="54" xlink:href="#mb6a02c8108" y="173.944963"/>
      </g>
     </g>
    </g>
    <g id="ytick_16">
     <g id="line2d_50">
      <g>
       <use style="stroke:#000000;stroke-width:0.6;" x="54" xlink:href="#mb6a02c8108" y="167.417493"/>
      </g>
     </g>
    </g>
    <g id="ytick_17">
     <g id="line2d_51">
      <g>
       <use style="stroke:#000000;stroke-width:0.6;" x="54" xlink:href="#mb6a02c8108" y="162.354394"/>
      </g>
     </g>
    </g>
    <g id="ytick_18">
     <g id="line2d_52">
      <g>
       <use style="stroke:#000000;stroke-width:0.6;" x="54" xlink:href="#mb6a02c8108" y="158.217541"/>
      </g>
     </g>
    </g>
    <g id="ytick_19">
     <g id="line2d_53">
      <g>
       <use style="stroke:#000000;stroke-width:0.6;" x="54" xlink:href="#mb6a02c8108" y="154.719881"/>
      </g>
     </g>
    </g>
    <g id="ytick_20">
     <g id="line2d_54">
      <g>
       <use style="stroke:#000000;stroke-width:0.6;" x="54" xlink:href="#mb6a02c8108" y="151.690071"/>
      </g>
     </g>
    </g>
    <g id="ytick_21">
     <g id="line2d_55">
      <g>
       <use style="stroke:#000000;stroke-width:0.6;" x="54" xlink:href="#mb6a02c8108" y="149.017589"/>
      </g>
     </g>
    </g>
    <g id="ytick_22">
     <g id="line2d_56">
      <g>
       <use style="stroke:#000000;stroke-width:0.6;" x="54" xlink:href="#mb6a02c8108" y="130.89955"/>
      </g>
     </g>
    </g>
    <g id="ytick_23">
     <g id="line2d_57">
      <g>
       <use style="stroke:#000000;stroke-width:0.6;" x="54" xlink:href="#mb6a02c8108" y="121.699598"/>
      </g>
     </g>
    </g>
    <g id="ytick_24">
     <g id="line2d_58">
      <g>
       <use style="stroke:#000000;stroke-width:0.6;" x="54" xlink:href="#mb6a02c8108" y="115.172128"/>
      </g>
     </g>
    </g>
    <g id="ytick_25">
     <g id="line2d_59">
      <g>
       <use style="stroke:#000000;stroke-width:0.6;" x="54" xlink:href="#mb6a02c8108" y="110.109029"/>
      </g>
     </g>
    </g>
    <g id="ytick_26">
     <g id="line2d_60">
      <g>
       <use style="stroke:#000000;stroke-width:0.6;" x="54" xlink:href="#mb6a02c8108" y="105.972176"/>
      </g>
     </g>
    </g>
    <g id="ytick_27">
     <g id="line2d_61">
      <g>
       <use style="stroke:#000000;stroke-width:0.6;" x="54" xlink:href="#mb6a02c8108" y="102.474516"/>
      </g>
     </g>
    </g>
    <g id="ytick_28">
     <g id="line2d_62">
      <g>
       <use style="stroke:#000000;stroke-width:0.6;" x="54" xlink:href="#mb6a02c8108" y="99.444706"/>
      </g>
     </g>
    </g>
    <g id="ytick_29">
     <g id="line2d_63">
      <g>
       <use style="stroke:#000000;stroke-width:0.6;" x="54" xlink:href="#mb6a02c8108" y="96.772224"/>
      </g>
     </g>
    </g>
    <g id="ytick_30">
     <g id="line2d_64">
      <g>
       <use style="stroke:#000000;stroke-width:0.6;" x="54" xlink:href="#mb6a02c8108" y="78.654185"/>
      </g>
     </g>
    </g>
    <g id="ytick_31">
     <g id="line2d_65">
      <g>
       <use style="stroke:#000000;stroke-width:0.6;" x="54" xlink:href="#mb6a02c8108" y="69.454232"/>
      </g>
     </g>
    </g>
    <g id="ytick_32">
     <g id="line2d_66">
      <g>
       <use style="stroke:#000000;stroke-width:0.6;" x="54" xlink:href="#mb6a02c8108" y="62.926763"/>
      </g>
     </g>
    </g>
    <g id="ytick_33">
     <g id="line2d_67">
      <g>
       <use style="stroke:#000000;stroke-width:0.6;" x="54" xlink:href="#mb6a02c8108" y="57.863664"/>
      </g>
     </g>
    </g>
    <g id="ytick_34">
     <g id="line2d_68">
      <g>
       <use style="stroke:#000000;stroke-width:0.6;" x="54" xlink:href="#mb6a02c8108" y="53.72681"/>
      </g>
     </g>
    </g>
    <g id="ytick_35">
     <g id="line2d_69">
      <g>
       <use style="stroke:#000000;stroke-width:0.6;" x="54" xlink:href="#mb6a02c8108" y="50.229151"/>
      </g>
     </g>
    </g>
    <g id="ytick_36">
     <g id="line2d_70">
      <g>
       <use style="stroke:#000000;stroke-width:0.6;" x="54" xlink:href="#mb6a02c8108" y="47.19934"/>
      </g>
     </g>
    </g>
    <g id="ytick_37">
     <g id="line2d_71">
      <g>
       <use style="stroke:#000000;stroke-width:0.6;" x="54" xlink:href="#mb6a02c8108" y="44.526858"/>
      </g>
     </g>
    </g>
    <g id="text_11">
     <!-- Loss -->
     <g transform="translate(17.420313 154.247187)rotate(-90)scale(0.1 -0.1)">
      <defs>
       <path d="M 628 4666 
L 1259 4666 
L 1259 531 
L 3531 531 
L 3531 0 
L 628 0 
L 628 4666 
z
" id="DejaVuSans-4c" transform="scale(0.015625)"/>
      </defs>
      <use xlink:href="#DejaVuSans-4c"/>
      <use x="53.962891" xlink:href="#DejaVuSans-6f"/>
      <use x="115.144531" xlink:href="#DejaVuSans-73"/>
      <use x="167.244141" xlink:href="#DejaVuSans-73"/>
     </g>
    </g>
   </g>
   <g id="line2d_72">
    <path clip-path="url(#p9ed1ea8411)" d="M -1 67.838302 
L 95.569405 67.904815 
L 121.920629 68.072866 
L 130.403828 67.978302 
L 137.335107 67.554617 
L 143.195419 66.744558 
L 148.271852 65.507288 
L 152.749584 64.20141 
L 160.378438 61.427256 
L 163.68633 60.445851 
L 169.546643 59.315525 
L 172.169529 59.168722 
L 174.623076 59.391733 
L 176.927829 60.033308 
L 179.100808 61.065575 
L 183.106275 63.84668 
L 184.96112 65.535476 
L 186.729661 67.436451 
L 190.037554 72.082636 
L 194.515285 79.451912 
L 195.897866 81.849014 
L 200.9743 92.084734 
L 203.279052 97.536515 
L 205.452031 103.449062 
L 207.507493 109.999177 
L 209.457499 117.210772 
L 211.312344 125.20924 
L 213.080885 133.772945 
L 216.388777 150.543098 
L 217.940698 156.807294 
L 218.69353 159.18262 
L 219.431743 161.004069 
L 220.155894 162.203798 
L 220.866509 163.03826 
L 221.564084 163.427726 
L 222.24909 163.515391 
L 222.921971 163.398962 
L 223.583149 162.971449 
L 224.871976 161.62855 
L 225.500367 160.674996 
L 226.11854 159.529129 
L 227.325523 156.434009 
L 227.914942 154.55788 
L 228.495362 152.282801 
L 229.067054 149.506042 
L 230.185275 141.804713 
L 231.271543 130.975627 
L 232.327633 117.849702 
L 234.355675 91.222539 
L 235.808722 74.941412 
L 236.747456 66.140226 
L 238.113475 56.357801 
L 238.997626 51.794583 
L 239.861681 48.301681 
L 240.706533 45.888569 
L 241.533017 44.790823 
L 242.341916 44.443636 
L 242.740001 44.575997 
L 243.133961 44.890078 
L 243.52388 45.434802 
L 244.291922 47.000133 
L 245.415652 50.332229 
L 246.507118 54.157286 
L 248.938242 62.259306 
L 249.934372 64.424305 
L 250.905066 66.036063 
L 252.161934 67.371188 
L 253.078045 67.989194 
L 254.557484 68.597705 
L 256.260012 69.063479 
L 263.787824 70.784159 
L 265.129732 71.046816 
L 266.212905 71.060368 
L 267.473245 71.019331 
L 270.261064 71.56712 
L 271.209162 71.508112 
L 271.950977 71.310644 
L 272.678593 71.307681 
L 273.215309 71.095794 
L 274.781439 70.643516 
L 275.120877 70.608777 
L 275.457311 70.468202 
L 275.624418 70.480261 
L 276.774041 69.597642 
L 277.889917 68.298964 
L 278.046688 68.238138 
L 278.358302 67.960865 
L 278.973972 67.783358 
L 279.278108 67.722725 
L 280.176184 67.997044 
L 281.341541 67.533041 
L 282.472234 66.34506 
L 283.025215 66.523116 
L 283.434736 66.690167 
L 284.107617 66.772523 
L 284.37347 66.693835 
L 285.160052 66.663293 
L 285.41867 66.869752 
L 285.675541 67.06817 
L 287.181353 68.747318 
L 287.791587 69.407684 
L 288.511169 70.296122 
L 290.025054 71.464603 
L 291.038895 71.725078 
L 291.700073 71.633394 
L 292.670767 71.827842 
L 293.199521 71.643338 
L 293.721021 71.280502 
L 293.927635 71.257135 
L 294.337523 71.086217 
L 294.743039 71.023268 
L 295.243926 70.959041 
L 296.129221 69.474509 
L 296.612287 69.20329 
L 297.089292 69.381799 
L 297.466633 69.275328 
L 298.393917 67.802859 
L 298.849214 67.405318 
L 299.566533 67.391149 
L 300.531255 66.420248 
L 300.704058 66.351908 
L 302.800333 68.735592 
L 303.447442 69.929044 
L 303.766913 70.134345 
L 304.083721 70.009384 
L 304.241141 69.979288 
L 304.554038 70.188461 
L 305.018607 70.496284 
L 305.477568 69.902059 
L 305.931054 69.950803 
L 307.041652 71.964781 
L 307.404757 71.850958 
L 308.120725 71.030054 
L 308.403379 71.005696 
L 309.238946 71.39367 
L 309.921492 70.163001 
L 310.392086 69.047365 
L 310.591999 68.853215 
L 310.92287 68.495059 
L 311.120018 68.468849 
L 311.446345 68.488087 
L 311.640804 68.446417 
L 311.769894 68.340122 
L 312.345432 67.194463 
L 312.408846 67.264134 
L 312.72434 67.622132 
L 313.161678 68.32717 
L 313.471011 68.828268 
L 313.65541 68.94305 
L 314.323987 68.278214 
L 314.504305 68.293194 
L 314.98101 68.965335 
L 315.974587 69.807319 
L 316.319153 70.43308 
L 316.376278 70.402185 
L 316.54714 70.398082 
L 317.223012 70.493306 
L 317.501117 70.546832 
L 318.701172 70.463839 
L 319.392889 70.80859 
L 319.603218 70.558697 
L 319.707947 70.319957 
L 320.124004 69.115396 
L 320.381745 68.969226 
L 320.739673 69.285868 
L 321.19497 68.693249 
L 321.495499 68.46949 
L 321.941885 68.377995 
L 322.089523 68.734898 
L 322.431799 69.544387 
L 322.62601 69.657625 
L 322.722745 69.592493 
L 322.867387 69.636888 
L 323.250431 69.638374 
L 323.345592 69.58519 
L 323.629654 69.204533 
L 324.005132 68.983458 
L 324.237936 68.745351 
L 324.284326 68.812591 
L 324.469323 69.017509 
L 325.155152 69.870093 
L 325.38104 69.937942 
L 325.560788 70.117403 
L 325.962142 70.646502 
L 326.403177 70.883309 
L 326.578168 70.717383 
L 326.839154 70.430511 
L 327.012155 70.328911 
L 327.313024 70.108314 
L 327.738748 70.309321 
L 327.823324 70.218226 
L 328.159758 69.879071 
L 328.201603 69.949478 
L 328.285157 69.87351 
L 328.617546 69.081322 
L 328.823823 68.602813 
L 328.864945 68.64891 
L 328.988043 68.698703 
L 329.110744 68.957123 
L 329.476488 69.4035 
L 329.637918 69.315945 
L 330.03852 68.462123 
L 330.316451 68.601361 
L 330.513736 68.948055 
L 330.749135 69.145174 
L 331.021937 69.503009 
L 331.06075 69.478299 
L 331.138256 69.420057 
L 331.25422 69.202398 
L 331.71457 68.162575 
L 331.790756 68.250092 
L 332.018402 68.700127 
L 332.544334 69.963971 
L 332.804596 70.246605 
L 333.210014 70.212841 
L 333.502172 69.796286 
L 333.538534 69.825632 
L 333.719826 70.217757 
L 333.97219 70.755811 
L 334.008106 70.795458 
L 334.079836 70.714866 
L 334.329829 70.483719 
L 334.754602 69.084865 
L 334.895145 69.509966 
L 335.070096 69.82445 
L 335.139852 69.795485 
L 335.693336 68.52809 
L 335.796223 68.75299 
L 336.103224 69.259188 
L 336.20501 69.17859 
L 336.50874 68.768355 
L 336.542339 68.802376 
L 336.843397 69.574521 
L 336.97644 69.639724 
L 337.075917 69.541416 
L 337.241135 69.328207 
L 337.438455 69.343314 
L 337.569434 69.572246 
L 337.732527 69.75437 
L 337.927319 69.87638 
L 338.088886 69.550697 
L 338.313933 68.801846 
L 338.441936 68.975727 
L 338.791737 70.178704 
L 338.886582 70.145505 
L 339.012674 70.058619 
L 339.169703 70.149479 
L 339.326087 70.0683 
L 339.543949 70.336275 
L 340.067901 70.264265 
L 340.281565 70.050877 
L 340.311991 70.086832 
L 340.372769 70.10245 
L 340.403122 70.041576 
L 340.675211 69.609333 
L 340.945367 68.930476 
L 340.975266 68.96316 
L 341.213617 69.118292 
L 341.243306 69.078621 
L 341.391404 68.895825 
L 341.656535 69.138731 
L 341.803036 68.852537 
L 341.832268 68.907004 
L 341.948974 68.864237 
L 342.123363 68.589259 
L 342.15235 68.620838 
L 342.23918 68.566085 
L 342.584527 68.36902 
L 343.265952 69.999777 
L 343.434416 69.980783 
L 343.796882 69.067275 
L 343.907718 69.359986 
L 344.183403 70.207887 
L 344.457103 70.155305 
L 344.53883 70.169634 
L 344.647527 70.044003 
L 344.674653 70.088218 
L 344.809992 70.103136 
L 345.239869 69.692959 
L 345.266575 69.766629 
L 345.479555 69.915456 
L 345.585599 70.085249 
L 345.691348 70.228257 
L 345.71774 70.188554 
L 345.796804 70.025076 
L 346.006842 69.501363 
L 346.111427 69.439062 
L 346.137529 69.453988 
L 346.241756 69.494052 
L 346.732969 68.577407 
L 346.912354 68.803653 
L 346.963452 68.771572 
L 347.014481 68.817498 
L 347.065442 68.857489 
L 347.268605 69.277339 
L 347.293924 69.240091 
L 347.395033 69.204342 
L 347.420268 69.245913 
L 347.646634 69.688051 
L 347.721791 69.810057 
L 347.74681 69.747176 
L 347.87166 69.211102 
L 348.070571 68.490945 
L 348.095362 68.54982 
L 348.831668 70.313151 
L 348.904521 70.244164 
L 349.073969 69.895751 
L 349.242665 69.52199 
L 349.266703 69.571263 
L 349.506255 70.426066 
L 349.530127 70.376657 
L 349.625467 70.339859 
L 349.649265 70.380346 
L 349.839112 70.682973 
L 350.309623 69.043765 
L 350.40303 69.123318 
L 350.426346 69.057434 
L 350.843608 69.744406 
L 350.912708 69.94202 
L 350.981683 69.890971 
L 351.096364 69.765694 
L 351.301923 69.340833 
L 351.642069 68.68178 
L 351.77728 68.181317 
L 351.799769 68.277093 
L 352.090915 69.691148 
L 352.113219 69.739138 
L 352.157787 69.692454 
L 352.180051 69.588944 
L 352.246767 69.717825 
L 352.26898 69.697971 
L 352.556568 69.815067 
L 352.5786 69.770606 
L 352.841997 69.03786 
L 352.88572 69.188935 
L 353.016586 69.348731 
L 353.081851 69.302905 
L 353.255345 69.029253 
L 353.276976 69.01062 
L 353.298595 69.044916 
L 353.599976 70.498796 
L 353.664247 70.414807 
L 353.94151 69.516899 
L 354.047613 69.124689 
L 354.195662 68.3752 
L 354.216765 68.41735 
L 354.53191 69.601843 
L 354.906668 70.491072 
L 354.92738 70.464282 
L 354.96877 70.454891 
L 355.318778 69.262535 
L 355.441545 69.140836 
L 355.461967 69.226128 
L 355.645279 69.776376 
L 355.827711 70.630814 
L 355.847928 70.613547 
L 356.329922 69.653609 
L 356.349873 69.666674 
L 356.528963 70.109912 
L 356.54881 70.08286 
L 356.588473 69.987285 
L 356.805881 68.939059 
L 356.884632 69.265725 
L 356.96322 69.466837 
L 357.002453 69.346972 
L 357.100358 68.896946 
L 357.13945 69.011372 
L 357.295417 69.993685 
L 357.334309 70.215389 
L 357.411973 70.097222 
L 357.528173 70.144697 
L 357.721054 70.595914 
L 357.759513 70.560311 
L 357.893814 70.242467 
L 358.084854 69.598506 
L 358.218013 69.613298 
L 358.445205 69.429334 
L 358.57711 69.292208 
L 359.044497 69.910348 
L 359.063073 69.883394 
L 359.266818 68.891405 
L 359.303745 68.658207 
L 359.377493 68.875566 
L 359.469476 69.345676 
L 359.542903 69.215636 
L 359.634488 68.799608 
L 359.707597 68.977396 
L 359.944236 69.877625 
L 360.052959 69.911068 
L 360.179411 70.182581 
L 360.25148 70.40642 
L 360.305443 70.360404 
L 360.431059 69.914016 
L 360.591958 69.219754 
L 360.627621 69.343513 
L 360.76994 69.550607 
L 361.035359 70.969025 
L 361.088221 70.866171 
L 361.2639 70.258293 
L 361.281423 70.287845 
L 361.403861 70.642138 
L 361.438771 70.564448 
L 361.768825 68.949047 
L 361.87246 69.023382 
L 362.027385 69.490144 
L 362.078886 69.457365 
L 362.096038 69.43313 
L 362.130318 69.520864 
L 362.147447 69.527575 
L 362.198786 69.433387 
L 362.232974 69.408224 
L 362.284198 69.501769 
L 362.301257 69.463696 
L 362.403453 69.623504 
L 362.437457 69.495906 
L 362.691524 69.178572 
L 362.80951 69.182162 
L 362.943905 69.320361 
L 362.960671 69.273506 
L 363.010924 69.25618 
L 363.027661 69.31629 
L 363.277827 69.580212 
L 363.42714 69.571013 
L 363.542869 69.294685 
L 363.559373 69.33092 
L 363.625317 69.548063 
L 363.6747 69.360805 
L 363.707586 69.261199 
L 363.838849 68.506144 
L 363.887955 68.601745 
L 363.920658 68.675664 
L 363.985979 68.962231 
L 364.051188 68.950141 
L 364.067472 68.917167 
L 364.100021 69.008737 
L 364.132542 68.998022 
L 364.165035 69.061767 
L 364.1975 68.938728 
L 364.229938 68.858679 
L 364.278542 68.927318 
L 364.407851 69.35881 
L 364.44011 69.333498 
L 364.5528 69.212815 
L 364.584936 69.324648 
L 364.729212 69.478866 
L 364.80913 69.543201 
L 364.984359 70.597896 
L 365.047879 70.298248 
L 365.237805 68.789906 
L 365.316662 68.98406 
L 365.363897 69.20825 
L 365.442493 69.114215 
L 365.473886 69.022268 
L 365.520927 69.164634 
L 365.895172 69.98674 
L 365.941695 69.903328 
L 366.111793 69.215975 
L 366.327186 69.742959 
L 366.541365 70.468878 
L 366.754345 69.944763 
L 366.966138 68.670498 
L 366.996298 68.720359 
L 367.026435 68.58158 
L 367.041494 68.601682 
L 367.086635 68.525046 
L 367.131723 68.678624 
L 367.475634 70.123905 
L 367.490516 70.115604 
L 367.535128 70.165615 
L 367.56484 70.053152 
L 367.786945 68.940011 
L 367.845954 69.092795 
L 368.08108 70.36213 
L 368.1981 70.991188 
L 368.227298 70.973825 
L 368.329318 70.601886 
L 368.561482 69.178171 
L 368.633744 69.380469 
L 368.734679 70.208238 
L 368.806613 69.88519 
L 369.007305 68.513567 
L 369.050173 68.604277 
L 369.150011 69.374806 
L 369.263791 69.654905 
L 369.292183 69.626386 
L 369.348903 69.564564 
L 369.391388 69.661439 
L 369.490335 69.72557 
L 369.518558 69.649152 
L 369.560854 69.56936 
L 369.617175 69.689531 
L 369.701501 69.982615 
L 369.813645 70.207887 
L 369.855614 70.144509 
L 369.869593 70.163029 
L 369.897536 70.085147 
L 369.9115 70.106674 
L 370.050858 69.472411 
L 370.078668 69.629613 
L 370.217416 70.381658 
L 370.314239 70.067677 
L 370.410816 69.668633 
L 370.452131 69.809544 
L 370.52089 69.829963 
L 370.658035 68.548159 
L 370.712756 69.032259 
L 370.849212 70.095187 
L 370.903658 69.880532 
L 371.08007 68.755071 
L 371.120665 68.926366 
L 371.242189 69.29144 
L 371.269142 69.225345 
L 371.296075 69.208304 
L 371.32299 69.304616 
L 371.33644 69.300904 
L 371.430458 69.744722 
L 371.550997 70.040418 
L 371.790936 69.018071 
L 371.804221 69.049628 
L 372.082152 70.4999 
L 372.108516 70.455809 
L 372.187498 69.826814 
L 372.266317 70.128119 
L 372.344972 70.630182 
L 372.384239 70.33932 
L 372.475704 69.435114 
L 372.566949 69.592144 
L 372.618992 69.734763 
L 372.683944 69.618704 
L 372.722863 69.331435 
L 372.813518 69.480089 
L 372.852304 69.709206 
L 372.916859 69.488898 
L 373.032784 68.563248 
L 373.084193 68.668843 
L 373.173991 69.056295 
L 373.212411 68.939066 
L 373.454842 70.24295 
L 373.556457 69.859375 
L 373.581818 69.669609 
L 373.581818 69.669609 
" style="fill:none;stroke:#ffa500;stroke-linecap:square;stroke-width:1.5;"/>
   </g>
   <g id="line2d_73">
    <path clip-path="url(#p9ed1ea8411)" d="M -1 71.256921 
L 69.218182 71.256459 
L 95.569405 70.539255 
L 121.920629 68.184567 
L 143.195419 65.109023 
L 148.271852 65.433873 
L 152.749584 66.488301 
L 156.755052 68.10678 
L 160.378438 69.048131 
L 163.68633 70.21255 
L 166.729296 71.983582 
L 169.546643 74.473343 
L 172.169529 75.648029 
L 176.927829 79.708982 
L 179.100808 82.881479 
L 181.156269 85.096274 
L 184.96112 88.880154 
L 190.037554 94.51273 
L 191.589474 96.222961 
L 195.897866 101.618761 
L 197.231925 103.341057 
L 204.381065 113.916967 
L 213.93523 129.10858 
L 216.388777 132.412736 
L 218.69353 135.002131 
L 220.155894 136.408295 
L 222.24909 138.119987 
L 224.233024 139.451546 
L 226.726821 140.728486 
L 229.067054 141.517459 
L 231.803255 142.269343 
L 236.747456 143.186716 
L 241.122021 143.552212 
L 243.133961 143.58863 
L 245.415652 143.613848 
L 249.934372 143.384625 
L 254.266166 142.788021 
L 260.459231 141.443282 
L 261.197444 141.255334 
L 263.329785 140.806902 
L 270.068573 139.073716 
L 272.316525 138.322856 
L 273.568956 137.841696 
L 279.278108 135.468858 
L 287.548668 131.609739 
L 288.629787 131.090969 
L 290.025054 130.376404 
L 290.815922 129.92366 
L 294.439308 127.633512 
L 294.743039 127.342142 
L 300.531255 124.617644 
L 307.259931 120.317124 
L 307.692764 119.930998 
L 312.090712 117.494836 
L 312.72434 117.256861 
L 318.21481 114.683587 
L 318.647438 114.413527 
L 320.072245 113.323688 
L 320.688747 112.777549 
L 322.62601 111.375781 
L 324.69931 110.308504 
L 325.155152 110.073479 
L 326.839154 109.119382 
L 327.184371 108.948618 
L 327.907712 108.587557 
L 331.369831 107.630521 
L 331.676419 107.364538 
L 332.319825 107.113846 
L 333.319837 106.613002 
L 334.294216 106.115303 
L 335.139852 105.673778 
L 340.584731 104.08396 
L 341.597777 103.726706 
L 343.124992 103.392953 
L 344.3752 103.173946 
L 345.796804 102.640496 
L 346.397563 102.460598 
L 347.420268 102.237527 
L 350.16908 101.9247 
L 350.866655 101.959154 
L 351.506376 102.02801 
L 352.907562 102.179487 
L 354.448126 101.992087 
L 354.65724 101.911379 
L 354.906668 101.878275 
L 355.318778 101.800985 
L 355.787246 101.783624 
L 356.349873 101.715647 
L 357.411973 101.47289 
L 358.350707 101.106727 
L 358.652279 101.024043 
L 359.007317 100.982835 
L 359.52456 101.056247 
L 360.107204 101.079404 
L 360.840899 100.949154 
L 363.244566 99.901455 
L 363.806075 99.636421 
L 364.29473 99.548044 
L 364.84105 99.390003 
L 365.56791 99.24481 
L 366.019106 99.175644 
L 366.419125 99.103235 
L 366.739172 99.118954 
L 367.594529 99.249821 
L 368.125004 99.190551 
L 368.387492 99.158458 
L 368.907091 99.121983 
L 369.715537 99.099149 
L 369.9115 99.113947 
L 370.424592 99.126104 
L 370.616944 99.091229 
L 371.537623 98.770249 
L 371.737747 98.735011 
L 371.989734 98.690061 
L 373.44212 98.133801 
L 373.581818 98.104829 
L 373.581818 98.104829 
" style="fill:none;stroke:#b0dd2f;stroke-linecap:square;stroke-width:1.5;"/>
   </g>
   <g id="line2d_74">
    <path clip-path="url(#p9ed1ea8411)" d="M -1 72.660067 
L 95.569405 72.640733 
L 121.920629 72.144463 
L 137.335107 72.246347 
L 143.195419 72.606128 
L 152.749584 74.408732 
L 156.755052 75.416528 
L 160.378438 76.669804 
L 163.68633 77.98257 
L 166.729296 79.707606 
L 174.623076 85.054303 
L 176.927829 86.928065 
L 179.100808 88.524706 
L 184.96112 93.76711 
L 186.729661 95.362953 
L 191.589474 100.609492 
L 194.515285 104.274549 
L 197.231925 108.01729 
L 199.767316 111.826107 
L 202.144139 115.833669 
L 205.452031 122.22502 
L 209.457499 130.779108 
L 215.588394 144.272467 
L 217.172656 147.061563 
L 218.69353 149.372378 
L 220.155894 151.381663 
L 221.564084 152.912812 
L 222.921971 154.092565 
L 224.871976 155.452872 
L 226.726821 156.384101 
L 227.914942 156.897849 
L 230.185275 157.612693 
L 236.280987 158.871936 
L 242.341916 159.60358 
L 244.291922 159.647852 
L 245.415652 159.521664 
L 247.56812 159.65449 
L 250.584247 159.438883 
L 253.676747 159.252397 
L 256.536499 159.005219 
L 262.63221 157.68274 
L 264.687672 157.428981 
L 265.566712 157.385967 
L 266.425884 157.16059 
L 267.679298 156.753942 
L 268.492522 156.644366 
L 269.485184 156.312875 
L 271.950977 155.31924 
L 277.574424 152.645982 
L 279.278108 151.557923 
L 282.332723 149.752763 
L 286.686014 147.486227 
L 288.748035 145.865873 
L 290.139048 144.67722 
L 291.149893 143.895214 
L 292.349949 142.85748 
L 293.721021 141.491409 
L 295.144276 140.018529 
L 298.485414 136.405526 
L 299.655253 135.228342 
L 302.4726 132.338238 
L 304.476055 130.534155 
L 305.477568 129.639461 
L 307.692764 127.514017 
L 308.543922 126.764387 
L 309.238946 126.127335 
L 309.649942 125.788934 
L 311.31615 124.304117 
L 312.787126 123.318455 
L 315.510255 121.623692 
L 316.261942 121.07161 
L 318.32343 119.860813 
L 319.128331 119.377107 
L 321.094263 118.303352 
L 321.991162 117.798983 
L 322.963511 117.147003 
L 323.582458 116.761521 
L 325.560788 115.31607 
L 326.490773 114.580143 
L 327.398551 114.04285 
L 328.159758 113.869017 
L 330.788227 112.568399 
L 331.600004 112.339588 
L 333.099874 112.374684 
L 333.900257 112.396928 
L 336.171111 111.650223 
L 336.609447 111.743074 
L 337.894922 111.662957 
L 339.232334 111.130485 
L 340.645075 110.869666 
L 341.450482 110.756081 
L 343.040165 110.263441 
L 343.713542 110.059278 
L 344.3752 109.804276 
L 345.691348 109.246321 
L 346.449357 108.844859 
L 348.538855 107.527096 
L 349.338727 106.827263 
L 351.027597 106.225599 
L 351.709735 106.313269 
L 352.180051 106.22016 
L 354.594627 105.252298 
L 355.766998 104.518443 
L 356.647889 104.264282 
L 357.70181 103.934785 
L 358.633501 103.774357 
L 359.063073 103.608648 
L 360.269476 103.677751 
L 360.787692 103.739758 
L 361.768825 103.730054 
L 362.130318 103.666804 
L 366.357857 102.784525 
L 366.723992 102.696161 
L 367.071594 102.624203 
L 367.549987 102.593753 
L 368.300197 102.556839 
L 368.806613 102.549465 
L 369.715537 102.568828 
L 369.953361 102.545576 
L 371.44387 102.217001 
L 371.697806 102.177809 
L 372.187498 102.050301 
L 372.839379 101.963987 
L 373.276359 101.844278 
L 373.581818 101.779605 
L 373.581818 101.779605 
" style="fill:none;stroke:#69cd5b;stroke-linecap:square;stroke-width:1.5;"/>
   </g>
   <g id="line2d_75">
    <path clip-path="url(#p9ed1ea8411)" d="M -1 71.402003 
L 69.218182 71.402636 
L 95.569405 71.561262 
L 110.983883 71.800265 
L 121.920629 71.795181 
L 130.403828 71.913311 
L 143.195419 72.453574 
L 148.271852 73.161017 
L 152.749584 73.926868 
L 156.755052 74.761665 
L 160.378438 76.028818 
L 163.68633 78.313408 
L 166.729296 79.804048 
L 169.546643 81.54922 
L 176.927829 86.606204 
L 184.96112 93.536054 
L 190.037554 99.011199 
L 193.08052 102.666479 
L 195.897866 106.441686 
L 198.520753 110.336049 
L 200.9743 114.520474 
L 203.279052 118.789213 
L 206.493652 125.464438 
L 209.457499 132.19474 
L 217.172656 150.021382 
L 218.69353 152.791386 
L 220.155894 155.118187 
L 222.921971 158.671113 
L 224.233024 159.978979 
L 227.325523 162.368443 
L 230.185275 163.996568 
L 234.355675 165.915698 
L 238.997626 167.547737 
L 241.122021 168.095169 
L 244.670201 168.829805 
L 248.938242 169.350734 
L 252.775121 169.420771 
L 255.9815 168.988565 
L 257.354096 168.790351 
L 258.678856 168.65716 
L 262.396811 168.020678 
L 264.24041 167.41216 
L 269.091224 165.450306 
L 270.643145 164.727226 
L 272.49799 163.796147 
L 275.624418 162.05996 
L 282.332723 157.502265 
L 283.705319 156.507757 
L 284.899662 155.661913 
L 286.810455 153.997094 
L 287.670322 153.225925 
L 289.681009 151.657237 
L 291.038895 150.750695 
L 295.343317 147.782316 
L 300.183273 144.703656 
L 304.241141 141.769393 
L 306.968613 139.507755 
L 308.049732 138.568227 
L 308.683947 138.082619 
L 309.989077 137.102742 
L 311.769894 135.881576 
L 314.021545 134.407683 
L 319.021991 131.658507 
L 319.812389 131.279318 
L 321.245223 130.583382 
L 323.911609 129.533824 
L 325.06442 129.119211 
L 326.05076 128.778222 
L 328.988043 128.29873 
L 330.395488 127.578743 
L 331.06075 127.127193 
L 331.71457 126.580253 
L 332.507008 125.966093 
L 333.647413 125.317599 
L 336.407766 123.936524 
L 338.185498 123.43509 
L 341.803036 121.805299 
L 342.23918 121.60781 
L 343.237802 121.378897 
L 343.657881 121.433126 
L 344.674653 121.538256 
L 345.823122 121.208682 
L 349.76803 119.922657 
L 350.239416 119.86126 
L 350.912708 119.582994 
L 351.596892 119.339981 
L 353.276976 118.749933 
L 354.005207 118.476482 
L 354.740565 118.243333 
L 355.257245 118.087854 
L 355.908512 117.967401 
L 356.54881 117.937247 
L 357.431364 117.646108 
L 358.482939 117.175935 
L 358.932847 117.026887 
L 359.395907 116.959746 
L 360.071049 116.836755 
L 360.752179 116.73916 
L 361.333945 116.805527 
L 362.232974 116.913914 
L 363.822466 116.548062 
L 364.649126 116.406373 
L 365.630463 116.198236 
L 366.096361 116.143778 
L 366.357857 116.131488 
L 370.078668 115.125467 
L 370.971606 115.05399 
L 372.05577 114.690382 
L 373.122704 114.46197 
L 373.581818 114.38409 
L 373.581818 114.38409 
" style="fill:none;stroke:#32b67a;stroke-linecap:square;stroke-width:1.5;"/>
   </g>
   <g id="line2d_76">
    <path clip-path="url(#p9ed1ea8411)" d="M -1 76.353807 
L 69.218182 76.354359 
L 95.569405 76.59504 
L 110.983883 76.500432 
L 130.403828 76.710399 
L 137.335107 77.410894 
L 143.195419 77.850527 
L 156.755052 81.134606 
L 160.378438 82.526315 
L 163.68633 83.980152 
L 169.546643 87.338525 
L 172.169529 89.293823 
L 174.623076 90.929806 
L 179.100808 94.364794 
L 181.156269 96.010884 
L 183.106275 98.15405 
L 186.729661 101.790548 
L 191.589474 107.77994 
L 194.515285 111.802182 
L 197.231925 116.146008 
L 199.767316 120.700058 
L 202.144139 125.401846 
L 204.381065 130.322617 
L 207.507493 137.855999 
L 214.770798 156.359299 
L 216.388777 160.000335 
L 217.940698 162.964435 
L 220.155894 166.411031 
L 221.564084 168.230297 
L 222.921971 169.612945 
L 226.726821 172.640691 
L 229.067054 173.92598 
L 231.803255 175.242384 
L 232.844876 175.759809 
L 234.355675 176.341667 
L 237.208271 177.148696 
L 238.997626 177.522916 
L 240.706533 177.685283 
L 245.782967 178.000016 
L 250.584247 178.040938 
L 252.775121 178.085724 
L 257.622767 177.485808 
L 260.459231 176.744957 
L 262.159946 176.174956 
L 265.566712 174.729172 
L 270.261064 172.316324 
L 273.568956 169.963453 
L 275.289466 168.440279 
L 276.449109 167.28882 
L 279.278108 164.429389 
L 280.323822 163.550006 
L 281.48473 162.287698 
L 283.570268 159.560408 
L 284.240776 158.808759 
L 286.686014 156.757473 
L 289.796037 154.541592 
L 291.370922 153.336238 
L 293.824468 151.163895 
L 294.439308 150.588672 
L 297.278431 147.677177 
L 300.00808 145.557831 
L 301.30276 144.493575 
L 302.4726 143.391087 
L 303.206065 142.709043 
L 304.083721 142.13104 
L 304.709526 141.76875 
L 306.968613 140.268659 
L 307.764426 139.699214 
L 310.525478 137.103846 
L 312.912387 134.00941 
L 314.203299 132.970743 
L 315.568607 131.433296 
L 316.319153 130.612647 
L 316.942857 130.121791 
L 319.128331 128.98423 
L 321.043809 128.241251 
L 321.445576 128.071946 
L 322.431799 127.70876 
L 323.817856 127.309953 
L 324.882303 126.341263 
L 325.200437 126.032024 
L 325.47102 125.850593 
L 326.839154 124.685181 
L 327.526482 124.34477 
L 329.314369 123.269817 
L 332.618877 120.817812 
L 333.465774 120.128533 
L 334.542809 119.723999 
L 335.932974 119.353024 
L 343.602138 116.580675 
L 344.238301 116.389983 
L 344.890965 116.310468 
L 345.63851 116.221932 
L 346.758647 115.931756 
L 347.495873 115.894083 
L 348.045764 115.878356 
L 348.953012 115.775939 
L 349.362705 115.745369 
L 350.286235 115.666803 
L 353.298595 114.435658 
L 353.983987 114.319227 
L 355.726468 114.001476 
L 357.35374 113.339568 
L 357.912962 113.211727 
L 358.895557 113.13871 
L 360.107204 113.120379 
L 360.681053 112.831346 
L 361.246369 112.583786 
L 363.756863 112.041201 
L 364.148792 111.921268 
L 365.047879 111.375928 
L 365.661701 111.041136 
L 366.996298 110.728332 
L 367.520263 110.731615 
L 368.619302 110.481278 
L 369.869593 110.388292 
L 370.794688 110.446152 
L 371.537623 110.373787 
L 371.87058 110.277658 
L 372.968425 110.013549 
L 373.581818 109.585982 
L 373.581818 109.585982 
" style="fill:none;stroke:#1e9c89;stroke-linecap:square;stroke-width:1.5;"/>
   </g>
   <g id="line2d_77">
    <path clip-path="url(#p9ed1ea8411)" d="M -1 71.969012 
L 69.218182 71.969289 
L 95.569405 72.103842 
L 110.983883 72.374267 
L 121.920629 72.157938 
L 137.335107 72.830385 
L 143.195419 73.333874 
L 148.271852 74.179286 
L 152.749584 75.496839 
L 156.755052 77.240243 
L 166.729296 82.003926 
L 169.546643 83.579576 
L 172.169529 85.230599 
L 179.100808 90.14261 
L 183.106275 93.390942 
L 184.96112 95.03603 
L 188.419574 98.579007 
L 191.589474 102.216925 
L 194.515285 106.185761 
L 197.231925 110.31804 
L 199.767316 114.689267 
L 202.144139 119.38994 
L 204.381065 124.344513 
L 206.493652 129.466304 
L 209.457499 137.251053 
L 213.080885 147.621246 
L 216.388777 156.804926 
L 218.69353 162.374352 
L 220.155894 165.485531 
L 221.564084 168.046204 
L 223.583149 171.212938 
L 225.500367 173.710144 
L 228.495362 176.636317 
L 231.271543 179.080596 
L 234.355675 181.459676 
L 237.663567 183.538543 
L 241.122021 185.069398 
L 243.90984 185.902378 
L 245.782967 186.073585 
L 246.864085 186.1644 
L 248.938242 186.212134 
L 250.584247 185.946263 
L 253.378574 184.801888 
L 255.133506 183.813297 
L 256.536499 182.724451 
L 257.354096 182.218369 
L 257.889552 181.749032 
L 258.678856 180.887625 
L 259.706399 179.733569 
L 260.459231 179.204959 
L 261.440364 177.85243 
L 262.396811 176.635667 
L 263.787824 174.97795 
L 266.637678 171.987629 
L 267.884241 170.893981 
L 271.766876 167.066889 
L 274.266531 163.7157 
L 275.457311 162.211863 
L 276.774041 160.640026 
L 277.415689 159.894642 
L 280.617389 156.62024 
L 281.627382 155.357478 
L 283.298719 153.397157 
L 285.289581 151.949883 
L 285.930688 151.672651 
L 287.426624 150.909291 
L 287.791587 150.692945 
L 289.910718 150.173467 
L 290.366014 149.968588 
L 290.703944 149.889792 
L 291.590672 149.638558 
L 293.304395 148.712115 
L 294.133131 148.275294 
L 294.843746 147.895795 
L 296.031867 147.476595 
L 296.994369 147.049215 
L 298.025713 146.457347 
L 299.832076 145.09794 
L 300.704058 144.345526 
L 301.975641 143.072354 
L 303.687297 141.111434 
L 304.631861 140.134514 
L 305.553525 139.292242 
L 306.968613 138.188483 
L 309.853786 136.194215 
L 310.45884 135.832038 
L 312.281912 134.907608 
L 313.471011 134.093146 
L 314.142811 133.638169 
L 314.743405 133.234966 
L 315.21714 132.799483 
L 316.319153 131.479474 
L 317.777202 130.228341 
L 319.812389 128.996644 
L 321.892545 128.139531 
L 323.059392 127.899571 
L 324.051807 127.756414 
L 325.426057 127.455687 
L 332.018402 125.043916 
L 333.429343 124.57978 
L 337.14209 123.216677 
L 338.409976 122.374737 
L 339.543949 121.506556 
L 339.975962 121.390878 
L 340.554523 121.285107 
L 341.094628 121.208078 
L 342.784541 121.090335 
L 343.378344 120.738081 
L 343.935377 120.530568 
L 346.707273 118.032949 
L 347.696755 118.042558 
L 348.391598 118.028598 
L 349.290726 117.735483 
L 350.028016 116.721653 
L 350.565943 116.342474 
L 351.027597 116.118443 
L 351.88959 115.957703 
L 352.379848 115.847767 
L 352.951209 115.804466 
L 353.856414 115.805159 
L 354.823707 115.758643 
L 356.029392 115.917347 
L 356.369814 115.729673 
L 357.158981 115.234599 
L 357.663293 114.982489 
L 358.122947 114.864464 
L 359.798786 115.229027 
L 360.395211 115.12211 
L 362.437457 114.7137 
L 363.04439 114.551509 
L 363.756863 114.541223 
L 365.583558 114.250866 
L 366.096361 114.115336 
L 368.590403 113.547547 
L 369.135764 113.381298 
L 371.51086 112.681563 
L 372.344972 112.268845 
L 373.340199 111.997853 
L 373.581818 111.98741 
L 373.581818 111.98741 
" style="fill:none;stroke:#26828e;stroke-linecap:square;stroke-width:1.5;"/>
   </g>
   <g id="line2d_78">
    <path clip-path="url(#p9ed1ea8411)" d="M -1 74.622037 
L 69.218182 74.622386 
L 110.983883 75.388357 
L 130.403828 75.179494 
L 137.335107 75.436614 
L 143.195419 76.061388 
L 148.271852 76.321554 
L 156.755052 78.558155 
L 160.378438 79.947663 
L 163.68633 81.397657 
L 169.546643 84.570588 
L 172.169529 86.110869 
L 174.623076 87.684199 
L 181.156269 92.746753 
L 184.96112 96.291464 
L 186.729661 98.005049 
L 190.037554 101.796505 
L 191.589474 103.654943 
L 194.515285 107.67174 
L 197.231925 111.942119 
L 199.767316 116.589417 
L 202.144139 121.403809 
L 204.381065 126.397426 
L 206.493652 131.551822 
L 208.494997 136.952429 
L 212.206897 147.664658 
L 215.588394 157.448363 
L 217.940698 163.439329 
L 219.431743 166.699881 
L 220.866509 169.4111 
L 222.24909 171.573001 
L 223.583149 173.439147 
L 224.871976 174.976033 
L 227.325523 177.270388 
L 231.803255 180.334099 
L 234.846221 182.00297 
L 238.558121 183.691251 
L 240.706533 184.400019 
L 245.415652 185.448789 
L 246.507118 185.653338 
L 248.938242 186.149279 
L 252.469763 186.618221 
L 254.557484 186.680604 
L 255.9815 186.578907 
L 257.889552 186.203935 
L 258.938357 186.029292 
L 261.197444 185.436764 
L 263.559495 184.688458 
L 264.687672 184.341859 
L 265.566712 184.015576 
L 266.637678 183.636783 
L 267.057757 183.451905 
L 270.452584 182.257603 
L 275.120877 179.882837 
L 277.574424 178.220797 
L 279.729798 176.515439 
L 280.908707 175.637397 
L 283.705319 173.415726 
L 290.591634 166.580119 
L 292.242405 164.372297 
L 293.094357 163.33129 
L 294.133131 161.912654 
L 297.183979 157.430539 
L 299.299122 153.798366 
L 300.9618 150.775433 
L 301.808534 148.995307 
L 302.718664 146.820818 
L 303.367153 145.206789 
L 304.004766 143.798495 
L 304.554038 142.670397 
L 306.379194 139.818541 
L 307.476963 138.704593 
L 308.403379 137.853401 
L 309.853786 136.500973 
L 310.525478 135.952018 
L 312.345432 134.428322 
L 313.594043 133.395341 
L 317.334498 130.696179 
L 319.498199 129.653648 
L 320.892045 129.019865 
L 323.582458 127.734356 
L 325.109813 126.869599 
L 325.962142 126.426582 
L 327.398551 125.650719 
L 329.476488 124.714946 
L 330.276871 124.324238 
L 331.40829 123.743555 
L 336.069235 121.744722 
L 338.505776 121.235372 
L 338.918144 121.167489 
L 340.403122 120.633545 
L 341.154169 120.366555 
L 341.744503 120.092821 
L 342.69895 119.720828 
L 345.132855 118.816955 
L 346.630082 118.174715 
L 348.020941 117.6349 
L 348.855968 117.235321 
L 349.957287 116.835621 
L 350.426346 117.341746 
L 350.935714 118.117408 
L 351.256339 118.262605 
L 351.77728 118.197705 
L 352.534523 117.984851 
L 354.364158 117.530536 
L 355.175047 117.378111 
L 356.608289 117.177943 
L 357.951227 116.586911 
L 358.858231 116.072616 
L 360.179411 115.878489 
L 361.211282 115.953031 
L 361.958607 115.8711 
L 362.147447 115.635075 
L 362.215884 115.732437 
L 362.403453 115.770052 
L 363.111232 115.684902 
L 363.658246 115.654139 
L 365.063743 115.258484 
L 366.188859 114.876396 
L 366.799829 114.784075 
L 367.727843 114.285864 
L 368.110368 113.930807 
L 369.150011 113.156633 
L 369.9115 112.941535 
L 370.272773 112.871996 
L 370.971606 112.909253 
L 371.403619 112.947878 
L 371.883838 112.930879 
L 372.981305 112.825609 
L 373.581818 112.752106 
L 373.581818 112.752106 
" style="fill:none;stroke:#31678e;stroke-linecap:square;stroke-width:1.5;"/>
   </g>
   <g id="line2d_79">
    <path clip-path="url(#p9ed1ea8411)" d="M -1 72.779531 
L 69.218182 72.779948 
L 110.983883 73.302007 
L 121.920629 73.662118 
L 130.403828 74.122049 
L 137.335107 74.890074 
L 148.271852 76.800715 
L 152.749584 77.833205 
L 156.755052 79.091379 
L 163.68633 81.864551 
L 169.546643 84.77356 
L 172.169529 86.41148 
L 174.623076 87.767685 
L 179.100808 90.90357 
L 183.106275 94.225445 
L 186.729661 97.425744 
L 190.037554 100.856428 
L 193.08052 104.630582 
L 195.897866 108.561823 
L 198.520753 112.898952 
L 200.9743 117.415489 
L 203.279052 122.169853 
L 205.452031 127.162925 
L 207.507493 132.45441 
L 210.396232 140.576683 
L 218.69353 164.811453 
L 221.564084 171.811483 
L 224.233024 177.556758 
L 226.11854 181.224964 
L 227.914942 184.180171 
L 229.630276 186.740539 
L 232.327633 190.203273 
L 234.846221 192.882722 
L 236.280987 194.170757 
L 238.997626 196.098739 
L 241.122021 197.186414 
L 243.90984 198.238183 
L 244.670201 198.507609 
L 245.782967 198.740155 
L 247.915308 199.140674 
L 251.2232 199.279564 
L 252.775121 199.166254 
L 254.557484 198.86811 
L 255.700932 198.630599 
L 257.889552 198.113822 
L 259.959003 197.46768 
L 261.921595 196.657626 
L 265.783332 194.598421 
L 269.680644 191.76416 
L 272.13419 190.035418 
L 274.781439 188.22319 
L 276.611922 186.945617 
L 278.202814 185.77511 
L 283.434736 181.037945 
L 287.791587 176.734104 
L 291.149893 172.847208 
L 292.0264 171.509624 
L 292.988901 170.094162 
L 299.477604 159.380604 
L 301.047327 156.653005 
L 302.963146 153.707669 
L 304.941572 151.242628 
L 306.006112 149.932654 
L 306.675046 149.11552 
L 307.764426 147.80425 
L 308.403379 147.091599 
L 311.769894 143.446273 
L 313.099509 141.94408 
L 314.98101 139.913789 
L 316.490271 137.845903 
L 317.996636 135.787309 
L 321.345531 131.754486 
L 322.819234 131.06729 
L 324.376937 130.668639 
L 326.534496 130.084397 
L 329.678169 129.303824 
L 332.207071 128.296111 
L 333.574861 127.858828 
L 335.932974 127.58342 
L 336.676437 127.400228 
L 337.765061 127.12785 
L 338.569509 126.879808 
L 340.281565 126.12976 
L 341.243306 125.841004 
L 342.181315 125.570982 
L 343.990634 125.011561 
L 345.63851 124.628357 
L 349.146359 123.676703 
L 350.239416 123.591049 
L 350.774381 123.530565 
L 351.347452 123.43944 
L 352.26898 123.13641 
L 352.929392 122.86783 
L 354.490041 122.272755 
L 356.449472 121.97078 
L 357.041645 121.943921 
L 360.574114 121.108489 
L 361.15859 120.842707 
L 361.42132 120.743877 
L 362.044559 120.484979 
L 362.640847 120.180758 
L 363.953332 119.831057 
L 367.949 119.120944 
L 368.547013 119.063991 
L 371.147704 118.67447 
L 371.577732 118.60268 
L 372.384239 118.585332 
L 373.084193 118.462561 
L 373.581818 118.350655 
L 373.581818 118.350655 
" style="fill:none;stroke:#3e4989;stroke-linecap:square;stroke-width:1.5;"/>
   </g>
   <g id="line2d_80">
    <path clip-path="url(#p9ed1ea8411)" d="M -1 74.510743 
L 69.218182 74.511398 
L 95.569405 75.137532 
L 110.983883 75.653821 
L 130.403828 76.570037 
L 137.335107 77.215054 
L 143.195419 77.893819 
L 152.749584 79.80116 
L 156.755052 80.860845 
L 160.378438 82.062488 
L 166.729296 84.750145 
L 172.169529 87.787969 
L 174.623076 89.356754 
L 181.156269 94.241284 
L 184.96112 97.585415 
L 188.419574 101.230331 
L 190.037554 103.084889 
L 193.08052 107.01828 
L 195.897866 111.211243 
L 198.520753 115.63485 
L 200.9743 120.298744 
L 203.279052 125.247199 
L 205.452031 130.533947 
L 207.507493 136.069272 
L 210.396232 144.705971 
L 219.431743 173.732467 
L 221.564084 179.38619 
L 223.583149 184.223316 
L 225.500367 188.065621 
L 228.495362 193.24259 
L 231.271543 197.651453 
L 233.355176 201.074747 
L 238.113475 207.88223 
L 241.533017 212.220856 
L 243.133961 213.989198 
L 244.291922 215.047296 
L 245.415652 216.014096 
L 246.146766 216.59113 
L 248.938242 218.240508 
L 249.934372 218.694455 
L 252.161934 219.594785 
L 253.378574 219.901585 
L 256.260012 220.605639 
L 257.622767 220.798816 
L 259.959003 220.981128 
L 264.014791 221.029525 
L 269.091224 220.682116 
L 274.951537 220.305028 
L 277.732498 220.266167 
L 284.240776 219.909264 
L 285.547323 219.817435 
L 286.93449 219.678034 
L 289.681009 219.123174 
L 292.457189 217.923135 
L 293.199521 217.454601 
L 296.129221 215.369469 
L 297.278431 214.499665 
L 297.840265 214.069093 
L 299.743767 212.483961 
L 303.044291 209.987727 
L 304.241141 209.042484 
L 306.006112 207.413348 
L 307.114551 206.11131 
L 308.753766 204.194145 
L 312.090712 200.268659 
L 312.598457 199.683935 
L 315.158245 196.761607 
L 318.051297 193.73063 
L 319.075198 192.192622 
L 319.760204 190.996552 
L 322.722745 184.170505 
L 323.202761 183.039877 
L 323.676792 182.016754 
L 324.561485 180.397445 
L 325.335969 179.251032 
L 325.873318 178.483096 
L 327.270188 176.462166 
L 327.865541 175.634693 
L 328.534721 174.691751 
L 328.906022 174.180239 
L 329.758543 173.095122 
L 333.538534 169.618506 
L 335.521236 167.135567 
L 336.306523 166.522666 
L 336.642957 165.88307 
L 337.405639 164.390098 
L 338.313933 163.218505 
L 338.918144 163.009574 
L 339.667883 162.756041 
L 340.03728 162.653818 
L 340.915444 162.187634 
L 341.832268 161.679515 
L 342.784541 161.237651 
L 343.574235 160.755089 
L 344.620382 159.796846 
L 345.559116 159.374303 
L 345.980651 159.287244 
L 346.189678 159.219127 
L 348.440747 157.786823 
L 348.831668 157.699799 
L 349.170458 157.569179 
L 350.449648 156.90428 
L 350.820546 156.573555 
L 351.619487 155.796798 
L 352.556568 154.431497 
L 353.428051 152.430394 
L 353.83511 151.960773 
L 355.03077 151.361461 
L 356.449472 151.275066 
L 356.923946 151.160739 
L 359.744099 150.663924 
L 360.143324 150.912226 
L 360.609794 151.499046 
L 361.351436 151.326773 
L 361.855207 150.876212 
L 362.471431 150.736583 
L 364.80913 150.555341 
L 365.25359 150.603317 
L 370.410816 149.968657 
L 371.147704 149.652735 
L 371.537623 149.555572 
L 372.161189 149.482429 
L 372.994182 149.538407 
L 373.581818 149.478048 
L 373.581818 149.478048 
" style="fill:none;stroke:#482878;stroke-linecap:square;stroke-width:1.5;"/>
   </g>
   <g id="line2d_81">
    <path clip-path="url(#p9ed1ea8411)" d="M -1 77.283677 
L 69.218182 77.284529 
L 95.569405 77.870071 
L 110.983883 78.542272 
L 130.403828 80.084777 
L 137.335107 80.842146 
L 143.195419 81.700609 
L 152.749584 83.803483 
L 156.755052 84.952149 
L 160.378438 86.144813 
L 163.68633 87.487584 
L 169.546643 90.386201 
L 172.169529 91.893306 
L 176.927829 95.041789 
L 181.156269 98.172691 
L 183.106275 99.839491 
L 186.729661 103.334133 
L 190.037554 106.962288 
L 193.08052 110.914782 
L 195.897866 115.142411 
L 198.520753 119.660551 
L 200.9743 124.359987 
L 203.279052 129.476705 
L 205.452031 134.88847 
L 207.507493 140.565051 
L 210.396232 149.166964 
L 214.770798 163.307915 
L 217.172656 170.972965 
L 221.564084 183.725047 
L 225.500367 193.083009 
L 228.495362 199.604415 
L 233.858716 211.150082 
L 234.846221 213.260439 
L 235.808722 215.268226 
L 237.663567 219.206045 
L 240.706533 224.802333 
L 241.122021 225.367502 
L 242.341916 227.395544 
L 243.52388 229.210786 
L 244.670201 230.688583 
L 246.507118 232.541725 
L 248.938242 234.588047 
L 252.775121 237.38378 
L 258.938357 240.284448 
L 263.787824 241.761077 
L 264.687672 241.855547 
L 268.492522 241.94825 
L 333.574861 242.102656 
L 335.59017 242.106826 
L 353.707035 242.097075 
L 354.406165 242.102072 
L 357.547505 242.101295 
L 358.065793 242.109041 
L 358.895557 242.101185 
L 361.281423 242.10217 
L 361.716901 242.091529 
L 362.078886 242.099556 
L 362.826336 242.098009 
L 364.488446 242.100284 
L 365.95719 242.103242 
L 366.587104 242.104669 
L 366.981221 242.102614 
L 369.518558 242.096796 
L 370.050858 242.093694 
L 370.685405 242.09597 
L 371.457277 242.090941 
L 373.581818 242.105044 
L 373.581818 242.105044 
" style="fill:none;stroke:#440154;stroke-linecap:square;stroke-width:1.5;"/>
   </g>
   <g id="patch_3">
    <path d="M 54 252 
L 54 34.56 
" style="fill:none;stroke:#000000;stroke-linecap:square;stroke-linejoin:miter;stroke-width:0.8;"/>
   </g>
   <g id="patch_4">
    <path d="M 54 252 
L 388.8 252 
" style="fill:none;stroke:#000000;stroke-linecap:square;stroke-linejoin:miter;stroke-width:0.8;"/>
   </g>
   <g id="legend_1">
    <g id="line2d_82">
     <path d="M 63 105.317188 
L 83 105.317188 
" style="fill:none;stroke:#ffa500;stroke-linecap:square;stroke-width:1.5;"/>
    </g>
    <g id="line2d_83"/>
    <g id="text_12">
     <!-- Growing -->
     <g transform="translate(91 108.817188)scale(0.1 -0.1)">
      <defs>
       <path d="M 3809 666 
L 3809 1919 
L 2778 1919 
L 2778 2438 
L 4434 2438 
L 4434 434 
Q 4069 175 3628 42 
Q 3188 -91 2688 -91 
Q 1594 -91 976 548 
Q 359 1188 359 2328 
Q 359 3472 976 4111 
Q 1594 4750 2688 4750 
Q 3144 4750 3555 4637 
Q 3966 4525 4313 4306 
L 4313 3634 
Q 3963 3931 3569 4081 
Q 3175 4231 2741 4231 
Q 1884 4231 1454 3753 
Q 1025 3275 1025 2328 
Q 1025 1384 1454 906 
Q 1884 428 2741 428 
Q 3075 428 3337 486 
Q 3600 544 3809 666 
z
" id="DejaVuSans-47" transform="scale(0.015625)"/>
       <path d="M 269 3500 
L 844 3500 
L 1563 769 
L 2278 3500 
L 2956 3500 
L 3675 769 
L 4391 3500 
L 4966 3500 
L 4050 0 
L 3372 0 
L 2619 2869 
L 1863 0 
L 1184 0 
L 269 3500 
z
" id="DejaVuSans-77" transform="scale(0.015625)"/>
       <path d="M 2906 1791 
Q 2906 2416 2648 2759 
Q 2391 3103 1925 3103 
Q 1463 3103 1205 2759 
Q 947 2416 947 1791 
Q 947 1169 1205 825 
Q 1463 481 1925 481 
Q 2391 481 2648 825 
Q 2906 1169 2906 1791 
z
M 3481 434 
Q 3481 -459 3084 -895 
Q 2688 -1331 1869 -1331 
Q 1566 -1331 1297 -1286 
Q 1028 -1241 775 -1147 
L 775 -588 
Q 1028 -725 1275 -790 
Q 1522 -856 1778 -856 
Q 2344 -856 2625 -561 
Q 2906 -266 2906 331 
L 2906 616 
Q 2728 306 2450 153 
Q 2172 0 1784 0 
Q 1141 0 747 490 
Q 353 981 353 1791 
Q 353 2603 747 3093 
Q 1141 3584 1784 3584 
Q 2172 3584 2450 3431 
Q 2728 3278 2906 2969 
L 2906 3500 
L 3481 3500 
L 3481 434 
z
" id="DejaVuSans-67" transform="scale(0.015625)"/>
      </defs>
      <use xlink:href="#DejaVuSans-47"/>
      <use x="77.490234" xlink:href="#DejaVuSans-72"/>
      <use x="116.353516" xlink:href="#DejaVuSans-6f"/>
      <use x="177.535156" xlink:href="#DejaVuSans-77"/>
      <use x="259.322266" xlink:href="#DejaVuSans-69"/>
      <use x="287.105469" xlink:href="#DejaVuSans-6e"/>
      <use x="350.484375" xlink:href="#DejaVuSans-67"/>
     </g>
    </g>
    <g id="line2d_84">
     <path d="M 63 119.995313 
L 83 119.995313 
" style="fill:none;stroke:#b0dd2f;stroke-linecap:square;stroke-width:1.5;"/>
    </g>
    <g id="line2d_85"/>
    <g id="text_13">
     <!-- 60% -->
     <g transform="translate(91 123.495313)scale(0.1 -0.1)">
      <defs>
       <path d="M 2113 2584 
Q 1688 2584 1439 2293 
Q 1191 2003 1191 1497 
Q 1191 994 1439 701 
Q 1688 409 2113 409 
Q 2538 409 2786 701 
Q 3034 994 3034 1497 
Q 3034 2003 2786 2293 
Q 2538 2584 2113 2584 
z
M 3366 4563 
L 3366 3988 
Q 3128 4100 2886 4159 
Q 2644 4219 2406 4219 
Q 1781 4219 1451 3797 
Q 1122 3375 1075 2522 
Q 1259 2794 1537 2939 
Q 1816 3084 2150 3084 
Q 2853 3084 3261 2657 
Q 3669 2231 3669 1497 
Q 3669 778 3244 343 
Q 2819 -91 2113 -91 
Q 1303 -91 875 529 
Q 447 1150 447 2328 
Q 447 3434 972 4092 
Q 1497 4750 2381 4750 
Q 2619 4750 2861 4703 
Q 3103 4656 3366 4563 
z
" id="DejaVuSans-36" transform="scale(0.015625)"/>
       <path d="M 4653 2053 
Q 4381 2053 4226 1822 
Q 4072 1591 4072 1178 
Q 4072 772 4226 539 
Q 4381 306 4653 306 
Q 4919 306 5073 539 
Q 5228 772 5228 1178 
Q 5228 1588 5073 1820 
Q 4919 2053 4653 2053 
z
M 4653 2450 
Q 5147 2450 5437 2106 
Q 5728 1763 5728 1178 
Q 5728 594 5436 251 
Q 5144 -91 4653 -91 
Q 4153 -91 3862 251 
Q 3572 594 3572 1178 
Q 3572 1766 3864 2108 
Q 4156 2450 4653 2450 
z
M 1428 4353 
Q 1159 4353 1004 4120 
Q 850 3888 850 3481 
Q 850 3069 1003 2837 
Q 1156 2606 1428 2606 
Q 1700 2606 1854 2837 
Q 2009 3069 2009 3481 
Q 2009 3884 1853 4118 
Q 1697 4353 1428 4353 
z
M 4250 4750 
L 4750 4750 
L 1831 -91 
L 1331 -91 
L 4250 4750 
z
M 1428 4750 
Q 1922 4750 2215 4408 
Q 2509 4066 2509 3481 
Q 2509 2891 2217 2550 
Q 1925 2209 1428 2209 
Q 931 2209 642 2551 
Q 353 2894 353 3481 
Q 353 4063 643 4406 
Q 934 4750 1428 4750 
z
" id="DejaVuSans-25" transform="scale(0.015625)"/>
      </defs>
      <use xlink:href="#DejaVuSans-36"/>
      <use x="63.623047" xlink:href="#DejaVuSans-30"/>
      <use x="127.246094" xlink:href="#DejaVuSans-25"/>
     </g>
    </g>
    <g id="line2d_86">
     <path d="M 63 134.673438 
L 83 134.673438 
" style="fill:none;stroke:#69cd5b;stroke-linecap:square;stroke-width:1.5;"/>
    </g>
    <g id="line2d_87"/>
    <g id="text_14">
     <!-- 65% -->
     <g transform="translate(91 138.173438)scale(0.1 -0.1)">
      <defs>
       <path d="M 691 4666 
L 3169 4666 
L 3169 4134 
L 1269 4134 
L 1269 2991 
Q 1406 3038 1543 3061 
Q 1681 3084 1819 3084 
Q 2600 3084 3056 2656 
Q 3513 2228 3513 1497 
Q 3513 744 3044 326 
Q 2575 -91 1722 -91 
Q 1428 -91 1123 -41 
Q 819 9 494 109 
L 494 744 
Q 775 591 1075 516 
Q 1375 441 1709 441 
Q 2250 441 2565 725 
Q 2881 1009 2881 1497 
Q 2881 1984 2565 2268 
Q 2250 2553 1709 2553 
Q 1456 2553 1204 2497 
Q 953 2441 691 2322 
L 691 4666 
z
" id="DejaVuSans-35" transform="scale(0.015625)"/>
      </defs>
      <use xlink:href="#DejaVuSans-36"/>
      <use x="63.623047" xlink:href="#DejaVuSans-35"/>
      <use x="127.246094" xlink:href="#DejaVuSans-25"/>
     </g>
    </g>
    <g id="line2d_88">
     <path d="M 63 149.351563 
L 83 149.351563 
" style="fill:none;stroke:#32b67a;stroke-linecap:square;stroke-width:1.5;"/>
    </g>
    <g id="line2d_89"/>
    <g id="text_15">
     <!-- 70% -->
     <g transform="translate(91 152.851563)scale(0.1 -0.1)">
      <defs>
       <path d="M 525 4666 
L 3525 4666 
L 3525 4397 
L 1831 0 
L 1172 0 
L 2766 4134 
L 525 4134 
L 525 4666 
z
" id="DejaVuSans-37" transform="scale(0.015625)"/>
      </defs>
      <use xlink:href="#DejaVuSans-37"/>
      <use x="63.623047" xlink:href="#DejaVuSans-30"/>
      <use x="127.246094" xlink:href="#DejaVuSans-25"/>
     </g>
    </g>
    <g id="line2d_90">
     <path d="M 63 164.029688 
L 83 164.029688 
" style="fill:none;stroke:#1e9c89;stroke-linecap:square;stroke-width:1.5;"/>
    </g>
    <g id="line2d_91"/>
    <g id="text_16">
     <!-- 75% -->
     <g transform="translate(91 167.529688)scale(0.1 -0.1)">
      <use xlink:href="#DejaVuSans-37"/>
      <use x="63.623047" xlink:href="#DejaVuSans-35"/>
      <use x="127.246094" xlink:href="#DejaVuSans-25"/>
     </g>
    </g>
    <g id="line2d_92">
     <path d="M 63 178.707813 
L 83 178.707813 
" style="fill:none;stroke:#26828e;stroke-linecap:square;stroke-width:1.5;"/>
    </g>
    <g id="line2d_93"/>
    <g id="text_17">
     <!-- 80% -->
     <g transform="translate(91 182.207813)scale(0.1 -0.1)">
      <defs>
       <path d="M 2034 2216 
Q 1584 2216 1326 1975 
Q 1069 1734 1069 1313 
Q 1069 891 1326 650 
Q 1584 409 2034 409 
Q 2484 409 2743 651 
Q 3003 894 3003 1313 
Q 3003 1734 2745 1975 
Q 2488 2216 2034 2216 
z
M 1403 2484 
Q 997 2584 770 2862 
Q 544 3141 544 3541 
Q 544 4100 942 4425 
Q 1341 4750 2034 4750 
Q 2731 4750 3128 4425 
Q 3525 4100 3525 3541 
Q 3525 3141 3298 2862 
Q 3072 2584 2669 2484 
Q 3125 2378 3379 2068 
Q 3634 1759 3634 1313 
Q 3634 634 3220 271 
Q 2806 -91 2034 -91 
Q 1263 -91 848 271 
Q 434 634 434 1313 
Q 434 1759 690 2068 
Q 947 2378 1403 2484 
z
M 1172 3481 
Q 1172 3119 1398 2916 
Q 1625 2713 2034 2713 
Q 2441 2713 2670 2916 
Q 2900 3119 2900 3481 
Q 2900 3844 2670 4047 
Q 2441 4250 2034 4250 
Q 1625 4250 1398 4047 
Q 1172 3844 1172 3481 
z
" id="DejaVuSans-38" transform="scale(0.015625)"/>
      </defs>
      <use xlink:href="#DejaVuSans-38"/>
      <use x="63.623047" xlink:href="#DejaVuSans-30"/>
      <use x="127.246094" xlink:href="#DejaVuSans-25"/>
     </g>
    </g>
    <g id="line2d_94">
     <path d="M 63 193.385938 
L 83 193.385938 
" style="fill:none;stroke:#31678e;stroke-linecap:square;stroke-width:1.5;"/>
    </g>
    <g id="line2d_95"/>
    <g id="text_18">
     <!-- 85% -->
     <g transform="translate(91 196.885938)scale(0.1 -0.1)">
      <use xlink:href="#DejaVuSans-38"/>
      <use x="63.623047" xlink:href="#DejaVuSans-35"/>
      <use x="127.246094" xlink:href="#DejaVuSans-25"/>
     </g>
    </g>
    <g id="line2d_96">
     <path d="M 63 208.064063 
L 83 208.064063 
" style="fill:none;stroke:#3e4989;stroke-linecap:square;stroke-width:1.5;"/>
    </g>
    <g id="line2d_97"/>
    <g id="text_19">
     <!-- 90% -->
     <g transform="translate(91 211.564063)scale(0.1 -0.1)">
      <defs>
       <path d="M 703 97 
L 703 672 
Q 941 559 1184 500 
Q 1428 441 1663 441 
Q 2288 441 2617 861 
Q 2947 1281 2994 2138 
Q 2813 1869 2534 1725 
Q 2256 1581 1919 1581 
Q 1219 1581 811 2004 
Q 403 2428 403 3163 
Q 403 3881 828 4315 
Q 1253 4750 1959 4750 
Q 2769 4750 3195 4129 
Q 3622 3509 3622 2328 
Q 3622 1225 3098 567 
Q 2575 -91 1691 -91 
Q 1453 -91 1209 -44 
Q 966 3 703 97 
z
M 1959 2075 
Q 2384 2075 2632 2365 
Q 2881 2656 2881 3163 
Q 2881 3666 2632 3958 
Q 2384 4250 1959 4250 
Q 1534 4250 1286 3958 
Q 1038 3666 1038 3163 
Q 1038 2656 1286 2365 
Q 1534 2075 1959 2075 
z
" id="DejaVuSans-39" transform="scale(0.015625)"/>
      </defs>
      <use xlink:href="#DejaVuSans-39"/>
      <use x="63.623047" xlink:href="#DejaVuSans-30"/>
      <use x="127.246094" xlink:href="#DejaVuSans-25"/>
     </g>
    </g>
    <g id="line2d_98">
     <path d="M 63 222.742188 
L 83 222.742188 
" style="fill:none;stroke:#482878;stroke-linecap:square;stroke-width:1.5;"/>
    </g>
    <g id="line2d_99"/>
    <g id="text_20">
     <!-- 95% -->
     <g transform="translate(91 226.242188)scale(0.1 -0.1)">
      <use xlink:href="#DejaVuSans-39"/>
      <use x="63.623047" xlink:href="#DejaVuSans-35"/>
      <use x="127.246094" xlink:href="#DejaVuSans-25"/>
     </g>
    </g>
    <g id="line2d_100">
     <path d="M 63 237.420312 
L 83 237.420312 
" style="fill:none;stroke:#440154;stroke-linecap:square;stroke-width:1.5;"/>
    </g>
    <g id="line2d_101"/>
    <g id="text_21">
     <!-- 100% -->
     <g transform="translate(91 240.920312)scale(0.1 -0.1)">
      <use xlink:href="#DejaVuSans-31"/>
      <use x="63.623047" xlink:href="#DejaVuSans-30"/>
      <use x="127.246094" xlink:href="#DejaVuSans-30"/>
      <use x="190.869141" xlink:href="#DejaVuSans-25"/>
     </g>
    </g>
   </g>
  </g>
 </g>
 <defs>
  <clipPath id="p9ed1ea8411">
   <rect height="217.44" width="334.8" x="54" y="34.56"/>
  </clipPath>
 </defs>
</svg>
