<?xml version="1.0" encoding="utf-8" standalone="no"?>
<!DOCTYPE svg PUBLIC "-//W3C//DTD SVG 1.1//EN"
  "http://www.w3.org/Graphics/SVG/1.1/DTD/svg11.dtd">
<svg height="288pt" version="1.1" viewBox="0 0 432 288" width="432pt" xmlns="http://www.w3.org/2000/svg" xmlns:xlink="http://www.w3.org/1999/xlink">
 <metadata>
  <rdf:RDF xmlns:cc="http://creativecommons.org/ns#" xmlns:dc="http://purl.org/dc/elements/1.1/" xmlns:rdf="http://www.w3.org/1999/02/22-rdf-syntax-ns#">
   <cc:Work>
    <dc:type rdf:resource="http://purl.org/dc/dcmitype/StillImage"/>
    <dc:date>2021-11-21T18:36:39.483307</dc:date>
    <dc:format>image/svg+xml</dc:format>
    <dc:creator>
     <cc:Agent>
      <dc:title>Matplotlib v3.4.2, https://matplotlib.org/</dc:title>
     </cc:Agent>
    </dc:creator>
   </cc:Work>
  </rdf:RDF>
 </metadata>
 <defs>
  <style type="text/css">*{stroke-linecap:butt;stroke-linejoin:round;}</style>
 </defs>
 <g id="figure_1">
  <g id="patch_1">
   <path d="M 0 288 
L 432 288 
L 432 0 
L 0 0 
z
" style="fill:#ffffff;"/>
  </g>
  <g id="axes_1">
   <g id="patch_2">
    <path d="M 54 252 
L 388.8 252 
L 388.8 34.56 
L 54 34.56 
z
" style="fill:#ffffff;"/>
   </g>
   <g id="matplotlib.axis_1">
    <g id="xtick_1">
     <g id="text_1">
      <!-- $\mathdefault{10^{0}}$ -->
      <g style="fill:#262626;" transform="translate(59.538182 269.858281)scale(0.11 -0.11)">
       <defs>
        <path d="M 794 531 
L 1825 531 
L 1825 4091 
L 703 3866 
L 703 4441 
L 1819 4666 
L 2450 4666 
L 2450 531 
L 3481 531 
L 3481 0 
L 794 0 
L 794 531 
z
" id="DejaVuSans-31" transform="scale(0.015625)"/>
        <path d="M 2034 4250 
Q 1547 4250 1301 3770 
Q 1056 3291 1056 2328 
Q 1056 1369 1301 889 
Q 1547 409 2034 409 
Q 2525 409 2770 889 
Q 3016 1369 3016 2328 
Q 3016 3291 2770 3770 
Q 2525 4250 2034 4250 
z
M 2034 4750 
Q 2819 4750 3233 4129 
Q 3647 3509 3647 2328 
Q 3647 1150 3233 529 
Q 2819 -91 2034 -91 
Q 1250 -91 836 529 
Q 422 1150 422 2328 
Q 422 3509 836 4129 
Q 1250 4750 2034 4750 
z
" id="DejaVuSans-30" transform="scale(0.015625)"/>
       </defs>
       <use transform="translate(0 0.765625)" xlink:href="#DejaVuSans-31"/>
       <use transform="translate(63.623047 0.765625)" xlink:href="#DejaVuSans-30"/>
       <use transform="translate(128.203125 39.046875)scale(0.7)" xlink:href="#DejaVuSans-30"/>
      </g>
     </g>
    </g>
    <g id="xtick_2">
     <g id="text_2">
      <!-- $\mathdefault{10^{1}}$ -->
      <g style="fill:#262626;" transform="translate(147.075052 269.858281)scale(0.11 -0.11)">
       <use transform="translate(0 0.684375)" xlink:href="#DejaVuSans-31"/>
       <use transform="translate(63.623047 0.684375)" xlink:href="#DejaVuSans-30"/>
       <use transform="translate(128.203125 38.965625)scale(0.7)" xlink:href="#DejaVuSans-31"/>
      </g>
     </g>
    </g>
    <g id="xtick_3">
     <g id="text_3">
      <!-- $\mathdefault{10^{2}}$ -->
      <g style="fill:#262626;" transform="translate(234.611922 269.858281)scale(0.11 -0.11)">
       <defs>
        <path d="M 1228 531 
L 3431 531 
L 3431 0 
L 469 0 
L 469 531 
Q 828 903 1448 1529 
Q 2069 2156 2228 2338 
Q 2531 2678 2651 2914 
Q 2772 3150 2772 3378 
Q 2772 3750 2511 3984 
Q 2250 4219 1831 4219 
Q 1534 4219 1204 4116 
Q 875 4013 500 3803 
L 500 4441 
Q 881 4594 1212 4672 
Q 1544 4750 1819 4750 
Q 2544 4750 2975 4387 
Q 3406 4025 3406 3419 
Q 3406 3131 3298 2873 
Q 3191 2616 2906 2266 
Q 2828 2175 2409 1742 
Q 1991 1309 1228 531 
z
" id="DejaVuSans-32" transform="scale(0.015625)"/>
       </defs>
       <use transform="translate(0 0.765625)" xlink:href="#DejaVuSans-31"/>
       <use transform="translate(63.623047 0.765625)" xlink:href="#DejaVuSans-30"/>
       <use transform="translate(128.203125 39.046875)scale(0.7)" xlink:href="#DejaVuSans-32"/>
      </g>
     </g>
    </g>
    <g id="xtick_4">
     <g id="text_4">
      <!-- $\mathdefault{10^{3}}$ -->
      <g style="fill:#262626;" transform="translate(322.148791 269.858281)scale(0.11 -0.11)">
       <defs>
        <path d="M 2597 2516 
Q 3050 2419 3304 2112 
Q 3559 1806 3559 1356 
Q 3559 666 3084 287 
Q 2609 -91 1734 -91 
Q 1441 -91 1130 -33 
Q 819 25 488 141 
L 488 750 
Q 750 597 1062 519 
Q 1375 441 1716 441 
Q 2309 441 2620 675 
Q 2931 909 2931 1356 
Q 2931 1769 2642 2001 
Q 2353 2234 1838 2234 
L 1294 2234 
L 1294 2753 
L 1863 2753 
Q 2328 2753 2575 2939 
Q 2822 3125 2822 3475 
Q 2822 3834 2567 4026 
Q 2313 4219 1838 4219 
Q 1578 4219 1281 4162 
Q 984 4106 628 3988 
L 628 4550 
Q 988 4650 1302 4700 
Q 1616 4750 1894 4750 
Q 2613 4750 3031 4423 
Q 3450 4097 3450 3541 
Q 3450 3153 3228 2886 
Q 3006 2619 2597 2516 
z
" id="DejaVuSans-33" transform="scale(0.015625)"/>
       </defs>
       <use transform="translate(0 0.765625)" xlink:href="#DejaVuSans-31"/>
       <use transform="translate(63.623047 0.765625)" xlink:href="#DejaVuSans-30"/>
       <use transform="translate(128.203125 39.046875)scale(0.7)" xlink:href="#DejaVuSans-33"/>
      </g>
     </g>
    </g>
    <g id="xtick_5"/>
    <g id="xtick_6"/>
    <g id="xtick_7"/>
    <g id="xtick_8"/>
    <g id="xtick_9"/>
    <g id="xtick_10"/>
    <g id="xtick_11"/>
    <g id="xtick_12"/>
    <g id="xtick_13"/>
    <g id="xtick_14"/>
    <g id="xtick_15"/>
    <g id="xtick_16"/>
    <g id="xtick_17"/>
    <g id="xtick_18"/>
    <g id="xtick_19"/>
    <g id="xtick_20"/>
    <g id="xtick_21"/>
    <g id="xtick_22"/>
    <g id="xtick_23"/>
    <g id="xtick_24"/>
    <g id="xtick_25"/>
    <g id="xtick_26"/>
    <g id="xtick_27"/>
    <g id="xtick_28"/>
    <g id="xtick_29"/>
    <g id="xtick_30"/>
    <g id="xtick_31"/>
    <g id="xtick_32"/>
    <g id="xtick_33"/>
    <g id="xtick_34"/>
    <g id="text_5">
     <!-- Iterations -->
     <g style="fill:#262626;" transform="translate(192.824062 285.264063)scale(0.12 -0.12)">
      <defs>
       <path d="M 628 4666 
L 1259 4666 
L 1259 0 
L 628 0 
L 628 4666 
z
" id="DejaVuSans-49" transform="scale(0.015625)"/>
       <path d="M 1172 4494 
L 1172 3500 
L 2356 3500 
L 2356 3053 
L 1172 3053 
L 1172 1153 
Q 1172 725 1289 603 
Q 1406 481 1766 481 
L 2356 481 
L 2356 0 
L 1766 0 
Q 1100 0 847 248 
Q 594 497 594 1153 
L 594 3053 
L 172 3053 
L 172 3500 
L 594 3500 
L 594 4494 
L 1172 4494 
z
" id="DejaVuSans-74" transform="scale(0.015625)"/>
       <path d="M 3597 1894 
L 3597 1613 
L 953 1613 
Q 991 1019 1311 708 
Q 1631 397 2203 397 
Q 2534 397 2845 478 
Q 3156 559 3463 722 
L 3463 178 
Q 3153 47 2828 -22 
Q 2503 -91 2169 -91 
Q 1331 -91 842 396 
Q 353 884 353 1716 
Q 353 2575 817 3079 
Q 1281 3584 2069 3584 
Q 2775 3584 3186 3129 
Q 3597 2675 3597 1894 
z
M 3022 2063 
Q 3016 2534 2758 2815 
Q 2500 3097 2075 3097 
Q 1594 3097 1305 2825 
Q 1016 2553 972 2059 
L 3022 2063 
z
" id="DejaVuSans-65" transform="scale(0.015625)"/>
       <path d="M 2631 2963 
Q 2534 3019 2420 3045 
Q 2306 3072 2169 3072 
Q 1681 3072 1420 2755 
Q 1159 2438 1159 1844 
L 1159 0 
L 581 0 
L 581 3500 
L 1159 3500 
L 1159 2956 
Q 1341 3275 1631 3429 
Q 1922 3584 2338 3584 
Q 2397 3584 2469 3576 
Q 2541 3569 2628 3553 
L 2631 2963 
z
" id="DejaVuSans-72" transform="scale(0.015625)"/>
       <path d="M 2194 1759 
Q 1497 1759 1228 1600 
Q 959 1441 959 1056 
Q 959 750 1161 570 
Q 1363 391 1709 391 
Q 2188 391 2477 730 
Q 2766 1069 2766 1631 
L 2766 1759 
L 2194 1759 
z
M 3341 1997 
L 3341 0 
L 2766 0 
L 2766 531 
Q 2569 213 2275 61 
Q 1981 -91 1556 -91 
Q 1019 -91 701 211 
Q 384 513 384 1019 
Q 384 1609 779 1909 
Q 1175 2209 1959 2209 
L 2766 2209 
L 2766 2266 
Q 2766 2663 2505 2880 
Q 2244 3097 1772 3097 
Q 1472 3097 1187 3025 
Q 903 2953 641 2809 
L 641 3341 
Q 956 3463 1253 3523 
Q 1550 3584 1831 3584 
Q 2591 3584 2966 3190 
Q 3341 2797 3341 1997 
z
" id="DejaVuSans-61" transform="scale(0.015625)"/>
       <path d="M 603 3500 
L 1178 3500 
L 1178 0 
L 603 0 
L 603 3500 
z
M 603 4863 
L 1178 4863 
L 1178 4134 
L 603 4134 
L 603 4863 
z
" id="DejaVuSans-69" transform="scale(0.015625)"/>
       <path d="M 1959 3097 
Q 1497 3097 1228 2736 
Q 959 2375 959 1747 
Q 959 1119 1226 758 
Q 1494 397 1959 397 
Q 2419 397 2687 759 
Q 2956 1122 2956 1747 
Q 2956 2369 2687 2733 
Q 2419 3097 1959 3097 
z
M 1959 3584 
Q 2709 3584 3137 3096 
Q 3566 2609 3566 1747 
Q 3566 888 3137 398 
Q 2709 -91 1959 -91 
Q 1206 -91 779 398 
Q 353 888 353 1747 
Q 353 2609 779 3096 
Q 1206 3584 1959 3584 
z
" id="DejaVuSans-6f" transform="scale(0.015625)"/>
       <path d="M 3513 2113 
L 3513 0 
L 2938 0 
L 2938 2094 
Q 2938 2591 2744 2837 
Q 2550 3084 2163 3084 
Q 1697 3084 1428 2787 
Q 1159 2491 1159 1978 
L 1159 0 
L 581 0 
L 581 3500 
L 1159 3500 
L 1159 2956 
Q 1366 3272 1645 3428 
Q 1925 3584 2291 3584 
Q 2894 3584 3203 3211 
Q 3513 2838 3513 2113 
z
" id="DejaVuSans-6e" transform="scale(0.015625)"/>
       <path d="M 2834 3397 
L 2834 2853 
Q 2591 2978 2328 3040 
Q 2066 3103 1784 3103 
Q 1356 3103 1142 2972 
Q 928 2841 928 2578 
Q 928 2378 1081 2264 
Q 1234 2150 1697 2047 
L 1894 2003 
Q 2506 1872 2764 1633 
Q 3022 1394 3022 966 
Q 3022 478 2636 193 
Q 2250 -91 1575 -91 
Q 1294 -91 989 -36 
Q 684 19 347 128 
L 347 722 
Q 666 556 975 473 
Q 1284 391 1588 391 
Q 1994 391 2212 530 
Q 2431 669 2431 922 
Q 2431 1156 2273 1281 
Q 2116 1406 1581 1522 
L 1381 1569 
Q 847 1681 609 1914 
Q 372 2147 372 2553 
Q 372 3047 722 3315 
Q 1072 3584 1716 3584 
Q 2034 3584 2315 3537 
Q 2597 3491 2834 3397 
z
" id="DejaVuSans-73" transform="scale(0.015625)"/>
      </defs>
      <use xlink:href="#DejaVuSans-49"/>
      <use x="29.492188" xlink:href="#DejaVuSans-74"/>
      <use x="68.701172" xlink:href="#DejaVuSans-65"/>
      <use x="130.224609" xlink:href="#DejaVuSans-72"/>
      <use x="171.337891" xlink:href="#DejaVuSans-61"/>
      <use x="232.617188" xlink:href="#DejaVuSans-74"/>
      <use x="271.826172" xlink:href="#DejaVuSans-69"/>
      <use x="299.609375" xlink:href="#DejaVuSans-6f"/>
      <use x="360.791016" xlink:href="#DejaVuSans-6e"/>
      <use x="424.169922" xlink:href="#DejaVuSans-73"/>
     </g>
    </g>
   </g>
   <g id="matplotlib.axis_2">
    <g id="ytick_1">
     <g id="text_6">
      <!-- $\mathdefault{10^{-3}}$ -->
      <g style="fill:#262626;" transform="translate(18.65 216.86671)scale(0.11 -0.11)">
       <defs>
        <path d="M 678 2272 
L 4684 2272 
L 4684 1741 
L 678 1741 
L 678 2272 
z
" id="DejaVuSans-2212" transform="scale(0.015625)"/>
       </defs>
       <use transform="translate(0 0.765625)" xlink:href="#DejaVuSans-31"/>
       <use transform="translate(63.623047 0.765625)" xlink:href="#DejaVuSans-30"/>
       <use transform="translate(128.203125 39.046875)scale(0.7)" xlink:href="#DejaVuSans-2212"/>
       <use transform="translate(186.855469 39.046875)scale(0.7)" xlink:href="#DejaVuSans-33"/>
      </g>
     </g>
    </g>
    <g id="ytick_2">
     <g id="text_7">
      <!-- $\mathdefault{10^{-2}}$ -->
      <g style="fill:#262626;" transform="translate(18.65 159.872523)scale(0.11 -0.11)">
       <use transform="translate(0 0.765625)" xlink:href="#DejaVuSans-31"/>
       <use transform="translate(63.623047 0.765625)" xlink:href="#DejaVuSans-30"/>
       <use transform="translate(128.203125 39.046875)scale(0.7)" xlink:href="#DejaVuSans-2212"/>
       <use transform="translate(186.855469 39.046875)scale(0.7)" xlink:href="#DejaVuSans-32"/>
      </g>
     </g>
    </g>
    <g id="ytick_3">
     <g id="text_8">
      <!-- $\mathdefault{10^{-1}}$ -->
      <g style="fill:#262626;" transform="translate(18.65 102.878336)scale(0.11 -0.11)">
       <use transform="translate(0 0.684375)" xlink:href="#DejaVuSans-31"/>
       <use transform="translate(63.623047 0.684375)" xlink:href="#DejaVuSans-30"/>
       <use transform="translate(128.203125 38.965625)scale(0.7)" xlink:href="#DejaVuSans-2212"/>
       <use transform="translate(186.855469 38.965625)scale(0.7)" xlink:href="#DejaVuSans-31"/>
      </g>
     </g>
    </g>
    <g id="ytick_4">
     <g id="text_9">
      <!-- $\mathdefault{10^{0}}$ -->
      <g style="fill:#262626;" transform="translate(25.14 45.884149)scale(0.11 -0.11)">
       <use transform="translate(0 0.765625)" xlink:href="#DejaVuSans-31"/>
       <use transform="translate(63.623047 0.765625)" xlink:href="#DejaVuSans-30"/>
       <use transform="translate(128.203125 39.046875)scale(0.7)" xlink:href="#DejaVuSans-30"/>
      </g>
     </g>
    </g>
    <g id="ytick_5"/>
    <g id="ytick_6"/>
    <g id="ytick_7"/>
    <g id="ytick_8"/>
    <g id="ytick_9"/>
    <g id="ytick_10"/>
    <g id="ytick_11"/>
    <g id="ytick_12"/>
    <g id="ytick_13"/>
    <g id="ytick_14"/>
    <g id="ytick_15"/>
    <g id="ytick_16"/>
    <g id="ytick_17"/>
    <g id="ytick_18"/>
    <g id="ytick_19"/>
    <g id="ytick_20"/>
    <g id="ytick_21"/>
    <g id="ytick_22"/>
    <g id="ytick_23"/>
    <g id="ytick_24"/>
    <g id="ytick_25"/>
    <g id="ytick_26"/>
    <g id="ytick_27"/>
    <g id="ytick_28"/>
    <g id="ytick_29"/>
    <g id="ytick_30"/>
    <g id="ytick_31"/>
    <g id="ytick_32"/>
    <g id="ytick_33"/>
    <g id="ytick_34"/>
    <g id="ytick_35"/>
    <g id="text_10">
     <!-- Loss -->
     <g style="fill:#262626;" transform="translate(12.154375 156.440625)rotate(-90)scale(0.12 -0.12)">
      <defs>
       <path d="M 628 4666 
L 1259 4666 
L 1259 531 
L 3531 531 
L 3531 0 
L 628 0 
L 628 4666 
z
" id="DejaVuSans-4c" transform="scale(0.015625)"/>
      </defs>
      <use xlink:href="#DejaVuSans-4c"/>
      <use x="53.962891" xlink:href="#DejaVuSans-6f"/>
      <use x="115.144531" xlink:href="#DejaVuSans-73"/>
      <use x="167.244141" xlink:href="#DejaVuSans-73"/>
     </g>
    </g>
   </g>
   <g id="line2d_1">
    <path clip-path="url(#p653939d12f)" d="M -1 69.749074 
L 95.569405 69.831855 
L 121.920629 69.98802 
L 130.403828 69.798298 
L 137.335107 69.302411 
L 143.195419 68.461852 
L 148.271852 67.108467 
L 152.749584 65.597669 
L 156.755052 63.885738 
L 160.378438 62.508908 
L 166.729296 60.431651 
L 169.546643 60.163642 
L 172.169529 60.160887 
L 174.623076 60.281165 
L 176.927829 61.189463 
L 179.100808 62.359633 
L 181.156269 63.82472 
L 184.96112 67.41582 
L 188.419574 71.989242 
L 191.589474 77.146785 
L 194.515285 82.611693 
L 199.767316 93.824444 
L 202.144139 99.702617 
L 204.381065 106.099838 
L 206.493652 113.089537 
L 208.494997 120.750984 
L 210.396232 129.418948 
L 212.206897 138.634664 
L 215.588394 157.3118 
L 217.172656 164.739655 
L 218.69353 169.940402 
L 219.431743 171.691078 
L 220.155894 172.891377 
L 220.866509 173.706625 
L 221.564084 173.970811 
L 222.24909 173.980687 
L 222.921971 173.701366 
L 223.583149 173.210562 
L 224.233024 172.410271 
L 225.500367 170.248394 
L 226.11854 168.87333 
L 226.726821 167.219856 
L 227.325523 165.235561 
L 227.914942 162.847165 
L 228.495362 159.812078 
L 229.067054 156.148446 
L 230.185275 146.414459 
L 231.271543 133.548309 
L 234.846221 85.211012 
L 235.808722 74.593378 
L 236.747456 66.066349 
L 237.663567 58.863293 
L 238.558121 53.104006 
L 239.432108 49.00457 
L 240.286454 46.292243 
L 240.706533 45.412405 
L 241.533017 44.57674 
L 241.939618 44.443636 
L 242.341916 44.497127 
L 243.133961 45.501226 
L 243.90984 47.273244 
L 245.044754 50.857641 
L 246.864085 57.448744 
L 247.915308 60.979373 
L 248.938242 63.978618 
L 249.934372 66.259181 
L 250.584247 67.392467 
L 251.538694 68.688217 
L 252.775121 69.698976 
L 253.972599 70.28055 
L 255.133506 70.662098 
L 257.622767 71.244545 
L 262.86616 72.628701 
L 266.848297 73.884481 
L 269.288715 73.954196 
L 270.261064 74.160186 
L 271.395977 74.216182 
L 271.766876 74.163712 
L 272.316525 73.771822 
L 273.919344 72.399523 
L 274.438943 72.081342 
L 275.120877 71.833204 
L 275.457311 71.598374 
L 275.790793 71.572026 
L 276.285596 71.26919 
L 277.415689 70.833113 
L 277.732498 70.563847 
L 278.358302 70.275061 
L 279.57983 70.586783 
L 280.908707 70.537783 
L 281.627382 69.94182 
L 283.025215 67.879768 
L 283.570268 67.696291 
L 284.37347 67.598608 
L 284.899662 67.689749 
L 285.289581 68.043779 
L 285.41867 68.203149 
L 286.184135 69.992297 
L 286.561164 70.608813 
L 286.93449 70.948103 
L 287.058122 70.957402 
L 287.304186 70.818259 
L 287.912468 70.789578 
L 288.629787 71.45919 
L 289.100589 71.989405 
L 290.139048 73.237612 
L 290.703944 73.406751 
L 291.590672 73.243209 
L 292.134556 73.647548 
L 292.564128 73.962346 
L 292.883152 73.945877 
L 293.094357 73.947424 
L 293.40898 73.788003 
L 294.843746 72.542732 
L 295.144276 72.639328 
L 295.541321 72.876881 
L 295.7383 72.91728 
L 296.226327 72.614333 
L 296.994369 71.839194 
L 297.278431 71.734041 
L 297.466633 71.684904 
L 297.747201 71.600457 
L 298.3022 71.143715 
L 298.939622 69.856427 
L 299.388468 68.645745 
L 299.743767 68.311891 
L 299.832076 68.325357 
L 300.270567 68.927138 
L 300.444557 68.974309 
L 301.047327 69.696025 
L 301.30276 69.732128 
L 301.387525 69.703315 
L 301.640689 69.900943 
L 301.89218 69.91735 
L 302.05892 70.104458 
L 302.307668 70.235737 
L 302.718664 70.497391 
L 302.963146 70.811664 
L 303.286695 71.136107 
L 303.766913 71.47837 
L 304.554038 71.085796 
L 304.864381 71.133411 
L 305.095486 71.280096 
L 305.172211 71.186978 
L 305.401458 71.354399 
L 305.629332 71.501682 
L 306.006112 71.867607 
L 306.601298 72.509478 
L 306.74865 72.678251 
L 307.259931 72.761355 
L 307.978606 71.705063 
L 308.683947 71.986637 
L 308.753766 71.892536 
L 308.823458 71.956898 
L 309.03177 71.839366 
L 309.170013 71.835907 
L 309.307755 71.937549 
L 309.785959 71.76061 
L 310.123889 71.766794 
L 310.392086 72.016917 
L 311.185508 72.202481 
L 311.381303 72.03363 
L 311.834274 71.343369 
L 311.96271 71.221179 
L 312.66145 72.200253 
L 312.849808 72.030126 
L 313.285714 71.497083 
L 313.471011 71.494755 
L 313.777847 71.523103 
L 314.021545 71.152222 
L 314.323987 70.591264 
L 314.624042 70.515486 
L 315.626871 71.481585 
L 315.859035 71.403856 
L 316.433317 70.871969 
L 317.111198 71.975032 
L 317.390119 72.584567 
L 317.611792 72.793748 
L 317.832179 72.564968 
L 318.32343 71.471302 
L 318.539742 71.280727 
L 318.701172 71.231264 
L 318.808413 71.173676 
L 318.86192 71.226404 
L 318.915352 71.161806 
L 319.498199 71.273316 
L 319.655618 71.471847 
L 320.020416 71.49698 
L 320.330337 71.75281 
L 320.993289 71.581337 
L 321.395586 72.190286 
L 321.941885 72.152822 
L 322.431799 73.171136 
L 322.674408 73.654869 
L 322.963511 73.494714 
L 323.155031 72.941236 
L 323.582458 71.972749 
L 323.629654 71.996271 
L 323.676792 71.894124 
L 323.770893 71.944766 
L 324.005132 71.690266 
L 324.330659 71.031011 
L 324.376937 71.071902 
L 324.882303 71.671649 
L 325.155152 71.679049 
L 325.426057 71.204461 
L 325.605593 70.894629 
L 325.650345 70.936434 
L 325.917756 71.382708 
L 326.006477 71.617134 
L 326.227377 71.920085 
L 326.271403 71.953966 
L 326.315379 71.888502 
L 327.184371 71.207107 
L 327.483886 71.513498 
L 327.611531 71.514979 
L 328.075928 72.508351 
L 328.201603 72.510031 
L 328.368527 72.032264 
L 328.741447 70.934882 
L 328.782657 70.886757 
L 329.354964 72.254225 
L 329.758543 73.044143 
L 329.838747 73.086269 
L 329.878786 73.00154 
L 330.03852 72.54683 
L 330.35599 71.504679 
L 330.513736 71.380812 
L 330.749135 71.682647 
L 331.099522 72.38185 
L 331.215604 72.146076 
L 331.44671 71.609942 
L 331.600004 71.52827 
L 332.018402 72.202714 
L 332.05621 72.180945 
L 332.131716 72.134565 
L 332.507008 71.397997 
L 332.581623 71.460716 
L 332.952522 72.011488 
L 332.989413 71.976322 
L 333.392876 71.003975 
L 333.611154 71.223525 
L 333.864239 71.885953 
L 334.008106 71.884035 
L 334.187177 71.616612 
L 334.25857 71.717772 
L 334.365409 71.940687 
L 334.542809 72.251191 
L 334.613538 72.150015 
L 334.860058 71.636614 
L 335.03517 71.658045 
L 335.59017 71.736166 
L 335.727663 71.95345 
L 335.761958 71.906806 
L 336.238878 72.366287 
L 336.272715 72.281119 
L 336.374048 72.111967 
L 336.575908 71.58762 
L 336.743309 71.086371 
L 336.876702 71.210277 
L 336.909977 71.167289 
L 336.943223 71.197452 
L 337.14209 71.497508 
L 337.536732 70.932719 
L 337.634755 70.884632 
L 337.894922 70.694392 
L 337.927319 70.73802 
L 338.024341 70.913996 
L 338.281865 71.587734 
L 338.696656 70.878259 
L 338.728376 71.001722 
L 338.918144 71.752624 
L 339.075564 72.099627 
L 339.106969 72.022869 
L 339.169703 72.081905 
L 339.48183 72.113448 
L 339.791414 70.877403 
L 339.85303 71.012181 
L 340.067901 71.241217 
L 340.129071 71.175217 
L 340.372769 70.815576 
L 340.403122 70.845983 
L 340.494035 70.87219 
L 340.735412 71.482452 
L 341.005142 72.133495 
L 341.183904 72.228316 
L 341.272971 72.002264 
L 341.479987 71.196925 
L 341.685881 70.506238 
L 341.744503 70.52827 
L 341.832268 70.692562 
L 342.181315 71.772696 
L 342.296956 71.64961 
L 342.325811 71.680634 
L 342.527187 71.525224 
L 342.555868 71.583668 
L 342.727502 71.956865 
L 342.756032 71.86045 
L 342.813029 71.918445 
L 342.955148 72.076195 
L 343.181439 72.320948 
L 343.20963 72.292231 
L 343.406391 71.616694 
L 343.602138 71.19716 
L 343.769122 71.825541 
L 343.963015 72.425126 
L 343.990634 72.46001 
L 344.073369 72.385888 
L 344.347859 71.860956 
L 344.3752 71.946949 
L 344.674653 72.078244 
L 345.159636 72.418017 
L 345.319932 72.808906 
L 345.770467 72.227076 
L 345.928214 72.048872 
L 346.085308 72.093936 
L 346.293762 72.066807 
L 346.423468 71.809761 
L 346.449357 71.866048 
L 346.630082 72.266481 
L 346.65583 72.252081 
L 346.784308 72.009385 
L 346.988975 71.711099 
L 347.014481 71.728357 
L 347.141756 71.889149 
L 347.344512 71.691951 
L 347.495873 71.698852 
L 347.646634 71.482516 
L 347.996101 70.494214 
L 348.169637 69.796373 
L 348.194364 69.753903 
L 348.243768 69.876902 
L 348.538855 72.28666 
L 348.63671 72.091426 
L 348.709937 71.956798 
L 348.758676 72.002585 
L 349.025632 72.310143 
L 349.049808 72.293252 
L 349.266703 72.233864 
L 349.482368 72.639799 
L 349.530127 72.628851 
L 349.553985 72.551421 
L 349.76803 72.333767 
L 350.145606 71.615874 
L 350.16908 71.641529 
L 350.3797 72.353517 
L 350.449648 72.276063 
L 350.589159 72.306358 
L 350.797471 72.757005 
L 350.866655 72.602969 
L 351.165007 71.095009 
L 351.210701 71.138612 
L 351.233527 71.107147 
L 351.279138 71.213849 
L 351.483713 71.725218 
L 351.529025 71.773499 
L 351.77728 72.43445 
L 352.001569 72.056798 
L 352.202303 71.535266 
L 352.26898 71.575214 
L 352.313366 71.513085 
L 352.3577 71.464013 
L 352.379848 71.508806 
L 352.556568 71.820375 
L 352.688571 71.741254 
L 352.710527 71.761062 
L 353.081851 72.585317 
L 353.103581 72.619376 
L 353.147004 72.573207 
L 353.384948 71.747501 
L 353.471105 71.807533 
L 353.492614 71.872753 
L 353.557067 71.717187 
L 353.685647 71.709825 
L 353.83511 72.027848 
L 353.898986 71.935652 
L 354.111133 71.834519 
L 354.280003 72.226425 
L 354.53191 71.906074 
L 354.573733 71.801423 
L 354.678088 71.583676 
L 354.698925 71.617672 
L 355.051415 72.608419 
L 355.113281 72.475015 
L 355.400666 71.638021 
L 355.563916 70.771186 
L 355.928686 70.862279 
L 356.029392 71.26673 
L 356.109766 71.143638 
L 356.230009 70.684034 
L 356.289988 70.780259 
L 356.409663 70.964582 
L 356.429573 70.937813 
L 356.509106 70.883994 
L 356.46936 70.968739 
L 356.528963 70.952977 
L 356.608289 71.136044 
L 357.002453 72.164746 
L 357.080797 72.323172 
L 357.13945 72.287719 
L 357.411973 71.291441 
L 357.489479 71.519363 
L 357.759513 72.426312 
L 357.855491 72.361468 
L 357.874658 72.377165 
L 358.046723 72.547151 
L 358.103905 72.479575 
L 358.161002 72.519425 
L 358.331779 72.70864 
L 358.858231 70.717594 
L 358.951478 70.897951 
L 359.174342 72.11705 
L 359.211359 72.225929 
L 359.248341 72.044783 
L 359.414313 71.546113 
L 359.469476 71.600583 
L 359.506208 71.656479 
L 359.561238 71.557782 
L 359.689333 71.348905 
L 359.744099 71.529683 
L 359.798786 71.569011 
L 359.816998 71.492103 
L 359.907926 71.402412 
L 359.926085 71.420523 
L 360.215462 72.09235 
L 360.233476 72.02658 
L 360.431059 71.603992 
L 360.574114 71.313958 
L 360.76994 71.563194 
L 360.787692 71.541389 
L 360.87633 71.358708 
L 360.929414 71.412779 
L 360.947092 71.432369 
L 360.964762 71.364848 
L 361.035359 71.226085 
L 361.088221 71.278388 
L 361.15859 71.334313 
L 361.298939 71.756449 
L 361.316446 71.714397 
L 361.456213 71.597638 
L 361.473648 71.64619 
L 361.664906 71.920975 
L 361.889705 71.586929 
L 361.975813 71.640728 
L 362.027385 71.763959 
L 362.078886 71.731595 
L 362.113182 71.641213 
L 362.181681 71.740624 
L 362.318309 72.115293 
L 362.352389 72.106401 
L 362.369418 72.13512 
L 362.403453 72.072753 
L 362.437457 72.072268 
L 362.556233 71.494126 
L 362.708402 70.841377 
L 362.75899 71.028741 
L 362.843154 71.271633 
L 362.893563 71.21103 
L 363.04439 70.497311 
L 363.211277 70.637143 
L 363.2612 70.547331 
L 363.294446 70.658296 
L 363.493314 71.444373 
L 363.592359 71.818946 
L 363.658246 71.724893 
L 364.051188 70.728482 
L 364.116285 70.922164 
L 364.456229 71.561355 
L 364.600993 71.305398 
L 364.681181 71.394266 
L 365.016132 72.379794 
L 365.047879 72.426968 
L 365.09545 72.347009 
L 365.269368 71.426425 
L 365.411074 71.534242 
L 365.56791 72.022666 
L 365.614834 71.808561 
L 365.770833 70.8111 
L 365.801956 70.817126 
L 366.003637 71.885716 
L 366.03457 71.877163 
L 366.188859 72.139072 
L 366.219642 72.101398 
L 366.327186 71.71526 
L 366.388503 71.776574 
L 366.465011 71.549455 
L 366.556618 71.208902 
L 366.602339 71.45186 
L 366.693615 71.866195 
L 366.739172 71.799052 
L 366.875514 71.211662 
L 366.905746 71.316725 
L 366.981221 71.751409 
L 367.086635 72.154563 
L 367.131723 72.022379 
L 367.191758 71.858392 
L 367.236721 72.010416 
L 367.34143 72.332071 
L 367.386217 72.161854 
L 367.505392 72.06659 
L 367.520263 72.16444 
L 367.683457 72.884629 
L 367.742627 72.576132 
L 367.919587 71.132859 
L 367.949 71.360783 
L 368.125004 72.703235 
L 368.139635 72.624405 
L 368.445577 70.768456 
L 368.489083 70.907233 
L 368.763469 71.556042 
L 368.777856 71.544435 
L 368.9787 71.119691 
L 368.806613 71.616313 
L 369.0216 71.279521 
L 369.164252 71.729969 
L 369.377232 72.73671 
L 369.433826 72.442551 
L 369.869593 71.040832 
L 369.897536 71.116965 
L 369.925459 71.220367 
L 369.967305 71.450415 
L 370.050858 71.934666 
L 370.120346 71.732064 
L 370.189707 71.548253 
L 370.231263 71.693249 
L 370.314239 72.115759 
L 370.369456 72.048538 
L 370.589524 70.968886 
L 370.685405 71.12812 
L 370.726423 71.045681 
L 370.82196 70.701065 
L 370.862831 70.878331 
L 370.998751 72.115535 
L 371.147704 72.036057 
L 371.201724 72.129783 
L 371.228705 72.097623 
L 371.403619 72.55001 
L 371.484078 72.753193 
L 371.550997 72.618136 
L 371.711124 71.925376 
L 371.804221 72.04473 
L 371.817502 72.070811 
L 371.857317 71.941165 
L 371.936823 71.046055 
L 372.029369 71.323908 
L 372.331874 72.366664 
L 372.384239 72.134166 
L 372.553928 71.752708 
L 372.566949 71.764811 
L 372.579967 71.680178 
L 372.826451 70.163861 
L 372.878139 70.347813 
L 373.007053 71.100139 
L 373.058497 70.996095 
L 373.212411 69.513211 
L 373.263578 69.933054 
L 373.531078 71.670458 
L 373.556457 71.620952 
L 373.581818 71.609295 
L 373.581818 71.609295 
" style="fill:none;stroke:#ffa500;stroke-linecap:round;stroke-width:1.5;"/>
   </g>
   <g id="line2d_2">
    <path clip-path="url(#p653939d12f)" d="M -1 69.077171 
L 69.218182 69.076486 
L 95.569405 67.777728 
L 110.983883 66.73394 
L 121.920629 65.167049 
L 137.335107 63.929721 
L 143.195419 63.891858 
L 148.271852 64.095081 
L 152.749584 64.157659 
L 156.755052 65.636355 
L 160.378438 66.854733 
L 163.68633 68.309352 
L 166.729296 70.627426 
L 169.546643 72.552832 
L 174.623076 77.102915 
L 176.927829 78.957215 
L 181.156269 83.58529 
L 183.106275 85.991503 
L 184.96112 88.099717 
L 193.08052 98.844988 
L 197.231925 104.627471 
L 199.767316 108.535787 
L 208.494997 124.072546 
L 213.080885 132.501381 
L 215.588394 136.661905 
L 217.940698 140.016285 
L 219.431743 141.754636 
L 221.564084 143.734929 
L 223.583149 145.227651 
L 227.325523 147.070879 
L 228.495362 147.488197 
L 231.271543 148.228952 
L 236.747456 149.088215 
L 242.341916 149.514485 
L 244.670201 149.575401 
L 254.557484 149.019981 
L 258.154478 148.564161 
L 269.485184 146.283978 
L 271.209162 145.780681 
L 272.316525 145.455791 
L 275.790793 144.024613 
L 281.341541 141.224661 
L 282.332723 140.633144 
L 284.768795 139.256478 
L 287.912468 137.350002 
L 288.392181 136.905676 
L 288.748035 136.472558 
L 289.333821 135.990575 
L 289.910718 135.631211 
L 290.2527 135.535574 
L 291.149893 134.928445 
L 292.457189 134.001001 
L 294.439308 132.663018 
L 295.144276 132.036334 
L 295.541321 131.800909 
L 295.934263 131.558873 
L 296.323185 131.336954 
L 298.3022 130.078105 
L 300.183273 129.217015 
L 301.30276 128.750003 
L 302.800333 128.193442 
L 306.601298 127.11504 
L 309.100954 126.064541 
L 309.718012 125.766518 
L 310.658404 125.203996 
L 311.054416 124.906727 
L 311.446345 124.458559 
L 311.705404 124.443683 
L 313.161678 123.571688 
L 314.082226 123.019421 
L 314.743405 122.648897 
L 317.390119 121.010975 
L 318.808413 119.956162 
L 321.59515 118.314459 
L 323.107242 117.888313 
L 324.745141 117.519928 
L 325.426057 117.124858 
L 325.917756 116.871091 
L 326.882478 116.217322 
L 327.355811 116.072361 
L 327.78106 115.914417 
L 328.49324 115.446027 
L 329.069887 115.118503 
L 333.026269 113.850089 
L 333.429343 113.705832 
L 334.789787 113.282168 
L 336.103224 112.960324 
L 337.471242 112.282581 
L 337.602109 112.142758 
L 340.159619 111.116251 
L 341.272971 110.814397 
L 342.268079 110.711278 
L 342.784541 110.683287 
L 343.434416 110.491571 
L 343.824621 110.390983 
L 347.996101 108.951932 
L 350.215985 108.41598 
L 351.506376 107.918901 
L 352.424105 107.678545 
L 356.049502 106.88167 
L 358.161002 106.699191 
L 360.840899 105.836284 
L 361.123422 105.687381 
L 361.734217 105.422986 
L 362.181681 105.31099 
L 363.592359 104.554759 
L 363.985979 104.330636 
L 364.213722 104.239914 
L 364.5528 104.058981 
L 365.300904 103.565875 
L 366.065478 103.261006 
L 366.388503 103.150714 
L 367.56484 102.593876 
L 367.83121 102.466579 
L 369.419685 101.796567 
L 369.939413 101.506705 
L 370.808327 101.254896 
L 371.107138 101.151491 
L 372.852304 100.201657 
L 373.173991 100.136189 
L 373.581818 100.042369 
L 373.581818 100.042369 
" style="fill:none;stroke:#7ad151;stroke-linecap:round;stroke-width:1.5;"/>
   </g>
   <g id="line2d_3">
    <path clip-path="url(#p653939d12f)" d="M -1 69.060918 
L 69.218182 69.061576 
L 95.569405 69.67917 
L 130.403828 69.884437 
L 137.335107 69.753745 
L 148.271852 69.975387 
L 152.749584 70.601728 
L 156.755052 70.526086 
L 160.378438 71.137958 
L 166.729296 73.527751 
L 169.546643 74.931346 
L 172.169529 76.65628 
L 174.623076 79.784116 
L 176.927829 81.374759 
L 179.100808 83.549871 
L 181.156269 85.26262 
L 183.106275 87.434299 
L 184.96112 89.290788 
L 186.729661 91.585177 
L 188.419574 93.964201 
L 190.037554 95.970636 
L 197.231925 106.229287 
L 202.144139 115.049226 
L 204.381065 119.572339 
L 206.493652 124.360647 
L 208.494997 128.936202 
L 215.588394 145.983823 
L 217.940698 150.631439 
L 219.431743 153.088794 
L 220.866509 155.058369 
L 222.24909 156.560225 
L 224.233024 158.154233 
L 225.500367 158.918685 
L 227.325523 159.784187 
L 230.185275 160.683275 
L 232.327633 161.256102 
L 241.533017 162.982755 
L 246.146766 163.511325 
L 250.260698 163.849414 
L 252.161934 163.98977 
L 256.260012 164.232392 
L 258.678856 164.305814 
L 262.63221 164.08491 
L 265.998725 163.459016 
L 267.473245 163.168958 
L 270.261064 162.30307 
L 272.49799 161.544265 
L 273.919344 161.045722 
L 277.415689 159.527783 
L 279.879176 158.126775 
L 286.057623 154.55373 
L 292.134556 149.491701 
L 297.747201 144.387594 
L 299.119797 143.42763 
L 300.444557 142.474985 
L 301.808534 141.34684 
L 302.800333 140.497907 
L 303.687297 139.833617 
L 305.401458 138.370276 
L 309.170013 134.876046 
L 310.258224 133.889858 
L 312.974863 131.693624 
L 315.626871 129.693462 
L 316.830215 128.895562 
L 320.535556 126.433757 
L 323.345592 124.904577 
L 324.237936 124.492899 
L 325.605593 123.811487 
L 326.315379 123.473442 
L 327.227304 123.199181 
L 329.718377 122.121972 
L 331.021937 121.211945 
L 332.018402 120.484417 
L 332.878631 119.925383 
L 333.683636 119.40668 
L 334.008106 119.175803 
L 334.860058 118.405187 
L 335.796223 117.607605 
L 336.374048 117.251633 
L 339.012674 116.020095 
L 339.605966 115.777866 
L 340.735412 115.394083 
L 342.123363 114.931568 
L 342.955148 114.491702 
L 345.186399 113.049949 
L 346.526915 112.731135 
L 348.489832 112.623425 
L 349.434548 112.613721 
L 351.096364 112.32728 
L 352.135509 112.013857 
L 352.5786 111.864136 
L 352.863865 111.731487 
L 353.320202 111.634828 
L 355.400666 111.155139 
L 355.969 111.020922 
L 356.746711 110.880748 
L 357.392572 110.839438 
L 359.597881 110.412972 
L 360.269476 110.075035 
L 361.768825 109.733502 
L 362.708402 109.511228 
L 363.244566 109.305408 
L 363.887955 109.259635 
L 364.1975 109.299764 
L 365.536594 109.147797 
L 365.848593 109.15317 
L 369.334731 108.222561 
L 370.479649 107.905849 
L 372.029369 107.734867 
L 372.540902 107.654089 
L 373.429395 107.662541 
L 373.581818 107.656367 
L 373.581818 107.656367 
" style="fill:none;stroke:#44bf70;stroke-linecap:round;stroke-width:1.5;"/>
   </g>
   <g id="line2d_4">
    <path clip-path="url(#p653939d12f)" d="M -1 70.496653 
L 69.218182 70.497266 
L 95.569405 70.813357 
L 121.920629 70.637222 
L 130.403828 70.392176 
L 137.335107 70.338637 
L 143.195419 70.427567 
L 148.271852 70.80587 
L 156.755052 72.231499 
L 160.378438 73.615553 
L 163.68633 75.286388 
L 166.729296 77.014157 
L 172.169529 80.511503 
L 174.623076 82.360339 
L 181.156269 88.615065 
L 188.419574 96.67802 
L 193.08052 102.566416 
L 195.897866 106.691874 
L 200.9743 115.680552 
L 203.279052 120.267569 
L 206.493652 127.686769 
L 211.312344 140.345023 
L 215.588394 151.803802 
L 217.940698 157.414459 
L 219.431743 160.48982 
L 220.866509 162.968678 
L 222.24909 164.966595 
L 224.233024 167.204906 
L 226.11854 168.790826 
L 227.325523 169.570532 
L 229.630276 170.773832 
L 231.271543 171.410304 
L 233.355176 172.124897 
L 235.808722 172.894287 
L 238.113475 173.568772 
L 246.507118 175.436799 
L 253.078045 176.456879 
L 255.418278 176.545879 
L 258.678856 176.304603 
L 263.559495 175.29762 
L 264.24041 174.932052 
L 264.909345 174.491066 
L 265.783332 173.997055 
L 267.266068 173.042987 
L 267.473245 173.020866 
L 268.492522 172.406616 
L 269.288715 172.11914 
L 269.875103 171.832731 
L 270.832755 171.354964 
L 271.950977 170.570139 
L 273.392544 169.727084 
L 276.774041 168.216751 
L 280.470889 166.402169 
L 281.769501 165.783838 
L 282.74973 165.162021 
L 289.910718 159.73517 
L 291.700073 158.026545 
L 293.094357 156.605685 
L 294.235465 155.016218 
L 294.843746 153.87756 
L 295.144276 153.319122 
L 298.849214 146.345529 
L 301.4721 141.987167 
L 302.718664 140.433157 
L 303.367153 139.722086 
L 303.766913 138.964994 
L 303.925647 138.800058 
L 304.162512 138.604976 
L 307.764426 133.81396 
L 309.581751 131.932396 
L 310.45884 131.057299 
L 310.790867 130.734187 
L 311.96271 129.637383 
L 312.218286 129.434652 
L 312.849808 128.683206 
L 314.142811 127.259012 
L 315.626871 125.885912 
L 316.261942 125.677193 
L 317.055167 125.556626 
L 320.942701 125.151427 
L 322.33432 124.673164 
L 322.963511 124.418889 
L 327.949836 123.239256 
L 330.553071 123.010592 
L 332.507008 122.417901 
L 333.647413 121.846918 
L 334.860058 121.619487 
L 335.624589 121.617676 
L 336.272715 121.609382 
L 337.042787 121.615181 
L 337.699964 121.581616 
L 339.012674 121.322157 
L 342.036268 120.402978 
L 344.429822 119.271511 
L 349.266703 118.02946 
L 350.19254 117.721093 
L 352.841997 117.298489 
L 354.448126 116.503966 
L 356.029392 116.073955 
L 356.805881 115.850095 
L 359.506208 115.757547 
L 360.215462 115.861511 
L 360.64544 115.822055 
L 361.351436 115.758809 
L 363.641785 115.606104 
L 364.116285 115.583824 
L 367.281632 115.479362 
L 368.547013 115.197118 
L 369.78564 114.885474 
L 370.479649 114.680917 
L 371.87058 114.717937 
L 372.318772 114.697634 
L 373.518383 114.581576 
L 373.581818 114.571777 
L 373.581818 114.571777 
" style="fill:none;stroke:#22a884;stroke-linecap:round;stroke-width:1.5;"/>
   </g>
   <g id="line2d_5">
    <path clip-path="url(#p653939d12f)" d="M -1 69.70627 
L 69.218182 69.706744 
L 95.569405 70.063282 
L 110.983883 70.105824 
L 121.920629 70.340293 
L 130.403828 70.649378 
L 137.335107 71.588999 
L 143.195419 71.904707 
L 148.271852 72.677611 
L 156.755052 74.573572 
L 160.378438 75.849232 
L 163.68633 77.301512 
L 166.729296 79.017812 
L 169.546643 80.924013 
L 174.623076 85.022564 
L 176.927829 87.153159 
L 179.100808 88.943398 
L 183.106275 92.929563 
L 186.729661 97.064262 
L 188.419574 99.030488 
L 191.589474 103.246118 
L 194.515285 107.576058 
L 195.897866 109.821386 
L 198.520753 114.608161 
L 200.9743 119.475394 
L 204.381065 127.292524 
L 206.493652 132.701903 
L 209.457499 140.963983 
L 215.588394 158.898583 
L 217.940698 164.891309 
L 219.431743 168.093379 
L 220.866509 170.677491 
L 222.921971 173.498447 
L 224.233024 174.898822 
L 226.726821 176.906992 
L 230.185275 179.019309 
L 232.327633 180.09958 
L 236.747456 182.163301 
L 238.113475 182.63469 
L 239.861681 183.45324 
L 244.291922 185.099783 
L 246.507118 185.83754 
L 253.676747 188.082516 
L 257.354096 188.792095 
L 261.681741 189.197929 
L 262.63221 189.1552 
L 264.464699 188.91407 
L 267.057757 188.259209 
L 268.088085 187.901978 
L 270.452584 186.945781 
L 273.037244 185.653878 
L 275.956444 183.666345 
L 277.574424 182.039381 
L 278.202814 181.290039 
L 280.763327 178.313287 
L 284.107617 174.208207 
L 289.100589 167.776835 
L 294.235465 161.939268 
L 298.939622 156.420361 
L 300.704058 154.495151 
L 304.319607 150.647519 
L 305.24878 149.670586 
L 306.895433 147.850094 
L 310.056543 144.119168 
L 311.511275 142.567109 
L 314.98101 138.970842 
L 317.832179 135.697788 
L 319.340125 134.314764 
L 320.072245 133.500259 
L 325.515931 127.264535 
L 326.490773 126.421633 
L 327.441242 125.807313 
L 329.069887 124.860137 
L 330.157882 124.172024 
L 330.983085 123.712965 
L 332.319825 123.170157 
L 333.246657 122.844651 
L 340.281565 120.223613 
L 342.007192 119.407817 
L 345.293263 117.540923 
L 345.928214 117.034922 
L 347.621549 116.217737 
L 350.449648 115.011301 
L 351.642069 114.410721 
L 353.038354 113.91648 
L 354.65724 113.315185 
L 356.429573 112.4541 
L 357.295417 111.872251 
L 357.893814 111.724143 
L 359.889757 111.143771 
L 360.502654 110.99214 
L 361.368919 110.782993 
L 361.647559 110.697956 
L 362.488407 110.405312 
L 366.29649 109.809096 
L 367.860692 109.285417 
L 368.300197 109.104084 
L 368.849708 108.908668 
L 372.605988 107.754282 
L 373.173991 107.915666 
L 373.581818 108.019512 
L 373.581818 108.019512 
" style="fill:none;stroke:#21918c;stroke-linecap:round;stroke-width:1.5;"/>
   </g>
   <g id="line2d_6">
    <path clip-path="url(#p653939d12f)" d="M -1 70.813656 
L 69.218182 70.814374 
L 95.569405 71.482238 
L 130.403828 73.393476 
L 143.195419 74.986107 
L 148.271852 76.059631 
L 152.749584 77.289116 
L 156.755052 78.657132 
L 163.68633 81.492947 
L 166.729296 82.998683 
L 169.546643 84.767056 
L 172.169529 86.607923 
L 174.623076 88.188086 
L 179.100808 91.746171 
L 184.96112 97.266667 
L 188.419574 101.058601 
L 191.589474 105.089195 
L 194.515285 109.271841 
L 197.231925 113.618133 
L 198.520753 115.851558 
L 200.9743 120.644107 
L 203.279052 125.650672 
L 205.452031 130.896565 
L 207.507493 136.236562 
L 209.457499 141.687069 
L 214.770798 158.395745 
L 217.172656 165.913365 
L 219.431743 172.530269 
L 220.866509 176.245751 
L 223.583149 182.25247 
L 226.11854 186.906597 
L 227.325523 188.887207 
L 229.630276 191.892036 
L 234.846221 197.94511 
L 237.663567 200.495783 
L 240.706533 202.803847 
L 242.740001 203.864366 
L 244.291922 204.596352 
L 247.915308 205.762668 
L 250.584247 206.158182 
L 252.161934 206.32218 
L 257.622767 205.873586 
L 260.706898 205.09932 
L 262.159946 204.502783 
L 263.559495 203.974808 
L 264.014791 203.760563 
L 265.783332 203.137175 
L 268.290841 201.954498 
L 270.068573 200.903403 
L 271.021425 200.257044 
L 271.950977 199.581933 
L 279.729798 194.573416 
L 280.617389 193.824314 
L 282.052155 192.453964 
L 283.025215 191.468996 
L 286.686014 187.389958 
L 291.149893 182.547136 
L 292.564128 181.062533 
L 295.934263 177.528664 
L 297.372648 176.189046 
L 302.963146 169.787332 
L 309.513437 161.607697 
L 310.856925 159.856378 
L 312.026765 158.251822 
L 314.263691 155.14088 
L 315.21714 153.604098 
L 317.111198 151.025884 
L 318.593628 149.300144 
L 320.22731 147.404707 
L 321.395586 145.895596 
L 322.819234 144.055366 
L 325.06442 141.737981 
L 325.873318 140.925549 
L 327.14139 139.927392 
L 328.243403 139.217617 
L 329.23305 138.76167 
L 331.138256 137.927576 
L 331.866789 137.603607 
L 332.767525 136.999673 
L 333.647413 136.011041 
L 334.187177 135.494102 
L 336.374048 134.225086 
L 337.009628 133.965765 
L 337.699964 133.460397 
L 338.537656 132.863117 
L 340.855528 131.528563 
L 341.479987 131.209116 
L 342.354644 130.92517 
L 342.898364 130.700127 
L 344.155924 130.036018 
L 344.755915 129.666549 
L 345.744113 128.793164 
L 346.861188 128.177691 
L 347.217916 128.036517 
L 347.646634 127.83104 
L 348.41618 127.164271 
L 350.332996 125.548462 
L 351.004647 125.448157 
L 351.687193 125.41369 
L 352.798224 125.158876 
L 354.406165 124.864587 
L 356.18997 124.681065 
L 357.721054 125.047022 
L 359.007317 124.754372 
L 359.395907 124.405344 
L 360.395211 123.777898 
L 360.609794 123.711739 
L 361.924171 123.512481 
L 362.505375 123.465658 
L 364.067472 123.456526 
L 364.407851 123.444581 
L 365.25359 123.510039 
L 365.614834 123.534899 
L 367.978391 122.913447 
L 368.387492 123.006372 
L 369.419685 122.779532 
L 369.855614 122.721737 
L 370.82196 122.779829 
L 373.581818 122.514347 
L 373.581818 122.514347 
" style="fill:none;stroke:#2a788e;stroke-linecap:round;stroke-width:1.5;"/>
   </g>
   <g id="line2d_7">
    <path clip-path="url(#p653939d12f)" d="M -1 69.628257 
L 69.218182 69.62886 
L 95.569405 70.306844 
L 110.983883 70.909314 
L 121.920629 71.655764 
L 137.335107 73.216364 
L 143.195419 74.075466 
L 152.749584 76.092939 
L 156.755052 77.514905 
L 160.378438 79.158928 
L 163.68633 80.889355 
L 169.546643 84.419623 
L 174.623076 88.283341 
L 179.100808 92.130445 
L 183.106275 96.024418 
L 186.729661 100.193412 
L 190.037554 104.398324 
L 193.08052 108.85574 
L 195.897866 113.58547 
L 198.520753 118.508511 
L 200.9743 123.662935 
L 203.279052 129.069861 
L 205.452031 134.865003 
L 207.507493 140.802706 
L 209.457499 146.761691 
L 215.588394 166.516735 
L 217.940698 173.201579 
L 220.155894 178.425287 
L 221.564084 181.102297 
L 223.583149 184.364929 
L 225.500367 186.892684 
L 226.726821 188.273463 
L 229.630276 191.140162 
L 233.355176 194.089569 
L 236.747456 196.320367 
L 238.558121 197.320179 
L 241.939618 198.968698 
L 243.52388 199.616022 
L 247.915308 201.276219 
L 254.557484 202.900813 
L 256.260012 203.153112 
L 259.196099 203.435279 
L 261.440364 203.498774 
L 263.098679 203.329458 
L 263.559495 203.287141 
L 265.129732 202.919422 
L 265.783332 202.71362 
L 267.884241 202.184635 
L 270.452584 200.823328 
L 271.395977 200.276494 
L 272.316525 199.646186 
L 275.624418 196.880769 
L 277.574424 194.358846 
L 279.879176 191.140697 
L 280.617389 190.406507 
L 281.48473 189.345366 
L 283.570268 186.188495 
L 284.768795 183.355525 
L 287.426624 174.710702 
L 288.392181 171.568065 
L 290.366014 166.298796 
L 291.917935 162.984189 
L 295.343317 156.794835 
L 296.226327 155.22264 
L 303.687297 142.528115 
L 305.018607 140.092701 
L 306.822113 137.570247 
L 309.376439 134.890766 
L 309.853786 134.444737 
L 310.724693 133.928811 
L 311.705404 133.725963 
L 312.912387 133.299429 
L 314.743405 132.267875 
L 317.278796 129.561216 
L 319.603218 127.175357 
L 320.535556 125.815582 
L 321.14465 125.222389 
L 323.298041 124.217186 
L 323.817856 124.209378 
L 324.927914 124.15438 
L 326.183299 123.783496 
L 326.925753 123.414454 
L 327.69639 123.038589 
L 329.23305 122.492149 
L 331.752682 121.050016 
L 333.136623 120.698212 
L 334.187177 120.373885 
L 336.306523 120.344203 
L 337.14209 120.379524 
L 338.281865 120.397999 
L 340.190142 120.752584 
L 340.855528 120.646577 
L 343.237802 119.873583 
L 343.769122 119.665917 
L 344.674653 119.17574 
L 346.912354 117.58733 
L 347.495873 117.394907 
L 348.977234 117.110178 
L 353.813794 116.322976 
L 355.09267 116.036491 
L 356.169935 115.948512 
L 357.663293 115.771785 
L 358.988713 115.508183 
L 359.980511 115.27867 
L 361.699577 114.953393 
L 365.142961 114.637021 
L 365.833053 114.510053 
L 369.603103 113.958666 
L 371.617799 113.981971 
L 373.161176 114.222876 
L 373.581818 114.250832 
L 373.581818 114.250832 
" style="fill:none;stroke:#355f8d;stroke-linecap:round;stroke-width:1.5;"/>
   </g>
   <g id="line2d_8">
    <path clip-path="url(#p653939d12f)" d="M -1 70.309565 
L 69.218182 70.310646 
L 110.983883 71.297224 
L 121.920629 72.029152 
L 130.403828 72.73342 
L 137.335107 73.69387 
L 143.195419 74.88527 
L 148.271852 76.097213 
L 152.749584 77.4721 
L 160.378438 80.533281 
L 163.68633 82.249678 
L 166.729296 83.602387 
L 172.169529 87.278608 
L 176.927829 91.000889 
L 181.156269 94.930893 
L 183.106275 96.814328 
L 186.729661 100.878992 
L 190.037554 105.129166 
L 193.08052 109.603439 
L 195.897866 114.41574 
L 198.520753 119.416116 
L 200.9743 124.685206 
L 203.279052 130.263044 
L 206.493652 138.947925 
L 209.457499 148.051194 
L 218.69353 177.469868 
L 221.564084 185.393277 
L 223.583149 190.393761 
L 225.500367 194.663759 
L 227.325523 198.30553 
L 231.271543 205.185009 
L 233.858716 208.987333 
L 238.113475 213.956733 
L 239.861681 215.469828 
L 241.939618 216.966119 
L 245.044754 218.509247 
L 245.782967 218.69465 
L 249.934372 219.340945 
L 251.2232 219.622701 
L 251.851591 219.784203 
L 253.378574 219.978944 
L 255.418278 219.899564 
L 256.260012 219.80733 
L 258.154478 219.626322 
L 259.452105 219.37591 
L 262.63221 218.263407 
L 263.559495 217.7557 
L 264.24041 217.429833 
L 268.290841 214.862554 
L 270.068573 213.363375 
L 274.610577 208.982978 
L 276.774041 206.404061 
L 278.202814 204.251196 
L 279.57983 201.666563 
L 280.908707 198.391958 
L 281.627382 196.608521 
L 283.298719 192.183529 
L 284.899662 187.780485 
L 286.810455 183.51098 
L 289.217384 178.82326 
L 291.917935 174.259082 
L 293.721021 171.676533 
L 295.243926 170.010436 
L 296.323185 169.027193 
L 297.840265 167.634636 
L 299.832076 165.602724 
L 300.270567 165.136199 
L 302.307668 163.065904 
L 303.846363 161.578133 
L 305.401458 159.842243 
L 311.640804 152.459401 
L 313.161678 151.039841 
L 314.203299 150.150595 
L 319.550744 145.451651 
L 321.345531 143.7325 
L 322.77102 142.461323 
L 327.012155 139.434531 
L 327.991913 138.94066 
L 331.06075 137.510994 
L 331.866789 137.188781 
L 335.348354 135.218399 
L 337.862499 134.456747 
L 340.372769 133.903728 
L 342.898364 133.377444 
L 343.880039 133.13454 
L 344.755915 132.858731 
L 345.346583 132.626314 
L 348.41618 131.218483 
L 349.410615 130.774264 
L 351.799769 129.75185 
L 354.174547 129.33083 
L 355.257245 129.243112 
L 356.30996 129.172201 
L 356.746711 129.09147 
L 359.025911 128.937269 
L 359.962378 128.907567 
L 361.105826 128.633274 
L 361.716901 128.569417 
L 362.437457 128.544371 
L 362.977429 128.512033 
L 364.1975 128.426003 
L 364.649126 128.345599 
L 365.174602 128.16894 
L 367.191758 127.970273 
L 369.164252 127.898154 
L 369.743594 127.900832 
L 370.32805 127.69096 
L 371.08007 127.617385 
L 371.457277 127.54943 
L 372.226928 127.409825 
L 373.250793 127.25922 
L 373.531078 127.2748 
L 373.581818 127.285605 
L 373.581818 127.285605 
" style="fill:none;stroke:#414487;stroke-linecap:round;stroke-width:1.5;"/>
   </g>
   <g id="line2d_9">
    <path clip-path="url(#p653939d12f)" d="M -1 72.182664 
L 69.218182 72.183664 
L 95.569405 72.993554 
L 121.920629 74.575301 
L 130.403828 75.491872 
L 137.335107 76.45065 
L 148.271852 78.337549 
L 152.749584 79.490854 
L 156.755052 80.844193 
L 160.378438 82.240863 
L 163.68633 83.657732 
L 166.729296 85.162258 
L 172.169529 88.555006 
L 176.927829 91.9751 
L 181.156269 95.51964 
L 184.96112 99.268182 
L 186.729661 101.194714 
L 190.037554 105.278023 
L 193.08052 109.614176 
L 195.897866 114.239054 
L 198.520753 119.166838 
L 200.9743 124.397239 
L 203.279052 129.912372 
L 205.452031 135.635939 
L 207.507493 141.599876 
L 209.457499 147.827141 
L 213.080885 160.1995 
L 215.588394 168.95775 
L 218.69353 179.121478 
L 221.564084 187.41157 
L 224.233024 193.577738 
L 226.726821 198.657873 
L 231.271543 207.003573 
L 236.747456 216.441223 
L 239.432108 220.57286 
L 241.122021 222.801802 
L 243.90984 225.879565 
L 248.259353 229.481129 
L 249.60522 230.285892 
L 250.905066 231.02165 
L 252.469763 231.68334 
L 253.676747 232.134436 
L 258.154478 232.937133 
L 259.196099 232.917954 
L 261.197444 232.897267 
L 265.34885 232.016679 
L 271.021425 230.252199 
L 273.215309 229.396258 
L 277.096219 227.487671 
L 278.973972 226.640335 
L 279.729798 226.31735 
L 283.298719 224.83909 
L 286.93449 223.06675 
L 287.426624 222.721238 
L 289.681009 221.340109 
L 291.260568 220.157575 
L 293.199521 218.242665 
L 293.927635 217.307678 
L 294.743039 216.478581 
L 295.442448 215.708541 
L 295.836408 215.268257 
L 297.747201 213.124744 
L 298.667749 212.46886 
L 299.566533 211.911423 
L 300.617755 211.002601 
L 302.881826 208.793869 
L 303.447442 208.273949 
L 303.846363 207.968934 
L 305.018607 206.845063 
L 305.477568 206.178018 
L 305.780492 205.768859 
L 306.30487 205.011389 
L 307.404757 203.729769 
L 309.649942 200.554198 
L 309.921492 200.279383 
L 310.525478 199.614652 
L 311.120018 199.168039 
L 312.66145 198.681316 
L 313.223747 198.284222 
L 314.323987 197.597488 
L 314.68377 197.410947 
L 315.099258 197.131605 
L 316.942857 195.883861 
L 317.445658 195.323327 
L 317.887077 195.084206 
L 318.160384 194.981254 
L 318.43174 194.855333 
L 319.392889 194.606033 
L 320.892045 193.621667 
L 321.29541 193.369704 
L 322.77102 191.845057 
L 323.911609 190.522211 
L 327.653984 187.544833 
L 330.67083 185.89575 
L 333.502172 184.775012 
L 334.15143 184.415458 
L 334.860058 184.115145 
L 335.658978 183.760517 
L 336.001166 183.609031 
L 336.542339 183.375025 
L 337.042787 183.181506 
L 337.634755 182.746221 
L 339.075564 181.987767 
L 341.597777 181.322163 
L 342.527187 181.068624 
L 343.040165 180.636533 
L 343.406391 180.360082 
L 343.685722 180.239397 
L 344.29312 180.081244 
L 344.782963 179.991642 
L 345.426422 179.775576 
L 345.928214 179.649617 
L 346.707273 179.531334 
L 346.988975 179.346465 
L 347.521041 178.727264 
L 348.293109 177.367544 
L 348.758676 176.791864 
L 349.506255 176.188576 
L 349.744307 176.051967 
L 350.612361 175.594849 
L 351.210701 175.330133 
L 351.529025 175.223015 
L 352.644621 175.145542 
L 353.276976 175.103535 
L 355.50278 174.30472 
L 356.86496 173.856506 
L 357.528173 173.839622 
L 358.464077 173.880574 
L 361.123422 173.983431 
L 366.799829 174.945869 
L 367.34143 174.909387 
L 367.727843 174.917064 
L 368.619302 174.828216 
L 369.405539 174.847975 
L 373.581818 174.989613 
L 373.581818 174.989613 
" style="fill:none;stroke:#482475;stroke-linecap:round;stroke-width:1.5;"/>
   </g>
   <g id="line2d_10">
    <path clip-path="url(#p653939d12f)" d="M -1 71.560415 
L 69.218182 71.561099 
L 95.569405 72.347424 
L 121.920629 73.394854 
L 130.403828 73.956438 
L 137.335107 74.579933 
L 143.195419 75.354178 
L 148.271852 76.426253 
L 156.755052 78.619703 
L 160.378438 79.933814 
L 163.68633 81.260786 
L 169.546643 84.101856 
L 174.623076 87.103323 
L 176.927829 88.672972 
L 181.156269 92.055636 
L 183.106275 93.748313 
L 186.729661 97.426886 
L 190.037554 101.306019 
L 193.08052 105.520057 
L 195.897866 109.880915 
L 198.520753 114.646692 
L 200.9743 119.714264 
L 203.279052 125.295942 
L 205.452031 131.096472 
L 208.494997 140.413812 
L 211.312344 149.851399 
L 219.431743 178.928186 
L 222.24909 187.745205 
L 225.500367 196.431646 
L 228.495362 203.701141 
L 233.858716 215.595695 
L 236.280987 220.315663 
L 237.663567 222.780807 
L 238.997626 224.93 
L 241.122021 227.807407 
L 245.044754 231.492957 
L 246.864085 232.780991 
L 247.915308 233.343725 
L 250.905066 234.54442 
L 252.775121 235.109072 
L 254.557484 235.430321 
L 255.418278 235.595461 
L 258.938357 236.502022 
L 260.459231 236.978454 
L 261.681741 237.540375 
L 263.559495 238.440978 
L 264.464699 238.871676 
L 268.290841 240.660416 
L 271.950977 241.488069 
L 274.266531 241.887213 
L 276.285596 242.069265 
L 277.574424 242.082001 
L 279.57983 242.036621 
L 280.617389 241.945226 
L 281.48473 241.887181 
L 282.052155 241.844848 
L 284.505702 241.588986 
L 288.272819 241.163129 
L 289.565632 241.008896 
L 300.704058 240.931311 
L 301.4721 240.913669 
L 305.24878 240.332053 
L 306.155784 240.436261 
L 306.74865 240.478712 
L 307.692764 240.603103 
L 308.473715 240.679245 
L 309.03177 240.761338 
L 309.785959 240.866465 
L 310.258224 240.842559 
L 311.705404 240.514538 
L 311.96271 240.378333 
L 312.72434 239.651344 
L 313.099509 239.478384 
L 314.263691 239.222847 
L 315.04018 238.859685 
L 315.334657 238.796297 
L 315.916855 238.446395 
L 316.376278 238.287179 
L 316.942857 237.955484 
L 317.223012 237.865496 
L 317.777202 237.765114 
L 318.701172 237.602697 
L 329.192325 237.565714 
L 329.51691 237.561229 
L 331.942671 237.557937 
L 332.394808 237.578224 
L 332.841632 237.565732 
L 333.099874 237.597772 
L 333.465774 237.611569 
L 336.001166 237.706131 
L 336.171111 237.71011 
L 337.208149 237.70113 
L 337.504001 237.682722 
L 337.797568 237.676787 
L 338.313933 237.682517 
L 338.728376 237.694594 
L 340.220641 237.713781 
L 340.524291 237.701243 
L 342.383456 237.674643 
L 342.813029 237.70477 
L 343.713542 237.693273 
L 344.018232 237.681892 
L 344.484365 237.69761 
L 345.796804 237.697242 
L 346.006842 237.695823 
L 346.397563 237.710348 
L 347.065442 237.673793 
L 347.470688 237.701106 
L 347.846723 237.678204 
L 349.146359 237.698686 
L 349.362705 237.689059 
L 351.233527 237.693356 
L 351.529025 237.685898 
L 351.77728 237.712375 
L 352.068598 237.70901 
L 353.276976 237.737208 
L 353.51411 237.707248 
L 353.749775 237.708071 
L 354.111133 237.684376 
L 354.844464 237.703212 
L 355.113281 237.743479 
L 356.608289 237.709635 
L 356.825584 237.715232 
L 357.100358 237.715751 
L 358.122947 237.681651 
L 358.255973 237.70876 
L 359.025911 237.700087 
L 359.192855 237.708253 
L 359.616189 237.706327 
L 360.016752 237.698552 
L 362.078886 237.67134 
L 362.164567 237.703598 
L 362.198786 237.684927 
L 362.859964 237.683954 
L 363.39401 237.689045 
L 363.641785 237.700237 
L 363.936999 237.670332 
L 370.023027 237.706983 
L 370.203564 237.710578 
L 370.341857 237.702973 
L 370.630646 237.664982 
L 370.958026 237.693593 
L 371.242189 237.670208 
L 371.617799 237.684399 
L 371.804221 237.706529 
L 371.883838 237.737029 
L 371.923583 237.713389 
L 372.449594 237.696838 
L 372.774692 237.682495 
L 372.89105 237.664552 
L 373.480271 237.692831 
L 373.581818 237.702137 
L 373.581818 237.702137 
" style="fill:none;stroke:#440154;stroke-linecap:round;stroke-width:1.5;"/>
   </g>
   <g id="patch_3">
    <path d="M 54 252 
L 54 34.56 
" style="fill:none;stroke:#262626;stroke-linecap:square;stroke-linejoin:miter;stroke-width:1.25;"/>
   </g>
   <g id="patch_4">
    <path d="M 54 252 
L 388.8 252 
" style="fill:none;stroke:#262626;stroke-linecap:square;stroke-linejoin:miter;stroke-width:1.25;"/>
   </g>
   <g id="legend_1">
    <g id="line2d_11">
     <path d="M 63.9 90.648906 
L 85.9 90.648906 
" style="fill:none;stroke:#ffa500;stroke-linecap:round;stroke-width:1.5;"/>
    </g>
    <g id="line2d_12"/>
    <g id="text_11">
     <!-- Growing -->
     <g style="fill:#262626;" transform="translate(94.7 94.498906)scale(0.11 -0.11)">
      <defs>
       <path d="M 3809 666 
L 3809 1919 
L 2778 1919 
L 2778 2438 
L 4434 2438 
L 4434 434 
Q 4069 175 3628 42 
Q 3188 -91 2688 -91 
Q 1594 -91 976 548 
Q 359 1188 359 2328 
Q 359 3472 976 4111 
Q 1594 4750 2688 4750 
Q 3144 4750 3555 4637 
Q 3966 4525 4313 4306 
L 4313 3634 
Q 3963 3931 3569 4081 
Q 3175 4231 2741 4231 
Q 1884 4231 1454 3753 
Q 1025 3275 1025 2328 
Q 1025 1384 1454 906 
Q 1884 428 2741 428 
Q 3075 428 3337 486 
Q 3600 544 3809 666 
z
" id="DejaVuSans-47" transform="scale(0.015625)"/>
       <path d="M 269 3500 
L 844 3500 
L 1563 769 
L 2278 3500 
L 2956 3500 
L 3675 769 
L 4391 3500 
L 4966 3500 
L 4050 0 
L 3372 0 
L 2619 2869 
L 1863 0 
L 1184 0 
L 269 3500 
z
" id="DejaVuSans-77" transform="scale(0.015625)"/>
       <path d="M 2906 1791 
Q 2906 2416 2648 2759 
Q 2391 3103 1925 3103 
Q 1463 3103 1205 2759 
Q 947 2416 947 1791 
Q 947 1169 1205 825 
Q 1463 481 1925 481 
Q 2391 481 2648 825 
Q 2906 1169 2906 1791 
z
M 3481 434 
Q 3481 -459 3084 -895 
Q 2688 -1331 1869 -1331 
Q 1566 -1331 1297 -1286 
Q 1028 -1241 775 -1147 
L 775 -588 
Q 1028 -725 1275 -790 
Q 1522 -856 1778 -856 
Q 2344 -856 2625 -561 
Q 2906 -266 2906 331 
L 2906 616 
Q 2728 306 2450 153 
Q 2172 0 1784 0 
Q 1141 0 747 490 
Q 353 981 353 1791 
Q 353 2603 747 3093 
Q 1141 3584 1784 3584 
Q 2172 3584 2450 3431 
Q 2728 3278 2906 2969 
L 2906 3500 
L 3481 3500 
L 3481 434 
z
" id="DejaVuSans-67" transform="scale(0.015625)"/>
      </defs>
      <use xlink:href="#DejaVuSans-47"/>
      <use x="77.490234" xlink:href="#DejaVuSans-72"/>
      <use x="116.353516" xlink:href="#DejaVuSans-6f"/>
      <use x="177.535156" xlink:href="#DejaVuSans-77"/>
      <use x="259.322266" xlink:href="#DejaVuSans-69"/>
      <use x="287.105469" xlink:href="#DejaVuSans-6e"/>
      <use x="350.484375" xlink:href="#DejaVuSans-67"/>
     </g>
    </g>
    <g id="line2d_13">
     <path d="M 63.9 106.794844 
L 85.9 106.794844 
" style="fill:none;stroke:#7ad151;stroke-linecap:round;stroke-width:1.5;"/>
    </g>
    <g id="line2d_14"/>
    <g id="text_12">
     <!-- 60.0% -->
     <g style="fill:#262626;" transform="translate(94.7 110.644844)scale(0.11 -0.11)">
      <defs>
       <path d="M 2113 2584 
Q 1688 2584 1439 2293 
Q 1191 2003 1191 1497 
Q 1191 994 1439 701 
Q 1688 409 2113 409 
Q 2538 409 2786 701 
Q 3034 994 3034 1497 
Q 3034 2003 2786 2293 
Q 2538 2584 2113 2584 
z
M 3366 4563 
L 3366 3988 
Q 3128 4100 2886 4159 
Q 2644 4219 2406 4219 
Q 1781 4219 1451 3797 
Q 1122 3375 1075 2522 
Q 1259 2794 1537 2939 
Q 1816 3084 2150 3084 
Q 2853 3084 3261 2657 
Q 3669 2231 3669 1497 
Q 3669 778 3244 343 
Q 2819 -91 2113 -91 
Q 1303 -91 875 529 
Q 447 1150 447 2328 
Q 447 3434 972 4092 
Q 1497 4750 2381 4750 
Q 2619 4750 2861 4703 
Q 3103 4656 3366 4563 
z
" id="DejaVuSans-36" transform="scale(0.015625)"/>
       <path d="M 684 794 
L 1344 794 
L 1344 0 
L 684 0 
L 684 794 
z
" id="DejaVuSans-2e" transform="scale(0.015625)"/>
       <path d="M 4653 2053 
Q 4381 2053 4226 1822 
Q 4072 1591 4072 1178 
Q 4072 772 4226 539 
Q 4381 306 4653 306 
Q 4919 306 5073 539 
Q 5228 772 5228 1178 
Q 5228 1588 5073 1820 
Q 4919 2053 4653 2053 
z
M 4653 2450 
Q 5147 2450 5437 2106 
Q 5728 1763 5728 1178 
Q 5728 594 5436 251 
Q 5144 -91 4653 -91 
Q 4153 -91 3862 251 
Q 3572 594 3572 1178 
Q 3572 1766 3864 2108 
Q 4156 2450 4653 2450 
z
M 1428 4353 
Q 1159 4353 1004 4120 
Q 850 3888 850 3481 
Q 850 3069 1003 2837 
Q 1156 2606 1428 2606 
Q 1700 2606 1854 2837 
Q 2009 3069 2009 3481 
Q 2009 3884 1853 4118 
Q 1697 4353 1428 4353 
z
M 4250 4750 
L 4750 4750 
L 1831 -91 
L 1331 -91 
L 4250 4750 
z
M 1428 4750 
Q 1922 4750 2215 4408 
Q 2509 4066 2509 3481 
Q 2509 2891 2217 2550 
Q 1925 2209 1428 2209 
Q 931 2209 642 2551 
Q 353 2894 353 3481 
Q 353 4063 643 4406 
Q 934 4750 1428 4750 
z
" id="DejaVuSans-25" transform="scale(0.015625)"/>
      </defs>
      <use xlink:href="#DejaVuSans-36"/>
      <use x="63.623047" xlink:href="#DejaVuSans-30"/>
      <use x="127.246094" xlink:href="#DejaVuSans-2e"/>
      <use x="159.033203" xlink:href="#DejaVuSans-30"/>
      <use x="222.65625" xlink:href="#DejaVuSans-25"/>
     </g>
    </g>
    <g id="line2d_15">
     <path d="M 63.9 122.940781 
L 85.9 122.940781 
" style="fill:none;stroke:#44bf70;stroke-linecap:round;stroke-width:1.5;"/>
    </g>
    <g id="line2d_16"/>
    <g id="text_13">
     <!-- 65.0% -->
     <g style="fill:#262626;" transform="translate(94.7 126.790781)scale(0.11 -0.11)">
      <defs>
       <path d="M 691 4666 
L 3169 4666 
L 3169 4134 
L 1269 4134 
L 1269 2991 
Q 1406 3038 1543 3061 
Q 1681 3084 1819 3084 
Q 2600 3084 3056 2656 
Q 3513 2228 3513 1497 
Q 3513 744 3044 326 
Q 2575 -91 1722 -91 
Q 1428 -91 1123 -41 
Q 819 9 494 109 
L 494 744 
Q 775 591 1075 516 
Q 1375 441 1709 441 
Q 2250 441 2565 725 
Q 2881 1009 2881 1497 
Q 2881 1984 2565 2268 
Q 2250 2553 1709 2553 
Q 1456 2553 1204 2497 
Q 953 2441 691 2322 
L 691 4666 
z
" id="DejaVuSans-35" transform="scale(0.015625)"/>
      </defs>
      <use xlink:href="#DejaVuSans-36"/>
      <use x="63.623047" xlink:href="#DejaVuSans-35"/>
      <use x="127.246094" xlink:href="#DejaVuSans-2e"/>
      <use x="159.033203" xlink:href="#DejaVuSans-30"/>
      <use x="222.65625" xlink:href="#DejaVuSans-25"/>
     </g>
    </g>
    <g id="line2d_17">
     <path d="M 63.9 139.086719 
L 85.9 139.086719 
" style="fill:none;stroke:#22a884;stroke-linecap:round;stroke-width:1.5;"/>
    </g>
    <g id="line2d_18"/>
    <g id="text_14">
     <!-- 70.0% -->
     <g style="fill:#262626;" transform="translate(94.7 142.936719)scale(0.11 -0.11)">
      <defs>
       <path d="M 525 4666 
L 3525 4666 
L 3525 4397 
L 1831 0 
L 1172 0 
L 2766 4134 
L 525 4134 
L 525 4666 
z
" id="DejaVuSans-37" transform="scale(0.015625)"/>
      </defs>
      <use xlink:href="#DejaVuSans-37"/>
      <use x="63.623047" xlink:href="#DejaVuSans-30"/>
      <use x="127.246094" xlink:href="#DejaVuSans-2e"/>
      <use x="159.033203" xlink:href="#DejaVuSans-30"/>
      <use x="222.65625" xlink:href="#DejaVuSans-25"/>
     </g>
    </g>
    <g id="line2d_19">
     <path d="M 63.9 155.232656 
L 85.9 155.232656 
" style="fill:none;stroke:#21918c;stroke-linecap:round;stroke-width:1.5;"/>
    </g>
    <g id="line2d_20"/>
    <g id="text_15">
     <!-- 75.0% -->
     <g style="fill:#262626;" transform="translate(94.7 159.082656)scale(0.11 -0.11)">
      <use xlink:href="#DejaVuSans-37"/>
      <use x="63.623047" xlink:href="#DejaVuSans-35"/>
      <use x="127.246094" xlink:href="#DejaVuSans-2e"/>
      <use x="159.033203" xlink:href="#DejaVuSans-30"/>
      <use x="222.65625" xlink:href="#DejaVuSans-25"/>
     </g>
    </g>
    <g id="line2d_21">
     <path d="M 63.9 171.378594 
L 85.9 171.378594 
" style="fill:none;stroke:#2a788e;stroke-linecap:round;stroke-width:1.5;"/>
    </g>
    <g id="line2d_22"/>
    <g id="text_16">
     <!-- 80.0% -->
     <g style="fill:#262626;" transform="translate(94.7 175.228594)scale(0.11 -0.11)">
      <defs>
       <path d="M 2034 2216 
Q 1584 2216 1326 1975 
Q 1069 1734 1069 1313 
Q 1069 891 1326 650 
Q 1584 409 2034 409 
Q 2484 409 2743 651 
Q 3003 894 3003 1313 
Q 3003 1734 2745 1975 
Q 2488 2216 2034 2216 
z
M 1403 2484 
Q 997 2584 770 2862 
Q 544 3141 544 3541 
Q 544 4100 942 4425 
Q 1341 4750 2034 4750 
Q 2731 4750 3128 4425 
Q 3525 4100 3525 3541 
Q 3525 3141 3298 2862 
Q 3072 2584 2669 2484 
Q 3125 2378 3379 2068 
Q 3634 1759 3634 1313 
Q 3634 634 3220 271 
Q 2806 -91 2034 -91 
Q 1263 -91 848 271 
Q 434 634 434 1313 
Q 434 1759 690 2068 
Q 947 2378 1403 2484 
z
M 1172 3481 
Q 1172 3119 1398 2916 
Q 1625 2713 2034 2713 
Q 2441 2713 2670 2916 
Q 2900 3119 2900 3481 
Q 2900 3844 2670 4047 
Q 2441 4250 2034 4250 
Q 1625 4250 1398 4047 
Q 1172 3844 1172 3481 
z
" id="DejaVuSans-38" transform="scale(0.015625)"/>
      </defs>
      <use xlink:href="#DejaVuSans-38"/>
      <use x="63.623047" xlink:href="#DejaVuSans-30"/>
      <use x="127.246094" xlink:href="#DejaVuSans-2e"/>
      <use x="159.033203" xlink:href="#DejaVuSans-30"/>
      <use x="222.65625" xlink:href="#DejaVuSans-25"/>
     </g>
    </g>
    <g id="line2d_23">
     <path d="M 63.9 187.524531 
L 85.9 187.524531 
" style="fill:none;stroke:#355f8d;stroke-linecap:round;stroke-width:1.5;"/>
    </g>
    <g id="line2d_24"/>
    <g id="text_17">
     <!-- 85.0% -->
     <g style="fill:#262626;" transform="translate(94.7 191.374531)scale(0.11 -0.11)">
      <use xlink:href="#DejaVuSans-38"/>
      <use x="63.623047" xlink:href="#DejaVuSans-35"/>
      <use x="127.246094" xlink:href="#DejaVuSans-2e"/>
      <use x="159.033203" xlink:href="#DejaVuSans-30"/>
      <use x="222.65625" xlink:href="#DejaVuSans-25"/>
     </g>
    </g>
    <g id="line2d_25">
     <path d="M 63.9 203.670469 
L 85.9 203.670469 
" style="fill:none;stroke:#414487;stroke-linecap:round;stroke-width:1.5;"/>
    </g>
    <g id="line2d_26"/>
    <g id="text_18">
     <!-- 90.0% -->
     <g style="fill:#262626;" transform="translate(94.7 207.520469)scale(0.11 -0.11)">
      <defs>
       <path d="M 703 97 
L 703 672 
Q 941 559 1184 500 
Q 1428 441 1663 441 
Q 2288 441 2617 861 
Q 2947 1281 2994 2138 
Q 2813 1869 2534 1725 
Q 2256 1581 1919 1581 
Q 1219 1581 811 2004 
Q 403 2428 403 3163 
Q 403 3881 828 4315 
Q 1253 4750 1959 4750 
Q 2769 4750 3195 4129 
Q 3622 3509 3622 2328 
Q 3622 1225 3098 567 
Q 2575 -91 1691 -91 
Q 1453 -91 1209 -44 
Q 966 3 703 97 
z
M 1959 2075 
Q 2384 2075 2632 2365 
Q 2881 2656 2881 3163 
Q 2881 3666 2632 3958 
Q 2384 4250 1959 4250 
Q 1534 4250 1286 3958 
Q 1038 3666 1038 3163 
Q 1038 2656 1286 2365 
Q 1534 2075 1959 2075 
z
" id="DejaVuSans-39" transform="scale(0.015625)"/>
      </defs>
      <use xlink:href="#DejaVuSans-39"/>
      <use x="63.623047" xlink:href="#DejaVuSans-30"/>
      <use x="127.246094" xlink:href="#DejaVuSans-2e"/>
      <use x="159.033203" xlink:href="#DejaVuSans-30"/>
      <use x="222.65625" xlink:href="#DejaVuSans-25"/>
     </g>
    </g>
    <g id="line2d_27">
     <path d="M 63.9 219.816406 
L 85.9 219.816406 
" style="fill:none;stroke:#482475;stroke-linecap:round;stroke-width:1.5;"/>
    </g>
    <g id="line2d_28"/>
    <g id="text_19">
     <!-- 95.0% -->
     <g style="fill:#262626;" transform="translate(94.7 223.666406)scale(0.11 -0.11)">
      <use xlink:href="#DejaVuSans-39"/>
      <use x="63.623047" xlink:href="#DejaVuSans-35"/>
      <use x="127.246094" xlink:href="#DejaVuSans-2e"/>
      <use x="159.033203" xlink:href="#DejaVuSans-30"/>
      <use x="222.65625" xlink:href="#DejaVuSans-25"/>
     </g>
    </g>
    <g id="line2d_29">
     <path d="M 63.9 235.962344 
L 85.9 235.962344 
" style="fill:none;stroke:#440154;stroke-linecap:round;stroke-width:1.5;"/>
    </g>
    <g id="line2d_30"/>
    <g id="text_20">
     <!-- 100.0% -->
     <g style="fill:#262626;" transform="translate(94.7 239.812344)scale(0.11 -0.11)">
      <use xlink:href="#DejaVuSans-31"/>
      <use x="63.623047" xlink:href="#DejaVuSans-30"/>
      <use x="127.246094" xlink:href="#DejaVuSans-30"/>
      <use x="190.869141" xlink:href="#DejaVuSans-2e"/>
      <use x="222.65625" xlink:href="#DejaVuSans-30"/>
      <use x="286.279297" xlink:href="#DejaVuSans-25"/>
     </g>
    </g>
   </g>
  </g>
 </g>
 <defs>
  <clipPath id="p653939d12f">
   <rect height="217.44" width="334.8" x="54" y="34.56"/>
  </clipPath>
 </defs>
</svg>
