<svg id="Layer_1" data-name="Layer 1" xmlns="http://www.w3.org/2000/svg" xmlns:xlink="http://www.w3.org/1999/xlink" viewBox="0 0 119.7534 121.1277"><defs><style>.cls-1,.cls-3{fill:red;}.cls-1{stroke:#2e7d32;stroke-linecap:round;stroke-linejoin:round;stroke-width:4px;}.cls-2{fill:#ff0007;}.cls-4{fill:#fc3d3d;}.cls-5{fill:#fff;}.cls-6{fill:#b3b3b3;}.cls-7{fill:url(#linear-gradient);}</style><linearGradient id="linear-gradient" x1="25.1594" y1="96.7299" x2="94.4324" y2="23.2549" gradientTransform="matrix(1, 0, 0, -1, 0, 130)" gradientUnits="userSpaceOnUse"><stop offset="0.0169" stop-color="#c5e1a5"/><stop offset="0.1983" stop-color="#c1dea1"/><stop offset="0.3788" stop-color="#b6d595"/><stop offset="0.5591" stop-color="#a3c781"/><stop offset="0.7392" stop-color="#88b265"/><stop offset="0.9176" stop-color="#669841"/><stop offset="0.9969" stop-color="#558b2f"/></linearGradient></defs><path class="cls-1" d="M121.44,108.67a7.3408,7.3408,0,0,0-2.24-2.97,7.0764,7.0764,0,0,0-2.97-1.4,7.362,7.362,0,0,0-2.76-.04,7.7345,7.7345,0,0,0-2,.63,7.6407,7.6407,0,0,0-1.16.69c-.25.19-.38.29-.38.29a.3916.3916,0,0,0-.08.53.3991.3991,0,0,0,.57.09s.12-.08.35-.24a7.1759,7.1759,0,0,1,1.06-.54,6.88,6.88,0,0,1,1.78-.45,6.225,6.225,0,0,1,2.32.17,5.7485,5.7485,0,0,1,2.39,1.3,5.86,5.86,0,0,1,1.65,2.48,5.6784,5.6784,0,0,1,.11,3.12,8.77,8.77,0,0,1-1.38,3.06,10.54,10.54,0,0,1-10.76,4.34c-.19-.04-.38-.1-.57-.15a20.9756,20.9756,0,0,1-3.32-2.07c-3.44-2.68-5.07-7.05-6.01-11.3-1.05-4.76-2.01-9.35-3.47-14.01-.85-2.71-1.79-5.4-2.86-8.04-.87-2.15-1.85-4.32-2.91-6.47a76.2708,76.2708,0,0,0-4.49-7.97c-.35-.54-.73-1.07-1.1-1.6a33.3194,33.3194,0,0,0-.48-5.63c-.81-4.68.1-5.41,2.56-5.71,2.18-.26,8.91,2.02,10.97.2,1.57-1.38,1.53-2.42,1.62-4.38.13-2.69,2.72-3.41,4.07-3.7a1.2914,1.2914,0,0,0,.8.49,1.256,1.256,0,1,0-1.04-1.44,1.34,1.34,0,0,0,.01.2,3.3229,3.3229,0,0,1-2.61-.98c-.44-.68,1.85-3.5,3.08-4.98a1.4625,1.4625,0,0,0,.51.22,1.256,1.256,0,1,0-1.04-1.44,1.2415,1.2415,0,0,0,.07.61c-1.14,1.13-3.37,3.31-3.98,3.18-.73-.16-.22-4.84.05-7.04a1.239,1.239,0,0,0,.95-1.02,1.256,1.256,0,1,0-2.48-.4A1.2416,1.2416,0,0,0,97,37.62c-.49,2.21-1.44,6.9-1.99,7.03-.59.15-1.42-3.36-1.93-5.59a1.23,1.23,0,0,0,.55-.84,1.256,1.256,0,1,0-1.44,1.04h.05c.3,2.11.63,5.44.32,6-.37.66-2.04.55-3.19.37a1.2538,1.2538,0,1,0-1.44,1.07,1.2225,1.2225,0,0,0,1.04-.34c1.69.74,3.55,1.61,3.99,3.07a2.1831,2.1831,0,0,1-1.32,2.74s-9.33-.36-12.43.53c-2.11.6-2.12,4.87-1.96,8.21-.5-.5-.99-1.02-1.51-1.49a43.4367,43.4367,0,0,0-4.06-3.25,41.0361,41.0361,0,0,0-9.93-5.24,31.9767,31.9767,0,0,0-6.39-1.6c-.89-.13-1.8-.27-2.72-.43a10.8384,10.8384,0,0,0,1.08-5.35c-.09-3.7-1.46-9.8.06-12.69a14.8519,14.8519,0,0,1,3.68-4.23,1.1886,1.1886,0,0,0,.63.32,1.256,1.256,0,1,0-1.04-1.44,1.1821,1.1821,0,0,0,.13.72c-1.12.91-2.61,1.68-3.32,1.12-.8-.62.64-3.47,1.42-4.99a1.0662,1.0662,0,0,0,.19.07,1.256,1.256,0,1,0-1.04-1.44,1.2293,1.2293,0,0,0,.39,1.09c-.71,1.61-2.11,4.59-2.97,4.04-.54-.35-.13-4.05-.29-6.33a1.2335,1.2335,0,0,0,.73-.92,1.256,1.256,0,1,0-1.44,1.04c.06,1.89.05,5.99-.92,6.35-.91.34-2.37-1.9-3.76-4.41a1.1955,1.1955,0,0,0,.32-.62,1.256,1.256,0,1,0-1.44,1.04,1.2,1.2,0,0,0,.5-.02c.85,1.4,2.89,4.88,2.13,5.87-.35.46-2.24.39-3.79.37a1.2335,1.2335,0,0,0-1.02-.99,1.2561,1.2561,0,1,0,.88,1.86c1.64.62,3.78,1.71,4.41,2.86,1.36,2.45,3.57,10.91-.64,13.38a20.2407,20.2407,0,0,1-2.74,1.33,14.8406,14.8406,0,0,1-6.21-3.65,7.4531,7.4531,0,0,1-2.18-6c.26-2.81.72-5.37.22-8.48a19.357,19.357,0,0,0-1.29-4.46c-.09-.22-.23-.46-.35-.7-1.42-2.74-4.79-6.62-8.2-10.07-3.85-3.89-7.75-7.23-8.97-7.72a3.1333,3.1333,0,0,0-4.2,1.56c-.87,1.04-1.98,4.14-2.84,8.04C9.58,20.8,8.87,27.67,9.9,32.91c1.62,8.21,6.4,11.68,9.02,13.66,1.94,1.47,2.29,2.29,5.45,5.25,1.81,1.69,3.21,8.21,4.37,10.46.59,1.15,1.23,2.31,1.93,3.46l-.17,2.65s-.2,5.34-1.27,7.47a8.2837,8.2837,0,0,1-2.14,2.9s-3.66-5.41-3.05-9.52a36.1558,36.1558,0,0,1,.72-3.74,1.2407,1.2407,0,0,0,1.06-1.03,1.256,1.256,0,1,0-2.48-.4,1.2273,1.2273,0,0,0,.69,1.3c-.23,1.18-.63,2.81-1.61,2.78-1.24-.04-2.98-4.9-3.73-7.1a1.2244,1.2244,0,1,0-.77.15c.04.01.07-.01.1,0,.8,2,2.62,6.42,1.73,6.89-.83.44-4.02-3.34-5.81-5.4a1.3364,1.3364,0,1,0-.67.5c1.44,1.48,5.46,5.77,4.83,6.69-.55.81-3.68-.11-5.59-.85a1.2412,1.2412,0,0,0-1.03-1.26,1.2561,1.2561,0,1,0,.82,1.95c1.84.63,5.29,1.65,5.14,2.64-.13.89-1.24.96-2.64,1.4a1.245,1.245,0,1,0,.21.9V74.6c1.56-.38,4.34-.82,5.9.9,1.96,2.15,5.83,10.96,7.89,9.96,1.8-.87,6.14-10.1,8.14-12.44a30.9317,30.9317,0,0,0,6.98,3.99,46.68,46.68,0,0,0,5.33,1.85c2.18.63,4.4,1.14,6.62,1.62,1.62.36,3.36.7,5.13,1.1-2.26,1.27-7.62,4.36-8.89,5.79-1.63,1.83-.61,3.05.71,4.07.83.64.37.7,9.25,3.66a8.3051,8.3051,0,0,1-3.66.71c-1.51,0-3.45-1-4.72-1.68,0-.02.01-.03.02-.05a1.256,1.256,0,1,0-1.44,1.04,1.2368,1.2368,0,0,0,1-.29c1.28.66,3.83,1.79,2.7,2.4-1.07.57-5.65.71-8.09,1.24a1.2338,1.2338,0,0,0-.85-.58,1.256,1.256,0,1,0-.4,2.48A1.2358,1.2358,0,0,0,48,99.5c1.59-.15,7.39-.57,7.76.17.34.67-4.9,3.63-7.32,5.65a1.703,1.703,0,0,0-.24-.09,1.256,1.256,0,1,0,1.04,1.44,1.1455,1.1455,0,0,0-.02-.49c1.65-1.18,7.87-5.3,8.79-4.56.82.65-1.35,5.78-2.41,8.49a1.2479,1.2479,0,1,0,1.38,1.43,1.2293,1.2293,0,0,0-.39-1.09c.94-1.89,4.07-7.99,4.71-7.89.59.09.45,4.46.45,6.03a1.2427,1.2427,0,0,0-.56.84,1.256,1.256,0,1,0,1.44-1.04h-.06c.42-2.85.96-7.39,1.42-7.7.61-.41,6.51-3.35,6.2-5.39-.31-2.03-4.78-4.27-7.93-5.18s8.54,2.54,11.39-1.73c.39-.58.72-1.08,1.03-1.53a15.0415,15.0415,0,0,1,2.38,2.13,36.36,36.36,0,0,1,5.71,8.44,71.9083,71.9083,0,0,0,4.64,9.19,47.627,47.627,0,0,0,8.42,9.72,37.2632,37.2632,0,0,0,5.12,3.91,16.3287,16.3287,0,0,0,9.82,2.36c.3-.03.6-.07.9-.13l.23-.04.24-.05.41-.1a13.7385,13.7385,0,0,0,1.84-.63,13.0467,13.0467,0,0,0,5.98-5.19,10.6031,10.6031,0,0,0,1.43-3.81,7.12,7.12,0,0,0-.36-3.99Z" transform="translate(-4.18 -3.5477)"/><path class="cls-2" d="M44.91,21.7c.3.52,3.37,5.25,2.46,6.43-.47.61-3.62.28-5.12.39a.2238.2238,0,0,0-.04.44c1.53.4,4.83,1.79,5.64,3.26,1.36,2.45,3.57,10.91-.64,13.38a25.6,25.6,0,0,1-9.08,3l-.87,3.76,7.16,1.13,7.73-4.29a10.1116,10.1116,0,0,0,1.26-5.66c-.09-3.7-1.46-9.8.06-12.69,1.46-2.79,4.33-4.63,4.55-5.01.22-.37-.2-.51-.41-.28-1.08,1.12-3.18,2.49-4.07,1.8-1.01-.78,1.59-5.18,1.85-5.87s-.19-.96-.49-.32-2.28,5.66-3.37,4.95c-.65-.42.07-5.64-.46-7.48-.29-1.02-.61-.18-.58.36s.33,6.82-.88,7.26c-.96.36-2.52-2.15-3.98-4.81C45.01,20.31,44.36,20.72,44.91,21.7Z" transform="translate(-4.18 -3.5477)"/><path class="cls-3" d="M30.19,68.41s-.2,5.34-1.27,7.47a8.2837,8.2837,0,0,1-2.14,2.9s-3.66-5.41-3.05-9.52a23.57,23.57,0,0,1,1.03-4.74c.19-.58-.57-.8-.8-.19-.24.61-.47,3.9-1.84,3.85-1.5-.05-3.76-7.24-4.06-8.08s-.92-.57-.68.23,3.15,7.2,2.07,7.78c-.94.5-4.91-4.43-6.45-6.11-.47-.52-1.3-.18-.54.71,0,0,6.1,6.09,5.34,7.2-.66.96-5-.53-6.56-1.25-.51-.24-.95.15-.32.64.63.5,6.4,1.81,6.21,3.09-.15.99-1.52.96-3.17,1.58-1.07.4-1.18,1.15-.2.9s4.87-1.5,6.83.66,5.83,10.96,7.89,9.96,7.46-12.96,8.84-12.98c.94-.01-6.73-10.5-6.73-10.5Z" transform="translate(-4.18 -3.5477)"/><path class="cls-3" d="M73.64,64.99s3.35,1.73,3.46-.51c.1-2.24-1.26-10.9,1.8-11.77,3.1-.89,12.43-.53,12.43-.53a2.1831,2.1831,0,0,0,1.32-2.74c-.5-1.67-2.84-2.56-4.67-3.37-.4-.18-.55-.82.08-.63s3.67.75,4.18-.16c.42-.76-.33-6.61-.6-7.62s.47-1.11.71-.3c.25.81,1.51,7.51,2.32,7.3.68-.17,2.01-7.43,2.25-8.12.25-.69.71-.54.66.1s-1.09,7.92-.17,8.12c.72.16,3.76-2.98,4.5-3.69s1.03-.25.66.25c-.37.49-4.38,4.98-3.81,5.86.54.84,2.39,1.18,3.32.89.93-.3.64.45.3.66-.34.22-4.67.39-4.85,3.89-.1,1.96-.05,3-1.62,4.38-2.07,1.82-8.79-.46-10.97-.2-2.46.3-3.37,1.03-2.56,5.71s.7,10.86-1.23,12.89-2.54,1.8-2.54,1.8L73.64,64.99Z" transform="translate(-4.18 -3.5477)"/><path class="cls-3" d="M61.69,81.03s-8.29,4.53-9.91,6.36-.61,3.05.71,4.07c.83.64.37.7,9.25,3.66a8.3051,8.3051,0,0,1-3.66.71c-1.75,0-4.09-1.35-5.27-1.98s-1.22.15-.41.7,4.55,1.99,3.23,2.7c-1.11.6-6.02.72-8.37,1.3-1.48.37-.73,1.09.07,1,.81-.1,7.69-.67,8.09.14.35.7-5.35,3.88-7.61,5.9-1.37,1.22.07,1.4.7.89.63-.52,8.15-5.66,9.17-4.84.85.68-1.56,6.29-2.55,8.86-.55,1.44.59,1.11.89.48s4.24-8.52,4.97-8.41c.64.1.42,5.24.45,6.37s.63.71.73.06c.42-2.76,1.01-7.97,1.5-8.3.61-.41,6.51-3.35,6.2-5.39-.3-2.03-4.78-4.27-7.93-5.18s8.54,2.54,11.39-1.73,3.35-4.88,3.35-4.88Z" transform="translate(-4.18 -3.5477)"/><circle class="cls-3" cx="87.89" cy="34.4823" r="1.25"/><circle class="cls-2" cx="40.76" cy="17.4923" r="1.25"/><circle class="cls-3" cx="8.39" cy="58.4823" r="1.25"/><circle class="cls-3" cx="6.77" cy="65.4823" r="1.25"/><circle class="cls-3" cx="9.26" cy="70.9323" r="1.25"/><circle class="cls-3" cx="47.97" cy="90.3523" r="1.25"/><circle class="cls-3" cx="42.32" cy="95.6023" r="1.25"/><circle class="cls-3" cx="43.5" cy="102.9523" r="1.25"/><circle class="cls-3" cx="51.25" cy="107.8023" r="1.25"/><circle class="cls-3" cx="57.94" cy="106.0923" r="1.25"/><circle class="cls-3" cx="20.08" cy="60.7423" r="1.25"/><circle class="cls-2" cx="46.55" cy="15.1323" r="1.25"/><circle class="cls-2" cx="51.18" cy="17.6623" r="1.25"/><circle class="cls-2" cx="53.8" cy="22.1723" r="1.25"/><circle class="cls-2" cx="38.19" cy="25.2023" r="1.25"/><circle class="cls-3" cx="13.62" cy="56.4323" r="1.25"/><circle class="cls-3" cx="93.01" cy="32.9523" r="1.25"/><circle class="cls-3" cx="98.39" cy="37.6223" r="1.25"/><circle class="cls-3" cx="98.44" cy="44.6123" r="1.25"/><circle class="cls-3" cx="83.63" cy="41.9123" r="1.25"/><path class="cls-3" d="M121.09,108.67a7.3408,7.3408,0,0,0-2.24-2.97,7.0764,7.0764,0,0,0-2.97-1.4,7.362,7.362,0,0,0-2.76-.04,7.7345,7.7345,0,0,0-2,.63,7.6407,7.6407,0,0,0-1.16.69c-.25.19-.38.29-.38.29a.3916.3916,0,0,0-.08.53.3991.3991,0,0,0,.57.09s.12-.08.35-.24a7.1759,7.1759,0,0,1,1.06-.54,6.88,6.88,0,0,1,1.78-.45,6.225,6.225,0,0,1,2.32.17,5.7485,5.7485,0,0,1,2.39,1.3,5.86,5.86,0,0,1,1.65,2.48,5.6784,5.6784,0,0,1,.11,3.12,8.77,8.77,0,0,1-1.38,3.06,10.54,10.54,0,0,1-10.76,4.34c-.19-.04-.38-.1-.57-.15a20.9756,20.9756,0,0,1-3.32-2.07c-3.44-2.68-5.07-7.05-6.01-11.3-1.05-4.76-2.01-9.35-3.47-14.01-.85-2.71-1.79-5.4-2.86-8.04-.87-2.15-1.85-4.32-2.91-6.47a76.2708,76.2708,0,0,0-4.49-7.97,52.0134,52.0134,0,0,0-8.54-10.3,43.4367,43.4367,0,0,0-4.06-3.25,41.0361,41.0361,0,0,0-9.93-5.24,31.9767,31.9767,0,0,0-6.39-1.6,59.6554,59.6554,0,0,1-10.05-2.21,15.4561,15.4561,0,0,1-6.75-3.84,7.4531,7.4531,0,0,1-2.18-6c.26-2.81.72-5.37.22-8.48a19.357,19.357,0,0,0-1.29-4.46c-.09-.22-.23-.46-.35-.7-1.42-2.74-4.79-6.62-8.2-10.07,1.81,4.83,2.21,9.9-.32,14.98,0,1.05-3.15,3.15-6.3,2.1-6.42-2.57-8.91-8.68-9.4-15.19-1.18,5.35-1.89,12.22-.86,17.46,1.62,8.21,6.4,11.68,9.02,13.66,1.94,1.47,2.29,2.29,5.45,5.25,1.81,1.69,3.21,8.21,4.37,10.46a36.0679,36.0679,0,0,0,6.16,9.02c.38.38.77.74,1.18,1.08a30.1594,30.1594,0,0,0,7.83,4.64,46.68,46.68,0,0,0,5.33,1.85c2.18.63,4.4,1.14,6.62,1.62,2.1.46,4.39.91,6.71,1.45a39.1633,39.1633,0,0,1,9.99,3.55,17.1326,17.1326,0,0,1,4.5,3.5,36.36,36.36,0,0,1,5.71,8.44,71.9083,71.9083,0,0,0,4.64,9.19,47.627,47.627,0,0,0,8.42,9.72,37.2632,37.2632,0,0,0,5.12,3.91,16.3287,16.3287,0,0,0,9.82,2.36c.3-.03.6-.07.9-.13l.23-.04.24-.05.41-.1a13.7385,13.7385,0,0,0,1.84-.63,13.0467,13.0467,0,0,0,5.98-5.19,10.6031,10.6031,0,0,0,1.43-3.81A7.239,7.239,0,0,0,121.09,108.67Z" transform="translate(-4.18 -3.5477)"/><path class="cls-4" d="M19.84,30.65c3.15,1.05,6.3-1.05,6.3-2.1,2.54-5.07,2.13-10.14.32-14.98-3.85-3.89-7.75-7.23-8.97-7.72a3.1333,3.1333,0,0,0-4.2,1.56c-.87,1.04-1.98,4.14-2.84,8.04C10.93,21.98,13.42,28.08,19.84,30.65Z" transform="translate(-4.18 -3.5477)"/><path class="cls-5" d="M10.44,31.3a5.58,5.58,0,1,1,5.58-5.58A5.5822,5.5822,0,0,1,10.44,31.3Z" transform="translate(-4.18 -3.5477)"/><path class="cls-6" d="M10.44,20.82a4.9,4.9,0,1,1-4.9,4.9,4.8951,4.8951,0,0,1,4.9-4.9m0-1.37a6.26,6.26,0,1,0,6.26,6.26A6.2694,6.2694,0,0,0,10.44,19.45Z" transform="translate(-4.18 -3.5477)"/><circle cx="4.91" cy="19.8723" r="2.39"/><path class="cls-5" d="M29.52,23.75a5.58,5.58,0,1,1,5.58-5.58A5.5822,5.5822,0,0,1,29.52,23.75Z" transform="translate(-4.18 -3.5477)"/><path class="cls-6" d="M29.51,13.27a4.9,4.9,0,1,1-4.9,4.9,4.8951,4.8951,0,0,1,4.9-4.9m0-1.36a6.26,6.26,0,1,0,6.26,6.26A6.2694,6.2694,0,0,0,29.51,11.91Z" transform="translate(-4.18 -3.5477)"/><circle cx="25.64" cy="12.2223" r="2.39"/><path class="cls-7" d="M26.77,35.73s.11.4.33,1.14c.21.78.54,1.74.99,3.02a27.1871,27.1871,0,0,0,1.99,4.36,24.1122,24.1122,0,0,0,3.72,4.83A53.8568,53.8568,0,0,0,39.59,54c1.09.82,2.29,1.74,3.43,2.51l.92.64.89.56c.58.38,1.2.75,1.86,1.12a92.4934,92.4934,0,0,0,8.27,4.19c2.92,1.32,5.95,2.62,8.97,4.05a86.3232,86.3232,0,0,1,8.9,4.74l.54.33.3.19.25.17c.34.24.65.43,1.01.71.72.53,1.38,1.06,2.03,1.6a36.3306,36.3306,0,0,1,3.54,3.47,51.2566,51.2566,0,0,1,8.92,14.87,75.523,75.523,0,0,1,3.54,11.55c.32,1.42.52,2.54.65,3.3.13.77.2,1.17.2,1.17a.1769.1769,0,0,1-.14.2.1881.1881,0,0,1-.19-.11s-.54-1.56-1.56-4.25a98.81,98.81,0,0,0-4.81-10.8,61.3614,61.3614,0,0,0-3.99-6.7,45.3838,45.3838,0,0,0-5.4-6.62,32.2016,32.2016,0,0,0-3.31-2.96c-.59-.46-1.2-.9-1.8-1.29-.28-.2-.66-.42-.99-.63l-.26-.16-.22-.13-.51-.29a78.5479,78.5479,0,0,0-8.57-4.25c-5.96-2.57-12.2-4.96-17.81-8.12-.7-.38-1.39-.8-2.08-1.24l-1.02-.65-.92-.64c-1.32-.9-2.43-1.75-3.61-2.62a51.3858,51.3858,0,0,1-6.3-5.46,26.557,26.557,0,0,1-4.31-5.94,31.308,31.308,0,0,1-2.16-5.16c-.47-1.45-.76-2.67-.92-3.39-.17-.75-.26-1.16-.26-1.16a2.1206,2.1206,0,0,1,4.1-1.07Z" transform="translate(-4.18 -3.5477)"/></svg>