<?xml version="1.0" encoding="UTF-8" standalone="no"?>
<svg
   width="100%"
   height="100%"
   viewBox="0 0 2388 1668"
   version="1.1"
   xml:space="preserve"
   style="fill-rule:evenodd;clip-rule:evenodd;stroke-linecap:round;stroke-linejoin:round;stroke-miterlimit:0;"
   id="svg160"
   sodipodi:docname="Canali.svg"
   inkscape:version="1.1.1 (1:1.1+202109281949+c3084ef5ed)"
   xmlns:inkscape="http://www.inkscape.org/namespaces/inkscape"
   xmlns:sodipodi="http://sodipodi.sourceforge.net/DTD/sodipodi-0.dtd"
   xmlns="http://www.w3.org/2000/svg"
   xmlns:svg="http://www.w3.org/2000/svg"><defs
   id="defs164" /><sodipodi:namedview
   id="namedview162"
   pagecolor="#ffffff"
   bordercolor="#666666"
   borderopacity="1.0"
   inkscape:pageshadow="2"
   inkscape:pageopacity="0.0"
   inkscape:pagecheckerboard="0"
   showgrid="false"
   inkscape:zoom="0.5059952"
   inkscape:cx="1194.6754"
   inkscape:cy="991.11611"
   inkscape:window-width="1848"
   inkscape:window-height="1016"
   inkscape:window-x="72"
   inkscape:window-y="27"
   inkscape:window-maximized="1"
   inkscape:current-layer="g150" />
    <g
   transform="matrix(1,0,0,1,101.901,-2.12784)"
   id="g60">
        <g
   id="g26">
            <g
   transform="matrix(1,0,0,1,-97.0267,-142.611)"
   id="g8">
                <rect
   x="697.314"
   y="341.234"
   width="115.338"
   height="115.338"
   style="fill:rgb(255,79,79);"
   id="rect2" />
                <g
   transform="matrix(1,0,0,1,-7.22778,132.974)"
   id="g6">
                    <text
   x="729.937px"
   y="296.967px"
   style="font-family:'ArialMT', 'Arial', sans-serif;font-size:94.011px;fill:white;"
   id="text4">R</text>
                </g>
            </g>
            <g
   transform="matrix(1,0,0,1,-97.0267,134.127)"
   id="g16">
                <rect
   x="697.314"
   y="341.234"
   width="115.338"
   height="115.338"
   style="fill:rgb(92,92,246);"
   id="rect10" />
                <g
   transform="matrix(1,0,0,1,-7.22778,136.837)"
   id="g14">
                    <text
   x="729.937px"
   y="296.967px"
   style="font-family:'ArialMT', 'Arial', sans-serif;font-size:94.011px;fill:white;"
   id="text12">B</text>
                </g>
            </g>
            <g
   transform="matrix(1,0,0,1,-97.0267,-4.24165)"
   id="g24">
                <rect
   x="697.314"
   y="341.234"
   width="115.338"
   height="115.338"
   style="fill:rgb(88,208,56);"
   id="rect18" />
                <g
   transform="matrix(1,0,0,1,-13.5059,134.825)"
   id="g22">
                    <text
   x="729.937px"
   y="296.967px"
   style="font-family:'ArialMT', 'Arial', sans-serif;font-size:94.011px;fill:white;"
   id="text20">G</text>
                </g>
            </g>
        </g>
        <g
   transform="matrix(1,0,0,1,-95.8051,964.342)"
   id="g30">
            <rect
   x="697.314"
   y="341.234"
   width="115.338"
   height="115.338"
   style="fill:rgb(235,235,235);"
   id="rect28" />
        </g>
        <g
   transform="matrix(1,0,0,1,-97.0267,272.496)"
   id="g34">
            <rect
   x="697.314"
   y="341.234"
   width="115.338"
   height="115.338"
   style="fill:rgb(100,100,100);"
   id="rect32" />
        </g>
        <g
   transform="matrix(3.16781,0,0,3.16781,-1697.96,-1562.97)"
   id="g38">
            <text
   x="732.885px"
   y="716.55px"
   style="font-family:'ArialMT', 'Arial', sans-serif;font-size:38px;fill:white;"
   id="text36">α</text>
        </g>
        <g
   transform="matrix(1,0,0,1,-97.0267,410.865)"
   id="g42">
            <rect
   x="697.314"
   y="341.234"
   width="115.338"
   height="115.338"
   style="fill:rgb(235,235,235);"
   id="rect40" />
        </g>
        <g
   transform="matrix(1,0,0,1,-97.0267,549.235)"
   id="g46">
            <rect
   x="697.314"
   y="341.234"
   width="115.338"
   height="115.338"
   style="fill:rgb(235,235,235);"
   id="rect44" />
        </g>
        <g
   transform="matrix(1,0,0,1,-110.14,11.7025)"
   id="g58">
            <circle
   cx="770.071"
   cy="1063.98"
   r="26.116"
   style="fill:rgb(235,235,235);"
   id="circle48" />
            <g
   transform="matrix(1,0,0,1,0,78.8069)"
   id="g52">
                <circle
   cx="770.071"
   cy="1063.98"
   r="26.116"
   style="fill:rgb(235,235,235);"
   id="circle50" />
            </g>
            <g
   transform="matrix(1,0,0,1,0,157.614)"
   id="g56">
                <circle
   cx="770.071"
   cy="1063.98"
   r="26.116"
   style="fill:rgb(235,235,235);"
   id="circle54" />
            </g>
        </g>
    </g>
    <g
   transform="matrix(1,0,0,1,940.153,-2.12784)"
   id="g124">
        <g
   id="g86">
            <g
   transform="matrix(1,0,0,1,-97.0267,-142.611)"
   id="g68">
                <rect
   x="697.314"
   y="341.234"
   width="115.338"
   height="115.338"
   style="fill:rgb(255,79,79);"
   id="rect62" />
                <g
   transform="matrix(1,0,0,1,-7.22778,132.974)"
   id="g66">
                    <text
   x="729.937px"
   y="296.967px"
   style="font-family:'ArialMT', 'Arial', sans-serif;font-size:94.011px;fill:white;"
   id="text64">R</text>
                </g>
            </g>
            <g
   transform="matrix(1,0,0,1,-97.0267,134.127)"
   id="g76">
                <rect
   x="697.314"
   y="341.234"
   width="115.338"
   height="115.338"
   style="fill:rgb(92,92,246);"
   id="rect70" />
                <g
   transform="matrix(1,0,0,1,-7.22778,136.837)"
   id="g74">
                    <text
   x="729.937px"
   y="296.967px"
   style="font-family:'ArialMT', 'Arial', sans-serif;font-size:94.011px;fill:white;"
   id="text72">B</text>
                </g>
            </g>
            <g
   transform="matrix(1,0,0,1,-97.0267,-4.24165)"
   id="g84">
                <rect
   x="697.314"
   y="341.234"
   width="115.338"
   height="115.338"
   style="fill:rgb(88,208,56);"
   id="rect78" />
                <g
   transform="matrix(1,0,0,1,-13.5059,134.825)"
   id="g82">
                    <text
   x="729.937px"
   y="296.967px"
   style="font-family:'ArialMT', 'Arial', sans-serif;font-size:94.011px;fill:white;"
   id="text80">G</text>
                </g>
            </g>
        </g>
        <g
   transform="matrix(1,0,0,1,-95.8051,964.342)"
   id="g90">
            <rect
   x="697.314"
   y="341.234"
   width="115.338"
   height="115.338"
   style="fill:rgb(100,100,100);"
   id="rect88" />
        </g>
        <g
   transform="matrix(1,0,0,1,-97.0267,272.496)"
   id="g94">
            <rect
   x="697.314"
   y="341.234"
   width="115.338"
   height="115.338"
   style="fill:rgb(235,235,235);"
   id="rect92" />
        </g>
        <g
   transform="matrix(1,0,0,1,-97.0267,687.604)"
   id="g98">
            <rect
   x="697.314"
   y="341.234"
   width="115.338"
   height="115.338"
   style="fill:rgb(235,235,235);"
   id="rect96" />
        </g>
        <g
   transform="matrix(1,0,0,1,-97.0267,825.973)"
   id="g102">
            <rect
   x="697.314"
   y="341.234"
   width="115.338"
   height="115.338"
   style="fill:rgb(100,100,100);"
   id="rect100" />
        </g>
        <g
   id="g112">
            <g
   transform="matrix(3.16781,0,0,3.16781,-1705.88,-1017.39)"
   id="g106">
                <text
   x="732.885px"
   y="716.55px"
   style="font-family:'ArialMT', 'Arial', sans-serif;font-size:38px;fill:white;"
   id="text104">α</text>
            </g>
            <g
   transform="matrix(1.67737,0,0,1.67737,-2062.98,63.9826)"
   id="g110">
                <text
   x="1637.49px"
   y="714.131px"
   style="font-family:'ArialMT', 'Arial', sans-serif;font-size:22.644px;fill:white;"
   id="text108">1</text>
            </g>
        </g>
        <g
   transform="matrix(1,0,0,1,0,143.285)"
   id="g122">
            <g
   transform="matrix(3.16781,0,0,3.16781,-1705.88,-1017.39)"
   id="g116">
                <text
   x="732.885px"
   y="716.55px"
   style="font-family:'ArialMT', 'Arial', sans-serif;font-size:38px;fill:white;"
   id="text114">α</text>
            </g>
            <g
   transform="matrix(1.67737,0,0,1.67737,-2062.98,63.9826)"
   id="g120">
                <text
   x="1637.49px"
   y="714.131px"
   style="font-family:'ArialMT', 'Arial', sans-serif;font-size:22.644px;fill:white;"
   id="text118">2</text>
            </g>
        </g>
    </g>
    <g
   transform="matrix(1,0,0,1,830.386,-271.93)"
   id="g136">
        <circle
   cx="770.071"
   cy="1063.98"
   r="26.116"
   style="fill:rgb(235,235,235);"
   id="circle126" />
        <g
   transform="matrix(1,0,0,1,0,78.8069)"
   id="g130">
            <circle
   cx="770.071"
   cy="1063.98"
   r="26.116"
   style="fill:rgb(235,235,235);"
   id="circle128" />
        </g>
        <g
   transform="matrix(1,0,0,1,0,157.614)"
   id="g134">
            <circle
   cx="770.071"
   cy="1063.98"
   r="26.116"
   style="fill:rgb(235,235,235);"
   id="circle132" />
        </g>
    </g>
    <g
   transform="matrix(0.743896,0,0,1.11786,1379.54,172.888)"
   id="g140">
        <path
   d="M166.087,395.633C138.936,395.794 118.106,426.264 120.677,513.866C121.359,537.103 121.908,557.002 121.351,573.678C119.809,619.872 109.783,641.341 70.601,640.547C70.601,640.547 122.752,631.472 123.469,700.539C124.186,769.606 99.165,883.419 167.451,880.202"
   style="fill:none;stroke:rgb(93,93,93);stroke-width:22.69px;"
   id="path138" />
    </g>
    <g
   transform="matrix(-0.743896,9.1101e-17,-1.67344e-16,-1.36646,1008.29,1963.87)"
   id="g144">
        <path
   d="M166.087,395.633C138.936,395.794 118.106,426.264 120.677,513.866C121.359,537.103 121.908,557.002 121.351,573.678C119.809,619.872 109.783,641.341 70.601,640.547C70.601,640.547 122.752,631.472 123.469,700.539C124.186,769.606 99.165,883.419 167.451,880.202"
   style="fill:none;stroke:rgb(93,93,93);stroke-width:19.59px;"
   id="path142" />
    </g>
    <g
   transform="matrix(0.330458,0,0,0.330458,923.998,370.091)"
   id="g150">
        <text
   x="286.22137"
   y="1144.1801"
   style="font-size:254.964px;font-family:ArialMT, Arial, sans-serif;fill:#5d5d5d"
   id="text146"><tspan
     sodipodi:role="line"
     id="tspan3652"
     x="286.22137"
     y="1144.1801">12 hidden</tspan></text>
        <text
   x="294.81149"
   y="1407.48"
   style="font-size:254.964px;font-family:ArialMT, Arial, sans-serif;fill:#5d5d5d"
   id="text148">channels</text>
    </g>
    <g
   transform="matrix(1.04141,-0.199917,0.464225,2.41825,-512.001,-1225.87)"
   id="g154">
        <path
   d="M1008.68,1003.67L1008.68,1012.87L975.813,998.717L1008.68,984.561L1008.68,993.762L1138.33,993.762L1138.33,1003.67L1008.68,1003.67Z"
   style="fill:rgb(93,93,93);"
   id="path152" />
    </g>
    <g
   transform="matrix(-1.04046,-0.204795,0.475552,-2.41605,1960.43,3608.17)"
   id="g158">
        <path
   d="M1008.68,1003.67L1008.68,1012.87L975.813,998.717L1008.68,984.561L1008.68,993.762L1138.33,993.762L1138.33,1003.67L1008.68,1003.67Z"
   style="fill:rgb(93,93,93);"
   id="path156" />
    </g>
</svg>
