<?xml version="1.0" encoding="UTF-8" standalone="no"?>
<!-- Created with Inkscape (http://www.inkscape.org/) -->

<svg
   width="400mm"
   height="200mm"
   viewBox="0 0 400 200"
   version="1.1"
   id="svg5"
   inkscape:version="1.1.2 (1:1.1+202202050950+0a00cf5339)"
   sodipodi:docname="green_to_red.svg"
   xmlns:inkscape="http://www.inkscape.org/namespaces/inkscape"
   xmlns:sodipodi="http://sodipodi.sourceforge.net/DTD/sodipodi-0.dtd"
   xmlns:xlink="http://www.w3.org/1999/xlink"
   xmlns="http://www.w3.org/2000/svg"
   xmlns:svg="http://www.w3.org/2000/svg">
  <sodipodi:namedview
     id="namedview7"
     pagecolor="#ffffff"
     bordercolor="#666666"
     borderopacity="1.0"
     inkscape:pageshadow="2"
     inkscape:pageopacity="0.0"
     inkscape:pagecheckerboard="0"
     inkscape:document-units="mm"
     showgrid="true"
     inkscape:zoom="0.32"
     inkscape:cx="610.9375"
     inkscape:cy="-98.4375"
     inkscape:window-width="1848"
     inkscape:window-height="1016"
     inkscape:window-x="72"
     inkscape:window-y="27"
     inkscape:window-maximized="1"
     inkscape:current-layer="layer1">
    <inkscape:grid
       type="xygrid"
       id="grid824"
       color="#8181bd"
       opacity="0.1254902"
       empcolor="#8585b9"
       empopacity="0.25098039"
       spacingx="1.0583333"
       spacingy="1.0583333" />
  </sodipodi:namedview>
  <defs
     id="defs2">
    <linearGradient
       id="linear-gradient"
       x1="25.159731"
       y1="745.15961"
       x2="94.432739"
       y2="818.63464"
       gradientTransform="matrix(0.82537617,0,0,0.82537617,211.97465,-580.82317)"
       gradientUnits="userSpaceOnUse">
      <stop
         offset="0.0169"
         stop-color="#c5e1a5"
         id="stop2781" />
      <stop
         offset="0.1983"
         stop-color="#c1dea1"
         id="stop2783" />
      <stop
         offset="0.3788"
         stop-color="#b6d595"
         id="stop2785" />
      <stop
         offset="0.5591"
         stop-color="#a3c781"
         id="stop2787" />
      <stop
         offset="0.7392"
         stop-color="#88b265"
         id="stop2789" />
      <stop
         offset="0.9176"
         stop-color="#669841"
         id="stop2791" />
      <stop
         offset="0.9969"
         stop-color="#558b2f"
         id="stop2793" />
    </linearGradient>
    <linearGradient
       id="linear-gradient-1"
       x1="205.44579"
       y1="617.74463"
       x2="218.7858"
       y2="599.77856"
       gradientTransform="rotate(14.57266,2375.9288,-345.54639)"
       gradientUnits="userSpaceOnUse">
      <stop
         offset="0"
         stop-color="#13630f"
         id="stop2913" />
      <stop
         offset="0.1391"
         stop-color="#2a7915"
         id="stop2915" />
      <stop
         offset="0.457"
         stop-color="#59a623"
         id="stop2917" />
      <stop
         offset="0.6158"
         stop-color="#6bb828"
         id="stop2919" />
    </linearGradient>
    <linearGradient
       id="linear-gradient-2"
       x1="32.08392"
       y1="772.51514"
       x2="16.13192"
       y2="793.38013"
       gradientTransform="matrix(0.82537617,0,0,0.82537617,20.817512,-582.56485)"
       xlink:href="#linear-gradient-1" />
    <linearGradient
       id="linear-gradient-3"
       x1="73.639999"
       y1="770.64734"
       x2="102.73054"
       y2="770.64734"
       gradientTransform="matrix(0.82537617,0,0,0.82537617,20.817512,-582.56485)"
       xlink:href="#linear-gradient-1" />
    <linearGradient
       id="linear-gradient-4"
       x1="66.255386"
       y1="795.18823"
       x2="53.119389"
       y2="821.72821"
       gradientTransform="matrix(0.82537617,0,0,0.82537617,20.817512,-582.56485)"
       gradientUnits="userSpaceOnUse">
      <stop
         offset="0"
         stop-color="#134e0f"
         id="stop2924" />
      <stop
         offset="0.2097"
         stop-color="#357719"
         id="stop2926" />
      <stop
         offset="0.4804"
         stop-color="#5ca624"
         id="stop2928" />
      <stop
         offset="0.6158"
         stop-color="#6bb828"
         id="stop2930" />
    </linearGradient>
    <linearGradient
       id="linear-gradient-5"
       x1="9.8108397"
       y1="715.41821"
       x2="109.41373"
       y2="846.8642"
       gradientTransform="matrix(0.82537617,0,0,0.82537617,20.817512,-582.56485)"
       gradientUnits="userSpaceOnUse"
       xlink:href="#linear-gradient-6">
      <stop
         offset="0.16280645"
         stop-color="#49b802"
         id="stop2935"
         style="stop-color:#4cc41c;stop-opacity:1" />
      <stop
         offset="1"
         stop-color="#2e7d32"
         id="stop2937"
         style="stop-color:#117733;stop-opacity:1" />
    </linearGradient>
    <linearGradient
       id="linear-gradient-6"
       x1="25.159719"
       y1="747.26978"
       x2="94.432716"
       y2="820.74475"
       gradientTransform="translate(-4.18,-717.5477)"
       gradientUnits="userSpaceOnUse">
      <stop
         offset="0.0169"
         stop-color="#c5e1a5"
         id="stop2940" />
      <stop
         offset="0.1983"
         stop-color="#c1dea1"
         id="stop2942" />
      <stop
         offset="0.3788"
         stop-color="#b6d595"
         id="stop2944" />
      <stop
         offset="0.5591"
         stop-color="#a3c781"
         id="stop2946" />
      <stop
         offset="0.7392"
         stop-color="#88b265"
         id="stop2948" />
      <stop
         offset="0.9176"
         stop-color="#669841"
         id="stop2950" />
      <stop
         offset="0.9969"
         stop-color="#558b2f"
         id="stop2952" />
    </linearGradient>
    <linearGradient
       inkscape:collect="always"
       xlink:href="#linear-gradient-1"
       id="linearGradient3088"
       gradientUnits="userSpaceOnUse"
       gradientTransform="matrix(0.79882327,0.20767089,-0.20767089,0.79882327,15.595447,-492.90457)"
       x1="205.44579"
       y1="617.74463"
       x2="218.7858"
       y2="599.77856" />
    <linearGradient
       inkscape:collect="always"
       xlink:href="#linear-gradient-6"
       id="linearGradient8879"
       gradientUnits="userSpaceOnUse"
       gradientTransform="matrix(0.82537617,0,0,0.82537617,20.817512,-582.56485)"
       x1="25.159719"
       y1="747.26978"
       x2="94.432716"
       y2="820.74475" />
  </defs>
  <g
     inkscape:label="Layer 1"
     inkscape:groupmode="layer"
     id="layer1">
    <path
       id="path2063"
       style="fill:#e6e6e6;fill-opacity:1;stroke:#666666;stroke-width:0.5;stroke-miterlimit:4;stroke-dasharray:none;stroke-opacity:1"
       inkscape:transform-center-x="0.09732696"
       inkscape:transform-center-y="0.62914546"
       d="m 184.97206,59.66754 -9.89056,7.91245 v -4.615587 l -21.66796,-1.8e-5 V 56.370674 H 175.0815 V 51.75509 Z"
       sodipodi:nodetypes="cccccccc"
       inkscape:export-filename="/home/lettera/Desktop/prova.png"
       inkscape:export-xdpi="96"
       inkscape:export-ydpi="96" />
    <path
       d="m 312.20833,96.447363 a 6.0588471,6.0588471 0 0 0 -1.84884,-2.451368 5.8405351,5.8405351 0 0 0 -2.45137,-1.155526 6.0765514,6.0765514 0 0 0 -2.27804,-0.03301 6.3840288,6.3840288 0 0 0 -1.65075,0.519987 6.3068644,6.3068644 0 0 0 -0.95744,0.569509 c -0.20634,0.156822 -0.31364,0.239359 -0.31364,0.239359 a 0.3232008,0.3232008 0 0 0 -0.066,0.43745 0.32939112,0.32939112 0 0 0 0.45839,0.08307 l 0.012,-0.0087 c 0,0 0.099,-0.06603 0.28888,-0.198091 a 5.9225362,5.9225362 0 0 1 0.8749,-0.445703 5.678943,5.678943 0 0 1 1.46917,-0.371419 5.1380327,5.1380327 0 0 1 1.91487,0.140314 4.7445924,4.7445924 0 0 1 1.97265,1.072989 4.8367044,4.8367044 0 0 1 1.36187,2.046933 4.6866922,4.6866922 0 0 1 0.0908,2.575173 7.2386068,7.2386068 0 0 1 -1.13902,2.52565 8.6994648,8.6994648 0 0 1 -8.88104,3.58214 c -0.15682,-0.033 -0.31365,-0.0825 -0.47047,-0.12381 a 17.311935,17.311935 0 0 1 -2.74025,-1.70853 c -2.83929,-2.21201 -4.18465,-5.818903 -4.96051,-9.326752 -0.86664,-3.92879 -1.659,-7.717267 -2.86405,-11.56352 -0.70157,-2.236769 -1.47743,-4.457031 -2.36058,-6.636024 -0.71808,-1.774559 -1.52694,-3.565625 -2.40184,-5.340184 a 62.951259,62.951259 0 0 0 -3.70594,-6.578248 c -0.28888,-0.445703 -0.60253,-0.883153 -0.90792,-1.320602 a 27.501534,27.501534 0 0 0 -0.39618,-4.646868 c -0.66855,-3.86276 0.0825,-4.465285 2.11297,-4.712898 1.79932,-0.214598 7.3541,1.66726 9.05437,0.165075 1.29584,-1.139019 1.26283,-1.99741 1.33711,-3.615147 0.1073,-2.220262 2.24503,-2.814533 3.35928,-3.053892 a 1.0659403,1.0659403 0 0 0 0.6603,0.404434 1.0366725,1.0366725 0 1 0 -0.85839,-1.188541 1.1078364,1.1078364 0 0 0 0.008,0.165075 2.7426507,2.7426507 0 0 1 -2.15423,-0.808869 c -0.36317,-0.561256 1.52694,-2.888816 2.54215,-4.110373 a 1.2070549,1.2070549 0 0 0 0.42095,0.181583 1.0366725,1.0366725 0 1 0 -0.8584,-1.188542 1.0246715,1.0246715 0 0 0 0.0578,0.503479 c -0.94093,0.932675 -2.78152,2.731995 -3.285,2.624697 -0.60252,-0.132061 -0.18158,-3.994821 0.0413,-5.810649 a 1.0226411,1.0226411 0 0 0 0.78411,-0.841883 1.0366935,1.0366935 0 1 0 -2.04693,-0.330151 1.0247953,1.0247953 0 0 0 0.60252,1.089497 c -0.40443,1.824081 -1.18854,5.695095 -1.6425,5.802394 -0.48697,0.123807 -1.17203,-2.773264 -1.59297,-4.613853 a 1.015254,1.015254 0 0 0 0.45395,-0.693316 1.0366725,1.0366725 0 1 0 -1.18854,0.858392 h 0.0413 c 0.24761,1.741543 0.51999,4.490046 0.26412,4.952257 -0.30539,0.544748 -1.68377,0.453957 -2.63295,0.305389 a 1.0348566,1.0348566 0 1 0 -1.18854,0.883152 1.0090224,1.0090224 0 0 0 0.85839,-0.280628 c 1.39489,0.610779 2.93009,1.328856 3.29325,2.533905 a 1.8018787,1.8018787 0 0 1 -1.08949,2.261531 c 0,0 -7.70076,-0.297135 -10.25943,0.437449 -1.74154,0.495226 -1.7498,4.019582 -1.61774,6.776339 -0.41269,-0.412688 -0.81712,-0.841884 -1.24632,-1.229811 a 35.854118,35.854118 0 0 0 -3.35102,-2.682472 33.870343,33.870343 0 0 0 -8.19599,-4.324971 26.393054,26.393054 0 0 0 -5.27415,-1.320602 c -0.73459,-0.107299 -1.48568,-0.222852 -2.24503,-0.354912 a 8.9456498,8.9456498 0 0 0 0.89141,-4.415763 c -0.0743,-3.053891 -1.20505,-8.088686 0.0495,-10.474023 a 12.258429,12.258429 0 0 1 3.03739,-3.491341 0.98112465,0.98112465 0 0 0 0.51998,0.26412 1.0366725,1.0366725 0 1 0 -0.85839,-1.188542 0.97575145,0.97575145 0 0 0 0.1073,0.594271 c -0.92442,0.751092 -2.15423,1.386632 -2.74025,0.924421 -0.6603,-0.511733 0.52824,-2.864055 1.17204,-4.118627 a 0.88037098,0.88037098 0 0 0 0.15682,0.05778 1.0366725,1.0366725 0 1 0 -0.85839,-1.188542 1.0146514,1.0146514 0 0 0 0.32189,0.89966 c -0.58601,1.328856 -1.74154,3.788477 -2.45136,3.33452 -0.44571,-0.288882 -0.1073,-3.342774 -0.23936,-5.224631 a 1.0181015,1.0181015 0 0 0 0.60252,-0.759346 1.0366725,1.0366725 0 1 0 -1.18854,0.858391 c 0.0495,1.559961 0.0413,4.944003 -0.75934,5.241138 -0.7511,0.280628 -1.95615,-1.568214 -3.10342,-3.639909 a 0.98671245,0.98671245 0 0 0 0.26412,-0.511733 1.0366725,1.0366725 0 1 0 -1.18854,0.858391 0.9904514,0.9904514 0 0 0 0.41269,-0.01651 c 0.70157,1.155527 2.38533,4.027836 1.75805,4.844958 -0.28888,0.379673 -1.84884,0.321897 -3.12818,0.305389 a 1.018085,1.018085 0 0 0 -0.84188,-0.817122 1.036755,1.036755 0 1 0 0.72633,1.5352 c 1.35362,0.511733 3.11992,1.411393 3.63991,2.360575 1.12251,2.022172 2.94659,9.004854 -0.52824,11.043534 a 16.705944,16.705944 0 0 1 -2.26153,1.09775 12.249119,12.249119 0 0 1 -5.12559,-3.012623 6.1516276,6.1516276 0 0 1 -1.79932,-4.952257 c 0.2146,-2.319307 0.59427,-4.43227 0.18158,-6.99919 a 15.976443,15.976443 0 0 0 -1.06473,-3.681178 c -0.0743,-0.181583 -0.18984,-0.379673 -0.28888,-0.577763 -1.17204,-2.261531 -3.95355,-5.46399 -6.76809,-8.311538 -3.1777,-3.210713 -6.39666,-5.96747 -7.40362,-6.371904 a 2.5861512,2.5861512 0 0 0 -3.44249,1.235051 l -0.0241,0.0525 c -0.71807,0.858391 -1.63424,3.417057 -2.34406,6.636024 -0.97395,4.415762 -1.55997,10.086097 -0.70983,14.411068 1.33711,6.776338 5.28241,9.640394 7.44489,11.274638 1.60123,1.213303 1.89012,1.890112 4.4983,4.333225 1.49394,1.394886 2.64946,6.776339 3.6069,8.633435 0.48697,0.949183 1.01521,1.906619 1.59297,2.855802 l -0.14031,2.187246 c 0,0 -0.16507,4.407509 -1.04823,6.16556 a 6.8370943,6.8370943 0 0 1 -1.7663,2.393591 c 0,0 -3.02088,-4.465285 -2.5174,-7.857581 a 29.840353,29.840353 0 0 1 0.59427,-3.086907 1.0240607,1.0240607 0 0 0 0.8749,-0.850137 1.0366935,1.0366935 0 0 0 -2.04693,-0.330151 1.0129759,1.0129759 0 0 0 0.56951,1.072989 c -0.18984,0.973944 -0.51999,2.319307 -1.32886,2.294546 -1.02347,-0.03302 -2.45962,-4.044343 -3.07865,-5.860171 a 1.0105906,1.0105906 0 1 0 -0.63554,0.123807 c 0.033,0.0083 0.0578,-0.0083 0.0825,0 0.6603,1.650752 2.16248,5.298915 1.4279,5.686842 -0.68507,0.363165 -3.31802,-2.756757 -4.79544,-4.457032 a 1.1030327,1.1030327 0 1 0 -0.553,0.412688 c 1.18854,1.221557 4.50655,4.762421 3.98657,5.521767 -0.45396,0.668555 -3.03739,-0.09079 -4.61386,-0.70157 a 1.0244569,1.0244569 0 0 0 -0.85013,-1.039974 1.036755,1.036755 0 1 0 0.6768,1.609484 c 1.5187,0.519987 4.36624,1.36187 4.24244,2.178993 -0.1073,0.734585 -1.02347,0.792361 -2.179,1.155526 a 1.0275933,1.0275933 0 1 0 0.17333,0.742839 v -0.04952 c 1.28759,-0.313643 3.58214,-0.676808 4.86972,0.742839 1.61774,1.774559 4.81195,9.046123 6.51222,8.220747 1.48568,-0.718078 5.06781,-8.3363 6.71856,-10.26768 a 25.529974,25.529974 0 0 0 5.76113,3.293251 38.527256,38.527256 0 0 0 4.39925,1.526946 c 1.79932,0.519987 3.63166,0.940929 5.46399,1.337109 1.33711,0.297136 2.77327,0.577764 4.23418,0.907914 -1.86535,1.048228 -6.28936,3.59864 -7.33759,4.778928 -1.34536,1.510439 -0.50348,2.517397 0.58602,3.359281 0.68506,0.528241 0.30539,0.577763 7.63473,3.020877 a 6.8549059,6.8549059 0 0 1 -3.02088,0.586017 c -1.24632,0 -2.84755,-0.825376 -3.89578,-1.386632 0,-0.01651 0.008,-0.02476 0.0165,-0.04127 a 1.0366725,1.0366725 0 1 0 -1.18854,0.858391 1.020817,1.020817 0 0 0 0.82538,-0.239359 c 1.05648,0.544749 3.16119,1.477424 2.22851,1.980903 -0.88315,0.470465 -4.66337,0.586017 -6.67729,1.023467 a 1.0183244,1.0183244 0 0 0 -0.70157,-0.478719 1.0366935,1.0366935 0 0 0 -0.33015,2.046933 1.0200164,1.0200164 0 0 0 1.13076,-0.718077 c 1.31235,-0.123806 6.09953,-0.470464 6.40492,0.140314 0.28063,0.553002 -4.04434,2.996116 -6.04175,4.663375 a 1.4050956,1.4050956 0 0 0 -0.19809,-0.07428 1.0366725,1.0366725 0 1 0 0.85839,1.188541 0.94540237,0.94540237 0 0 0 -0.0165,-0.404434 c 1.36187,-0.973944 6.49571,-4.374494 7.25506,-3.763715 0.67681,0.536494 -1.11426,4.770674 -1.98916,7.007443 a 1.0299869,1.0299869 0 1 0 1.13902,1.180288 1.0146432,1.0146432 0 0 0 -0.32189,-0.89966 c 0.77585,-1.559961 3.35928,-6.594755 3.88752,-6.512218 0.48697,0.07428 0.37142,3.681178 0.37142,4.977018 a 1.0257362,1.0257362 0 0 0 -0.46221,0.693316 1.0366725,1.0366725 0 1 0 1.18854,-0.858391 h -0.0495 c 0.34666,-2.352322 0.79237,-6.09953 1.17204,-6.355396 0.50348,-0.338405 5.3732,-2.76501 5.11733,-4.448778 -0.25587,-1.675513 -3.9453,-3.524356 -6.54523,-4.275448 -2.59994,-0.751093 7.04871,2.096455 9.40103,-1.427901 0.3219,-0.478718 0.59427,-0.891406 0.85014,-1.262826 a 12.414731,12.414731 0 0 1 1.9644,1.758052 30.01057,30.01057 0 0 1 4.71289,6.966174 59.350498,59.350498 0 0 0 3.82975,7.585207 39.310067,39.310067 0 0 0 6.94967,8.022659 30.756331,30.756331 0 0 0 4.22592,3.22722 13.477386,13.477386 0 0 0 8.1052,1.94789 c 0.24761,-0.0248 0.49522,-0.0578 0.74283,-0.1073 l 0.18984,-0.033 0.19809,-0.0413 0.33841,-0.0825 a 11.340058,11.340058 0 0 0 1.51869,-0.51999 10.768477,10.768477 0 0 0 4.93575,-4.2837 8.7516286,8.7516286 0 0 0 1.18029,-3.144687 5.8767196,5.8767196 0 0 0 -0.29714,-3.29325 z"
       style="fill:#eb3a00;stroke:#2e7d32;stroke-width:3.3015px;stroke-linecap:round;stroke-linejoin:round;fill-opacity:1"
       id="path2798"
       inkscape:export-filename="/home/lettera/Desktop/prova.png"
       inkscape:export-xdpi="96"
       inkscape:export-ydpi="96" />
    <path
       d="m 249.04229,24.664397 c 0.24761,0.429196 2.78152,4.333225 2.03043,5.307169 -0.38793,0.503479 -2.98786,0.231105 -4.22593,0.321897 a 0.18471919,0.18471919 0 0 0 -0.033,0.363165 c 1.26282,0.330151 3.98656,1.477423 4.65512,2.690726 1.12251,2.022172 2.94659,9.004854 -0.52824,11.043534 a 21.129523,21.129523 0 0 1 -7.49442,2.476128 l -0.71808,3.103414 5.9097,0.932675 6.38015,-3.540863 a 8.3459397,8.3459397 0 0 0 1.03998,-4.671629 c -0.0743,-3.053892 -1.20505,-8.088687 0.0495,-10.474024 1.20505,-2.3028 3.57388,-3.821492 3.75546,-4.135135 0.18159,-0.305389 -0.16507,-0.420941 -0.3384,-0.231105 -0.89141,0.924421 -2.6247,2.055187 -3.35928,1.485677 -0.83363,-0.643793 1.31235,-4.275448 1.52694,-4.844958 0.2146,-0.56951 -0.15682,-0.792361 -0.40443,-0.26412 -0.24761,0.52824 -1.88186,4.671629 -2.78152,4.085612 -0.53649,-0.346658 0.0578,-4.655122 -0.37967,-6.173814 -0.23936,-0.841884 -0.50348,-0.148568 -0.47872,0.297135 0.0248,0.445704 0.27237,5.629066 -0.72633,5.992231 -0.79236,0.297136 -2.07995,-1.774558 -3.285,-3.970059 -0.51173,-0.940929 -1.04823,-0.602525 -0.59427,0.206344 z"
       style="fill:#f53c00;fill-opacity:1;stroke-width:0.825376"
       id="path2800"
       inkscape:export-filename="/home/lettera/Desktop/prova.png"
       inkscape:export-xdpi="96"
       inkscape:export-ydpi="96" />
    <path
       d="m 236.89275,63.217718 c 0,0 -0.16507,4.407509 -1.04822,6.16556 a 6.8371273,6.8371273 0 0 1 -1.76631,2.393591 c 0,0 -3.02088,-4.465285 -2.5174,-7.857581 a 19.454488,19.454488 0 0 1 0.85014,-3.912283 c 0.15682,-0.478719 -0.47046,-0.660301 -0.6603,-0.156822 -0.19809,0.50348 -0.38793,3.218967 -1.51869,3.177698 -1.23807,-0.04127 -3.10342,-5.975723 -3.35103,-6.669039 -0.24761,-0.693316 -0.75934,-0.470464 -0.56125,0.189836 0.19809,0.660301 2.59993,5.942709 1.70852,6.421427 -0.77585,0.412688 -4.05259,-3.656416 -5.32367,-5.043048 -0.38793,-0.429196 -1.07299,-0.148568 -0.44571,0.586017 0,0 5.0348,5.026541 4.40751,5.942708 -0.54474,0.792361 -4.12688,-0.437449 -5.41446,-1.03172 -0.42095,-0.19809 -0.78411,0.123806 -0.26412,0.528241 0.51998,0.412688 5.2824,1.493931 5.12558,2.550412 -0.12381,0.817123 -1.25457,0.792361 -2.61644,1.304094 -0.88315,0.330151 -0.97394,0.949183 -0.16508,0.742839 0.80887,-0.206344 4.01959,-1.238064 5.63732,0.544748 1.61774,1.782813 4.81195,9.046123 6.51222,8.220747 1.70028,-0.825376 6.15731,-10.696875 7.29633,-10.713383 0.77585,-0.0083 -5.55479,-8.66645 -5.55479,-8.66645 z"
       style="fill:#f53c00;fill-opacity:1;stroke-width:0.825376"
       id="path2802"
       inkscape:export-filename="/home/lettera/Desktop/prova.png"
       inkscape:export-xdpi="96"
       inkscape:export-ydpi="96" />
    <path
       d="m 272.75535,60.394931 c 0,0 2.76501,1.427901 2.8558,-0.420941 0.0825,-1.848843 -1.03997,-8.996601 1.48568,-9.714678 2.55866,-0.734585 10.25942,-0.437449 10.25942,-0.437449 a 1.8018787,1.8018787 0 0 0 1.0895,-2.261531 c -0.41269,-1.378378 -2.34407,-2.112963 -3.85451,-2.781518 -0.33015,-0.148567 -0.45395,-0.676808 0.066,-0.519987 0.51999,0.156822 3.02913,0.619032 3.45008,-0.13206 0.34665,-0.627286 -0.27238,-5.455736 -0.49523,-6.289366 -0.22285,-0.83363 0.38793,-0.916168 0.58602,-0.247613 0.20634,0.668555 1.24631,6.198575 1.91487,6.025246 0.56126,-0.140314 1.65901,-6.132545 1.8571,-6.702055 0.20634,-0.569509 0.58601,-0.445703 0.54474,0.08254 -0.0413,0.528241 -0.89966,6.536979 -0.14031,6.702055 0.59427,0.13206 3.10341,-2.459621 3.71419,-3.045639 0.61078,-0.586017 0.85014,-0.206344 0.54475,0.206345 -0.30539,0.404434 -3.61515,4.110373 -3.14468,4.836704 0.4457,0.693316 1.97265,0.973944 2.74025,0.734585 0.7676,-0.247613 0.52824,0.371419 0.24761,0.544748 -0.28063,0.181583 -3.85451,0.321897 -4.00307,3.210713 -0.0825,1.617738 -0.0413,2.476129 -1.33711,3.615148 -1.70853,1.502184 -7.25506,-0.379673 -9.05438,-0.165075 -2.03043,0.247612 -2.78152,0.850137 -2.11296,4.712898 0.66855,3.86276 0.57776,8.963585 -1.01522,10.639098 -1.59297,1.675514 -2.09645,1.485677 -2.09645,1.485677 z"
       style="fill:#f53c00;fill-opacity:1;stroke-width:0.825376"
       id="path2804"
       inkscape:export-filename="/home/lettera/Desktop/prova.png"
       inkscape:export-xdpi="96"
       inkscape:export-ydpi="96" />
    <path
       d="m 262.8921,73.633965 c 0,0 -6.84236,3.738954 -8.17947,5.249393 -1.33711,1.510438 -0.50348,2.517397 0.58601,3.359281 0.68506,0.52824 0.30539,0.577763 7.63473,3.020876 a 6.8549059,6.8549059 0 0 1 -3.02087,0.586018 c -1.44441,0 -3.37579,-1.114258 -4.34974,-1.634245 -0.97394,-0.519987 -1.00696,0.123806 -0.3384,0.577763 0.66855,0.453957 3.75546,1.642499 2.66596,2.228516 -0.91616,0.495225 -4.96876,0.594271 -6.90839,1.072989 -1.22156,0.305389 -0.60253,0.89966 0.0578,0.825376 0.66856,-0.08254 6.34714,-0.553002 6.67729,0.115553 0.28889,0.577763 -4.41576,3.202459 -6.28111,4.869719 -1.13076,1.006959 0.0578,1.155527 0.57777,0.734585 0.51998,-0.429196 6.72681,-4.671629 7.5687,-3.994821 0.70156,0.561256 -1.28759,5.191616 -2.10471,7.312833 -0.45396,1.188542 0.48697,0.916167 0.73458,0.396181 0.24761,-0.519987 3.4996,-7.032205 4.10212,-6.941414 0.52824,0.08254 0.34666,4.324971 0.37142,5.257646 0.0248,0.932675 0.51999,0.586017 0.60252,0.04952 0.34666,-2.278039 0.83363,-6.578248 1.23807,-6.850623 0.50348,-0.338404 5.3732,-2.76501 5.11733,-4.448777 -0.24761,-1.675514 -3.9453,-3.524356 -6.54523,-4.275449 -2.59994,-0.751092 7.04871,2.096456 9.40103,-1.4279 2.35232,-3.524357 2.76501,-4.027836 2.76501,-4.027836 z"
       style="fill:#f53c00;fill-opacity:1;stroke-width:0.825376"
       id="path2806"
       inkscape:export-filename="/home/lettera/Desktop/prova.png"
       inkscape:export-xdpi="96"
       inkscape:export-ydpi="96" />
    <circle
       cx="287.96704"
       cy="38.142788"
       r="1.0317202"
       style="fill:#eb3a00;stroke-width:0.825376;fill-opacity:1"
       id="circle2808"
       inkscape:export-filename="/home/lettera/Desktop/prova.png"
       inkscape:export-xdpi="96"
       inkscape:export-ydpi="96" />
    <circle
       cx="249.06705"
       cy="24.119648"
       r="1.0317202"
       style="fill:#eb3a00;stroke-width:0.825376;fill-opacity:1"
       id="circle2810"
       inkscape:export-filename="/home/lettera/Desktop/prova.png"
       inkscape:export-xdpi="96"
       inkscape:export-ydpi="96" />
    <circle
       cx="222.34962"
       cy="57.951817"
       r="1.0317202"
       style="fill:#eb3a00;stroke-width:0.825376;fill-opacity:1"
       id="circle2812"
       inkscape:export-filename="/home/lettera/Desktop/prova.png"
       inkscape:export-xdpi="96"
       inkscape:export-ydpi="96" />
    <circle
       cx="221.01251"
       cy="63.729454"
       r="1.0317202"
       style="fill:#eb3a00;stroke-width:0.825376;fill-opacity:1"
       id="circle2814"
       inkscape:export-filename="/home/lettera/Desktop/prova.png"
       inkscape:export-xdpi="96"
       inkscape:export-ydpi="96" />
    <circle
       cx="223.0677"
       cy="68.227753"
       r="1.0317202"
       style="fill:#eb3a00;stroke-width:0.825376;fill-opacity:1"
       id="circle2816"
       inkscape:export-filename="/home/lettera/Desktop/prova.png"
       inkscape:export-xdpi="96"
       inkscape:export-ydpi="96" />
    <circle
       cx="255.01802"
       cy="84.256554"
       r="1.0317202"
       style="fill:#eb3a00;stroke-width:0.825376;fill-opacity:1"
       id="circle2818"
       inkscape:export-filename="/home/lettera/Desktop/prova.png"
       inkscape:export-xdpi="96"
       inkscape:export-ydpi="96" />
    <circle
       cx="250.35464"
       cy="88.589783"
       r="1.0317202"
       style="fill:#eb3a00;stroke-width:0.825376;fill-opacity:1"
       id="circle2820"
       inkscape:export-filename="/home/lettera/Desktop/prova.png"
       inkscape:export-xdpi="96"
       inkscape:export-ydpi="96" />
    <circle
       cx="251.32858"
       cy="94.656296"
       r="1.0317202"
       style="fill:#eb3a00;stroke-width:0.825376;fill-opacity:1"
       id="circle2822"
       inkscape:export-filename="/home/lettera/Desktop/prova.png"
       inkscape:export-xdpi="96"
       inkscape:export-ydpi="96" />
    <circle
       cx="257.72525"
       cy="98.65937"
       r="1.0317202"
       style="fill:#eb3a00;stroke-width:0.825376;fill-opacity:1"
       id="circle2824"
       inkscape:export-filename="/home/lettera/Desktop/prova.png"
       inkscape:export-xdpi="96"
       inkscape:export-ydpi="96" />
    <circle
       cx="263.24701"
       cy="97.247978"
       r="1.0317202"
       style="fill:#eb3a00;stroke-width:0.825376;fill-opacity:1"
       id="circle2826"
       inkscape:export-filename="/home/lettera/Desktop/prova.png"
       inkscape:export-xdpi="96"
       inkscape:export-ydpi="96" />
    <circle
       cx="231.99828"
       cy="59.817169"
       r="1.0317202"
       style="fill:#eb3a00;stroke-width:0.825376;fill-opacity:1"
       id="circle2828"
       inkscape:export-filename="/home/lettera/Desktop/prova.png"
       inkscape:export-xdpi="96"
       inkscape:export-ydpi="96" />
    <circle
       cx="253.84598"
       cy="22.171761"
       r="1.0317202"
       style="fill:#eb3a00;stroke-width:0.825376;fill-opacity:1"
       id="circle2830"
       inkscape:export-filename="/home/lettera/Desktop/prova.png"
       inkscape:export-xdpi="96"
       inkscape:export-ydpi="96" />
    <circle
       cx="257.66748"
       cy="24.259962"
       r="1.0317202"
       style="fill:#eb3a00;stroke-width:0.825376;fill-opacity:1"
       id="circle2832"
       inkscape:export-filename="/home/lettera/Desktop/prova.png"
       inkscape:export-xdpi="96"
       inkscape:export-ydpi="96" />
    <circle
       cx="259.82996"
       cy="27.982409"
       r="1.0317202"
       style="fill:#eb3a00;stroke-width:0.825376;fill-opacity:1"
       id="circle2834"
       inkscape:export-filename="/home/lettera/Desktop/prova.png"
       inkscape:export-xdpi="96"
       inkscape:export-ydpi="96" />
    <circle
       cx="246.94583"
       cy="30.483299"
       r="1.0317202"
       style="fill:#eb3a00;stroke-width:0.825376;fill-opacity:1"
       id="circle2836"
       inkscape:export-filename="/home/lettera/Desktop/prova.png"
       inkscape:export-xdpi="96"
       inkscape:export-ydpi="96" />
    <circle
       cx="226.66634"
       cy="56.259796"
       r="1.0317202"
       style="fill:#eb3a00;stroke-width:0.825376;fill-opacity:1"
       id="circle2838"
       inkscape:export-filename="/home/lettera/Desktop/prova.png"
       inkscape:export-xdpi="96"
       inkscape:export-ydpi="96" />
    <circle
       cx="292.19296"
       cy="36.879963"
       r="1.0317202"
       style="fill:#eb3a00;stroke-width:0.825376;fill-opacity:1"
       id="circle2840"
       inkscape:export-filename="/home/lettera/Desktop/prova.png"
       inkscape:export-xdpi="96"
       inkscape:export-ydpi="96" />
    <circle
       cx="296.63348"
       cy="40.73447"
       r="1.0317202"
       style="fill:#eb3a00;stroke-width:0.825376;fill-opacity:1"
       id="circle2842"
       inkscape:export-filename="/home/lettera/Desktop/prova.png"
       inkscape:export-xdpi="96"
       inkscape:export-ydpi="96" />
    <circle
       cx="296.67474"
       cy="46.503849"
       r="1.0317202"
       style="fill:#eb3a00;stroke-width:0.825376;fill-opacity:1"
       id="circle2844"
       inkscape:export-filename="/home/lettera/Desktop/prova.png"
       inkscape:export-xdpi="96"
       inkscape:export-ydpi="96" />
    <circle
       cx="284.45093"
       cy="44.275333"
       r="1.0317202"
       style="fill:#eb3a00;stroke-width:0.825376;fill-opacity:1"
       id="circle2846"
       inkscape:export-filename="/home/lettera/Desktop/prova.png"
       inkscape:export-xdpi="96"
       inkscape:export-ydpi="96" />
    <path
       d="m 311.91945,96.447363 a 6.0588471,6.0588471 0 0 0 -1.84884,-2.451368 5.8406259,5.8406259 0 0 0 -2.45137,-1.155526 6.0765514,6.0765514 0 0 0 -2.27804,-0.03301 6.3839298,6.3839298 0 0 0 -1.65075,0.519987 6.3069387,6.3069387 0 0 0 -0.95744,0.569509 c -0.20634,0.156822 -0.31364,0.239359 -0.31364,0.239359 a 0.32321731,0.32321731 0 0 0 -0.066,0.43745 0.32939938,0.32939938 0 0 0 0.45839,0.08307 l 0.012,-0.0087 c 0,0 0.099,-0.06603 0.28888,-0.198091 a 5.9226188,5.9226188 0 0 1 0.8749,-0.445703 5.6788604,5.6788604 0 0 1 1.46917,-0.371419 5.1380574,5.1380574 0 0 1 1.91487,0.140314 4.7446419,4.7446419 0 0 1 1.97265,1.072989 4.8367044,4.8367044 0 0 1 1.36187,2.046933 4.6868491,4.6868491 0 0 1 0.0908,2.575173 7.2386233,7.2386233 0 0 1 -1.13902,2.52565 8.6994648,8.6994648 0 0 1 -8.88105,3.58214 c -0.15682,-0.033 -0.31364,-0.0825 -0.47046,-0.12381 a 17.312306,17.312306 0 0 1 -2.74025,-1.70853 c -2.83929,-2.21201 -4.18466,-5.818903 -4.96051,-9.326752 -0.86664,-3.92879 -1.65901,-7.717267 -2.86405,-11.56352 -0.70157,-2.236769 -1.47743,-4.457031 -2.36058,-6.636024 -0.71808,-1.774559 -1.52695,-3.565625 -2.40184,-5.340184 a 62.951259,62.951259 0 0 0 -3.70594,-6.578248 42.930117,42.930117 0 0 0 -7.04872,-8.501375 35.85132,35.85132 0 0 0 -3.35102,-2.682472 33.87007,33.87007 0 0 0 -8.19599,-4.324971 26.392649,26.392649 0 0 0 -5.27415,-1.320602 49.238831,49.238831 0 0 1 -8.29503,-1.824082 12.757072,12.757072 0 0 1 -5.57129,-3.169444 6.1515864,6.1515864 0 0 1 -1.79932,-4.952257 c 0.2146,-2.319307 0.59427,-4.43227 0.18158,-6.99919 a 15.976848,15.976848 0 0 0 -1.06473,-3.681178 c -0.0743,-0.181583 -0.18984,-0.379673 -0.28889,-0.577763 -1.17203,-2.261531 -3.95355,-5.46399 -6.76808,-8.311538 1.49393,3.986567 1.82408,8.171224 -0.26412,12.364135 0,0.866645 -2.59994,2.599935 -5.19987,1.73329 -5.29892,-2.121217 -7.3541,-7.164265 -7.75854,-12.537464 -0.97394,4.415762 -1.55996,10.086097 -0.70982,14.411068 1.33711,6.776338 5.28241,9.640393 7.44489,11.274638 1.60123,1.213303 1.89011,1.890112 4.4983,4.333225 1.49393,1.394886 2.64946,6.776338 3.6069,8.633435 a 29.769668,29.769668 0 0 0 5.08431,7.444893 c 0.31365,0.313643 0.63554,0.610778 0.97395,0.891406 a 24.892817,24.892817 0 0 0 6.46269,3.829746 38.527809,38.527809 0 0 0 4.39926,1.526945 c 1.79932,0.519987 3.63165,0.940929 5.46399,1.33711 1.73329,0.379673 3.6234,0.751092 5.53827,1.196795 a 32.324743,32.324743 0 0 1 8.24551,2.930086 14.140881,14.140881 0 0 1 3.71419,2.888816 30.010793,30.010793 0 0 1 4.7129,6.966175 59.351042,59.351042 0 0 0 3.82975,7.585207 39.310315,39.310315 0 0 0 6.94966,8.022654 30.756116,30.756116 0 0 0 4.22593,3.22723 13.477328,13.477328 0 0 0 8.10519,1.94788 c 0.24762,-0.0248 0.49523,-0.0578 0.74284,-0.1073 l 0.18984,-0.033 0.19809,-0.0413 0.3384,-0.0825 a 11.340165,11.340165 0 0 0 1.5187,-0.51998 10.768493,10.768493 0 0 0 4.93574,-4.28371 8.7516286,8.7516286 0 0 0 1.18029,-3.144682 5.9748981,5.9748981 0 0 0 -0.30539,-3.301504 z"
       style="fill:#f53c00;fill-opacity:1;stroke-width:0.825376"
       id="path2848"
       inkscape:export-filename="/home/lettera/Desktop/prova.png"
       inkscape:export-xdpi="96"
       inkscape:export-ydpi="96" />
    <path
       d="m 228.35011,32.051514 c 2.59994,0.866645 5.19987,-0.866645 5.19987,-1.73329 2.09646,-4.184657 1.75805,-8.369315 0.26412,-12.364135 -3.1777,-3.210714 -6.39666,-5.96747 -7.40362,-6.371904 a 2.5861594,2.5861594 0 0 0 -3.44252,1.235084 l -0.0241,0.0525 c -0.71808,0.858391 -1.63425,3.417057 -2.34407,6.636024 0.39618,5.389706 2.45137,10.424501 7.75028,12.545718 z"
       style="fill:#ea7a8f;stroke-width:0.825376;fill-opacity:1"
       id="path2850"
       inkscape:export-filename="/home/lettera/Desktop/prova.png"
       inkscape:export-xdpi="96"
       inkscape:export-ydpi="96" />
    <path
       d="m 220.59157,32.588008 a 4.605599,4.605599 0 1 1 4.6056,-4.605599 4.605599,4.605599 0 0 1 -4.6056,4.605599 z"
       style="fill:#ffffff;stroke-width:0.825376"
       id="path2852"
       inkscape:export-filename="/home/lettera/Desktop/prova.png"
       inkscape:export-xdpi="96"
       inkscape:export-ydpi="96" />
    <path
       d="m 220.59157,23.938066 a 4.0443432,4.0443432 0 1 1 -4.04434,4.044343 v 0 a 4.0402989,4.0402989 0 0 1 4.03626,-4.044343 h 0.008 m 0,-1.130765 a 5.1668548,5.1668548 0 1 0 5.16686,5.166854 5.1668548,5.1668548 0 0 0 -5.16686,-5.166854 z"
       style="fill:#b3b3b3;stroke-width:0.825376"
       id="path2854"
       inkscape:export-filename="/home/lettera/Desktop/prova.png"
       inkscape:export-xdpi="96"
       inkscape:export-ydpi="96" />
    <circle
       cx="219.47731"
       cy="26.084044"
       r="1.9726491"
       id="circle2856"
       style="stroke-width:0.825376"
       inkscape:export-filename="/home/lettera/Desktop/prova.png"
       inkscape:export-xdpi="96"
       inkscape:export-ydpi="96" />
    <path
       d="m 236.33975,26.356418 a 4.605599,4.605599 0 1 1 4.6056,-4.605599 v 0 a 4.6074066,4.6074066 0 0 1 -4.6056,4.605599 z"
       style="fill:#ffffff;stroke-width:0.825376"
       id="path2858"
       inkscape:export-filename="/home/lettera/Desktop/prova.png"
       inkscape:export-xdpi="96"
       inkscape:export-ydpi="96" />
    <path
       d="m 236.3315,17.706476 a 4.0443432,4.0443432 0 1 1 -4.04434,4.044343 v 0 a 4.0402989,4.0402989 0 0 1 4.03625,-4.044343 h 0.008 m 0,-1.122512 a 5.1668548,5.1668548 0 1 0 5.16685,5.166855 5.1668548,5.1668548 0 0 0 -5.16685,-5.166855 z"
       style="fill:#b3b3b3;stroke-width:0.825376"
       id="path2860"
       inkscape:export-filename="/home/lettera/Desktop/prova.png"
       inkscape:export-xdpi="96"
       inkscape:export-ydpi="96" />
    <circle
       cx="236.58737"
       cy="19.769917"
       r="1.9726491"
       id="circle2862"
       style="stroke-width:0.825376"
       inkscape:export-filename="/home/lettera/Desktop/prova.png"
       inkscape:export-xdpi="96"
       inkscape:export-ydpi="96" />
    <path
       d="m 234.06997,36.244425 c 0,0 0.0908,0.33015 0.27237,0.940929 0.17333,0.643793 0.4457,1.436154 0.81712,2.492636 a 22.439708,22.439708 0 0 0 1.6425,3.59864 19.90147,19.90147 0 0 0 3.0704,3.986567 44.451187,44.451187 0 0 0 4.77893,4.06085 c 0.89966,0.676809 1.89011,1.436155 2.83104,2.071695 l 0.75935,0.52824 0.73458,0.462211 c 0.47872,0.313643 0.99045,0.619032 1.5352,0.924421 a 76.342261,76.342261 0 0 0 6.82586,3.458326 c 2.4101,1.089497 4.91099,2.162486 7.40363,3.342774 a 71.24766,71.24766 0 0 1 7.34584,3.912283 l 0.44571,0.272374 0.24761,0.156822 0.20634,0.140313 c 0.28063,0.198091 0.5365,0.354912 0.83363,0.586018 0.59427,0.437449 1.13902,0.874898 1.67552,1.320601 a 29.985858,29.985858 0 0 1 2.92183,2.864056 42.306117,42.306117 0 0 1 7.36235,12.273343 62.335784,62.335784 0 0 1 2.92184,9.533095 c 0.26412,1.172034 0.42919,2.096456 0.53649,2.723742 0.1073,0.635539 0.16508,0.96569 0.16508,0.96569 a 0.14600904,0.14600904 0 0 1 -0.11556,0.165075 0.155245,0.155245 0 0 1 -0.15682,-0.09079 c 0,0 -0.4457,-1.287586 -1.28758,-3.507848 a 81.555419,81.555419 0 0 0 -3.97006,-8.914063 50.646386,50.646386 0 0 0 -3.29326,-5.53002 37.458988,37.458988 0 0 0 -4.45703,-5.46399 26.578953,26.578953 0 0 0 -2.73199,-2.443114 c -0.48697,-0.379673 -0.99045,-0.742838 -1.48568,-1.064735 -0.2311,-0.165075 -0.54475,-0.346658 -0.81712,-0.519987 l -0.2146,-0.13206 -0.18158,-0.107299 -0.42094,-0.239359 a 64.831779,64.831779 0 0 0 -7.07348,-3.507849 c -4.91924,-2.121217 -10.06959,-4.093866 -14.69995,-6.702055 -0.57776,-0.313643 -1.14727,-0.6603 -1.71678,-1.023466 l -0.84188,-0.536495 -0.75935,-0.52824 c -1.0895,-0.742839 -2.00566,-1.444409 -2.97961,-2.162486 a 42.411641,42.411641 0 0 1 -5.19987,-4.506554 21.9193,21.9193 0 0 1 -3.55737,-4.902734 25.840687,25.840687 0 0 1 -1.78281,-4.258941 c -0.38793,-1.196796 -0.62729,-2.203755 -0.75935,-2.798025 -0.14031,-0.619033 -0.21459,-0.957437 -0.21459,-0.957437 a 1.7502845,1.7502845 0 0 1 3.38404,-0.883152 z"
       style="fill:url(#linear-gradient);stroke-width:0.825376"
       id="path2864"
       inkscape:export-filename="/home/lettera/Desktop/prova.png"
       inkscape:export-xdpi="96"
       inkscape:export-ydpi="96" />
    <path
       d="m 121.05119,96.447368 a 6.0588471,6.0588471 0 0 0 -1.84884,-2.451367 5.8404856,5.8404856 0 0 0 -2.45137,-1.155527 6.0765514,6.0765514 0 0 0 -2.27803,-0.03302 6.3840288,6.3840288 0 0 0 -1.65076,0.519987 6.3068644,6.3068644 0 0 0 -0.95743,0.56951 c -0.20635,0.156821 -0.31365,0.239359 -0.31365,0.239359 a 0.32321731,0.32321731 0 0 0 -0.066,0.437449 0.32939112,0.32939112 0 0 0 0.45839,0.08307 l 0.0121,-0.0087 c 0,0 0.099,-0.06603 0.28889,-0.19809 a 5.9225362,5.9225362 0 0 1 0.87489,-0.445703 5.678943,5.678943 0 0 1 1.46917,-0.371419 5.1383711,5.1383711 0 0 1 1.91488,0.140314 4.7445429,4.7445429 0 0 1 1.97265,1.072989 4.8362091,4.8362091 0 0 1 1.36187,2.046933 4.6866922,4.6866922 0 0 1 0.0908,2.575173 7.2382354,7.2382354 0 0 1 -1.13902,2.525654 8.6991017,8.6991017 0 0 1 -8.88105,3.58213 c -0.15682,-0.033 -0.31364,-0.0825 -0.47046,-0.1238 a 17.309987,17.309987 0 0 1 -2.74025,-1.70853 c -2.8393,-2.21201 -4.18466,-5.818907 -4.96051,-9.326756 -0.86665,-3.928791 -1.65901,-7.717267 -2.864059,-11.56352 -0.701569,-2.23677 -1.477423,-4.457031 -2.360576,-6.636025 -0.718077,-1.774558 -1.526946,-3.565625 -2.401844,-5.340183 A 62.951259,62.951259 0 0 0 90.404952,64.299 C 90.11607,63.853296 89.802427,63.415847 89.497038,62.978398 A 27.501534,27.501534 0 0 0 89.100857,58.33153 c -0.668554,-3.862761 0.08254,-4.465285 2.112963,-4.712898 1.79932,-0.214598 7.354102,1.66726 9.05438,0.165075 1.29584,-1.139019 1.26282,-1.99741 1.33711,-3.615147 0.1073,-2.220262 2.24502,-2.814533 3.35928,-3.053892 a 1.0659073,1.0659073 0 0 0 0.6603,0.404434 1.0366725,1.0366725 0 1 0 -0.85839,-1.188542 1.1078364,1.1078364 0 0 0 0.008,0.165076 2.7426755,2.7426755 0 0 1 -2.15423,-0.808869 c -0.36317,-0.561256 1.52694,-2.888817 2.54216,-4.110373 a 1.2070549,1.2070549 0 0 0 0.42094,0.181582 1.0366725,1.0366725 0 1 0 -0.85839,-1.188541 1.0245807,1.0245807 0 0 0 0.0578,0.503479 c -0.94092,0.932675 -2.78151,2.731995 -3.28499,2.624696 -0.60253,-0.13206 -0.18159,-3.99482 0.0413,-5.810648 a 1.0226411,1.0226411 0 0 0 0.7841,-0.841884 1.0366935,1.0366935 0 1 0 -2.04693,-0.33015 1.0247705,1.0247705 0 0 0 0.60253,1.089496 c -0.40444,1.824082 -1.188546,5.695096 -1.642503,5.802395 -0.486972,0.123806 -1.172034,-2.773264 -1.592976,-4.613853 a 1.0154273,1.0154273 0 0 0 0.453957,-0.693316 1.0366725,1.0366725 0 1 0 -1.188542,0.858391 h 0.04127 c 0.247613,1.741544 0.519987,4.490047 0.26412,4.952257 -0.305389,0.544749 -1.683767,0.453957 -2.63295,0.30539 a 1.0348897,1.0348897 0 1 0 -1.188542,0.883152 1.0090471,1.0090471 0 0 0 0.858392,-0.280628 c 1.394885,0.610779 2.930085,1.328856 3.293251,2.533905 a 1.8019117,1.8019117 0 0 1 -1.089497,2.261531 c 0,0 -7.70076,-0.297136 -10.259426,0.437449 -1.741543,0.495226 -1.749797,4.019582 -1.617737,6.776338 -0.412688,-0.412688 -0.817122,-0.841883 -1.246318,-1.22981 a 35.854118,35.854118 0 0 0 -3.351027,-2.682473 33.870343,33.870343 0 0 0 -8.195986,-4.324971 26.393054,26.393054 0 0 0 -5.274153,-1.320602 c -0.734585,-0.107298 -1.485677,-0.222851 -2.245024,-0.354911 a 8.9456333,8.9456333 0 0 0 0.891407,-4.415763 c -0.07428,-3.053892 -1.20505,-8.088686 0.04952,-10.474023 a 12.258429,12.258429 0 0 1 3.037385,-3.491342 0.98106688,0.98106688 0 0 0 0.519987,0.264121 1.0366725,1.0366725 0 1 0 -0.858392,-1.188542 0.97569368,0.97569368 0 0 0 0.107299,0.594271 c -0.924421,0.751092 -2.154232,1.386632 -2.740249,0.924421 -0.660301,-0.511733 0.528241,-2.864055 1.172035,-4.118627 a 0.87972719,0.87972719 0 0 0 0.156821,0.05778 1.0366725,1.0366725 0 1 0 -0.858391,-1.188541 1.0146597,1.0146597 0 0 0 0.321896,0.89966 c -0.586017,1.328855 -1.741543,3.788476 -2.451367,3.33452 -0.445703,-0.288882 -0.107299,-3.342774 -0.239359,-5.224632 a 1.0181015,1.0181015 0 0 0 0.602525,-0.759346 1.0366725,1.0366725 0 1 0 -1.188542,0.858392 c 0.04952,1.55996 0.04127,4.944003 -0.759346,5.241138 -0.751092,0.280628 -1.956142,-1.568215 -3.103414,-3.639909 a 0.98667943,0.98667943 0 0 0 0.26412,-0.511733 1.0366725,1.0366725 0 1 0 -1.188542,0.858391 0.98992316,0.98992316 0 0 0 0.412688,-0.01651 c 0.70157,1.155526 2.385338,4.027835 1.758052,4.844958 -0.288882,0.379673 -1.848843,0.321897 -3.128176,0.305389 a 1.0180767,1.0180767 0 0 0 -0.841884,-0.817122 1.0367385,1.0367385 0 1 0 0.726331,1.535199 c 1.353617,0.511734 3.119922,1.411394 3.639909,2.360576 1.122512,2.022172 2.946593,9.004854 -0.528241,11.043533 a 16.705944,16.705944 0 0 1 -2.26153,1.097751 12.249119,12.249119 0 0 1 -5.125586,-3.012623 6.1516359,6.1516359 0 0 1 -1.79932,-4.952257 c 0.214597,-2.319307 0.594271,-4.43227 0.181582,-6.99919 A 15.976443,15.976443 0 0 0 49.969582,26.84343 c -0.07428,-0.181583 -0.189836,-0.379673 -0.288881,-0.577763 -1.172035,-2.261531 -3.953552,-5.463991 -6.768085,-8.311538 -3.177698,-3.210714 -6.396665,-5.96747 -7.403624,-6.371904 a 2.5861181,2.5861181 0 0 0 -3.442471,1.23501 l -0.02408,0.05254 c -0.718078,0.858392 -1.634245,3.417058 -2.344069,6.636025 -0.973944,4.415762 -1.559961,10.086097 -0.709823,14.411068 1.337109,6.776338 5.282407,9.640393 7.444893,11.274638 1.60123,1.213303 1.890111,1.890112 4.4983,4.333225 1.493931,1.394886 2.649457,6.776338 3.606894,8.633435 0.486972,0.949182 1.015212,1.906619 1.592976,2.855801 l -0.140314,2.187247 c 0,0 -0.165075,4.407509 -1.048228,6.16556 a 6.8370943,6.8370943 0 0 1 -1.766305,2.393591 c 0,0 -3.020877,-4.465285 -2.517397,-7.857581 a 29.843382,29.843382 0 0 1 0.594271,-3.086907 1.024036,1.024036 0 0 0 0.874898,-0.850137 1.0366936,1.0366936 0 0 0 -2.046933,-0.330151 1.0130337,1.0130337 0 0 0 0.56951,1.072989 c -0.189837,0.973944 -0.519987,2.319307 -1.328856,2.294546 -1.023466,-0.03301 -2.459621,-4.044343 -3.078653,-5.860171 a 1.0105741,1.0105741 0 1 0 -0.635539,0.123807 c 0.03301,0.0083 0.05778,-0.0083 0.08254,0 0.660301,1.650752 2.162486,5.298915 1.427901,5.686841 -0.685062,0.363166 -3.318012,-2.756756 -4.795436,-4.457031 a 1.103074,1.103074 0 1 0 -0.553002,0.412688 c 1.188542,1.221557 4.506554,4.762421 3.986567,5.521767 -0.453957,0.668554 -3.037384,-0.09079 -4.613853,-0.70157 a 1.0244321,1.0244321 0 0 0 -0.850137,-1.039974 1.0367715,1.0367715 0 1 0 0.676809,1.609484 c 1.518692,0.519987 4.366239,1.36187 4.242433,2.178993 -0.107299,0.734584 -1.023466,0.792361 -2.178993,1.155526 a 1.0275933,1.0275933 0 1 0 0.173329,0.742839 v -0.04952 c 1.287587,-0.313643 3.582132,-0.676808 4.869719,0.742839 1.617738,1.774559 4.811943,9.046123 6.512218,8.220746 1.485677,-0.718077 5.06781,-8.336299 6.718562,-10.267679 a 25.530148,25.530148 0 0 0 5.761126,3.293251 38.528848,38.528848 0 0 0 4.399255,1.526946 c 1.79932,0.519987 3.631655,0.940929 5.46399,1.337109 1.33711,0.297136 2.773264,0.577763 4.23418,0.907914 -1.86535,1.048228 -6.289366,3.59864 -7.337594,4.778928 -1.345363,1.510438 -0.50348,2.517397 0.586017,3.359281 0.685062,0.528241 0.305389,0.577763 7.634729,3.020877 a 6.8549059,6.8549059 0 0 1 -3.020876,0.586017 c -1.246318,0 -2.847548,-0.825376 -3.895776,-1.386632 0,-0.01651 0.0083,-0.02476 0.01651,-0.04127 a 1.0366725,1.0366725 0 1 0 -1.188542,0.858391 1.020817,1.020817 0 0 0 0.825376,-0.239359 c 1.056482,0.544748 3.161191,1.477424 2.228516,1.980903 -0.883153,0.470464 -4.663376,0.586017 -6.677293,1.023466 a 1.0183656,1.0183656 0 0 0 -0.70157,-0.478718 1.0366936,1.0366936 0 0 0 -0.330151,2.046933 1.0200329,1.0200329 0 0 0 1.130766,-0.718077 c 1.312348,-0.123807 6.09953,-0.470465 6.404919,0.140314 0.280628,0.553002 -4.044343,2.996115 -6.041754,4.663375 a 1.407514,1.407514 0 0 0 -0.19809,-0.07428 1.0366725,1.0366725 0 1 0 0.858391,1.188542 0.94540237,0.94540237 0 0 0 -0.01651,-0.404434 c 1.36187,-0.973944 6.49571,-4.374494 7.255056,-3.763716 0.676809,0.536495 -1.114258,4.770675 -1.989156,7.007444 a 1.0300282,1.0300282 0 1 0 1.139019,1.180288 1.0146432,1.0146432 0 0 0 -0.321897,-0.89966 c 0.775854,-1.559961 3.359281,-6.594756 3.887522,-6.512218 0.486972,0.07428 0.371419,3.681178 0.371419,4.977018 a 1.0257527,1.0257527 0 0 0 -0.462211,0.693316 1.0366725,1.0366725 0 1 0 1.188542,-0.858391 h -0.04952 c 0.346658,-2.352322 0.792361,-6.09953 1.172034,-6.355396 0.503479,-0.338405 5.373199,-2.765011 5.117332,-4.448778 -0.255867,-1.675514 -3.945298,-3.524356 -6.545233,-4.275449 -2.599935,-0.751092 7.048712,2.096456 9.401035,-1.4279 0.321896,-0.478719 0.59427,-0.891407 0.850137,-1.262826 a 12.415135,12.415135 0 0 1 1.964395,1.758051 30.010141,30.010141 0 0 1 4.712898,6.966175 59.350498,59.350498 0 0 0 3.829746,7.585207 39.310067,39.310067 0 0 0 6.949667,8.022649 30.757486,30.757486 0 0 0 4.225933,3.22722 13.477386,13.477386 0 0 0 8.10519,1.94789 c 0.24761,-0.0248 0.49523,-0.0578 0.74284,-0.1073 l 0.18984,-0.033 0.19809,-0.0413 0.3384,-0.0825 a 11.340058,11.340058 0 0 0 1.51869,-0.51999 10.768386,10.768386 0 0 0 4.93575,-4.2837 8.7516286,8.7516286 0 0 0 1.18029,-3.144677 5.8768021,5.8768021 0 0 0 -0.29714,-3.293251 z"
       style="fill:none;stroke:#2e7d32;stroke-width:3.3015px;stroke-linecap:round;stroke-linejoin:round"
       id="path2957"
       inkscape:export-filename="/home/lettera/Desktop/prova.png"
       inkscape:export-xdpi="96"
       inkscape:export-ydpi="96" />
    <path
       d="m 57.885155,24.664403 c 0.247613,0.429195 2.781518,4.333225 2.030426,5.307169 -0.387927,0.503479 -2.987862,0.231105 -4.225926,0.321896 a 0.18469443,0.18469443 0 0 0 -0.03301,0.363166 c 1.262825,0.33015 3.986567,1.477423 4.655121,2.690726 1.122512,2.022172 2.946593,9.004854 -0.52824,11.043533 a 21.129358,21.129358 0 0 1 -7.494416,2.476129 l -0.718077,3.103414 5.909693,0.932675 6.380158,-3.540863 a 8.3459397,8.3459397 0 0 0 1.039974,-4.67163 c -0.07428,-3.053891 -1.205049,-8.088686 0.04952,-10.474023 1.20505,-2.3028 3.573879,-3.821492 3.755462,-4.135135 0.181583,-0.305389 -0.165075,-0.420942 -0.338404,-0.231105 -0.891407,0.924421 -2.624696,2.055187 -3.359281,1.485677 -0.83363,-0.643793 1.312348,-4.275449 1.526946,-4.844958 0.214597,-0.56951 -0.156822,-0.792361 -0.404435,-0.264121 -0.247613,0.528241 -1.881857,4.67163 -2.781517,4.085613 -0.536495,-0.346658 0.05778,-4.655122 -0.379673,-6.173814 -0.239359,-0.841884 -0.50348,-0.148568 -0.478719,0.297135 0.02476,0.445703 0.272375,5.629066 -0.726331,5.992231 -0.792361,0.297136 -2.079948,-1.774559 -3.284997,-3.970059 -0.511733,-0.940929 -1.048227,-0.602525 -0.594271,0.206344 z"
       style="fill:url(#linearGradient3088);stroke-width:0.825376"
       id="path2959"
       inkscape:export-filename="/home/lettera/Desktop/prova.png"
       inkscape:export-xdpi="96"
       inkscape:export-ydpi="96" />
    <path
       d="m 45.735618,63.217724 c 0,0 -0.165075,4.407508 -1.048228,6.16556 a 6.8371273,6.8371273 0 0 1 -1.766305,2.393591 c 0,0 -3.020876,-4.465285 -2.517397,-7.857582 a 19.454488,19.454488 0 0 1 0.850138,-3.912283 c 0.156821,-0.478718 -0.470465,-0.6603 -0.660301,-0.156821 -0.198091,0.503479 -0.387927,3.218967 -1.518693,3.177698 -1.238064,-0.04127 -3.103414,-5.975723 -3.351027,-6.669039 -0.247613,-0.693316 -0.759346,-0.470465 -0.561256,0.189836 0.198091,0.660301 2.599935,5.942709 1.708529,6.421427 -0.775853,0.412688 -4.052597,-3.656417 -5.323676,-5.043048 -0.387927,-0.429196 -1.072989,-0.148568 -0.445703,0.586017 0,0 5.034794,5.02654 4.407508,5.942708 -0.544748,0.792361 -4.12688,-0.437449 -5.414467,-1.03172 -0.420942,-0.19809 -0.784108,0.123806 -0.264121,0.528241 0.519987,0.412688 5.282408,1.49393 5.125586,2.550412 -0.123806,0.817122 -1.254571,0.792361 -2.616442,1.304094 -0.883153,0.330151 -0.973944,0.949183 -0.165075,0.742839 0.808868,-0.206344 4.019582,-1.238064 5.637319,0.544748 1.617737,1.782813 4.811943,9.046123 6.512218,8.220747 1.700275,-0.825376 6.157306,-10.696875 7.296325,-10.713383 0.775854,-0.0083 -5.554781,-8.66645 -5.554781,-8.66645 z"
       style="fill:url(#linear-gradient-2);stroke-width:0.825376"
       id="path2961"
       inkscape:export-filename="/home/lettera/Desktop/prova.png"
       inkscape:export-xdpi="96"
       inkscape:export-ydpi="96" />
    <path
       d="m 81.598213,60.394937 c 0,0 2.76501,1.427901 2.855801,-0.420942 0.08254,-1.848842 -1.039974,-8.9966 1.485677,-9.714677 2.558667,-0.734585 10.259426,-0.437449 10.259426,-0.437449 a 1.80192,1.80192 0 0 0 1.089497,-2.261531 c -0.412688,-1.378378 -2.344069,-2.112963 -3.854507,-2.781518 -0.33015,-0.148568 -0.453957,-0.676808 0.06603,-0.519987 0.519987,0.156822 3.029131,0.619032 3.450073,-0.13206 0.346658,-0.627286 -0.272375,-5.455737 -0.495226,-6.289366 -0.222852,-0.83363 0.387927,-0.916168 0.586017,-0.247613 0.206344,0.668554 1.246318,6.198575 1.914873,6.025246 0.561255,-0.140314 1.659006,-6.132545 1.857096,-6.702055 0.20634,-0.569509 0.58602,-0.445703 0.54475,0.08254 -0.0413,0.528241 -0.89966,6.536979 -0.14032,6.702054 0.59428,0.132061 3.10342,-2.459621 3.7142,-3.045638 0.61078,-0.586017 0.85013,-0.206344 0.54475,0.206344 -0.30539,0.404435 -3.61515,4.110374 -3.14469,4.836705 0.44571,0.693316 1.97265,0.973944 2.74025,0.734584 0.7676,-0.247612 0.52824,0.37142 0.24761,0.544749 -0.28062,0.181582 -3.8545,0.321896 -4.00307,3.210713 -0.0825,1.617737 -0.0413,2.476129 -1.33711,3.615148 -1.708529,1.502184 -7.255056,-0.379673 -9.054377,-0.165076 -2.030425,0.247613 -2.781517,0.850138 -2.112963,4.712898 0.668555,3.862761 0.577764,8.963586 -1.015212,10.639099 -1.592976,1.675514 -2.096456,1.485677 -2.096456,1.485677 z"
       style="fill:url(#linear-gradient-3);stroke-width:0.825376"
       id="path2963"
       inkscape:export-filename="/home/lettera/Desktop/prova.png"
       inkscape:export-xdpi="96"
       inkscape:export-ydpi="96" />
    <path
       d="m 71.734968,73.633971 c 0,0 -6.842369,3.738954 -8.179478,5.249392 -1.33711,1.510439 -0.50348,2.517398 0.586017,3.359281 0.685062,0.528241 0.305389,0.577764 7.634729,3.020877 a 6.8549059,6.8549059 0 0 1 -3.020876,0.586017 c -1.444409,0 -3.375789,-1.114257 -4.349733,-1.634244 -0.973944,-0.519987 -1.006959,0.123806 -0.338404,0.577763 0.668555,0.453957 3.755461,1.642498 2.665965,2.228515 -0.916168,0.495226 -4.968765,0.594271 -6.908399,1.07299 -1.221556,0.305389 -0.602524,0.89966 0.05778,0.825376 0.668554,-0.08254 6.347142,-0.553002 6.677293,0.115552 0.288882,0.577764 -4.415763,3.20246 -6.281113,4.86972 -1.130765,1.006959 0.05778,1.155526 0.577764,0.734585 0.519987,-0.429196 6.726815,-4.67163 7.568699,-3.994821 0.70157,0.561256 -1.287587,5.191616 -2.104709,7.312833 -0.453957,1.188541 0.486972,0.916167 0.734585,0.39618 0.247613,-0.519987 3.499595,-7.032205 4.102119,-6.941413 0.528241,0.08254 0.346658,4.324971 0.371419,5.257646 0.02476,0.932675 0.519987,0.586017 0.602525,0.04952 0.346658,-2.278038 0.83363,-6.578248 1.238064,-6.850622 0.50348,-0.338404 5.373199,-2.76501 5.117333,-4.448777 -0.247613,-1.675514 -3.945298,-3.524357 -6.545233,-4.275449 -2.599935,-0.751092 7.048712,2.096456 9.401034,-1.427901 2.352322,-3.524356 2.76501,-4.027835 2.76501,-4.027835 z"
       style="fill:url(#linear-gradient-4);stroke-width:0.825376"
       id="path2965"
       inkscape:export-filename="/home/lettera/Desktop/prova.png"
       inkscape:export-xdpi="96"
       inkscape:export-ydpi="96" />
    <circle
       cx="96.809898"
       cy="38.142788"
       r="1.0317202"
       style="fill:#6bb828;stroke-width:0.825376"
       id="circle2967"
       inkscape:export-filename="/home/lettera/Desktop/prova.png"
       inkscape:export-xdpi="96"
       inkscape:export-ydpi="96" />
    <circle
       cx="57.909916"
       cy="24.119656"
       r="1.0317202"
       style="fill:#6bb828;stroke-width:0.825376"
       id="circle2969"
       inkscape:export-filename="/home/lettera/Desktop/prova.png"
       inkscape:export-xdpi="96"
       inkscape:export-ydpi="96" />
    <circle
       cx="31.19249"
       cy="57.951817"
       r="1.0317202"
       style="fill:#6bb828;stroke-width:0.825376"
       id="circle2971"
       inkscape:export-filename="/home/lettera/Desktop/prova.png"
       inkscape:export-xdpi="96"
       inkscape:export-ydpi="96" />
    <circle
       cx="29.855381"
       cy="63.72945"
       r="1.0317202"
       style="fill:#6bb828;stroke-width:0.825376"
       id="circle2973"
       inkscape:export-filename="/home/lettera/Desktop/prova.png"
       inkscape:export-xdpi="96"
       inkscape:export-ydpi="96" />
    <circle
       cx="31.910568"
       cy="68.227753"
       r="1.0317202"
       style="fill:#6bb828;stroke-width:0.825376"
       id="circle2975"
       inkscape:export-filename="/home/lettera/Desktop/prova.png"
       inkscape:export-xdpi="96"
       inkscape:export-ydpi="96" />
    <circle
       cx="63.860878"
       cy="84.256569"
       r="1.0317202"
       style="fill:#6bb828;stroke-width:0.825376"
       id="circle2977"
       inkscape:export-filename="/home/lettera/Desktop/prova.png"
       inkscape:export-xdpi="96"
       inkscape:export-ydpi="96" />
    <circle
       cx="59.197502"
       cy="88.58979"
       r="1.0317202"
       style="fill:#6bb828;stroke-width:0.825376"
       id="circle2979"
       inkscape:export-filename="/home/lettera/Desktop/prova.png"
       inkscape:export-xdpi="96"
       inkscape:export-ydpi="96" />
    <circle
       cx="60.171448"
       cy="94.656303"
       r="1.0317202"
       style="fill:#6bb828;stroke-width:0.825376"
       id="circle2981"
       inkscape:export-filename="/home/lettera/Desktop/prova.png"
       inkscape:export-xdpi="96"
       inkscape:export-ydpi="96" />
    <circle
       cx="66.568115"
       cy="98.65937"
       r="1.0317202"
       style="fill:#6bb828;stroke-width:0.825376"
       id="circle2983"
       inkscape:export-filename="/home/lettera/Desktop/prova.png"
       inkscape:export-xdpi="96"
       inkscape:export-ydpi="96" />
    <circle
       cx="72.089882"
       cy="97.247986"
       r="1.0317202"
       style="fill:#6bb828;stroke-width:0.825376"
       id="circle2985"
       inkscape:export-filename="/home/lettera/Desktop/prova.png"
       inkscape:export-xdpi="96"
       inkscape:export-ydpi="96" />
    <circle
       cx="40.841137"
       cy="59.817173"
       r="1.0317202"
       style="fill:#6bb828;stroke-width:0.825376"
       id="circle2987"
       inkscape:export-filename="/home/lettera/Desktop/prova.png"
       inkscape:export-xdpi="96"
       inkscape:export-ydpi="96" />
    <circle
       cx="62.688843"
       cy="22.171766"
       r="1.0317202"
       style="fill:#6bb828;stroke-width:0.825376"
       id="circle2989"
       inkscape:export-filename="/home/lettera/Desktop/prova.png"
       inkscape:export-xdpi="96"
       inkscape:export-ydpi="96" />
    <circle
       cx="66.510338"
       cy="24.25997"
       r="1.0317202"
       style="fill:#6bb828;stroke-width:0.825376"
       id="circle2991"
       inkscape:export-filename="/home/lettera/Desktop/prova.png"
       inkscape:export-xdpi="96"
       inkscape:export-ydpi="96" />
    <circle
       cx="68.672821"
       cy="27.982414"
       r="1.0317202"
       style="fill:#6bb828;stroke-width:0.825376"
       id="circle2993"
       inkscape:export-filename="/home/lettera/Desktop/prova.png"
       inkscape:export-xdpi="96"
       inkscape:export-ydpi="96" />
    <circle
       cx="55.7887"
       cy="30.483305"
       r="1.0317202"
       style="fill:#6bb828;stroke-width:0.825376"
       id="circle2995"
       inkscape:export-filename="/home/lettera/Desktop/prova.png"
       inkscape:export-xdpi="96"
       inkscape:export-ydpi="96" />
    <circle
       cx="35.509209"
       cy="56.259804"
       r="1.0317202"
       style="fill:#6bb828;stroke-width:0.825376"
       id="circle2997"
       inkscape:export-filename="/home/lettera/Desktop/prova.png"
       inkscape:export-xdpi="96"
       inkscape:export-ydpi="96" />
    <circle
       cx="101.03582"
       cy="36.879971"
       r="1.0317202"
       style="fill:#6bb828;stroke-width:0.825376"
       id="circle2999"
       inkscape:export-filename="/home/lettera/Desktop/prova.png"
       inkscape:export-xdpi="96"
       inkscape:export-ydpi="96" />
    <circle
       cx="105.47634"
       cy="40.734467"
       r="1.0317202"
       style="fill:#6bb828;stroke-width:0.825376"
       id="circle3001"
       inkscape:export-filename="/home/lettera/Desktop/prova.png"
       inkscape:export-xdpi="96"
       inkscape:export-ydpi="96" />
    <circle
       cx="105.51762"
       cy="46.503857"
       r="1.0317202"
       style="fill:#6bb828;stroke-width:0.825376"
       id="circle3003"
       inkscape:export-filename="/home/lettera/Desktop/prova.png"
       inkscape:export-xdpi="96"
       inkscape:export-ydpi="96" />
    <circle
       cx="93.293793"
       cy="44.275341"
       r="1.0317202"
       style="fill:#6bb828;stroke-width:0.825376"
       id="circle3005"
       inkscape:export-filename="/home/lettera/Desktop/prova.png"
       inkscape:export-xdpi="96"
       inkscape:export-ydpi="96" />
    <path
       d="m 120.76231,96.447368 a 6.0588471,6.0588471 0 0 0 -1.84884,-2.451367 5.8406259,5.8406259 0 0 0 -2.45137,-1.155527 6.0765514,6.0765514 0 0 0 -2.27804,-0.03302 6.3839298,6.3839298 0 0 0 -1.65075,0.519987 6.3069387,6.3069387 0 0 0 -0.95743,0.56951 c -0.20635,0.156821 -0.31365,0.239359 -0.31365,0.239359 a 0.32322556,0.32322556 0 0 0 -0.066,0.437449 0.32939938,0.32939938 0 0 0 0.45839,0.08307 l 0.0121,-0.0087 c 0,0 0.0991,-0.06603 0.28888,-0.19809 a 5.9226188,5.9226188 0 0 1 0.8749,-0.445703 5.6781919,5.6781919 0 0 1 1.46917,-0.371419 5.1383959,5.1383959 0 0 1 1.91487,0.140314 4.7446419,4.7446419 0 0 1 1.97265,1.072989 4.8363577,4.8363577 0 0 1 1.36187,2.046933 4.6870059,4.6870059 0 0 1 0.0908,2.575173 7.2384087,7.2384087 0 0 1 -1.13902,2.525654 8.6990934,8.6990934 0 0 1 -8.88105,3.58213 c -0.15682,-0.033 -0.31364,-0.0825 -0.47047,-0.1238 a 17.311332,17.311332 0 0 1 -2.74024,-1.70853 c -2.8393,-2.21201 -4.18466,-5.818907 -4.96052,-9.326756 -0.86664,-3.928791 -1.659001,-7.717267 -2.86405,-11.56352 -0.70157,-2.23677 -1.477424,-4.457031 -2.360576,-6.636025 -0.718078,-1.774558 -1.526946,-3.565625 -2.401845,-5.340183 A 62.948271,62.948271 0 0 0 90.11607,64.299 42.929597,42.929597 0 0 0 83.067358,55.797625 35.85132,35.85132 0 0 0 79.71633,53.115152 a 33.870648,33.870648 0 0 0 -8.195985,-4.324971 26.392649,26.392649 0 0 0 -5.274154,-1.320602 49.238641,49.238641 0 0 1 -8.29503,-1.824081 12.757072,12.757072 0 0 1 -5.571289,-3.169444 6.1516359,6.1516359 0 0 1 -1.79932,-4.952257 c 0.214597,-2.319307 0.59427,-4.43227 0.181582,-6.99919 a 15.976848,15.976848 0 0 0 -1.064735,-3.681178 c -0.07428,-0.181583 -0.189836,-0.379673 -0.288882,-0.577763 -1.172034,-2.261531 -3.953551,-5.463991 -6.768084,-8.311538 1.493931,3.986567 1.824081,8.171224 -0.264121,12.364135 0,0.866645 -2.599935,2.599935 -5.199869,1.73329 -5.298915,-2.121217 -7.354102,-7.164266 -7.758536,-12.537464 -0.973944,4.415762 -1.559961,10.086096 -0.709824,14.411067 1.337109,6.776339 5.282408,9.640394 7.444893,11.274639 1.60123,1.213303 1.890112,1.890111 4.4983,4.333225 1.493931,1.394886 2.649458,6.776338 3.606894,8.633435 a 29.76942,29.76942 0 0 0 5.084317,7.444893 c 0.313643,0.313643 0.63554,0.610778 0.973944,0.891406 a 24.892817,24.892817 0 0 0 6.462696,3.829745 38.525654,38.525654 0 0 0 4.399255,1.526946 c 1.79932,0.519987 3.631655,0.940929 5.46399,1.33711 1.73329,0.379673 3.623401,0.751092 5.538274,1.196795 a 32.324743,32.324743 0 0 1 8.245508,2.930086 14.140881,14.140881 0 0 1 3.714193,2.888816 30.010364,30.010364 0 0 1 4.712898,6.966175 59.353733,59.353733 0 0 0 3.829745,7.585207 39.310315,39.310315 0 0 0 6.949667,8.022656 30.756116,30.756116 0 0 0 4.225923,3.22722 13.477328,13.477328 0 0 0 8.1052,1.94789 c 0.24761,-0.0248 0.49522,-0.0578 0.74284,-0.1073 l 0.18983,-0.033 0.19809,-0.0413 0.33841,-0.0825 a 11.342493,11.342493 0 0 0 1.51869,-0.51999 10.768534,10.768534 0 0 0 4.93575,-4.2837 8.7517854,8.7517854 0 0 0 1.18029,-3.144684 5.9748981,5.9748981 0 0 0 -0.30539,-3.301505 z"
       style="fill:url(#linear-gradient-5);fill-opacity:1;stroke-width:0.825376"
       id="path3007"
       inkscape:export-filename="/home/lettera/Desktop/prova.png"
       inkscape:export-xdpi="96"
       inkscape:export-ydpi="96" />
    <path
       d="m 37.192975,32.05152 c 2.599935,0.866645 5.19987,-0.866645 5.19987,-1.73329 2.096455,-4.184658 1.758051,-8.369315 0.26412,-12.364135 -3.177698,-3.210714 -6.396665,-5.96747 -7.403624,-6.371904 a 2.5861181,2.5861181 0 0 0 -3.442496,1.235043 l -0.02408,0.05254 c -0.718077,0.858392 -1.634245,3.417058 -2.344068,6.636025 0.39618,5.389706 2.451367,10.424501 7.750282,12.545718 z"
       style="fill:#aed581;stroke-width:0.825376"
       id="path3009"
       inkscape:export-filename="/home/lettera/Desktop/prova.png"
       inkscape:export-xdpi="96"
       inkscape:export-ydpi="96" />
    <path
       d="m 29.434439,32.588014 a 4.605599,4.605599 0 1 1 4.605599,-4.605599 4.605599,4.605599 0 0 1 -4.605599,4.605599 z"
       style="fill:#ffffff;stroke-width:0.825376"
       id="path3011"
       inkscape:export-filename="/home/lettera/Desktop/prova.png"
       inkscape:export-xdpi="96"
       inkscape:export-ydpi="96" />
    <path
       d="m 29.434439,23.938072 a 4.0443432,4.0443432 0 1 1 -4.044343,4.044343 v 0 a 4.0403319,4.0403319 0 0 1 4.03632,-4.044343 h 0.008 m 0,-1.130766 a 5.1668548,5.1668548 0 1 0 5.166855,5.166855 5.1668548,5.1668548 0 0 0 -5.166855,-5.166855 z"
       style="fill:#b3b3b3;stroke-width:0.825376"
       id="path3013"
       inkscape:export-filename="/home/lettera/Desktop/prova.png"
       inkscape:export-xdpi="96"
       inkscape:export-ydpi="96" />
    <circle
       cx="28.320181"
       cy="26.084049"
       r="1.9726491"
       id="circle3015"
       style="stroke-width:0.825376"
       inkscape:export-filename="/home/lettera/Desktop/prova.png"
       inkscape:export-xdpi="96"
       inkscape:export-ydpi="96" />
    <path
       d="m 45.182616,26.356424 a 4.605599,4.605599 0 1 1 4.605599,-4.605599 v 0 a 4.6074561,4.6074561 0 0 1 -4.605599,4.605599 z"
       style="fill:#ffffff;stroke-width:0.825376"
       id="path3017"
       inkscape:export-filename="/home/lettera/Desktop/prova.png"
       inkscape:export-xdpi="96"
       inkscape:export-ydpi="96" />
    <path
       d="m 45.174362,17.706482 a 4.0443432,4.0443432 0 1 1 -4.044343,4.044343 v 0 a 4.0403402,4.0403402 0 0 1 4.036321,-4.044343 h 0.008 m 0,-1.122512 a 5.1668548,5.1668548 0 1 0 5.166855,5.166855 5.1668548,5.1668548 0 0 0 -5.166855,-5.166855 z"
       style="fill:#b3b3b3;stroke-width:0.825376"
       id="path3019"
       inkscape:export-filename="/home/lettera/Desktop/prova.png"
       inkscape:export-xdpi="96"
       inkscape:export-ydpi="96" />
    <circle
       cx="45.430229"
       cy="19.769922"
       r="1.9726491"
       id="circle3021"
       style="stroke-width:0.825376"
       inkscape:export-filename="/home/lettera/Desktop/prova.png"
       inkscape:export-xdpi="96"
       inkscape:export-ydpi="96" />
    <path
       d="m 42.912832,36.244431 c 0,0 0.09079,0.33015 0.272374,0.940928 0.173329,0.643794 0.445703,1.436155 0.817122,2.492636 a 22.439708,22.439708 0 0 0 1.642499,3.59864 19.90147,19.90147 0 0 0 3.070399,3.986567 44.451187,44.451187 0 0 0 4.778928,4.060851 c 0.89966,0.676809 1.890112,1.436155 2.83104,2.071694 l 0.759347,0.528241 0.734584,0.462211 c 0.478718,0.313643 0.990452,0.619032 1.5352,0.924421 a 76.342261,76.342261 0 0 0 6.825861,3.458326 c 2.410098,1.089497 4.910988,2.162486 7.403624,3.342774 a 71.24766,71.24766 0 0 1 7.345848,3.912283 l 0.445703,0.272374 0.247613,0.156821 0.206344,0.140314 c 0.280628,0.198091 0.536495,0.354912 0.83363,0.586017 0.594271,0.43745 1.139019,0.874899 1.675514,1.320602 a 29.984934,29.984934 0 0 1 2.921831,2.864056 42.306117,42.306117 0 0 1 7.362356,12.273343 62.335784,62.335784 0 0 1 2.921831,9.533095 c 0.264121,1.172034 0.429196,2.096455 0.536495,2.723741 0.107299,0.63554 0.165075,0.96569 0.165075,0.96569 a 0.1460173,0.1460173 0 0 1 -0.115553,0.165076 0.15523675,0.15523675 0 0 1 -0.156821,-0.09079 c 0,0 -0.445703,-1.287587 -1.287587,-3.507848 A 81.558548,81.558548 0 0 0 92.71603,84.512429 50.646386,50.646386 0 0 0 89.422779,78.982409 37.458988,37.458988 0 0 0 84.965748,73.518418 26.578953,26.578953 0 0 0 82.233752,71.075305 C 81.74678,70.695632 81.243301,70.332466 80.748075,70.01057 80.51697,69.845494 80.203327,69.663912 79.930953,69.490583 L 79.716355,69.358522 79.534772,69.251224 79.11383,69.011864 A 64.831779,64.831779 0 0 0 72.040357,65.504016 C 67.121115,63.382799 61.970767,61.41015 57.340407,58.801961 56.762644,58.488318 56.193134,58.14166 55.623625,57.778495 L 54.781741,57.242 54.022395,56.71376 C 52.932898,55.970921 52.016731,55.269351 51.042787,54.551274 A 42.411641,42.411641 0 0 1 45.842917,50.04472 21.9193,21.9193 0 0 1 42.285546,45.141986 25.840687,25.840687 0 0 1 40.502733,40.883045 C 40.114806,39.686249 39.875447,38.67929 39.743387,38.085019 39.603073,37.465987 39.528789,37.127583 39.528789,37.127583 a 1.7502762,1.7502762 0 0 1 3.384043,-0.883152 z"
       style="fill:url(#linearGradient8879);stroke-width:0.825376"
       id="path3023"
       inkscape:export-filename="/home/lettera/Desktop/prova.png"
       inkscape:export-xdpi="96"
       inkscape:export-ydpi="96" />
  </g>
</svg>
