<?xml version="1.0" encoding="UTF-8" standalone="no"?>
<!-- Created with Inkscape (http://www.inkscape.org/) -->

<svg
   width="400mm"
   height="200mm"
   viewBox="0 0 400 200"
   version="1.1"
   id="svg5"
   inkscape:version="1.1.2 (1:1.1+202202050950+0a00cf5339)"
   sodipodi:docname="green_to_red.svg"
   xmlns:inkscape="http://www.inkscape.org/namespaces/inkscape"
   xmlns:sodipodi="http://sodipodi.sourceforge.net/DTD/sodipodi-0.dtd"
   xmlns:xlink="http://www.w3.org/1999/xlink"
   xmlns="http://www.w3.org/2000/svg"
   xmlns:svg="http://www.w3.org/2000/svg">
  <sodipodi:namedview
     id="namedview7"
     pagecolor="#ffffff"
     bordercolor="#666666"
     borderopacity="1.0"
     inkscape:pageshadow="2"
     inkscape:pageopacity="0.0"
     inkscape:pagecheckerboard="0"
     inkscape:document-units="mm"
     showgrid="true"
     inkscape:zoom="0.22627417"
     inkscape:cx="37.565048"
     inkscape:cy="404.37669"
     inkscape:window-width="1848"
     inkscape:window-height="1016"
     inkscape:window-x="72"
     inkscape:window-y="27"
     inkscape:window-maximized="1"
     inkscape:current-layer="layer1">
    <inkscape:grid
       type="xygrid"
       id="grid824"
       color="#8181bd"
       opacity="0.1254902"
       empcolor="#8585b9"
       empopacity="0.25098039"
       spacingx="1.0583333"
       spacingy="1.0583333" />
  </sodipodi:namedview>
  <defs
     id="defs2">
    <linearGradient
       id="linear-gradient"
       x1="25.159731"
       y1="745.15961"
       x2="94.432739"
       y2="818.63464"
       gradientTransform="translate(-4.18,-715.43753)"
       gradientUnits="userSpaceOnUse">
      <stop
         offset="0.0169"
         stop-color="#c5e1a5"
         id="stop2781" />
      <stop
         offset="0.1983"
         stop-color="#c1dea1"
         id="stop2783" />
      <stop
         offset="0.3788"
         stop-color="#b6d595"
         id="stop2785" />
      <stop
         offset="0.5591"
         stop-color="#a3c781"
         id="stop2787" />
      <stop
         offset="0.7392"
         stop-color="#88b265"
         id="stop2789" />
      <stop
         offset="0.9176"
         stop-color="#669841"
         id="stop2791" />
      <stop
         offset="0.9969"
         stop-color="#558b2f"
         id="stop2793" />
    </linearGradient>
    <linearGradient
       id="linear-gradient-1"
       x1="205.44579"
       y1="617.74463"
       x2="218.7858"
       y2="599.77856"
       gradientTransform="rotate(14.57266,2375.9288,-345.54639)"
       gradientUnits="userSpaceOnUse">
      <stop
         offset="0"
         stop-color="#13630f"
         id="stop2913" />
      <stop
         offset="0.1391"
         stop-color="#2a7915"
         id="stop2915" />
      <stop
         offset="0.457"
         stop-color="#59a623"
         id="stop2917" />
      <stop
         offset="0.6158"
         stop-color="#6bb828"
         id="stop2919" />
    </linearGradient>
    <linearGradient
       id="linear-gradient-2"
       x1="32.08392"
       y1="772.51514"
       x2="16.13192"
       y2="793.38013"
       gradientTransform="translate(-4.18,-717.5477)"
       xlink:href="#linear-gradient-1" />
    <linearGradient
       id="linear-gradient-3"
       x1="73.639999"
       y1="770.64734"
       x2="102.73054"
       y2="770.64734"
       gradientTransform="translate(-4.18,-717.5477)"
       xlink:href="#linear-gradient-1" />
    <linearGradient
       id="linear-gradient-4"
       x1="66.255386"
       y1="795.18823"
       x2="53.119389"
       y2="821.72821"
       gradientTransform="translate(-4.18,-717.5477)"
       gradientUnits="userSpaceOnUse">
      <stop
         offset="0"
         stop-color="#134e0f"
         id="stop2924" />
      <stop
         offset="0.2097"
         stop-color="#357719"
         id="stop2926" />
      <stop
         offset="0.4804"
         stop-color="#5ca624"
         id="stop2928" />
      <stop
         offset="0.6158"
         stop-color="#6bb828"
         id="stop2930" />
    </linearGradient>
    <linearGradient
       id="linear-gradient-5"
       x1="9.8108397"
       y1="715.41821"
       x2="109.66595"
       y2="845.34546"
       gradientTransform="translate(-4.18,-717.5477)"
       gradientUnits="userSpaceOnUse">
      <stop
         offset="0.2397"
         stop-color="#4aba00"
         id="stop2933" />
      <stop
         offset="0.2683"
         stop-color="#49b802"
         id="stop2935" />
      <stop
         offset="1"
         stop-color="#2e7d32"
         id="stop2937" />
    </linearGradient>
    <linearGradient
       id="linear-gradient-6"
       x1="25.159719"
       y1="747.26978"
       x2="94.432716"
       y2="820.74475"
       gradientTransform="translate(-4.18,-717.5477)"
       gradientUnits="userSpaceOnUse">
      <stop
         offset="0.0169"
         stop-color="#c5e1a5"
         id="stop2940" />
      <stop
         offset="0.1983"
         stop-color="#c1dea1"
         id="stop2942" />
      <stop
         offset="0.3788"
         stop-color="#b6d595"
         id="stop2944" />
      <stop
         offset="0.5591"
         stop-color="#a3c781"
         id="stop2946" />
      <stop
         offset="0.7392"
         stop-color="#88b265"
         id="stop2948" />
      <stop
         offset="0.9176"
         stop-color="#669841"
         id="stop2950" />
      <stop
         offset="0.9969"
         stop-color="#558b2f"
         id="stop2952" />
    </linearGradient>
    <linearGradient
       inkscape:collect="always"
       xlink:href="#linear-gradient-1"
       id="linearGradient3088"
       gradientUnits="userSpaceOnUse"
       gradientTransform="rotate(14.57266,2375.9288,-345.54639)"
       x1="205.44579"
       y1="617.74463"
       x2="218.7858"
       y2="599.77856" />
  </defs>
  <g
     inkscape:label="Layer 1"
     inkscape:groupmode="layer"
     id="layer1">
    <path
       id="path2063"
       style="fill:#e6e6e6;fill-opacity:1;stroke:#666666;stroke-width:0.5;stroke-miterlimit:4;stroke-dasharray:none;stroke-opacity:1"
       inkscape:transform-center-x="0.09732696"
       inkscape:transform-center-y="0.62914546"
       d="m 184.97206,59.66754 -9.89056,7.91245 v -4.615587 l -21.66796,-1.8e-5 V 56.370674 H 175.0815 V 51.75509 Z"
       sodipodi:nodetypes="cccccccc" />
    <g
       id="g2911"
       transform="matrix(0.82537617,0,0,0.82537617,215.42472,9.6834729)">
      <path
         d="m 117.26,105.1223 a 7.34071,7.34071 0 0 0 -2.24,-2.97 7.07621,7.07621 0 0 0 -2.97,-1.4 7.36216,7.36216 0 0 0 -2.76,-0.04 7.73469,7.73469 0 0 0 -2,0.63 7.6412,7.6412 0 0 0 -1.16,0.69 c -0.25,0.19 -0.38,0.29 -0.38,0.29 a 0.39158,0.39158 0 0 0 -0.08,0.53 0.39908,0.39908 0 0 0 0.55537,0.10064 l 0.0146,-0.0106 c 0,0 0.12,-0.08 0.35,-0.24 a 7.17556,7.17556 0 0 1 1.06,-0.54 6.88043,6.88043 0 0 1 1.78,-0.45 6.22508,6.22508 0 0 1 2.32,0.17 5.7484,5.7484 0 0 1 2.39,1.3 5.86,5.86 0 0 1 1.65,2.48 5.67825,5.67825 0 0 1 0.11,3.12 8.77007,8.77007 0 0 1 -1.38,3.06 10.54,10.54 0 0 1 -10.76,4.34 c -0.19,-0.04 -0.38,-0.1 -0.57,-0.15 a 20.9746,20.9746 0 0 1 -3.32,-2.07 c -3.44,-2.68 -5.07,-7.05 -6.01,-11.3 -1.05,-4.76 -2.01,-9.35 -3.47,-14.01 -0.85,-2.71 -1.79,-5.4 -2.86,-8.04 -0.87,-2.15 -1.85,-4.32 -2.91,-6.47 a 76.26978,76.26978 0 0 0 -4.49,-7.97 c -0.35,-0.54 -0.73,-1.07 -1.1,-1.6 a 33.32,33.32 0 0 0 -0.48,-5.63 c -0.81,-4.68 0.1,-5.41 2.56,-5.71 2.18,-0.26 8.91,2.02 10.97,0.2 1.57,-1.38 1.53,-2.42 1.62,-4.38 0.13,-2.69 2.72,-3.41 4.07,-3.7 a 1.29146,1.29146 0 0 0 0.8,0.49 1.256,1.256 0 1 0 -1.04,-1.44 1.34222,1.34222 0 0 0 0.01,0.2 3.32291,3.32291 0 0 1 -2.61,-0.98 c -0.44,-0.68 1.85,-3.5 3.08,-4.98 a 1.46243,1.46243 0 0 0 0.51,0.22 1.256,1.256 0 1 0 -1.04,-1.44 1.24146,1.24146 0 0 0 0.07,0.61 c -1.14,1.13 -3.37,3.31 -3.98,3.18 -0.73,-0.16 -0.22,-4.84 0.05,-7.04 a 1.239,1.239 0 0 0 0.95,-1.02 1.2560255,1.2560255 0 1 0 -2.48,-0.4 1.24161,1.24161 0 0 0 0.73,1.32 c -0.49,2.21 -1.44,6.9 -1.99,7.03 -0.59,0.15 -1.42,-3.36 -1.93,-5.59 a 1.23005,1.23005 0 0 0 0.55,-0.84 1.256,1.256 0 1 0 -1.44,1.04 h 0.05 c 0.3,2.11 0.63,5.44 0.32,6 -0.37,0.66 -2.04,0.55 -3.19,0.37 a 1.2538,1.2538 0 1 0 -1.44,1.07 1.2225,1.2225 0 0 0 1.04,-0.34 c 1.69,0.74 3.55,1.61 3.99,3.07 a 2.1831,2.1831 0 0 1 -1.32,2.74 c 0,0 -9.33,-0.36 -12.43,0.53 -2.11,0.6 -2.12,4.87 -1.96,8.21 -0.5,-0.5 -0.99,-1.02 -1.51,-1.49 a 43.43973,43.43973 0 0 0 -4.06,-3.25 41.03625,41.03625 0 0 0 -9.93,-5.24 31.977,31.977 0 0 0 -6.39,-1.6 c -0.89,-0.13 -1.8,-0.27 -2.72,-0.43 a 10.83827,10.83827 0 0 0 1.08,-5.35 c -0.09,-3.7 -1.46,-9.8 0.06,-12.69 a 14.85193,14.85193 0 0 1 3.68,-4.23 1.1887,1.1887 0 0 0 0.63,0.32 1.256,1.256 0 1 0 -1.04,-1.44 1.18219,1.18219 0 0 0 0.13,0.72 c -1.12,0.91 -2.61,1.68 -3.32,1.12 -0.8,-0.62 0.64,-3.47 1.42,-4.99 a 1.06663,1.06663 0 0 0 0.19,0.07 1.256,1.256 0 1 0 -1.04,-1.44 1.22932,1.22932 0 0 0 0.39,1.09 c -0.71,1.61 -2.11,4.59 -2.97,4.04 -0.54,-0.35 -0.13,-4.05 -0.29,-6.33 a 1.2335,1.2335 0 0 0 0.73,-0.92 1.256,1.256 0 1 0 -1.44,1.04 c 0.06,1.89 0.05,5.99 -0.92,6.35 -0.91,0.34 -2.37,-1.9 -3.76,-4.41 a 1.19547,1.19547 0 0 0 0.32,-0.62 1.256,1.256 0 1 0 -1.44,1.04 1.2,1.2 0 0 0 0.5,-0.02 c 0.85,1.4 2.89,4.88 2.13,5.87 -0.35,0.46 -2.24,0.39 -3.79,0.37 a 1.23348,1.23348 0 0 0 -1.02,-0.99 1.2561,1.2561 0 1 0 0.88,1.86 c 1.64,0.62 3.78,1.71 4.41,2.86 1.36,2.45 3.57,10.91 -0.64,13.38 a 20.2404,20.2404 0 0 1 -2.74,1.33 14.84065,14.84065 0 0 1 -6.21,-3.65 7.45312,7.45312 0 0 1 -2.18,-6 c 0.26,-2.81 0.72,-5.37 0.22,-8.48 a 19.35656,19.35656 0 0 0 -1.29,-4.46 c -0.09,-0.22 -0.23,-0.46 -0.35,-0.7 -1.42,-2.74 -4.79,-6.62 -8.2,-10.07 -3.85,-3.89 -7.75,-7.23 -8.97,-7.72 A 3.1333,3.1333 0 0 0 9.44916,3.79869 L 9.42,3.8623 c -0.87,1.04 -1.98,4.14 -2.84,8.04 -1.18,5.35 -1.89,12.22 -0.86,17.46 1.62,8.21 6.4,11.68 9.02,13.66 1.94,1.47 2.29,2.29 5.45,5.25 1.81,1.69 3.21,8.21 4.37,10.46 0.59,1.15 1.23,2.31 1.93,3.46 l -0.17,2.65 c 0,0 -0.2,5.34 -1.27,7.47 a 8.28361,8.28361 0 0 1 -2.14,2.9 c 0,0 -3.66,-5.41 -3.05,-9.52 a 36.15364,36.15364 0 0 1 0.72,-3.74 1.24072,1.24072 0 0 0 1.06,-1.03 1.2560255,1.2560255 0 0 0 -2.48,-0.4 1.22729,1.22729 0 0 0 0.69,1.3 c -0.23,1.18 -0.63,2.81 -1.61,2.78 -1.24,-0.04 -2.98,-4.9 -3.73,-7.1 a 1.2244,1.2244 0 1 0 -0.77,0.15 c 0.04,0.01 0.07,-0.01 0.1,0 0.8,2 2.62,6.42 1.73,6.89 -0.83,0.44 -4.02,-3.34 -5.81,-5.4 a 1.3364,1.3364 0 1 0 -0.67,0.5 c 1.44,1.48 5.46,5.77 4.83,6.69 -0.55,0.81 -3.68,-0.11 -5.59,-0.85 a 1.2412,1.2412 0 0 0 -1.03,-1.26 1.2561,1.2561 0 1 0 0.82,1.95 c 1.84,0.63 5.29,1.65 5.14,2.64 -0.13,0.89 -1.24,0.96 -2.64,1.4 a 1.245,1.245 0 1 0 0.21,0.9 v -0.06 c 1.56,-0.38 4.34,-0.82 5.9,0.9 1.96,2.15 5.83,10.96 7.89,9.96 1.8,-0.87 6.14,-10.1 8.14,-12.44 a 30.93132,30.93132 0 0 0 6.98,3.99 46.67842,46.67842 0 0 0 5.33,1.85 c 2.18,0.63 4.4,1.14 6.62,1.62 1.62,0.36 3.36,0.7 5.13,1.1 -2.26,1.27 -7.62,4.36 -8.89,5.79 -1.63,1.83 -0.61,3.05 0.71,4.07 0.83,0.64 0.37,0.7 9.25,3.66 a 8.30519,8.30519 0 0 1 -3.66,0.71 c -1.51,0 -3.45,-1 -4.72,-1.68 0,-0.02 0.01,-0.03 0.02,-0.05 a 1.256,1.256 0 1 0 -1.44,1.04 1.23679,1.23679 0 0 0 1,-0.29 c 1.28,0.66 3.83,1.79 2.7,2.4 -1.07,0.57 -5.65,0.71 -8.09,1.24 a 1.23377,1.23377 0 0 0 -0.85,-0.58 1.2560255,1.2560255 0 0 0 -0.4,2.48 1.23582,1.23582 0 0 0 1.37,-0.87 c 1.59,-0.15 7.39,-0.57 7.76,0.17 0.34,0.67 -4.9,3.63 -7.32,5.65 a 1.70237,1.70237 0 0 0 -0.24,-0.09 1.256,1.256 0 1 0 1.04,1.44 1.14542,1.14542 0 0 0 -0.02,-0.49 c 1.65,-1.18 7.87,-5.3 8.79,-4.56 0.82,0.65 -1.35,5.78 -2.41,8.49 a 1.2479,1.2479 0 1 0 1.38,1.43 1.22931,1.22931 0 0 0 -0.39,-1.09 c 0.94,-1.89 4.07,-7.99 4.71,-7.89 0.59,0.09 0.45,4.46 0.45,6.03 a 1.24275,1.24275 0 0 0 -0.56,0.84 1.256,1.256 0 1 0 1.44,-1.04 h -0.06 c 0.42,-2.85 0.96,-7.39 1.42,-7.7 0.61,-0.41 6.51,-3.35 6.2,-5.39 -0.31,-2.03 -4.78,-4.27 -7.93,-5.18 -3.15,-0.91 8.54,2.54 11.39,-1.73 0.39,-0.58 0.72,-1.08 1.03,-1.53 a 15.0413,15.0413 0 0 1 2.38,2.13 36.35987,36.35987 0 0 1 5.71,8.44 71.90721,71.90721 0 0 0 4.64,9.19 47.62685,47.62685 0 0 0 8.42,9.72 37.26341,37.26341 0 0 0 5.12,3.91 16.32878,16.32878 0 0 0 9.82,2.36 c 0.3,-0.03 0.6,-0.07 0.9,-0.13 l 0.23,-0.04 0.24,-0.05 0.41,-0.1 a 13.73926,13.73926 0 0 0 1.84,-0.63 13.04675,13.04675 0 0 0 5.98,-5.19 10.6032,10.6032 0 0 0 1.43,-3.81 7.12005,7.12005 0 0 0 -0.36,-3.99 z"
         transform="translate(0,-0.00188)"
         style="fill:#ff0000;stroke:#2e7d32;stroke-width:4px;stroke-linecap:round;stroke-linejoin:round"
         id="path2798" />
      <path
         d="m 40.73,18.1523 c 0.3,0.52 3.37,5.25 2.46,6.43 -0.47,0.61 -3.62,0.28 -5.12,0.39 a 0.2238,0.2238 0 0 0 -0.04,0.44 c 1.53,0.4 4.83,1.79 5.64,3.26 1.36,2.45 3.57,10.91 -0.64,13.38 a 25.59987,25.59987 0 0 1 -9.08,3 l -0.87,3.76 7.16,1.13 7.73,-4.29 a 10.11168,10.11168 0 0 0 1.26,-5.66 c -0.09,-3.7 -1.46,-9.8 0.06,-12.69 1.46,-2.79 4.33,-4.63 4.55,-5.01 0.22,-0.37 -0.2,-0.51 -0.41,-0.28 -1.08,1.12 -3.18,2.49 -4.07,1.8 -1.01,-0.78 1.59,-5.18 1.85,-5.87 0.26,-0.69 -0.19,-0.96 -0.49,-0.32 -0.3,0.64 -2.28,5.66 -3.37,4.95 -0.65,-0.42 0.07,-5.64 -0.46,-7.48 -0.29,-1.02 -0.61,-0.18 -0.58,0.36 0.03,0.54 0.33,6.82 -0.88,7.26 -0.96,0.36 -2.52,-2.15 -3.98,-4.81 -0.62,-1.14 -1.27,-0.73 -0.72,0.25 z"
         transform="translate(0,-0.00188)"
         style="fill:#ff0007"
         id="path2800" />
      <path
         d="m 26.01,64.8623 c 0,0 -0.2,5.34 -1.27,7.47 a 8.28365,8.28365 0 0 1 -2.14,2.9 c 0,0 -3.66,-5.41 -3.05,-9.52 a 23.57045,23.57045 0 0 1 1.03,-4.74 c 0.19,-0.58 -0.57,-0.8 -0.8,-0.19 -0.24,0.61 -0.47,3.9 -1.84,3.85 -1.5,-0.05 -3.76,-7.24 -4.06,-8.08 -0.3,-0.84 -0.92,-0.57 -0.68,0.23 0.24,0.8 3.15,7.2 2.07,7.78 -0.94,0.5 -4.91,-4.43 -6.45,-6.11 -0.47,-0.52 -1.3,-0.18 -0.54,0.71 0,0 6.1,6.09 5.34,7.2 -0.66,0.96 -5,-0.53 -6.56,-1.25 -0.51,-0.24 -0.95,0.15 -0.32,0.64 0.63,0.5 6.4,1.81 6.21,3.09 -0.15,0.99 -1.52,0.96 -3.17,1.58 -1.07,0.4 -1.18,1.15 -0.2,0.9 0.98,-0.25 4.87,-1.5 6.83,0.66 1.96,2.16 5.83,10.96 7.89,9.96 2.06,-1 7.46,-12.96 8.84,-12.98 0.94,-0.01 -6.73,-10.5 -6.73,-10.5 z"
         transform="translate(0,-0.00188)"
         style="fill:#ff0000"
         id="path2802" />
      <path
         d="m 69.46,61.4423 c 0,0 3.35,1.73 3.46,-0.51 0.1,-2.24 -1.26,-10.9 1.8,-11.77 3.1,-0.89 12.43,-0.53 12.43,-0.53 a 2.1831,2.1831 0 0 0 1.32,-2.74 c -0.5,-1.67 -2.84,-2.56 -4.67,-3.37 -0.4,-0.18 -0.55,-0.82 0.08,-0.63 0.63,0.19 3.67,0.75 4.18,-0.16 0.42,-0.76 -0.33,-6.61 -0.6,-7.62 -0.27,-1.01 0.47,-1.11 0.71,-0.3 0.25,0.81 1.51,7.51 2.32,7.3 0.68,-0.17 2.01,-7.43 2.25,-8.12 0.25,-0.69 0.71,-0.54 0.66,0.1 -0.05,0.64 -1.09,7.92 -0.17,8.12 0.72,0.16 3.76,-2.98 4.5,-3.69 0.74,-0.71 1.03,-0.25 0.66,0.25 -0.37,0.49 -4.38,4.98 -3.81,5.86 0.54,0.84 2.39,1.18 3.32,0.89 0.93,-0.3 0.64,0.45 0.3,0.66 -0.34,0.22 -4.67,0.39 -4.85,3.89 -0.1,1.96 -0.05,3 -1.62,4.38 -2.07,1.82 -8.79,-0.46 -10.97,-0.2 -2.46,0.3 -3.37,1.03 -2.56,5.71 0.81,4.68 0.7,10.86 -1.23,12.89 -1.93,2.03 -2.54,1.8 -2.54,1.8 z"
         transform="translate(0,-0.00188)"
         style="fill:#ff0000"
         id="path2804" />
      <path
         d="m 57.51,77.4823 c 0,0 -8.29,4.53 -9.91,6.36 -1.62,1.83 -0.61,3.05 0.71,4.07 0.83,0.64 0.37,0.7 9.25,3.66 a 8.30519,8.30519 0 0 1 -3.66,0.71 c -1.75,0 -4.09,-1.35 -5.27,-1.98 -1.18,-0.63 -1.22,0.15 -0.41,0.7 0.81,0.55 4.55,1.99 3.23,2.7 -1.11,0.6 -6.02,0.72 -8.37,1.3 -1.48,0.37 -0.73,1.09 0.07,1 0.81,-0.1 7.69,-0.67 8.09,0.14 0.35,0.7 -5.35,3.88 -7.61,5.9 -1.37,1.22 0.07,1.4 0.7,0.89 0.63,-0.52 8.15,-5.66 9.17,-4.84 0.85,0.68 -1.56,6.29 -2.55,8.86 -0.55,1.44 0.59,1.11 0.89,0.48 0.3,-0.63 4.24,-8.52 4.97,-8.41 0.64,0.1 0.42,5.24 0.45,6.37 0.03,1.13 0.63,0.71 0.73,0.06 0.42,-2.76 1.01,-7.97 1.5,-8.3 0.61,-0.41 6.51,-3.35 6.2,-5.39 -0.3,-2.03 -4.78,-4.27 -7.93,-5.18 -3.15,-0.91 8.54,2.54 11.39,-1.73 2.85,-4.27 3.35,-4.88 3.35,-4.88 z"
         transform="translate(0,-0.00188)"
         style="fill:#ff0000"
         id="path2806" />
      <circle
         cx="87.889999"
         cy="34.480419"
         r="1.25"
         style="fill:#ff0000"
         id="circle2808" />
      <circle
         cx="40.759998"
         cy="17.490419"
         r="1.25"
         style="fill:#ff0007"
         id="circle2810" />
      <circle
         cx="8.3900003"
         cy="58.480419"
         r="1.25"
         style="fill:#ff0000"
         id="circle2812" />
      <circle
         cx="6.77"
         cy="65.480423"
         r="1.25"
         style="fill:#ff0000"
         id="circle2814" />
      <circle
         cx="9.2600002"
         cy="70.93042"
         r="1.25"
         style="fill:#ff0000"
         id="circle2816" />
      <circle
         cx="47.970001"
         cy="90.350418"
         r="1.25"
         style="fill:#ff0000"
         id="circle2818" />
      <circle
         cx="42.32"
         cy="95.600418"
         r="1.25"
         style="fill:#ff0000"
         id="circle2820" />
      <circle
         cx="43.5"
         cy="102.95042"
         r="1.25"
         style="fill:#ff0000"
         id="circle2822" />
      <circle
         cx="51.25"
         cy="107.80042"
         r="1.25"
         style="fill:#ff0000"
         id="circle2824" />
      <circle
         cx="57.939999"
         cy="106.09042"
         r="1.25"
         style="fill:#ff0000"
         id="circle2826" />
      <circle
         cx="20.08"
         cy="60.740421"
         r="1.25"
         style="fill:#ff0000"
         id="circle2828" />
      <circle
         cx="46.549999"
         cy="15.13042"
         r="1.25"
         style="fill:#ff0007"
         id="circle2830" />
      <circle
         cx="51.18"
         cy="17.660419"
         r="1.25"
         style="fill:#ff0007"
         id="circle2832" />
      <circle
         cx="53.799999"
         cy="22.17042"
         r="1.25"
         style="fill:#ff0007"
         id="circle2834" />
      <circle
         cx="38.189999"
         cy="25.20042"
         r="1.25"
         style="fill:#ff0007"
         id="circle2836" />
      <circle
         cx="13.62"
         cy="56.43042"
         r="1.25"
         style="fill:#ff0000"
         id="circle2838" />
      <circle
         cx="93.010002"
         cy="32.95042"
         r="1.25"
         style="fill:#ff0000"
         id="circle2840" />
      <circle
         cx="98.389999"
         cy="37.620419"
         r="1.25"
         style="fill:#ff0000"
         id="circle2842" />
      <circle
         cx="98.440002"
         cy="44.61042"
         r="1.25"
         style="fill:#ff0000"
         id="circle2844" />
      <circle
         cx="83.629997"
         cy="41.910419"
         r="1.25"
         style="fill:#ff0000"
         id="circle2846" />
      <path
         d="m 116.91,105.1223 a 7.34071,7.34071 0 0 0 -2.24,-2.97 7.07632,7.07632 0 0 0 -2.97,-1.4 7.36216,7.36216 0 0 0 -2.76,-0.04 7.73457,7.73457 0 0 0 -2,0.63 7.64129,7.64129 0 0 0 -1.16,0.69 c -0.25,0.19 -0.38,0.29 -0.38,0.29 a 0.3916,0.3916 0 0 0 -0.08,0.53 0.39909,0.39909 0 0 0 0.55537,0.10064 l 0.0146,-0.0106 c 0,0 0.12,-0.08 0.35,-0.24 a 7.17566,7.17566 0 0 1 1.06,-0.54 6.88033,6.88033 0 0 1 1.78,-0.45 6.22511,6.22511 0 0 1 2.32,0.17 5.74846,5.74846 0 0 1 2.39,1.3 5.86,5.86 0 0 1 1.65,2.48 5.67844,5.67844 0 0 1 0.11,3.12 8.77009,8.77009 0 0 1 -1.38,3.06 10.54,10.54 0 0 1 -10.76,4.34 c -0.19,-0.04 -0.38,-0.1 -0.57,-0.15 a 20.97505,20.97505 0 0 1 -3.32,-2.07 c -3.44,-2.68 -5.07,-7.05 -6.01,-11.3 -1.05,-4.76 -2.01,-9.35 -3.47,-14.01 -0.85,-2.71 -1.79,-5.4 -2.86,-8.04 -0.87,-2.15 -1.85,-4.32 -2.91,-6.47 a 76.26978,76.26978 0 0 0 -4.49,-7.97 52.01279,52.01279 0 0 0 -8.54,-10.3 43.43634,43.43634 0 0 0 -4.06,-3.25 41.03592,41.03592 0 0 0 -9.93,-5.24 31.97651,31.97651 0 0 0 -6.39,-1.6 59.65623,59.65623 0 0 1 -10.05,-2.21 15.45607,15.45607 0 0 1 -6.75,-3.84 7.45307,7.45307 0 0 1 -2.18,-6 c 0.26,-2.81 0.72,-5.37 0.22,-8.48 a 19.35705,19.35705 0 0 0 -1.29,-4.46 c -0.09,-0.22 -0.23,-0.46 -0.35,-0.7 -1.42,-2.74 -4.79,-6.62 -8.2,-10.07 1.81,4.83 2.21,9.9 -0.32,14.98 0,1.05 -3.15,3.15 -6.3,2.1 -6.42,-2.57 -8.91,-8.68 -9.4,-15.19 -1.18,5.35 -1.89,12.22 -0.86,17.46 1.62,8.21 6.4,11.68 9.02,13.66 1.94,1.47 2.29,2.29 5.45,5.25 1.81,1.69 3.21,8.21 4.37,10.46 a 36.068,36.068 0 0 0 6.16,9.02 c 0.38,0.38 0.77,0.74 1.18,1.08 a 30.15936,30.15936 0 0 0 7.83,4.64 46.67909,46.67909 0 0 0 5.33,1.85 c 2.18,0.63 4.4,1.14 6.62,1.62 2.1,0.46 4.39,0.91 6.71,1.45 a 39.16365,39.16365 0 0 1 9.99,3.55 17.13265,17.13265 0 0 1 4.5,3.5 36.36014,36.36014 0 0 1 5.71,8.44 71.90787,71.90787 0 0 0 4.64,9.19 47.62715,47.62715 0 0 0 8.42,9.72 37.26315,37.26315 0 0 0 5.12,3.91 16.32871,16.32871 0 0 0 9.82,2.36 c 0.3,-0.03 0.6,-0.07 0.9,-0.13 l 0.23,-0.04 0.24,-0.05 0.41,-0.1 a 13.73939,13.73939 0 0 0 1.84,-0.63 13.04677,13.04677 0 0 0 5.98,-5.19 10.6032,10.6032 0 0 0 1.43,-3.81 7.239,7.239 0 0 0 -0.37,-4 z"
         transform="translate(0,-0.00188)"
         style="fill:#ff0000"
         id="path2848" />
      <path
         d="m 15.66,27.1023 c 3.15,1.05 6.3,-1.05 6.3,-2.1 2.54,-5.07 2.13,-10.14 0.32,-14.98 -3.85,-3.89 -7.75,-7.23 -8.97,-7.72 A 3.13331,3.13331 0 0 0 9.13915,3.79869 L 9.11,3.8623 c -0.87,1.04 -1.98,4.14 -2.84,8.04 0.48,6.53 2.97,12.63 9.39,15.2 z"
         transform="translate(0,-0.00188)"
         style="fill:#fc3d3d"
         id="path2850" />
      <path
         d="m 6.26,27.7523 a 5.58,5.58 0 1 1 5.58,-5.58 5.58,5.58 0 0 1 -5.58,5.58 z"
         transform="translate(0,-0.00188)"
         style="fill:#ffffff"
         id="path2852" />
      <path
         d="m 6.26,17.2723 a 4.9,4.9 0 1 1 -4.9,4.9 v 0 a 4.8951,4.8951 0 0 1 4.8902,-4.9 H 6.26 m 0,-1.37 a 6.26,6.26 0 1 0 6.26,6.26 6.26,6.26 0 0 0 -6.26,-6.26 z"
         transform="translate(0,-0.00188)"
         style="fill:#b3b3b3"
         id="path2854" />
      <circle
         cx="4.9099998"
         cy="19.87042"
         r="2.3900001"
         id="circle2856" />
      <path
         d="m 25.34,20.2023 a 5.58,5.58 0 1 1 5.58,-5.58 v 0 a 5.58219,5.58219 0 0 1 -5.58,5.58 z"
         transform="translate(0,-0.00188)"
         style="fill:#ffffff"
         id="path2858" />
      <path
         d="m 25.33,9.7223 a 4.9,4.9 0 1 1 -4.9,4.9 v 0 a 4.8951,4.8951 0 0 1 4.8902,-4.9 H 25.33 m 0,-1.36 a 6.26,6.26 0 1 0 6.26,6.26 6.26,6.26 0 0 0 -6.26,-6.26 z"
         transform="translate(0,-0.00188)"
         style="fill:#b3b3b3"
         id="path2860" />
      <circle
         cx="25.639999"
         cy="12.22042"
         r="2.3900001"
         id="circle2862" />
      <path
         d="m 22.59,32.1823 c 0,0 0.11,0.4 0.33,1.14 0.21,0.78 0.54,1.74 0.99,3.02 a 27.18725,27.18725 0 0 0 1.99,4.36 24.112,24.112 0 0 0 3.72,4.83 53.85567,53.85567 0 0 0 5.79,4.92 c 1.09,0.82 2.29,1.74 3.43,2.51 l 0.92,0.64 0.89,0.56 c 0.58,0.38 1.2,0.75 1.86,1.12 a 92.4939,92.4939 0 0 0 8.27,4.19 c 2.92,1.32 5.95,2.62 8.97,4.05 a 86.32144,86.32144 0 0 1 8.9,4.74 l 0.54,0.33 0.3,0.19 0.25,0.17 c 0.34,0.24 0.65,0.43 1.01,0.71 0.72,0.53 1.38,1.06 2.03,1.6 a 36.32993,36.32993 0 0 1 3.54,3.47 51.25677,51.25677 0 0 1 8.92,14.87 75.52409,75.52409 0 0 1 3.54,11.55 c 0.32,1.42 0.52,2.54 0.65,3.3 0.13,0.77 0.2,1.17 0.2,1.17 a 0.1769,0.1769 0 0 1 -0.14,0.2 0.18809,0.18809 0 0 1 -0.19,-0.11 c 0,0 -0.54,-1.56 -1.56,-4.25 a 98.81,98.81 0 0 0 -4.81,-10.8 61.36158,61.36158 0 0 0 -3.99,-6.7 45.38414,45.38414 0 0 0 -5.4,-6.62 32.20223,32.20223 0 0 0 -3.31,-2.96 c -0.59,-0.46 -1.2,-0.9 -1.8,-1.29 -0.28,-0.2 -0.66,-0.42 -0.99,-0.63 l -0.26,-0.16 -0.22,-0.13 -0.51,-0.29 a 78.54816,78.54816 0 0 0 -8.57,-4.25 c -5.96,-2.57 -12.2,-4.96 -17.81,-8.12 -0.7,-0.38 -1.39,-0.8 -2.08,-1.24 l -1.02,-0.65 -0.92,-0.64 c -1.32,-0.9 -2.43,-1.75 -3.61,-2.62 a 51.38462,51.38462 0 0 1 -6.3,-5.46 26.55674,26.55674 0 0 1 -4.31,-5.94 31.30777,31.30777 0 0 1 -2.16,-5.16 c -0.47,-1.45 -0.76,-2.67 -0.92,-3.39 -0.17,-0.75 -0.26,-1.16 -0.26,-1.16 a 2.12059,2.12059 0 0 1 4.1,-1.07 z"
         transform="translate(0,-0.00188)"
         style="fill:url(#linear-gradient)"
         id="path2864" />
    </g>
    <g
       id="g3086"
       transform="matrix(0.82537617,0,0,0.82537617,24.267584,9.6834705)">
      <path
         d="m 117.26,105.1223 a 7.34071,7.34071 0 0 0 -2.24,-2.97 7.07615,7.07615 0 0 0 -2.97,-1.4 7.36216,7.36216 0 0 0 -2.76,-0.04 7.73469,7.73469 0 0 0 -2,0.63 7.6412,7.6412 0 0 0 -1.16,0.69 c -0.25,0.19 -0.38,0.29 -0.38,0.29 a 0.3916,0.3916 0 0 0 -0.08,0.53 0.39908,0.39908 0 0 0 0.55537,0.10064 l 0.0146,-0.0106 c 0,0 0.12,-0.08 0.35,-0.24 a 7.17556,7.17556 0 0 1 1.06,-0.54 6.88043,6.88043 0 0 1 1.78,-0.45 6.22549,6.22549 0 0 1 2.32,0.17 5.74834,5.74834 0 0 1 2.39,1.3 5.8594,5.8594 0 0 1 1.65,2.48 5.67825,5.67825 0 0 1 0.11,3.12 8.76962,8.76962 0 0 1 -1.38,3.06 10.53956,10.53956 0 0 1 -10.76,4.34 c -0.19,-0.04 -0.38,-0.1 -0.57,-0.15 a 20.97224,20.97224 0 0 1 -3.32,-2.07 c -3.44,-2.68 -5.07,-7.05 -6.01,-11.3 -1.05,-4.76 -2.01,-9.35 -3.47,-14.01 -0.85,-2.71 -1.79,-5.4 -2.86,-8.04 -0.87,-2.15 -1.85,-4.32 -2.91,-6.47 a 76.26978,76.26978 0 0 0 -4.49,-7.97 c -0.35,-0.54 -0.73,-1.07 -1.1,-1.6 a 33.32,33.32 0 0 0 -0.48,-5.63 c -0.81,-4.68 0.1,-5.41 2.56,-5.71 2.18,-0.26 8.91,2.02 10.97,0.2 1.57,-1.38 1.53,-2.42 1.62,-4.38 0.13,-2.69 2.72,-3.41 4.07,-3.7 a 1.29142,1.29142 0 0 0 0.8,0.49 1.256,1.256 0 1 0 -1.04,-1.44 1.34222,1.34222 0 0 0 0.01,0.2 3.32294,3.32294 0 0 1 -2.61,-0.98 c -0.44,-0.68 1.85,-3.5 3.08,-4.98 a 1.46243,1.46243 0 0 0 0.51,0.22 1.256,1.256 0 1 0 -1.04,-1.44 1.24135,1.24135 0 0 0 0.07,0.61 c -1.14,1.13 -3.37,3.31 -3.98,3.18 -0.73,-0.16 -0.22,-4.84 0.05,-7.04 a 1.239,1.239 0 0 0 0.95,-1.02 1.2560255,1.2560255 0 1 0 -2.48,-0.4 1.24158,1.24158 0 0 0 0.73,1.32 c -0.49,2.21 -1.44,6.9 -1.99,7.03 -0.59,0.15 -1.42,-3.36 -1.93,-5.59 a 1.23026,1.23026 0 0 0 0.55,-0.84 1.256,1.256 0 1 0 -1.44,1.04 h 0.05 c 0.3,2.11 0.63,5.44 0.32,6 -0.37,0.66 -2.04,0.55 -3.19,0.37 a 1.25384,1.25384 0 1 0 -1.44,1.07 1.22253,1.22253 0 0 0 1.04,-0.34 c 1.69,0.74 3.55,1.61 3.99,3.07 a 2.18314,2.18314 0 0 1 -1.32,2.74 c 0,0 -9.33,-0.36 -12.43,0.53 -2.11,0.6 -2.12,4.87 -1.96,8.21 -0.5,-0.5 -0.99,-1.02 -1.51,-1.49 a 43.43973,43.43973 0 0 0 -4.06,-3.25 41.03625,41.03625 0 0 0 -9.93,-5.24 31.977,31.977 0 0 0 -6.39,-1.6 c -0.89,-0.13 -1.8,-0.27 -2.72,-0.43 a 10.83825,10.83825 0 0 0 1.08,-5.35 c -0.09,-3.7 -1.46,-9.8 0.06,-12.69 a 14.85193,14.85193 0 0 1 3.68,-4.23 1.18863,1.18863 0 0 0 0.63,0.32 1.256,1.256 0 1 0 -1.04,-1.44 1.18212,1.18212 0 0 0 0.13,0.72 c -1.12,0.91 -2.61,1.68 -3.32,1.12 -0.8,-0.62 0.64,-3.47 1.42,-4.99 a 1.06585,1.06585 0 0 0 0.19,0.07 1.256,1.256 0 1 0 -1.04,-1.44 1.22933,1.22933 0 0 0 0.39,1.09 c -0.71,1.61 -2.11,4.59 -2.97,4.04 -0.54,-0.35 -0.13,-4.05 -0.29,-6.33 a 1.2335,1.2335 0 0 0 0.73,-0.92 1.256,1.256 0 1 0 -1.44,1.04 c 0.06,1.89 0.05,5.99 -0.92,6.35 -0.91,0.34 -2.37,-1.9 -3.76,-4.41 a 1.19543,1.19543 0 0 0 0.32,-0.62 1.256,1.256 0 1 0 -1.44,1.04 1.19936,1.19936 0 0 0 0.5,-0.02 c 0.85,1.4 2.89,4.88 2.13,5.87 -0.35,0.46 -2.24,0.39 -3.79,0.37 a 1.23347,1.23347 0 0 0 -1.02,-0.99 1.25608,1.25608 0 1 0 0.88,1.86 c 1.64,0.62 3.78,1.71 4.41,2.86 1.36,2.45 3.57,10.91 -0.64,13.38 a 20.2404,20.2404 0 0 1 -2.74,1.33 14.84065,14.84065 0 0 1 -6.21,-3.65 7.45313,7.45313 0 0 1 -2.18,-6 c 0.26,-2.81 0.72,-5.37 0.22,-8.48 a 19.35656,19.35656 0 0 0 -1.29,-4.46 c -0.09,-0.22 -0.23,-0.46 -0.35,-0.7 -1.42,-2.74 -4.79,-6.62 -8.2,-10.07 -3.85,-3.89 -7.75,-7.23 -8.97,-7.72 A 3.13326,3.13326 0 0 0 9.44918,3.79864 L 9.42,3.8623 c -0.87,1.04 -1.98,4.14 -2.84,8.04 -1.18,5.35 -1.89,12.22 -0.86,17.46 1.62,8.21 6.4,11.68 9.02,13.66 1.94,1.47 2.29,2.29 5.45,5.25 1.81,1.69 3.21,8.21 4.37,10.46 0.59,1.15 1.23,2.31 1.93,3.46 l -0.17,2.65 c 0,0 -0.2,5.34 -1.27,7.47 a 8.28361,8.28361 0 0 1 -2.14,2.9 c 0,0 -3.66,-5.41 -3.05,-9.52 a 36.15731,36.15731 0 0 1 0.72,-3.74 1.24069,1.24069 0 0 0 1.06,-1.03 1.2560255,1.2560255 0 0 0 -2.48,-0.4 1.22736,1.22736 0 0 0 0.69,1.3 c -0.23,1.18 -0.63,2.81 -1.61,2.78 -1.24,-0.04 -2.98,-4.9 -3.73,-7.1 a 1.22438,1.22438 0 1 0 -0.77,0.15 c 0.04,0.01 0.07,-0.01 0.1,0 0.8,2 2.62,6.42 1.73,6.89 -0.83,0.44 -4.02,-3.34 -5.81,-5.4 a 1.33645,1.33645 0 1 0 -0.67,0.5 c 1.44,1.48 5.46,5.77 4.83,6.69 -0.55,0.81 -3.68,-0.11 -5.59,-0.85 a 1.24117,1.24117 0 0 0 -1.03,-1.26 1.25612,1.25612 0 1 0 0.82,1.95 c 1.84,0.63 5.29,1.65 5.14,2.64 -0.13,0.89 -1.24,0.96 -2.64,1.4 a 1.245,1.245 0 1 0 0.21,0.9 v -0.06 c 1.56,-0.38 4.34,-0.82 5.9,0.9 1.96,2.15 5.83,10.96 7.89,9.96 1.8,-0.87 6.14,-10.1 8.14,-12.44 a 30.93153,30.93153 0 0 0 6.98,3.99 46.68035,46.68035 0 0 0 5.33,1.85 c 2.18,0.63 4.4,1.14 6.62,1.62 1.62,0.36 3.36,0.7 5.13,1.1 -2.26,1.27 -7.62,4.36 -8.89,5.79 -1.63,1.83 -0.61,3.05 0.71,4.07 0.83,0.64 0.37,0.7 9.25,3.66 a 8.30519,8.30519 0 0 1 -3.66,0.71 c -1.51,0 -3.45,-1 -4.72,-1.68 0,-0.02 0.01,-0.03 0.02,-0.05 a 1.256,1.256 0 1 0 -1.44,1.04 1.23679,1.23679 0 0 0 1,-0.29 c 1.28,0.66 3.83,1.79 2.7,2.4 -1.07,0.57 -5.65,0.71 -8.09,1.24 a 1.23382,1.23382 0 0 0 -0.85,-0.58 1.2560255,1.2560255 0 0 0 -0.4,2.48 1.23584,1.23584 0 0 0 1.37,-0.87 c 1.59,-0.15 7.39,-0.57 7.76,0.17 0.34,0.67 -4.9,3.63 -7.32,5.65 a 1.7053,1.7053 0 0 0 -0.24,-0.09 1.256,1.256 0 1 0 1.04,1.44 1.14542,1.14542 0 0 0 -0.02,-0.49 c 1.65,-1.18 7.87,-5.3 8.79,-4.56 0.82,0.65 -1.35,5.78 -2.41,8.49 a 1.24795,1.24795 0 1 0 1.38,1.43 1.22931,1.22931 0 0 0 -0.39,-1.09 c 0.94,-1.89 4.07,-7.99 4.71,-7.89 0.59,0.09 0.45,4.46 0.45,6.03 a 1.24277,1.24277 0 0 0 -0.56,0.84 1.256,1.256 0 1 0 1.44,-1.04 h -0.06 c 0.42,-2.85 0.96,-7.39 1.42,-7.7 0.61,-0.41 6.51,-3.35 6.2,-5.39 -0.31,-2.03 -4.78,-4.27 -7.93,-5.18 -3.15,-0.91 8.54,2.54 11.39,-1.73 0.39,-0.58 0.72,-1.08 1.03,-1.53 a 15.04179,15.04179 0 0 1 2.38,2.13 36.35935,36.35935 0 0 1 5.71,8.44 71.90721,71.90721 0 0 0 4.64,9.19 47.62685,47.62685 0 0 0 8.42,9.72 37.26481,37.26481 0 0 0 5.12,3.91 16.32878,16.32878 0 0 0 9.82,2.36 c 0.3,-0.03 0.6,-0.07 0.9,-0.13 l 0.23,-0.04 0.24,-0.05 0.41,-0.1 a 13.73926,13.73926 0 0 0 1.84,-0.63 13.04664,13.04664 0 0 0 5.98,-5.19 10.6032,10.6032 0 0 0 1.43,-3.81 7.12015,7.12015 0 0 0 -0.36,-3.99 z"
         transform="translate(0,-0.00187)"
         style="fill:none;stroke:#2e7d32;stroke-width:4px;stroke-linecap:round;stroke-linejoin:round"
         id="path2957" />
      <path
         d="m 40.73,18.1523 c 0.3,0.52 3.37,5.25 2.46,6.43 -0.47,0.61 -3.62,0.28 -5.12,0.39 a 0.22377,0.22377 0 0 0 -0.04,0.44 c 1.53,0.4 4.83,1.79 5.64,3.26 1.36,2.45 3.57,10.91 -0.64,13.38 a 25.59967,25.59967 0 0 1 -9.08,3 l -0.87,3.76 7.16,1.13 7.73,-4.29 a 10.11168,10.11168 0 0 0 1.26,-5.66 c -0.09,-3.7 -1.46,-9.8 0.06,-12.69 1.46,-2.79 4.33,-4.63 4.55,-5.01 0.22,-0.37 -0.2,-0.51 -0.41,-0.28 -1.08,1.12 -3.18,2.49 -4.07,1.8 -1.01,-0.78 1.59,-5.18 1.85,-5.87 0.26,-0.69 -0.19,-0.96 -0.49,-0.32 -0.3,0.64 -2.28,5.66 -3.37,4.95 -0.65,-0.42 0.07,-5.64 -0.46,-7.48 -0.29,-1.02 -0.61,-0.18 -0.58,0.36 0.03,0.54 0.33,6.82 -0.88,7.26 -0.96,0.36 -2.52,-2.15 -3.98,-4.81 -0.62,-1.14 -1.27,-0.73 -0.72,0.25 z"
         transform="translate(0,-0.00187)"
         style="fill:url(#linearGradient3088)"
         id="path2959" />
      <path
         d="m 26.01,64.8623 c 0,0 -0.2,5.34 -1.27,7.47 a 8.28365,8.28365 0 0 1 -2.14,2.9 c 0,0 -3.66,-5.41 -3.05,-9.52 a 23.57045,23.57045 0 0 1 1.03,-4.74 c 0.19,-0.58 -0.57,-0.8 -0.8,-0.19 -0.24,0.61 -0.47,3.9 -1.84,3.85 -1.5,-0.05 -3.76,-7.24 -4.06,-8.08 -0.3,-0.84 -0.92,-0.57 -0.68,0.23 0.24,0.8 3.15,7.2 2.07,7.78 -0.94,0.5 -4.91,-4.43 -6.45,-6.11 -0.47,-0.52 -1.3,-0.18 -0.54,0.71 0,0 6.1,6.09 5.34,7.2 -0.66,0.96 -5,-0.53 -6.56,-1.25 -0.51,-0.24 -0.95,0.15 -0.32,0.64 0.63,0.5 6.4,1.81 6.21,3.09 -0.15,0.99 -1.52,0.96 -3.17,1.58 -1.07,0.4 -1.18,1.15 -0.2,0.9 0.98,-0.25 4.87,-1.5 6.83,0.66 1.96,2.16 5.83,10.96 7.89,9.96 2.06,-1 7.46,-12.96 8.84,-12.98 0.94,-0.01 -6.73,-10.5 -6.73,-10.5 z"
         transform="translate(0,-0.00187)"
         style="fill:url(#linear-gradient-2)"
         id="path2961" />
      <path
         d="m 69.46,61.4423 c 0,0 3.35,1.73 3.46,-0.51 0.1,-2.24 -1.26,-10.9 1.8,-11.77 3.1,-0.89 12.43,-0.53 12.43,-0.53 a 2.18315,2.18315 0 0 0 1.32,-2.74 c -0.5,-1.67 -2.84,-2.56 -4.67,-3.37 -0.4,-0.18 -0.55,-0.82 0.08,-0.63 0.63,0.19 3.67,0.75 4.18,-0.16 0.42,-0.76 -0.33,-6.61 -0.6,-7.62 -0.27,-1.01 0.47,-1.11 0.71,-0.3 0.25,0.81 1.51,7.51 2.32,7.3 0.68,-0.17 2.01,-7.43 2.25,-8.12 0.25,-0.69 0.71,-0.54 0.66,0.1 -0.05,0.64 -1.09,7.92 -0.17,8.12 0.72,0.16 3.76,-2.98 4.5,-3.69 0.74,-0.71 1.03,-0.25 0.66,0.25 -0.37,0.49 -4.38,4.98 -3.81,5.86 0.54,0.84 2.39,1.18 3.32,0.89 0.93,-0.3 0.64,0.45 0.3,0.66 -0.34,0.22 -4.67,0.39 -4.85,3.89 -0.1,1.96 -0.05,3 -1.62,4.38 -2.07,1.82 -8.79,-0.46 -10.97,-0.2 -2.46,0.3 -3.37,1.03 -2.56,5.71 0.81,4.68 0.7,10.86 -1.23,12.89 -1.93,2.03 -2.54,1.8 -2.54,1.8 z"
         transform="translate(0,-0.00187)"
         style="fill:url(#linear-gradient-3)"
         id="path2963" />
      <path
         d="m 57.51,77.4823 c 0,0 -8.29,4.53 -9.91,6.36 -1.62,1.83 -0.61,3.05 0.71,4.07 0.83,0.64 0.37,0.7 9.25,3.66 a 8.30519,8.30519 0 0 1 -3.66,0.71 c -1.75,0 -4.09,-1.35 -5.27,-1.98 -1.18,-0.63 -1.22,0.15 -0.41,0.7 0.81,0.55 4.55,1.99 3.23,2.7 -1.11,0.6 -6.02,0.72 -8.37,1.3 -1.48,0.37 -0.73,1.09 0.07,1 0.81,-0.1 7.69,-0.67 8.09,0.14 0.35,0.7 -5.35,3.88 -7.61,5.9 -1.37,1.22 0.07,1.4 0.7,0.89 0.63,-0.52 8.15,-5.66 9.17,-4.84 0.85,0.68 -1.56,6.29 -2.55,8.86 -0.55,1.44 0.59,1.11 0.89,0.48 0.3,-0.63 4.24,-8.52 4.97,-8.41 0.64,0.1 0.42,5.24 0.45,6.37 0.03,1.13 0.63,0.71 0.73,0.06 0.42,-2.76 1.01,-7.97 1.5,-8.3 0.61,-0.41 6.51,-3.35 6.2,-5.39 -0.3,-2.03 -4.78,-4.27 -7.93,-5.18 -3.15,-0.91 8.54,2.54 11.39,-1.73 2.85,-4.27 3.35,-4.88 3.35,-4.88 z"
         transform="translate(0,-0.00187)"
         style="fill:url(#linear-gradient-4)"
         id="path2965" />
      <circle
         cx="87.889999"
         cy="34.480419"
         r="1.25"
         style="fill:#6bb828"
         id="circle2967" />
      <circle
         cx="40.759998"
         cy="17.490431"
         r="1.25"
         style="fill:#6bb828"
         id="circle2969" />
      <circle
         cx="8.3900003"
         cy="58.480419"
         r="1.25"
         style="fill:#6bb828"
         id="circle2971" />
      <circle
         cx="6.77"
         cy="65.480423"
         r="1.25"
         style="fill:#6bb828"
         id="circle2973" />
      <circle
         cx="9.2600002"
         cy="70.930428"
         r="1.25"
         style="fill:#6bb828"
         id="circle2975" />
      <circle
         cx="47.970001"
         cy="90.350433"
         r="1.25"
         style="fill:#6bb828"
         id="circle2977" />
      <circle
         cx="42.32"
         cy="95.600433"
         r="1.25"
         style="fill:#6bb828"
         id="circle2979" />
      <circle
         cx="43.5"
         cy="102.95043"
         r="1.25"
         style="fill:#6bb828"
         id="circle2981" />
      <circle
         cx="51.25"
         cy="107.80042"
         r="1.25"
         style="fill:#6bb828"
         id="circle2983" />
      <circle
         cx="57.939999"
         cy="106.09043"
         r="1.25"
         style="fill:#6bb828"
         id="circle2985" />
      <circle
         cx="20.08"
         cy="60.740429"
         r="1.25"
         style="fill:#6bb828"
         id="circle2987" />
      <circle
         cx="46.549999"
         cy="15.13043"
         r="1.25"
         style="fill:#6bb828"
         id="circle2989" />
      <circle
         cx="51.18"
         cy="17.660431"
         r="1.25"
         style="fill:#6bb828"
         id="circle2991" />
      <circle
         cx="53.799999"
         cy="22.170429"
         r="1.25"
         style="fill:#6bb828"
         id="circle2993" />
      <circle
         cx="38.189999"
         cy="25.20043"
         r="1.25"
         style="fill:#6bb828"
         id="circle2995" />
      <circle
         cx="13.62"
         cy="56.430431"
         r="1.25"
         style="fill:#6bb828"
         id="circle2997" />
      <circle
         cx="93.010002"
         cy="32.950432"
         r="1.25"
         style="fill:#6bb828"
         id="circle2999" />
      <circle
         cx="98.389999"
         cy="37.620419"
         r="1.25"
         style="fill:#6bb828"
         id="circle3001" />
      <circle
         cx="98.440002"
         cy="44.610432"
         r="1.25"
         style="fill:#6bb828"
         id="circle3003" />
      <circle
         cx="83.629997"
         cy="41.910431"
         r="1.25"
         style="fill:#6bb828"
         id="circle3005" />
      <path
         d="m 116.91,105.1223 a 7.34071,7.34071 0 0 0 -2.24,-2.97 7.07632,7.07632 0 0 0 -2.97,-1.4 7.36216,7.36216 0 0 0 -2.76,-0.04 7.73457,7.73457 0 0 0 -2,0.63 7.64129,7.64129 0 0 0 -1.16,0.69 c -0.25,0.19 -0.38,0.29 -0.38,0.29 a 0.39161,0.39161 0 0 0 -0.08,0.53 0.39909,0.39909 0 0 0 0.55537,0.10064 l 0.0146,-0.0106 c 0,0 0.12,-0.08 0.35,-0.24 a 7.17566,7.17566 0 0 1 1.06,-0.54 6.87952,6.87952 0 0 1 1.78,-0.45 6.22552,6.22552 0 0 1 2.32,0.17 5.74846,5.74846 0 0 1 2.39,1.3 5.85958,5.85958 0 0 1 1.65,2.48 5.67863,5.67863 0 0 1 0.11,3.12 8.76983,8.76983 0 0 1 -1.38,3.06 10.53955,10.53955 0 0 1 -10.76,4.34 c -0.19,-0.04 -0.38,-0.1 -0.57,-0.15 a 20.97387,20.97387 0 0 1 -3.32,-2.07 c -3.44,-2.68 -5.07,-7.05 -6.01,-11.3 -1.05,-4.76 -2.01,-9.35 -3.47,-14.01 -0.85,-2.71 -1.79,-5.4 -2.86,-8.04 -0.87,-2.15 -1.85,-4.32 -2.91,-6.47 a 76.26616,76.26616 0 0 0 -4.49,-7.97 52.01216,52.01216 0 0 0 -8.54,-10.3 43.43634,43.43634 0 0 0 -4.06,-3.25 41.03662,41.03662 0 0 0 -9.93,-5.24 31.97651,31.97651 0 0 0 -6.39,-1.6 59.656,59.656 0 0 1 -10.05,-2.21 15.45607,15.45607 0 0 1 -6.75,-3.84 7.45313,7.45313 0 0 1 -2.18,-6 c 0.26,-2.81 0.72,-5.37 0.22,-8.48 a 19.35705,19.35705 0 0 0 -1.29,-4.46 c -0.09,-0.22 -0.23,-0.46 -0.35,-0.7 -1.42,-2.74 -4.79,-6.62 -8.2,-10.07 1.81,4.83 2.21,9.9 -0.32,14.98 0,1.05 -3.15,3.15 -6.3,2.1 -6.42,-2.57 -8.91,-8.68 -9.4,-15.19 -1.18,5.35 -1.89,12.22 -0.86,17.46 1.62,8.21 6.4,11.68 9.02,13.66 1.94,1.47 2.29,2.29 5.45,5.25 1.81,1.69 3.21,8.21 4.37,10.46 a 36.0677,36.0677 0 0 0 6.16,9.02 c 0.38,0.38 0.77,0.74 1.18,1.08 a 30.15936,30.15936 0 0 0 7.83,4.64 46.67648,46.67648 0 0 0 5.33,1.85 c 2.18,0.63 4.4,1.14 6.62,1.62 2.1,0.46 4.39,0.91 6.71,1.45 a 39.16365,39.16365 0 0 1 9.99,3.55 17.13265,17.13265 0 0 1 4.5,3.5 36.35962,36.35962 0 0 1 5.71,8.44 71.91113,71.91113 0 0 0 4.64,9.19 47.62715,47.62715 0 0 0 8.42,9.72 37.26315,37.26315 0 0 0 5.12,3.91 16.32871,16.32871 0 0 0 9.82,2.36 c 0.3,-0.03 0.6,-0.07 0.9,-0.13 l 0.23,-0.04 0.24,-0.05 0.41,-0.1 a 13.74221,13.74221 0 0 0 1.84,-0.63 13.04682,13.04682 0 0 0 5.98,-5.19 10.60339,10.60339 0 0 0 1.43,-3.81 7.239,7.239 0 0 0 -0.37,-4 z"
         transform="translate(0,-0.00187)"
         style="fill:url(#linear-gradient-5)"
         id="path3007" />
      <path
         d="m 15.66,27.1023 c 3.15,1.05 6.3,-1.05 6.3,-2.1 2.54,-5.07 2.13,-10.14 0.32,-14.98 -3.85,-3.89 -7.75,-7.23 -8.97,-7.72 A 3.13326,3.13326 0 0 0 9.13918,3.79864 L 9.11,3.8623 c -0.87,1.04 -1.98,4.14 -2.84,8.04 0.48,6.53 2.97,12.63 9.39,15.2 z"
         transform="translate(0,-0.00187)"
         style="fill:#aed581"
         id="path3009" />
      <path
         d="m 6.26,27.7523 a 5.58,5.58 0 1 1 5.58,-5.58 5.58,5.58 0 0 1 -5.58,5.58 z"
         transform="translate(0,-0.00187)"
         style="fill:#ffffff"
         id="path3011" />
      <path
         d="m 6.26,17.2723 a 4.9,4.9 0 1 1 -4.9,4.9 v 0 a 4.89514,4.89514 0 0 1 4.89028,-4.9 H 6.26 m 0,-1.37 a 6.26,6.26 0 1 0 6.26,6.26 6.26,6.26 0 0 0 -6.26,-6.26 z"
         transform="translate(0,-0.00187)"
         style="fill:#b3b3b3"
         id="path3013" />
      <circle
         cx="4.9099998"
         cy="19.87043"
         r="2.3900001"
         id="circle3015" />
      <path
         d="m 25.34,20.2023 a 5.58,5.58 0 1 1 5.58,-5.58 v 0 a 5.58225,5.58225 0 0 1 -5.58,5.58 z"
         transform="translate(0,-0.00187)"
         style="fill:#ffffff"
         id="path3017" />
      <path
         d="m 25.33,9.7223 a 4.9,4.9 0 1 1 -4.9,4.9 v 0 a 4.89515,4.89515 0 0 1 4.89028,-4.9 H 25.33 m 0,-1.36 a 6.26,6.26 0 1 0 6.26,6.26 6.26,6.26 0 0 0 -6.26,-6.26 z"
         transform="translate(0,-0.00187)"
         style="fill:#b3b3b3"
         id="path3019" />
      <circle
         cx="25.639999"
         cy="12.22043"
         r="2.3900001"
         id="circle3021" />
      <path
         d="m 22.59,32.1823 c 0,0 0.11,0.4 0.33,1.14 0.21,0.78 0.54,1.74 0.99,3.02 a 27.18725,27.18725 0 0 0 1.99,4.36 24.112,24.112 0 0 0 3.72,4.83 53.85567,53.85567 0 0 0 5.79,4.92 c 1.09,0.82 2.29,1.74 3.43,2.51 l 0.92,0.64 0.89,0.56 c 0.58,0.38 1.2,0.75 1.86,1.12 a 92.4939,92.4939 0 0 0 8.27,4.19 c 2.92,1.32 5.95,2.62 8.97,4.05 a 86.32144,86.32144 0 0 1 8.9,4.74 l 0.54,0.33 0.3,0.19 0.25,0.17 c 0.34,0.24 0.65,0.43 1.01,0.71 0.72,0.53 1.38,1.06 2.03,1.6 a 36.32881,36.32881 0 0 1 3.54,3.47 51.25677,51.25677 0 0 1 8.92,14.87 75.52409,75.52409 0 0 1 3.54,11.55 c 0.32,1.42 0.52,2.54 0.65,3.3 0.13,0.77 0.2,1.17 0.2,1.17 a 0.17691,0.17691 0 0 1 -0.14,0.2 0.18808,0.18808 0 0 1 -0.19,-0.11 c 0,0 -0.54,-1.56 -1.56,-4.25 a 98.81379,98.81379 0 0 0 -4.81,-10.8 61.36158,61.36158 0 0 0 -3.99,-6.7 45.38414,45.38414 0 0 0 -5.4,-6.62 32.20223,32.20223 0 0 0 -3.31,-2.96 c -0.59,-0.46 -1.2,-0.9 -1.8,-1.29 -0.28,-0.2 -0.66,-0.42 -0.99,-0.63 l -0.26,-0.16 -0.22,-0.13 -0.51,-0.29 a 78.54816,78.54816 0 0 0 -8.57,-4.25 c -5.96,-2.57 -12.2,-4.96 -17.81,-8.12 -0.7,-0.38 -1.39,-0.8 -2.08,-1.24 l -1.02,-0.65 -0.92,-0.64 c -1.32,-0.9 -2.43,-1.75 -3.61,-2.62 a 51.38462,51.38462 0 0 1 -6.3,-5.46 26.55674,26.55674 0 0 1 -4.31,-5.94 31.30777,31.30777 0 0 1 -2.16,-5.16 c -0.47,-1.45 -0.76,-2.67 -0.92,-3.39 -0.17,-0.75 -0.26,-1.16 -0.26,-1.16 a 2.12058,2.12058 0 0 1 4.1,-1.07 z"
         transform="translate(0,-0.00187)"
         style="fill:url(#linear-gradient-6)"
         id="path3023" />
    </g>
  </g>
</svg>
