<?xml version="1.0" encoding="UTF-8" standalone="no"?>
<svg
   id="Layer_1"
   data-name="Layer 1"
   width="119.755"
   height="121.1033"
   viewBox="0 0 119.755 121.1033"
   version="1.1"
   sodipodi:docname="lizard_red.svg"
   inkscape:version="1.1.2 (1:1.1+202202050950+0a00cf5339)"
   xmlns:inkscape="http://www.inkscape.org/namespaces/inkscape"
   xmlns:sodipodi="http://sodipodi.sourceforge.net/DTD/sodipodi-0.dtd"
   xmlns:xlink="http://www.w3.org/1999/xlink"
   xmlns="http://www.w3.org/2000/svg"
   xmlns:svg="http://www.w3.org/2000/svg">
  <sodipodi:namedview
     id="namedview88"
     pagecolor="#ffffff"
     bordercolor="#999999"
     borderopacity="1"
     inkscape:pageshadow="0"
     inkscape:pageopacity="0"
     inkscape:pagecheckerboard="0"
     showgrid="false"
     fit-margin-top="0"
     fit-margin-left="0"
     fit-margin-right="0"
     fit-margin-bottom="0"
     inkscape:zoom="2"
     inkscape:cx="123.75"
     inkscape:cy="39.75"
     inkscape:window-width="1848"
     inkscape:window-height="1016"
     inkscape:window-x="72"
     inkscape:window-y="27"
     inkscape:window-maximized="1"
     inkscape:current-layer="Layer_1" />
  <defs
     id="defs17">
    <linearGradient
       id="linear-gradient"
       x1="25.159731"
       y1="745.15961"
       x2="94.432739"
       y2="818.63464"
       gradientTransform="translate(-4.18,-715.43753)"
       gradientUnits="userSpaceOnUse">
      <stop
         offset="0.0169"
         stop-color="#c5e1a5"
         id="stop2" />
      <stop
         offset="0.1983"
         stop-color="#c1dea1"
         id="stop4" />
      <stop
         offset="0.3788"
         stop-color="#b6d595"
         id="stop6" />
      <stop
         offset="0.5591"
         stop-color="#a3c781"
         id="stop8" />
      <stop
         offset="0.7392"
         stop-color="#88b265"
         id="stop10" />
      <stop
         offset="0.9176"
         stop-color="#669841"
         id="stop12" />
      <stop
         offset="0.9969"
         stop-color="#558b2f"
         id="stop14" />
    </linearGradient>
    <linearGradient
       inkscape:collect="always"
       xlink:href="#linear-gradient"
       id="linearGradient22710"
       gradientUnits="userSpaceOnUse"
       gradientTransform="matrix(1.1311994,0,0,1.1311994,933.8926,-748.73999)"
       x1="25.159731"
       y1="745.15961"
       x2="94.432739"
       y2="818.63464" />
  </defs>
  <g
     id="g32591"
     transform="matrix(0.88401523,0,0,0.88401792,-829.75528,-53.547751)">
    <path
       d="m 1071.2655,179.4768 a 8.3038067,8.3038067 0 0 0 -2.5339,-3.35966 8.0046045,8.0046045 0 0 0 -3.3597,-1.58368 8.328071,8.328071 0 0 0 -3.1221,-0.0452 8.7494767,8.7494767 0 0 0 -2.2624,0.71266 8.6437209,8.6437209 0 0 0 -1.3122,0.78053 c -0.2828,0.21492 -0.4299,0.32804 -0.4299,0.32804 a 0.44295506,0.44295506 0 0 0 -0.09,0.59954 0.45143906,0.45143906 0 0 0 0.6282,0.11384 l 0.016,-0.012 c 0,0 0.1357,-0.0905 0.3959,-0.27149 a 8.1169892,8.1169892 0 0 1 1.1991,-0.61084 7.7831383,7.7831383 0 0 1 2.0135,-0.50904 7.0418068,7.0418068 0 0 1 2.6244,0.1923 6.5025866,6.5025866 0 0 1 2.7036,1.47056 6.6288285,6.6288285 0 0 1 1.8665,2.80537 6.423233,6.423233 0 0 1 0.1244,3.52935 9.9206979,9.9206979 0 0 1 -1.5611,3.46147 11.922842,11.922842 0 0 1 -12.1717,4.9094 c -0.2149,-0.0453 -0.4298,-0.11312 -0.6448,-0.16968 a 23.726455,23.726455 0 0 1 -3.7555,-2.34158 c -3.8914,-3.03161 -5.7352,-7.97496 -6.7985,-12.78255 -1.1878,-5.38451 -2.2738,-10.57672 -3.9253,-15.84811 -0.9615,-3.06555 -2.0249,-6.10847 -3.2352,-9.09484 -0.9842,-2.43208 -2.0928,-4.88678 -3.2918,-7.31886 a 86.276329,86.276329 0 0 0 -5.0791,-9.01566 c -0.3959,-0.61085 -0.8258,-1.21038 -1.2443,-1.80992 a 37.691564,37.691564 0 0 0 -0.543,-6.36865 c -0.9163,-5.29401 0.1131,-6.11979 2.8959,-6.45915 2.466,-0.29411 10.0789,2.28502 12.4092,0.22624 1.776,-1.56106 1.7308,-2.7375 1.8326,-4.95465 0.147,-3.04293 3.0768,-3.85739 4.6039,-4.18544 a 1.4608988,1.4608988 0 0 0 0.905,0.55429 1.4207864,1.4207864 0 1 0 -1.1764,-1.62893 1.5183185,1.5183185 0 0 0 0.011,0.22624 3.7588738,3.7588738 0 0 1 -2.9525,-1.10858 c -0.4977,-0.76921 2.0928,-3.95919 3.4841,-5.63337 a 1.6542999,1.6542999 0 0 0 0.5769,0.24886 1.4207864,1.4207864 0 1 0 -1.1764,-1.62892 1.4043388,1.4043388 0 0 0 0.079,0.69003 c -1.2896,1.27825 -3.8122,3.74427 -4.5022,3.59721 -0.8258,-0.18099 -0.2489,-5.475 0.057,-7.96364 a 1.4015561,1.4015561 0 0 0 1.0746,-1.153824 1.4208279,1.4208279 0 1 0 -2.8054,-0.45248 1.4045085,1.4045085 0 0 0 0.8258,1.493184 c -0.5543,2.49995 -1.6289,7.80528 -2.2511,7.95233 -0.6674,0.16968 -1.6063,-3.80083 -2.1832,-6.3234 a 1.3914318,1.3914318 0 0 0 0.6222,-0.950211 1.4207864,1.4207864 0 1 0 -1.629,1.176451 h 0.057 c 0.3394,2.38683 0.7127,6.15372 0.362,6.78719 -0.4186,0.74659 -2.3077,0.62216 -3.6085,0.41855 a 1.4182978,1.4182978 0 1 0 -1.629,1.21038 1.3828913,1.3828913 0 0 0 1.1765,-0.38461 c 1.9117,0.83709 4.0157,1.82123 4.5135,3.47278 a 2.4695214,2.4695214 0 0 1 -1.4932,3.09949 c 0,0 -10.5541,-0.40723 -14.0608,0.59954 -2.3869,0.67872 -2.3982,5.50894 -2.2172,9.28714 -0.5656,-0.5656 -1.1199,-1.15382 -1.7081,-1.68548 a 49.138997,49.138997 0 0 0 -4.5927,-3.6764 46.420181,46.420181 0 0 0 -11.2328,-5.92749 36.172363,36.172363 0 0 0 -7.22834,-1.80992 c -1.00677,-0.14705 -2.03616,-0.30542 -3.07686,-0.48641 a 12.260245,12.260245 0 0 0 1.22169,-6.05192 c -0.1018,-4.18544 -1.65155,-11.085752 0.0679,-14.354918 a 16.800494,16.800494 0 0 1 4.16281,-4.784974 1.3446567,1.3446567 0 0 0 0.71266,0.361984 1.4207864,1.4207864 0 1 0 -1.17645,-1.628927 1.3372926,1.3372926 0 0 0 0.14705,0.814463 c -1.26694,1.029392 -2.95243,1.900415 -3.75558,1.266944 -0.90496,-0.701344 0.72397,-3.925262 1.60631,-5.644685 a 1.2065712,1.2065712 0 0 0 0.21492,0.07918 1.4207864,1.4207864 0 1 0 -1.17644,-1.628927 1.390606,1.390606 0 0 0 0.44116,1.233007 c -0.80315,1.821231 -2.38683,5.192205 -3.35966,4.570045 -0.61085,-0.395919 -0.14705,-4.581357 -0.32805,-7.160492 a 1.3953345,1.3953345 0 0 0 0.82578,-1.040703 1.4207864,1.4207864 0 1 0 -1.62893,1.176447 c 0.0679,2.137967 0.0566,6.775885 -1.0407,7.183116 -1.02939,0.384608 -2.68094,-2.149278 -4.25331,-4.988589 a 1.3523149,1.3523149 0 0 0 0.36198,-0.701344 1.4207864,1.4207864 0 1 0 -1.62892,1.176448 1.3574393,1.3574393 0 0 0 0.5656,-0.02262 c 0.96151,1.583679 3.26916,5.520253 2.40945,6.64014 -0.39592,0.520352 -2.53389,0.441168 -4.28725,0.418544 a 1.3953118,1.3953118 0 0 0 -1.15382,-1.119887 1.4208996,1.4208996 0 1 0 0.99546,2.104031 c 1.85516,0.701343 4.27593,1.93435 4.98859,3.23523 1.53843,2.771438 4.03838,12.341387 -0.72397,15.135447 a 22.895928,22.895928 0 0 1 -3.09949,1.5045 16.787734,16.787734 0 0 1 -7.02475,-4.12888 8.4309649,8.4309649 0 0 1 -2.46601,-6.787198 c 0.29411,-3.178671 0.81446,-6.074541 0.24886,-9.592571 a 21.896129,21.896129 0 0 0 -1.45924,-5.045149 c -0.10181,-0.248864 -0.26018,-0.520352 -0.39592,-0.79184 -1.60631,-3.099486 -5.41845,-7.48854 -9.27584,-11.391178 -4.35512,-4.400366 -8.76679,-8.178572 -10.14686,-8.732859 a 3.5443871,3.5443871 0 0 0 -4.71802,1.69267 l -0.033,0.07196 c -0.98415,1.176448 -2.23978,4.683166 -3.21261,9.094844 -1.33481,6.051916 -2.13796,13.823256 -0.97283,19.750741 1.83254,9.28714 7.23968,13.21241 10.20342,15.45219 2.19453,1.66285 2.59045,2.59045 6.16504,5.9388 2.04747,1.91172 3.63115,9.28714 4.94334,11.83234 0.6674,1.30087 1.39137,2.61306 2.18321,3.91394 l -0.1923,2.99768 c 0,0 -0.22624,6.04061 -1.43663,8.45007 a 9.3704147,9.3704147 0 0 1 -2.42076,3.28048 c 0,0 -4.14019,-6.11979 -3.45016,-10.76902 a 40.896976,40.896976 0 0 1 0.81446,-4.2307 1.4035017,1.4035017 0 0 0 1.19908,-1.16513 1.420818,1.420818 0 0 0 -2.80538,-0.45248 1.3883097,1.3883097 0 0 0 0.78053,1.47056 c -0.26018,1.33481 -0.71266,3.17867 -1.82123,3.14473 -1.40269,-0.0453 -3.37098,-5.54288 -4.21938,-8.0315 a 1.3850405,1.3850405 0 1 0 -0.87102,0.16968 c 0.0453,0.0113 0.0792,-0.0113 0.11312,0 0.90496,2.26239 2.96374,7.2623 1.95697,7.79395 -0.93889,0.49773 -4.54742,-3.77821 -6.57226,-6.10847 a 1.5117349,1.5117349 0 1 0 -0.75791,0.56559 c 1.62893,1.67419 6.17635,6.52702 5.4637,7.56774 -0.62216,0.91627 -4.16282,-0.12443 -6.32341,-0.96152 a 1.4040447,1.4040447 0 0 0 -1.16513,-1.42531 1.4208996,1.4208996 0 1 0 0.92758,2.20584 c 2.08141,0.71264 5.98404,1.86646 5.81436,2.98635 -0.14705,1.00677 -1.40268,1.08595 -2.98636,1.58368 a 1.4083433,1.4083433 0 1 0 0.23755,1.01808 v -0.0679 c 1.76467,-0.42986 4.9094,-0.92759 6.67408,1.01808 2.21715,2.43208 6.59489,12.39794 8.92516,11.26674 2.03616,-0.98414 6.94556,-11.42511 9.20796,-14.07212 a 34.989491,34.989491 0 0 0 7.89577,4.51349 52.802601,52.802601 0 0 0 6.0293,2.09272 c 2.46601,0.71265 4.97727,1.28956 7.48854,1.83254 1.83254,0.40723 3.80079,0.79184 5.80309,1.24432 -2.5566,1.43662 -8.61978,4.93203 -10.0564,6.54964 -1.84386,2.0701 -0.69003,3.45016 0.80315,4.60399 0.93889,0.72396 0.41854,0.79184 10.46355,4.14019 a 9.3948259,9.3948259 0 0 1 -4.14015,0.80315 c -1.70811,0 -3.90263,-1.1312 -5.33926,-1.90042 0,-0.0226 0.0113,-0.0339 0.0226,-0.0566 a 1.4207864,1.4207864 0 1 0 -1.62893,1.17645 1.3990561,1.3990561 0 0 0 1.1312,-0.32805 c 1.44793,0.74659 4.33249,2.02485 3.05424,2.71488 -1.21039,0.64478 -6.39128,0.80315 -9.15141,1.40269 a 1.3956399,1.3956399 0 0 0 -0.96152,-0.6561 1.420818,1.420818 0 0 0 -0.45248,2.80538 1.3979588,1.3979588 0 0 0 1.54975,-0.98415 c 1.7986,-0.16968 8.35956,-0.64478 8.77811,0.19231 0.3846,0.7579 -5.54288,4.10625 -8.28038,6.39127 a 1.9257199,1.9257199 0 0 0 -0.27149,-0.1018 1.4207864,1.4207864 0 1 0 1.17644,1.62892 1.2956984,1.2956984 0 0 0 -0.0226,-0.55428 c 1.86648,-1.33482 8.90254,-5.99536 9.94324,-5.15827 0.92764,0.73528 -1.52712,6.53833 -2.72619,9.60388 a 1.4116237,1.4116237 0 1 0 1.56106,1.61761 1.3905947,1.3905947 0 0 0 -0.44117,-1.233 c 1.06333,-2.13797 4.60404,-9.03829 5.32794,-8.92517 0.6674,0.10181 0.5091,5.04515 0.5091,6.82114 a 1.4057981,1.4057981 0 0 0 -0.6335,0.9502 1.4207864,1.4207864 0 1 0 1.6289,-1.17644 h -0.068 c 0.4751,-3.22392 1.086,-8.35957 1.6063,-8.71024 0.6901,-0.46379 7.3642,-3.78952 7.0135,-6.09716 -0.3507,-2.29634 -5.4072,-4.83023 -8.9704,-5.85962 -3.5633,-1.02939 9.6604,2.87325 12.8843,-1.95697 0.4412,-0.6561 0.8145,-1.2217 1.1652,-1.73074 a 17.01471,17.01471 0 0 1 2.6922,2.40946 41.130263,41.130263 0 0 1 6.4592,9.54732 81.341393,81.341393 0 0 0 5.2487,10.39572 53.875464,53.875464 0 0 0 9.5247,10.99526 42.152347,42.152347 0 0 0 5.7918,4.42299 18.471106,18.471106 0 0 0 11.1084,2.66963 c 0.3393,-0.0339 0.6787,-0.0792 1.018,-0.14705 l 0.2602,-0.0453 0.2715,-0.0566 0.4638,-0.11312 a 15.541843,15.541843 0 0 0 2.0814,-0.71266 14.758476,14.758476 0 0 0 6.7646,-5.87092 11.994333,11.994333 0 0 0 1.6176,-4.30987 8.0541963,8.0541963 0 0 0 -0.4072,-4.51349 z"
       style="fill:#ff0000;stroke:#2e7d32;stroke-width:4.5248px;stroke-linecap:round;stroke-linejoin:round"
       id="path4072-8" />
    <path
       d="m 984.69476,81.09639 c 0.33936,0.588224 3.81214,5.938797 2.78275,7.273612 -0.53166,0.690032 -4.09494,0.316736 -5.79174,0.441168 a 0.25316243,0.25316243 0 0 0 -0.0453,0.497728 c 1.73074,0.452479 5.4637,2.024846 6.37997,3.68771 1.53843,2.771438 4.03838,12.341382 -0.72397,15.135452 a 28.958558,28.958558 0 0 1 -10.27129,3.39359 l -0.98414,4.25331 8.09938,1.27826 8.74418,-4.85285 a 11.438326,11.438326 0 0 0 1.42531,-6.40259 c -0.10181,-4.18543 -1.65155,-11.085749 0.0679,-14.354916 1.65155,-3.156046 4.89809,-5.237453 5.14696,-5.667309 0.24886,-0.418543 -0.22624,-0.576911 -0.4638,-0.316735 -1.22169,1.266943 -3.59721,2.816686 -4.60398,2.036158 -1.14251,-0.882335 1.79861,-5.859612 2.09272,-6.64014 0.29411,-0.780528 -0.21493,-1.085951 -0.55429,-0.361984 -0.33936,0.723968 -2.57913,6.402589 -3.81214,5.599437 -0.73528,-0.475104 0.0792,-6.379964 -0.52035,-8.461371 -0.32805,-1.153824 -0.69003,-0.203616 -0.6561,0.407231 0.0339,0.610848 0.3733,7.71478 -0.99545,8.212508 -1.08595,0.407232 -2.85062,-2.432079 -4.50217,-5.441069 -0.70135,-1.289567 -1.43663,-0.825776 -0.81447,0.2828 z"
       style="fill:#ff0007;stroke-width:1.1312"
       id="path4074-1" />
    <path
       d="m 968.04351,133.93471 c 0,0 -0.22624,6.04061 -1.43663,8.45006 a 9.3704599,9.3704599 0 0 1 -2.42076,3.28048 c 0,0 -4.14019,-6.11979 -3.45016,-10.76902 a 26.662879,26.662879 0 0 1 1.16513,-5.36188 c 0.21493,-0.6561 -0.64478,-0.90496 -0.90496,-0.21493 -0.27148,0.69003 -0.53166,4.41168 -2.0814,4.35512 -1.6968,-0.0566 -4.25331,-8.18989 -4.59267,-9.14009 -0.33936,-0.95021 -1.04071,-0.64479 -0.76922,0.26017 0.27149,0.90496 3.56328,8.14464 2.34158,8.80073 -1.06332,0.5656 -5.55418,-5.01121 -7.29623,-6.91162 -0.53167,-0.58823 -1.47056,-0.20362 -0.61085,0.80315 0,0 6.90032,6.889 6.04061,8.14463 -0.7466,1.08595 -5.656,-0.59953 -7.42067,-1.414 -0.57691,-0.27148 -1.07464,0.16968 -0.36199,0.72397 0.71266,0.5656 7.23968,2.04747 7.02475,3.49541 -0.16968,1.11988 -1.71942,1.08595 -3.5859,1.78729 -1.21038,0.45248 -1.33482,1.30088 -0.22624,1.01808 1.10858,-0.2828 5.50894,-1.6968 7.72609,0.74659 2.21715,2.44339 6.59489,12.39795 8.92517,11.26675 2.33027,-1.1312 8.43874,-14.66034 9.9998,-14.68297 1.06333,-0.0113 -7.61297,-11.87759 -7.61297,-11.87759 z"
       style="fill:#ff0000;stroke-width:1.1312"
       id="path4076-6" />
    <path
       d="m 1017.1941,130.06601 c 0,0 3.7895,1.95698 3.914,-0.57691 0.1131,-2.53389 -1.4253,-12.33007 2.0361,-13.31422 3.5067,-1.00676 14.0608,-0.59953 14.0608,-0.59953 a 2.4695214,2.4695214 0 0 0 1.4932,-3.09949 c -0.5656,-1.8891 -3.2126,-2.89587 -5.2827,-3.81214 -0.4525,-0.20362 -0.6221,-0.92758 0.091,-0.71266 0.7127,0.21493 4.1515,0.8484 4.7284,-0.18099 0.4751,-0.85971 -0.3733,-7.47723 -0.6787,-8.619738 -0.3054,-1.142511 0.5317,-1.255631 0.8032,-0.33936 0.2828,0.916272 1.7081,8.495308 2.6243,8.257758 0.7693,-0.19231 2.2738,-8.404813 2.5452,-9.185341 0.2828,-0.780528 0.8032,-0.610848 0.7466,0.11312 -0.057,0.723968 -1.233,8.959101 -0.1923,9.185341 0.8145,0.18099 4.2533,-3.37098 5.0904,-4.17413 0.8371,-0.80315 1.1652,-0.2828 0.7466,0.2828 -0.4185,0.55429 -4.9546,5.63338 -4.3099,6.62883 0.6109,0.95021 2.7036,1.33482 3.7556,1.00677 1.052,-0.33936 0.724,0.50904 0.3394,0.74659 -0.3846,0.24886 -5.2827,0.44117 -5.4863,4.40037 -0.1131,2.21715 -0.057,3.39359 -1.8326,4.95465 -2.3416,2.05878 -9.9432,-0.52035 -12.4092,-0.22624 -2.7828,0.33936 -3.8122,1.16513 -2.8959,6.45915 0.9163,5.29401 0.7918,12.28482 -1.3914,14.58116 -2.1832,2.29633 -2.8732,2.03616 -2.8732,2.03616 z"
       style="fill:#ff0000;stroke-width:1.1312"
       id="path4078-3" />
    <path
       d="m 1003.6763,148.21045 c 0,0 -9.37766,5.12433 -11.2102,7.19443 -1.83254,2.07009 -0.69003,3.45016 0.80315,4.60398 0.9389,0.72397 0.41855,0.79184 10.46355,4.14019 a 9.3948259,9.3948259 0 0 1 -4.14014,0.80315 c -1.9796,0 -4.62661,-1.52712 -5.96142,-2.23977 -1.33482,-0.71266 -1.38007,0.16968 -0.46379,0.79184 0.91627,0.62216 5.14695,2.25108 3.65377,3.05423 -1.25563,0.67872 -6.80982,0.81447 -9.46814,1.47056 -1.67417,0.41855 -0.82578,1.23301 0.0792,1.1312 0.91628,-0.11312 8.69893,-0.7579 9.15141,0.15837 0.39592,0.79184 -6.05192,4.38905 -8.60843,6.67408 -1.54974,1.38006 0.0792,1.58368 0.79184,1.00677 0.71266,-0.58823 9.21927,-6.40259 10.3731,-5.47501 0.9615,0.76922 -1.76467,7.11524 -2.88456,10.02243 -0.62216,1.62892 0.66741,1.25563 1.00677,0.54297 0.33936,-0.71265 4.79629,-9.63782 5.62199,-9.51338 0.724,0.11312 0.4752,5.92748 0.5091,7.20574 0.034,1.27825 0.7126,0.80315 0.8258,0.0679 0.4751,-3.12211 1.1425,-9.01566 1.6968,-9.38896 0.69,-0.46379 7.3641,-3.78952 7.0134,-6.09716 -0.3394,-2.29634 -5.4071,-4.83022 -8.9704,-5.85962 -3.5633,-1.02939 9.6604,2.87325 12.8843,-1.95697 3.224,-4.83022 3.7896,-5.52025 3.7896,-5.52025 z"
       style="fill:#ff0000;stroke-width:1.1312"
       id="path4080-9" />
    <circle
       cx="1038.0421"
       cy="99.568878"
       r="1.4139992"
       style="fill:#ff0000;stroke-width:1.1312"
       id="circle4082-3" />
    <circle
       cx="984.7287"
       cy="80.3498"
       r="1.4139992"
       style="fill:#ff0007;stroke-width:1.1312"
       id="circle4084-3" />
    <circle
       cx="948.11176"
       cy="126.71766"
       r="1.4139992"
       style="fill:#ff0000;stroke-width:1.1312"
       id="circle4086-4" />
    <circle
       cx="946.27924"
       cy="134.63606"
       r="1.4139992"
       style="fill:#ff0000;stroke-width:1.1312"
       id="circle4088-6" />
    <circle
       cx="949.09589"
       cy="140.8011"
       r="1.4139992"
       style="fill:#ff0000;stroke-width:1.1312"
       id="circle4090-1" />
    <circle
       cx="992.88464"
       cy="162.76898"
       r="1.4139992"
       style="fill:#ff0000;stroke-width:1.1312"
       id="circle4092-5" />
    <circle
       cx="986.49335"
       cy="168.70778"
       r="1.4139992"
       style="fill:#ff0000;stroke-width:1.1312"
       id="circle4094-6" />
    <circle
       cx="987.82819"
       cy="177.02209"
       r="1.4139992"
       style="fill:#ff0000;stroke-width:1.1312"
       id="circle4096-1" />
    <circle
       cx="996.59497"
       cy="182.50842"
       r="1.4139992"
       style="fill:#ff0000;stroke-width:1.1312"
       id="circle4098-7" />
    <circle
       cx="1004.1627"
       cy="180.57407"
       r="1.4139992"
       style="fill:#ff0000;stroke-width:1.1312"
       id="circle4100-2" />
    <circle
       cx="961.33551"
       cy="129.27417"
       r="1.4139992"
       style="fill:#ff0000;stroke-width:1.1312"
       id="circle4102-2" />
    <circle
       cx="991.27832"
       cy="77.680168"
       r="1.4139992"
       style="fill:#ff0007;stroke-width:1.1312"
       id="circle4104-9" />
    <circle
       cx="996.51581"
       cy="80.542099"
       r="1.4139992"
       style="fill:#ff0007;stroke-width:1.1312"
       id="circle4106-2" />
    <circle
       cx="999.47955"
       cy="85.643814"
       r="1.4139992"
       style="fill:#ff0007;stroke-width:1.1312"
       id="circle4108-8" />
    <circle
       cx="981.82153"
       cy="89.07135"
       r="1.4139992"
       style="fill:#ff0007;stroke-width:1.1312"
       id="circle4110-1" />
    <circle
       cx="954.02795"
       cy="124.3987"
       r="1.4139992"
       style="fill:#ff0000;stroke-width:1.1312"
       id="circle4112-2" />
    <circle
       cx="1043.8339"
       cy="97.838142"
       r="1.4139992"
       style="fill:#ff0000;stroke-width:1.1312"
       id="circle4114-4" />
    <circle
       cx="1049.9197"
       cy="103.12084"
       r="1.4139992"
       style="fill:#ff0000;stroke-width:1.1312"
       id="circle4116-7" />
    <circle
       cx="1049.9763"
       cy="111.02792"
       r="1.4139992"
       style="fill:#ff0000;stroke-width:1.1312"
       id="circle4118-8" />
    <circle
       cx="1033.2233"
       cy="107.97369"
       r="1.4139992"
       style="fill:#ff0000;stroke-width:1.1312"
       id="circle4120-6" />
    <path
       d="m 1070.8695,179.4768 c -0.5421,-1.31888 -1.4148,-2.47591 -2.5339,-3.35966 -0.9802,-0.784 -2.1311,-1.3265 -3.3596,-1.58368 -1.0286,-0.21178 -2.0879,-0.22714 -3.1221,-0.0452 -0.783,0.13376 -1.5441,0.37351 -2.2624,0.71266 -0.4596,0.22096 -0.8987,0.48215 -1.3122,0.78053 -0.2828,0.21492 -0.4299,0.32804 -0.4299,0.32804 -0.1836,0.14466 -0.2232,0.40712 -0.091,0.59954 0.1421,0.20493 0.4233,0.2559 0.6283,0.11384 l 0.017,-0.012 c 0,0 0.1357,-0.0905 0.3959,-0.27149 0.3821,-0.23645 0.7832,-0.44077 1.1991,-0.61084 0.6454,-0.25888 1.3226,-0.43007 2.0135,-0.50904 0.8791,-0.10136 1.7695,-0.0361 2.6244,0.1923 1.0059,0.26679 1.933,0.77111 2.7036,1.47056 0.8534,0.75875 1.4963,1.72509 1.8664,2.80537 0.3704,1.14172 0.4136,2.36438 0.1245,3.52935 -0.2927,1.24357 -0.8227,2.41892 -1.5611,3.46147 -2.7104,3.92322 -7.4978,5.85417 -12.1717,4.9094 -0.2149,-0.0453 -0.4298,-0.11312 -0.6448,-0.16968 -1.3221,-0.66181 -2.5794,-1.44575 -3.7556,-2.34158 -3.8913,-3.03161 -5.7351,-7.97496 -6.7985,-12.78255 -1.1877,-5.38451 -2.2737,-10.57672 -3.9252,-15.84811 -0.9615,-3.06555 -2.0249,-6.10847 -3.2353,-9.09484 -0.9841,-2.43208 -2.0927,-4.88678 -3.2918,-7.31886 -1.5111,-3.10413 -3.2071,-6.11477 -5.079,-9.01566 -2.7051,-4.28349 -5.9521,-8.19967 -9.6605,-11.65135 -1.4561,-1.3161 -2.9897,-2.54376 -4.5926,-3.6764 -3.4551,-2.48115 -7.2347,-4.47564 -11.2329,-5.92749 -2.3407,-0.85053 -4.76299,-1.45706 -7.22832,-1.80992 -3.85445,-0.50432 -7.65811,-1.34075 -11.36856,-2.49995 -2.8734,-0.7745 -5.50155,-2.26963 -7.63559,-4.3438 -1.79835,-1.77805 -2.70356,-4.26945 -2.46602,-6.787198 0.29411,-3.178671 0.81447,-6.074541 0.24887,-9.592571 -0.28225,-1.734171 -0.77218,-3.428068 -1.45925,-5.045149 -0.10181,-0.248864 -0.26018,-0.520352 -0.39592,-0.79184 -1.6063,-3.099486 -5.41845,-7.48854 -9.27584,-11.391178 2.04748,5.463693 2.49996,11.198874 -0.36198,16.945367 0,1.187759 -3.43844,2.984472 -7.00172,1.796713 -7.2623,-2.907183 -10.21084,-9.864873 -10.76512,-17.228982 -1.33482,6.051917 -2.13096,14.448126 -0.96582,20.37561 1.83254,9.287148 7.23967,13.212408 10.20342,15.452188 2.19452,1.66286 2.59044,2.59044 6.16503,5.93879 2.04748,1.91173 3.63115,9.28715 4.94335,11.83235 1.79127,3.73516 4.14094,7.17574 6.96818,10.20342 0.42986,0.42985 0.87103,0.83708 1.33482,1.22169 2.66991,2.18758 5.65634,3.95731 8.85729,5.24877 1.96573,0.8185 3.97917,1.51735 6.02929,2.09272 2.46602,0.71265 4.97728,1.28956 7.48854,1.83254 2.37552,0.52035 4.96595,1.02939 7.59035,1.64024 3.9315,0.82017 7.7332,2.17113 11.3007,4.01576 1.906,1.02618 3.6266,2.36444 5.0904,3.95919 2.5905,2.86347 4.7649,6.07747 6.4591,9.54733 1.499,3.58619 3.2531,7.06033 5.2488,10.39572 2.6632,4.07883 5.8673,7.77763 9.5247,10.99526 1.7993,1.63876 3.7371,3.11862 5.7917,4.42299 3.3277,2.04141 7.2165,2.976 11.1084,2.66963 0.3394,-0.0339 0.6787,-0.0792 1.0181,-0.14706 l 0.2602,-0.0452 0.2715,-0.0566 0.4637,-0.11312 c 0.7098,-0.18808 1.4054,-0.42623 2.0815,-0.71265 2.8086,-1.20896 5.1723,-3.26045 6.7645,-5.87093 0.8125,-1.3187 1.3618,-2.78227 1.6176,-4.30987 0.2902,-1.51754 0.1451,-3.08621 -0.4185,-4.52479 z"
       style="fill:#ff0000;stroke-width:1.1312"
       id="path4122-3"
       sodipodi:nodetypes="scccccccccccccccccccccccccccccccccccccccccccccccccccccccccccccccss" />
    <path
       d="m 956.26157,91.334531 c 3.59408,1.198024 7.18816,-1.198025 7.18816,-2.396052 2.89808,-5.78475 2.43028,-11.569502 0.36511,-17.091827 -4.39276,-4.438398 -8.84257,-8.24926 -10.23456,-8.808338 a 3.575033,3.575033 0 0 0 -4.75884,1.707346 l -0.0333,0.07258 c -0.99265,1.186616 -2.25913,4.723643 -3.24037,9.173452 0.54767,7.450574 3.3887,14.410532 10.71376,17.342842 z"
       style="fill:#ff5555;stroke-width:1.14098"
       id="path4124-7" />
    <path
       d="m 945.70232,91.955904 a 6.3120927,6.3120927 0 1 1 6.31209,-6.312093 6.3120927,6.3120927 0 0 1 -6.31209,6.312093 z"
       style="fill:#ffffff;stroke-width:1.1312"
       id="path4126-7" />
    <path
       d="m 945.70232,80.100934 a 5.5428771,5.5428771 0 1 1 -5.54288,5.542877 v 0 a 5.5373342,5.5373342 0 0 1 5.53179,-5.542877 h 0.0111 m 0,-1.549743 a 7.0813082,7.0813082 0 1 0 7.08131,7.081308 7.0813082,7.0813082 0 0 0 -7.08131,-7.081308 z"
       style="fill:#b3b3b3;stroke-width:1.1312"
       id="path4128-2" />
    <circle
       cx="944.17517"
       cy="83.042053"
       r="2.7035668"
       id="circle4130-3"
       style="stroke-width:1.1312" />
    <path
       d="m 967.2856,83.415349 a 6.3120927,6.3120927 0 1 1 6.3121,-6.312093 v 0 a 6.31457,6.31457 0 0 1 -6.3121,6.312093 z"
       style="fill:#ffffff;stroke-width:1.1312"
       id="path4132-7" />
    <path
       d="m 967.27429,71.560379 a 5.5428771,5.5428771 0 1 1 -5.54288,5.542877 v 0 a 5.5373342,5.5373342 0 0 1 5.5318,-5.542877 h 0.0111 m 0,-1.538431 a 7.0813082,7.0813082 0 1 0 7.08131,7.081308 7.0813082,7.0813082 0 0 0 -7.08131,-7.081308 z"
       style="fill:#b3b3b3;stroke-width:1.1312"
       id="path4134-2" />
    <circle
       cx="967.62494"
       cy="74.388374"
       r="2.7035668"
       id="circle4136-5"
       style="stroke-width:1.1312" />
    <path
       d="m 964.1748,96.967117 c 0,0 0.12444,0.45248 0.3733,1.289568 0.23755,0.882335 0.61085,1.968285 1.11989,3.416225 a 30.754201,30.754201 0 0 0 2.25108,4.93203 27.27548,27.27548 0 0 0 4.20807,5.46369 60.921502,60.921502 0 0 0 6.54964,5.5655 c 1.23301,0.92758 2.59045,1.96829 3.88001,2.83931 l 1.04071,0.72397 1.00677,0.63347 c 0.65609,0.42986 1.35743,0.8484 2.10403,1.26694 a 104.62904,104.62904 0 0 0 9.35502,4.73973 c 3.3031,1.49318 6.73068,2.96374 10.14688,4.58136 a 97.646761,97.646761 0 0 1 10.0676,5.36188 l 0.6109,0.3733 0.3394,0.21493 0.2828,0.1923 c 0.3846,0.27149 0.7352,0.48642 1.1425,0.80315 0.8144,0.59954 1.561,1.19907 2.2963,1.80992 a 41.096395,41.096395 0 0 1 4.0044,3.92526 57.981627,57.981627 0 0 1 10.0903,16.82094 85.432805,85.432805 0 0 1 4.0045,13.06535 c 0.362,1.6063 0.5882,2.87325 0.7353,3.73296 0.147,0.87102 0.2262,1.3235 0.2262,1.3235 a 0.20010917,0.20010917 0 0 1 -0.1584,0.22624 0.2127673,0.2127673 0 0 1 -0.2149,-0.12443 c 0,0 -0.6108,-1.76467 -1.7647,-4.8076 a 111.77381,111.77381 0 0 0 -5.441,-12.21695 69.412182,69.412182 0 0 0 -4.5135,-7.57904 51.338512,51.338512 0 0 0 -6.1085,-7.48854 36.427143,36.427143 0 0 0 -3.7443,-3.34835 c -0.6674,-0.52035 -1.3574,-1.01808 -2.0361,-1.45925 -0.3168,-0.22623 -0.7466,-0.4751 -1.1199,-0.71265 l -0.2941,-0.18099 -0.2489,-0.14706 -0.5769,-0.32805 a 88.853631,88.853631 0 0 0 -9.6944,-4.80759 c -6.74192,-2.90719 -13.8006,-5.61075 -20.14663,-9.18534 -0.79184,-0.42986 -1.57237,-0.90496 -2.35289,-1.40269 l -1.15383,-0.73528 -1.0407,-0.72397 c -1.49318,-1.01808 -2.74882,-1.9796 -4.08363,-2.96374 a 58.126251,58.126251 0 0 1 -7.12656,-6.17635 30.040968,30.040968 0 0 1 -4.87547,-6.71932 35.415331,35.415331 0 0 1 -2.44339,-5.83699 c -0.53166,-1.64024 -0.85971,-3.0203 -1.0407,-3.834768 -0.19231,-0.848399 -0.29411,-1.312191 -0.29411,-1.312191 a 2.3988101,2.3988101 0 0 1 4.63791,-1.210384 z"
       style="fill:url(#linearGradient22710);stroke-width:1.1312"
       id="path4138-3" />
  </g>
</svg>
