<?xml version="1.0" encoding="UTF-8" standalone="no"?>
<svg
   id="Layer_1"
   data-name="Layer 1"
   width="135.46701mm"
   height="136.992mm"
   viewBox="0 0 512.00128 517.76504"
   version="1.1"
   sodipodi:docname="lizard_no_tail.svg"
   inkscape:version="1.1.2 (1:1.1+202202050950+0a00cf5339)"
   xmlns:inkscape="http://www.inkscape.org/namespaces/inkscape"
   xmlns:sodipodi="http://sodipodi.sourceforge.net/DTD/sodipodi-0.dtd"
   xmlns:xlink="http://www.w3.org/1999/xlink"
   xmlns="http://www.w3.org/2000/svg"
   xmlns:svg="http://www.w3.org/2000/svg">
  <sodipodi:namedview
     id="namedview16890"
     pagecolor="#ffffff"
     bordercolor="#999999"
     borderopacity="1"
     inkscape:pageshadow="0"
     inkscape:pageopacity="0"
     inkscape:pagecheckerboard="0"
     showgrid="false"
     units="mm"
     fit-margin-top="0"
     fit-margin-left="0"
     fit-margin-right="0"
     fit-margin-bottom="0"
     inkscape:zoom="0.47502113"
     inkscape:cx="87.364534"
     inkscape:cy="-97.890382"
     inkscape:window-width="1848"
     inkscape:window-height="1016"
     inkscape:window-x="72"
     inkscape:window-y="27"
     inkscape:window-maximized="1"
     inkscape:current-layer="Layer_1"
     inkscape:document-units="mm" />
  <defs
     id="defs16819">
    <linearGradient
       id="linear-gradient"
       x1="214.82764"
       y1="442.8472"
       x2="228.16762"
       y2="424.8812"
       gradientTransform="rotate(14.57266,1696.7018,-469.67914)"
       gradientUnits="userSpaceOnUse">
      <stop
         offset="0"
         stop-color="#13630f"
         id="stop16777" />
      <stop
         offset="0.1391"
         stop-color="#2a7915"
         id="stop16779" />
      <stop
         offset="0.457"
         stop-color="#59a623"
         id="stop16781" />
      <stop
         offset="0.6158"
         stop-color="#6bb828"
         id="stop16783" />
    </linearGradient>
    <linearGradient
       id="linear-gradient-2"
       x1="32.08392"
       y1="770.40497"
       x2="16.13192"
       y2="791.26996"
       gradientTransform="matrix(3.7618343,0,0,3.7618343,-15.724467,-2691.3851)"
       xlink:href="#linear-gradient" />
    <linearGradient
       id="linear-gradient-3"
       x1="73.639999"
       y1="768.53717"
       x2="102.73054"
       y2="768.53717"
       gradientTransform="matrix(3.7618343,0,0,3.7618343,-15.724467,-2691.3851)"
       xlink:href="#linear-gradient" />
    <linearGradient
       id="linear-gradient-4"
       x1="66.255402"
       y1="793.078"
       x2="53.1194"
       y2="819.61804"
       gradientTransform="matrix(3.7618343,0,0,3.7618343,-15.724467,-2691.3851)"
       gradientUnits="userSpaceOnUse">
      <stop
         offset="0"
         stop-color="#134e0f"
         id="stop16788" />
      <stop
         offset="0.2097"
         stop-color="#357719"
         id="stop16790" />
      <stop
         offset="0.4804"
         stop-color="#5ca624"
         id="stop16792" />
      <stop
         offset="0.6158"
         stop-color="#6bb828"
         id="stop16794" />
    </linearGradient>
    <linearGradient
       id="linear-gradient-5"
       x1="10.55677"
       y1="717.33917"
       x2="76.660568"
       y2="803.35052"
       gradientTransform="matrix(3.7618343,0,0,3.7618343,-15.724467,-2691.3851)"
       gradientUnits="userSpaceOnUse">
      <stop
         offset="0.2397"
         stop-color="#4aba00"
         id="stop16797" />
      <stop
         offset="0.2683"
         stop-color="#49b802"
         id="stop16799" />
      <stop
         offset="1"
         stop-color="#2e7d32"
         id="stop16801" />
    </linearGradient>
    <linearGradient
       id="linear-gradient-6"
       x1="25.125669"
       y1="745.12415"
       x2="74.958069"
       y2="797.97937"
       gradientTransform="matrix(3.7618343,0,0,3.7618343,-15.724467,-2691.3851)"
       gradientUnits="userSpaceOnUse">
      <stop
         offset="0.0169"
         stop-color="#c5e1a5"
         id="stop16804" />
      <stop
         offset="0.1983"
         stop-color="#c1dea1"
         id="stop16806" />
      <stop
         offset="0.3788"
         stop-color="#b6d595"
         id="stop16808" />
      <stop
         offset="0.5591"
         stop-color="#a3c781"
         id="stop16810" />
      <stop
         offset="0.7392"
         stop-color="#88b265"
         id="stop16812" />
      <stop
         offset="0.9176"
         stop-color="#669841"
         id="stop16814" />
      <stop
         offset="0.9969"
         stop-color="#558b2f"
         id="stop16816" />
    </linearGradient>
    <linearGradient
       id="linear-gradient-1"
       x1="205.44579"
       y1="617.74463"
       x2="218.7858"
       y2="599.77856"
       gradientTransform="rotate(14.57266,2375.9288,-345.54639)"
       gradientUnits="userSpaceOnUse">
      <stop
         offset="0"
         stop-color="#13630f"
         id="stop2913" />
      <stop
         offset="0.1391"
         stop-color="#2a7915"
         id="stop2915" />
      <stop
         offset="0.457"
         stop-color="#59a623"
         id="stop2917" />
      <stop
         offset="0.6158"
         stop-color="#6bb828"
         id="stop2919" />
    </linearGradient>
    <linearGradient
       id="linear-gradient-4-7"
       x1="66.255386"
       y1="795.18823"
       x2="53.119389"
       y2="821.72821"
       gradientTransform="translate(-4.18,-717.5477)"
       gradientUnits="userSpaceOnUse">
      <stop
         offset="0"
         stop-color="#134e0f"
         id="stop2924-7" />
      <stop
         offset="0.2097"
         stop-color="#357719"
         id="stop2926-4" />
      <stop
         offset="0.4804"
         stop-color="#5ca624"
         id="stop2928-0" />
      <stop
         offset="0.6158"
         stop-color="#6bb828"
         id="stop2930-6" />
    </linearGradient>
    <linearGradient
       id="linear-gradient-5-4"
       x1="9.8108397"
       y1="715.41821"
       x2="109.66595"
       y2="845.34546"
       gradientTransform="translate(-4.18,-717.5477)"
       gradientUnits="userSpaceOnUse">
      <stop
         offset="0.2397"
         stop-color="#4aba00"
         id="stop2933-7" />
      <stop
         offset="0.2683"
         stop-color="#49b802"
         id="stop2935-4" />
      <stop
         offset="1"
         stop-color="#2e7d32"
         id="stop2937-8" />
    </linearGradient>
    <linearGradient
       id="linearGradient6149"
       x1="25.159719"
       y1="747.26978"
       x2="94.432716"
       y2="820.74475"
       gradientTransform="translate(-4.18,-717.5477)"
       gradientUnits="userSpaceOnUse">
      <stop
         offset="0.0169"
         stop-color="#c5e1a5"
         id="stop6135" />
      <stop
         offset="0.1983"
         stop-color="#c1dea1"
         id="stop6137" />
      <stop
         offset="0.3788"
         stop-color="#b6d595"
         id="stop6139" />
      <stop
         offset="0.5591"
         stop-color="#a3c781"
         id="stop6141" />
      <stop
         offset="0.7392"
         stop-color="#88b265"
         id="stop6143" />
      <stop
         offset="0.9969"
         stop-color="#558b2f"
         id="stop6147" />
    </linearGradient>
    <linearGradient
       id="linear-gradient-2-6"
       x1="32.08392"
       y1="772.51514"
       x2="16.13192"
       y2="793.38013"
       gradientTransform="translate(-4.18,-717.5477)"
       xlink:href="#linear-gradient-1" />
    <linearGradient
       id="linear-gradient-3-9"
       x1="73.639999"
       y1="770.64734"
       x2="102.73054"
       y2="770.64734"
       gradientTransform="translate(-4.18,-717.5477)"
       xlink:href="#linear-gradient-1" />
    <linearGradient
       id="linear-gradient-6-0"
       x1="25.159719"
       y1="747.26978"
       x2="94.432716"
       y2="820.74475"
       gradientTransform="translate(-4.18,-717.5477)"
       gradientUnits="userSpaceOnUse">
      <stop
         offset="0.0169"
         stop-color="#c5e1a5"
         id="stop2940" />
      <stop
         offset="0.1983"
         stop-color="#c1dea1"
         id="stop2942" />
      <stop
         offset="0.3788"
         stop-color="#b6d595"
         id="stop2944" />
      <stop
         offset="0.5591"
         stop-color="#a3c781"
         id="stop2946" />
      <stop
         offset="0.7392"
         stop-color="#88b265"
         id="stop2948" />
      <stop
         offset="0.9176"
         stop-color="#669841"
         id="stop2950" />
      <stop
         offset="0.9969"
         stop-color="#558b2f"
         id="stop2952" />
    </linearGradient>
    <linearGradient
       inkscape:collect="always"
       xlink:href="#linear-gradient-1"
       id="linearGradient5480"
       gradientUnits="userSpaceOnUse"
       gradientTransform="rotate(14.57266,2375.9288,-345.54639)"
       x1="205.44579"
       y1="617.74463"
       x2="218.7858"
       y2="599.77856" />
    <linearGradient
       inkscape:collect="always"
       xlink:href="#linear-gradient-1"
       id="linearGradient5482"
       gradientTransform="translate(-4.18,-717.5477)"
       x1="32.08392"
       y1="772.51514"
       x2="16.13192"
       y2="793.38013" />
    <linearGradient
       inkscape:collect="always"
       xlink:href="#linear-gradient-1"
       id="linearGradient5484"
       gradientTransform="translate(-4.18,-717.5477)"
       x1="73.639999"
       y1="770.64734"
       x2="102.73054"
       y2="770.64734" />
    <linearGradient
       inkscape:collect="always"
       xlink:href="#linear-gradient-4-7"
       id="linearGradient5486"
       gradientUnits="userSpaceOnUse"
       gradientTransform="translate(-4.18,-717.5477)"
       x1="66.255386"
       y1="795.18823"
       x2="53.119389"
       y2="821.72821" />
    <linearGradient
       inkscape:collect="always"
       xlink:href="#linear-gradient-5-4"
       id="linearGradient5488"
       gradientUnits="userSpaceOnUse"
       gradientTransform="translate(-4.18,-717.5477)"
       x1="9.8108397"
       y1="715.41821"
       x2="94.080322"
       y2="856.33252" />
    <linearGradient
       inkscape:collect="always"
       xlink:href="#linearGradient6149"
       id="linearGradient5490"
       gradientUnits="userSpaceOnUse"
       gradientTransform="translate(-4.18,-717.5477)"
       x1="25.159719"
       y1="747.26978"
       x2="83.212936"
       y2="828.15796" />
  </defs>
  <g
     id="g3798-6-3"
     transform="matrix(4.2753994,0,0,4.2753994,0,-0.03198538)">
    <path
       d="m 79.02997,64.57234 c -3.01e-4,-1.886872 -0.160878,-3.770309 -0.48,-5.63 -0.81,-4.68 0.1,-5.41 2.56,-5.71 2.18,-0.26 8.91,2.02 10.97,0.2 1.57,-1.38 1.53,-2.42 1.62,-4.38 0.13,-2.69 2.72,-3.41 4.07,-3.7 0.195815,0.257841 0.481338,0.432724 0.8,0.49 1.104768,0.178165 1.87324,-1.068244 1.218132,-1.975318 -0.655109,-0.907074 -2.079922,-0.569443 -2.258132,0.535318 -0.0017,0.06682 0.0017,0.133675 0.01,0.2 -0.971595,0.07174 -1.925727,-0.28652 -2.61,-0.98 -0.44,-0.68 1.85,-3.5 3.08,-4.98 0.154385,0.105239 0.327507,0.179919 0.51,0.22 1.104768,0.178165 1.87324,-1.068244 1.218132,-1.975318 -0.655109,-0.907074 -2.079922,-0.569443 -2.258132,0.535318 -0.02811,0.205987 -0.004,0.415736 0.07,0.61 -1.14,1.13 -3.37,3.31 -3.98,3.18 -0.73,-0.16 -0.22,-4.84 0.05,-7.04 0.496026,-0.112749 0.872741,-0.517222 0.95,-1.02 0.26703,-1.653595 -2.21297,-2.053595 -2.48,-0.4 -0.08247,0.554328 0.216642,1.095182 0.73,1.32 -0.49,2.21 -1.44,6.9 -1.99,7.03 -0.59,0.15 -1.42,-3.36 -1.93,-5.59 0.294447,-0.189044 0.494465,-0.494526 0.55,-0.84 0.178165,-1.104768 -1.068244,-1.873241 -1.975318,-1.218132 -0.907074,0.655109 -0.569443,2.079922 0.535318,2.258132 h 0.05 c 0.3,2.11 0.63,5.44 0.32,6 -0.37,0.66 -2.04,0.55 -3.19,0.37 0.148894,-1.099966 -1.099438,-1.836515 -1.990296,-1.174557 -0.890859,0.661957 -0.545846,2.069722 0.550296,2.244557 0.380867,0.05678 0.766227,-0.0692 1.04,-0.34 1.69,0.74 3.55,1.61 3.99,3.07 0.37321,1.120003 -0.211537,2.333796 -1.32,2.74 0,0 -9.33,-0.36 -12.43,0.53 -2.11,0.6 -2.12,4.87 -1.96,8.21 -0.5,-0.5 -0.99,-1.02 -1.51,-1.49 -1.287213,-1.163444 -2.642975,-2.248722 -4.06,-3.25 -3.054289,-2.193373 -6.395556,-3.956539 -9.93,-5.24 -2.069241,-0.751886 -4.2106,-1.288064 -6.39,-1.6 -0.89,-0.13 -1.8,-0.27 -2.72,-0.43 0.810483,-1.662007 1.182271,-3.503736 1.08,-5.35 -0.09,-3.7 -1.46,-9.8 0.06,-12.69 0.946985,-1.63085 2.195902,-3.066426 3.68,-4.23 0.172706,0.168064 0.392417,0.279663 0.63,0.32 1.104768,0.178165 1.873241,-1.068244 1.218132,-1.975318 -0.655109,-0.907074 -2.079922,-0.569443 -2.258132,0.535318 -0.0339,0.247709 0.01162,0.499786 0.13,0.72 -1.12,0.91 -2.61,1.68 -3.32,1.12 -0.8,-0.62 0.64,-3.47 1.42,-4.99 0.06097,0.02931 0.124589,0.05275 0.19,0.07 1.104768,0.178165 1.873241,-1.068244 1.218132,-1.975318 -0.655109,-0.907074 -2.079922,-0.569443 -2.258132,0.535318 -0.05992,0.405638 0.08635,0.814446 0.39,1.09 -0.71,1.61 -2.11,4.59 -2.97,4.04 -0.54,-0.35 -0.13,-4.05 -0.29,-6.33 0.383079,-0.163717 0.657638,-0.509736 0.73,-0.92 0.178165,-1.104768 -1.068244,-1.873241 -1.975318,-1.218132 -0.907074,0.655109 -0.569443,2.079922 0.535318,2.258132 0.06,1.89 0.05,5.99 -0.92,6.35 -0.91,0.34 -2.37,-1.9 -3.76,-4.41 0.165946,-0.170248 0.277359,-0.386111 0.32,-0.62 0.178165,-1.104768 -1.068244,-1.873241 -1.975318,-1.218132 -0.907074,0.655109 -0.569443,2.079922 0.535318,2.258132 0.166219,0.02856 0.336593,0.02175 0.5,-0.02 0.85,1.4 2.89,4.88 2.13,5.87 -0.35,0.46 -2.24,0.39 -3.79,0.37 -0.09656,-0.512427 -0.50492,-0.908775 -1.02,-0.99 -1.001881,-0.171024 -1.781403,0.856648 -1.346751,1.775344 0.434652,0.918697 1.723589,0.967743 2.226751,0.08466 1.64,0.62 3.78,1.71 4.41,2.86 1.36,2.45 3.57,10.91 -0.64,13.38 -0.878634,0.51152 -1.79456,0.956112 -2.74,1.33 -2.338338,-0.688222 -4.471159,-1.941813 -6.21,-3.65 -1.589759,-1.571827 -2.38998,-3.774268 -2.18,-6 0.26,-2.81 0.72,-5.37 0.22,-8.48 -0.249503,-1.533038 -0.682618,-3.030474 -1.29,-4.46 -0.09,-0.22 -0.23,-0.46 -0.35,-0.7 -1.42,-2.74 -4.79,-6.62 -8.2,-10.07 -3.85,-3.89 -7.75,-7.23 -8.97,-7.72 -1.564924,-0.7385289 -3.432242,-0.068615 -4.17079,1.4963 L 9.42,3.8623 c -0.87,1.04 -1.98,4.14 -2.84,8.04 -1.18,5.35 -1.89,12.22 -0.86,17.46 1.62,8.21 6.4,11.68 9.02,13.66 1.94,1.47 2.29,2.29 5.45,5.25 1.81,1.69 3.21,8.21 4.37,10.46 0.59,1.15 1.23,2.31 1.93,3.46 l -0.17,2.65 c 0,0 -0.2,5.34 -1.27,7.47 -0.491846,1.112013 -1.22247,2.102112 -2.14,2.9 0,0 -3.66,-5.41 -3.05,-9.52 0.174128,-1.25845 0.414461,-2.506848 0.72,-3.74 0.541597,-0.07245 0.972033,-0.490705 1.06,-1.03 0.266303,-1.65307 -2.213697,-2.05307 -2.48,-0.4 -0.08414,0.538467 0.196881,1.067923 0.69,1.3 -0.23,1.18 -0.63,2.81 -1.61,2.78 -1.24,-0.04 -2.98,-4.9 -3.73,-7.1 1.204866,-0.687463 0.518268,-2.529516 -0.840798,-2.264763 -1.359066,0.264753 -1.304014,2.229834 0.0708,2.414763 0.04,0.01 0.07,-0.01 0.1,0 0.8,2 2.62,6.42 1.73,6.89 -0.83,0.44 -4.02,-3.34 -5.81,-5.4 C 10.63295,57.897492 9.0829106,56.396788 7.8668104,57.304326 6.6507102,58.211863 7.6482331,60.124893 9.09,59.6423 c 1.44,1.48 5.46,5.77 4.83,6.69 -0.55,0.81 -3.68,-0.11 -5.59,-0.85 C 8.348344,64.864407 7.9091997,64.327201 7.3,64.2223 6.3216758,64.052665 5.5426328,65.031602 5.9275104,65.94686 6.312388,66.862117 7.5569125,66.990118 8.12,66.1723 c 1.84,0.63 5.29,1.65 5.14,2.64 -0.13,0.89 -1.24,0.96 -2.64,1.4 C 9.8346548,69.087408 8.0757924,69.873528 8.3871236,71.207804 8.6984549,72.542081 10.6236,72.4686 10.83,71.1123 v -0.06 c 1.56,-0.38 4.34,-0.82 5.9,0.9 1.96,2.15 5.83,10.96 7.89,9.96 1.8,-0.87 6.14,-10.1 8.14,-12.44 2.143171,1.628005 4.489654,2.969333 6.98,3.99 1.737741,0.723568 3.517658,1.341362 5.33,1.85 2.18,0.63 4.4,1.14 6.62,1.62 1.62,0.36 3.36,0.7 5.13,1.1 -2.26,1.27 -7.62,4.36 -8.89,5.79 -1.63,1.83 -0.61,3.05 0.71,4.07 0.83,0.64 0.37,0.7 9.25,3.66 -1.150428,0.510978 -2.401958,0.753761 -3.66,0.71 -1.51,0 -3.45,-1 -4.72,-1.68 0,-0.02 0.01,-0.03 0.02,-0.05 0.178165,-1.104768 -1.068244,-1.873241 -1.975318,-1.218132 -0.907074,0.655109 -0.569443,2.079922 0.535318,2.258132 0.359767,0.05519 0.725577,-0.0509 1,-0.29 1.28,0.66 3.83,1.79 2.7,2.4 -1.07,0.57 -5.65,0.71 -8.09,1.24 -0.185343,-0.307898 -0.495719,-0.519684 -0.85,-0.58 -1.65307,-0.266303 -2.05307,2.213697 -0.4,2.48 0.609779,0.09248 1.194399,-0.278774 1.37,-0.87 1.59,-0.15 7.39,-0.57 7.76,0.17 0.34,0.67 -4.9,3.63 -7.32,5.65 -0.07763,-0.036 -0.157855,-0.0661 -0.24,-0.09 -1.104768,-0.17817 -1.873241,1.06824 -1.218132,1.97532 0.655109,0.90707 2.079922,0.56944 2.258132,-0.53532 0.02879,-0.16286 0.02196,-0.33003 -0.02,-0.49 1.65,-1.18 7.87,-5.3 8.79,-4.56 0.82,0.65 -1.35,5.78 -2.41,8.49 -1.024856,0.12132 -1.467869,1.3633 -0.751263,2.10587 0.716605,0.74257 1.973558,0.34402 2.131263,-0.67587 0.05992,-0.40564 -0.08635,-0.81445 -0.39,-1.09 0.94,-1.89 4.07,-7.99 4.71,-7.89 0.59,0.09 0.45,4.46 0.45,6.03 -0.297109,0.18815 -0.500592,0.49338 -0.56,0.84 -0.178165,1.10477 1.068244,1.87324 1.975318,1.21813 0.907074,-0.65511 0.569443,-2.07992 -0.535318,-2.25813 h -0.06 c 0.42,-2.85 0.96,-7.39 1.42,-7.7 0.61,-0.41 6.51,-3.35 6.2,-5.39 -0.31,-2.03 -4.78,-4.27 -7.93,-5.18 -3.15,-0.91 8.54,2.54 11.39,-1.73 0.39,-0.58 0.450431,-0.743039 1.03,-1.53 2.290492,-2.554056 9.960181,-9.93055 8.52997,-18.73996 z"
       transform="translate(0,-0.00187)"
       style="fill:none;stroke:#2e7d32;stroke-width:4px;stroke-linecap:round;stroke-linejoin:round"
       id="path3688-2-7"
       sodipodi:nodetypes="cccccccscccccsccccccccccsccccsccccccsccccccccscccccscccccsccccscccccscccccccccccccccccccccccccccccsccccsccccscccscccccccccccccccsccccccccccsccccscccccsccccsccc" />
    <path
       d="m 40.73,18.1523 c 0.3,0.52 3.37,5.25 2.46,6.43 -0.47,0.61 -3.62,0.28 -5.12,0.39 a 0.22377,0.22377 0 0 0 -0.04,0.44 c 1.53,0.4 4.83,1.79 5.64,3.26 1.36,2.45 3.57,10.91 -0.64,13.38 a 25.59967,25.59967 0 0 1 -9.08,3 l -0.87,3.76 7.16,1.13 7.73,-4.29 a 10.11168,10.11168 0 0 0 1.26,-5.66 c -0.09,-3.7 -1.46,-9.8 0.06,-12.69 1.46,-2.79 4.33,-4.63 4.55,-5.01 0.22,-0.37 -0.2,-0.51 -0.41,-0.28 -1.08,1.12 -3.18,2.49 -4.07,1.8 -1.01,-0.78 1.59,-5.18 1.85,-5.87 0.26,-0.69 -0.19,-0.96 -0.49,-0.32 -0.3,0.64 -2.28,5.66 -3.37,4.95 -0.65,-0.42 0.07,-5.64 -0.46,-7.48 -0.29,-1.02 -0.61,-0.18 -0.58,0.36 0.03,0.54 0.33,6.82 -0.88,7.26 -0.96,0.36 -2.52,-2.15 -3.98,-4.81 -0.62,-1.14 -1.27,-0.73 -0.72,0.25 z"
       transform="translate(0,-0.00187)"
       style="fill:url(#linearGradient5480)"
       id="path3690-8-8" />
    <path
       d="m 26.01,64.8623 c 0,0 -0.2,5.34 -1.27,7.47 a 8.28365,8.28365 0 0 1 -2.14,2.9 c 0,0 -3.66,-5.41 -3.05,-9.52 a 23.57045,23.57045 0 0 1 1.03,-4.74 c 0.19,-0.58 -0.57,-0.8 -0.8,-0.19 -0.24,0.61 -0.47,3.9 -1.84,3.85 -1.5,-0.05 -3.76,-7.24 -4.06,-8.08 -0.3,-0.84 -0.92,-0.57 -0.68,0.23 0.24,0.8 3.15,7.2 2.07,7.78 -0.94,0.5 -4.91,-4.43 -6.45,-6.11 -0.47,-0.52 -1.3,-0.18 -0.54,0.71 0,0 6.1,6.09 5.34,7.2 -0.66,0.96 -5,-0.53 -6.56,-1.25 -0.51,-0.24 -0.95,0.15 -0.32,0.64 0.63,0.5 6.4,1.81 6.21,3.09 -0.15,0.99 -1.52,0.96 -3.17,1.58 -1.07,0.4 -1.18,1.15 -0.2,0.9 0.98,-0.25 4.87,-1.5 6.83,0.66 1.96,2.16 5.83,10.96 7.89,9.96 2.06,-1 7.46,-12.96 8.84,-12.98 0.94,-0.01 -6.73,-10.5 -6.73,-10.5 z"
       transform="translate(0,-0.00187)"
       style="fill:url(#linearGradient5482)"
       id="path3692-9-7" />
    <path
       d="m 69.46,61.4423 c 0,0 3.35,1.73 3.46,-0.51 0.1,-2.24 -1.26,-10.9 1.8,-11.77 3.1,-0.89 12.43,-0.53 12.43,-0.53 a 2.18315,2.18315 0 0 0 1.32,-2.74 c -0.5,-1.67 -2.84,-2.56 -4.67,-3.37 -0.4,-0.18 -0.55,-0.82 0.08,-0.63 0.63,0.19 3.67,0.75 4.18,-0.16 0.42,-0.76 -0.33,-6.61 -0.6,-7.62 -0.27,-1.01 0.47,-1.11 0.71,-0.3 0.25,0.81 1.51,7.51 2.32,7.3 0.68,-0.17 2.01,-7.43 2.25,-8.12 0.25,-0.69 0.71,-0.54 0.66,0.1 -0.05,0.64 -1.09,7.92 -0.17,8.12 0.72,0.16 3.76,-2.98 4.5,-3.69 0.74,-0.71 1.03,-0.25 0.66,0.25 -0.37,0.49 -4.38,4.98 -3.81,5.86 0.54,0.84 2.39,1.18 3.32,0.89 0.93,-0.3 0.64,0.45 0.3,0.66 -0.34,0.22 -4.67,0.39 -4.85,3.89 -0.1,1.96 -0.05,3 -1.62,4.38 -2.07,1.82 -8.79,-0.46 -10.97,-0.2 -2.46,0.3 -3.37,1.03 -2.56,5.71 0.81,4.68 0.7,10.86 -1.23,12.89 -1.93,2.03 -2.54,1.8 -2.54,1.8 z"
       transform="translate(0,-0.00187)"
       style="fill:url(#linearGradient5484)"
       id="path3694-6-4" />
    <path
       d="m 57.51,77.4823 c 0,0 -8.29,4.53 -9.91,6.36 -1.62,1.83 -0.61,3.05 0.71,4.07 0.83,0.64 0.37,0.7 9.25,3.66 a 8.30519,8.30519 0 0 1 -3.66,0.71 c -1.75,0 -4.09,-1.35 -5.27,-1.98 -1.18,-0.63 -1.22,0.15 -0.41,0.7 0.81,0.55 4.55,1.99 3.23,2.7 -1.11,0.6 -6.02,0.72 -8.37,1.3 -1.48,0.37 -0.73,1.09 0.07,1 0.81,-0.1 7.69,-0.67 8.09,0.14 0.35,0.7 -5.35,3.88 -7.61,5.9 -1.37,1.22 0.07,1.4 0.7,0.89 0.63,-0.52 8.15,-5.66 9.17,-4.84 0.85,0.68 -1.56,6.29 -2.55,8.86 -0.55,1.44 0.59,1.11 0.89,0.48 0.3,-0.63 4.24,-8.52 4.97,-8.41 0.64,0.1 0.42,5.24 0.45,6.37 0.03,1.13 0.63,0.71 0.73,0.06 0.42,-2.76 1.01,-7.97 1.5,-8.3 0.61,-0.41 6.51,-3.35 6.2,-5.39 -0.3,-2.03 -4.78,-4.27 -7.93,-5.18 -3.15,-0.91 8.54,2.54 11.39,-1.73 2.85,-4.27 3.35,-4.88 3.35,-4.88 z"
       transform="translate(0,-0.00187)"
       style="fill:url(#linearGradient5486)"
       id="path3696-0-1" />
    <circle
       cx="87.889999"
       cy="34.480419"
       r="1.25"
       style="fill:#6bb828"
       id="circle3698-7-9" />
    <circle
       cx="40.759998"
       cy="17.490431"
       r="1.25"
       style="fill:#6bb828"
       id="circle3700-0-0" />
    <circle
       cx="8.3900003"
       cy="58.480419"
       r="1.25"
       style="fill:#6bb828"
       id="circle3702-1-9" />
    <circle
       cx="6.77"
       cy="65.480423"
       r="1.25"
       style="fill:#6bb828"
       id="circle3704-0-8" />
    <circle
       cx="9.2600002"
       cy="70.930428"
       r="1.25"
       style="fill:#6bb828"
       id="circle3706-1-8" />
    <circle
       cx="47.970001"
       cy="90.350433"
       r="1.25"
       style="fill:#6bb828"
       id="circle3708-3-5" />
    <circle
       cx="42.32"
       cy="95.600433"
       r="1.25"
       style="fill:#6bb828"
       id="circle3710-7-8" />
    <circle
       cx="43.5"
       cy="102.95043"
       r="1.25"
       style="fill:#6bb828"
       id="circle3712-7-4" />
    <circle
       cx="51.25"
       cy="107.80042"
       r="1.25"
       style="fill:#6bb828"
       id="circle3714-2-3" />
    <circle
       cx="57.939999"
       cy="106.09043"
       r="1.25"
       style="fill:#6bb828"
       id="circle3716-6-7" />
    <circle
       cx="20.08"
       cy="60.740429"
       r="1.25"
       style="fill:#6bb828"
       id="circle3718-4-1" />
    <circle
       cx="46.549999"
       cy="15.13043"
       r="1.25"
       style="fill:#6bb828"
       id="circle3720-5-3" />
    <circle
       cx="51.18"
       cy="17.660431"
       r="1.25"
       style="fill:#6bb828"
       id="circle3722-2-8" />
    <circle
       cx="53.799999"
       cy="22.170429"
       r="1.25"
       style="fill:#6bb828"
       id="circle3724-0-0" />
    <circle
       cx="38.189999"
       cy="25.20043"
       r="1.25"
       style="fill:#6bb828"
       id="circle3726-2-9" />
    <circle
       cx="13.62"
       cy="56.430431"
       r="1.25"
       style="fill:#6bb828"
       id="circle3728-9-7" />
    <circle
       cx="93.010002"
       cy="32.950432"
       r="1.25"
       style="fill:#6bb828"
       id="circle3730-0-9" />
    <circle
       cx="98.389999"
       cy="37.620419"
       r="1.25"
       style="fill:#6bb828"
       id="circle3732-9-9" />
    <circle
       cx="98.440002"
       cy="44.610432"
       r="1.25"
       style="fill:#6bb828"
       id="circle3734-9-3" />
    <circle
       cx="83.629997"
       cy="41.910431"
       r="1.25"
       style="fill:#6bb828"
       id="circle3736-4-2" />
    <path
       d="m 79.77997,66.17234 c -2.391348,-3.786688 -5.261759,-7.248659 -8.54,-10.3 -1.287207,-1.16345 -2.64297,-2.248728 -4.06,-3.25 -3.054292,-2.193369 -6.395558,-3.956535 -9.93,-5.24 -2.06924,-0.75189 -4.210599,-1.288067 -6.39,-1.6 -3.4074,-0.44583 -6.769906,-1.185247 -10.05,-2.21 -2.540138,-0.684678 -4.863473,-2.006397 -6.75,-3.84 -1.589759,-1.571827 -2.38998,-3.774268 -2.18,-6 0.26,-2.81 0.72,-5.37 0.22,-8.48 -0.249508,-1.533037 -0.682622,-3.030472 -1.29,-4.46 -0.09,-0.22 -0.23,-0.46 -0.35,-0.7 -1.42,-2.74 -4.79,-6.62 -8.2,-10.07 1.81,4.83 2.21,9.9 -0.32,14.98 0,1.05 -3.15,3.15 -6.3,2.1 -6.42,-2.57 -8.91,-8.68 -9.4,-15.19 -1.18,5.35 -1.89,12.22 -0.86,17.46 1.62,8.21 6.4,11.68 9.02,13.66 1.94,1.47 2.29,2.29 5.45,5.25 1.81,1.69 3.21,8.21 4.37,10.46 1.583518,3.30195 3.660664,6.343486 6.16,9.02 0.38,0.38 0.77,0.74 1.18,1.08 2.36025,1.933855 5.000306,3.498332 7.83,4.64 1.737738,0.723576 3.517655,1.341371 5.33,1.85 2.18,0.63 4.4,1.14 6.62,1.62 2.1,0.46 4.39,0.91 6.71,1.45 3.475517,0.725047 6.836304,1.91932 9.99,3.55 1.581151,1.150882 2.856213,2.021755 3.863802,2.830102 2.023365,-2.041992 4.187843,-4.72207 5.713286,-7.038654 1.279908,-1.945185 2.947279,-5.522538 3.383157,-7.608659 0.435879,-2.086122 -0.359733,-2.681013 -1.220245,-3.962794 z"
       transform="translate(0,-0.00187)"
       style="fill:url(#linearGradient5488)"
       id="path3738-5-4"
       sodipodi:nodetypes="ccccccccccccccccccccccccccccscc" />
    <path
       d="m 15.66,27.1023 c 3.15,1.05 6.3,-1.05 6.3,-2.1 2.54,-5.07 2.13,-10.14 0.32,-14.98 -3.85,-3.89 -7.75,-7.23 -8.97,-7.72 A 3.13326,3.13326 0 0 0 9.13918,3.79864 L 9.11,3.8623 c -0.87,1.04 -1.98,4.14 -2.84,8.04 0.48,6.53 2.97,12.63 9.39,15.2 z"
       transform="translate(0,-0.00187)"
       style="fill:#aed581"
       id="path3740-1-3" />
    <path
       d="m 6.26,27.7523 a 5.58,5.58 0 1 1 5.58,-5.58 5.58,5.58 0 0 1 -5.58,5.58 z"
       transform="translate(0,-0.00187)"
       style="fill:#ffffff"
       id="path3742-0-7" />
    <path
       d="m 6.26,17.2723 a 4.9,4.9 0 1 1 -4.9,4.9 v 0 a 4.89514,4.89514 0 0 1 4.89028,-4.9 H 6.26 m 0,-1.37 a 6.26,6.26 0 1 0 6.26,6.26 6.26,6.26 0 0 0 -6.26,-6.26 z"
       transform="translate(0,-0.00187)"
       style="fill:#b3b3b3"
       id="path3744-3-1" />
    <circle
       cx="4.9099998"
       cy="19.87043"
       r="2.3900001"
       id="circle3746-7-2" />
    <path
       d="m 25.34,20.2023 a 5.58,5.58 0 1 1 5.58,-5.58 v 0 a 5.58225,5.58225 0 0 1 -5.58,5.58 z"
       transform="translate(0,-0.00187)"
       style="fill:#ffffff"
       id="path3748-8-2" />
    <path
       d="m 25.33,9.7223 a 4.9,4.9 0 1 1 -4.9,4.9 v 0 a 4.89515,4.89515 0 0 1 4.89028,-4.9 H 25.33 m 0,-1.36 a 6.26,6.26 0 1 0 6.26,6.26 6.26,6.26 0 0 0 -6.26,-6.26 z"
       transform="translate(0,-0.00187)"
       style="fill:#b3b3b3"
       id="path3750-8-0" />
    <circle
       cx="25.639999"
       cy="12.22043"
       r="2.3900001"
       id="circle3752-6-2" />
    <path
       d="m 22.59,32.1823 c 0,0 0.11,0.4 0.33,1.14 0.21,0.78 0.54,1.74 0.99,3.02 0.533691,1.509081 1.199611,2.968082 1.99,4.36 1.030649,1.760908 2.280638,3.383877 3.72,4.83 1.811762,1.774269 3.746576,3.418359 5.79,4.92 1.09,0.82 2.29,1.74 3.43,2.51 l 0.92,0.64 0.89,0.56 c 0.58,0.38 1.2,0.75 1.86,1.12 2.684894,1.534029 5.445027,2.932452 8.27,4.19 2.92,1.32 5.95,2.62 8.97,4.05 3.056494,1.405228 6.028229,2.987928 8.9,4.74 l 0.54,0.33 0.3,0.19 0.25,0.17 c 0.34,0.24 0.65,0.43 1.01,0.71 0.72,0.53 0,0 2.03,1.6 3.584377,2.864661 3.701135,3.688518 5.333409,5.678434 -0.836564,1.47379 -1.763288,2.654087 -2.124617,3.093649 -0.162183,-0.210392 -0.02838,-0.047 -0.593767,-0.783041 C 74.45463,78.224667 74.646916,78.424232 73.54,77.3423 c -1.033911,-1.061653 -2.139873,-2.05067 -3.31,-2.96 -0.59,-0.46 -1.2,-0.9 -1.8,-1.29 -0.28,-0.2 -0.66,-0.42 -0.99,-0.63 l -0.26,-0.16 -0.22,-0.13 -0.51,-0.29 c -2.76767,-1.589461 -5.629642,-3.008759 -8.57,-4.25 -5.96,-2.57 -12.2,-4.96 -17.81,-8.12 -0.7,-0.38 -1.39,-0.8 -2.08,-1.24 l -1.02,-0.65 -0.92,-0.64 c -1.32,-0.9 -2.43,-1.75 -3.61,-2.62 -2.244418,-1.64636 -4.35135,-3.472368 -6.3,-5.46 -1.704647,-1.770991 -3.15516,-3.770075 -4.31,-5.94 -0.872524,-1.652103 -1.595409,-3.378994 -2.16,-5.16 -0.47,-1.45 -0.76,-2.67 -0.92,-3.39 -0.17,-0.75 -0.26,-1.16 -0.26,-1.16 -0.572102,-2.648551 3.304877,-3.660348 4.1,-1.07 z"
       transform="translate(0,-0.00187)"
       style="fill:url(#linearGradient5490)"
       id="path3754-0-1"
       sodipodi:nodetypes="cccccccccccccccccccccccccccccccccccccccc" />
  </g>
</svg>
