<?xml version="1.0" encoding="UTF-8" standalone="no"?>
<!-- Created with Inkscape (http://www.inkscape.org/) -->

<svg
   width="210mm"
   height="297mm"
   viewBox="0 0 210 297"
   version="1.1"
   id="svg5"
   inkscape:version="1.1.2 (b8e25be833, 2022-02-05)"
   sodipodi:docname="lizard_green_to_red.svg"
   xmlns:inkscape="http://www.inkscape.org/namespaces/inkscape"
   xmlns:sodipodi="http://sodipodi.sourceforge.net/DTD/sodipodi-0.dtd"
   xmlns:xlink="http://www.w3.org/1999/xlink"
   xmlns="http://www.w3.org/2000/svg"
   xmlns:svg="http://www.w3.org/2000/svg">
  <sodipodi:namedview
     id="namedview7"
     pagecolor="#ffffff"
     bordercolor="#666666"
     borderopacity="1.0"
     inkscape:pageshadow="2"
     inkscape:pageopacity="0.0"
     inkscape:pagecheckerboard="0"
     inkscape:document-units="mm"
     showgrid="true"
     inkscape:zoom="1.4805976"
     inkscape:cx="157.03118"
     inkscape:cy="87.802382"
     inkscape:window-width="1920"
     inkscape:window-height="1017"
     inkscape:window-x="-8"
     inkscape:window-y="-8"
     inkscape:window-maximized="1"
     inkscape:current-layer="g1769">
    <inkscape:grid
       type="xygrid"
       id="grid5053"
       color="#8f8faf"
       opacity="0.06666667"
       empcolor="#8585b9"
       empopacity="0.25098039" />
  </sodipodi:namedview>
  <defs
     id="defs2">
    <marker
       style="overflow:visible"
       id="TriangleOutS"
       refX="0.0"
       refY="0.0"
       orient="auto"
       inkscape:stockid="TriangleOutS"
       inkscape:isstock="true">
      <path
         transform="scale(0.2)"
         style="fill-rule:evenodd;fill:context-stroke;stroke:context-stroke;stroke-width:1.0pt"
         d="M 5.77,0.0 L -2.88,5.0 L -2.88,-5.0 L 5.77,0.0 z "
         id="path8279" />
    </marker>
    <marker
       style="overflow:visible;"
       id="marker9330"
       refX="0.0"
       refY="0.0"
       orient="auto"
       inkscape:stockid="Arrow2Send"
       inkscape:isstock="true">
      <path
         transform="scale(0.3) rotate(180) translate(-2.3,0)"
         d="M 8.7185878,4.0337352 L -2.2072895,0.016013256 L 8.7185884,-4.0017078 C 6.9730900,-1.6296469 6.9831476,1.6157441 8.7185878,4.0337352 z "
         style="stroke:context-stroke;fill-rule:evenodd;fill:context-stroke;stroke-width:0.62500000;stroke-linejoin:round;"
         id="path9328" />
    </marker>
    <marker
       style="overflow:visible"
       id="TriangleOutM"
       refX="0.0"
       refY="0.0"
       orient="auto"
       inkscape:stockid="TriangleOutM"
       inkscape:isstock="true">
      <path
         transform="scale(0.4)"
         style="fill-rule:evenodd;fill:context-stroke;stroke:context-stroke;stroke-width:1.0pt"
         d="M 5.77,0.0 L -2.88,5.0 L -2.88,-5.0 L 5.77,0.0 z "
         id="path8276" />
    </marker>
    <marker
       style="overflow:visible;"
       id="marker8417"
       refX="0.0"
       refY="0.0"
       orient="auto"
       inkscape:stockid="Arrow2Send"
       inkscape:isstock="true">
      <path
         transform="scale(0.3) rotate(180) translate(-2.3,0)"
         d="M 8.7185878,4.0337352 L -2.2072895,0.016013256 L 8.7185884,-4.0017078 C 6.9730900,-1.6296469 6.9831476,1.6157441 8.7185878,4.0337352 z "
         style="stroke:context-stroke;fill-rule:evenodd;fill:context-stroke;stroke-width:0.62500000;stroke-linejoin:round;"
         id="path8415" />
    </marker>
    <marker
       style="overflow:visible;"
       id="Arrow2Send"
       refX="0.0"
       refY="0.0"
       orient="auto"
       inkscape:stockid="Arrow2Send"
       inkscape:isstock="true">
      <path
         transform="scale(0.3) rotate(180) translate(-2.3,0)"
         d="M 8.7185878,4.0337352 L -2.2072895,0.016013256 L 8.7185884,-4.0017078 C 6.9730900,-1.6296469 6.9831476,1.6157441 8.7185878,4.0337352 z "
         style="stroke:context-stroke;fill-rule:evenodd;fill:context-stroke;stroke-width:0.62500000;stroke-linejoin:round;"
         id="path8164" />
    </marker>
    <marker
       style="overflow:visible;"
       id="Arrow1Send"
       refX="0.0"
       refY="0.0"
       orient="auto"
       inkscape:stockid="Arrow1Send"
       inkscape:isstock="true">
      <path
         transform="scale(0.2) rotate(180) translate(6,0)"
         style="fill-rule:evenodd;fill:context-stroke;stroke:context-stroke;stroke-width:1.0pt;"
         d="M 0.0,0.0 L 5.0,-5.0 L -12.5,0.0 L 5.0,5.0 L 0.0,0.0 z "
         id="path8146" />
    </marker>
    <marker
       style="overflow:visible;"
       id="Arrow1Mend"
       refX="0.0"
       refY="0.0"
       orient="auto"
       inkscape:stockid="Arrow1Mend"
       inkscape:isstock="true">
      <path
         transform="scale(0.4) rotate(180) translate(10,0)"
         style="fill-rule:evenodd;fill:context-stroke;stroke:context-stroke;stroke-width:1.0pt;"
         d="M 0.0,0.0 L 5.0,-5.0 L -12.5,0.0 L 5.0,5.0 L 0.0,0.0 z "
         id="path8140" />
    </marker>
    <style
       id="style1083">.cls-1,.cls-3{fill:red;}.cls-1{stroke:#2e7d32;stroke-linecap:round;stroke-linejoin:round;stroke-width:4px;}.cls-2{fill:#ff0007;}.cls-4{fill:#fc3d3d;}.cls-5{fill:#fff;}.cls-6{fill:#b3b3b3;}.cls-7{fill:url(#linear-gradient);}</style>
    <linearGradient
       id="linear-gradient"
       x1="25.1594"
       y1="96.7299"
       x2="94.4324"
       y2="23.2549"
       gradientTransform="matrix(1,0,0,-1,0,130)"
       gradientUnits="userSpaceOnUse">
      <stop
         offset="0.0169"
         stop-color="#c5e1a5"
         id="stop1085" />
      <stop
         offset="0.1983"
         stop-color="#c1dea1"
         id="stop1087" />
      <stop
         offset="0.3788"
         stop-color="#b6d595"
         id="stop1089" />
      <stop
         offset="0.5591"
         stop-color="#a3c781"
         id="stop1091" />
      <stop
         offset="0.7392"
         stop-color="#88b265"
         id="stop1093" />
      <stop
         offset="0.9176"
         stop-color="#669841"
         id="stop1095" />
      <stop
         offset="0.9969"
         stop-color="#558b2f"
         id="stop1097" />
    </linearGradient>
    <style
       id="style1378">.cls-1{fill:none;stroke:#2e7d32;stroke-linecap:round;stroke-linejoin:round;stroke-width:4px;}.cls-2{fill:url(#linear-gradient);}.cls-3{fill:url(#linear-gradient-2);}.cls-4{fill:url(#linear-gradient-3);}.cls-5{fill:url(#linear-gradient-4);}.cls-6{fill:#6bb828;}.cls-7{fill:url(#linear-gradient-5);}.cls-8{fill:#aed581;}.cls-9{fill:#fff;}.cls-10{fill:#b3b3b3;}.cls-11{fill:url(#linear-gradient-6);}</style>
    <linearGradient
       id="linear-gradient-8"
       x1="122.4818"
       y1="152.94154"
       x2="135.8218"
       y2="170.90754"
       gradientTransform="matrix(0.9678, 0.2516, 0.2516, -0.9678, -119.93898, 161.37339)"
       gradientUnits="userSpaceOnUse">
      <stop
         offset="0"
         stop-color="#13630f"
         id="stop1380" />
      <stop
         offset="0.1391"
         stop-color="#2a7915"
         id="stop1382" />
      <stop
         offset="0.457"
         stop-color="#59a623"
         id="stop1384" />
      <stop
         offset="0.6158"
         stop-color="#6bb828"
         id="stop1386" />
    </linearGradient>
    <linearGradient
       id="linear-gradient-2"
       x1="32.08392"
       y1="69.37472"
       x2="16.13192"
       y2="48.50972"
       gradientTransform="matrix(1, 0, 0, -1, 0, 127.88983)"
       xlink:href="#linear-gradient-8" />
    <linearGradient
       id="linear-gradient-3"
       x1="73.64"
       y1="71.24247"
       x2="102.73054"
       y2="71.24247"
       gradientTransform="matrix(1, 0, 0, -1, 0, 127.88983)"
       xlink:href="#linear-gradient-8" />
    <linearGradient
       id="linear-gradient-4"
       x1="66.25539"
       y1="46.70162"
       x2="53.11939"
       y2="20.16162"
       gradientTransform="matrix(1, 0, 0, -1, 0, 127.88983)"
       gradientUnits="userSpaceOnUse">
      <stop
         offset="0"
         stop-color="#134e0f"
         id="stop1391" />
      <stop
         offset="0.2097"
         stop-color="#357719"
         id="stop1393" />
      <stop
         offset="0.4804"
         stop-color="#5ca624"
         id="stop1395" />
      <stop
         offset="0.6158"
         stop-color="#6bb828"
         id="stop1397" />
    </linearGradient>
    <linearGradient
       id="linear-gradient-5"
       x1="9.79855"
       y1="126.46215"
       x2="109.65365"
       y2="-3.46506"
       gradientTransform="matrix(1,0,0,-1,0,127.88983)"
       gradientUnits="userSpaceOnUse">
      <stop
         offset="0.2397"
         stop-color="#4aba00"
         id="stop1400" />
      <stop
         offset="0.2683"
         stop-color="#49b802"
         id="stop1402" />
      <stop
         offset="1"
         stop-color="#2e7d32"
         id="stop1404" />
    </linearGradient>
    <linearGradient
       id="linear-gradient-6"
       x1="25.1594"
       y1="94.61976"
       x2="94.4324"
       y2="21.14475"
       gradientTransform="matrix(1,0,0,-1,0,127.88983)"
       gradientUnits="userSpaceOnUse">
      <stop
         offset="0.0169"
         stop-color="#c5e1a5"
         id="stop1407" />
      <stop
         offset="0.1983"
         stop-color="#c1dea1"
         id="stop1409" />
      <stop
         offset="0.3788"
         stop-color="#b6d595"
         id="stop1411" />
      <stop
         offset="0.5591"
         stop-color="#a3c781"
         id="stop1413" />
      <stop
         offset="0.7392"
         stop-color="#88b265"
         id="stop1415" />
      <stop
         offset="0.9176"
         stop-color="#669841"
         id="stop1417" />
      <stop
         offset="0.9969"
         stop-color="#558b2f"
         id="stop1419" />
    </linearGradient>
    <linearGradient
       inkscape:collect="always"
       xlink:href="#linear-gradient-8"
       id="linearGradient1556"
       gradientUnits="userSpaceOnUse"
       gradientTransform="matrix(0.9678,0.2516,0.2516,-0.9678,-119.93898,161.37339)"
       x1="122.4818"
       y1="152.94154"
       x2="135.8218"
       y2="170.90754" />
    <linearGradient
       inkscape:collect="always"
       xlink:href="#linear-gradient-8"
       id="linearGradient1558"
       gradientTransform="matrix(1,0,0,-1,0,127.88983)"
       x1="32.08392"
       y1="69.37472"
       x2="16.13192"
       y2="48.50972" />
    <linearGradient
       inkscape:collect="always"
       xlink:href="#linear-gradient-8"
       id="linearGradient1560"
       gradientTransform="matrix(1,0,0,-1,0,127.88983)"
       x1="73.64"
       y1="71.24247"
       x2="102.73054"
       y2="71.24247" />
    <linearGradient
       inkscape:collect="always"
       xlink:href="#linear-gradient-4"
       id="linearGradient1562"
       gradientUnits="userSpaceOnUse"
       gradientTransform="matrix(1,0,0,-1,0,127.88983)"
       x1="66.25539"
       y1="46.70162"
       x2="53.11939"
       y2="20.16162" />
    <style
       id="style1644">.cls-1,.cls-3{fill:red;}.cls-1{stroke:#2e7d32;stroke-linecap:round;stroke-linejoin:round;stroke-width:4px;}.cls-2{fill:#ff0007;}.cls-4{fill:#fc3d3d;}.cls-5{fill:#fff;}.cls-6{fill:#b3b3b3;}.cls-7{fill:url(#linear-gradient);}</style>
  </defs>
  <g
     inkscape:label="Layer 1"
     inkscape:groupmode="layer"
     id="layer1">
    <g
       id="g1554"
       transform="matrix(0.26458333,0,0,0.26458333,39.911901,29.545118)">
      <path
         class="cls-1"
         d="m 121.44,108.67 a 7.34068,7.34068 0 0 0 -2.24,-2.97 7.0763,7.0763 0 0 0 -2.97,-1.4 7.36221,7.36221 0 0 0 -2.76,-0.04 7.73454,7.73454 0 0 0 -2,0.63 7.64067,7.64067 0 0 0 -1.16,0.69 c -0.25,0.19 -0.38,0.29 -0.38,0.29 a 0.39161,0.39161 0 0 0 -0.08,0.53 0.3991,0.3991 0 0 0 0.57,0.09 c 0,0 0.12,-0.08 0.35,-0.24 a 7.17564,7.17564 0 0 1 1.06,-0.54 6.8797,6.8797 0 0 1 1.78,-0.45 6.22521,6.22521 0 0 1 2.32,0.17 5.74836,5.74836 0 0 1 2.39,1.3 5.85957,5.85957 0 0 1 1.65,2.48 5.67844,5.67844 0 0 1 0.11,3.12 8.76974,8.76974 0 0 1 -1.38,3.06 10.53955,10.53955 0 0 1 -10.76,4.34 c -0.19,-0.04 -0.38,-0.1 -0.57,-0.15 a 20.97368,20.97368 0 0 1 -3.32,-2.07 c -3.44,-2.68 -5.07,-7.05 -6.01,-11.3 -1.05,-4.76 -2.01,-9.35 -3.47,-14.01 -0.85,-2.71 -1.79,-5.4 -2.86,-8.04 -0.87,-2.15 -1.85,-4.32 -2.91,-6.47 a 76.26977,76.26977 0 0 0 -4.49,-7.97 c -0.35,-0.54 -0.73,-1.07 -1.1,-1.6 a 33.3193,33.3193 0 0 0 -0.48,-5.63 c -0.81,-4.68 0.1,-5.41 2.56,-5.71 2.18,-0.26 8.91,2.02 10.97,0.2 1.57,-1.38 1.53,-2.42 1.62,-4.38 0.13,-2.69 2.72,-3.41 4.07,-3.7 a 1.29138,1.29138 0 0 0 0.8,0.49 1.256,1.256 0 1 0 -1.04,-1.44 1.3402,1.3402 0 0 0 0.01,0.2 3.32294,3.32294 0 0 1 -2.61,-0.98 c -0.44,-0.68 1.85,-3.5 3.08,-4.98 a 1.46257,1.46257 0 0 0 0.51,0.22 1.256,1.256 0 1 0 -1.04,-1.44 1.24149,1.24149 0 0 0 0.07,0.61 c -1.14,1.13 -3.37,3.31 -3.98,3.18 -0.73,-0.16 -0.22,-4.84 0.05,-7.04 A 1.239,1.239 0 0 0 98.75,36.7 1.2560255,1.2560255 0 1 0 96.27,36.3 1.24158,1.24158 0 0 0 97,37.62 c -0.49,2.21 -1.44,6.9 -1.99,7.03 -0.59,0.15 -1.42,-3.36 -1.93,-5.59 a 1.23022,1.23022 0 0 0 0.55,-0.84 1.256,1.256 0 1 0 -1.44,1.04 h 0.05 c 0.3,2.11 0.63,5.44 0.32,6 -0.37,0.66 -2.04,0.55 -3.19,0.37 a 1.25384,1.25384 0 1 0 -1.44,1.07 1.22253,1.22253 0 0 0 1.04,-0.34 c 1.69,0.74 3.55,1.61 3.99,3.07 a 2.18314,2.18314 0 0 1 -1.32,2.74 c 0,0 -9.33,-0.36 -12.43,0.53 -2.11,0.6 -2.12,4.87 -1.96,8.21 -0.5,-0.5 -0.99,-1.02 -1.51,-1.49 a 43.43672,43.43672 0 0 0 -4.06,-3.25 41.03606,41.03606 0 0 0 -9.93,-5.24 31.9767,31.9767 0 0 0 -6.39,-1.6 C 54.47,49.2 53.56,49.06 52.64,48.9 a 10.83836,10.83836 0 0 0 1.08,-5.35 c -0.09,-3.7 -1.46,-9.8 0.06,-12.69 a 14.8518,14.8518 0 0 1 3.68,-4.23 1.18855,1.18855 0 0 0 0.63,0.32 1.256,1.256 0 1 0 -1.04,-1.44 1.182,1.182 0 0 0 0.13,0.72 c -1.12,0.91 -2.61,1.68 -3.32,1.12 -0.8,-0.62 0.64,-3.47 1.42,-4.99 a 1.06575,1.06575 0 0 0 0.19,0.07 1.256,1.256 0 1 0 -1.04,-1.44 1.22933,1.22933 0 0 0 0.39,1.09 c -0.71,1.61 -2.11,4.59 -2.97,4.04 -0.54,-0.35 -0.13,-4.05 -0.29,-6.33 a 1.23347,1.23347 0 0 0 0.73,-0.92 1.256,1.256 0 1 0 -1.44,1.04 c 0.06,1.89 0.05,5.99 -0.92,6.35 -0.91,0.34 -2.37,-1.9 -3.76,-4.41 a 1.19549,1.19549 0 0 0 0.32,-0.62 1.256,1.256 0 1 0 -1.44,1.04 1.19928,1.19928 0 0 0 0.5,-0.02 c 0.85,1.4 2.89,4.88 2.13,5.87 -0.35,0.46 -2.24,0.39 -3.79,0.37 a 1.23349,1.23349 0 0 0 -1.02,-0.99 1.25608,1.25608 0 1 0 0.88,1.86 c 1.64,0.62 3.78,1.71 4.41,2.86 1.36,2.45 3.57,10.91 -0.64,13.38 a 20.24027,20.24027 0 0 1 -2.74,1.33 14.84059,14.84059 0 0 1 -6.21,-3.65 7.45313,7.45313 0 0 1 -2.18,-6 c 0.26,-2.81 0.72,-5.37 0.22,-8.48 A 19.357,19.357 0 0 0 35.32,24.34 C 35.23,24.12 35.09,23.88 34.97,23.64 33.55,20.9 30.18,17.02 26.77,13.57 22.92,9.68 19.02,6.34 17.8,5.85 a 3.13327,3.13327 0 0 0 -4.2,1.56 c -0.87,1.04 -1.98,4.14 -2.84,8.04 -1.18,5.35 -1.89,12.22 -0.86,17.46 1.62,8.21 6.4,11.68 9.02,13.66 1.94,1.47 2.29,2.29 5.45,5.25 1.81,1.69 3.21,8.21 4.37,10.46 0.59,1.15 1.23,2.31 1.93,3.46 l -0.17,2.65 c 0,0 -0.2,5.34 -1.27,7.47 a 8.28355,8.28355 0 0 1 -2.14,2.9 c 0,0 -3.66,-5.41 -3.05,-9.52 a 36.15825,36.15825 0 0 1 0.72,-3.74 1.24069,1.24069 0 0 0 1.06,-1.03 1.2560255,1.2560255 0 0 0 -2.48,-0.4 1.22735,1.22735 0 0 0 0.69,1.3 c -0.23,1.18 -0.63,2.81 -1.61,2.78 -1.24,-0.04 -2.98,-4.9 -3.73,-7.1 a 1.22436,1.22436 0 1 0 -0.77,0.15 c 0.04,0.01 0.07,-0.01 0.1,0 0.8,2 2.62,6.42 1.73,6.89 -0.83,0.44 -4.02,-3.34 -5.81,-5.4 a 1.33645,1.33645 0 1 0 -0.67,0.5 c 1.44,1.48 5.46,5.77 4.83,6.69 -0.55,0.81 -3.68,-0.11 -5.59,-0.85 a 1.24116,1.24116 0 0 0 -1.03,-1.26 1.25612,1.25612 0 1 0 0.82,1.95 c 1.84,0.63 5.29,1.65 5.14,2.64 -0.13,0.89 -1.24,0.96 -2.64,1.4 a 1.245,1.245 0 1 0 0.21,0.9 V 74.6 c 1.56,-0.38 4.34,-0.82 5.9,0.9 1.96,2.15 5.83,10.96 7.89,9.96 1.8,-0.87 6.14,-10.1 8.14,-12.44 a 30.932,30.932 0 0 0 6.98,3.99 46.68229,46.68229 0 0 0 5.33,1.85 c 2.18,0.63 4.4,1.14 6.62,1.62 1.62,0.36 3.36,0.7 5.13,1.1 -2.26,1.27 -7.62,4.36 -8.89,5.79 -1.63,1.83 -0.61,3.05 0.71,4.07 0.83,0.64 0.37,0.7 9.25,3.66 a 8.30513,8.30513 0 0 1 -3.66,0.71 c -1.51,0 -3.45,-1 -4.72,-1.68 0,-0.02 0.01,-0.03 0.02,-0.05 a 1.256,1.256 0 1 0 -1.44,1.04 1.2368,1.2368 0 0 0 1,-0.29 c 1.28,0.66 3.83,1.79 2.7,2.4 -1.07,0.57 -5.65,0.71 -8.09,1.24 a 1.23384,1.23384 0 0 0 -0.85,-0.58 1.2560255,1.2560255 0 0 0 -0.4,2.48 A 1.23584,1.23584 0 0 0 48,99.5 c 1.59,-0.15 7.39,-0.57 7.76,0.17 0.34,0.67 -4.9,3.63 -7.32,5.65 a 1.70417,1.70417 0 0 0 -0.24,-0.09 1.256,1.256 0 1 0 1.04,1.44 1.14549,1.14549 0 0 0 -0.02,-0.49 c 1.65,-1.18 7.87,-5.3 8.79,-4.56 0.82,0.65 -1.35,5.78 -2.41,8.49 a 1.24795,1.24795 0 1 0 1.38,1.43 1.22932,1.22932 0 0 0 -0.39,-1.09 c 0.94,-1.89 4.07,-7.99 4.71,-7.89 0.59,0.09 0.45,4.46 0.45,6.03 a 1.24274,1.24274 0 0 0 -0.56,0.84 1.256,1.256 0 1 0 1.44,-1.04 h -0.06 c 0.42,-2.85 0.96,-7.39 1.42,-7.7 0.61,-0.41 6.51,-3.35 6.2,-5.39 -0.31,-2.03 -4.78,-4.27 -7.93,-5.18 -3.15,-0.91 8.54,2.54 11.39,-1.73 0.39,-0.58 0.72,-1.08 1.03,-1.53 a 15.042,15.042 0 0 1 2.38,2.13 36.3596,36.3596 0 0 1 5.71,8.44 71.90843,71.90843 0 0 0 4.64,9.19 47.62748,47.62748 0 0 0 8.42,9.72 37.264,37.264 0 0 0 5.12,3.91 16.32873,16.32873 0 0 0 9.82,2.36 c 0.3,-0.03 0.6,-0.07 0.9,-0.13 l 0.23,-0.04 0.24,-0.05 0.41,-0.1 a 13.73784,13.73784 0 0 0 1.84,-0.63 13.04663,13.04663 0 0 0 5.98,-5.19 10.60311,10.60311 0 0 0 1.43,-3.81 7.12017,7.12017 0 0 0 -0.36,-3.99 z"
         transform="translate(-4.18,-3.5477)"
         id="path1424" />
      <path
         class="cls-2"
         d="m 44.91,21.7 c 0.3,0.52 3.37,5.25 2.46,6.43 -0.47,0.61 -3.62,0.28 -5.12,0.39 a 0.22377,0.22377 0 0 0 -0.04,0.44 c 1.53,0.4 4.83,1.79 5.64,3.26 1.36,2.45 3.57,10.91 -0.64,13.38 a 25.59975,25.59975 0 0 1 -9.08,3 l -0.87,3.76 7.16,1.13 7.73,-4.29 a 10.11162,10.11162 0 0 0 1.26,-5.66 c -0.09,-3.7 -1.46,-9.8 0.06,-12.69 1.46,-2.79 4.33,-4.63 4.55,-5.01 0.22,-0.37 -0.2,-0.51 -0.41,-0.28 -1.08,1.12 -3.18,2.49 -4.07,1.8 -1.01,-0.78 1.59,-5.18 1.85,-5.87 0.26,-0.69 -0.19,-0.96 -0.49,-0.32 -0.3,0.64 -2.28,5.66 -3.37,4.95 -0.65,-0.42 0.07,-5.64 -0.46,-7.48 -0.29,-1.02 -0.61,-0.18 -0.58,0.36 0.03,0.54 0.33,6.82 -0.88,7.26 -0.96,0.36 -2.52,-2.15 -3.98,-4.81 -0.62,-1.14 -1.27,-0.73 -0.72,0.25 z"
         transform="translate(-4.18,-3.5477)"
         id="path1426"
         style="fill:url(#linearGradient1556)" />
      <path
         class="cls-3"
         d="m 30.19,68.41 c 0,0 -0.2,5.34 -1.27,7.47 a 8.28367,8.28367 0 0 1 -2.14,2.9 c 0,0 -3.66,-5.41 -3.05,-9.52 a 23.56993,23.56993 0 0 1 1.03,-4.74 c 0.19,-0.58 -0.57,-0.8 -0.8,-0.19 -0.24,0.61 -0.47,3.9 -1.84,3.85 -1.5,-0.05 -3.76,-7.24 -4.06,-8.08 -0.3,-0.84 -0.92,-0.57 -0.68,0.23 0.24,0.8 3.15,7.2 2.07,7.78 -0.94,0.5 -4.91,-4.43 -6.45,-6.11 -0.47,-0.52 -1.3,-0.18 -0.54,0.71 0,0 6.1,6.09 5.34,7.2 -0.66,0.96 -5,-0.53 -6.56,-1.25 -0.51,-0.24 -0.95,0.15 -0.32,0.64 0.63,0.5 6.4,1.81 6.21,3.09 -0.15,0.99 -1.52,0.96 -3.17,1.58 -1.07,0.4 -1.18,1.15 -0.2,0.9 0.98,-0.25 4.87,-1.5 6.83,0.66 1.96,2.16 5.83,10.96 7.89,9.96 2.06,-1 7.46,-12.96 8.84,-12.98 0.94,-0.01 -6.73,-10.5 -6.73,-10.5 z"
         transform="translate(-4.18,-3.5477)"
         id="path1428"
         style="fill:url(#linearGradient1558)" />
      <path
         class="cls-4"
         d="m 73.64,64.99 c 0,0 3.35,1.73 3.46,-0.51 0.1,-2.24 -1.26,-10.9 1.8,-11.77 3.1,-0.89 12.43,-0.53 12.43,-0.53 a 2.18315,2.18315 0 0 0 1.32,-2.74 c -0.5,-1.67 -2.84,-2.56 -4.67,-3.37 -0.4,-0.18 -0.55,-0.82 0.08,-0.63 0.63,0.19 3.67,0.75 4.18,-0.16 0.42,-0.76 -0.33,-6.61 -0.6,-7.62 -0.27,-1.01 0.47,-1.11 0.71,-0.3 0.25,0.81 1.51,7.51 2.32,7.3 0.68,-0.17 2.01,-7.43 2.25,-8.12 0.25,-0.69 0.71,-0.54 0.66,0.1 -0.05,0.64 -1.09,7.92 -0.17,8.12 0.72,0.16 3.76,-2.98 4.5,-3.69 0.74,-0.71 1.03,-0.25 0.66,0.25 -0.37,0.49 -4.38,4.98 -3.81,5.86 0.54,0.84 2.39,1.18 3.32,0.89 0.93,-0.3 0.64,0.45 0.3,0.66 -0.34,0.22 -4.67,0.39 -4.85,3.89 -0.1,1.96 -0.05,3 -1.62,4.38 -2.07,1.82 -8.79,-0.46 -10.97,-0.2 -2.46,0.3 -3.37,1.03 -2.56,5.71 0.81,4.68 0.7,10.86 -1.23,12.89 -1.93,2.03 -2.54,1.8 -2.54,1.8 z"
         transform="translate(-4.18,-3.5477)"
         id="path1430"
         style="fill:url(#linearGradient1560)" />
      <path
         class="cls-5"
         d="m 61.69,81.03 c 0,0 -8.29,4.53 -9.91,6.36 -1.62,1.83 -0.61,3.05 0.71,4.07 0.83,0.64 0.37,0.7 9.25,3.66 a 8.30513,8.30513 0 0 1 -3.66,0.71 c -1.75,0 -4.09,-1.35 -5.27,-1.98 -1.18,-0.63 -1.22,0.15 -0.41,0.7 0.81,0.55 4.55,1.99 3.23,2.7 -1.11,0.6 -6.02,0.72 -8.37,1.3 -1.48,0.37 -0.73,1.09 0.07,1 0.81,-0.1 7.69,-0.67 8.09,0.14 0.35,0.7 -5.35,3.88 -7.61,5.9 -1.37,1.22 0.07,1.4 0.7,0.89 0.63,-0.52 8.15,-5.66 9.17,-4.84 0.85,0.68 -1.56,6.29 -2.55,8.86 -0.55,1.44 0.59,1.11 0.89,0.48 0.3,-0.63 4.24,-8.52 4.97,-8.41 0.64,0.1 0.42,5.24 0.45,6.37 0.03,1.13 0.63,0.71 0.73,0.06 0.42,-2.76 1.01,-7.97 1.5,-8.3 0.61,-0.41 6.51,-3.35 6.2,-5.39 -0.3,-2.03 -4.78,-4.27 -7.93,-5.18 -3.15,-0.91 8.54,2.54 11.39,-1.73 2.85,-4.27 3.35,-4.88 3.35,-4.88 z"
         transform="translate(-4.18,-3.5477)"
         id="path1432"
         style="fill:url(#linearGradient1562)" />
      <circle
         class="cls-6"
         cx="87.889999"
         cy="34.482288"
         r="1.25"
         id="circle1434" />
      <circle
         class="cls-6"
         cx="40.759998"
         cy="17.4923"
         r="1.25"
         id="circle1436" />
      <circle
         class="cls-6"
         cx="8.3900003"
         cy="58.482288"
         r="1.25"
         id="circle1438" />
      <circle
         class="cls-6"
         cx="6.77"
         cy="65.482292"
         r="1.25"
         id="circle1440" />
      <circle
         class="cls-6"
         cx="9.2600002"
         cy="70.932297"
         r="1.25"
         id="circle1442" />
      <circle
         class="cls-6"
         cx="47.970001"
         cy="90.352303"
         r="1.25"
         id="circle1444" />
      <circle
         class="cls-6"
         cx="42.32"
         cy="95.602303"
         r="1.25"
         id="circle1446" />
      <circle
         class="cls-6"
         cx="43.5"
         cy="102.9523"
         r="1.25"
         id="circle1448" />
      <circle
         class="cls-6"
         cx="51.25"
         cy="107.80229"
         r="1.25"
         id="circle1450" />
      <circle
         class="cls-6"
         cx="57.939999"
         cy="106.0923"
         r="1.25"
         id="circle1452" />
      <circle
         class="cls-6"
         cx="20.08"
         cy="60.742298"
         r="1.25"
         id="circle1454" />
      <circle
         class="cls-6"
         cx="46.549999"
         cy="15.1323"
         r="1.25"
         id="circle1456" />
      <circle
         class="cls-6"
         cx="51.18"
         cy="17.6623"
         r="1.25"
         id="circle1458" />
      <circle
         class="cls-6"
         cx="53.799999"
         cy="22.1723"
         r="1.25"
         id="circle1460" />
      <circle
         class="cls-6"
         cx="38.189999"
         cy="25.202299"
         r="1.25"
         id="circle1462" />
      <circle
         class="cls-6"
         cx="13.62"
         cy="56.432301"
         r="1.25"
         id="circle1464" />
      <circle
         class="cls-6"
         cx="93.010002"
         cy="32.952301"
         r="1.25"
         id="circle1466" />
      <circle
         class="cls-6"
         cx="98.389999"
         cy="37.622292"
         r="1.25"
         id="circle1468" />
      <circle
         class="cls-6"
         cx="98.440002"
         cy="44.612301"
         r="1.25"
         id="circle1470" />
      <circle
         class="cls-6"
         cx="83.629997"
         cy="41.9123"
         r="1.25"
         id="circle1472" />
      <path
         class="cls-7"
         d="m 121.09,108.67 a 7.34068,7.34068 0 0 0 -2.24,-2.97 7.07641,7.07641 0 0 0 -2.97,-1.4 7.36221,7.36221 0 0 0 -2.76,-0.04 7.73429,7.73429 0 0 0 -2,0.63 7.64087,7.64087 0 0 0 -1.16,0.69 c -0.25,0.19 -0.38,0.29 -0.38,0.29 a 0.39162,0.39162 0 0 0 -0.08,0.53 0.3991,0.3991 0 0 0 0.57,0.09 c 0,0 0.12,-0.08 0.35,-0.24 a 7.17585,7.17585 0 0 1 1.06,-0.54 6.87949,6.87949 0 0 1 1.78,-0.45 6.22524,6.22524 0 0 1 2.32,0.17 5.74842,5.74842 0 0 1 2.39,1.3 5.85957,5.85957 0 0 1 1.65,2.48 5.67854,5.67854 0 0 1 0.11,3.12 8.76977,8.76977 0 0 1 -1.38,3.06 10.53954,10.53954 0 0 1 -10.76,4.34 c -0.19,-0.04 -0.38,-0.1 -0.57,-0.15 a 20.97413,20.97413 0 0 1 -3.32,-2.07 c -3.44,-2.68 -5.07,-7.05 -6.01,-11.3 -1.05,-4.76 -2.01,-9.35 -3.47,-14.01 -0.85,-2.71 -1.79,-5.4 -2.86,-8.04 -0.87,-2.15 -1.85,-4.32 -2.91,-6.47 a 76.268,76.268 0 0 0 -4.49,-7.97 52.01275,52.01275 0 0 0 -8.54,-10.3 43.43658,43.43658 0 0 0 -4.06,-3.25 41.03643,41.03643 0 0 0 -9.93,-5.24 31.97687,31.97687 0 0 0 -6.39,-1.6 59.65537,59.65537 0 0 1 -10.05,-2.21 15.45609,15.45609 0 0 1 -6.75,-3.84 7.45313,7.45313 0 0 1 -2.18,-6 c 0.26,-2.81 0.72,-5.37 0.22,-8.48 a 19.357,19.357 0 0 0 -1.29,-4.46 c -0.09,-0.22 -0.23,-0.46 -0.35,-0.7 -1.42,-2.74 -4.79,-6.62 -8.2,-10.07 1.81,4.83 2.21,9.9 -0.32,14.98 0,1.05 -3.15,3.15 -6.3,2.1 -6.42,-2.57 -8.91,-8.68 -9.4,-15.19 -1.18,5.35 -1.89,12.22 -0.86,17.46 1.62,8.21 6.4,11.68 9.02,13.66 1.94,1.47 2.29,2.29 5.45,5.25 1.81,1.69 3.21,8.21 4.37,10.46 a 36.06764,36.06764 0 0 0 6.16,9.02 c 0.38,0.38 0.77,0.74 1.18,1.08 a 30.15942,30.15942 0 0 0 7.83,4.64 46.67775,46.67775 0 0 0 5.33,1.85 c 2.18,0.63 4.4,1.14 6.62,1.62 2.1,0.46 4.39,0.91 6.71,1.45 a 39.16327,39.16327 0 0 1 9.99,3.55 17.13272,17.13272 0 0 1 4.5,3.5 36.35966,36.35966 0 0 1 5.71,8.44 71.90961,71.90961 0 0 0 4.64,9.19 47.627,47.627 0 0 0 8.42,9.72 37.26322,37.26322 0 0 0 5.12,3.91 16.32874,16.32874 0 0 0 9.82,2.36 c 0.3,-0.03 0.6,-0.07 0.9,-0.13 l 0.23,-0.04 0.24,-0.05 0.41,-0.1 a 13.73987,13.73987 0 0 0 1.84,-0.63 13.04672,13.04672 0 0 0 5.98,-5.19 10.60325,10.60325 0 0 0 1.43,-3.81 7.239,7.239 0 0 0 -0.37,-4 z"
         transform="translate(-4.18,-3.5477)"
         id="path1474"
         style="fill:url(#linear-gradient-5)" />
      <path
         class="cls-8"
         d="m 19.84,30.65 c 3.15,1.05 6.3,-1.05 6.3,-2.1 2.54,-5.07 2.13,-10.14 0.32,-14.98 C 22.61,9.68 18.71,6.34 17.49,5.85 a 3.13327,3.13327 0 0 0 -4.2,1.56 c -0.87,1.04 -1.98,4.14 -2.84,8.04 0.48,6.53 2.97,12.63 9.39,15.2 z"
         transform="translate(-4.18,-3.5477)"
         id="path1476" />
      <path
         class="cls-9"
         d="m 10.44,31.3 a 5.58,5.58 0 1 1 5.58,-5.58 5.58224,5.58224 0 0 1 -5.58,5.58 z"
         transform="translate(-4.18,-3.5477)"
         id="path1478" />
      <path
         class="cls-10"
         d="m 10.44,20.82 a 4.9,4.9 0 1 1 -4.9,4.9 4.89514,4.89514 0 0 1 4.9,-4.9 m 0,-1.37 a 6.26,6.26 0 1 0 6.26,6.26 6.26937,6.26937 0 0 0 -6.26,-6.26 z"
         transform="translate(-4.18,-3.5477)"
         id="path1480" />
      <circle
         cx="4.9099998"
         cy="19.872299"
         r="2.3900001"
         id="circle1482" />
      <path
         class="cls-9"
         d="m 29.52,23.75 a 5.58,5.58 0 1 1 5.58,-5.58 5.58224,5.58224 0 0 1 -5.58,5.58 z"
         transform="translate(-4.18,-3.5477)"
         id="path1484" />
      <path
         class="cls-10"
         d="m 29.51,13.27 a 4.9,4.9 0 1 1 -4.9,4.9 4.89514,4.89514 0 0 1 4.9,-4.9 m 0,-1.36 a 6.26,6.26 0 1 0 6.26,6.26 6.26937,6.26937 0 0 0 -6.26,-6.26 z"
         transform="translate(-4.18,-3.5477)"
         id="path1486" />
      <circle
         cx="25.639999"
         cy="12.2223"
         r="2.3900001"
         id="circle1488" />
      <path
         class="cls-11"
         d="m 26.77,35.73 c 0,0 0.11,0.4 0.33,1.14 0.21,0.78 0.54,1.74 0.99,3.02 a 27.18713,27.18713 0 0 0 1.99,4.36 24.11224,24.11224 0 0 0 3.72,4.83 53.85676,53.85676 0 0 0 5.79,4.92 c 1.09,0.82 2.29,1.74 3.43,2.51 l 0.92,0.64 0.89,0.56 c 0.58,0.38 1.2,0.75 1.86,1.12 a 92.49337,92.49337 0 0 0 8.27,4.19 c 2.92,1.32 5.95,2.62 8.97,4.05 a 86.32316,86.32316 0 0 1 8.9,4.74 l 0.54,0.33 0.3,0.19 0.25,0.17 c 0.34,0.24 0.65,0.43 1.01,0.71 0.72,0.53 1.38,1.06 2.03,1.6 a 36.32942,36.32942 0 0 1 3.54,3.47 51.25659,51.25659 0 0 1 8.92,14.87 75.523,75.523 0 0 1 3.54,11.55 c 0.32,1.42 0.52,2.54 0.65,3.3 0.13,0.77 0.2,1.17 0.2,1.17 a 0.17691,0.17691 0 0 1 -0.14,0.2 0.18807,0.18807 0 0 1 -0.19,-0.11 c 0,0 -0.54,-1.56 -1.56,-4.25 a 98.81374,98.81374 0 0 0 -4.81,-10.8 61.36139,61.36139 0 0 0 -3.99,-6.7 45.38375,45.38375 0 0 0 -5.4,-6.62 32.20158,32.20158 0 0 0 -3.31,-2.96 c -0.59,-0.46 -1.2,-0.9 -1.8,-1.29 -0.28,-0.2 -0.66,-0.42 -0.99,-0.63 l -0.26,-0.16 -0.22,-0.13 -0.51,-0.29 a 78.54772,78.54772 0 0 0 -8.57,-4.25 c -5.96,-2.57 -12.2,-4.96 -17.81,-8.12 -0.7,-0.38 -1.39,-0.8 -2.08,-1.24 l -1.02,-0.65 -0.92,-0.64 c -1.32,-0.9 -2.43,-1.75 -3.61,-2.62 a 51.38579,51.38579 0 0 1 -6.3,-5.46 26.557,26.557 0 0 1 -4.31,-5.94 31.308,31.308 0 0 1 -2.16,-5.16 C 23.38,39.9 23.09,38.68 22.93,37.96 22.76,37.21 22.67,36.8 22.67,36.8 a 2.12059,2.12059 0 0 1 4.1,-1.07 z"
         transform="translate(-4.18,-3.5477)"
         id="path1490"
         style="fill:url(#linear-gradient-6)" />
    </g>
    <g
       id="g1769"
       transform="matrix(0.26458333,0,0,0.26458333,105.31623,29.545117)">
      <g
         id="g2039"
         transform="translate(-33.99994)">
        <path
           class="cls-1"
           d="m 121.44,108.67 a 7.3408,7.3408 0 0 0 -2.24,-2.97 7.0764,7.0764 0 0 0 -2.97,-1.4 7.362,7.362 0 0 0 -2.76,-0.04 7.7345,7.7345 0 0 0 -2,0.63 7.6407,7.6407 0 0 0 -1.16,0.69 c -0.25,0.19 -0.38,0.29 -0.38,0.29 a 0.3916,0.3916 0 0 0 -0.08,0.53 0.3991,0.3991 0 0 0 0.57,0.09 c 0,0 0.12,-0.08 0.35,-0.24 a 7.1759,7.1759 0 0 1 1.06,-0.54 6.88,6.88 0 0 1 1.78,-0.45 6.225,6.225 0 0 1 2.32,0.17 5.7485,5.7485 0 0 1 2.39,1.3 5.86,5.86 0 0 1 1.65,2.48 5.6784,5.6784 0 0 1 0.11,3.12 8.77,8.77 0 0 1 -1.38,3.06 10.54,10.54 0 0 1 -10.76,4.34 c -0.19,-0.04 -0.38,-0.1 -0.57,-0.15 a 20.9756,20.9756 0 0 1 -3.32,-2.07 c -3.44,-2.68 -5.07,-7.05 -6.01,-11.3 -1.05,-4.76 -2.01,-9.35 -3.47,-14.01 -0.85,-2.71 -1.79,-5.4 -2.86,-8.04 -0.87,-2.15 -1.85,-4.32 -2.91,-6.47 a 76.2708,76.2708 0 0 0 -4.49,-7.97 c -0.35,-0.54 -0.73,-1.07 -1.1,-1.6 a 33.3194,33.3194 0 0 0 -0.48,-5.63 c -0.81,-4.68 0.1,-5.41 2.56,-5.71 2.18,-0.26 8.91,2.02 10.97,0.2 1.57,-1.38 1.53,-2.42 1.62,-4.38 0.13,-2.69 2.72,-3.41 4.07,-3.7 a 1.2914,1.2914 0 0 0 0.8,0.49 1.256,1.256 0 1 0 -1.04,-1.44 1.34,1.34 0 0 0 0.01,0.2 3.3229,3.3229 0 0 1 -2.61,-0.98 c -0.44,-0.68 1.85,-3.5 3.08,-4.98 a 1.4625,1.4625 0 0 0 0.51,0.22 1.256,1.256 0 1 0 -1.04,-1.44 1.2415,1.2415 0 0 0 0.07,0.61 c -1.14,1.13 -3.37,3.31 -3.98,3.18 -0.73,-0.16 -0.22,-4.84 0.05,-7.04 A 1.239,1.239 0 0 0 98.75,36.7 1.2560255,1.2560255 0 1 0 96.27,36.3 1.2416,1.2416 0 0 0 97,37.62 c -0.49,2.21 -1.44,6.9 -1.99,7.03 -0.59,0.15 -1.42,-3.36 -1.93,-5.59 a 1.23,1.23 0 0 0 0.55,-0.84 1.256,1.256 0 1 0 -1.44,1.04 h 0.05 c 0.3,2.11 0.63,5.44 0.32,6 -0.37,0.66 -2.04,0.55 -3.19,0.37 a 1.2538,1.2538 0 1 0 -1.44,1.07 1.2225,1.2225 0 0 0 1.04,-0.34 c 1.69,0.74 3.55,1.61 3.99,3.07 a 2.1831,2.1831 0 0 1 -1.32,2.74 c 0,0 -9.33,-0.36 -12.43,0.53 -2.11,0.6 -2.12,4.87 -1.96,8.21 -0.5,-0.5 -0.99,-1.02 -1.51,-1.49 a 43.4367,43.4367 0 0 0 -4.06,-3.25 41.0361,41.0361 0 0 0 -9.93,-5.24 31.9767,31.9767 0 0 0 -6.39,-1.6 C 54.47,49.2 53.56,49.06 52.64,48.9 a 10.8384,10.8384 0 0 0 1.08,-5.35 c -0.09,-3.7 -1.46,-9.8 0.06,-12.69 a 14.8519,14.8519 0 0 1 3.68,-4.23 1.1886,1.1886 0 0 0 0.63,0.32 1.256,1.256 0 1 0 -1.04,-1.44 1.1821,1.1821 0 0 0 0.13,0.72 c -1.12,0.91 -2.61,1.68 -3.32,1.12 -0.8,-0.62 0.64,-3.47 1.42,-4.99 a 1.0662,1.0662 0 0 0 0.19,0.07 1.256,1.256 0 1 0 -1.04,-1.44 1.2293,1.2293 0 0 0 0.39,1.09 c -0.71,1.61 -2.11,4.59 -2.97,4.04 -0.54,-0.35 -0.13,-4.05 -0.29,-6.33 a 1.2335,1.2335 0 0 0 0.73,-0.92 1.256,1.256 0 1 0 -1.44,1.04 c 0.06,1.89 0.05,5.99 -0.92,6.35 -0.91,0.34 -2.37,-1.9 -3.76,-4.41 a 1.1955,1.1955 0 0 0 0.32,-0.62 1.256,1.256 0 1 0 -1.44,1.04 1.2,1.2 0 0 0 0.5,-0.02 c 0.85,1.4 2.89,4.88 2.13,5.87 -0.35,0.46 -2.24,0.39 -3.79,0.37 a 1.2335,1.2335 0 0 0 -1.02,-0.99 1.2561,1.2561 0 1 0 0.88,1.86 c 1.64,0.62 3.78,1.71 4.41,2.86 1.36,2.45 3.57,10.91 -0.64,13.38 a 20.2407,20.2407 0 0 1 -2.74,1.33 14.8406,14.8406 0 0 1 -6.21,-3.65 7.4531,7.4531 0 0 1 -2.18,-6 c 0.26,-2.81 0.72,-5.37 0.22,-8.48 A 19.357,19.357 0 0 0 35.32,24.34 C 35.23,24.12 35.09,23.88 34.97,23.64 33.55,20.9 30.18,17.02 26.77,13.57 22.92,9.68 19.02,6.34 17.8,5.85 a 3.1333,3.1333 0 0 0 -4.2,1.56 c -0.87,1.04 -1.98,4.14 -2.84,8.04 -1.18,5.35 -1.89,12.22 -0.86,17.46 1.62,8.21 6.4,11.68 9.02,13.66 1.94,1.47 2.29,2.29 5.45,5.25 1.81,1.69 3.21,8.21 4.37,10.46 0.59,1.15 1.23,2.31 1.93,3.46 l -0.17,2.65 c 0,0 -0.2,5.34 -1.27,7.47 a 8.2837,8.2837 0 0 1 -2.14,2.9 c 0,0 -3.66,-5.41 -3.05,-9.52 a 36.1558,36.1558 0 0 1 0.72,-3.74 1.2407,1.2407 0 0 0 1.06,-1.03 1.2560255,1.2560255 0 1 0 -2.48,-0.4 1.2273,1.2273 0 0 0 0.69,1.3 c -0.23,1.18 -0.63,2.81 -1.61,2.78 -1.24,-0.04 -2.98,-4.9 -3.73,-7.1 a 1.2244,1.2244 0 1 0 -0.77,0.15 c 0.04,0.01 0.07,-0.01 0.1,0 0.8,2 2.62,6.42 1.73,6.89 -0.83,0.44 -4.02,-3.34 -5.81,-5.4 a 1.3364,1.3364 0 1 0 -0.67,0.5 c 1.44,1.48 5.46,5.77 4.83,6.69 -0.55,0.81 -3.68,-0.11 -5.59,-0.85 a 1.2412,1.2412 0 0 0 -1.03,-1.26 1.2561,1.2561 0 1 0 0.82,1.95 c 1.84,0.63 5.29,1.65 5.14,2.64 -0.13,0.89 -1.24,0.96 -2.64,1.4 a 1.245,1.245 0 1 0 0.21,0.9 V 74.6 c 1.56,-0.38 4.34,-0.82 5.9,0.9 1.96,2.15 5.83,10.96 7.89,9.96 1.8,-0.87 6.14,-10.1 8.14,-12.44 a 30.9317,30.9317 0 0 0 6.98,3.99 46.68,46.68 0 0 0 5.33,1.85 c 2.18,0.63 4.4,1.14 6.62,1.62 1.62,0.36 3.36,0.7 5.13,1.1 -2.26,1.27 -7.62,4.36 -8.89,5.79 -1.63,1.83 -0.61,3.05 0.71,4.07 0.83,0.64 0.37,0.7 9.25,3.66 a 8.3051,8.3051 0 0 1 -3.66,0.71 c -1.51,0 -3.45,-1 -4.72,-1.68 0,-0.02 0.01,-0.03 0.02,-0.05 a 1.256,1.256 0 1 0 -1.44,1.04 1.2368,1.2368 0 0 0 1,-0.29 c 1.28,0.66 3.83,1.79 2.7,2.4 -1.07,0.57 -5.65,0.71 -8.09,1.24 a 1.2338,1.2338 0 0 0 -0.85,-0.58 1.2560255,1.2560255 0 1 0 -0.4,2.48 A 1.2358,1.2358 0 0 0 48,99.5 c 1.59,-0.15 7.39,-0.57 7.76,0.17 0.34,0.67 -4.9,3.63 -7.32,5.65 a 1.703,1.703 0 0 0 -0.24,-0.09 1.256,1.256 0 1 0 1.04,1.44 1.1455,1.1455 0 0 0 -0.02,-0.49 c 1.65,-1.18 7.87,-5.3 8.79,-4.56 0.82,0.65 -1.35,5.78 -2.41,8.49 a 1.2479,1.2479 0 1 0 1.38,1.43 1.2293,1.2293 0 0 0 -0.39,-1.09 c 0.94,-1.89 4.07,-7.99 4.71,-7.89 0.59,0.09 0.45,4.46 0.45,6.03 a 1.2427,1.2427 0 0 0 -0.56,0.84 1.256,1.256 0 1 0 1.44,-1.04 h -0.06 c 0.42,-2.85 0.96,-7.39 1.42,-7.7 0.61,-0.41 6.51,-3.35 6.2,-5.39 -0.31,-2.03 -4.78,-4.27 -7.93,-5.18 -3.15,-0.91 8.54,2.54 11.39,-1.73 0.39,-0.58 0.72,-1.08 1.03,-1.53 a 15.0415,15.0415 0 0 1 2.38,2.13 36.36,36.36 0 0 1 5.71,8.44 71.9083,71.9083 0 0 0 4.64,9.19 47.627,47.627 0 0 0 8.42,9.72 37.2632,37.2632 0 0 0 5.12,3.91 16.3287,16.3287 0 0 0 9.82,2.36 c 0.3,-0.03 0.6,-0.07 0.9,-0.13 l 0.23,-0.04 0.24,-0.05 0.41,-0.1 a 13.7385,13.7385 0 0 0 1.84,-0.63 13.0467,13.0467 0 0 0 5.98,-5.19 10.6031,10.6031 0 0 0 1.43,-3.81 7.12,7.12 0 0 0 -0.36,-3.99 z"
           transform="translate(-4.18,-3.5477)"
           id="path1663" />
        <path
           class="cls-2"
           d="m 44.91,21.7 c 0.3,0.52 3.37,5.25 2.46,6.43 -0.47,0.61 -3.62,0.28 -5.12,0.39 a 0.2238,0.2238 0 0 0 -0.04,0.44 c 1.53,0.4 4.83,1.79 5.64,3.26 1.36,2.45 3.57,10.91 -0.64,13.38 a 25.6,25.6 0 0 1 -9.08,3 l -0.87,3.76 7.16,1.13 7.73,-4.29 a 10.1116,10.1116 0 0 0 1.26,-5.66 c -0.09,-3.7 -1.46,-9.8 0.06,-12.69 1.46,-2.79 4.33,-4.63 4.55,-5.01 0.22,-0.37 -0.2,-0.51 -0.41,-0.28 -1.08,1.12 -3.18,2.49 -4.07,1.8 -1.01,-0.78 1.59,-5.18 1.85,-5.87 0.26,-0.69 -0.19,-0.96 -0.49,-0.32 -0.3,0.64 -2.28,5.66 -3.37,4.95 -0.65,-0.42 0.07,-5.64 -0.46,-7.48 -0.29,-1.02 -0.61,-0.18 -0.58,0.36 0.03,0.54 0.33,6.82 -0.88,7.26 -0.96,0.36 -2.52,-2.15 -3.98,-4.81 -0.62,-1.14 -1.27,-0.73 -0.72,0.25 z"
           transform="translate(-4.18,-3.5477)"
           id="path1665" />
        <path
           class="cls-3"
           d="m 30.19,68.41 c 0,0 -0.2,5.34 -1.27,7.47 a 8.2837,8.2837 0 0 1 -2.14,2.9 c 0,0 -3.66,-5.41 -3.05,-9.52 a 23.57,23.57 0 0 1 1.03,-4.74 c 0.19,-0.58 -0.57,-0.8 -0.8,-0.19 -0.24,0.61 -0.47,3.9 -1.84,3.85 -1.5,-0.05 -3.76,-7.24 -4.06,-8.08 -0.3,-0.84 -0.92,-0.57 -0.68,0.23 0.24,0.8 3.15,7.2 2.07,7.78 -0.94,0.5 -4.91,-4.43 -6.45,-6.11 -0.47,-0.52 -1.3,-0.18 -0.54,0.71 0,0 6.1,6.09 5.34,7.2 -0.66,0.96 -5,-0.53 -6.56,-1.25 -0.51,-0.24 -0.95,0.15 -0.32,0.64 0.63,0.5 6.4,1.81 6.21,3.09 -0.15,0.99 -1.52,0.96 -3.17,1.58 -1.07,0.4 -1.18,1.15 -0.2,0.9 0.98,-0.25 4.87,-1.5 6.83,0.66 1.96,2.16 5.83,10.96 7.89,9.96 2.06,-1 7.46,-12.96 8.84,-12.98 0.94,-0.01 -6.73,-10.5 -6.73,-10.5 z"
           transform="translate(-4.18,-3.5477)"
           id="path1667" />
        <path
           class="cls-3"
           d="m 73.64,64.99 c 0,0 3.35,1.73 3.46,-0.51 0.1,-2.24 -1.26,-10.9 1.8,-11.77 3.1,-0.89 12.43,-0.53 12.43,-0.53 a 2.1831,2.1831 0 0 0 1.32,-2.74 c -0.5,-1.67 -2.84,-2.56 -4.67,-3.37 -0.4,-0.18 -0.55,-0.82 0.08,-0.63 0.63,0.19 3.67,0.75 4.18,-0.16 0.42,-0.76 -0.33,-6.61 -0.6,-7.62 -0.27,-1.01 0.47,-1.11 0.71,-0.3 0.25,0.81 1.51,7.51 2.32,7.3 0.68,-0.17 2.01,-7.43 2.25,-8.12 0.25,-0.69 0.71,-0.54 0.66,0.1 -0.05,0.64 -1.09,7.92 -0.17,8.12 0.72,0.16 3.76,-2.98 4.5,-3.69 0.74,-0.71 1.03,-0.25 0.66,0.25 -0.37,0.49 -4.38,4.98 -3.81,5.86 0.54,0.84 2.39,1.18 3.32,0.89 0.93,-0.3 0.64,0.45 0.3,0.66 -0.34,0.22 -4.67,0.39 -4.85,3.89 -0.1,1.96 -0.05,3 -1.62,4.38 -2.07,1.82 -8.79,-0.46 -10.97,-0.2 -2.46,0.3 -3.37,1.03 -2.56,5.71 0.81,4.68 0.7,10.86 -1.23,12.89 -1.93,2.03 -2.54,1.8 -2.54,1.8 z"
           transform="translate(-4.18,-3.5477)"
           id="path1669" />
        <path
           class="cls-3"
           d="m 61.69,81.03 c 0,0 -8.29,4.53 -9.91,6.36 -1.62,1.83 -0.61,3.05 0.71,4.07 0.83,0.64 0.37,0.7 9.25,3.66 a 8.3051,8.3051 0 0 1 -3.66,0.71 c -1.75,0 -4.09,-1.35 -5.27,-1.98 -1.18,-0.63 -1.22,0.15 -0.41,0.7 0.81,0.55 4.55,1.99 3.23,2.7 -1.11,0.6 -6.02,0.72 -8.37,1.3 -1.48,0.37 -0.73,1.09 0.07,1 0.81,-0.1 7.69,-0.67 8.09,0.14 0.35,0.7 -5.35,3.88 -7.61,5.9 -1.37,1.22 0.07,1.4 0.7,0.89 0.63,-0.52 8.15,-5.66 9.17,-4.84 0.85,0.68 -1.56,6.29 -2.55,8.86 -0.55,1.44 0.59,1.11 0.89,0.48 0.3,-0.63 4.24,-8.52 4.97,-8.41 0.64,0.1 0.42,5.24 0.45,6.37 0.03,1.13 0.63,0.71 0.73,0.06 0.42,-2.76 1.01,-7.97 1.5,-8.3 0.61,-0.41 6.51,-3.35 6.2,-5.39 -0.3,-2.03 -4.78,-4.27 -7.93,-5.18 -3.15,-0.91 8.54,2.54 11.39,-1.73 2.85,-4.27 3.35,-4.88 3.35,-4.88 z"
           transform="translate(-4.18,-3.5477)"
           id="path1671" />
        <circle
           class="cls-3"
           cx="87.889999"
           cy="34.4823"
           r="1.25"
           id="circle1673" />
        <circle
           class="cls-2"
           cx="40.759998"
           cy="17.4923"
           r="1.25"
           id="circle1675" />
        <circle
           class="cls-3"
           cx="8.3900003"
           cy="58.4823"
           r="1.25"
           id="circle1677" />
        <circle
           class="cls-3"
           cx="6.77"
           cy="65.4823"
           r="1.25"
           id="circle1679" />
        <circle
           class="cls-3"
           cx="9.2600002"
           cy="70.932297"
           r="1.25"
           id="circle1681" />
        <circle
           class="cls-3"
           cx="47.970001"
           cy="90.352303"
           r="1.25"
           id="circle1683" />
        <circle
           class="cls-3"
           cx="42.32"
           cy="95.602303"
           r="1.25"
           id="circle1685" />
        <circle
           class="cls-3"
           cx="43.5"
           cy="102.9523"
           r="1.25"
           id="circle1687" />
        <circle
           class="cls-3"
           cx="51.25"
           cy="107.8023"
           r="1.25"
           id="circle1689" />
        <circle
           class="cls-3"
           cx="57.939999"
           cy="106.0923"
           r="1.25"
           id="circle1691" />
        <circle
           class="cls-3"
           cx="20.08"
           cy="60.742298"
           r="1.25"
           id="circle1693" />
        <circle
           class="cls-2"
           cx="46.549999"
           cy="15.1323"
           r="1.25"
           id="circle1695" />
        <circle
           class="cls-2"
           cx="51.18"
           cy="17.6623"
           r="1.25"
           id="circle1697" />
        <circle
           class="cls-2"
           cx="53.799999"
           cy="22.1723"
           r="1.25"
           id="circle1699" />
        <circle
           class="cls-2"
           cx="38.189999"
           cy="25.202299"
           r="1.25"
           id="circle1701" />
        <circle
           class="cls-3"
           cx="13.62"
           cy="56.432301"
           r="1.25"
           id="circle1703" />
        <circle
           class="cls-3"
           cx="93.010002"
           cy="32.952301"
           r="1.25"
           id="circle1705" />
        <circle
           class="cls-3"
           cx="98.389999"
           cy="37.622299"
           r="1.25"
           id="circle1707" />
        <circle
           class="cls-3"
           cx="98.440002"
           cy="44.612301"
           r="1.25"
           id="circle1709" />
        <circle
           class="cls-3"
           cx="83.629997"
           cy="41.9123"
           r="1.25"
           id="circle1711" />
        <path
           class="cls-3"
           d="m 121.09,108.67 a 7.3408,7.3408 0 0 0 -2.24,-2.97 7.0764,7.0764 0 0 0 -2.97,-1.4 7.362,7.362 0 0 0 -2.76,-0.04 7.7345,7.7345 0 0 0 -2,0.63 7.6407,7.6407 0 0 0 -1.16,0.69 c -0.25,0.19 -0.38,0.29 -0.38,0.29 a 0.3916,0.3916 0 0 0 -0.08,0.53 0.3991,0.3991 0 0 0 0.57,0.09 c 0,0 0.12,-0.08 0.35,-0.24 a 7.1759,7.1759 0 0 1 1.06,-0.54 6.88,6.88 0 0 1 1.78,-0.45 6.225,6.225 0 0 1 2.32,0.17 5.7485,5.7485 0 0 1 2.39,1.3 5.86,5.86 0 0 1 1.65,2.48 5.6784,5.6784 0 0 1 0.11,3.12 8.77,8.77 0 0 1 -1.38,3.06 10.54,10.54 0 0 1 -10.76,4.34 c -0.19,-0.04 -0.38,-0.1 -0.57,-0.15 a 20.9756,20.9756 0 0 1 -3.32,-2.07 c -3.44,-2.68 -5.07,-7.05 -6.01,-11.3 -1.05,-4.76 -2.01,-9.35 -3.47,-14.01 -0.85,-2.71 -1.79,-5.4 -2.86,-8.04 -0.87,-2.15 -1.85,-4.32 -2.91,-6.47 a 76.2708,76.2708 0 0 0 -4.49,-7.97 52.0134,52.0134 0 0 0 -8.54,-10.3 43.4367,43.4367 0 0 0 -4.06,-3.25 41.0361,41.0361 0 0 0 -9.93,-5.24 31.9767,31.9767 0 0 0 -6.39,-1.6 59.6554,59.6554 0 0 1 -10.05,-2.21 15.4561,15.4561 0 0 1 -6.75,-3.84 7.4531,7.4531 0 0 1 -2.18,-6 c 0.26,-2.81 0.72,-5.37 0.22,-8.48 a 19.357,19.357 0 0 0 -1.29,-4.46 c -0.09,-0.22 -0.23,-0.46 -0.35,-0.7 -1.42,-2.74 -4.79,-6.62 -8.2,-10.07 1.81,4.83 2.21,9.9 -0.32,14.98 0,1.05 -3.15,3.15 -6.3,2.1 -6.42,-2.57 -8.91,-8.68 -9.4,-15.19 -1.18,5.35 -1.89,12.22 -0.86,17.46 1.62,8.21 6.4,11.68 9.02,13.66 1.94,1.47 2.29,2.29 5.45,5.25 1.81,1.69 3.21,8.21 4.37,10.46 a 36.0679,36.0679 0 0 0 6.16,9.02 c 0.38,0.38 0.77,0.74 1.18,1.08 a 30.1594,30.1594 0 0 0 7.83,4.64 46.68,46.68 0 0 0 5.33,1.85 c 2.18,0.63 4.4,1.14 6.62,1.62 2.1,0.46 4.39,0.91 6.71,1.45 a 39.1633,39.1633 0 0 1 9.99,3.55 17.1326,17.1326 0 0 1 4.5,3.5 36.36,36.36 0 0 1 5.71,8.44 71.9083,71.9083 0 0 0 4.64,9.19 47.627,47.627 0 0 0 8.42,9.72 37.2632,37.2632 0 0 0 5.12,3.91 16.3287,16.3287 0 0 0 9.82,2.36 c 0.3,-0.03 0.6,-0.07 0.9,-0.13 l 0.23,-0.04 0.24,-0.05 0.41,-0.1 a 13.7385,13.7385 0 0 0 1.84,-0.63 13.0467,13.0467 0 0 0 5.98,-5.19 10.6031,10.6031 0 0 0 1.43,-3.81 7.239,7.239 0 0 0 -0.37,-4 z"
           transform="translate(-4.18,-3.5477)"
           id="path1713" />
        <path
           class="cls-4"
           d="m 19.84,30.65 c 3.15,1.05 6.3,-1.05 6.3,-2.1 2.54,-5.07 2.13,-10.14 0.32,-14.98 C 22.61,9.68 18.71,6.34 17.49,5.85 a 3.1333,3.1333 0 0 0 -4.2,1.56 c -0.87,1.04 -1.98,4.14 -2.84,8.04 0.48,6.53 2.97,12.63 9.39,15.2 z"
           transform="translate(-4.18,-3.5477)"
           id="path1715"
           style="fill:#ff5c5c;fill-opacity:1" />
        <path
           class="cls-5"
           d="m 10.44,31.3 a 5.58,5.58 0 1 1 5.58,-5.58 5.5822,5.5822 0 0 1 -5.58,5.58 z"
           transform="translate(-4.18,-3.5477)"
           id="path1717" />
        <path
           class="cls-6"
           d="m 10.44,20.82 a 4.9,4.9 0 1 1 -4.9,4.9 4.8951,4.8951 0 0 1 4.9,-4.9 m 0,-1.37 a 6.26,6.26 0 1 0 6.26,6.26 6.2694,6.2694 0 0 0 -6.26,-6.26 z"
           transform="translate(-4.18,-3.5477)"
           id="path1719" />
        <circle
           cx="4.9099998"
           cy="19.872299"
           r="2.3900001"
           id="circle1721" />
        <path
           class="cls-5"
           d="m 29.52,23.75 a 5.58,5.58 0 1 1 5.58,-5.58 5.5822,5.5822 0 0 1 -5.58,5.58 z"
           transform="translate(-4.18,-3.5477)"
           id="path1723" />
        <path
           class="cls-6"
           d="m 29.51,13.27 a 4.9,4.9 0 1 1 -4.9,4.9 4.8951,4.8951 0 0 1 4.9,-4.9 m 0,-1.36 a 6.26,6.26 0 1 0 6.26,6.26 6.2694,6.2694 0 0 0 -6.26,-6.26 z"
           transform="translate(-4.18,-3.5477)"
           id="path1725" />
        <circle
           cx="25.639999"
           cy="12.2223"
           r="2.3900001"
           id="circle1727" />
        <path
           class="cls-7"
           d="m 26.77,35.73 c 0,0 0.11,0.4 0.33,1.14 0.21,0.78 0.54,1.74 0.99,3.02 a 27.1871,27.1871 0 0 0 1.99,4.36 24.1122,24.1122 0 0 0 3.72,4.83 53.8568,53.8568 0 0 0 5.79,4.92 c 1.09,0.82 2.29,1.74 3.43,2.51 l 0.92,0.64 0.89,0.56 c 0.58,0.38 1.2,0.75 1.86,1.12 a 92.4934,92.4934 0 0 0 8.27,4.19 c 2.92,1.32 5.95,2.62 8.97,4.05 a 86.3232,86.3232 0 0 1 8.9,4.74 l 0.54,0.33 0.3,0.19 0.25,0.17 c 0.34,0.24 0.65,0.43 1.01,0.71 0.72,0.53 1.38,1.06 2.03,1.6 a 36.3306,36.3306 0 0 1 3.54,3.47 51.2566,51.2566 0 0 1 8.92,14.87 75.523,75.523 0 0 1 3.54,11.55 c 0.32,1.42 0.52,2.54 0.65,3.3 0.13,0.77 0.2,1.17 0.2,1.17 a 0.1769,0.1769 0 0 1 -0.14,0.2 0.1881,0.1881 0 0 1 -0.19,-0.11 c 0,0 -0.54,-1.56 -1.56,-4.25 a 98.81,98.81 0 0 0 -4.81,-10.8 61.3614,61.3614 0 0 0 -3.99,-6.7 45.3838,45.3838 0 0 0 -5.4,-6.62 32.2016,32.2016 0 0 0 -3.31,-2.96 c -0.59,-0.46 -1.2,-0.9 -1.8,-1.29 -0.28,-0.2 -0.66,-0.42 -0.99,-0.63 l -0.26,-0.16 -0.22,-0.13 -0.51,-0.29 a 78.5479,78.5479 0 0 0 -8.57,-4.25 c -5.96,-2.57 -12.2,-4.96 -17.81,-8.12 -0.7,-0.38 -1.39,-0.8 -2.08,-1.24 l -1.02,-0.65 -0.92,-0.64 c -1.32,-0.9 -2.43,-1.75 -3.61,-2.62 a 51.3858,51.3858 0 0 1 -6.3,-5.46 26.557,26.557 0 0 1 -4.31,-5.94 31.308,31.308 0 0 1 -2.16,-5.16 C 23.38,39.9 23.09,38.68 22.93,37.96 22.76,37.21 22.67,36.8 22.67,36.8 a 2.1206,2.1206 0 0 1 4.1,-1.07 z"
           transform="translate(-4.18,-3.5477)"
           id="path1729"
           style="fill:url(#linear-gradient)" />
      </g>
      <path
         id="path2063"
         style="fill:#e5e5e5;fill-opacity:1;stroke:#808080;stroke-width:0.755906;stroke-miterlimit:4;stroke-dasharray:none;stroke-opacity:1"
         inkscape:transform-center-x="0.039048771"
         inkscape:transform-center-y="0.2524538"
         d="m -60.834638,58.333417 -15,12 v -7 h -24.999992 v -10 h 24.999992 v -7 z"
         sodipodi:nodetypes="cccccccc" />
    </g>
  </g>
</svg>
