<?xml version="1.0" encoding="UTF-8" standalone="no"?>
<!-- Created with Inkscape (http://www.inkscape.org/) -->

<svg
   width="400mm"
   height="200mm"
   viewBox="0 0 400.00001 199.99999"
   version="1.1"
   id="svg5"
   inkscape:version="1.1.2 (1:1.1+202202050950+0a00cf5339)"
   sodipodi:docname="seed_and_target.svg"
   xmlns:inkscape="http://www.inkscape.org/namespaces/inkscape"
   xmlns:sodipodi="http://sodipodi.sourceforge.net/DTD/sodipodi-0.dtd"
   xmlns:xlink="http://www.w3.org/1999/xlink"
   xmlns="http://www.w3.org/2000/svg"
   xmlns:svg="http://www.w3.org/2000/svg">
  <sodipodi:namedview
     id="namedview7"
     pagecolor="#ffffff"
     bordercolor="#666666"
     borderopacity="1.0"
     inkscape:pageshadow="2"
     inkscape:pageopacity="0.0"
     inkscape:pagecheckerboard="0"
     inkscape:document-units="mm"
     showgrid="true"
     fit-margin-top="0"
     fit-margin-left="0"
     fit-margin-right="0"
     fit-margin-bottom="0"
     inkscape:zoom="0.63161135"
     inkscape:cx="724.33784"
     inkscape:cy="415.60368"
     inkscape:window-width="1848"
     inkscape:window-height="1016"
     inkscape:window-x="72"
     inkscape:window-y="27"
     inkscape:window-maximized="1"
     inkscape:current-layer="layer1">
    <inkscape:grid
       type="xygrid"
       id="grid824"
       color="#8181bd"
       opacity="0.1254902"
       empcolor="#8585b9"
       empopacity="0.25098039"
       spacingx="1.0583333"
       spacingy="1.0583333"
       originx="-41.869013"
       originy="-55.798306" />
  </sodipodi:namedview>
  <defs
     id="defs2">
    <linearGradient
       id="linear-gradient"
       x1="205.44579"
       y1="617.74463"
       x2="218.7858"
       y2="599.77856"
       gradientTransform="rotate(14.57266,2375.9288,-345.54639)"
       gradientUnits="userSpaceOnUse">
      <stop
         offset="0"
         stop-color="#13630f"
         id="stop3056" />
      <stop
         offset="0.1391"
         stop-color="#2a7915"
         id="stop3058" />
      <stop
         offset="0.457"
         stop-color="#59a623"
         id="stop3060" />
      <stop
         offset="0.6158"
         stop-color="#6bb828"
         id="stop3062" />
    </linearGradient>
    <linearGradient
       id="linear-gradient-2"
       x1="32.08392"
       y1="772.51514"
       x2="16.13192"
       y2="793.38013"
       gradientTransform="translate(-4.18,-717.5477)"
       xlink:href="#linear-gradient" />
    <linearGradient
       id="linear-gradient-3"
       x1="73.639999"
       y1="770.64734"
       x2="102.73054"
       y2="770.64734"
       gradientTransform="translate(-4.18,-717.5477)"
       xlink:href="#linear-gradient" />
    <linearGradient
       id="linear-gradient-4"
       x1="66.255386"
       y1="795.18823"
       x2="53.119389"
       y2="821.72821"
       gradientTransform="translate(-4.18,-717.5477)"
       gradientUnits="userSpaceOnUse">
      <stop
         offset="0"
         stop-color="#134e0f"
         id="stop3067" />
      <stop
         offset="0.2097"
         stop-color="#357719"
         id="stop3069" />
      <stop
         offset="0.4804"
         stop-color="#5ca624"
         id="stop3071" />
      <stop
         offset="0.6158"
         stop-color="#6bb828"
         id="stop3073" />
    </linearGradient>
    <linearGradient
       id="linear-gradient-5"
       x1="9.8108397"
       y1="715.41821"
       x2="109.66595"
       y2="845.34546"
       gradientTransform="translate(-4.18,-717.5477)"
       gradientUnits="userSpaceOnUse">
      <stop
         offset="0.2397"
         stop-color="#4aba00"
         id="stop3076" />
      <stop
         offset="0.2683"
         stop-color="#49b802"
         id="stop3078" />
      <stop
         offset="1"
         stop-color="#2e7d32"
         id="stop3080" />
    </linearGradient>
    <linearGradient
       id="linear-gradient-6"
       x1="25.159719"
       y1="747.26978"
       x2="94.432716"
       y2="820.74475"
       gradientTransform="translate(-4.18,-717.5477)"
       gradientUnits="userSpaceOnUse">
      <stop
         offset="0.0169"
         stop-color="#c5e1a5"
         id="stop3083" />
      <stop
         offset="0.1983"
         stop-color="#c1dea1"
         id="stop3085" />
      <stop
         offset="0.3788"
         stop-color="#b6d595"
         id="stop3087" />
      <stop
         offset="0.5591"
         stop-color="#a3c781"
         id="stop3089" />
      <stop
         offset="0.7392"
         stop-color="#88b265"
         id="stop3091" />
      <stop
         offset="0.9176"
         stop-color="#669841"
         id="stop3093" />
      <stop
         offset="0.9969"
         stop-color="#558b2f"
         id="stop3095" />
    </linearGradient>
    <marker
       style="overflow:visible"
       id="marker8345"
       refX="0"
       refY="0"
       orient="auto"
       inkscape:stockid="TriangleOutM"
       inkscape:isstock="true">
      <path
         transform="scale(0.4)"
         style="fill:context-stroke;fill-rule:evenodd;stroke:context-stroke;stroke-width:1pt"
         d="M 5.77,0 -2.88,5 V -5 Z"
         id="path8343" />
    </marker>
    <marker
       style="overflow:visible"
       id="marker8335"
       refX="0"
       refY="0"
       orient="auto"
       inkscape:stockid="Arrow2Send"
       inkscape:isstock="true">
      <path
         transform="matrix(-0.3,0,0,-0.3,0.69,0)"
         d="M 8.7185878,4.0337352 -2.2072895,0.01601326 8.7185884,-4.0017078 c -1.7454984,2.3720609 -1.7354408,5.6174519 -6e-7,8.035443 z"
         style="fill:context-stroke;fill-rule:evenodd;stroke:context-stroke;stroke-width:0.625;stroke-linejoin:round"
         id="path8333" />
    </marker>
    <marker
       style="overflow:visible"
       id="TriangleOutM"
       refX="0"
       refY="0"
       orient="auto"
       inkscape:stockid="TriangleOutM"
       inkscape:isstock="true">
      <path
         transform="scale(0.4)"
         style="fill:context-stroke;fill-rule:evenodd;stroke:context-stroke;stroke-width:1pt"
         d="M 5.77,0 -2.88,5 V -5 Z"
         id="path3618" />
    </marker>
    <marker
       style="overflow:visible"
       id="Arrow2Send"
       refX="0"
       refY="0"
       orient="auto"
       inkscape:stockid="Arrow2Send"
       inkscape:isstock="true">
      <path
         transform="matrix(-0.3,0,0,-0.3,0.69,0)"
         d="M 8.7185878,4.0337352 -2.2072895,0.01601326 8.7185884,-4.0017078 c -1.7454984,2.3720609 -1.7354408,5.6174519 -6e-7,8.035443 z"
         style="fill:context-stroke;fill-rule:evenodd;stroke:context-stroke;stroke-width:0.625;stroke-linejoin:round"
         id="path3506" />
    </marker>
    <marker
       id="ExperimentalArrow"
       refX="5"
       refY="3"
       orient="auto-start-reverse"
       inkscape:stockid="ExperimentalArrow"
       inkscape:isstock="true">
      <path
         style="fill:context-stroke"
         d="M 10,3 0,6 V 0 Z"
         id="path3726" />
    </marker>
    <marker
       style="overflow:visible"
       id="Arrow2Mend"
       refX="0"
       refY="0"
       orient="auto"
       inkscape:stockid="Arrow2Mend"
       inkscape:isstock="true">
      <path
         transform="scale(-0.6)"
         d="M 8.7185878,4.0337352 -2.2072895,0.01601326 8.7185884,-4.0017078 c -1.7454984,2.3720609 -1.7354408,5.6174519 -6e-7,8.035443 z"
         style="fill:context-stroke;fill-rule:evenodd;stroke:context-stroke;stroke-width:0.625;stroke-linejoin:round"
         id="path3500" />
    </marker>
    <marker
       style="overflow:visible"
       id="Arrow1Mend"
       refX="0"
       refY="0"
       orient="auto"
       inkscape:stockid="Arrow1Mend"
       inkscape:isstock="true">
      <path
         transform="matrix(-0.4,0,0,-0.4,-4,0)"
         style="fill:context-stroke;fill-rule:evenodd;stroke:context-stroke;stroke-width:1pt"
         d="M 0,0 5,-5 -12.5,0 5,5 Z"
         id="path3482" />
    </marker>
    <marker
       style="overflow:visible"
       id="TriangleOutM-9"
       refX="0"
       refY="0"
       orient="auto"
       inkscape:stockid="TriangleOutM"
       inkscape:isstock="true">
      <path
         transform="scale(0.4)"
         style="fill:context-stroke;fill-rule:evenodd;stroke:context-stroke;stroke-width:1pt"
         d="M 5.77,0 -2.88,5 V -5 Z"
         id="path3618-8" />
    </marker>
    <marker
       style="overflow:visible"
       id="TriangleOutM-5"
       refX="0"
       refY="0"
       orient="auto"
       inkscape:stockid="TriangleOutM"
       inkscape:isstock="true">
      <path
         transform="scale(0.4)"
         style="fill:context-stroke;fill-rule:evenodd;stroke:context-stroke;stroke-width:1pt"
         d="M 5.77,0 -2.88,5 V -5 Z"
         id="path3618-4" />
    </marker>
    <linearGradient
       inkscape:collect="always"
       xlink:href="#linear-gradient"
       id="linearGradient3088"
       gradientUnits="userSpaceOnUse"
       gradientTransform="matrix(0.79882327,0.20767089,-0.20767089,0.79882327,15.595447,-492.90457)"
       x1="205.44579"
       y1="617.74463"
       x2="218.7858"
       y2="599.77856" />
    <linearGradient
       id="linear-gradient-2-0"
       x1="32.08392"
       y1="772.51514"
       x2="16.13192"
       y2="793.38013"
       gradientTransform="matrix(0.82537617,0,0,0.82537617,20.817512,-582.56485)"
       xlink:href="#linear-gradient" />
    <linearGradient
       id="linear-gradient-3-5"
       x1="73.639999"
       y1="770.64734"
       x2="102.73054"
       y2="770.64734"
       gradientTransform="matrix(0.82537617,0,0,0.82537617,20.817512,-582.56485)"
       xlink:href="#linear-gradient" />
    <linearGradient
       id="linear-gradient-4-5"
       x1="66.255386"
       y1="795.18823"
       x2="53.119389"
       y2="821.72821"
       gradientTransform="matrix(0.82537617,0,0,0.82537617,20.817512,-582.56485)"
       gradientUnits="userSpaceOnUse">
      <stop
         offset="0"
         stop-color="#134e0f"
         id="stop2924" />
      <stop
         offset="0.2097"
         stop-color="#357719"
         id="stop2926" />
      <stop
         offset="0.4804"
         stop-color="#5ca624"
         id="stop2928" />
      <stop
         offset="0.6158"
         stop-color="#6bb828"
         id="stop2930" />
    </linearGradient>
    <linearGradient
       id="linear-gradient-5-2"
       x1="9.8108397"
       y1="715.41821"
       x2="109.41373"
       y2="846.8642"
       gradientTransform="matrix(0.82537617,0,0,0.82537617,20.817512,-582.56485)"
       gradientUnits="userSpaceOnUse"
       xlink:href="#linear-gradient-6">
      <stop
         offset="0.16280645"
         stop-color="#49b802"
         id="stop2935"
         style="stop-color:#4cc41c;stop-opacity:1" />
      <stop
         offset="1"
         stop-color="#2e7d32"
         id="stop2937"
         style="stop-color:#117733;stop-opacity:1" />
    </linearGradient>
    <linearGradient
       inkscape:collect="always"
       xlink:href="#linear-gradient-6"
       id="linearGradient8879"
       gradientUnits="userSpaceOnUse"
       gradientTransform="matrix(0.82537617,0,0,0.82537617,20.817512,-582.56485)"
       x1="25.159719"
       y1="747.26978"
       x2="94.432716"
       y2="820.74475" />
  </defs>
  <g
     inkscape:label="Layer 1"
     inkscape:groupmode="layer"
     id="layer1"
     transform="translate(-41.869011,-55.798309)">
    <g
       id="g13606"
       transform="matrix(1.2140475,0,0,1.2140475,189.8028,67.391831)">
      <path
         d="m 121.05119,96.447368 a 6.0588471,6.0588471 0 0 0 -1.84884,-2.451367 5.8404856,5.8404856 0 0 0 -2.45137,-1.155527 6.0765514,6.0765514 0 0 0 -2.27803,-0.03302 6.3840288,6.3840288 0 0 0 -1.65076,0.519987 6.3068644,6.3068644 0 0 0 -0.95743,0.56951 c -0.20635,0.156821 -0.31365,0.239359 -0.31365,0.239359 a 0.32321731,0.32321731 0 0 0 -0.066,0.437449 0.32939112,0.32939112 0 0 0 0.45839,0.08307 l 0.0121,-0.0087 c 0,0 0.099,-0.06603 0.28889,-0.19809 a 5.9225362,5.9225362 0 0 1 0.87489,-0.445703 5.678943,5.678943 0 0 1 1.46917,-0.371419 5.1383711,5.1383711 0 0 1 1.91488,0.140314 4.7445429,4.7445429 0 0 1 1.97265,1.072989 4.8362091,4.8362091 0 0 1 1.36187,2.046933 4.6866922,4.6866922 0 0 1 0.0908,2.575173 7.2382354,7.2382354 0 0 1 -1.13902,2.525654 8.6991017,8.6991017 0 0 1 -8.88105,3.58213 c -0.15682,-0.033 -0.31364,-0.0825 -0.47046,-0.1238 a 17.309987,17.309987 0 0 1 -2.74025,-1.70853 c -2.8393,-2.21201 -4.18466,-5.818907 -4.96051,-9.326756 -0.86665,-3.928791 -1.65901,-7.717267 -2.864059,-11.56352 -0.701569,-2.23677 -1.477423,-4.457031 -2.360576,-6.636025 -0.718077,-1.774558 -1.526946,-3.565625 -2.401844,-5.340183 A 62.951259,62.951259 0 0 0 90.404952,64.299 C 90.11607,63.853296 89.802427,63.415847 89.497038,62.978398 A 27.501534,27.501534 0 0 0 89.100857,58.33153 c -0.668554,-3.862761 0.08254,-4.465285 2.112963,-4.712898 1.79932,-0.214598 7.354102,1.66726 9.05438,0.165075 1.29584,-1.139019 1.26282,-1.99741 1.33711,-3.615147 0.1073,-2.220262 2.24502,-2.814533 3.35928,-3.053892 a 1.0659073,1.0659073 0 0 0 0.6603,0.404434 1.0366725,1.0366725 0 1 0 -0.85839,-1.188542 1.1078364,1.1078364 0 0 0 0.008,0.165076 2.7426755,2.7426755 0 0 1 -2.15423,-0.808869 c -0.36317,-0.561256 1.52694,-2.888817 2.54216,-4.110373 a 1.2070549,1.2070549 0 0 0 0.42094,0.181582 1.0366725,1.0366725 0 1 0 -0.85839,-1.188541 1.0245807,1.0245807 0 0 0 0.0578,0.503479 c -0.94092,0.932675 -2.78151,2.731995 -3.28499,2.624696 -0.60253,-0.13206 -0.18159,-3.99482 0.0413,-5.810648 a 1.0226411,1.0226411 0 0 0 0.7841,-0.841884 1.0366935,1.0366935 0 1 0 -2.04693,-0.33015 1.0247705,1.0247705 0 0 0 0.60253,1.089496 c -0.40444,1.824082 -1.188546,5.695096 -1.642503,5.802395 -0.486972,0.123806 -1.172034,-2.773264 -1.592976,-4.613853 a 1.0154273,1.0154273 0 0 0 0.453957,-0.693316 1.0366725,1.0366725 0 1 0 -1.188542,0.858391 h 0.04127 c 0.247613,1.741544 0.519987,4.490047 0.26412,4.952257 -0.305389,0.544749 -1.683767,0.453957 -2.63295,0.30539 a 1.0348897,1.0348897 0 1 0 -1.188542,0.883152 1.0090471,1.0090471 0 0 0 0.858392,-0.280628 c 1.394885,0.610779 2.930085,1.328856 3.293251,2.533905 a 1.8019117,1.8019117 0 0 1 -1.089497,2.261531 c 0,0 -7.70076,-0.297136 -10.259426,0.437449 -1.741543,0.495226 -1.749797,4.019582 -1.617737,6.776338 -0.412688,-0.412688 -0.817122,-0.841883 -1.246318,-1.22981 a 35.854118,35.854118 0 0 0 -3.351027,-2.682473 33.870343,33.870343 0 0 0 -8.195986,-4.324971 26.393054,26.393054 0 0 0 -5.274153,-1.320602 c -0.734585,-0.107298 -1.485677,-0.222851 -2.245024,-0.354911 a 8.9456333,8.9456333 0 0 0 0.891407,-4.415763 c -0.07428,-3.053892 -1.20505,-8.088686 0.04952,-10.474023 a 12.258429,12.258429 0 0 1 3.037385,-3.491342 0.98106688,0.98106688 0 0 0 0.519987,0.264121 1.0366725,1.0366725 0 1 0 -0.858392,-1.188542 0.97569368,0.97569368 0 0 0 0.107299,0.594271 c -0.924421,0.751092 -2.154232,1.386632 -2.740249,0.924421 -0.660301,-0.511733 0.528241,-2.864055 1.172035,-4.118627 a 0.87972719,0.87972719 0 0 0 0.156821,0.05778 1.0366725,1.0366725 0 1 0 -0.858391,-1.188541 1.0146597,1.0146597 0 0 0 0.321896,0.89966 c -0.586017,1.328855 -1.741543,3.788476 -2.451367,3.33452 -0.445703,-0.288882 -0.107299,-3.342774 -0.239359,-5.224632 a 1.0181015,1.0181015 0 0 0 0.602525,-0.759346 1.0366725,1.0366725 0 1 0 -1.188542,0.858392 c 0.04952,1.55996 0.04127,4.944003 -0.759346,5.241138 -0.751092,0.280628 -1.956142,-1.568215 -3.103414,-3.639909 a 0.98667943,0.98667943 0 0 0 0.26412,-0.511733 1.0366725,1.0366725 0 1 0 -1.188542,0.858391 0.98992316,0.98992316 0 0 0 0.412688,-0.01651 c 0.70157,1.155526 2.385338,4.027835 1.758052,4.844958 -0.288882,0.379673 -1.848843,0.321897 -3.128176,0.305389 a 1.0180767,1.0180767 0 0 0 -0.841884,-0.817122 1.0367385,1.0367385 0 1 0 0.726331,1.535199 c 1.353617,0.511734 3.119922,1.411394 3.639909,2.360576 1.122512,2.022172 2.946593,9.004854 -0.528241,11.043533 a 16.705944,16.705944 0 0 1 -2.26153,1.097751 12.249119,12.249119 0 0 1 -5.125586,-3.012623 6.1516359,6.1516359 0 0 1 -1.79932,-4.952257 c 0.214597,-2.319307 0.594271,-4.43227 0.181582,-6.99919 A 15.976443,15.976443 0 0 0 49.969582,26.84343 c -0.07428,-0.181583 -0.189836,-0.379673 -0.288881,-0.577763 -1.172035,-2.261531 -3.953552,-5.463991 -6.768085,-8.311538 -3.177698,-3.210714 -6.396665,-5.96747 -7.403624,-6.371904 a 2.5861181,2.5861181 0 0 0 -3.442471,1.23501 l -0.02408,0.05254 c -0.718078,0.858392 -1.634245,3.417058 -2.344069,6.636025 -0.973944,4.415762 -1.559961,10.086097 -0.709823,14.411068 1.337109,6.776338 5.282407,9.640393 7.444893,11.274638 1.60123,1.213303 1.890111,1.890112 4.4983,4.333225 1.493931,1.394886 2.649457,6.776338 3.606894,8.633435 0.486972,0.949182 1.015212,1.906619 1.592976,2.855801 l -0.140314,2.187247 c 0,0 -0.165075,4.407509 -1.048228,6.16556 a 6.8370943,6.8370943 0 0 1 -1.766305,2.393591 c 0,0 -3.020877,-4.465285 -2.517397,-7.857581 a 29.843382,29.843382 0 0 1 0.594271,-3.086907 1.024036,1.024036 0 0 0 0.874898,-0.850137 1.0366936,1.0366936 0 0 0 -2.046933,-0.330151 1.0130337,1.0130337 0 0 0 0.56951,1.072989 c -0.189837,0.973944 -0.519987,2.319307 -1.328856,2.294546 -1.023466,-0.03301 -2.459621,-4.044343 -3.078653,-5.860171 a 1.0105741,1.0105741 0 1 0 -0.635539,0.123807 c 0.03301,0.0083 0.05778,-0.0083 0.08254,0 0.660301,1.650752 2.162486,5.298915 1.427901,5.686841 -0.685062,0.363166 -3.318012,-2.756756 -4.795436,-4.457031 a 1.103074,1.103074 0 1 0 -0.553002,0.412688 c 1.188542,1.221557 4.506554,4.762421 3.986567,5.521767 -0.453957,0.668554 -3.037384,-0.09079 -4.613853,-0.70157 a 1.0244321,1.0244321 0 0 0 -0.850137,-1.039974 1.0367715,1.0367715 0 1 0 0.676809,1.609484 c 1.518692,0.519987 4.366239,1.36187 4.242433,2.178993 -0.107299,0.734584 -1.023466,0.792361 -2.178993,1.155526 a 1.0275933,1.0275933 0 1 0 0.173329,0.742839 v -0.04952 c 1.287587,-0.313643 3.582132,-0.676808 4.869719,0.742839 1.617738,1.774559 4.811943,9.046123 6.512218,8.220746 1.485677,-0.718077 5.06781,-8.336299 6.718562,-10.267679 a 25.530148,25.530148 0 0 0 5.761126,3.293251 38.528848,38.528848 0 0 0 4.399255,1.526946 c 1.79932,0.519987 3.631655,0.940929 5.46399,1.337109 1.33711,0.297136 2.773264,0.577763 4.23418,0.907914 -1.86535,1.048228 -6.289366,3.59864 -7.337594,4.778928 -1.345363,1.510438 -0.50348,2.517397 0.586017,3.359281 0.685062,0.528241 0.305389,0.577763 7.634729,3.020877 a 6.8549059,6.8549059 0 0 1 -3.020876,0.586017 c -1.246318,0 -2.847548,-0.825376 -3.895776,-1.386632 0,-0.01651 0.0083,-0.02476 0.01651,-0.04127 a 1.0366725,1.0366725 0 1 0 -1.188542,0.858391 1.020817,1.020817 0 0 0 0.825376,-0.239359 c 1.056482,0.544748 3.161191,1.477424 2.228516,1.980903 -0.883153,0.470464 -4.663376,0.586017 -6.677293,1.023466 a 1.0183656,1.0183656 0 0 0 -0.70157,-0.478718 1.0366936,1.0366936 0 0 0 -0.330151,2.046933 1.0200329,1.0200329 0 0 0 1.130766,-0.718077 c 1.312348,-0.123807 6.09953,-0.470465 6.404919,0.140314 0.280628,0.553002 -4.044343,2.996115 -6.041754,4.663375 a 1.407514,1.407514 0 0 0 -0.19809,-0.07428 1.0366725,1.0366725 0 1 0 0.858391,1.188542 0.94540237,0.94540237 0 0 0 -0.01651,-0.404434 c 1.36187,-0.973944 6.49571,-4.374494 7.255056,-3.763716 0.676809,0.536495 -1.114258,4.770675 -1.989156,7.007444 a 1.0300282,1.0300282 0 1 0 1.139019,1.180288 1.0146432,1.0146432 0 0 0 -0.321897,-0.89966 c 0.775854,-1.559961 3.359281,-6.594756 3.887522,-6.512218 0.486972,0.07428 0.371419,3.681178 0.371419,4.977018 a 1.0257527,1.0257527 0 0 0 -0.462211,0.693316 1.0366725,1.0366725 0 1 0 1.188542,-0.858391 h -0.04952 c 0.346658,-2.352322 0.792361,-6.09953 1.172034,-6.355396 0.503479,-0.338405 5.373199,-2.765011 5.117332,-4.448778 -0.255867,-1.675514 -3.945298,-3.524356 -6.545233,-4.275449 -2.599935,-0.751092 7.048712,2.096456 9.401035,-1.4279 0.321896,-0.478719 0.59427,-0.891407 0.850137,-1.262826 a 12.415135,12.415135 0 0 1 1.964395,1.758051 30.010141,30.010141 0 0 1 4.712898,6.966175 59.350498,59.350498 0 0 0 3.829746,7.585207 39.310067,39.310067 0 0 0 6.949667,8.022649 30.757486,30.757486 0 0 0 4.225933,3.22722 13.477386,13.477386 0 0 0 8.10519,1.94789 c 0.24761,-0.0248 0.49523,-0.0578 0.74284,-0.1073 l 0.18984,-0.033 0.19809,-0.0413 0.3384,-0.0825 a 11.340058,11.340058 0 0 0 1.51869,-0.51999 10.768386,10.768386 0 0 0 4.93575,-4.2837 8.7516286,8.7516286 0 0 0 1.18029,-3.144677 5.8768021,5.8768021 0 0 0 -0.29714,-3.293251 z"
         style="fill:none;stroke:#2e7d32;stroke-width:3.3015px;stroke-linecap:round;stroke-linejoin:round"
         id="path2957"
         inkscape:export-filename="/home/lettera/Desktop/prova.png"
         inkscape:export-xdpi="96"
         inkscape:export-ydpi="96" />
      <path
         d="m 57.885155,24.664403 c 0.247613,0.429195 2.781518,4.333225 2.030426,5.307169 -0.387927,0.503479 -2.987862,0.231105 -4.225926,0.321896 a 0.18469443,0.18469443 0 0 0 -0.03301,0.363166 c 1.262825,0.33015 3.986567,1.477423 4.655121,2.690726 1.122512,2.022172 2.946593,9.004854 -0.52824,11.043533 a 21.129358,21.129358 0 0 1 -7.494416,2.476129 l -0.718077,3.103414 5.909693,0.932675 6.380158,-3.540863 a 8.3459397,8.3459397 0 0 0 1.039974,-4.67163 c -0.07428,-3.053891 -1.205049,-8.088686 0.04952,-10.474023 1.20505,-2.3028 3.573879,-3.821492 3.755462,-4.135135 0.181583,-0.305389 -0.165075,-0.420942 -0.338404,-0.231105 -0.891407,0.924421 -2.624696,2.055187 -3.359281,1.485677 -0.83363,-0.643793 1.312348,-4.275449 1.526946,-4.844958 0.214597,-0.56951 -0.156822,-0.792361 -0.404435,-0.264121 -0.247613,0.528241 -1.881857,4.67163 -2.781517,4.085613 -0.536495,-0.346658 0.05778,-4.655122 -0.379673,-6.173814 -0.239359,-0.841884 -0.50348,-0.148568 -0.478719,0.297135 0.02476,0.445703 0.272375,5.629066 -0.726331,5.992231 -0.792361,0.297136 -2.079948,-1.774559 -3.284997,-3.970059 -0.511733,-0.940929 -1.048227,-0.602525 -0.594271,0.206344 z"
         style="fill:url(#linearGradient3088);stroke-width:0.825376"
         id="path2959"
         inkscape:export-filename="/home/lettera/Desktop/prova.png"
         inkscape:export-xdpi="96"
         inkscape:export-ydpi="96" />
      <path
         d="m 45.735618,63.217724 c 0,0 -0.165075,4.407508 -1.048228,6.16556 a 6.8371273,6.8371273 0 0 1 -1.766305,2.393591 c 0,0 -3.020876,-4.465285 -2.517397,-7.857582 a 19.454488,19.454488 0 0 1 0.850138,-3.912283 c 0.156821,-0.478718 -0.470465,-0.6603 -0.660301,-0.156821 -0.198091,0.503479 -0.387927,3.218967 -1.518693,3.177698 -1.238064,-0.04127 -3.103414,-5.975723 -3.351027,-6.669039 -0.247613,-0.693316 -0.759346,-0.470465 -0.561256,0.189836 0.198091,0.660301 2.599935,5.942709 1.708529,6.421427 -0.775853,0.412688 -4.052597,-3.656417 -5.323676,-5.043048 -0.387927,-0.429196 -1.072989,-0.148568 -0.445703,0.586017 0,0 5.034794,5.02654 4.407508,5.942708 -0.544748,0.792361 -4.12688,-0.437449 -5.414467,-1.03172 -0.420942,-0.19809 -0.784108,0.123806 -0.264121,0.528241 0.519987,0.412688 5.282408,1.49393 5.125586,2.550412 -0.123806,0.817122 -1.254571,0.792361 -2.616442,1.304094 -0.883153,0.330151 -0.973944,0.949183 -0.165075,0.742839 0.808868,-0.206344 4.019582,-1.238064 5.637319,0.544748 1.617737,1.782813 4.811943,9.046123 6.512218,8.220747 1.700275,-0.825376 6.157306,-10.696875 7.296325,-10.713383 0.775854,-0.0083 -5.554781,-8.66645 -5.554781,-8.66645 z"
         style="fill:url(#linear-gradient-2-0);stroke-width:0.825376"
         id="path2961"
         inkscape:export-filename="/home/lettera/Desktop/prova.png"
         inkscape:export-xdpi="96"
         inkscape:export-ydpi="96" />
      <path
         d="m 81.598213,60.394937 c 0,0 2.76501,1.427901 2.855801,-0.420942 0.08254,-1.848842 -1.039974,-8.9966 1.485677,-9.714677 2.558667,-0.734585 10.259426,-0.437449 10.259426,-0.437449 a 1.80192,1.80192 0 0 0 1.089497,-2.261531 c -0.412688,-1.378378 -2.344069,-2.112963 -3.854507,-2.781518 -0.33015,-0.148568 -0.453957,-0.676808 0.06603,-0.519987 0.519987,0.156822 3.029131,0.619032 3.450073,-0.13206 0.346658,-0.627286 -0.272375,-5.455737 -0.495226,-6.289366 -0.222852,-0.83363 0.387927,-0.916168 0.586017,-0.247613 0.206344,0.668554 1.246318,6.198575 1.914873,6.025246 0.561255,-0.140314 1.659006,-6.132545 1.857096,-6.702055 0.20634,-0.569509 0.58602,-0.445703 0.54475,0.08254 -0.0413,0.528241 -0.89966,6.536979 -0.14032,6.702054 0.59428,0.132061 3.10342,-2.459621 3.7142,-3.045638 0.61078,-0.586017 0.85013,-0.206344 0.54475,0.206344 -0.30539,0.404435 -3.61515,4.110374 -3.14469,4.836705 0.44571,0.693316 1.97265,0.973944 2.74025,0.734584 0.7676,-0.247612 0.52824,0.37142 0.24761,0.544749 -0.28062,0.181582 -3.8545,0.321896 -4.00307,3.210713 -0.0825,1.617737 -0.0413,2.476129 -1.33711,3.615148 -1.708529,1.502184 -7.255056,-0.379673 -9.054377,-0.165076 -2.030425,0.247613 -2.781517,0.850138 -2.112963,4.712898 0.668555,3.862761 0.577764,8.963586 -1.015212,10.639099 -1.592976,1.675514 -2.096456,1.485677 -2.096456,1.485677 z"
         style="fill:url(#linear-gradient-3-5);stroke-width:0.825376"
         id="path2963"
         inkscape:export-filename="/home/lettera/Desktop/prova.png"
         inkscape:export-xdpi="96"
         inkscape:export-ydpi="96" />
      <path
         d="m 71.734968,73.633971 c 0,0 -6.842369,3.738954 -8.179478,5.249392 -1.33711,1.510439 -0.50348,2.517398 0.586017,3.359281 0.685062,0.528241 0.305389,0.577764 7.634729,3.020877 a 6.8549059,6.8549059 0 0 1 -3.020876,0.586017 c -1.444409,0 -3.375789,-1.114257 -4.349733,-1.634244 -0.973944,-0.519987 -1.006959,0.123806 -0.338404,0.577763 0.668555,0.453957 3.755461,1.642498 2.665965,2.228515 -0.916168,0.495226 -4.968765,0.594271 -6.908399,1.07299 -1.221556,0.305389 -0.602524,0.89966 0.05778,0.825376 0.668554,-0.08254 6.347142,-0.553002 6.677293,0.115552 0.288882,0.577764 -4.415763,3.20246 -6.281113,4.86972 -1.130765,1.006959 0.05778,1.155526 0.577764,0.734585 0.519987,-0.429196 6.726815,-4.67163 7.568699,-3.994821 0.70157,0.561256 -1.287587,5.191616 -2.104709,7.312833 -0.453957,1.188541 0.486972,0.916167 0.734585,0.39618 0.247613,-0.519987 3.499595,-7.032205 4.102119,-6.941413 0.528241,0.08254 0.346658,4.324971 0.371419,5.257646 0.02476,0.932675 0.519987,0.586017 0.602525,0.04952 0.346658,-2.278038 0.83363,-6.578248 1.238064,-6.850622 0.50348,-0.338404 5.373199,-2.76501 5.117333,-4.448777 -0.247613,-1.675514 -3.945298,-3.524357 -6.545233,-4.275449 -2.599935,-0.751092 7.048712,2.096456 9.401034,-1.427901 2.352322,-3.524356 2.76501,-4.027835 2.76501,-4.027835 z"
         style="fill:url(#linear-gradient-4-5);stroke-width:0.825376"
         id="path2965"
         inkscape:export-filename="/home/lettera/Desktop/prova.png"
         inkscape:export-xdpi="96"
         inkscape:export-ydpi="96" />
      <circle
         cx="96.809898"
         cy="38.142788"
         r="1.0317202"
         style="fill:#6bb828;stroke-width:0.825376"
         id="circle2967"
         inkscape:export-filename="/home/lettera/Desktop/prova.png"
         inkscape:export-xdpi="96"
         inkscape:export-ydpi="96" />
      <circle
         cx="57.909916"
         cy="24.119656"
         r="1.0317202"
         style="fill:#6bb828;stroke-width:0.825376"
         id="circle2969"
         inkscape:export-filename="/home/lettera/Desktop/prova.png"
         inkscape:export-xdpi="96"
         inkscape:export-ydpi="96" />
      <circle
         cx="31.19249"
         cy="57.951817"
         r="1.0317202"
         style="fill:#6bb828;stroke-width:0.825376"
         id="circle2971"
         inkscape:export-filename="/home/lettera/Desktop/prova.png"
         inkscape:export-xdpi="96"
         inkscape:export-ydpi="96" />
      <circle
         cx="29.855381"
         cy="63.72945"
         r="1.0317202"
         style="fill:#6bb828;stroke-width:0.825376"
         id="circle2973"
         inkscape:export-filename="/home/lettera/Desktop/prova.png"
         inkscape:export-xdpi="96"
         inkscape:export-ydpi="96" />
      <circle
         cx="31.910568"
         cy="68.227753"
         r="1.0317202"
         style="fill:#6bb828;stroke-width:0.825376"
         id="circle2975"
         inkscape:export-filename="/home/lettera/Desktop/prova.png"
         inkscape:export-xdpi="96"
         inkscape:export-ydpi="96" />
      <circle
         cx="63.860878"
         cy="84.256569"
         r="1.0317202"
         style="fill:#6bb828;stroke-width:0.825376"
         id="circle2977"
         inkscape:export-filename="/home/lettera/Desktop/prova.png"
         inkscape:export-xdpi="96"
         inkscape:export-ydpi="96" />
      <circle
         cx="59.197502"
         cy="88.58979"
         r="1.0317202"
         style="fill:#6bb828;stroke-width:0.825376"
         id="circle2979"
         inkscape:export-filename="/home/lettera/Desktop/prova.png"
         inkscape:export-xdpi="96"
         inkscape:export-ydpi="96" />
      <circle
         cx="60.171448"
         cy="94.656303"
         r="1.0317202"
         style="fill:#6bb828;stroke-width:0.825376"
         id="circle2981"
         inkscape:export-filename="/home/lettera/Desktop/prova.png"
         inkscape:export-xdpi="96"
         inkscape:export-ydpi="96" />
      <circle
         cx="66.568115"
         cy="98.65937"
         r="1.0317202"
         style="fill:#6bb828;stroke-width:0.825376"
         id="circle2983"
         inkscape:export-filename="/home/lettera/Desktop/prova.png"
         inkscape:export-xdpi="96"
         inkscape:export-ydpi="96" />
      <circle
         cx="72.089882"
         cy="97.247986"
         r="1.0317202"
         style="fill:#6bb828;stroke-width:0.825376"
         id="circle2985"
         inkscape:export-filename="/home/lettera/Desktop/prova.png"
         inkscape:export-xdpi="96"
         inkscape:export-ydpi="96" />
      <circle
         cx="40.841137"
         cy="59.817173"
         r="1.0317202"
         style="fill:#6bb828;stroke-width:0.825376"
         id="circle2987"
         inkscape:export-filename="/home/lettera/Desktop/prova.png"
         inkscape:export-xdpi="96"
         inkscape:export-ydpi="96" />
      <circle
         cx="62.688843"
         cy="22.171766"
         r="1.0317202"
         style="fill:#6bb828;stroke-width:0.825376"
         id="circle2989"
         inkscape:export-filename="/home/lettera/Desktop/prova.png"
         inkscape:export-xdpi="96"
         inkscape:export-ydpi="96" />
      <circle
         cx="66.510338"
         cy="24.25997"
         r="1.0317202"
         style="fill:#6bb828;stroke-width:0.825376"
         id="circle2991"
         inkscape:export-filename="/home/lettera/Desktop/prova.png"
         inkscape:export-xdpi="96"
         inkscape:export-ydpi="96" />
      <circle
         cx="68.672821"
         cy="27.982414"
         r="1.0317202"
         style="fill:#6bb828;stroke-width:0.825376"
         id="circle2993"
         inkscape:export-filename="/home/lettera/Desktop/prova.png"
         inkscape:export-xdpi="96"
         inkscape:export-ydpi="96" />
      <circle
         cx="55.7887"
         cy="30.483305"
         r="1.0317202"
         style="fill:#6bb828;stroke-width:0.825376"
         id="circle2995"
         inkscape:export-filename="/home/lettera/Desktop/prova.png"
         inkscape:export-xdpi="96"
         inkscape:export-ydpi="96" />
      <circle
         cx="35.509209"
         cy="56.259804"
         r="1.0317202"
         style="fill:#6bb828;stroke-width:0.825376"
         id="circle2997"
         inkscape:export-filename="/home/lettera/Desktop/prova.png"
         inkscape:export-xdpi="96"
         inkscape:export-ydpi="96" />
      <circle
         cx="101.03582"
         cy="36.879971"
         r="1.0317202"
         style="fill:#6bb828;stroke-width:0.825376"
         id="circle2999"
         inkscape:export-filename="/home/lettera/Desktop/prova.png"
         inkscape:export-xdpi="96"
         inkscape:export-ydpi="96" />
      <circle
         cx="105.47634"
         cy="40.734467"
         r="1.0317202"
         style="fill:#6bb828;stroke-width:0.825376"
         id="circle3001"
         inkscape:export-filename="/home/lettera/Desktop/prova.png"
         inkscape:export-xdpi="96"
         inkscape:export-ydpi="96" />
      <circle
         cx="105.51762"
         cy="46.503857"
         r="1.0317202"
         style="fill:#6bb828;stroke-width:0.825376"
         id="circle3003"
         inkscape:export-filename="/home/lettera/Desktop/prova.png"
         inkscape:export-xdpi="96"
         inkscape:export-ydpi="96" />
      <circle
         cx="93.293793"
         cy="44.275341"
         r="1.0317202"
         style="fill:#6bb828;stroke-width:0.825376"
         id="circle3005"
         inkscape:export-filename="/home/lettera/Desktop/prova.png"
         inkscape:export-xdpi="96"
         inkscape:export-ydpi="96" />
      <path
         d="m 120.76231,96.447368 a 6.0588471,6.0588471 0 0 0 -1.84884,-2.451367 5.8406259,5.8406259 0 0 0 -2.45137,-1.155527 6.0765514,6.0765514 0 0 0 -2.27804,-0.03302 6.3839298,6.3839298 0 0 0 -1.65075,0.519987 6.3069387,6.3069387 0 0 0 -0.95743,0.56951 c -0.20635,0.156821 -0.31365,0.239359 -0.31365,0.239359 a 0.32322556,0.32322556 0 0 0 -0.066,0.437449 0.32939938,0.32939938 0 0 0 0.45839,0.08307 l 0.0121,-0.0087 c 0,0 0.0991,-0.06603 0.28888,-0.19809 a 5.9226188,5.9226188 0 0 1 0.8749,-0.445703 5.6781919,5.6781919 0 0 1 1.46917,-0.371419 5.1383959,5.1383959 0 0 1 1.91487,0.140314 4.7446419,4.7446419 0 0 1 1.97265,1.072989 4.8363577,4.8363577 0 0 1 1.36187,2.046933 4.6870059,4.6870059 0 0 1 0.0908,2.575173 7.2384087,7.2384087 0 0 1 -1.13902,2.525654 8.6990934,8.6990934 0 0 1 -8.88105,3.58213 c -0.15682,-0.033 -0.31364,-0.0825 -0.47047,-0.1238 a 17.311332,17.311332 0 0 1 -2.74024,-1.70853 c -2.8393,-2.21201 -4.18466,-5.818907 -4.96052,-9.326756 -0.86664,-3.928791 -1.659001,-7.717267 -2.86405,-11.56352 -0.70157,-2.23677 -1.477424,-4.457031 -2.360576,-6.636025 -0.718078,-1.774558 -1.526946,-3.565625 -2.401845,-5.340183 A 62.948271,62.948271 0 0 0 90.11607,64.299 42.929597,42.929597 0 0 0 83.067358,55.797625 35.85132,35.85132 0 0 0 79.71633,53.115152 a 33.870648,33.870648 0 0 0 -8.195985,-4.324971 26.392649,26.392649 0 0 0 -5.274154,-1.320602 49.238641,49.238641 0 0 1 -8.29503,-1.824081 12.757072,12.757072 0 0 1 -5.571289,-3.169444 6.1516359,6.1516359 0 0 1 -1.79932,-4.952257 c 0.214597,-2.319307 0.59427,-4.43227 0.181582,-6.99919 a 15.976848,15.976848 0 0 0 -1.064735,-3.681178 c -0.07428,-0.181583 -0.189836,-0.379673 -0.288882,-0.577763 -1.172034,-2.261531 -3.953551,-5.463991 -6.768084,-8.311538 1.493931,3.986567 1.824081,8.171224 -0.264121,12.364135 0,0.866645 -2.599935,2.599935 -5.199869,1.73329 -5.298915,-2.121217 -7.354102,-7.164266 -7.758536,-12.537464 -0.973944,4.415762 -1.559961,10.086096 -0.709824,14.411067 1.337109,6.776339 5.282408,9.640394 7.444893,11.274639 1.60123,1.213303 1.890112,1.890111 4.4983,4.333225 1.493931,1.394886 2.649458,6.776338 3.606894,8.633435 a 29.76942,29.76942 0 0 0 5.084317,7.444893 c 0.313643,0.313643 0.63554,0.610778 0.973944,0.891406 a 24.892817,24.892817 0 0 0 6.462696,3.829745 38.525654,38.525654 0 0 0 4.399255,1.526946 c 1.79932,0.519987 3.631655,0.940929 5.46399,1.33711 1.73329,0.379673 3.623401,0.751092 5.538274,1.196795 a 32.324743,32.324743 0 0 1 8.245508,2.930086 14.140881,14.140881 0 0 1 3.714193,2.888816 30.010364,30.010364 0 0 1 4.712898,6.966175 59.353733,59.353733 0 0 0 3.829745,7.585207 39.310315,39.310315 0 0 0 6.949667,8.022656 30.756116,30.756116 0 0 0 4.225923,3.22722 13.477328,13.477328 0 0 0 8.1052,1.94789 c 0.24761,-0.0248 0.49522,-0.0578 0.74284,-0.1073 l 0.18983,-0.033 0.19809,-0.0413 0.33841,-0.0825 a 11.342493,11.342493 0 0 0 1.51869,-0.51999 10.768534,10.768534 0 0 0 4.93575,-4.2837 8.7517854,8.7517854 0 0 0 1.18029,-3.144684 5.9748981,5.9748981 0 0 0 -0.30539,-3.301505 z"
         style="fill:url(#linear-gradient-5-2);fill-opacity:1;stroke-width:0.825376"
         id="path3007"
         inkscape:export-filename="/home/lettera/Desktop/prova.png"
         inkscape:export-xdpi="96"
         inkscape:export-ydpi="96" />
      <path
         d="m 37.192975,32.05152 c 2.599935,0.866645 5.19987,-0.866645 5.19987,-1.73329 2.096455,-4.184658 1.758051,-8.369315 0.26412,-12.364135 -3.177698,-3.210714 -6.396665,-5.96747 -7.403624,-6.371904 a 2.5861181,2.5861181 0 0 0 -3.442496,1.235043 l -0.02408,0.05254 c -0.718077,0.858392 -1.634245,3.417058 -2.344068,6.636025 0.39618,5.389706 2.451367,10.424501 7.750282,12.545718 z"
         style="fill:#aed581;stroke-width:0.825376"
         id="path3009"
         inkscape:export-filename="/home/lettera/Desktop/prova.png"
         inkscape:export-xdpi="96"
         inkscape:export-ydpi="96" />
      <path
         d="m 29.434439,32.588014 a 4.605599,4.605599 0 1 1 4.605599,-4.605599 4.605599,4.605599 0 0 1 -4.605599,4.605599 z"
         style="fill:#ffffff;stroke-width:0.825376"
         id="path3011"
         inkscape:export-filename="/home/lettera/Desktop/prova.png"
         inkscape:export-xdpi="96"
         inkscape:export-ydpi="96" />
      <path
         d="m 29.434439,23.938072 a 4.0443432,4.0443432 0 1 1 -4.044343,4.044343 v 0 a 4.0403319,4.0403319 0 0 1 4.03632,-4.044343 h 0.008 m 0,-1.130766 a 5.1668548,5.1668548 0 1 0 5.166855,5.166855 5.1668548,5.1668548 0 0 0 -5.166855,-5.166855 z"
         style="fill:#b3b3b3;stroke-width:0.825376"
         id="path3013"
         inkscape:export-filename="/home/lettera/Desktop/prova.png"
         inkscape:export-xdpi="96"
         inkscape:export-ydpi="96" />
      <circle
         cx="28.320181"
         cy="26.084049"
         r="1.9726491"
         id="circle3015"
         style="stroke-width:0.825376"
         inkscape:export-filename="/home/lettera/Desktop/prova.png"
         inkscape:export-xdpi="96"
         inkscape:export-ydpi="96" />
      <path
         d="m 45.182616,26.356424 a 4.605599,4.605599 0 1 1 4.605599,-4.605599 v 0 a 4.6074561,4.6074561 0 0 1 -4.605599,4.605599 z"
         style="fill:#ffffff;stroke-width:0.825376"
         id="path3017"
         inkscape:export-filename="/home/lettera/Desktop/prova.png"
         inkscape:export-xdpi="96"
         inkscape:export-ydpi="96" />
      <path
         d="m 45.174362,17.706482 a 4.0443432,4.0443432 0 1 1 -4.044343,4.044343 v 0 a 4.0403402,4.0403402 0 0 1 4.036321,-4.044343 h 0.008 m 0,-1.122512 a 5.1668548,5.1668548 0 1 0 5.166855,5.166855 5.1668548,5.1668548 0 0 0 -5.166855,-5.166855 z"
         style="fill:#b3b3b3;stroke-width:0.825376"
         id="path3019"
         inkscape:export-filename="/home/lettera/Desktop/prova.png"
         inkscape:export-xdpi="96"
         inkscape:export-ydpi="96" />
      <circle
         cx="45.430229"
         cy="19.769922"
         r="1.9726491"
         id="circle3021"
         style="stroke-width:0.825376"
         inkscape:export-filename="/home/lettera/Desktop/prova.png"
         inkscape:export-xdpi="96"
         inkscape:export-ydpi="96" />
      <path
         d="m 42.912832,36.244431 c 0,0 0.09079,0.33015 0.272374,0.940928 0.173329,0.643794 0.445703,1.436155 0.817122,2.492636 a 22.439708,22.439708 0 0 0 1.642499,3.59864 19.90147,19.90147 0 0 0 3.070399,3.986567 44.451187,44.451187 0 0 0 4.778928,4.060851 c 0.89966,0.676809 1.890112,1.436155 2.83104,2.071694 l 0.759347,0.528241 0.734584,0.462211 c 0.478718,0.313643 0.990452,0.619032 1.5352,0.924421 a 76.342261,76.342261 0 0 0 6.825861,3.458326 c 2.410098,1.089497 4.910988,2.162486 7.403624,3.342774 a 71.24766,71.24766 0 0 1 7.345848,3.912283 l 0.445703,0.272374 0.247613,0.156821 0.206344,0.140314 c 0.280628,0.198091 0.536495,0.354912 0.83363,0.586017 0.594271,0.43745 1.139019,0.874899 1.675514,1.320602 a 29.984934,29.984934 0 0 1 2.921831,2.864056 42.306117,42.306117 0 0 1 7.362356,12.273343 62.335784,62.335784 0 0 1 2.921831,9.533095 c 0.264121,1.172034 0.429196,2.096455 0.536495,2.723741 0.107299,0.63554 0.165075,0.96569 0.165075,0.96569 a 0.1460173,0.1460173 0 0 1 -0.115553,0.165076 0.15523675,0.15523675 0 0 1 -0.156821,-0.09079 c 0,0 -0.445703,-1.287587 -1.287587,-3.507848 A 81.558548,81.558548 0 0 0 92.71603,84.512429 50.646386,50.646386 0 0 0 89.422779,78.982409 37.458988,37.458988 0 0 0 84.965748,73.518418 26.578953,26.578953 0 0 0 82.233752,71.075305 C 81.74678,70.695632 81.243301,70.332466 80.748075,70.01057 80.51697,69.845494 80.203327,69.663912 79.930953,69.490583 L 79.716355,69.358522 79.534772,69.251224 79.11383,69.011864 A 64.831779,64.831779 0 0 0 72.040357,65.504016 C 67.121115,63.382799 61.970767,61.41015 57.340407,58.801961 56.762644,58.488318 56.193134,58.14166 55.623625,57.778495 L 54.781741,57.242 54.022395,56.71376 C 52.932898,55.970921 52.016731,55.269351 51.042787,54.551274 A 42.411641,42.411641 0 0 1 45.842917,50.04472 21.9193,21.9193 0 0 1 42.285546,45.141986 25.840687,25.840687 0 0 1 40.502733,40.883045 C 40.114806,39.686249 39.875447,38.67929 39.743387,38.085019 39.603073,37.465987 39.528789,37.127583 39.528789,37.127583 a 1.7502762,1.7502762 0 0 1 3.384043,-0.883152 z"
         style="fill:url(#linearGradient8879);stroke-width:0.825376"
         id="path3023"
         inkscape:export-filename="/home/lettera/Desktop/prova.png"
         inkscape:export-xdpi="96"
         inkscape:export-ydpi="96" />
    </g>
    <g
       id="g14321"
       transform="translate(-1.0583333,1.0583339)">
      <rect
         style="fill:#000000;stroke:#808080;stroke-width:0.0188383"
         id="rect3257"
         width="5.9811616"
         height="5.9811616"
         x="133.9599"
         y="135.78215" />
      <rect
         style="fill:#000000;fill-opacity:0.000420245;stroke:none;stroke-width:0;stroke-miterlimit:4;stroke-dasharray:none;stroke-opacity:0.00240108"
         id="rect3500"
         width="119.97219"
         height="121.32319"
         x="76.964386"
         y="78.11113" />
    </g>
  </g>
</svg>
